<svg width="32" height="32" viewBox="0 0 32 32" fill="none" xmlns="http://www.w3.org/2000/svg">
<path d="M27.1085 6.44763L26.96 6.44307C23.9489 6.35096 22.0368 5.94495 19.6942 4.84417C18.3851 4.22908 17.1561 3.45324 15.9981 2.59375C14.8401 3.45324 13.6111 4.22908 12.302 4.84417C9.95942 5.94495 8.04794 6.35096 5.03689 6.44307L4.88775 6.44763C4.88883 10.9373 4.74185 15.4507 4.93825 19.9363C5.05102 22.5119 6.82696 24.2149 8.94742 25.62C11.2117 27.118 13.6136 28.4371 15.9981 29.7399C18.3827 28.437 20.7848 27.1179 23.0491 25.6198C25.1695 24.2147 26.9452 22.5118 27.058 19.9363C27.2544 15.4507 27.1074 10.9373 27.1085 6.44763Z" fill="#232226"/>
<path fill-rule="evenodd" clip-rule="evenodd" d="M16.0019 0L16.3911 0.288844C17.746 1.29443 19.0713 2.23631 20.5449 2.92871C23.0452 4.10361 25.6648 4.29748 28.5209 4.38487L29.1509 4.40414V5.02991C29.1509 6.30064 29.1511 7.57138 29.1512 8.84216C29.1514 10.1129 29.1516 11.3838 29.1516 12.6546C29.1516 16.7375 29.151 18.821 29.0982 20.0261C29.0717 20.6323 29.0311 21.0425 28.9645 21.3867C28.8968 21.7363 28.8054 21.9992 28.7028 22.2921C27.9277 24.5062 26.3819 26.0283 23.1739 28.0078C22.3649 28.507 20.6813 29.4857 19.1901 30.3362C18.443 30.7623 17.7403 31.1584 17.215 31.4485C16.9529 31.5933 16.732 31.7134 16.5707 31.7981C16.4909 31.84 16.4203 31.8761 16.3646 31.9028C16.3378 31.9157 16.3063 31.9303 16.2753 31.943C16.2604 31.9491 16.2365 31.9585 16.2081 31.9675L16.2068 31.9679C16.1938 31.9722 16.1086 32 16.0012 32C15.8939 32 15.8087 31.9722 15.7957 31.9679L15.7943 31.9675C15.7659 31.9585 15.742 31.9491 15.7271 31.943C15.6961 31.9303 15.6647 31.9157 15.6378 31.9028C15.5821 31.8761 15.5115 31.84 15.4318 31.7981C15.2705 31.7134 15.0496 31.5933 14.7875 31.4485C14.2623 31.1583 13.5596 30.7622 12.8127 30.3362C11.3216 29.4857 9.63817 28.507 8.82923 28.0078C5.62125 26.0283 4.07544 24.5062 3.30029 22.2922C3.19773 21.9992 3.10632 21.7363 3.03866 21.3867C2.97203 21.0425 2.93147 20.6323 2.90493 20.0261C2.85216 18.821 2.85156 16.7375 2.85156 12.6546V4.40413L3.48155 4.38486C6.33794 4.29751 8.9577 4.10372 11.4582 2.92872C12.9319 2.2363 14.2579 1.29435 15.6127 0.288844L16.0019 0ZM12.5835 5.42262C10.3109 6.4905 8.28876 6.93126 5.54047 7.06323C5.53754 8.22111 5.52636 9.37621 5.51519 10.5292C5.48483 13.6657 5.45461 16.7862 5.5911 19.9034C5.68955 22.152 7.22695 23.6969 9.31172 25.0783C11.4516 26.494 13.7198 27.7506 16.0016 28.9983C18.2835 27.7505 20.5518 26.4939 22.6917 25.0781C24.7764 23.6967 26.3136 22.1519 26.412 19.9034C26.5485 16.7862 26.5183 13.6656 26.4879 10.5291C26.4768 9.37617 26.4656 8.22109 26.4627 7.06323C23.7143 6.93126 21.6922 6.4905 19.4196 5.42261C18.2099 4.85423 17.0726 4.15653 16.0016 3.38956C14.9305 4.15653 13.7932 4.85425 12.5835 5.42262Z" fill="#EFAF33"/>
<path d="M9.75 12.423H16.8929L9.75 19.5658V23.1373H22.25V19.5658H15.1071L22.25 12.423V8.85156H9.75V12.423Z" fill="#EFAF33"/>
</svg>
