<svg width="40" height="40" viewBox="0 0 40 40" fill="none" xmlns="http://www.w3.org/2000/svg">
<path d="M35.3364 33.2371C34.8256 34.041 33.8911 34.3242 33.11 34.7106C32.2327 35.1473 31.273 35.1761 30.3224 35.2481C29.9262 35.2793 29.3215 35.2505 28.9779 35.2937C27.0378 35.5409 25.0496 35.8528 23.1416 36.0808C19.2821 36.5416 13.7849 35.9944 10.4613 35.2433C7.13776 34.4922 5.42903 34.1298 3.8669 31.6293C2.30476 29.1288 2.06426 30.9838 3.23471 27.593C4.40517 24.2022 8.40442 18.9732 10.8805 16.3958C13.3565 13.8185 16.1235 11.4692 18.1529 9.44624C20.1823 7.42327 22.4224 6.36019 24.1518 5.26351C25.8811 4.16684 26.4812 3.93886 27.9678 3.76608C29.4543 3.5933 28.9641 4.85796 29.933 5.3931C29.917 5.41709 29.9033 5.42669 29.8895 5.42909C29.9216 5.46269 29.972 5.52988 30.0476 5.65227C30.4301 6.2666 31.0966 7.34887 30.9638 8.27277C30.8309 9.19666 30.4118 9.71501 29.5803 10.0198C29.3238 11.2556 29.1405 11.6612 27.8143 11.6276C26.4881 11.594 25.4711 11.4668 24.0143 11.1452C22.5576 10.8237 22.2804 10.8261 20.9313 12.6235C19.5822 14.4209 17.1611 17.9413 16.2953 20.4586C15.4295 22.9783 14.7354 25.1717 13.1962 27.2642C13.8192 26.7963 14.243 26.4435 14.8568 25.882C15.3539 25.4284 15.9348 25.083 16.3605 24.7696C16.5647 24.5894 17.1045 24.2698 17.1045 24.2698C17.3985 24.0926 17.5225 24.0509 17.7612 23.931C20.2418 22.6855 22.1338 22.8199 24.5114 24.2262C25.2008 23.451 25.4734 22.5415 26.456 22.0136C30.5698 19.8035 33.4215 19.7915 36.2205 23.8662C38.5866 27.317 37.3039 30.1367 35.3364 33.2371Z" fill="#EFAF33"/>
</svg>
