<svg width="16" height="16" viewBox="0 0 16 16" fill="none" xmlns="http://www.w3.org/2000/svg">
<path d="M0.395029 0.335664C-0.0474047 0.783217 -0.0474047 1.48651 0.395029 1.93407L5.26179 6.85714L6.34517 7.96448L5.19859 9.15884L0.331825 14.0819C-0.110608 14.5295 -0.110608 15.2328 0.331825 15.6803C0.584643 15.8721 0.837462 16 1.15349 16C1.46951 16 1.78553 15.8721 1.97515 15.6803L8.80125 8.77522C9.24369 8.32767 9.24369 7.62437 8.80125 7.17682L1.97515 0.335664C1.53271 -0.111888 0.837461 -0.111888 0.395029 0.335664Z" fill="#8A8A8C"/>
<path d="M7.26195 0.335664C6.81952 0.783217 6.81952 1.48651 7.26195 1.93407L12.1287 6.85714L13.2121 7.96448L12.0655 9.15884L7.19875 14.0819C6.75631 14.5295 6.75631 15.2328 7.19875 15.6803C7.45156 15.8721 7.70438 16 8.02041 16C8.33643 16 8.65245 15.8721 8.84207 15.6803L15.6682 8.77522C16.1106 8.32767 16.1106 7.62437 15.6682 7.17682L8.84207 0.335664C8.39964 -0.111888 7.70438 -0.111888 7.26195 0.335664Z" fill="#8A8A8C"/>
</svg>
