<svg width="468" height="130" viewBox="0 0 468 130" fill="none" xmlns="http://www.w3.org/2000/svg">
<path d="M0 41.8137L13.956 10.2051H24.537L38.493 41.8137H27.3647L17.0573 15.2625H21.2532L10.9459 41.8137H0ZM8.30062 36.3048L11.0371 28.6284H25.7228L28.4593 36.3048H8.30062Z" fill="white"/>
<path d="M55.1131 41.8137V10.2051H71.3039C75.2565 10.2051 78.3122 10.9276 80.471 12.3725C82.6602 13.8175 83.7548 15.8495 83.7548 18.4685C83.7548 21.0273 82.7514 23.0593 80.7447 24.5644C78.7379 26.0395 76.0319 26.777 72.6265 26.777L73.5386 24.3387C77.1569 24.3387 79.9997 25.0461 82.0673 26.461C84.1348 27.8758 85.1686 29.9379 85.1686 32.6472C85.1686 35.4468 84.0436 37.6745 81.7936 39.3302C79.5437 40.9859 76.3359 41.8137 72.1704 41.8137H55.1131ZM65.6941 34.3631H71.6687C72.5505 34.3631 73.2042 34.1524 73.6299 33.7309C74.0859 33.2794 74.314 32.6472 74.314 31.8344C74.314 31.0216 74.0859 30.4196 73.6299 30.0282C73.2042 29.6068 72.5505 29.396 71.6687 29.396H65.6941V34.3631ZM65.6941 22.3518H70.2549C71.167 22.3518 71.8359 22.1562 72.2616 21.7648C72.6873 21.3735 72.9001 20.8015 72.9001 20.0489C72.9001 19.2662 72.6873 18.6792 72.2616 18.2879C71.8359 17.8664 71.167 17.6557 70.2549 17.6557H65.6941V22.3518Z" fill="white"/>
<path d="M122.748 31.2023C121.38 31.6839 120.103 32.0452 118.917 32.286C117.762 32.5268 116.637 32.6472 115.542 32.6472C110.86 32.6472 107.287 31.5484 104.824 29.3509C102.392 27.1533 101.176 23.9473 101.176 19.7328V10.2051H111.757V18.5588C111.757 20.4854 112.182 21.9153 113.034 22.8485C113.885 23.7516 115.177 24.2032 116.91 24.2032C118.096 24.2032 119.16 24.0978 120.103 23.8871C121.045 23.6463 121.836 23.3151 122.474 22.8937L122.748 31.2023ZM121.334 41.8137V10.2051H131.915V41.8137H121.334Z" fill="white"/>
<path d="M147.406 21.9454H161.635V29.6218H147.406V21.9454ZM148.136 33.7761H164.098V41.8137H137.555V10.2051H163.505V18.2427H148.136V33.7761ZM155.615 7.99248C154.46 7.99248 153.487 7.63123 152.696 6.90875C151.906 6.18626 151.51 5.22295 151.51 4.01882C151.51 2.81468 151.906 1.85137 152.696 1.12888C153.487 0.376294 154.46 0 155.615 0C156.771 0 157.744 0.376294 158.534 1.12888C159.325 1.85137 159.72 2.81468 159.72 4.01882C159.72 5.22295 159.325 6.18626 158.534 6.90875C157.744 7.63123 156.771 7.99248 155.615 7.99248ZM145.49 7.99248C144.335 7.99248 143.362 7.63123 142.571 6.90875C141.781 6.18626 141.386 5.22295 141.386 4.01882C141.386 2.81468 141.781 1.85137 142.571 1.12888C143.362 0.376294 144.335 0 145.49 0C146.646 0 147.619 0.376294 148.409 1.12888C149.2 1.85137 149.595 2.81468 149.595 4.01882C149.595 5.22295 149.2 6.18626 148.409 6.90875C147.619 7.63123 146.646 7.99248 145.49 7.99248Z" fill="white"/>
<path d="M168.464 41.8137V10.2051H177.312L190.083 30.841H185.431L197.836 10.2051H206.684L206.775 41.8137H196.969L196.878 24.8354H198.429L189.946 38.969H185.203L176.355 24.8354H178.27V41.8137H168.464Z" fill="white"/>
<path d="M226.053 41.8137V10.2051H256.93V41.8137H246.349V16.2107L248.675 18.4685H234.308L236.634 16.2107V41.8137H226.053Z" fill="white"/>
<path d="M278.811 42.5362C276.227 42.5362 273.825 42.1298 271.605 41.317C269.416 40.5042 267.516 39.3603 265.904 37.8852C264.293 36.3801 263.031 34.619 262.119 32.6021C261.237 30.5851 260.796 28.3876 260.796 26.0094C260.796 23.6011 261.237 21.4036 262.119 19.4167C263.031 17.3998 264.293 15.6538 265.904 14.1787C267.516 12.6736 269.416 11.5146 271.605 10.7018C273.825 9.88899 276.227 9.4826 278.811 9.4826C281.426 9.4826 283.828 9.88899 286.017 10.7018C288.207 11.5146 290.107 12.6736 291.718 14.1787C293.33 15.6538 294.577 17.3998 295.458 19.4167C296.37 21.4036 296.827 23.6011 296.827 26.0094C296.827 28.3876 296.37 30.5851 295.458 32.6021C294.577 34.619 293.33 36.3801 291.718 37.8852C290.107 39.3603 288.207 40.5042 286.017 41.317C283.828 42.1298 281.426 42.5362 278.811 42.5362ZM278.811 33.9116C279.815 33.9116 280.742 33.7309 281.594 33.3697C282.475 33.0085 283.235 32.4967 283.874 31.8344C284.543 31.142 285.06 30.3142 285.425 29.3509C285.789 28.3575 285.972 27.2436 285.972 26.0094C285.972 24.7752 285.789 23.6764 285.425 22.7131C285.06 21.7197 284.543 20.8918 283.874 20.2295C283.235 19.5372 282.475 19.0103 281.594 18.6491C280.742 18.2879 279.815 18.1072 278.811 18.1072C277.808 18.1072 276.866 18.2879 275.984 18.6491C275.132 19.0103 274.372 19.5372 273.703 20.2295C273.065 20.8918 272.563 21.7197 272.198 22.7131C271.833 23.6764 271.651 24.7752 271.651 26.0094C271.651 27.2436 271.833 28.3575 272.198 29.3509C272.563 30.3142 273.065 31.142 273.703 31.8344C274.372 32.4967 275.132 33.0085 275.984 33.3697C276.866 33.7309 277.808 33.9116 278.811 33.9116Z" fill="white"/>
<path d="M320.835 37.2982V18.4685H313.492L313.401 20.7262C313.34 22.3819 313.233 23.9323 313.081 25.3772C312.929 26.8222 312.717 28.1468 312.443 29.3509C312.2 30.555 311.88 31.6237 311.485 32.5569C311.09 33.46 310.603 34.2126 310.026 34.8147L298.669 33.5503C299.673 33.5503 300.494 33.2192 301.132 32.5569C301.801 31.8645 302.333 30.9163 302.728 29.7121C303.124 28.4779 303.413 27.0329 303.595 25.3772C303.808 23.6914 303.96 21.8401 304.051 19.8231L304.416 10.2051H331.416V37.2982H320.835ZM297.757 48V33.5503H335.612V48H325.76V41.8137H307.608V48H297.757Z" fill="white"/>
<path d="M339.226 41.8137V10.2051H355.417C359.37 10.2051 362.426 10.9276 364.584 12.3725C366.774 13.8175 367.868 15.8495 367.868 18.4685C367.868 21.0273 366.865 23.0593 364.858 24.5644C362.851 26.0395 360.145 26.777 356.74 26.777L357.652 24.3387C361.27 24.3387 364.113 25.0461 366.181 26.461C368.248 27.8758 369.282 29.9379 369.282 32.6472C369.282 35.4468 368.157 37.6745 365.907 39.3302C363.657 40.9859 360.449 41.8137 356.284 41.8137H339.226ZM349.807 34.3631H355.782C356.664 34.3631 357.318 34.1524 357.743 33.7309C358.199 33.2794 358.427 32.6472 358.427 31.8344C358.427 31.0216 358.199 30.4196 357.743 30.0282C357.318 29.6068 356.664 29.396 355.782 29.396H349.807V34.3631ZM349.807 22.3518H354.368C355.28 22.3518 355.949 22.1562 356.375 21.7648C356.801 21.3735 357.013 20.8015 357.013 20.0489C357.013 19.2662 356.801 18.6792 356.375 18.2879C355.949 17.8664 355.28 17.6557 354.368 17.6557H349.807V22.3518Z" fill="white"/>
<path d="M389.357 42.5362C386.772 42.5362 384.37 42.1298 382.151 41.317C379.962 40.5042 378.061 39.3603 376.45 37.8852C374.838 36.3801 373.577 34.619 372.664 32.6021C371.783 30.5851 371.342 28.3876 371.342 26.0094C371.342 23.6011 371.783 21.4036 372.664 19.4167C373.577 17.3998 374.838 15.6538 376.45 14.1787C378.061 12.6736 379.962 11.5146 382.151 10.7018C384.37 9.88899 386.772 9.4826 389.357 9.4826C391.972 9.4826 394.374 9.88899 396.563 10.7018C398.752 11.5146 400.652 12.6736 402.264 14.1787C403.875 15.6538 405.122 17.3998 406.004 19.4167C406.916 21.4036 407.372 23.6011 407.372 26.0094C407.372 28.3876 406.916 30.5851 406.004 32.6021C405.122 34.619 403.875 36.3801 402.264 37.8852C400.652 39.3603 398.752 40.5042 396.563 41.317C394.374 42.1298 391.972 42.5362 389.357 42.5362ZM389.357 33.9116C390.36 33.9116 391.288 33.7309 392.139 33.3697C393.021 33.0085 393.781 32.4967 394.419 31.8344C395.088 31.142 395.605 30.3142 395.97 29.3509C396.335 28.3575 396.517 27.2436 396.517 26.0094C396.517 24.7752 396.335 23.6764 395.97 22.7131C395.605 21.7197 395.088 20.8918 394.419 20.2295C393.781 19.5372 393.021 19.0103 392.139 18.6491C391.288 18.2879 390.36 18.1072 389.357 18.1072C388.354 18.1072 387.411 18.2879 386.529 18.6491C385.678 19.0103 384.918 19.5372 384.249 20.2295C383.61 20.8918 383.109 21.7197 382.744 22.7131C382.379 23.6764 382.196 24.7752 382.196 26.0094C382.196 27.2436 382.379 28.3575 382.744 29.3509C383.109 30.3142 383.61 31.142 384.249 31.8344C384.918 32.4967 385.678 33.0085 386.529 33.3697C387.411 33.7309 388.354 33.9116 389.357 33.9116Z" fill="white"/>
<path d="M408.081 10.1599H420.395L425.047 17.6105L429.699 10.1599H442.15L431.797 25.2418L443.108 41.8137H430.429L425.047 33.6406L419.757 41.8137H407.397L418.616 25.7385L408.081 10.1599Z" fill="white"/>
<path d="M451.308 29.7121C451.308 28.809 451.444 27.9962 451.718 27.2738C452.022 26.5513 452.387 25.904 452.813 25.3321C453.269 24.7601 453.74 24.2484 454.226 23.7968C454.743 23.3151 455.215 22.8636 455.64 22.4421C456.096 22.0207 456.461 21.5992 456.735 21.1778C457.039 20.7564 457.191 20.3198 457.191 19.8683C457.191 19.1759 456.887 18.6491 456.279 18.2879C455.701 17.9266 454.987 17.746 454.135 17.746C453.162 17.746 452.25 18.0169 451.399 18.5588C450.547 19.1007 449.879 19.8532 449.392 20.8166L441.274 16.7977C442.429 14.6303 444.178 12.8692 446.519 11.5146C448.86 10.1599 451.855 9.4826 455.503 9.4826C457.905 9.4826 460.034 9.81374 461.889 10.476C463.774 11.1082 465.264 12.0715 466.358 13.3659C467.453 14.6303 468 16.2107 468 18.1072C468 19.2512 467.818 20.2596 467.453 21.1326C467.118 22.0056 466.662 22.7733 466.085 23.4356C465.537 24.0677 464.96 24.6547 464.351 25.1966C463.743 25.7385 463.15 26.2502 462.573 26.7319C462.025 27.1834 461.569 27.65 461.204 28.1317C460.87 28.6134 460.703 29.1402 460.703 29.7121H451.308ZM456.005 42.2653C454.242 42.2653 452.797 41.7385 451.672 40.6848C450.547 39.6011 449.985 38.3217 449.985 36.8467C449.985 35.3415 450.547 34.0771 451.672 33.0536C452.797 32.0301 454.242 31.5183 456.005 31.5183C457.799 31.5183 459.243 32.0301 460.338 33.0536C461.463 34.0771 462.025 35.3415 462.025 36.8467C462.025 38.3217 461.463 39.6011 460.338 40.6848C459.243 41.7385 457.799 42.2653 456.005 42.2653Z" fill="white"/>
<path d="M37.8614 70.8333H57.5427V129.167H37.8614V70.8333ZM19.6813 129.167H0V70.8333H19.6813V129.167ZM39.1957 107.667H18.3469V91.5H39.1957V107.667Z" fill="#EFAF33"/>
<path d="M67.9215 129.167V70.8333H87.2691V101.167L107.367 70.8333H125.881V129.167H106.533V98.9167L86.5186 129.167H67.9215Z" fill="#EFAF33"/>
<path d="M161.252 129.167V70.8333H190.858C198.085 70.8333 203.673 72.1667 207.62 74.8333C211.623 77.5 213.625 81.25 213.625 86.0833C213.625 90.8056 211.79 94.5556 208.12 97.3333C204.451 100.056 199.503 101.417 193.276 101.417L194.944 96.9167C201.56 96.9167 206.758 98.2222 210.539 100.833C214.319 103.444 216.21 107.25 216.21 112.25C216.21 117.417 214.153 121.528 210.039 124.583C205.924 127.639 200.059 129.167 192.442 129.167H161.252ZM180.6 115.417H191.525C193.137 115.417 194.332 115.028 195.111 114.25C195.945 113.417 196.362 112.25 196.362 110.75C196.362 109.25 195.945 108.139 195.111 107.417C194.332 106.639 193.137 106.25 191.525 106.25H180.6V115.417ZM180.6 93.25H188.94C190.607 93.25 191.831 92.8889 192.609 92.1667C193.387 91.4444 193.776 90.3889 193.776 89C193.776 87.5556 193.387 86.4722 192.609 85.75C191.831 84.9722 190.607 84.5833 188.94 84.5833H180.6V93.25Z" fill="#EFAF33"/>
<path d="M284.925 109.583C282.423 110.472 280.088 111.139 277.92 111.583C275.807 112.028 273.75 112.25 271.748 112.25C263.186 112.25 256.654 110.222 252.15 106.167C247.703 102.111 245.479 96.1944 245.479 88.4167V70.8333H264.827V86.25C264.827 89.8056 265.605 92.4444 267.162 94.1667C268.718 95.8333 271.081 96.6667 274.25 96.6667C276.418 96.6667 278.364 96.4722 280.088 96.0833C281.811 95.6389 283.257 95.0278 284.424 94.25L284.925 109.583ZM282.34 129.167V70.8333H301.687V129.167H282.34Z" fill="#EFAF33"/>
<path d="M330.012 92.5H356.032V106.667H330.012V92.5ZM331.347 114.333H360.535V129.167H311.999V70.8333H359.451V85.6667H331.347V114.333ZM345.023 66.75C342.911 66.75 341.132 66.0833 339.686 64.75C338.241 63.4167 337.518 61.6389 337.518 59.4167C337.518 57.1944 338.241 55.4167 339.686 54.0833C341.132 52.6944 342.911 52 345.023 52C347.136 52 348.915 52.6944 350.361 54.0833C351.806 55.4167 352.529 57.1944 352.529 59.4167C352.529 61.6389 351.806 63.4167 350.361 64.75C348.915 66.0833 347.136 66.75 345.023 66.75ZM326.51 66.75C324.397 66.75 322.618 66.0833 321.172 64.75C319.727 63.4167 319.004 61.6389 319.004 59.4167C319.004 57.1944 319.727 55.4167 321.172 54.0833C322.618 52.6944 324.397 52 326.51 52C328.622 52 330.401 52.6944 331.847 54.0833C333.292 55.4167 334.015 57.1944 334.015 59.4167C334.015 61.6389 333.292 63.4167 331.847 64.75C330.401 66.0833 328.622 66.75 326.51 66.75Z" fill="#EFAF33"/>
<path d="M368.519 129.167V70.8333H384.697L408.048 108.917H399.542L422.225 70.8333H438.404L438.571 129.167H420.641L420.474 97.8333H423.309L407.798 123.917H399.125L382.946 97.8333H386.449V129.167H368.519Z" fill="#EFAF33"/>
<path d="M449.236 106.833L445.483 70.8333H468L464.247 106.833H449.236ZM456.742 130C453.517 130 450.876 129.028 448.819 127.083C446.762 125.083 445.733 122.722 445.733 120C445.733 117.222 446.762 114.889 448.819 113C450.876 111.111 453.517 110.167 456.742 110.167C460.022 110.167 462.663 111.111 464.664 113C466.721 114.889 467.75 117.222 467.75 120C467.75 122.722 466.721 125.083 464.664 127.083C462.663 129.028 460.022 130 456.742 130Z" fill="#EFAF33"/>
</svg>
