<svg width="50" height="50" viewBox="0 0 50 50" fill="none" xmlns="http://www.w3.org/2000/svg">
<path fill-rule="evenodd" clip-rule="evenodd" d="M24.86 0.52C24.9514 0.493333 25.0486 0.493333 25.14 0.52L49.14 7.52C49.3533 7.58222 49.5 7.77778 49.5 8C49.5 8.22222 49.3533 8.41778 49.14 8.48L25.14 15.48C25.0486 15.5067 24.9514 15.5067 24.86 15.48L0.86 8.48C0.646667 8.41778 0.5 8.22222 0.5 8C0.5 7.77778 0.646667 7.58222 0.86 7.52L24.86 0.52ZM2.78571 8L25 14.4792L47.2143 8L25 1.52083L2.78571 8ZM1 15.5C1.27614 15.5 1.5 15.7239 1.5 16V41.3333L24.5 34.625V23C24.5 22.7239 24.7239 22.5 25 22.5C25.2761 22.5 25.5 22.7239 25.5 23V34.625L48.5 41.3333V16C48.5 15.7239 48.7239 15.5 49 15.5C49.2761 15.5 49.5 15.7239 49.5 16V42C49.5 42.2222 49.3533 42.4178 49.14 42.48L25.14 49.48C25.0486 49.5067 24.9514 49.5067 24.86 49.48L0.86 42.48C0.646667 42.4178 0.5 42.2222 0.5 42V16C0.5 15.7239 0.723858 15.5 1 15.5ZM47.2143 42L25 35.5208L2.78571 42L24.5 48.3333V42C24.5 41.7239 24.7239 41.5 25 41.5C25.2761 41.5 25.5 41.7239 25.5 42V48.3333L47.2143 42Z" fill="#545454"/>
</svg>
