<svg width="64" height="64" viewBox="0 0 64 64" fill="none" xmlns="http://www.w3.org/2000/svg">
<path d="M14.4705 14.4705C15.3167 13.6244 16.6885 13.6244 17.5347 14.4705L31.649 28.5849C31.7428 28.6787 31.87 28.7314 32.0026 28.7314C32.1352 28.7314 32.2624 28.6787 32.3562 28.5849L46.4705 14.4705C47.3167 13.6244 48.6885 13.6244 49.5347 14.4705C50.3808 15.3167 50.3808 16.6885 49.5347 17.5347L35.4203 31.649C35.225 31.8443 35.225 32.1609 35.4203 32.3562L49.5347 46.4705C50.3808 47.3167 50.3808 48.6885 49.5347 49.5347C48.6885 50.3808 47.3167 50.3808 46.4705 49.5347L32.3562 35.4203C32.1609 35.225 31.8443 35.225 31.649 35.4203L17.5347 49.5347C16.6885 50.3808 15.3167 50.3808 14.4705 49.5347C13.6244 48.6885 13.6244 47.3167 14.4705 46.4705L28.5849 32.3562C28.6787 32.2624 28.7314 32.1352 28.7314 32.0026C28.7314 31.87 28.6787 31.7428 28.5849 31.649L14.4705 17.5347C13.6244 16.6885 13.6244 15.3167 14.4705 14.4705Z" fill="#EFAF33"/>
</svg>
