<svg width="64" height="64" viewBox="0 0 64 64" fill="none" xmlns="http://www.w3.org/2000/svg">
<path d="M14.875 2.32812C14.2891 2.87891 14.2773 3.33594 14.8281 4.67187C15.625 6.60547 15.7305 7.1914 15.7305 9.4414C15.7187 11.7383 15.707 11.8086 14.5 15.7109C13.5977 18.6523 13.3281 19.9531 13.3281 21.4414C13.3281 23.2227 13.7031 24.4648 14.8281 26.4922C15.4141 27.5469 15.5664 27.7461 15.9414 27.8867C16.7969 28.2031 17.6875 27.7344 17.8398 26.8672C17.8984 26.5039 17.8164 26.2344 17.3828 25.2969C16.6094 23.6445 16.375 22.707 16.293 20.9609C16.2109 19.0625 16.3047 18.4648 17.3711 14.2344C18.4023 10.2031 18.6016 8.73828 18.3789 6.94531C18.1445 5 17.5117 3.18359 16.832 2.44531C16.457 2.04687 16.3516 2 15.8242 2C15.332 2 15.168 2.05859 14.875 2.32812Z" fill="#8A8A8C"/>
<path d="M24.3906 2.39844C23.8633 2.92578 23.8633 3.35938 24.4023 4.70703C25.1523 6.57031 25.3047 7.36719 25.3281 9.32422C25.3399 11.3867 25.2461 11.9023 24.2149 15.1836C23.125 18.6172 22.9141 19.6133 22.9141 21.2773C22.9258 23.1289 23.1836 24.1367 24.1328 26.0117C24.8711 27.4531 25.1758 27.8398 25.7266 27.9805C26.1719 28.0859 26.8867 27.8164 27.1563 27.4297C27.543 26.8906 27.4844 26.3398 26.9453 25.2617C26.3477 24.0547 26.043 23.0703 25.8672 21.6758C25.6445 20.0117 25.8438 18.4883 26.7109 15.125C27.9531 10.3438 27.9063 10.6133 27.9063 8.26953C27.918 6.58203 27.8711 6.00781 27.6953 5.39844C27.3203 4.02735 26.793 2.83203 26.4063 2.41016C26.0547 2.04688 25.9492 2 25.3984 2C24.8594 2 24.7422 2.04688 24.3906 2.39844Z" fill="#8A8A8C"/>
<path d="M33.9765 2.35157C33.4257 2.90235 33.4023 3.33595 33.9062 4.53126C34.6445 6.33595 34.914 7.58985 34.914 9.32423C34.914 11.2227 34.6914 12.3359 33.6718 15.5469C32.6406 18.7695 32.5 19.5313 32.5 21.4531C32.5 22.9297 32.5234 23.1055 32.8867 24.1719C33.1093 24.8047 33.5078 25.7188 33.789 26.2227C34.0703 26.7149 34.3046 27.1484 34.3046 27.1953C34.3046 27.3945 35.0195 27.9102 35.3828 27.9688C36.2031 28.1094 37 27.4414 37 26.6211C37 26.4219 36.8007 25.8477 36.5429 25.3438C35.4296 23.1055 35.125 21.043 35.5351 18.4063C35.6289 17.7969 36.0156 16.0742 36.4023 14.5977C37.3281 11.0586 37.4687 10.3789 37.5507 8.91407C37.6328 7.41407 37.457 6.03126 37.0117 4.60157C36.414 2.69142 35.8515 2.00001 34.8789 2.00001C34.4218 2.00001 34.2578 2.0586 33.9765 2.35157Z" fill="#8A8A8C"/>
<path d="M48.4141 34.6953C47.3359 34.8594 46.082 35.3867 45.2148 36.0312C44.8867 36.2773 44.7813 36.3008 44.6406 36.1836C44.5 36.0781 40.4805 36.0312 26.3125 36.0078C9.64844 35.9844 8.125 35.9961 7.75 36.1719C7.02344 36.5234 7 36.6289 7 40.5781C7 45.4062 7.22266 47.6797 7.94922 50.5156C9.01563 54.6172 10.7617 58.1094 13.1758 60.9688L14.043 62H38.2539L38.8516 61.3203C39.625 60.418 40.6211 59.0234 41.3125 57.8633L41.8633 56.9375L44.8516 55.4375C48.3789 53.6563 49.8203 52.8125 51.1797 51.7227C53.4883 49.8594 55.0703 47.3398 55.9258 44.1641C56.2773 42.8516 56.3242 40.918 56.043 39.793C55.5742 37.9414 54.1211 36.1484 52.457 35.3633C51.1211 34.7422 49.668 34.4961 48.4141 34.6953ZM50.0781 37.707C52.6211 38.5508 53.9453 41.2344 53.1836 44.0117C52.832 45.2773 52.082 46.7539 51.2969 47.6914C50.2539 48.9336 48.8594 49.9063 46.1992 51.2188C44.9102 51.8516 43.8438 52.3672 43.832 52.3438C43.8203 52.332 43.9141 51.9805 44.0312 51.5586C44.875 48.8516 45.2148 46.3203 45.2852 42.3125L45.3438 39.0898L45.6602 38.7617C46.0469 38.3398 46.8203 37.8828 47.4648 37.6836C48.1563 37.4609 49.3867 37.4727 50.0781 37.707ZM42.4492 43.918C42.0742 49.8477 40.4922 54.5 37.5391 58.3906L36.9414 59.1875H15.3555L14.8281 58.5078C12.9414 56.1172 11.2422 52.4023 10.5156 49.1094C10.1875 47.6445 9.96484 45.9687 9.85937 44.2695L9.77734 42.8984H42.5078L42.4492 43.918Z" fill="#8A8A8C"/>
<path d="M14.875 2.32812C14.2891 2.87891 14.2773 3.33594 14.8281 4.67187C15.625 6.60547 15.7305 7.1914 15.7305 9.4414C15.7187 11.7383 15.707 11.8086 14.5 15.7109C13.5977 18.6523 13.3281 19.9531 13.3281 21.4414C13.3281 23.2227 13.7031 24.4648 14.8281 26.4922C15.4141 27.5469 15.5664 27.7461 15.9414 27.8867C16.7969 28.2031 17.6875 27.7344 17.8398 26.8672C17.8984 26.5039 17.8164 26.2344 17.3828 25.2969C16.6094 23.6445 16.375 22.707 16.293 20.9609C16.2109 19.0625 16.3047 18.4648 17.3711 14.2344C18.4023 10.2031 18.6016 8.73828 18.3789 6.94531C18.1445 5 17.5117 3.18359 16.832 2.44531C16.457 2.04687 16.3516 2 15.8242 2C15.332 2 15.168 2.05859 14.875 2.32812Z" stroke="#8A8A8C"/>
<path d="M24.3906 2.39844C23.8633 2.92578 23.8633 3.35938 24.4023 4.70703C25.1523 6.57031 25.3047 7.36719 25.3281 9.32422C25.3399 11.3867 25.2461 11.9023 24.2149 15.1836C23.125 18.6172 22.9141 19.6133 22.9141 21.2773C22.9258 23.1289 23.1836 24.1367 24.1328 26.0117C24.8711 27.4531 25.1758 27.8398 25.7266 27.9805C26.1719 28.0859 26.8867 27.8164 27.1563 27.4297C27.543 26.8906 27.4844 26.3398 26.9453 25.2617C26.3477 24.0547 26.043 23.0703 25.8672 21.6758C25.6445 20.0117 25.8438 18.4883 26.7109 15.125C27.9531 10.3438 27.9063 10.6133 27.9063 8.26953C27.918 6.58203 27.8711 6.00781 27.6953 5.39844C27.3203 4.02735 26.793 2.83203 26.4063 2.41016C26.0547 2.04688 25.9492 2 25.3984 2C24.8594 2 24.7422 2.04688 24.3906 2.39844Z" stroke="#8A8A8C"/>
<path d="M33.9765 2.35157C33.4257 2.90235 33.4023 3.33595 33.9062 4.53126C34.6445 6.33595 34.914 7.58985 34.914 9.32423C34.914 11.2227 34.6914 12.3359 33.6718 15.5469C32.6406 18.7695 32.5 19.5313 32.5 21.4531C32.5 22.9297 32.5234 23.1055 32.8867 24.1719C33.1093 24.8047 33.5078 25.7188 33.789 26.2227C34.0703 26.7149 34.3046 27.1484 34.3046 27.1953C34.3046 27.3945 35.0195 27.9102 35.3828 27.9688C36.2031 28.1094 37 27.4414 37 26.6211C37 26.4219 36.8007 25.8477 36.5429 25.3438C35.4296 23.1055 35.125 21.043 35.5351 18.4063C35.6289 17.7969 36.0156 16.0742 36.4023 14.5977C37.3281 11.0586 37.4687 10.3789 37.5507 8.91407C37.6328 7.41407 37.457 6.03126 37.0117 4.60157C36.414 2.69142 35.8515 2.00001 34.8789 2.00001C34.4218 2.00001 34.2578 2.0586 33.9765 2.35157Z" stroke="#8A8A8C"/>
<path d="M48.4141 34.6953C47.3359 34.8594 46.082 35.3867 45.2148 36.0312C44.8867 36.2773 44.7813 36.3008 44.6406 36.1836C44.5 36.0781 40.4805 36.0312 26.3125 36.0078C9.64844 35.9844 8.125 35.9961 7.75 36.1719C7.02344 36.5234 7 36.6289 7 40.5781C7 45.4062 7.22266 47.6797 7.94922 50.5156C9.01563 54.6172 10.7617 58.1094 13.1758 60.9688L14.043 62H38.2539L38.8516 61.3203C39.625 60.418 40.6211 59.0234 41.3125 57.8633L41.8633 56.9375L44.8516 55.4375C48.3789 53.6563 49.8203 52.8125 51.1797 51.7227C53.4883 49.8594 55.0703 47.3398 55.9258 44.1641C56.2773 42.8516 56.3242 40.918 56.043 39.793C55.5742 37.9414 54.1211 36.1484 52.457 35.3633C51.1211 34.7422 49.668 34.4961 48.4141 34.6953ZM50.0781 37.707C52.6211 38.5508 53.9453 41.2344 53.1836 44.0117C52.832 45.2773 52.082 46.7539 51.2969 47.6914C50.2539 48.9336 48.8594 49.9063 46.1992 51.2188C44.9102 51.8516 43.8438 52.3672 43.832 52.3438C43.8203 52.332 43.9141 51.9805 44.0312 51.5586C44.875 48.8516 45.2148 46.3203 45.2852 42.3125L45.3438 39.0898L45.6602 38.7617C46.0469 38.3398 46.8203 37.8828 47.4648 37.6836C48.1563 37.4609 49.3867 37.4727 50.0781 37.707ZM42.4492 43.918C42.0742 49.8477 40.4922 54.5 37.5391 58.3906L36.9414 59.1875H15.3555L14.8281 58.5078C12.9414 56.1172 11.2422 52.4023 10.5156 49.1094C10.1875 47.6445 9.96484 45.9687 9.85937 44.2695L9.77734 42.8984H42.5078L42.4492 43.918Z" stroke="#8A8A8C"/>
</svg>
