<svg width="48" height="48" viewBox="0 0 48 48" id="coins" fill="none" xmlns="http://www.w3.org/2000/svg">
<path fill-rule="evenodd" clip-rule="evenodd" d="M18.3529 7.25C15.3409 7.25 12.6228 7.87995 10.6297 8.96479C8.65475 10.0398 7.25 11.6545 7.25 13.6471V29.4588C7.25 31.4514 8.65475 33.0661 10.6297 34.1411C13.1626 35.5198 16.0773 35.8559 18.9165 35.8559C20.3563 39.7989 26.0593 40.75 29.6471 40.75C32.6591 40.75 35.3772 40.12 37.3703 39.0352C39.3453 37.9602 40.75 36.3455 40.75 34.3529V23.6235C40.75 21.6309 39.3453 20.0162 37.3703 18.9413C35.3772 17.8564 32.6591 17.2265 29.6471 17.2265H29.4559V13.6471C29.4559 11.6545 28.0511 10.0398 26.0762 8.96479C24.0831 7.87995 21.365 7.25 18.3529 7.25ZM10.6324 13.6471C10.6324 13.1679 11.1085 12.4149 12.5342 11.736C13.8937 11.0886 15.8959 10.6324 18.3529 10.6324C20.81 10.6324 22.8122 11.0886 24.1717 11.736C25.5974 12.4149 26.0735 13.1679 26.0735 13.6471C26.0735 14.5095 24.7956 15.1805 24.163 15.4918C22.7997 16.1626 20.7986 16.6618 18.3529 16.6618C15.9072 16.6618 13.9062 16.1626 12.5429 15.4918C11.9103 15.1805 10.6324 14.5095 10.6324 13.6471ZM10.6324 19.2941V18.254C12.6362 19.3936 15.3286 20.0441 18.3529 20.0441C19.1429 20.0441 19.9103 19.9997 20.6486 19.9138C19.8763 20.5416 19.2786 21.2784 18.9394 22.1206C16.7646 22.1206 14.5289 21.9586 12.5254 21.0364C11.911 20.7536 10.6324 20.1332 10.6324 19.2941ZM21.9265 23.6235C21.9265 23.1444 22.4026 22.3913 23.8283 21.7124C25.1878 21.0651 27.19 20.6088 29.6471 20.6088C32.0928 20.6088 34.0938 21.108 35.4571 21.7788C36.0897 22.0901 37.3676 22.7611 37.3676 23.6235C37.3676 24.486 36.0897 25.157 35.4571 25.4682C34.0938 26.1391 32.0928 26.6382 29.6471 26.6382C27.19 26.6382 25.1878 26.182 23.8283 25.5346C22.4026 24.8557 21.9265 24.1027 21.9265 23.6235ZM10.6324 24.3765V23.901C13.0214 25.2597 15.8303 25.6912 18.5441 25.6912L18.5436 27.3912C16.5137 27.3912 14.3895 27.171 12.5342 26.2876C11.1085 25.6087 10.6324 24.8556 10.6324 24.3765ZM21.9265 29.2706V28.2304C23.9303 29.3701 26.6227 30.0206 29.6471 30.0206C32.6714 30.0206 35.3638 29.3701 37.3676 28.2304V29.2706C37.3676 30.1331 36.0897 30.804 35.4571 31.1153C34.0938 31.7861 32.0928 32.2853 29.6471 32.2853C27.19 32.2853 25.1878 31.829 23.8283 31.1817C22.4026 30.5028 21.9265 29.7497 21.9265 29.2706ZM10.6324 29.4588V28.9834C13.0214 30.342 15.8303 30.7735 18.5441 30.7735L18.5436 32.4735C16.5137 32.4735 14.3895 32.2534 12.5342 31.3699C11.1085 30.691 10.6324 29.938 10.6324 29.4588ZM21.9265 34.3529V33.8775C23.9303 35.0171 26.6227 35.6676 29.6471 35.6676C32.6714 35.6676 35.3638 35.0171 37.3676 33.8775V34.3529C37.3676 34.8321 36.8915 35.5851 35.4658 36.264C34.1063 36.9114 32.1041 37.3676 29.6471 37.3676C27.19 37.3676 25.1878 36.9114 23.8283 36.264C22.4026 35.5851 21.9265 34.8321 21.9265 34.3529Z" fill="#1B1A1E" stroke="white" stroke-width="2.5"/>
</svg>
