<svg width="64" height="64" viewBox="0 0 64 64" fill="none" xmlns="http://www.w3.org/2000/svg">
<path d="M20.4628 3.05029C17.0834 3.48709 14.2786 5.99296 13.428 9.31496C13.2671 9.92418 13.1981 10.5794 13.1981 11.43V12.6599L11.6233 12.7289C9.72668 12.8094 8.85308 13.0048 7.62313 13.614C5.39314 14.7175 3.80686 16.6716 3.19763 19.0855C2.97923 19.9362 2.96774 20.4074 2.96774 31.8908C2.96774 43.3741 2.97923 43.8454 3.19763 44.696C3.94479 47.6156 6.32422 49.9951 9.2439 50.7422C10.06 50.9606 10.5313 50.9721 15.4626 50.9721C20.6353 50.9721 20.7962 50.9606 21.0146 50.7422C21.2905 50.4664 21.3249 49.8571 21.0835 49.5238C20.9226 49.3169 20.6927 49.3054 15.6465 49.2364C9.86462 49.156 9.72668 49.1445 8.31282 48.4088C7.41623 47.9375 6.00236 46.5236 5.53108 45.627C4.71495 44.0523 4.74943 44.7419 4.74943 31.8908C4.74943 21.2121 4.76093 20.281 4.95634 19.6028C5.58855 17.2924 7.33576 15.5222 9.6922 14.798C10.3474 14.6026 11.198 14.5911 27.2792 14.5911C43.349 14.5911 44.2111 14.6026 44.8548 14.798C47.2572 15.5451 48.9814 17.2809 49.5677 19.5568C49.7286 20.1661 49.7516 21.6834 49.7516 31.9022C49.7516 41.7188 49.7171 43.6614 49.5792 44.1902C49.0274 46.2823 47.3032 48.1444 45.2916 48.8226C44.9468 48.9375 44.0847 49.0985 43.3835 49.1789C42.5558 49.2824 41.9351 49.4203 41.6248 49.5698C41.3259 49.7307 40.6592 50.3629 39.8201 51.3055C37.5211 53.8688 34.8198 56.2138 31.9232 58.1679C30.6012 59.053 30.0955 59.2944 30.0955 59.03C30.0955 58.9725 30.2679 58.5472 30.4748 58.0874C31.176 56.5471 31.8197 54.7884 32.222 53.3056C32.7853 51.2825 32.7508 50.6158 32.0726 49.9031C31.4519 49.2479 31.4404 49.2479 27.5206 49.2479H23.8998L23.6699 49.5468C23.3595 49.9376 23.3595 50.2824 23.6699 50.6733L23.8998 50.9721H27.1183C30.4173 50.9721 30.7852 51.0181 30.7852 51.4204C30.7852 52.0297 29.6702 55.3172 28.8196 57.2138C28.1873 58.6277 28.1184 59.2024 28.4862 59.9381C28.9 60.7427 29.9116 61.2025 30.7622 60.9726C31.3599 60.8232 32.9002 59.8346 34.7969 58.4093C37.4062 56.4552 39.2338 54.7884 41.211 52.5469C41.8087 51.8687 42.3949 51.2595 42.5214 51.202C42.6363 51.1331 43.234 51.0296 43.8548 50.9721C45.2341 50.8457 45.9813 50.6273 47.1193 50.0411C48.6596 49.2479 49.8665 48.0295 50.6712 46.4777C51.3264 45.2132 51.5908 44.0982 51.5908 42.5579V41.3165H52.3724C53.7058 41.3165 55.2461 41.0981 56.1657 40.7877C58.8555 39.8911 60.982 37.5462 61.6487 34.7415C61.7867 34.1552 61.8211 33.0287 61.8211 28.8331C61.8211 23.8444 61.8096 23.6375 61.6027 23.4536C61.3154 23.1892 60.6142 23.1892 60.3268 23.4421C60.1314 23.6145 60.1084 23.9478 60.0624 28.7067C60.0165 33.0747 59.982 33.8794 59.821 34.4771C59.1543 36.7531 57.3152 38.6037 55.0852 39.19C54.7173 39.2934 53.7748 39.4084 53.0046 39.4428L51.6023 39.5118L51.5333 19.4189L51.1999 18.4533C50.1424 15.4187 47.4871 13.2577 44.3146 12.8209C43.7168 12.7404 38.6706 12.6944 29.2104 12.6944H15.0143L15.0718 11.338C15.1292 9.79774 15.3017 9.15403 15.9339 8.108C16.8305 6.62517 18.2213 5.55615 19.9226 5.02739C20.5778 4.83198 21.4284 4.82049 37.5096 4.82049C53.5794 4.82049 54.4415 4.83198 55.0852 5.02739C57.4761 5.76306 59.1429 7.4413 59.821 9.77475C59.982 10.361 60.0165 11.1656 60.0624 15.5107C60.1199 21.1546 60.0969 20.9707 60.9016 20.9707C61.1429 20.9707 61.4418 20.8787 61.5797 20.7638L61.8326 20.5684L61.7981 15.1083L61.7637 9.64831L61.4303 8.68274C60.6487 6.45275 58.821 4.48714 56.7519 3.64802C54.9817 2.93534 56.3956 2.98132 37.9694 2.96982C28.7391 2.95833 20.8537 2.99281 20.4628 3.05029Z" fill="#8A8A8C"/>
<path fill-rule="evenodd" clip-rule="evenodd" d="M27.1183 51.94C28.3972 51.94 29.1916 51.9477 29.6879 51.9748L29.6653 52.0567C29.5539 52.4572 29.3939 52.9663 29.2049 53.5236C28.826 54.6405 28.3455 55.9062 27.9366 56.8179L27.9361 56.8189C27.616 57.5348 27.3864 58.1458 27.3172 58.7132C27.2403 59.3445 27.3665 59.8626 27.6206 60.371L27.6256 60.3808C28.2386 61.5728 29.7003 62.2576 31.0064 61.9092C31.2702 61.8418 31.5588 61.7082 31.8291 61.5658C32.1186 61.4133 32.4506 61.2162 32.8124 60.9857C33.5367 60.5242 34.417 59.9053 35.3775 59.1836C38.0341 57.194 39.9116 55.4831 41.9367 53.1872C42.2282 52.8565 42.5137 52.5463 42.7373 52.3158C42.8388 52.2113 42.9219 52.129 42.9839 52.0707C43.031 52.0606 43.0908 52.049 43.163 52.0365C43.3762 51.9997 43.6551 51.9626 43.9431 51.9359C45.4403 51.7987 46.3087 51.5473 47.5625 50.9015C49.2856 50.0141 50.6357 48.6484 51.5303 46.9232C52.2616 45.5119 52.5585 44.2424 52.5585 42.558V42.2831C53.9208 42.2643 55.4731 42.0427 56.4737 41.7053C59.4867 40.7001 61.8478 38.0885 62.5902 34.9654L62.5907 34.9632C62.6844 34.5653 62.7281 34.0495 62.754 33.1694C62.7803 32.2736 62.7889 30.9292 62.7889 28.8332V28.8316C62.7889 27.6113 62.7882 26.6705 62.784 25.9435L62.7759 21.0626L62.8034 21.0414L62.7659 15.1068L62.7659 15.1023L62.7304 9.4831L62.3451 8.36705L62.3436 8.36274C61.476 5.88748 59.4583 3.70144 57.1156 2.75134L57.1133 2.75042C57.0321 2.7177 56.9498 2.68265 56.8652 2.64663C56.5803 2.52529 56.2695 2.39292 55.8853 2.30161C55.3816 2.18189 54.7349 2.11878 53.6419 2.079C51.712 2.00875 48.167 2.0071 41.0814 2.00382L41.0611 2.00381C40.0979 2.00337 39.0693 2.00289 37.9706 2.0022C33.3542 1.99645 29.0733 2.0022 25.8969 2.01658C24.309 2.02377 22.9955 2.03312 22.0536 2.0443C21.5831 2.04988 21.2025 2.05595 20.9258 2.06251C20.7007 2.06784 20.4668 2.07419 20.3388 2.09065C16.5619 2.57882 13.4399 5.37307 12.4914 9.07155C12.3033 9.78528 12.2304 10.5281 12.2304 11.4301V11.7338L11.5823 11.7622C9.59761 11.8464 8.58076 12.0599 7.19393 12.7468C4.71261 13.9748 2.93911 16.1577 2.25981 18.8469C2.12102 19.3879 2.06353 19.8156 2.03321 21.4834C2.00283 23.1542 2 26.1545 2 31.8909C2 37.6272 2.00283 40.6275 2.03321 42.2983C2.06357 43.9682 2.12116 44.3948 2.2603 44.9367C3.09488 48.1969 5.73926 50.8423 8.99883 51.6786L15.4626 51.94H27.1183ZM59.018 32.9653C59.0517 32.1623 59.0717 30.8869 59.0947 28.7015V15.5161C59.0717 13.3422 59.0517 12.0727 59.018 11.274C58.9845 10.4815 58.9392 10.2206 58.8896 10.0376C58.3037 8.02994 56.8869 6.59499 54.8025 5.95303C54.6429 5.90464 54.4215 5.84629 52.0707 5.81844C49.7733 5.79123 45.5479 5.78834 37.5096 5.78834C29.4656 5.78834 25.2402 5.79123 22.9428 5.81844C20.6115 5.84606 20.3725 5.90341 20.2045 5.9533C18.7222 6.41531 17.5302 7.33839 16.762 8.60884C16.4733 9.0865 16.3198 9.42226 16.2223 9.78748C16.1211 10.1663 16.0667 10.6267 16.0388 11.3742L16.0239 11.7268H29.2104C33.9415 11.7268 37.5713 11.7383 40.0942 11.7599C41.3552 11.7707 42.3427 11.784 43.0541 11.7998C43.7335 11.8148 44.2272 11.8328 44.4437 11.8619L44.4465 11.8623C47.9775 12.3484 51.1445 14.5878 52.3223 17.9675L52.5005 19.255L52.5665 38.4956L52.9571 38.4764L52.9613 38.4762C53.7156 38.4424 54.5666 38.3306 54.8232 38.2585L54.8311 38.2562L54.8391 38.2541C56.719 37.76 58.3098 36.18 58.8892 34.2159C58.9398 34.0247 58.9847 33.757 59.018 32.9653ZM10.4497 48.1067C11.3228 48.2048 12.7379 48.2282 15.6537 48.2688L27.6834 48.2803C29.4941 48.2802 30.5315 48.2802 31.1713 48.372C31.5346 48.4242 31.8576 48.5153 32.1582 48.7004C32.4197 48.8615 32.6155 49.0687 32.7521 49.2134L32.7736 49.2361L32.7746 49.2371C33.2443 49.7311 33.5443 50.2886 33.5796 51.0694C33.6103 51.7489 33.4352 52.5561 33.1551 53.5622C32.8704 54.6112 32.4718 55.7852 32.0188 56.9274C34.6093 55.1088 37.023 52.9747 39.0983 50.6609C39.5291 50.1771 39.9233 49.7641 40.2555 49.4459C40.5604 49.1537 40.887 48.868 41.166 48.7178L41.1852 48.7074L41.2049 48.6979C41.6731 48.4725 42.438 48.3219 43.2634 48.2187L43.2731 48.2176C43.9564 48.1392 44.7359 47.9875 44.9842 47.9051C46.6795 47.3328 48.172 45.7285 48.643 43.9452C48.6508 43.9144 48.6757 43.779 48.698 43.3743C48.7195 42.9849 48.7366 42.4018 48.7495 41.5152C48.7752 39.7447 48.7839 36.8122 48.7839 31.9024C48.7839 26.7901 48.7781 23.8644 48.7523 22.1405C48.7258 20.3637 48.6755 19.9686 48.632 19.8041L48.6305 19.7983C48.1355 17.8766 46.6801 16.3803 44.5706 15.7232C44.4111 15.6748 44.1837 15.6168 41.8403 15.589C39.5429 15.5618 35.3176 15.5589 27.2792 15.5589C19.2352 15.5589 15.0098 15.5618 12.7124 15.589C10.3747 15.6167 10.1408 15.6743 9.97269 15.7243C7.92292 16.3555 6.43099 17.8807 5.88984 19.8584L5.88624 19.8709C5.83019 20.0654 5.7749 20.3365 5.74721 22.0127C5.72008 23.6549 5.71717 26.547 5.71717 31.8909L5.71707 33.3513C5.7165 38.8035 5.71623 41.4633 5.80036 42.9323C5.84565 43.7232 5.91258 44.0922 5.98848 44.3356C6.05092 44.5357 6.12079 44.6685 6.26331 44.9392C6.29997 45.0089 6.34143 45.0876 6.38881 45.179C6.55858 45.5009 6.95035 45.9968 7.44675 46.4932C7.94339 46.9899 8.43954 47.3818 8.76141 47.5514C9.41439 47.8912 9.68233 48.0206 10.4497 48.1067Z" fill="#8A8A8C"/>
<path fill-rule="evenodd" clip-rule="evenodd" d="M38.5428 36.3564C39.1202 36.3579 39.7412 36.2616 40.2084 36.0253C41.5612 35.3608 42.3045 34.2276 42.3951 32.713C42.4181 32.327 42.4251 32.0395 42.3777 31.7587C42.3297 31.4742 42.2304 31.2233 42.0912 30.9043L42.0886 30.8985C41.6615 29.9537 40.8545 29.1715 39.9426 28.8585L39.941 28.8579C39.5503 28.7254 39.0214 28.6658 38.5313 28.6613C38.0442 28.6568 37.5201 28.7059 37.1444 28.8359L37.1377 28.8383C36.0725 29.2244 35.1084 30.2529 34.8018 31.3594L34.8014 31.3607C34.6838 31.7895 34.6595 32.3359 34.6995 32.8415C34.7391 33.343 34.8475 33.8747 35.0438 34.2602L35.0454 34.2632C35.418 34.9817 36.1175 35.6505 36.882 36.0264C37.3451 36.2544 37.9632 36.3548 38.5428 36.3564ZM38.9279 33.4859C38.3994 33.7641 37.5909 33.365 37.5077 32.6083L37.5073 32.6041C37.4499 32.1205 37.6697 31.7608 37.988 31.5775C38.3092 31.3927 38.765 31.3697 39.2086 31.6626L39.2125 31.6652C39.5042 31.8537 39.637 32.1814 39.5926 32.545C39.5478 32.9113 39.3222 33.2804 38.9296 33.485L38.9279 33.4859Z" fill="#8A8A8C"/>
<path fill-rule="evenodd" clip-rule="evenodd" d="M32.2537 29.0553C35.1341 30.4889 35.0166 34.5208 32.1598 36.0091C31.6931 36.2563 31.0408 36.3577 30.4459 36.3592C29.8531 36.3607 29.2059 36.2635 28.7526 36.0191C27.3423 35.2747 26.5901 34.0951 26.577 32.5502V32.5461C26.577 30.964 27.3908 29.641 28.7946 28.9716C29.8264 28.4761 31.1902 28.5239 32.2537 29.0553ZM30.7067 33.5113C30.3004 33.6343 29.9116 33.538 29.6832 33.2477C29.4609 32.9629 29.3815 32.6752 29.4011 32.4227C29.4206 32.1716 29.5412 31.9141 29.7947 31.6907L29.797 31.6886C29.9413 31.5598 30.0164 31.5155 30.0741 31.4933C30.1306 31.4715 30.2109 31.4552 30.3943 31.4552C30.4927 31.4552 30.625 31.4718 30.756 31.5019C30.8876 31.5321 30.9781 31.5667 31.0149 31.5861C31.1526 31.6704 31.3057 31.8436 31.4141 32.0682C31.5254 32.2988 31.5539 32.5087 31.5287 32.6372L31.5283 32.6393C31.4466 33.0672 31.1134 33.3881 30.7067 33.5113Z" fill="#8A8A8C"/>
<path fill-rule="evenodd" clip-rule="evenodd" d="M24.1249 35.9689C23.6055 36.2251 22.9777 36.351 22.3786 36.3605C21.7827 36.37 21.1652 36.2649 20.6763 36.01C17.8292 34.5341 17.6907 30.5537 20.5497 29.0823C20.8692 28.9139 21.1215 28.7941 21.4086 28.726C21.693 28.6585 21.9847 28.6483 22.3709 28.6483C23.103 28.6483 23.5047 28.7113 24.0405 28.972C26.9356 30.3495 27.0017 34.5564 24.1249 35.9689ZM23.361 32.8391C23.0441 33.7745 21.731 33.8141 21.3641 32.836C21.2913 32.6416 21.2732 32.5204 21.2791 32.4231C21.2849 32.3276 21.3164 32.2115 21.4151 32.033L21.4188 32.0262C21.6161 31.6552 21.9388 31.4552 22.4284 31.4552C22.6469 31.4552 22.724 31.4709 22.7745 31.4903C22.825 31.5098 22.8929 31.55 23.0534 31.694C23.2467 31.8796 23.354 32.0625 23.4009 32.2366C23.4475 32.4094 23.4433 32.6052 23.3628 32.8338L23.361 32.8391Z" fill="#8A8A8C"/>
<path fill-rule="evenodd" clip-rule="evenodd" d="M15.9543 36.0253C15.4885 36.2608 14.8687 36.3606 14.2901 36.3606C13.7113 36.3606 13.0914 36.2608 12.6256 36.0252C11.862 35.6491 11.1636 34.9809 10.7914 34.2632L10.7898 34.2601C10.5935 33.8746 10.4851 33.343 10.4455 32.8415C10.4055 32.3358 10.4298 31.7895 10.5474 31.3607L10.5478 31.3594C10.8544 30.2528 11.8185 29.2244 12.8837 28.8382L12.8904 28.8359C13.266 28.7058 13.7901 28.6568 14.2759 28.6613C14.7629 28.6658 15.2892 28.725 15.6755 28.8579C16.5738 29.1582 17.3569 29.9028 17.785 30.8101C18.7152 32.7636 17.9002 35.07 15.9543 36.0253ZM14.6739 33.4858C14.1454 33.764 13.3369 33.365 13.2537 32.6082L13.2533 32.6041C13.1959 32.1205 13.4157 31.7608 13.734 31.5775C14.0552 31.3926 14.511 31.3697 14.9546 31.6625L14.9585 31.6651C15.2502 31.8536 15.383 32.1814 15.3386 32.5449C15.2938 32.9113 15.0682 33.2803 14.6756 33.485L14.6739 33.4858Z" fill="#8A8A8C"/>
</svg>
