<svg width="110" height="101" viewBox="0 0 110 101" fill="none" xmlns="http://www.w3.org/2000/svg">
<g clip-path="url(#clip0_6708_6311)">
<path d="M21.8592 98.3695C21.5592 97.5695 18.9592 95.8695 16.0592 94.4695C13.2592 93.1695 10.0592 91.0695 9.05925 89.9695C7.95925 88.7695 6.55925 87.8695 5.95925 87.8695C3.65925 87.8695 3.75925 84.3695 6.65925 74.8695C10.6592 61.2695 10.8592 59.7695 8.05925 65.1695C6.65925 67.8695 5.05925 70.6695 4.35925 71.4695C3.75925 72.2695 3.55925 72.8695 3.85925 72.8695C4.25925 72.8695 4.05925 73.7695 3.45925 74.8695C2.25925 77.0695 1.35925 81.6695 1.05925 86.2695C0.959248 88.6695 1.75925 89.7695 5.45925 92.3695C9.05925 94.8695 19.9592 99.8695 21.9592 99.8695C22.1592 99.8695 22.1592 99.1695 21.8592 98.3695Z" fill="#D4D4D5"/>
<path d="M17.7594 84.2715C18.0594 83.8715 19.6594 83.4715 21.1594 83.2715C25.7594 82.6715 26.8594 82.3715 28.1594 81.5715C28.8594 81.0715 29.4594 81.0715 29.4594 81.4715C29.4594 81.7715 30.0594 81.6715 30.7594 81.0715C31.9594 79.9715 40.1594 78.2715 41.6594 78.6715C42.1594 78.7715 42.4594 78.3715 42.4594 77.7715C42.4594 77.1715 43.0594 76.8715 43.8594 77.1715C44.5594 77.4715 45.7594 77.1715 46.3594 76.5715C46.9594 75.9715 47.4594 75.8715 47.4594 76.2715C47.4594 76.7715 48.6594 76.3715 50.0594 75.3715C51.4594 74.4715 53.3594 73.5715 54.2594 73.3715C57.3594 72.7715 74.6594 62.7715 79.1594 58.8715C79.8594 58.3715 80.7594 57.8715 81.2594 57.8715C81.7594 57.8715 83.4594 56.1715 84.9594 54.1715C86.5594 52.0715 88.5594 49.6715 89.5594 48.8715C91.8594 46.9715 101.459 31.0715 101.459 29.1715C101.459 28.3715 101.959 26.7715 102.659 25.5715C103.359 24.3715 103.959 22.9715 104.159 22.3715C104.259 21.8715 105.159 18.8715 105.959 15.8715C106.859 12.8715 107.759 8.57149 108.059 6.47149C108.359 4.27149 108.759 2.17149 109.059 1.77149C109.259 1.37149 108.859 0.87149 108.059 0.57149C107.059 0.17149 106.459 1.27149 105.959 4.17149C105.559 6.47149 104.959 9.07149 104.759 9.87149C104.459 10.6715 104.159 12.3715 104.059 13.6715C104.059 14.8715 103.559 15.8715 103.159 15.8715C102.659 15.8715 102.559 16.1715 102.759 16.5715C103.059 17.0715 101.959 20.0715 100.359 23.3715C98.7594 26.6715 97.4594 29.8715 97.4594 30.3715C97.4594 30.9715 94.8594 34.8715 91.6594 39.0715C88.5594 43.3715 85.1594 47.9715 84.1594 49.3715C80.4594 54.5715 67.4594 63.6715 54.8594 69.9715C47.8594 73.4715 41.1594 76.4715 39.9594 76.5715C38.8594 76.7715 34.3594 78.1715 29.9594 79.6715C25.5594 81.1715 20.9594 82.3715 19.7594 82.2715C18.5594 82.1715 17.3594 82.7715 17.0594 83.4715C16.4594 84.9715 16.7594 85.2715 17.7594 84.2715Z" fill="#D4D4D5"/>
</g>
<defs>
<clipPath id="clip0_6708_6311">
<rect width="109" height="100" fill="white" transform="translate(0.704102 0.492188)"/>
</clipPath>
</defs>
</svg>
