<svg width="48" height="50" viewBox="0 0 48 50" fill="none" xmlns="http://www.w3.org/2000/svg">
<path d="M36 49V49.5H36.5V49H36ZM12 49H11.5V49.5H12V49ZM8 1V0.5C7.72386 0.5 7.5 0.723858 7.5 1H8ZM40 1H40.5C40.5 0.723858 40.2761 0.5 40 0.5V1ZM40 49V49.5C40.2761 49.5 40.5 49.2761 40.5 49H40ZM8 49H7.5C7.5 49.2761 7.72386 49.5 8 49.5V49ZM12 5.5H36V4.5H12V5.5ZM35.5 5V49H36.5V5H35.5ZM12.5 49V5H11.5V49H12.5ZM8 1.5H40V0.5H8V1.5ZM39.5 1V49H40.5V1H39.5ZM40 48.5H8V49.5H40V48.5ZM8.5 49V1H7.5V49H8.5ZM12.3536 4.64645L8.35355 0.646447L7.64645 1.35355L11.6464 5.35355L12.3536 4.64645ZM36.3536 5.35355L40.3536 1.35355L39.6464 0.646447L35.6464 4.64645L36.3536 5.35355ZM48 48.5H0V49.5H48V48.5ZM36 48.5H12V49.5H36V48.5ZM30 28.5C29.1716 28.5 28.5 27.8284 28.5 27H27.5C27.5 28.3807 28.6193 29.5 30 29.5V28.5ZM31.5 27C31.5 27.8284 30.8284 28.5 30 28.5V29.5C31.3807 29.5 32.5 28.3807 32.5 27H31.5ZM30 25.5C30.8284 25.5 31.5 26.1716 31.5 27H32.5C32.5 25.6193 31.3807 24.5 30 24.5V25.5ZM30 24.5C28.6193 24.5 27.5 25.6193 27.5 27H28.5C28.5 26.1716 29.1716 25.5 30 25.5V24.5Z" fill="#545454"/>
</svg>
