<svg width="50" height="50" viewBox="0 0 50 50" fill="none" xmlns="http://www.w3.org/2000/svg">
<path fill-rule="evenodd" clip-rule="evenodd" d="M0.894321 16.6435C-1.15571 8.44341 5.04633 0.5 13.4988 0.5C21.9513 0.5 28.1534 8.44343 26.1033 16.6436L21.9989 33.0614L21.9988 45C21.9988 45 21.9988 45 21.9988 45C21.9988 47.4852 19.9841 49.5 17.4988 49.5H9.49882C7.01354 49.5 4.99882 47.4853 4.99882 45V33.0616L0.894321 16.6435ZM5.99882 33.5V38.3975L21 35.5851L20.9991 33.5H5.99882ZM21.1084 32.5L25.1332 16.401C27.0254 8.83204 21.3007 1.5 13.4988 1.5C5.6969 1.5 -0.0277807 8.83203 1.86446 16.401L5.88921 32.5H8.99883L8.99882 24C8.99882 21.5147 11.0135 19.5 13.4988 19.5C15.9841 19.5 17.9988 21.5147 17.9988 24V32.5H21.1084ZM16.9988 32.5V24C16.9988 22.067 15.4318 20.5 13.4988 20.5C11.5658 20.5 9.99882 22.067 9.99882 24L9.99883 32.5H16.9988ZM21.0002 36.6025L5.99882 39.415V44.3975L20.9994 41.5852L21.0002 36.6025ZM20.9992 42.6026L6.02264 45.4105C6.22587 47.1501 7.7047 48.5 9.49882 48.5H17.4988C19.4318 48.5 20.9988 46.933 20.9988 45L20.9992 42.6026ZM47.0002 1.5C42.8581 1.5 39.5002 4.85786 39.5002 9V18.5145C43.9619 18.7733 47.5002 22.4734 47.5002 27V32.55C48.6414 32.7816 49.5002 33.7905 49.5002 35C49.5002 36.2095 48.6414 37.2184 47.5002 37.45V47C47.5002 48.3807 46.381 49.5 45.0002 49.5C43.6195 49.5 42.5002 48.3807 42.5002 47V37.5H35.5002V47C35.5002 48.3807 34.381 49.5 33.0002 49.5C31.6195 49.5 30.5002 48.3807 30.5002 47V37.45C29.3591 37.2184 28.5002 36.2095 28.5002 35C28.5002 33.7905 29.3591 32.7816 30.5002 32.55V27C30.5002 22.4734 34.0386 18.7733 38.5002 18.5145V9C38.5002 4.30558 42.3058 0.5 47.0002 0.5H49.0002V1.5H47.0002ZM31.5002 32.5H46.5002V27C46.5002 22.8579 43.1424 19.5 39.0002 19.5C34.8581 19.5 31.5002 22.8579 31.5002 27V32.5ZM31.5002 37.5V47C31.5002 47.8284 32.1718 48.5 33.0002 48.5C33.8287 48.5 34.5002 47.8284 34.5002 47V37.5H31.5002ZM47.0002 36.5C47.8287 36.5 48.5002 35.8284 48.5002 35C48.5002 34.1716 47.8287 33.5 47.0002 33.5H31.0002C30.1718 33.5 29.5002 34.1716 29.5002 35C29.5002 35.8284 30.1718 36.5 31.0002 36.5H47.0002ZM46.5002 37.5H43.5002V47C43.5002 47.8284 44.1718 48.5 45.0002 48.5C45.8287 48.5 46.5002 47.8284 46.5002 47V37.5Z" fill="#545454"/>
</svg>
