<svg width="64" height="64" viewBox="0 0 64 64" fill="none" xmlns="http://www.w3.org/2000/svg">
<path d="M8.60324 2.22266C8.13449 2.33984 7.29074 2.66797 6.72824 2.9375C5.88449 3.35938 5.50949 3.64063 4.5837 4.56641C3.61105 5.55078 3.38839 5.84375 2.91964 6.80469C1.93527 8.85547 2.0173 6.73438 2.0173 31.6602C2.01729 53.2109 2.02901 53.8672 2.23995 54.1953C2.74386 54.9453 2.82589 54.9688 6.09542 54.9688L9.04854 54.9688L9.04854 57.9219C9.04854 61.1914 9.07198 61.2734 9.82198 61.7773C10.1501 61.9883 10.7478 62 29.0407 62L47.9196 62L48.3064 61.7305C48.5173 61.5898 48.7868 61.2852 48.904 61.0625C49.1149 60.6758 49.1267 60.2539 49.1267 54.0898L49.1267 47.5273L55.0329 41.6094C58.279 38.3516 61.0681 35.4688 61.2321 35.1992C61.8298 34.25 62.0407 33.3477 61.9939 32.0586C61.9587 31.0391 61.9001 30.7813 61.5837 30.0898C60.2829 27.3359 57.0485 26.1992 54.3064 27.5586C53.6853 27.8633 53.1228 28.3438 51.3415 30.1016L49.1267 32.2695L49.1267 15.8633L49.6306 15.7109C51.2946 15.2188 52.8884 13.7773 53.7087 12.043C55.5134 8.17579 53.4978 3.57032 49.4548 2.29297L48.529 2L28.9939 2.01172C10.6071 2.01172 9.41183 2.03516 8.60324 2.22266ZM48.5993 5.84375C49.3376 6.1836 49.9939 6.81641 50.3923 7.56641C50.8259 8.39844 50.8259 9.65235 50.3923 10.5078C50.029 11.2109 49.3025 11.8906 48.5525 12.2422L48.0134 12.4883L32.4978 12.5234C19.9704 12.5469 17.0056 12.5234 17.0525 12.4063C17.8142 10.6836 17.779 10.8359 17.779 9.03125C17.779 7.22656 17.8142 7.37891 17.0525 5.65625C17.0056 5.53906 19.9704 5.51563 32.4978 5.53907L48.0134 5.57422L48.5993 5.84375ZM12.0251 5.82031C12.6696 6.04297 13.572 6.875 13.9118 7.56641C14.0876 7.91797 14.1462 8.28125 14.1462 9.03125C14.1462 10.1914 13.947 10.6953 13.2087 11.4336C12.611 12.043 12.0485 12.3008 11.0642 12.4414C10.0915 12.582 9.57589 12.8281 9.28292 13.3086C9.04855 13.6836 9.04855 13.9648 9.04855 32.5742L9.04854 51.4531L5.53292 51.4531L5.53292 31.2617C5.53292 18.9805 5.5798 10.7422 5.65011 10.2148C5.91964 8.15234 7.36105 6.41797 9.34152 5.79688C10.0095 5.58594 11.3689 5.59766 12.0251 5.82031ZM45.4939 35.9258L41.5095 39.9102C38.8493 42.582 37.4782 44.0352 37.3493 44.3281C37.2087 44.668 37.1735 45.2539 37.1735 47.0117L37.1735 49.2617L36.6579 49.8125C35.404 51.1484 36.072 52.9766 37.8181 52.9766C38.4626 52.9766 38.8493 52.7891 39.3884 52.2266L39.7985 51.8047L42.2126 51.8047C44.5915 51.8047 44.6267 51.8047 45.0603 51.5117L45.4939 51.207L45.4939 58.4844L12.5642 58.4844L12.5642 16.0625L45.4939 16.0625L45.4939 35.9258ZM57.6345 30.8867C58.3025 31.3203 58.5837 32.3399 58.2204 33.0313C58.1267 33.207 57.5759 33.8164 56.99 34.4023L55.9235 35.457L53.5798 33.1133L54.6696 32.0234C55.2556 31.4141 55.9118 30.8516 56.0993 30.7578C56.5212 30.5586 57.2243 30.6172 57.6345 30.8867ZM43.0915 48.2891L40.8064 48.2891L40.8064 45.8867L50.9431 35.75L53.2868 38.0938L43.0915 48.2891Z" fill="#8A8A8C"/>
<path d="M21.5407 21.5586C21.0016 21.9219 20.7672 22.3672 20.7672 23.0938C20.7672 23.8203 21.0016 24.2656 21.5407 24.6289C21.8688 24.8398 22.2555 24.8516 30.7985 24.8516L39.7164 24.8516L40.1032 24.582C41.1696 23.8555 41.1696 22.332 40.1032 21.5938L39.7164 21.3359L30.7985 21.3359C22.2555 21.3359 21.8688 21.3477 21.5407 21.5586Z" fill="#8A8A8C"/>
<path d="M18.025 28.5898C17.486 28.9531 17.2516 29.3984 17.2516 30.125C17.2516 30.8516 17.486 31.2969 18.025 31.6602C18.3532 31.8711 18.775 31.8828 29.0407 31.8828L39.7164 31.8828L40.1032 31.6133C41.1696 30.8867 41.1696 29.3633 40.1032 28.625L39.7164 28.3672L29.0407 28.3672C18.775 28.3672 18.3532 28.3789 18.025 28.5898Z" fill="#8A8A8C"/>
<path d="M18.025 35.6211C17.486 35.9844 17.2516 36.4297 17.2516 37.1563C17.2516 37.8828 17.486 38.3281 18.025 38.6914C18.3532 38.9023 18.7516 38.9141 27.9157 38.9141C37.2907 38.9141 37.4782 38.9141 37.8532 38.6797C38.2633 38.4219 38.6969 37.6484 38.6969 37.1563C38.6969 36.6641 38.2633 35.8906 37.8532 35.6328C37.4782 35.3984 37.2907 35.3984 27.9157 35.3984C18.7516 35.3984 18.3532 35.4102 18.025 35.6211Z" fill="#8A8A8C"/>
<path d="M18.025 42.6523C17.486 43.0156 17.2516 43.4609 17.2516 44.1875C17.2516 44.9141 17.486 45.3594 18.025 45.7227C18.3532 45.9336 18.693 45.9453 24.8805 45.9453L31.3961 45.9453L31.7946 45.6758C32.8493 44.9727 32.8493 43.4023 31.7946 42.6992L31.3961 42.4297L24.8805 42.4297C18.693 42.4297 18.3532 42.4414 18.025 42.6523Z" fill="#8A8A8C"/>
<path d="M18.025 49.6836C17.486 50.0469 17.2516 50.4922 17.2516 51.2188C17.2516 51.9453 17.486 52.3906 18.025 52.7539C18.3532 52.9648 18.693 52.9766 24.8805 52.9766L31.3961 52.9766L31.7946 52.707C32.8493 52.0039 32.8493 50.4336 31.7946 49.7305L31.3961 49.4609L24.8805 49.4609C18.693 49.4609 18.3532 49.4727 18.025 49.6836Z" fill="#8A8A8C"/>
</svg>
