<svg width="48" height="48" viewBox="0 0 48 48" fill="none" xmlns="http://www.w3.org/2000/svg">
<path d="M8 8C8 5.79086 9.79086 4 12 4H28C28.5304 4 29.0391 4.21071 29.4142 4.58579L39.4142 14.5858C39.7893 14.9609 40 15.4696 40 16V40C40 42.2091 38.2091 44 36 44H12C9.79086 44 8 42.2091 8 40V8ZM35.1716 16L28 8.82843V16H35.1716ZM24 8L12 8V40H36V20H26C24.8954 20 24 19.1046 24 18V8ZM16 26C16 24.8954 16.8954 24 18 24H30C31.1046 24 32 24.8954 32 26C32 27.1046 31.1046 28 30 28H18C16.8954 28 16 27.1046 16 26ZM16 34C16 32.8954 16.8954 32 18 32H30C31.1046 32 32 32.8954 32 34C32 35.1046 31.1046 36 30 36H18C16.8954 36 16 35.1046 16 34Z" fill="#1B1A1E" stroke="white" stroke-width="2" stroke-miterlimit="10" stroke-linecap="round" stroke-linejoin="round"/>
</svg>
