<svg width="40" height="40" viewBox="0 0 40 40" fill="none" xmlns="http://www.w3.org/2000/svg">
<path d="M12.7775 40C4.58212 35.3811 2.42445 31.0093 3.65805 25.0383C4.56875 20.6292 7.55079 17.0421 7.83672 12.6415C9.11055 14.9596 9.64282 16.6312 9.78515 19.0536C13.8366 14.0898 16.5139 7.2182 16.6724 0C16.6724 0 27.2249 6.20033 27.9173 15.566C28.8258 13.6356 29.2831 10.5696 28.3746 8.58253C31.0999 10.5697 47.0511 28.2105 26.214 40C30.1316 32.3721 27.2247 22.0796 20.4227 17.3261C20.877 19.37 20.0806 26.9934 17.0713 30.3432C17.9051 24.746 16.278 22.3793 16.278 22.3793C16.278 22.3793 15.7195 25.5144 13.5527 28.6815C11.5741 31.5735 10.2031 34.643 12.7775 40Z" fill="#EFAF33"/>
</svg>
