<svg width="48" height="48" viewBox="0 0 48 48" fill="none" xmlns="http://www.w3.org/2000/svg">
<path d="M12.5299 4.04876C11.3237 4.14541 9.92175 4.55614 8.77042 5.14405C6.70273 6.20712 5.26944 7.92253 4.54105 10.2017C3.85965 12.3439 3.82049 15.4043 4.4314 18.6821C4.79168 20.6391 5.5044 23.2002 6.37378 25.729C6.67923 26.5907 7.06301 27.8149 7.24315 28.4511C8.11252 31.5759 9.87476 37.0121 10.7441 39.2348C11.8563 42.0939 13.0468 43.4469 14.8169 43.8737C15.4199 44.0187 16.9237 44.0348 17.5816 43.9059C19.9548 43.4469 21.3724 42.1422 22.1556 39.71C22.6882 38.059 22.884 35.9409 22.743 33.2349C22.6725 31.7047 22.5942 30.8189 22.1948 26.9934C22.0303 25.4068 22.0303 25.3022 22.1556 24.2955C22.4767 21.5733 22.5707 18.1667 22.3671 16.1613C21.7797 10.3708 19.7746 6.41651 16.6026 4.78969C15.3964 4.16957 14.0415 3.91991 12.5299 4.04876ZM14.8795 5.52257C18.3335 6.489 20.597 10.5158 21.1061 16.564C21.1922 17.6271 21.2001 20.768 21.1218 21.3801L21.0669 21.7666L20.7145 21.2673C19.43 19.4472 16.9864 18.4969 14.1433 18.7063C11.0731 18.9398 8.4258 20.5264 7.16482 22.9022L6.94552 23.3049L6.82804 22.9183C6.13098 20.6875 5.62189 18.2875 5.40259 16.2016C4.94049 11.8044 5.98217 8.59903 8.43364 6.87557C9.30301 6.2635 10.7128 5.69169 11.9659 5.45009C12.6865 5.30512 14.2373 5.34539 14.8795 5.52257ZM16.7201 20.1881C17.002 20.2606 17.566 20.4861 17.9732 20.6875C19.2264 21.3076 20.1192 22.3948 20.5108 23.78C20.5813 24.0216 20.7223 25.1169 20.8241 26.2283C20.9338 27.3317 21.1139 29.1437 21.2314 30.2551C21.5055 32.8967 21.5447 36.4483 21.3097 37.7449C21.1139 38.8322 20.9181 39.4845 20.55 40.2013C19.9704 41.3529 19.195 42.0375 18.028 42.4241C17.4563 42.6173 17.2527 42.6415 16.2501 42.6496C15.232 42.6576 15.0675 42.6335 14.6602 42.4643C13.5167 41.9972 12.6082 40.6281 11.6527 37.9463C10.4073 34.451 9.21685 30.7061 8.41797 27.7988C7.99504 26.2525 7.94804 25.9948 7.94804 25.3263C7.94804 24.1505 8.33182 23.2082 9.19336 22.2982C10.1959 21.219 11.9581 20.3492 13.7047 20.0673C14.3704 19.9626 16.1092 20.0351 16.7201 20.1881Z" fill="#1B1A1E"/>
<path d="M13.8617 16.1674C11.5433 16.4493 9.77328 17.2225 7.89356 18.7929C7.58027 19.0506 7.27481 19.3486 7.20433 19.4452C7.03202 19.703 7.05551 20.0412 7.28265 20.2667C7.60377 20.605 7.84656 20.5405 8.59062 19.9285C9.413 19.252 10.2667 18.6802 10.9011 18.3661C13.055 17.3111 15.3811 17.2064 17.7386 18.06C18.9448 18.503 19.1641 18.5271 19.4147 18.2614C19.6731 18.0037 19.681 17.6493 19.446 17.3755C19.3442 17.2708 18.9839 17.0694 18.6393 16.9406C17.1042 16.3527 15.0913 16.0225 13.8617 16.1674Z" fill="#1B1A1E"/>
<path d="M34.1862 4.01396C32.3692 4.12671 30.7166 4.92401 29.3303 6.3656C27.5132 8.25014 26.2836 11.23 25.7745 15.0474C25.4377 17.5198 25.4455 20.8862 25.7823 23.6083C25.9624 25.0418 25.9468 25.7828 25.657 28.521C25.2967 31.9921 25.2419 32.7491 25.2419 34.7222C25.234 36.6309 25.3515 37.8309 25.6491 39.0229C26.4715 42.3248 28.5157 43.9919 31.7582 44C34.6092 44.008 36.0346 42.655 37.5384 38.5074C38.5487 35.737 39.9115 31.4928 40.6791 28.7384C40.9062 27.9492 41.3292 26.5962 41.6268 25.7345C43.2637 21.0231 43.9921 17.4956 43.9999 14.3064C44.0078 11.23 43.3734 9.11187 41.8852 7.23539C40.2875 5.23005 36.9823 3.84483 34.1862 4.01396ZM35.9563 5.44749C41.3292 6.40587 43.5378 10.5132 42.4413 17.5279C42.1907 19.1144 41.431 22.3197 41.1255 23.0848L41.0237 23.3264L40.8984 23.0285C40.8357 22.8674 40.6321 22.513 40.4598 22.2473C38.8855 19.8714 35.5333 18.4218 32.2752 18.7037C30.137 18.8889 28.3043 19.8312 27.2939 21.2647L26.9415 21.764L26.8866 21.3775C26.8083 20.7573 26.8161 17.5279 26.9023 16.5212C27.2077 13.0984 28.0223 10.3763 29.3459 8.41121C29.8237 7.70249 30.9437 6.5911 31.5468 6.22064C32.8782 5.41528 34.3194 5.15756 35.9563 5.44749ZM34.3977 20.105C36.904 20.5238 38.862 21.8204 39.7001 23.6083L40.0212 24.2929V25.2996C40.0212 26.3063 40.0212 26.3143 39.4964 28.1586C38.6662 31.1062 38.0553 33.031 36.6377 37.1383C35.7448 39.7316 35.0869 41.0443 34.288 41.8094C33.5518 42.5181 33.1602 42.655 31.7974 42.647C30.8732 42.647 30.6069 42.6228 30.1135 42.4617C28.2024 41.8577 27.1843 40.4564 26.6987 37.7423C26.4637 36.4457 26.5029 32.8941 26.777 30.2525C26.8945 29.1411 27.0746 27.3291 27.1843 26.2257C27.2861 25.1143 27.427 24.019 27.4975 23.7774C27.9675 22.1184 29.1736 20.8781 30.8967 20.3144C31.8992 19.9761 33.1915 19.9037 34.3977 20.105Z" fill="#1B1A1E"/>
<path d="M32.3455 16.204C31.0218 16.3409 28.9463 16.9852 28.5704 17.3718C28.3276 17.6214 28.3354 18 28.5939 18.2577C28.8445 18.5234 29.056 18.4993 30.2699 18.0644C31.5231 17.6134 32.5569 17.4523 33.7474 17.5087C35.8308 17.6053 37.3894 18.2738 39.4179 19.9328C40.162 20.5368 40.4048 20.5932 40.7259 20.263C41.0705 19.9167 41 19.6187 40.4361 19.0711C39.833 18.4912 38.5486 17.5973 37.7575 17.2027C36.0579 16.3651 34.1625 16.0107 32.3455 16.204Z" fill="#1B1A1E"/>
</svg>
