<svg width="40" height="40" viewBox="0 0 40 40" fill="none" xmlns="http://www.w3.org/2000/svg">
<path fill-rule="evenodd" clip-rule="evenodd" d="M14.8819 5.60062C12.3093 6.75479 10.2389 7.18665 6.79712 7.28718L5 7.33965V16.0753C5 25.4528 5.00374 25.5339 5.49524 26.8743C6.33687 29.1694 8.00537 30.799 11.8051 33.0375C13.7211 34.1663 19.8431 37.5 20 37.5C20.1569 37.5 26.2789 34.1663 28.1949 33.0375C31.9946 30.799 33.6631 29.1694 34.5048 26.8743C34.9963 25.5339 35 25.4528 35 16.0753V7.33965L33.2029 7.28718C29.7611 7.18665 27.6907 6.75479 25.1181 5.60062C23.2838 4.77785 21.6334 3.65737 20 2.5C18.3667 3.65737 16.7161 4.77781 14.8819 5.60062ZM20.3754 7.08987C20.5392 7.20069 21.1471 7.55184 21.7264 7.87026C24.3543 9.3146 27.1945 10.2051 30.2836 10.5532L31.1743 10.6537L31.1393 17.8072C31.1012 25.5802 31.1187 25.3303 30.5404 26.4065C29.9111 27.5777 28.6039 28.6913 26.1821 30.1193C25.2222 30.6853 20.0727 33.5079 20 33.5079C19.9273 33.5079 14.7778 30.6853 13.8179 30.1193C11.3961 28.6913 10.0889 27.5777 9.45965 26.4065C8.88131 25.3303 8.89875 25.5802 8.8607 17.8072L8.82572 10.6537L9.71642 10.5532C12.8049 10.2052 15.642 9.31579 18.2748 7.87017C18.8546 7.55184 19.4585 7.20111 19.6166 7.09081C19.9737 6.84179 20.0088 6.8417 20.3754 7.08987ZM18.0845 21.2607C17.3327 20.5944 16.5873 19.9188 15.8231 19.2659C15.1313 18.6749 14.1208 18.6647 13.4352 19.263C13.3871 19.3049 13.3387 19.3475 13.2902 19.3907C12.6283 19.9793 12.6288 21.0138 13.2913 21.6016L18.0352 25.811L27.2134 17.6671C27.8888 17.0677 27.8883 16.0127 27.2122 15.414C26.4866 14.7715 25.3955 14.7722 24.6706 15.4155L18.0845 21.2607Z" fill="#EFAF33"/>
</svg>
