<svg width="48" height="48" viewBox="0 0 48 48" fill="none" xmlns="http://www.w3.org/2000/svg">
<path fill-rule="evenodd" clip-rule="evenodd" d="M16.4941 13.0264L16.4885 13.0319C16.3907 13.1297 16.3105 13.2111 16.2435 13.2819C16.3102 13.3529 16.3905 13.4346 16.4885 13.5326C16.6006 13.6447 16.6951 13.7368 16.7764 13.8124C16.7818 13.8068 16.7872 13.8012 16.7928 13.7955C16.859 13.7275 16.937 13.6473 17.0205 13.5638L17.7388 12.8455L28.7002 24.157L27.9901 24.8897L27.9846 24.8953C27.8865 24.9934 27.8066 25.075 27.7405 25.1456C27.8066 25.2162 27.8865 25.2978 27.9846 25.3959C28.1027 25.5141 28.1939 25.6014 28.2656 25.6661C28.3363 25.6025 28.4258 25.5168 28.5414 25.4014L36.2053 17.4926L36.2109 17.4871C36.2357 17.4622 36.2595 17.4384 36.2824 17.4156C36.3475 17.3506 36.4048 17.2933 36.4567 17.2408C36.4018 17.1834 36.341 17.1207 36.2714 17.0489C36.2485 17.0254 36.2247 17.0008 36.1998 16.9752C36.0951 16.8671 36.008 16.7788 35.9326 16.7058C35.8605 16.7744 35.7781 16.856 35.6789 16.9552L34.9606 17.6735L23.9992 6.362L24.7347 5.60296L24.7684 5.57388C24.8466 5.50636 24.9139 5.4477 24.9724 5.39535C24.898 5.31428 24.8094 5.22137 24.7023 5.11036C24.5948 4.99895 24.5102 4.91414 24.4425 4.84936C24.3677 4.91635 24.2741 5.00479 24.1537 5.12204L16.4941 13.0264ZM23.4455 4.41595L15.7814 12.3248C14.8844 13.2218 14.87 13.3283 15.7814 14.2397C16.5251 14.9834 16.7674 15.1217 17.1047 14.8745C17.2213 14.7891 17.3492 14.6576 17.5132 14.4891C17.5784 14.422 17.6494 14.3491 17.7276 14.2709L27.3077 24.157L27.2775 24.1882C26.3844 25.0812 26.3844 25.21 27.2775 26.103C28.1705 26.9961 28.3571 26.9999 29.2539 26.103L36.918 18.1942L36.9867 18.1255C37.4218 17.691 37.6405 17.4725 37.6428 17.2519C37.6452 17.0288 37.4265 16.8034 36.9867 16.3502L36.918 16.2793C36.1239 15.4599 35.9339 15.3513 35.3438 15.8876C35.2354 15.9861 35.1134 16.1064 34.9718 16.2481L25.3917 6.362L25.4219 6.33083C25.4279 6.3256 25.434 6.32039 25.44 6.31522C25.7069 6.08442 25.898 5.91153 26.013 5.75988C26.305 5.37506 26.108 5.12693 25.4219 4.41595C24.5319 3.49367 24.3844 3.49987 23.4455 4.41595ZM19.5568 20.1756C20.5735 19.1589 20.6719 19.2638 21.268 19.8989C21.3613 19.9983 21.4667 20.1106 21.5898 20.2337C22.4994 21.1432 22.3844 21.4613 21.6458 22.1999L8.56755 37.3318C8.44397 37.4554 8.32863 37.5725 8.22018 37.6826L8.21835 37.6845C6.85056 39.0734 6.58025 39.3479 4.73419 37.441L4.55825 37.2596C3.04152 35.6979 2.95332 35.6071 4.84056 33.7201L19.5568 20.1756ZM5.53306 34.4419C5.04315 34.932 4.73956 35.25 4.55539 35.4906C4.50348 35.5584 4.47008 35.6089 4.44894 35.6442C4.46937 35.6756 4.50026 35.7192 4.54628 35.7767C4.70365 35.9735 4.92991 36.2066 5.27212 36.5592C5.32902 36.6179 5.38913 36.6798 5.45266 36.7454C5.94742 37.2565 6.26967 37.5466 6.49856 37.7019C6.5626 37.7453 6.60805 37.7705 6.63773 37.7847C6.67803 37.7602 6.75399 37.7078 6.87561 37.6001C7.04787 37.4477 7.23148 37.2612 7.47577 37.0131C7.58245 36.9048 7.70069 36.7847 7.83461 36.6506L20.913 21.5185L20.9387 21.4928C21.0424 21.3891 21.1154 21.3113 21.167 21.2517C21.108 21.1773 21.018 21.0761 20.8827 20.9408C20.7572 20.8153 20.6495 20.701 20.5606 20.6064L20.5548 20.6002C20.4726 20.6766 20.377 20.7696 20.2639 20.8827L20.2493 20.8973L5.53306 34.4419ZM37.6019 36.2185L37.633 36.2204C38.0748 36.248 38.3276 36.2404 38.4791 36.2131C38.4941 36.2104 38.5067 36.2078 38.517 36.2054C38.5313 36.1649 38.5526 36.0892 38.5719 35.9599C38.6114 35.6953 38.6275 35.3196 38.6275 34.7656C38.6275 34.2524 38.6107 33.9452 38.5763 33.7511C38.5755 33.7468 38.5748 33.7426 38.574 33.7385C38.564 33.7371 38.5532 33.7358 38.5416 33.7344C38.3345 33.7105 38.0468 33.7089 37.5706 33.7089H24.3989C23.8715 33.7089 23.5459 33.7105 23.3104 33.7376C23.2708 33.7422 23.2389 33.747 23.2135 33.7516C23.2088 33.7723 23.2037 33.7975 23.1986 33.8277C23.1604 34.0523 23.1439 34.3983 23.1439 34.9637C23.1439 35.5291 23.1604 35.8751 23.1986 36.0996C23.2037 36.1299 23.2088 36.1551 23.2136 36.1758C23.2389 36.1804 23.2708 36.1852 23.3104 36.1898C23.5459 36.2169 23.8715 36.2185 24.3989 36.2185H37.6019ZM23.2384 33.6683C23.2384 33.6683 23.2382 33.6689 23.2376 33.67ZM38.5585 36.1931C38.5585 36.1931 38.558 36.1933 38.5569 36.1938ZM18.7797 42.9975H41.7466C42.3061 42.9975 42.6371 42.9959 42.8677 42.969C42.8787 42.9677 42.889 42.9664 42.8986 42.9651C42.9028 42.9437 42.9073 42.9189 42.9118 42.8903C42.9518 42.637 42.9721 42.2766 43.003 41.6901C43.0334 41.1129 43.0424 40.7651 43.0208 40.5337C43.0205 40.5309 43.0202 40.5281 43.02 40.5253C43.0018 40.5228 42.9815 40.5202 42.9589 40.5178C42.6992 40.4896 42.3332 40.488 41.7466 40.488H18.7808C18.1926 40.488 17.8362 40.4895 17.5875 40.5171C17.5773 40.5182 17.5675 40.5194 17.5583 40.5206C17.5572 40.5297 17.556 40.5394 17.5549 40.5496C17.5273 40.7983 17.5258 41.1546 17.5258 41.7427C17.5258 41.8809 17.5253 42.0055 17.5249 42.1186C17.5236 42.4744 17.5227 42.7171 17.5379 42.9145C17.539 42.928 17.5401 42.9407 17.5412 42.9526C17.5458 42.9533 17.5505 42.9539 17.5553 42.9546C17.7978 42.9885 18.1674 42.9981 18.7797 42.9975ZM37.5706 37.2185H24.3989C22.3828 37.2185 22.1439 37.2185 22.1439 34.9637C22.1439 32.7089 22.3828 32.7089 24.3989 32.7089H37.5706C39.3828 32.7089 39.6275 32.7089 39.6275 34.7656C39.6275 37 39.3828 37.3318 37.5706 37.2185ZM18.7808 43.9975H41.7466C42.7946 43.9975 43.3285 43.9975 43.6145 43.7313C43.9114 43.4548 43.9411 42.8913 44.0016 41.7427C44.1203 39.4911 44.0016 39.488 41.7466 39.488H18.7808C17.6532 39.488 17.0895 39.488 16.8076 39.7698C16.5258 40.0517 16.5258 40.6154 16.5258 41.7427C16.5258 41.8618 16.5253 41.9746 16.5249 42.0814C16.5177 43.8814 16.5173 43.9999 18.7808 43.9975Z" fill="#1B1A1E"/>
</svg>
