<svg width="80" height="80" viewBox="0 0 80 80" fill="none" xmlns="http://www.w3.org/2000/svg">
<path d="M56.5631 12.4803C55.8831 13.2003 54.2831 15.1203 53.0031 16.6803C51.7631 18.2803 50.4431 19.6003 50.0831 19.6003C49.7631 19.6003 48.5631 19.1603 47.4431 18.6003C43.3231 16.6403 36.2031 16.5203 27.2431 18.2403C25.5631 18.5203 24.2031 18.8003 24.1631 18.8003C24.1231 18.8003 22.6031 17.5603 20.7631 16.0003C18.9231 14.4803 17.0831 13.2003 16.6831 13.2003C15.6831 13.2003 13.9631 15.2003 11.3231 19.4003C8.48313 23.9603 3.20312 34.1203 3.20312 35.0803C3.20312 35.8003 4.00313 36.3603 9.60313 39.2803C12.4431 40.8003 12.6431 40.9603 13.0831 42.7203C13.4831 44.2803 13.4831 44.7203 13.0031 45.4003C9.24312 50.5603 9.04313 51.0403 10.2431 52.7203C11.1631 54.0403 12.6831 54.5603 14.0431 54.0003C14.6431 53.7203 16.7631 51.7603 18.7631 49.5603C21.8031 46.2403 22.4031 45.3603 22.4031 44.2803C22.4031 41.5603 18.9631 40.2003 16.6831 42.0003C15.5231 42.9203 15.3631 42.7603 14.9631 39.6803C14.7231 37.8403 14.8431 37.6003 18.9631 30.1203C21.3231 25.9203 23.5631 22.2003 23.9631 21.8403C24.9231 20.9603 30.3631 20.0003 36.0431 19.7203C40.0831 19.5203 44.7631 19.8003 44.3231 20.2003C44.2431 20.2803 42.5631 20.5603 40.6031 20.8003C36.4031 21.3603 35.0031 22.0003 31.9231 24.8003C29.2031 27.2403 28.9631 28.2803 30.8431 29.6403C32.4831 30.8003 35.1631 31.0803 37.3231 30.2803C39.4831 29.4403 46.6831 28.2803 47.7631 28.5603C48.2431 28.6803 52.7631 32.4403 57.8031 36.9203C65.2431 43.4403 67.0431 45.2403 67.1231 46.1603C67.2831 47.4003 66.1631 48.8803 64.3631 49.8003C63.1231 50.4803 62.8831 50.3203 58.3231 46.3603C54.4831 42.9603 53.6831 42.5203 52.9231 43.2803C52.6431 43.6003 52.4831 44.1603 52.6031 44.4803C52.7631 44.8403 54.7231 46.6803 57.0431 48.6003C60.6031 51.6003 61.2031 52.2803 61.2031 53.2803C61.2031 55.1203 59.3231 58.0003 58.1631 58.0003C57.8831 58.0003 55.4831 56.2803 52.8831 54.2003C47.9231 50.2803 46.4031 49.6003 46.4031 51.3603C46.4031 52.1203 47.4431 53.1603 51.1231 56.0803C55.6431 59.6803 55.8031 59.8803 55.9231 61.5203C56.0431 62.8803 55.8431 63.4003 55.0431 64.2003C53.2031 66.0403 52.5231 65.7603 46.7231 60.9203C42.7631 57.6403 41.7631 57.0403 40.9631 57.3603C39.4831 57.9203 40.4831 59.2403 45.2031 63.0403C47.8831 65.2003 50.0031 67.2003 50.0031 67.5603C50.0031 69.0003 47.5231 71.2003 45.9231 71.2003C45.3631 71.2003 38.2031 66.2403 36.5231 64.6803L35.6431 63.8803L37.2031 62.0803C39.1231 59.9603 39.2831 58.4403 37.8031 57.0003C37.1631 56.3203 36.4031 56.0003 35.4431 56.0003C34.1631 56.0003 33.7231 56.3603 30.2031 60.4003C26.0431 65.2403 25.7231 66.1603 27.4031 67.8003C28.8831 69.3203 30.7631 69.1603 32.4831 67.3603L33.8831 65.9203L38.8431 69.5603C43.7231 73.1203 45.4431 73.9203 47.3231 73.4403C49.0831 73.0003 50.9631 71.4003 51.9231 69.4803C52.6031 68.2403 53.1631 67.6003 53.6831 67.6003C54.8431 67.6003 56.6031 66.5603 57.3631 65.4403C57.7231 64.8803 58.2031 63.5603 58.4031 62.5203C58.7631 61.0003 59.1231 60.4003 60.2031 59.7203C61.9231 58.6003 62.8031 57.2403 63.4031 54.8803C63.8431 53.2003 64.1231 52.8803 65.8431 51.9603C68.2831 50.6803 69.6031 48.5603 69.6031 45.9603C69.6031 44.3203 69.4431 43.9203 68.1631 42.8003L66.7231 41.5203L67.7231 39.4803C68.2831 38.3203 68.8431 36.6803 69.0031 35.8003C69.4031 33.5603 69.7631 33.0003 72.6831 29.8003C74.0431 28.2803 75.2031 26.7203 75.2031 26.4003C75.2031 25.8003 59.4831 11.8403 58.2831 11.3603C58.0031 11.2803 57.2431 11.7603 56.5631 12.4803ZM61.4431 17.0803C65.6031 20.4803 71.8031 26.0803 71.9231 26.5603C71.9631 26.8003 71.0831 27.9203 69.9231 29.0403L67.8031 31.1203L60.9231 25.4403C57.1631 22.3603 54.0431 19.7203 54.0431 19.6003C53.9631 19.1603 57.7631 14.8003 58.2031 14.8003C58.4431 14.8003 59.8831 15.8403 61.4431 17.0803ZM19.3231 18.0803L21.6031 20.2003L16.8831 28.6803C14.3231 33.3203 12.0831 37.2803 11.9231 37.4003C11.6831 37.6403 7.84313 35.7203 6.48312 34.6803C6.12312 34.4003 6.60313 33.1203 8.64313 29.2403C11.2831 24.2803 16.3631 16.0003 16.8431 16.0003C16.9631 16.0003 18.0831 16.9603 19.3231 18.0803Z" fill="#EFAF33"/>
<path d="M20.4431 49.0803C14.6831 55.2003 13.6031 57.6403 15.8031 59.8003C17.6431 61.6803 18.2431 61.3203 23.7231 55.1603C27.5231 50.8803 28.0831 49.9203 27.5231 48.3603C27.0431 46.9603 26.1231 46.4003 24.3231 46.4003C23.2031 46.4003 22.6031 46.8403 20.4431 49.0803Z" fill="#EFAF33"/>
<path d="M28.7231 51.7203C27.6831 52.2003 20.8831 59.6003 20.0031 61.1603C19.3231 62.4803 19.5631 63.8403 20.6431 64.9603C21.9631 66.2403 23.6031 66.3203 24.9231 65.0803C26.7631 63.4403 33.1231 55.6803 33.4031 54.8003C33.7231 53.7203 32.7231 52.0803 31.3631 51.6003C30.1231 51.1203 30.0831 51.1203 28.7231 51.7203Z" fill="#EFAF33"/>
<path d="M56.5631 12.4803C55.8831 13.2003 54.2831 15.1203 53.0031 16.6803C51.7631 18.2803 50.4431 19.6003 50.0831 19.6003C49.7631 19.6003 48.5631 19.1603 47.4431 18.6003C43.3231 16.6403 36.2031 16.5203 27.2431 18.2403C25.5631 18.5203 24.2031 18.8003 24.1631 18.8003C24.1231 18.8003 22.6031 17.5603 20.7631 16.0003C18.9231 14.4803 17.0831 13.2003 16.6831 13.2003C15.6831 13.2003 13.9631 15.2003 11.3231 19.4003C8.48313 23.9603 3.20312 34.1203 3.20312 35.0803C3.20312 35.8003 4.00313 36.3603 9.60313 39.2803C12.4431 40.8003 12.6431 40.9603 13.0831 42.7203C13.4831 44.2803 13.4831 44.7203 13.0031 45.4003C9.24312 50.5603 9.04313 51.0403 10.2431 52.7203C11.1631 54.0403 12.6831 54.5603 14.0431 54.0003C14.6431 53.7203 16.7631 51.7603 18.7631 49.5603C21.8031 46.2403 22.4031 45.3603 22.4031 44.2803C22.4031 41.5603 18.9631 40.2003 16.6831 42.0003C15.5231 42.9203 15.3631 42.7603 14.9631 39.6803C14.7231 37.8403 14.8431 37.6003 18.9631 30.1203C21.3231 25.9203 23.5631 22.2003 23.9631 21.8403C24.9231 20.9603 30.3631 20.0003 36.0431 19.7203C40.0831 19.5203 44.7631 19.8003 44.3231 20.2003C44.2431 20.2803 42.5631 20.5603 40.6031 20.8003C36.4031 21.3603 35.0031 22.0003 31.9231 24.8003C29.2031 27.2403 28.9631 28.2803 30.8431 29.6403C32.4831 30.8003 35.1631 31.0803 37.3231 30.2803C39.4831 29.4403 46.6831 28.2803 47.7631 28.5603C48.2431 28.6803 52.7631 32.4403 57.8031 36.9203C65.2431 43.4403 67.0431 45.2403 67.1231 46.1603C67.2831 47.4003 66.1631 48.8803 64.3631 49.8003C63.1231 50.4803 62.8831 50.3203 58.3231 46.3603C54.4831 42.9603 53.6831 42.5203 52.9231 43.2803C52.6431 43.6003 52.4831 44.1603 52.6031 44.4803C52.7631 44.8403 54.7231 46.6803 57.0431 48.6003C60.6031 51.6003 61.2031 52.2803 61.2031 53.2803C61.2031 55.1203 59.3231 58.0003 58.1631 58.0003C57.8831 58.0003 55.4831 56.2803 52.8831 54.2003C47.9231 50.2803 46.4031 49.6003 46.4031 51.3603C46.4031 52.1203 47.4431 53.1603 51.1231 56.0803C55.6431 59.6803 55.8031 59.8803 55.9231 61.5203C56.0431 62.8803 55.8431 63.4003 55.0431 64.2003C53.2031 66.0403 52.5231 65.7603 46.7231 60.9203C42.7631 57.6403 41.7631 57.0403 40.9631 57.3603C39.4831 57.9203 40.4831 59.2403 45.2031 63.0403C47.8831 65.2003 50.0031 67.2003 50.0031 67.5603C50.0031 69.0003 47.5231 71.2003 45.9231 71.2003C45.3631 71.2003 38.2031 66.2403 36.5231 64.6803L35.6431 63.8803L37.2031 62.0803C39.1231 59.9603 39.2831 58.4403 37.8031 57.0003C37.1631 56.3203 36.4031 56.0003 35.4431 56.0003C34.1631 56.0003 33.7231 56.3603 30.2031 60.4003C26.0431 65.2403 25.7231 66.1603 27.4031 67.8003C28.8831 69.3203 30.7631 69.1603 32.4831 67.3603L33.8831 65.9203L38.8431 69.5603C43.7231 73.1203 45.4431 73.9203 47.3231 73.4403C49.0831 73.0003 50.9631 71.4003 51.9231 69.4803C52.6031 68.2403 53.1631 67.6003 53.6831 67.6003C54.8431 67.6003 56.6031 66.5603 57.3631 65.4403C57.7231 64.8803 58.2031 63.5603 58.4031 62.5203C58.7631 61.0003 59.1231 60.4003 60.2031 59.7203C61.9231 58.6003 62.8031 57.2403 63.4031 54.8803C63.8431 53.2003 64.1231 52.8803 65.8431 51.9603C68.2831 50.6803 69.6031 48.5603 69.6031 45.9603C69.6031 44.3203 69.4431 43.9203 68.1631 42.8003L66.7231 41.5203L67.7231 39.4803C68.2831 38.3203 68.8431 36.6803 69.0031 35.8003C69.4031 33.5603 69.7631 33.0003 72.6831 29.8003C74.0431 28.2803 75.2031 26.7203 75.2031 26.4003C75.2031 25.8003 59.4831 11.8403 58.2831 11.3603C58.0031 11.2803 57.2431 11.7603 56.5631 12.4803ZM61.4431 17.0803C65.6031 20.4803 71.8031 26.0803 71.9231 26.5603C71.9631 26.8003 71.0831 27.9203 69.9231 29.0403L67.8031 31.1203L60.9231 25.4403C57.1631 22.3603 54.0431 19.7203 54.0431 19.6003C53.9631 19.1603 57.7631 14.8003 58.2031 14.8003C58.4431 14.8003 59.8831 15.8403 61.4431 17.0803ZM19.3231 18.0803L21.6031 20.2003L16.8831 28.6803C14.3231 33.3203 12.0831 37.2803 11.9231 37.4003C11.6831 37.6403 7.84313 35.7203 6.48312 34.6803C6.12312 34.4003 6.60313 33.1203 8.64313 29.2403C11.2831 24.2803 16.3631 16.0003 16.8431 16.0003C16.9631 16.0003 18.0831 16.9603 19.3231 18.0803Z" stroke="#EFAF33" stroke-width="2"/>
<path d="M20.4431 49.0803C14.6831 55.2003 13.6031 57.6403 15.8031 59.8003C17.6431 61.6803 18.2431 61.3203 23.7231 55.1603C27.5231 50.8803 28.0831 49.9203 27.5231 48.3603C27.0431 46.9603 26.1231 46.4003 24.3231 46.4003C23.2031 46.4003 22.6031 46.8403 20.4431 49.0803Z" stroke="#EFAF33" stroke-width="2"/>
<path d="M28.7231 51.7203C27.6831 52.2003 20.8831 59.6003 20.0031 61.1603C19.3231 62.4803 19.5631 63.8403 20.6431 64.9603C21.9631 66.2403 23.6031 66.3203 24.9231 65.0803C26.7631 63.4403 33.1231 55.6803 33.4031 54.8003C33.7231 53.7203 32.7231 52.0803 31.3631 51.6003C30.1231 51.1203 30.0831 51.1203 28.7231 51.7203Z" stroke="#EFAF33" stroke-width="2"/>
</svg>
