<svg width="48" height="50" viewBox="0 0 48 50" fill="none" xmlns="http://www.w3.org/2000/svg">
<path fill-rule="evenodd" clip-rule="evenodd" d="M24 0.359375L47.8144 19.6135C48.0291 19.7872 48.0624 20.102 47.8888 20.3167C47.7152 20.5315 47.4004 20.5648 47.1857 20.3912L42.053 16.2413V49.5024H6.28303V15.9697L0.814378 20.3912C0.599641 20.5648 0.284819 20.5315 0.111202 20.3167C-0.062415 20.102 -0.0290809 19.7872 0.185656 19.6135L24 0.359375ZM7.08053 15.3249C7.20339 15.416 7.28303 15.5621 7.28303 15.7268V48.5024H41.053V15.7268C41.053 15.6386 41.0758 15.5557 41.1159 15.4837L24 1.64533L7.08053 15.3249ZM19.8504 15.8827C20.1259 15.9011 20.3344 16.1393 20.316 16.4148L20.2422 17.5207C20.1704 18.5971 19.4315 19.5126 18.3947 19.8127C17.7609 19.9961 17.3107 20.5552 17.267 21.2107L17.1933 22.3165C17.1749 22.5921 16.9366 22.8005 16.6611 22.7821C16.3856 22.7638 16.1771 22.5255 16.1955 22.25L16.2692 21.1441C16.341 20.0678 17.0799 19.1522 18.1167 18.8521C18.7506 18.6687 19.2007 18.1096 19.2444 17.4542L19.3182 16.3483C19.3366 16.0728 19.5748 15.8643 19.8504 15.8827ZM25.7892 15.8827C26.0648 15.9011 26.2732 16.1393 26.2548 16.4148L26.1811 17.5207C26.1093 18.5971 25.3704 19.5126 24.3336 19.8127C23.6997 19.9961 23.2496 20.5552 23.2059 21.2107L23.1321 22.3165C23.1137 22.5921 22.8755 22.8005 22.5999 22.7821C22.3244 22.7638 22.1159 22.5255 22.1343 22.25L22.2081 21.1441C22.2799 20.0678 23.0188 19.1522 24.0556 18.8521C24.6894 18.6687 25.1396 18.1096 25.1833 17.4542L25.2571 16.3483C25.2754 16.0728 25.5137 15.8643 25.7892 15.8827ZM31.7281 15.8827C32.0036 15.9011 32.2121 16.1393 32.1937 16.4148L32.1199 17.5207C32.0481 18.5971 31.3092 19.5126 30.2724 19.8127C29.6386 19.9961 29.1884 20.5552 29.1447 21.2107L29.071 22.3165C29.0526 22.5921 28.8143 22.8005 28.5388 22.7821C28.2633 22.7638 28.0548 22.5255 28.0732 22.25L28.1469 21.1441C28.2187 20.0678 28.9576 19.1522 29.9944 18.8521C30.6283 18.6687 31.0784 18.1096 31.1222 17.4542L31.1959 16.3483C31.2143 16.0728 31.4526 15.8643 31.7281 15.8827ZM35.6882 25.1958C35.9643 25.1958 36.1882 25.4197 36.1882 25.6958V25.7504C36.1882 27.9976 34.4902 29.8474 32.3066 30.095V37.8597C32.3066 39.1912 31.225 40.2688 29.8932 40.2688C29.1144 40.2688 28.4212 39.9004 27.9797 39.3281C27.5383 39.9004 26.8451 40.2688 26.0663 40.2688C25.2875 40.2688 24.5943 39.9004 24.1529 39.3281C23.7114 39.9004 23.0182 40.2688 22.2394 40.2688C21.4606 40.2688 20.7674 39.9003 20.326 39.3281C19.8845 39.9003 19.1913 40.2688 18.4125 40.2688C17.0807 40.2688 15.9991 39.1912 15.9991 37.8597V37.3233H13.5469C12.7888 37.3233 12.1722 36.7097 12.1722 35.9505V30.4959C12.1722 29.7367 12.7888 29.1232 13.5469 29.1232H15.9991V27.8231C15.9991 26.4916 17.0807 25.414 18.4125 25.414C19.1913 25.414 19.8845 25.7824 20.326 26.3547C20.7674 25.7824 21.4606 25.414 22.2394 25.414C23.0182 25.414 23.7114 25.7824 24.1529 26.3547C24.5943 25.7824 25.2875 25.414 26.0663 25.414C26.8451 25.414 27.5383 25.7824 27.9797 26.3547C28.4212 25.7824 29.1144 25.414 29.8932 25.414C31.225 25.414 32.3066 26.4916 32.3066 27.8231V29.0866C33.9379 28.8455 35.1882 27.4428 35.1882 25.7504V25.6958C35.1882 25.4197 35.412 25.1958 35.6882 25.1958ZM27.4797 27.8231C27.4797 27.046 26.848 26.414 26.0663 26.414C25.2846 26.414 24.6529 27.046 24.6529 27.8231V37.8597C24.6529 38.6368 25.2846 39.2688 26.0663 39.2688C26.848 39.2688 27.4797 38.6368 27.4797 37.8597V27.8231ZM28.4797 37.8597C28.4797 38.6368 29.1115 39.2688 29.8932 39.2688C30.6749 39.2688 31.3066 38.6368 31.3066 37.8597V27.8231C31.3066 27.046 30.6749 26.414 29.8932 26.414C29.1115 26.414 28.4797 27.046 28.4797 27.8231V37.8597ZM23.6529 37.8597V27.8231C23.6529 27.046 23.0211 26.414 22.2394 26.414C21.4577 26.414 20.826 27.046 20.826 27.8231V37.8597C20.826 38.6368 21.4577 39.2688 22.2394 39.2688C23.0211 39.2688 23.6529 38.6368 23.6529 37.8597ZM19.826 37.8597V27.8231C19.826 27.046 19.1942 26.414 18.4125 26.414C17.6309 26.414 16.9991 27.046 16.9991 27.8231V37.8597C16.9991 38.6368 17.6309 39.2688 18.4125 39.2688C19.1942 39.2688 19.826 38.6368 19.826 37.8597ZM15.9991 30.1232H13.5469C13.3389 30.1232 13.1722 30.2911 13.1722 30.4959V35.9505C13.1722 36.1553 13.3389 36.3233 13.5469 36.3233H15.9991V30.1232Z" fill="#545454"/>
</svg>
