<svg width="363" height="474" viewBox="0 0 363 474" fill="none" xmlns="http://www.w3.org/2000/svg">
<g filter="url(#filter0_d_6712_6552)">
<rect x="59" y="21" width="224" height="80" rx="40" fill="white"/>
<path d="M128.715 40.2H129.737V50H128.715V40.2ZM122.583 50H121.547V40.2H122.583V50ZM128.813 45.478H122.471V44.568H128.813V45.478ZM135.957 50.07C135.191 50.07 134.519 49.9113 133.941 49.594C133.362 49.2673 132.909 48.824 132.583 48.264C132.256 47.6947 132.093 47.046 132.093 46.318C132.093 45.59 132.247 44.946 132.555 44.386C132.872 43.826 133.301 43.3873 133.843 43.07C134.393 42.7433 135.009 42.58 135.691 42.58C136.381 42.58 136.993 42.7387 137.525 43.056C138.066 43.364 138.491 43.8027 138.799 44.372C139.107 44.932 139.261 45.5807 139.261 46.318C139.261 46.3647 139.256 46.416 139.247 46.472C139.247 46.5187 139.247 46.57 139.247 46.626H132.849V45.884H138.715L138.323 46.178C138.323 45.646 138.206 45.1747 137.973 44.764C137.749 44.344 137.441 44.0173 137.049 43.784C136.657 43.5507 136.204 43.434 135.691 43.434C135.187 43.434 134.734 43.5507 134.333 43.784C133.931 44.0173 133.619 44.344 133.395 44.764C133.171 45.184 133.059 45.6647 133.059 46.206V46.36C133.059 46.92 133.18 47.4147 133.423 47.844C133.675 48.264 134.02 48.5953 134.459 48.838C134.907 49.0713 135.415 49.188 135.985 49.188C136.433 49.188 136.848 49.1087 137.231 48.95C137.623 48.7913 137.959 48.5487 138.239 48.222L138.799 48.866C138.472 49.258 138.061 49.5567 137.567 49.762C137.081 49.9673 136.545 50.07 135.957 50.07ZM146.35 49.524V43.518H142.808L142.724 45.156C142.706 45.6507 142.673 46.136 142.626 46.612C142.589 47.088 142.519 47.5267 142.416 47.928C142.323 48.32 142.188 48.642 142.01 48.894C141.833 49.1367 141.604 49.2767 141.324 49.314L140.33 49.132C140.62 49.1413 140.858 49.0387 141.044 48.824C141.231 48.6 141.376 48.2967 141.478 47.914C141.581 47.5313 141.656 47.0973 141.702 46.612C141.749 46.1173 141.786 45.6133 141.814 45.1L141.912 42.65H147.344V49.524H146.35ZM140.022 51.778V49.132H148.492V51.778H147.554V50H140.96V51.778H140.022ZM153.454 50.07C152.744 50.07 152.105 49.9113 151.536 49.594C150.976 49.2673 150.532 48.824 150.206 48.264C149.879 47.6947 149.716 47.046 149.716 46.318C149.716 45.5807 149.879 44.932 150.206 44.372C150.532 43.812 150.976 43.3733 151.536 43.056C152.096 42.7387 152.735 42.58 153.454 42.58C154.182 42.58 154.826 42.7387 155.386 43.056C155.955 43.3733 156.398 43.812 156.716 44.372C157.042 44.932 157.206 45.5807 157.206 46.318C157.206 47.046 157.042 47.6947 156.716 48.264C156.398 48.824 155.955 49.2673 155.386 49.594C154.816 49.9113 154.172 50.07 153.454 50.07ZM153.454 49.188C153.986 49.188 154.457 49.0713 154.868 48.838C155.278 48.5953 155.6 48.2593 155.834 47.83C156.076 47.3913 156.198 46.8873 156.198 46.318C156.198 45.7393 156.076 45.2353 155.834 44.806C155.6 44.3767 155.278 44.0453 154.868 43.812C154.457 43.5693 153.99 43.448 153.468 43.448C152.945 43.448 152.478 43.5693 152.068 43.812C151.657 44.0453 151.33 44.3767 151.088 44.806C150.845 45.2353 150.724 45.7393 150.724 46.318C150.724 46.8873 150.845 47.3913 151.088 47.83C151.33 48.2593 151.657 48.5953 152.068 48.838C152.478 49.0713 152.94 49.188 153.454 49.188ZM159.33 50V42.65H162.578C163.409 42.65 164.062 42.8087 164.538 43.126C165.023 43.4433 165.266 43.91 165.266 44.526C165.266 45.1233 165.037 45.5853 164.58 45.912C164.123 46.2293 163.521 46.388 162.774 46.388L162.97 46.094C163.847 46.094 164.491 46.2573 164.902 46.584C165.313 46.9107 165.518 47.382 165.518 47.998C165.518 48.6327 165.285 49.1273 164.818 49.482C164.361 49.8273 163.647 50 162.676 50H159.33ZM160.296 49.216H162.634C163.259 49.216 163.731 49.118 164.048 48.922C164.375 48.7167 164.538 48.39 164.538 47.942C164.538 47.494 164.393 47.1673 164.104 46.962C163.815 46.7567 163.357 46.654 162.732 46.654H160.296V49.216ZM160.296 45.912H162.508C163.077 45.912 163.511 45.8047 163.81 45.59C164.118 45.3753 164.272 45.0627 164.272 44.652C164.272 44.2413 164.118 43.9333 163.81 43.728C163.511 43.5227 163.077 43.42 162.508 43.42H160.296V45.912ZM170.872 50.07C170.162 50.07 169.523 49.9113 168.954 49.594C168.394 49.2673 167.95 48.824 167.624 48.264C167.297 47.6947 167.134 47.046 167.134 46.318C167.134 45.5807 167.297 44.932 167.624 44.372C167.95 43.812 168.394 43.3733 168.954 43.056C169.514 42.7387 170.153 42.58 170.872 42.58C171.6 42.58 172.244 42.7387 172.804 43.056C173.373 43.3733 173.816 43.812 174.134 44.372C174.46 44.932 174.624 45.5807 174.624 46.318C174.624 47.046 174.46 47.6947 174.134 48.264C173.816 48.824 173.373 49.2673 172.804 49.594C172.234 49.9113 171.59 50.07 170.872 50.07ZM170.872 49.188C171.404 49.188 171.875 49.0713 172.286 48.838C172.696 48.5953 173.018 48.2593 173.252 47.83C173.494 47.3913 173.616 46.8873 173.616 46.318C173.616 45.7393 173.494 45.2353 173.252 44.806C173.018 44.3767 172.696 44.0453 172.286 43.812C171.875 43.5693 171.408 43.448 170.886 43.448C170.363 43.448 169.896 43.5693 169.486 43.812C169.075 44.0453 168.748 44.3767 168.506 44.806C168.263 45.2353 168.142 45.7393 168.142 46.318C168.142 46.8873 168.263 47.3913 168.506 47.83C168.748 48.2593 169.075 48.5953 169.486 48.838C169.896 49.0713 170.358 49.188 170.872 49.188ZM175.363 49.986L175.433 49.132C175.498 49.1413 175.559 49.1553 175.615 49.174C175.68 49.1833 175.736 49.188 175.783 49.188C176.082 49.188 176.32 49.076 176.497 48.852C176.684 48.628 176.824 48.3293 176.917 47.956C177.01 47.5827 177.076 47.1627 177.113 46.696C177.15 46.22 177.183 45.744 177.211 45.268L177.337 42.65H182.727V50H181.733V43.224L181.985 43.518H177.981L178.219 43.21L178.107 45.338C178.079 45.9727 178.028 46.5793 177.953 47.158C177.888 47.7367 177.78 48.2453 177.631 48.684C177.491 49.1227 177.295 49.468 177.043 49.72C176.791 49.9627 176.469 50.084 176.077 50.084C175.965 50.084 175.848 50.0747 175.727 50.056C175.615 50.0373 175.494 50.014 175.363 49.986ZM188.717 45.24C189.641 45.2493 190.341 45.4547 190.817 45.856C191.302 46.2573 191.545 46.836 191.545 47.592C191.545 48.376 191.283 48.978 190.761 49.398C190.247 49.818 189.501 50.0233 188.521 50.014L185.553 50V42.65H186.547V45.212L188.717 45.24ZM188.465 49.258C189.146 49.2673 189.659 49.132 190.005 48.852C190.359 48.5627 190.537 48.1427 190.537 47.592C190.537 47.0413 190.364 46.64 190.019 46.388C189.673 46.1267 189.155 45.9913 188.465 45.982L186.547 45.954V49.23L188.465 49.258ZM193.441 50V42.65H194.435V45.898H199.069V42.65H200.063V50H199.069V46.752H194.435V50H193.441ZM210.057 50V42.65H211.051V50H210.057ZM205.983 45.24C206.907 45.2493 207.611 45.4547 208.097 45.856C208.582 46.2573 208.825 46.836 208.825 47.592C208.825 48.376 208.563 48.978 208.041 49.398C207.518 49.818 206.771 50.0233 205.801 50.014L202.889 50V42.65H203.883V45.212L205.983 45.24ZM205.731 49.258C206.421 49.2673 206.939 49.132 207.285 48.852C207.639 48.5627 207.817 48.1427 207.817 47.592C207.817 47.0413 207.644 46.64 207.299 46.388C206.953 46.1267 206.431 45.9913 205.731 45.982L203.883 45.954V49.23L205.731 49.258ZM213.881 50V42.65H214.875V48.488L219.789 42.65H220.671V50H219.677V44.148L214.777 50H213.881ZM217.213 41.586C216.597 41.586 216.097 41.432 215.715 41.124C215.341 40.8067 215.145 40.354 215.127 39.766H215.841C215.85 40.1393 215.981 40.4333 216.233 40.648C216.485 40.8627 216.811 40.97 217.213 40.97C217.614 40.97 217.941 40.8627 218.193 40.648C218.454 40.4333 218.589 40.1393 218.599 39.766H219.313C219.303 40.354 219.107 40.8067 218.725 41.124C218.342 41.432 217.838 41.586 217.213 41.586ZM130.934 66V58.65H137.542V66H136.548V59.252L136.8 59.518H131.676L131.928 59.252V66H130.934ZM143.391 66.07C142.682 66.07 142.042 65.9113 141.473 65.594C140.913 65.2673 140.47 64.824 140.143 64.264C139.816 63.6947 139.653 63.046 139.653 62.318C139.653 61.5807 139.816 60.932 140.143 60.372C140.47 59.812 140.913 59.3733 141.473 59.056C142.033 58.7387 142.672 58.58 143.391 58.58C144.119 58.58 144.763 58.7387 145.323 59.056C145.892 59.3733 146.336 59.812 146.653 60.372C146.98 60.932 147.143 61.5807 147.143 62.318C147.143 63.046 146.98 63.6947 146.653 64.264C146.336 64.824 145.892 65.2673 145.323 65.594C144.754 65.9113 144.11 66.07 143.391 66.07ZM143.391 65.188C143.923 65.188 144.394 65.0713 144.805 64.838C145.216 64.5953 145.538 64.2593 145.771 63.83C146.014 63.3913 146.135 62.8873 146.135 62.318C146.135 61.7393 146.014 61.2353 145.771 60.806C145.538 60.3767 145.216 60.0453 144.805 59.812C144.394 59.5693 143.928 59.448 143.405 59.448C142.882 59.448 142.416 59.5693 142.005 59.812C141.594 60.0453 141.268 60.3767 141.025 60.806C140.782 61.2353 140.661 61.7393 140.661 62.318C140.661 62.8873 140.782 63.3913 141.025 63.83C141.268 64.2593 141.594 64.5953 142.005 64.838C142.416 65.0713 142.878 65.188 143.391 65.188ZM154.658 66L151.634 62.36L152.46 61.87L155.834 66H154.658ZM149.268 66V58.65H150.262V66H149.268ZM149.954 62.724V61.87H152.32V62.724H149.954ZM152.544 62.43L151.62 62.29L154.546 58.65H155.624L152.544 62.43ZM157.104 68.786C156.759 68.786 156.428 68.73 156.11 68.618C155.802 68.506 155.536 68.338 155.312 68.114L155.774 67.372C155.961 67.5493 156.162 67.6847 156.376 67.778C156.6 67.8807 156.848 67.932 157.118 67.932C157.445 67.932 157.725 67.8387 157.958 67.652C158.201 67.4747 158.43 67.1573 158.644 66.7L159.12 65.622L159.232 65.468L162.256 58.65H163.236L159.554 66.882C159.349 67.358 159.12 67.736 158.868 68.016C158.626 68.296 158.36 68.492 158.07 68.604C157.781 68.7253 157.459 68.786 157.104 68.786ZM159.064 66.21L155.676 58.65H156.712L159.708 65.398L159.064 66.21ZM164.785 66V58.65H171.393V66H170.399V59.252L170.651 59.518H165.527L165.779 59.252V66H164.785ZM178.783 66V64.376L178.741 64.11V61.394C178.741 60.7687 178.563 60.288 178.209 59.952C177.863 59.616 177.345 59.448 176.655 59.448C176.179 59.448 175.726 59.5273 175.297 59.686C174.867 59.8447 174.503 60.0547 174.205 60.316L173.757 59.574C174.13 59.2567 174.578 59.014 175.101 58.846C175.623 58.6687 176.174 58.58 176.753 58.58C177.705 58.58 178.437 58.818 178.951 59.294C179.473 59.7607 179.735 60.4747 179.735 61.436V66H178.783ZM176.249 66.07C175.698 66.07 175.217 65.9813 174.807 65.804C174.405 65.6173 174.097 65.3653 173.883 65.048C173.668 64.7213 173.561 64.348 173.561 63.928C173.561 63.5453 173.649 63.2 173.827 62.892C174.013 62.5747 174.312 62.3227 174.723 62.136C175.143 61.94 175.703 61.842 176.403 61.842H178.937V62.584H176.431C175.721 62.584 175.227 62.71 174.947 62.962C174.676 63.214 174.541 63.5267 174.541 63.9C174.541 64.32 174.704 64.656 175.031 64.908C175.357 65.16 175.815 65.286 176.403 65.286C176.963 65.286 177.443 65.16 177.845 64.908C178.255 64.6467 178.554 64.2733 178.741 63.788L178.965 64.474C178.778 64.9593 178.451 65.3467 177.985 65.636C177.527 65.9253 176.949 66.07 176.249 66.07ZM183.781 66V59.252L184.033 59.518H180.995V58.65H187.561V59.518H184.523L184.775 59.252V66H183.781ZM191.806 66.07C191.041 66.07 190.369 65.9113 189.79 65.594C189.212 65.2673 188.759 64.824 188.432 64.264C188.106 63.6947 187.942 63.046 187.942 62.318C187.942 61.59 188.096 60.946 188.404 60.386C188.722 59.826 189.151 59.3873 189.692 59.07C190.243 58.7433 190.859 58.58 191.54 58.58C192.231 58.58 192.842 58.7387 193.374 59.056C193.916 59.364 194.34 59.8027 194.648 60.372C194.956 60.932 195.11 61.5807 195.11 62.318C195.11 62.3647 195.106 62.416 195.096 62.472C195.096 62.5187 195.096 62.57 195.096 62.626H188.698V61.884H194.564L194.172 62.178C194.172 61.646 194.056 61.1747 193.822 60.764C193.598 60.344 193.29 60.0173 192.898 59.784C192.506 59.5507 192.054 59.434 191.54 59.434C191.036 59.434 190.584 59.5507 190.182 59.784C189.781 60.0173 189.468 60.344 189.244 60.764C189.02 61.184 188.908 61.6647 188.908 62.206V62.36C188.908 62.92 189.03 63.4147 189.272 63.844C189.524 64.264 189.87 64.5953 190.308 64.838C190.756 65.0713 191.265 65.188 191.834 65.188C192.282 65.188 192.698 65.1087 193.08 64.95C193.472 64.7913 193.808 64.5487 194.088 64.222L194.648 64.866C194.322 65.258 193.911 65.5567 193.416 65.762C192.931 65.9673 192.394 66.07 191.806 66.07ZM195.816 65.986L195.886 65.132C195.951 65.1413 196.012 65.1553 196.068 65.174C196.133 65.1833 196.189 65.188 196.236 65.188C196.535 65.188 196.773 65.076 196.95 64.852C197.137 64.628 197.277 64.3293 197.37 63.956C197.463 63.5827 197.529 63.1627 197.566 62.696C197.603 62.22 197.636 61.744 197.664 61.268L197.79 58.65H203.18V66H202.186V59.224L202.438 59.518H198.434L198.672 59.21L198.56 61.338C198.532 61.9727 198.481 62.5793 198.406 63.158C198.341 63.7367 198.233 64.2453 198.084 64.684C197.944 65.1227 197.748 65.468 197.496 65.72C197.244 65.9627 196.922 66.084 196.53 66.084C196.418 66.084 196.301 66.0747 196.18 66.056C196.068 66.0373 195.947 66.014 195.816 65.986ZM209.17 61.24C210.094 61.2493 210.794 61.4547 211.27 61.856C211.755 62.2573 211.998 62.836 211.998 63.592C211.998 64.376 211.736 64.978 211.214 65.398C210.7 65.818 209.954 66.0233 208.974 66.014L206.006 66V58.65H207V61.212L209.17 61.24ZM208.918 65.258C209.599 65.2673 210.112 65.132 210.458 64.852C210.812 64.5627 210.99 64.1427 210.99 63.592C210.99 63.0413 210.817 62.64 210.472 62.388C210.126 62.1267 209.608 61.9913 208.918 61.982L207 61.954V65.23L208.918 65.258ZM142.312 82L139.288 78.36L140.114 77.87L143.488 82H142.312ZM136.922 82V74.65H137.916V82H136.922ZM137.608 78.724V77.87H139.974V78.724H137.608ZM140.198 78.43L139.274 78.29L142.2 74.65H143.278L140.198 78.43ZM145.057 82V74.65H148.305C149.135 74.65 149.789 74.8087 150.265 75.126C150.75 75.4433 150.993 75.91 150.993 76.526C150.993 77.1233 150.764 77.5853 150.307 77.912C149.849 78.2293 149.247 78.388 148.501 78.388L148.697 78.094C149.574 78.094 150.218 78.2573 150.629 78.584C151.039 78.9107 151.245 79.382 151.245 79.998C151.245 80.6327 151.011 81.1273 150.545 81.482C150.087 81.8273 149.373 82 148.403 82H145.057ZM146.023 81.216H148.361C148.986 81.216 149.457 81.118 149.775 80.922C150.101 80.7167 150.265 80.39 150.265 79.942C150.265 79.494 150.12 79.1673 149.831 78.962C149.541 78.7567 149.084 78.654 148.459 78.654H146.023V81.216ZM146.023 77.912H148.235C148.804 77.912 149.238 77.8047 149.537 77.59C149.845 77.3753 149.999 77.0627 149.999 76.652C149.999 76.2413 149.845 75.9333 149.537 75.728C149.238 75.5227 148.804 75.42 148.235 75.42H146.023V77.912ZM158.138 82V80.376L158.096 80.11V77.394C158.096 76.7687 157.919 76.288 157.564 75.952C157.219 75.616 156.701 75.448 156.01 75.448C155.534 75.448 155.081 75.5273 154.652 75.686C154.223 75.8447 153.859 76.0547 153.56 76.316L153.112 75.574C153.485 75.2567 153.933 75.014 154.456 74.846C154.979 74.6687 155.529 74.58 156.108 74.58C157.06 74.58 157.793 74.818 158.306 75.294C158.829 75.7607 159.09 76.4747 159.09 77.436V82H158.138ZM155.604 82.07C155.053 82.07 154.573 81.9813 154.162 81.804C153.761 81.6173 153.453 81.3653 153.238 81.048C153.023 80.7213 152.916 80.348 152.916 79.928C152.916 79.5453 153.005 79.2 153.182 78.892C153.369 78.5747 153.667 78.3227 154.078 78.136C154.498 77.94 155.058 77.842 155.758 77.842H158.292V78.584H155.786C155.077 78.584 154.582 78.71 154.302 78.962C154.031 79.214 153.896 79.5267 153.896 79.9C153.896 80.32 154.059 80.656 154.386 80.908C154.713 81.16 155.17 81.286 155.758 81.286C156.318 81.286 156.799 81.16 157.2 80.908C157.611 80.6467 157.909 80.2733 158.096 79.788L158.32 80.474C158.133 80.9593 157.807 81.3467 157.34 81.636C156.883 81.9253 156.304 82.07 155.604 82.07ZM165.53 82.07C164.896 82.07 164.322 81.9253 163.808 81.636C163.295 81.3373 162.884 80.9127 162.576 80.362C162.278 79.802 162.128 79.1207 162.128 78.318C162.128 77.5153 162.278 76.8387 162.576 76.288C162.875 75.728 163.281 75.3033 163.794 75.014C164.308 74.7247 164.886 74.58 165.53 74.58C166.23 74.58 166.856 74.7387 167.406 75.056C167.966 75.364 168.405 75.8027 168.722 76.372C169.04 76.932 169.198 77.5807 169.198 78.318C169.198 79.0647 169.04 79.718 168.722 80.278C168.405 80.838 167.966 81.2767 167.406 81.594C166.856 81.9113 166.23 82.07 165.53 82.07ZM161.736 84.716V74.65H162.688V76.862L162.59 78.332L162.73 79.816V84.716H161.736ZM165.46 81.188C165.983 81.188 166.45 81.0713 166.86 80.838C167.271 80.5953 167.598 80.2593 167.84 79.83C168.083 79.3913 168.204 78.8873 168.204 78.318C168.204 77.7487 168.083 77.2493 167.84 76.82C167.598 76.3907 167.271 76.0547 166.86 75.812C166.45 75.5693 165.983 75.448 165.46 75.448C164.938 75.448 164.466 75.5693 164.046 75.812C163.636 76.0547 163.309 76.3907 163.066 76.82C162.833 77.2493 162.716 77.7487 162.716 78.318C162.716 78.8873 162.833 79.3913 163.066 79.83C163.309 80.2593 163.636 80.5953 164.046 80.838C164.466 81.0713 164.938 81.188 165.46 81.188ZM172.46 82V75.252L172.712 75.518H169.674V74.65H176.24V75.518H173.202L173.454 75.252V82H172.46ZM177.678 82V74.65H178.672V80.488L183.586 74.65H184.468V82H183.474V76.148L178.574 82H177.678ZM191.11 82.07C190.476 82.07 189.902 81.9253 189.388 81.636C188.875 81.3373 188.464 80.9127 188.156 80.362C187.858 79.802 187.708 79.1207 187.708 78.318C187.708 77.5153 187.858 76.8387 188.156 76.288C188.455 75.728 188.861 75.3033 189.374 75.014C189.888 74.7247 190.466 74.58 191.11 74.58C191.81 74.58 192.436 74.7387 192.986 75.056C193.546 75.364 193.985 75.8027 194.302 76.372C194.62 76.932 194.778 77.5807 194.778 78.318C194.778 79.0647 194.62 79.718 194.302 80.278C193.985 80.838 193.546 81.2767 192.986 81.594C192.436 81.9113 191.81 82.07 191.11 82.07ZM187.316 84.716V74.65H188.268V76.862L188.17 78.332L188.31 79.816V84.716H187.316ZM191.04 81.188C191.563 81.188 192.03 81.0713 192.44 80.838C192.851 80.5953 193.178 80.2593 193.42 79.83C193.663 79.3913 193.784 78.8873 193.784 78.318C193.784 77.7487 193.663 77.2493 193.42 76.82C193.178 76.3907 192.851 76.0547 192.44 75.812C192.03 75.5693 191.563 75.448 191.04 75.448C190.518 75.448 190.046 75.5693 189.626 75.812C189.216 76.0547 188.889 76.3907 188.646 76.82C188.413 77.2493 188.296 77.7487 188.296 78.318C188.296 78.8873 188.413 79.3913 188.646 79.83C188.889 80.2593 189.216 80.5953 189.626 80.838C190.046 81.0713 190.518 81.188 191.04 81.188ZM204.082 82V74.65H205.076V82H204.082ZM200.008 77.24C200.932 77.2493 201.637 77.4547 202.122 77.856C202.607 78.2573 202.85 78.836 202.85 79.592C202.85 80.376 202.589 80.978 202.066 81.398C201.543 81.818 200.797 82.0233 199.826 82.014L196.914 82V74.65H197.908V77.212L200.008 77.24ZM199.756 81.258C200.447 81.2673 200.965 81.132 201.31 80.852C201.665 80.5627 201.842 80.1427 201.842 79.592C201.842 79.0413 201.669 78.64 201.324 78.388C200.979 78.1267 200.456 77.9913 199.756 77.982L197.908 77.954V81.23L199.756 81.258Z" fill="#232226"/>
</g>
<path d="M171 133L176.774 123L165.226 123L171 133ZM172 124L172 101L170 101L170 124L172 124Z" fill="#8A8A8C"/>
<g filter="url(#filter1_d_6712_6552)">
<rect x="59" y="137" width="224" height="40" rx="8" fill="white"/>
<path d="M108.535 152.2H109.557V162H108.535V152.2ZM102.403 162H101.367V152.2H102.403V162ZM108.633 157.478H102.291V156.568H108.633V157.478ZM117.191 162V160.376L117.149 160.11V157.394C117.149 156.769 116.972 156.288 116.617 155.952C116.272 155.616 115.754 155.448 115.063 155.448C114.587 155.448 114.134 155.527 113.705 155.686C113.276 155.845 112.912 156.055 112.613 156.316L112.165 155.574C112.538 155.257 112.986 155.014 113.509 154.846C114.032 154.669 114.582 154.58 115.161 154.58C116.113 154.58 116.846 154.818 117.359 155.294C117.882 155.761 118.143 156.475 118.143 157.436V162H117.191ZM114.657 162.07C114.106 162.07 113.626 161.981 113.215 161.804C112.814 161.617 112.506 161.365 112.291 161.048C112.076 160.721 111.969 160.348 111.969 159.928C111.969 159.545 112.058 159.2 112.235 158.892C112.422 158.575 112.72 158.323 113.131 158.136C113.551 157.94 114.111 157.842 114.811 157.842H117.345V158.584H114.839C114.13 158.584 113.635 158.71 113.355 158.962C113.084 159.214 112.949 159.527 112.949 159.9C112.949 160.32 113.112 160.656 113.439 160.908C113.766 161.16 114.223 161.286 114.811 161.286C115.371 161.286 115.852 161.16 116.253 160.908C116.664 160.647 116.962 160.273 117.149 159.788L117.373 160.474C117.186 160.959 116.86 161.347 116.393 161.636C115.936 161.925 115.357 162.07 114.657 162.07ZM125.437 158.892C125.008 159.079 124.574 159.228 124.135 159.34C123.706 159.443 123.276 159.494 122.847 159.494C121.979 159.494 121.293 159.298 120.789 158.906C120.285 158.505 120.033 157.889 120.033 157.058V154.65H121.013V157.002C121.013 157.562 121.195 157.982 121.559 158.262C121.923 158.542 122.413 158.682 123.029 158.682C123.402 158.682 123.794 158.635 124.205 158.542C124.616 158.439 125.031 158.295 125.451 158.108L125.437 158.892ZM125.353 162V154.65H126.347V162H125.353ZM129.17 162V154.65H130.164V160.488L135.078 154.65H135.96V162H134.966V156.148L130.066 162H129.17ZM138.809 162V154.65H139.803V157.898H144.437V154.65H145.431V162H144.437V158.752H139.803V162H138.809ZM152.82 162V160.376L152.778 160.11V157.394C152.778 156.769 152.6 156.288 152.246 155.952C151.9 155.616 151.382 155.448 150.692 155.448C150.216 155.448 149.763 155.527 149.334 155.686C148.904 155.845 148.54 156.055 148.242 156.316L147.794 155.574C148.167 155.257 148.615 155.014 149.138 154.846C149.66 154.669 150.211 154.58 150.79 154.58C151.742 154.58 152.474 154.818 152.988 155.294C153.51 155.761 153.772 156.475 153.772 157.436V162H152.82ZM150.286 162.07C149.735 162.07 149.254 161.981 148.844 161.804C148.442 161.617 148.134 161.365 147.92 161.048C147.705 160.721 147.598 160.348 147.598 159.928C147.598 159.545 147.686 159.2 147.864 158.892C148.05 158.575 148.349 158.323 148.76 158.136C149.18 157.94 149.74 157.842 150.44 157.842H152.974V158.584H150.468C149.758 158.584 149.264 158.71 148.984 158.962C148.713 159.214 148.578 159.527 148.578 159.9C148.578 160.32 148.741 160.656 149.068 160.908C149.394 161.16 149.852 161.286 150.44 161.286C151 161.286 151.48 161.16 151.882 160.908C152.292 160.647 152.591 160.273 152.778 159.788L153.002 160.474C152.815 160.959 152.488 161.347 152.022 161.636C151.564 161.925 150.986 162.07 150.286 162.07ZM159.568 162.07C158.803 162.07 158.131 161.911 157.552 161.594C156.973 161.267 156.521 160.824 156.194 160.264C155.867 159.695 155.704 159.046 155.704 158.318C155.704 157.59 155.858 156.946 156.166 156.386C156.483 155.826 156.913 155.387 157.454 155.07C158.005 154.743 158.621 154.58 159.302 154.58C159.993 154.58 160.604 154.739 161.136 155.056C161.677 155.364 162.102 155.803 162.41 156.372C162.718 156.932 162.872 157.581 162.872 158.318C162.872 158.365 162.867 158.416 162.858 158.472C162.858 158.519 162.858 158.57 162.858 158.626H156.46V157.884H162.326L161.934 158.178C161.934 157.646 161.817 157.175 161.584 156.764C161.36 156.344 161.052 156.017 160.66 155.784C160.268 155.551 159.815 155.434 159.302 155.434C158.798 155.434 158.345 155.551 157.944 155.784C157.543 156.017 157.23 156.344 157.006 156.764C156.782 157.184 156.67 157.665 156.67 158.206V158.36C156.67 158.92 156.791 159.415 157.034 159.844C157.286 160.264 157.631 160.595 158.07 160.838C158.518 161.071 159.027 161.188 159.596 161.188C160.044 161.188 160.459 161.109 160.842 160.95C161.234 160.791 161.57 160.549 161.85 160.222L162.41 160.866C162.083 161.258 161.673 161.557 161.178 161.762C160.693 161.967 160.156 162.07 159.568 162.07ZM165.072 162V154.65H166.08L169.412 160.292H168.992L172.38 154.65H173.304V162H172.394V155.784L172.576 155.868L169.412 161.104H168.964L165.772 155.812L165.982 155.77V162H165.072ZM179.797 162V154.65H186.405V162H185.411V155.252L185.663 155.518H180.539L180.791 155.252V162H179.797ZM193.024 162.07C192.39 162.07 191.816 161.925 191.302 161.636C190.789 161.337 190.378 160.913 190.07 160.362C189.772 159.802 189.622 159.121 189.622 158.318C189.622 157.515 189.772 156.839 190.07 156.288C190.369 155.728 190.775 155.303 191.288 155.014C191.802 154.725 192.38 154.58 193.024 154.58C193.724 154.58 194.35 154.739 194.9 155.056C195.46 155.364 195.899 155.803 196.216 156.372C196.534 156.932 196.692 157.581 196.692 158.318C196.692 159.065 196.534 159.718 196.216 160.278C195.899 160.838 195.46 161.277 194.9 161.594C194.35 161.911 193.724 162.07 193.024 162.07ZM189.23 164.716V154.65H190.182V156.862L190.084 158.332L190.224 159.816V164.716H189.23ZM192.954 161.188C193.477 161.188 193.944 161.071 194.354 160.838C194.765 160.595 195.092 160.259 195.334 159.83C195.577 159.391 195.698 158.887 195.698 158.318C195.698 157.749 195.577 157.249 195.334 156.82C195.092 156.391 194.765 156.055 194.354 155.812C193.944 155.569 193.477 155.448 192.954 155.448C192.432 155.448 191.96 155.569 191.54 155.812C191.13 156.055 190.803 156.391 190.56 156.82C190.327 157.249 190.21 157.749 190.21 158.318C190.21 158.887 190.327 159.391 190.56 159.83C190.803 160.259 191.13 160.595 191.54 160.838C191.96 161.071 192.432 161.188 192.954 161.188ZM198.828 162V154.65H199.822V160.488L204.736 154.65H205.618V162H204.624V156.148L199.724 162H198.828ZM211.617 162.07C210.851 162.07 210.179 161.911 209.601 161.594C209.022 161.267 208.569 160.824 208.243 160.264C207.916 159.695 207.753 159.046 207.753 158.318C207.753 157.59 207.907 156.946 208.215 156.386C208.532 155.826 208.961 155.387 209.503 155.07C210.053 154.743 210.669 154.58 211.351 154.58C212.041 154.58 212.653 154.739 213.185 155.056C213.726 155.364 214.151 155.803 214.459 156.372C214.767 156.932 214.921 157.581 214.921 158.318C214.921 158.365 214.916 158.416 214.907 158.472C214.907 158.519 214.907 158.57 214.907 158.626H208.509V157.884H214.375L213.983 158.178C213.983 157.646 213.866 157.175 213.633 156.764C213.409 156.344 213.101 156.017 212.709 155.784C212.317 155.551 211.864 155.434 211.351 155.434C210.847 155.434 210.394 155.551 209.993 155.784C209.591 156.017 209.279 156.344 209.055 156.764C208.831 157.184 208.719 157.665 208.719 158.206V158.36C208.719 158.92 208.84 159.415 209.083 159.844C209.335 160.264 209.68 160.595 210.119 160.838C210.567 161.071 211.075 161.188 211.645 161.188C212.093 161.188 212.508 161.109 212.891 160.95C213.283 160.791 213.619 160.549 213.899 160.222L214.459 160.866C214.132 161.258 213.721 161.557 213.227 161.762C212.741 161.967 212.205 162.07 211.617 162.07ZM212.597 153.18C212.438 153.18 212.298 153.124 212.177 153.012C212.055 152.9 211.995 152.755 211.995 152.578C211.995 152.401 212.055 152.256 212.177 152.144C212.298 152.032 212.438 151.976 212.597 151.976C212.765 151.976 212.905 152.032 213.017 152.144C213.138 152.256 213.199 152.401 213.199 152.578C213.199 152.755 213.138 152.9 213.017 153.012C212.905 153.124 212.765 153.18 212.597 153.18ZM210.105 153.18C209.937 153.18 209.792 153.124 209.671 153.012C209.559 152.9 209.503 152.755 209.503 152.578C209.503 152.401 209.559 152.256 209.671 152.144C209.792 152.032 209.937 151.976 210.105 151.976C210.263 151.976 210.403 152.032 210.525 152.144C210.646 152.256 210.707 152.401 210.707 152.578C210.707 152.755 210.646 152.9 210.525 153.012C210.403 153.124 210.263 153.18 210.105 153.18ZM217.121 162V154.65H218.129L221.461 160.292H221.041L224.429 154.65H225.353V162H224.443V155.784L224.625 155.868L221.461 161.104H221.013L217.821 155.812L218.031 155.77V162H217.121ZM233.572 162L230.548 158.36L231.374 157.87L234.748 162H233.572ZM228.182 162V154.65H229.176V162H228.182ZM228.868 158.724V157.87H231.234V158.724H228.868ZM231.458 158.43L230.534 158.29L233.46 154.65H234.538L231.458 158.43ZM236.019 164.786C235.673 164.786 235.342 164.73 235.025 164.618C234.717 164.506 234.451 164.338 234.227 164.114L234.689 163.372C234.875 163.549 235.076 163.685 235.291 163.778C235.515 163.881 235.762 163.932 236.033 163.932C236.359 163.932 236.639 163.839 236.873 163.652C237.115 163.475 237.344 163.157 237.559 162.7L238.035 161.622L238.147 161.468L241.171 154.65H242.151L238.469 162.882C238.263 163.358 238.035 163.736 237.783 164.016C237.54 164.296 237.274 164.492 236.985 164.604C236.695 164.725 236.373 164.786 236.019 164.786ZM237.979 162.21L234.591 154.65H235.627L238.623 161.398L237.979 162.21Z" fill="#232226"/>
</g>
<path d="M171 209L176.774 199L165.226 199L171 209ZM172 200L172 177L170 177L170 200L172 200Z" fill="#8A8A8C"/>
<path d="M78 340L72.2265 330H83.7735L78 340ZM86 265H118V267H86V265ZM77 331V274H79V331H77ZM86 267C82.134 267 79 270.134 79 274H77C77 269.029 81.0294 265 86 265V267Z" fill="#8A8A8C"/>
<rect width="34" height="24" transform="matrix(-1 0 0 1 114 253)" fill="white"/>
<path d="M91.0423 260.6H92.9863V269H91.0423V260.6ZM87.2263 269H85.2823V260.6H87.2263V269ZM91.1863 265.556H87.0823V263.912H91.1863V265.556ZM96.8789 263.984H100.923V265.496H96.8789V263.984ZM97.0229 267.44H101.595V269H95.0909V260.6H101.439V262.16H97.0229V267.44ZM104.977 269V261.74L105.421 262.184H102.301V260.6H109.585V262.184H106.465L106.897 261.74V269H104.977Z" fill="#8A8A8C"/>
<path d="M265 340L270.774 330H259.226L265 340ZM266 331V274H264V331H266ZM257 265H225V267H257V265ZM266 274C266 269.029 261.971 265 257 265V267C260.866 267 264 270.134 264 274H266Z" fill="#8A8A8C"/>
<rect width="24" height="24" transform="matrix(-1 0 0 1 255 253)" fill="white"/>
<path d="M239.809 268.136V262.184H236.929L236.893 263.408C236.869 263.928 236.833 264.42 236.785 264.884C236.745 265.348 236.681 265.772 236.593 266.156C236.505 266.532 236.389 266.852 236.245 267.116C236.109 267.38 235.937 267.568 235.729 267.68L233.653 267.416C233.941 267.424 234.177 267.324 234.361 267.116C234.553 266.908 234.705 266.616 234.817 266.24C234.929 265.856 235.009 265.408 235.057 264.896C235.113 264.384 235.153 263.828 235.177 263.228L235.273 260.6H241.729V268.136H239.809ZM233.377 270.74L233.389 267.416H242.905V270.74H241.105V269H235.177V270.74H233.377ZM243.313 269L247.057 260.6H248.977L252.733 269H250.693L247.621 261.584H248.389L245.305 269H243.313ZM245.185 267.2L245.701 265.724H250.021L250.549 267.2H245.185Z" fill="#8A8A8C"/>
<g filter="url(#filter2_d_6712_6552)">
<rect x="171" y="209" width="80" height="80" rx="8" transform="rotate(45 171 209)" fill="white"/>
</g>
<path d="M157.388 253.582H162.568V254.464H157.388V253.582ZM157.5 258.104H163.394V259H156.464V249.2H163.184V250.096H157.5V258.104ZM168.425 259.07C167.697 259.07 167.043 258.911 166.465 258.594C165.895 258.267 165.447 257.824 165.121 257.264C164.794 256.695 164.631 256.046 164.631 255.318C164.631 254.581 164.794 253.932 165.121 253.372C165.447 252.812 165.895 252.373 166.465 252.056C167.043 251.739 167.697 251.58 168.425 251.58C169.05 251.58 169.615 251.701 170.119 251.944C170.623 252.187 171.019 252.551 171.309 253.036L170.567 253.54C170.315 253.167 170.002 252.891 169.629 252.714C169.255 252.537 168.849 252.448 168.411 252.448C167.888 252.448 167.417 252.569 166.997 252.812C166.577 253.045 166.245 253.377 166.003 253.806C165.76 254.235 165.639 254.739 165.639 255.318C165.639 255.897 165.76 256.401 166.003 256.83C166.245 257.259 166.577 257.595 166.997 257.838C167.417 258.071 167.888 258.188 168.411 258.188C168.849 258.188 169.255 258.099 169.629 257.922C170.002 257.745 170.315 257.474 170.567 257.11L171.309 257.614C171.019 258.09 170.623 258.454 170.119 258.706C169.615 258.949 169.05 259.07 168.425 259.07ZM174.497 259V252.252L174.749 252.518H171.711V251.65H178.277V252.518H175.239L175.491 252.252V259H174.497ZM182.878 254.24C183.802 254.249 184.502 254.455 184.978 254.856C185.463 255.257 185.706 255.836 185.706 256.592C185.706 257.376 185.444 257.978 184.922 258.398C184.408 258.818 183.662 259.023 182.682 259.014L179.714 259V251.65H180.708V254.212L182.878 254.24ZM182.626 258.258C183.307 258.267 183.82 258.132 184.166 257.852C184.52 257.563 184.698 257.143 184.698 256.592C184.698 256.041 184.525 255.64 184.18 255.388C183.834 255.127 183.316 254.991 182.626 254.982L180.708 254.954V258.23L182.626 258.258ZM141.407 274.524V268.518H137.865L137.781 270.156C137.762 270.651 137.73 271.136 137.683 271.612C137.646 272.088 137.576 272.527 137.473 272.928C137.38 273.32 137.244 273.642 137.067 273.894C136.89 274.137 136.661 274.277 136.381 274.314L135.387 274.132C135.676 274.141 135.914 274.039 136.101 273.824C136.288 273.6 136.432 273.297 136.535 272.914C136.638 272.531 136.712 272.097 136.759 271.612C136.806 271.117 136.843 270.613 136.871 270.1L136.969 267.65H142.401V274.524H141.407ZM135.079 276.778V274.132H143.549V276.778H142.611V275H136.017V276.778H135.079ZM148.636 275.07C147.871 275.07 147.199 274.911 146.62 274.594C146.042 274.267 145.589 273.824 145.262 273.264C144.936 272.695 144.772 272.046 144.772 271.318C144.772 270.59 144.926 269.946 145.234 269.386C145.552 268.826 145.981 268.387 146.522 268.07C147.073 267.743 147.689 267.58 148.37 267.58C149.061 267.58 149.672 267.739 150.204 268.056C150.746 268.364 151.17 268.803 151.478 269.372C151.786 269.932 151.94 270.581 151.94 271.318C151.94 271.365 151.936 271.416 151.926 271.472C151.926 271.519 151.926 271.57 151.926 271.626H145.528V270.884H151.394L151.002 271.178C151.002 270.646 150.886 270.175 150.652 269.764C150.428 269.344 150.12 269.017 149.728 268.784C149.336 268.551 148.884 268.434 148.37 268.434C147.866 268.434 147.414 268.551 147.012 268.784C146.611 269.017 146.298 269.344 146.074 269.764C145.85 270.184 145.738 270.665 145.738 271.206V271.36C145.738 271.92 145.86 272.415 146.102 272.844C146.354 273.264 146.7 273.595 147.138 273.838C147.586 274.071 148.095 274.188 148.664 274.188C149.112 274.188 149.528 274.109 149.91 273.95C150.302 273.791 150.638 273.549 150.918 273.222L151.478 273.866C151.152 274.258 150.741 274.557 150.246 274.762C149.761 274.967 149.224 275.07 148.636 275.07ZM158.271 275.084C158.271 275.084 158.252 275.084 158.215 275.084C158.177 275.084 158.14 275.084 158.103 275.084C158.075 275.084 158.051 275.084 158.033 275.084C156.577 275.075 155.443 274.743 154.631 274.09C153.819 273.437 153.413 272.508 153.413 271.304C153.413 270.119 153.819 269.204 154.631 268.56C155.452 267.907 156.605 267.575 158.089 267.566C158.098 267.566 158.117 267.566 158.145 267.566C158.182 267.566 158.215 267.566 158.243 267.566C158.271 267.566 158.289 267.566 158.299 267.566C159.792 267.575 160.954 267.907 161.785 268.56C162.615 269.204 163.031 270.119 163.031 271.304C163.031 272.517 162.611 273.451 161.771 274.104C160.94 274.757 159.773 275.084 158.271 275.084ZM158.257 274.216C159.087 274.216 159.783 274.104 160.343 273.88C160.903 273.647 161.327 273.315 161.617 272.886C161.906 272.457 162.051 271.929 162.051 271.304C162.051 270.697 161.906 270.184 161.617 269.764C161.327 269.335 160.903 269.008 160.343 268.784C159.783 268.56 159.087 268.448 158.257 268.448C158.247 268.448 158.219 268.448 158.173 268.448C158.135 268.448 158.112 268.448 158.103 268.448C157.291 268.448 156.609 268.565 156.059 268.798C155.508 269.022 155.093 269.344 154.813 269.764C154.533 270.184 154.393 270.697 154.393 271.304C154.393 271.92 154.533 272.443 154.813 272.872C155.102 273.301 155.522 273.633 156.073 273.866C156.623 274.09 157.3 274.207 158.103 274.216C158.121 274.216 158.149 274.216 158.187 274.216C158.224 274.216 158.247 274.216 158.257 274.216ZM157.725 277.716V264.612H158.691V277.716H157.725ZM168.283 275.07C167.517 275.07 166.845 274.911 166.267 274.594C165.688 274.267 165.235 273.824 164.909 273.264C164.582 272.695 164.419 272.046 164.419 271.318C164.419 270.59 164.573 269.946 164.881 269.386C165.198 268.826 165.627 268.387 166.169 268.07C166.719 267.743 167.335 267.58 168.017 267.58C168.707 267.58 169.319 267.739 169.851 268.056C170.392 268.364 170.817 268.803 171.125 269.372C171.433 269.932 171.587 270.581 171.587 271.318C171.587 271.365 171.582 271.416 171.573 271.472C171.573 271.519 171.573 271.57 171.573 271.626H165.175V270.884H171.041L170.649 271.178C170.649 270.646 170.532 270.175 170.299 269.764C170.075 269.344 169.767 269.017 169.375 268.784C168.983 268.551 168.53 268.434 168.017 268.434C167.513 268.434 167.06 268.551 166.659 268.784C166.257 269.017 165.945 269.344 165.721 269.764C165.497 270.184 165.385 270.665 165.385 271.206V271.36C165.385 271.92 165.506 272.415 165.749 272.844C166.001 273.264 166.346 273.595 166.785 273.838C167.233 274.071 167.741 274.188 168.311 274.188C168.759 274.188 169.174 274.109 169.557 273.95C169.949 273.791 170.285 273.549 170.565 273.222L171.125 273.866C170.798 274.258 170.387 274.557 169.893 274.762C169.407 274.967 168.871 275.07 168.283 275.07ZM179.177 275L176.153 271.36L176.979 270.87L180.353 275H179.177ZM173.787 275V267.65H174.781V275H173.787ZM174.473 271.724V270.87H176.839V271.724H174.473ZM177.063 271.43L176.139 271.29L179.065 267.65H180.143L177.063 271.43ZM183.171 275V268.252L183.423 268.518H180.385V267.65H186.951V268.518H183.913L184.165 268.252V275H183.171ZM195.557 275V267.65H196.551V275H195.557ZM191.483 270.24C192.407 270.249 193.111 270.455 193.597 270.856C194.082 271.257 194.325 271.836 194.325 272.592C194.325 273.376 194.063 273.978 193.541 274.398C193.018 274.818 192.271 275.023 191.301 275.014L188.389 275V267.65H189.383V270.212L191.483 270.24ZM191.231 274.258C191.921 274.267 192.439 274.132 192.785 273.852C193.139 273.563 193.317 273.143 193.317 272.592C193.317 272.041 193.144 271.64 192.799 271.388C192.453 271.127 191.931 270.991 191.231 270.982L189.383 270.954V274.23L191.231 274.258ZM201.394 272.06C201.394 271.668 201.454 271.332 201.576 271.052C201.706 270.772 201.865 270.525 202.052 270.31C202.248 270.095 202.453 269.895 202.668 269.708C202.892 269.521 203.102 269.335 203.298 269.148C203.494 268.952 203.652 268.742 203.774 268.518C203.895 268.285 203.956 268.014 203.956 267.706C203.956 267.202 203.76 266.791 203.368 266.474C202.976 266.157 202.42 265.998 201.702 265.998C201.104 265.998 200.586 266.096 200.148 266.292C199.709 266.479 199.336 266.759 199.028 267.132L198.286 266.572C198.659 266.105 199.14 265.746 199.728 265.494C200.316 265.242 200.997 265.116 201.772 265.116C202.425 265.116 202.99 265.214 203.466 265.41C203.951 265.606 204.324 265.886 204.586 266.25C204.856 266.614 204.992 267.048 204.992 267.552C204.992 267.953 204.926 268.299 204.796 268.588C204.674 268.868 204.516 269.12 204.32 269.344C204.133 269.559 203.928 269.764 203.704 269.96C203.489 270.147 203.284 270.338 203.088 270.534C202.892 270.73 202.733 270.949 202.612 271.192C202.49 271.435 202.43 271.724 202.43 272.06H201.394ZM201.912 275.07C201.716 275.07 201.543 275 201.394 274.86C201.254 274.711 201.184 274.538 201.184 274.342C201.184 274.137 201.254 273.969 201.394 273.838C201.543 273.698 201.716 273.628 201.912 273.628C202.126 273.628 202.304 273.698 202.444 273.838C202.584 273.969 202.654 274.137 202.654 274.342C202.654 274.538 202.584 274.711 202.444 274.86C202.304 275 202.126 275.07 201.912 275.07Z" fill="#232226"/>
<g filter="url(#filter3_d_6712_6552)">
<rect width="168" height="112" rx="8" transform="matrix(-1 0 0 1 343 343)" fill="white"/>
<path d="M232.613 371.51V363.096H227.923L227.839 365.476C227.811 366.213 227.765 366.923 227.699 367.604C227.643 368.276 227.55 368.883 227.419 369.424C227.298 369.956 227.13 370.39 226.915 370.726C226.71 371.062 226.439 371.258 226.103 371.314L224.969 371.104C225.343 371.123 225.651 370.987 225.893 370.698C226.145 370.409 226.337 370.003 226.467 369.48C226.607 368.957 226.71 368.346 226.775 367.646C226.841 366.946 226.887 366.19 226.915 365.378L227.027 362.2H233.635V371.51H232.613ZM224.605 374.198L224.619 371.104H235.105V374.198H234.139V372H225.585L225.571 374.198H224.605ZM239.925 372.07C239.16 372.07 238.488 371.911 237.909 371.594C237.331 371.267 236.878 370.824 236.551 370.264C236.225 369.695 236.061 369.046 236.061 368.318C236.061 367.59 236.215 366.946 236.523 366.386C236.841 365.826 237.27 365.387 237.811 365.07C238.362 364.743 238.978 364.58 239.659 364.58C240.35 364.58 240.961 364.739 241.493 365.056C242.035 365.364 242.459 365.803 242.767 366.372C243.075 366.932 243.229 367.581 243.229 368.318C243.229 368.365 243.225 368.416 243.215 368.472C243.215 368.519 243.215 368.57 243.215 368.626H236.817V367.884H242.683L242.291 368.178C242.291 367.646 242.175 367.175 241.941 366.764C241.717 366.344 241.409 366.017 241.017 365.784C240.625 365.551 240.173 365.434 239.659 365.434C239.155 365.434 238.703 365.551 238.301 365.784C237.9 366.017 237.587 366.344 237.363 366.764C237.139 367.184 237.027 367.665 237.027 368.206V368.36C237.027 368.92 237.149 369.415 237.391 369.844C237.643 370.264 237.989 370.595 238.427 370.838C238.875 371.071 239.384 371.188 239.953 371.188C240.401 371.188 240.817 371.109 241.199 370.95C241.591 370.791 241.927 370.549 242.207 370.222L242.767 370.866C242.441 371.258 242.03 371.557 241.535 371.762C241.05 371.967 240.513 372.07 239.925 372.07ZM246.502 372V365.252L246.754 365.518H243.716V364.65H250.282V365.518H247.244L247.496 365.252V372H246.502ZM256.283 372V370.376L256.241 370.11V367.394C256.241 366.769 256.063 366.288 255.709 365.952C255.363 365.616 254.845 365.448 254.155 365.448C253.679 365.448 253.226 365.527 252.797 365.686C252.367 365.845 252.003 366.055 251.705 366.316L251.257 365.574C251.63 365.257 252.078 365.014 252.601 364.846C253.123 364.669 253.674 364.58 254.253 364.58C255.205 364.58 255.937 364.818 256.451 365.294C256.973 365.761 257.235 366.475 257.235 367.436V372H256.283ZM253.749 372.07C253.198 372.07 252.717 371.981 252.307 371.804C251.905 371.617 251.597 371.365 251.383 371.048C251.168 370.721 251.061 370.348 251.061 369.928C251.061 369.545 251.149 369.2 251.327 368.892C251.513 368.575 251.812 368.323 252.223 368.136C252.643 367.94 253.203 367.842 253.903 367.842H256.437V368.584H253.931C253.221 368.584 252.727 368.71 252.447 368.962C252.176 369.214 252.041 369.527 252.041 369.9C252.041 370.32 252.204 370.656 252.531 370.908C252.857 371.16 253.315 371.286 253.903 371.286C254.463 371.286 254.943 371.16 255.345 370.908C255.755 370.647 256.054 370.273 256.241 369.788L256.465 370.474C256.278 370.959 255.951 371.347 255.485 371.636C255.027 371.925 254.449 372.07 253.749 372.07ZM258.537 371.986L258.607 371.132C258.672 371.141 258.733 371.155 258.789 371.174C258.854 371.183 258.91 371.188 258.957 371.188C259.255 371.188 259.493 371.076 259.671 370.852C259.857 370.628 259.997 370.329 260.091 369.956C260.184 369.583 260.249 369.163 260.287 368.696C260.324 368.22 260.357 367.744 260.385 367.268L260.511 364.65H265.901V372H264.907V365.224L265.159 365.518H261.155L261.393 365.21L261.281 367.338C261.253 367.973 261.201 368.579 261.127 369.158C261.061 369.737 260.954 370.245 260.805 370.684C260.665 371.123 260.469 371.468 260.217 371.72C259.965 371.963 259.643 372.084 259.251 372.084C259.139 372.084 259.022 372.075 258.901 372.056C258.789 372.037 258.667 372.014 258.537 371.986ZM271.891 367.24C272.815 367.249 273.515 367.455 273.991 367.856C274.476 368.257 274.719 368.836 274.719 369.592C274.719 370.376 274.457 370.978 273.935 371.398C273.421 371.818 272.675 372.023 271.695 372.014L268.727 372V364.65H269.721V367.212L271.891 367.24ZM271.639 371.258C272.32 371.267 272.833 371.132 273.179 370.852C273.533 370.563 273.711 370.143 273.711 369.592C273.711 369.041 273.538 368.64 273.193 368.388C272.847 368.127 272.329 367.991 271.639 367.982L269.721 367.954V371.23L271.639 371.258ZM276.615 372V364.65H277.609V367.898H282.243V364.65H283.237V372H282.243V368.752H277.609V372H276.615ZM289.086 372.07C288.377 372.07 287.738 371.911 287.168 371.594C286.608 371.267 286.165 370.824 285.838 370.264C285.512 369.695 285.348 369.046 285.348 368.318C285.348 367.581 285.512 366.932 285.838 366.372C286.165 365.812 286.608 365.373 287.168 365.056C287.728 364.739 288.368 364.58 289.086 364.58C289.814 364.58 290.458 364.739 291.018 365.056C291.588 365.373 292.031 365.812 292.348 366.372C292.675 366.932 292.838 367.581 292.838 368.318C292.838 369.046 292.675 369.695 292.348 370.264C292.031 370.824 291.588 371.267 291.018 371.594C290.449 371.911 289.805 372.07 289.086 372.07ZM289.086 371.188C289.618 371.188 290.09 371.071 290.5 370.838C290.911 370.595 291.233 370.259 291.466 369.83C291.709 369.391 291.83 368.887 291.83 368.318C291.83 367.739 291.709 367.235 291.466 366.806C291.233 366.377 290.911 366.045 290.5 365.812C290.09 365.569 289.623 365.448 289.1 365.448C288.578 365.448 288.111 365.569 287.7 365.812C287.29 366.045 286.963 366.377 286.72 366.806C286.478 367.235 286.356 367.739 286.356 368.318C286.356 368.887 286.478 369.391 286.72 369.83C286.963 370.259 287.29 370.595 287.7 370.838C288.111 371.071 288.573 371.188 289.086 371.188ZM214.308 388.07C213.599 388.07 212.959 387.911 212.39 387.594C211.83 387.267 211.387 386.824 211.06 386.264C210.733 385.695 210.57 385.046 210.57 384.318C210.57 383.581 210.733 382.932 211.06 382.372C211.387 381.812 211.83 381.373 212.39 381.056C212.95 380.739 213.589 380.58 214.308 380.58C215.036 380.58 215.68 380.739 216.24 381.056C216.809 381.373 217.253 381.812 217.57 382.372C217.897 382.932 218.06 383.581 218.06 384.318C218.06 385.046 217.897 385.695 217.57 386.264C217.253 386.824 216.809 387.267 216.24 387.594C215.671 387.911 215.027 388.07 214.308 388.07ZM214.308 387.188C214.84 387.188 215.311 387.071 215.722 386.838C216.133 386.595 216.455 386.259 216.688 385.83C216.931 385.391 217.052 384.887 217.052 384.318C217.052 383.739 216.931 383.235 216.688 382.806C216.455 382.377 216.133 382.045 215.722 381.812C215.311 381.569 214.845 381.448 214.322 381.448C213.799 381.448 213.333 381.569 212.922 381.812C212.511 382.045 212.185 382.377 211.942 382.806C211.699 383.235 211.578 383.739 211.578 384.318C211.578 384.887 211.699 385.391 211.942 385.83C212.185 386.259 212.511 386.595 212.922 386.838C213.333 387.071 213.795 387.188 214.308 387.188ZM223.265 388.07C222.537 388.07 221.883 387.911 221.305 387.594C220.735 387.267 220.287 386.824 219.961 386.264C219.634 385.695 219.471 385.046 219.471 384.318C219.471 383.581 219.634 382.932 219.961 382.372C220.287 381.812 220.735 381.373 221.305 381.056C221.883 380.739 222.537 380.58 223.265 380.58C223.89 380.58 224.455 380.701 224.959 380.944C225.463 381.187 225.859 381.551 226.149 382.036L225.407 382.54C225.155 382.167 224.842 381.891 224.469 381.714C224.095 381.537 223.689 381.448 223.251 381.448C222.728 381.448 222.257 381.569 221.837 381.812C221.417 382.045 221.085 382.377 220.843 382.806C220.6 383.235 220.479 383.739 220.479 384.318C220.479 384.897 220.6 385.401 220.843 385.83C221.085 386.259 221.417 386.595 221.837 386.838C222.257 387.071 222.728 387.188 223.251 387.188C223.689 387.188 224.095 387.099 224.469 386.922C224.842 386.745 225.155 386.474 225.407 386.11L226.149 386.614C225.859 387.09 225.463 387.454 224.959 387.706C224.455 387.949 223.89 388.07 223.265 388.07ZM228.073 388V380.65H229.081L232.413 386.292H231.993L235.381 380.65H236.305V388H235.395V381.784L235.577 381.868L232.413 387.104H231.965L228.773 381.812L228.983 381.77V388H228.073ZM243.698 388V386.376L243.656 386.11V383.394C243.656 382.769 243.478 382.288 243.124 381.952C242.778 381.616 242.26 381.448 241.57 381.448C241.094 381.448 240.641 381.527 240.212 381.686C239.782 381.845 239.418 382.055 239.12 382.316L238.672 381.574C239.045 381.257 239.493 381.014 240.016 380.846C240.538 380.669 241.089 380.58 241.668 380.58C242.62 380.58 243.352 380.818 243.866 381.294C244.388 381.761 244.65 382.475 244.65 383.436V388H243.698ZM241.164 388.07C240.613 388.07 240.132 387.981 239.722 387.804C239.32 387.617 239.012 387.365 238.798 387.048C238.583 386.721 238.476 386.348 238.476 385.928C238.476 385.545 238.564 385.2 238.742 384.892C238.928 384.575 239.227 384.323 239.638 384.136C240.058 383.94 240.618 383.842 241.318 383.842H243.852V384.584H241.346C240.636 384.584 240.142 384.71 239.862 384.962C239.591 385.214 239.456 385.527 239.456 385.9C239.456 386.32 239.619 386.656 239.946 386.908C240.272 387.16 240.73 387.286 241.318 387.286C241.878 387.286 242.358 387.16 242.76 386.908C243.17 386.647 243.469 386.273 243.656 385.788L243.88 386.474C243.693 386.959 243.366 387.347 242.9 387.636C242.442 387.925 241.864 388.07 241.164 388.07ZM248.696 388V381.252L248.948 381.518H245.91V380.65H252.476V381.518H249.438L249.69 381.252V388H248.696ZM257.707 388.07C257.072 388.07 256.498 387.925 255.985 387.636C255.472 387.337 255.061 386.913 254.753 386.362C254.454 385.802 254.305 385.121 254.305 384.318C254.305 383.515 254.454 382.839 254.753 382.288C255.052 381.728 255.458 381.303 255.971 381.014C256.484 380.725 257.063 380.58 257.707 380.58C258.407 380.58 259.032 380.739 259.583 381.056C260.143 381.364 260.582 381.803 260.899 382.372C261.216 382.932 261.375 383.581 261.375 384.318C261.375 385.065 261.216 385.718 260.899 386.278C260.582 386.838 260.143 387.277 259.583 387.594C259.032 387.911 258.407 388.07 257.707 388.07ZM253.913 390.716V380.65H254.865V382.862L254.767 384.332L254.907 385.816V390.716H253.913ZM257.637 387.188C258.16 387.188 258.626 387.071 259.037 386.838C259.448 386.595 259.774 386.259 260.017 385.83C260.26 385.391 260.381 384.887 260.381 384.318C260.381 383.749 260.26 383.249 260.017 382.82C259.774 382.391 259.448 382.055 259.037 381.812C258.626 381.569 258.16 381.448 257.637 381.448C257.114 381.448 256.643 381.569 256.223 381.812C255.812 382.055 255.486 382.391 255.243 382.82C255.01 383.249 254.893 383.749 254.893 384.318C254.893 384.887 255.01 385.391 255.243 385.83C255.486 386.259 255.812 386.595 256.223 386.838C256.643 387.071 257.114 387.188 257.637 387.188ZM263.511 388V380.65H264.505V386.488L269.419 380.65H270.301V388H269.307V382.148L264.407 388H263.511ZM273.149 388V380.65H276.397C277.228 380.65 277.881 380.809 278.357 381.126C278.843 381.443 279.085 381.91 279.085 382.526C279.085 383.123 278.857 383.585 278.399 383.912C277.942 384.229 277.34 384.388 276.593 384.388L276.789 384.094C277.667 384.094 278.311 384.257 278.721 384.584C279.132 384.911 279.337 385.382 279.337 385.998C279.337 386.633 279.104 387.127 278.637 387.482C278.18 387.827 277.466 388 276.495 388H273.149ZM274.115 387.216H276.453C277.079 387.216 277.55 387.118 277.867 386.922C278.194 386.717 278.357 386.39 278.357 385.942C278.357 385.494 278.213 385.167 277.923 384.962C277.634 384.757 277.177 384.654 276.551 384.654H274.115V387.216ZM274.115 383.912H276.327C276.897 383.912 277.331 383.805 277.629 383.59C277.937 383.375 278.091 383.063 278.091 382.652C278.091 382.241 277.937 381.933 277.629 381.728C277.331 381.523 276.897 381.42 276.327 381.42H274.115V383.912ZM286.231 388V386.376L286.189 386.11V383.394C286.189 382.769 286.012 382.288 285.657 381.952C285.312 381.616 284.794 381.448 284.103 381.448C283.627 381.448 283.174 381.527 282.745 381.686C282.316 381.845 281.952 382.055 281.653 382.316L281.205 381.574C281.578 381.257 282.026 381.014 282.549 380.846C283.072 380.669 283.622 380.58 284.201 380.58C285.153 380.58 285.886 380.818 286.399 381.294C286.922 381.761 287.183 382.475 287.183 383.436V388H286.231ZM283.697 388.07C283.146 388.07 282.666 387.981 282.255 387.804C281.854 387.617 281.546 387.365 281.331 387.048C281.116 386.721 281.009 386.348 281.009 385.928C281.009 385.545 281.098 385.2 281.275 384.892C281.462 384.575 281.76 384.323 282.171 384.136C282.591 383.94 283.151 383.842 283.851 383.842H286.385V384.584H283.879C283.17 384.584 282.675 384.71 282.395 384.962C282.124 385.214 281.989 385.527 281.989 385.9C281.989 386.32 282.152 386.656 282.479 386.908C282.806 387.16 283.263 387.286 283.851 387.286C284.411 387.286 284.892 387.16 285.293 386.908C285.704 386.647 286.002 386.273 286.189 385.788L286.413 386.474C286.226 386.959 285.9 387.347 285.433 387.636C284.976 387.925 284.397 388.07 283.697 388.07ZM292.979 388.07C292.214 388.07 291.542 387.911 290.963 387.594C290.384 387.267 289.932 386.824 289.605 386.264C289.278 385.695 289.115 385.046 289.115 384.318C289.115 383.59 289.269 382.946 289.577 382.386C289.894 381.826 290.324 381.387 290.865 381.07C291.416 380.743 292.032 380.58 292.713 380.58C293.404 380.58 294.015 380.739 294.547 381.056C295.088 381.364 295.513 381.803 295.821 382.372C296.129 382.932 296.283 383.581 296.283 384.318C296.283 384.365 296.278 384.416 296.269 384.472C296.269 384.519 296.269 384.57 296.269 384.626H289.871V383.884H295.737L295.345 384.178C295.345 383.646 295.228 383.175 294.995 382.764C294.771 382.344 294.463 382.017 294.071 381.784C293.679 381.551 293.226 381.434 292.713 381.434C292.209 381.434 291.756 381.551 291.355 381.784C290.954 382.017 290.641 382.344 290.417 382.764C290.193 383.184 290.081 383.665 290.081 384.206V384.36C290.081 384.92 290.202 385.415 290.445 385.844C290.697 386.264 291.042 386.595 291.481 386.838C291.929 387.071 292.438 387.188 293.007 387.188C293.455 387.188 293.87 387.109 294.253 386.95C294.645 386.791 294.981 386.549 295.261 386.222L295.821 386.866C295.494 387.258 295.084 387.557 294.589 387.762C294.104 387.967 293.567 388.07 292.979 388.07ZM298.483 388V380.65H299.491L302.823 386.292H302.403L305.791 380.65H306.715V388H305.805V381.784L305.987 381.868L302.823 387.104H302.375L299.183 381.812L299.393 381.77V388H298.483ZM232.007 404L228.983 400.36L229.809 399.87L233.183 404H232.007ZM226.617 404V396.65H227.611V404H226.617ZM227.303 400.724V399.87H229.669V400.724H227.303ZM229.893 400.43L228.969 400.29L231.895 396.65H232.973L229.893 400.43ZM234.752 404V396.65H238C238.831 396.65 239.484 396.809 239.96 397.126C240.445 397.443 240.688 397.91 240.688 398.526C240.688 399.123 240.459 399.585 240.002 399.912C239.545 400.229 238.943 400.388 238.196 400.388L238.392 400.094C239.269 400.094 239.913 400.257 240.324 400.584C240.735 400.911 240.94 401.382 240.94 401.998C240.94 402.633 240.707 403.127 240.24 403.482C239.783 403.827 239.069 404 238.098 404H234.752ZM235.718 403.216H238.056C238.681 403.216 239.153 403.118 239.47 402.922C239.797 402.717 239.96 402.39 239.96 401.942C239.96 401.494 239.815 401.167 239.526 400.962C239.237 400.757 238.779 400.654 238.154 400.654H235.718V403.216ZM235.718 399.912H237.93C238.499 399.912 238.933 399.805 239.232 399.59C239.54 399.375 239.694 399.063 239.694 398.652C239.694 398.241 239.54 397.933 239.232 397.728C238.933 397.523 238.499 397.42 237.93 397.42H235.718V399.912ZM247.833 404V402.376L247.791 402.11V399.394C247.791 398.769 247.614 398.288 247.259 397.952C246.914 397.616 246.396 397.448 245.705 397.448C245.229 397.448 244.777 397.527 244.347 397.686C243.918 397.845 243.554 398.055 243.255 398.316L242.807 397.574C243.181 397.257 243.629 397.014 244.151 396.846C244.674 396.669 245.225 396.58 245.803 396.58C246.755 396.58 247.488 396.818 248.001 397.294C248.524 397.761 248.785 398.475 248.785 399.436V404H247.833ZM245.299 404.07C244.749 404.07 244.268 403.981 243.857 403.804C243.456 403.617 243.148 403.365 242.933 403.048C242.719 402.721 242.611 402.348 242.611 401.928C242.611 401.545 242.7 401.2 242.877 400.892C243.064 400.575 243.363 400.323 243.773 400.136C244.193 399.94 244.753 399.842 245.453 399.842H247.987V400.584H245.481C244.772 400.584 244.277 400.71 243.997 400.962C243.727 401.214 243.591 401.527 243.591 401.9C243.591 402.32 243.755 402.656 244.081 402.908C244.408 403.16 244.865 403.286 245.453 403.286C246.013 403.286 246.494 403.16 246.895 402.908C247.306 402.647 247.605 402.273 247.791 401.788L248.015 402.474C247.829 402.959 247.502 403.347 247.035 403.636C246.578 403.925 245.999 404.07 245.299 404.07ZM255.226 404.07C254.591 404.07 254.017 403.925 253.504 403.636C252.99 403.337 252.58 402.913 252.272 402.362C251.973 401.802 251.824 401.121 251.824 400.318C251.824 399.515 251.973 398.839 252.272 398.288C252.57 397.728 252.976 397.303 253.49 397.014C254.003 396.725 254.582 396.58 255.226 396.58C255.926 396.58 256.551 396.739 257.102 397.056C257.662 397.364 258.1 397.803 258.418 398.372C258.735 398.932 258.894 399.581 258.894 400.318C258.894 401.065 258.735 401.718 258.418 402.278C258.1 402.838 257.662 403.277 257.102 403.594C256.551 403.911 255.926 404.07 255.226 404.07ZM251.432 406.716V396.65H252.384V398.862L252.286 400.332L252.426 401.816V406.716H251.432ZM255.156 403.188C255.678 403.188 256.145 403.071 256.556 402.838C256.966 402.595 257.293 402.259 257.536 401.83C257.778 401.391 257.9 400.887 257.9 400.318C257.9 399.749 257.778 399.249 257.536 398.82C257.293 398.391 256.966 398.055 256.556 397.812C256.145 397.569 255.678 397.448 255.156 397.448C254.633 397.448 254.162 397.569 253.742 397.812C253.331 398.055 253.004 398.391 252.762 398.82C252.528 399.249 252.412 399.749 252.412 400.318C252.412 400.887 252.528 401.391 252.762 401.83C253.004 402.259 253.331 402.595 253.742 402.838C254.162 403.071 254.633 403.188 255.156 403.188ZM262.156 404V397.252L262.408 397.518H259.37V396.65H265.936V397.518H262.898L263.15 397.252V404H262.156ZM267.373 404V396.65H268.367V402.488L273.281 396.65H274.163V404H273.169V398.148L268.269 404H267.373ZM280.806 404.07C280.171 404.07 279.597 403.925 279.084 403.636C278.57 403.337 278.16 402.913 277.852 402.362C277.553 401.802 277.404 401.121 277.404 400.318C277.404 399.515 277.553 398.839 277.852 398.288C278.15 397.728 278.556 397.303 279.07 397.014C279.583 396.725 280.162 396.58 280.806 396.58C281.506 396.58 282.131 396.739 282.682 397.056C283.242 397.364 283.68 397.803 283.998 398.372C284.315 398.932 284.474 399.581 284.474 400.318C284.474 401.065 284.315 401.718 283.998 402.278C283.68 402.838 283.242 403.277 282.682 403.594C282.131 403.911 281.506 404.07 280.806 404.07ZM277.012 406.716V396.65H277.964V398.862L277.866 400.332L278.006 401.816V406.716H277.012ZM280.736 403.188C281.258 403.188 281.725 403.071 282.136 402.838C282.546 402.595 282.873 402.259 283.116 401.83C283.358 401.391 283.48 400.887 283.48 400.318C283.48 399.749 283.358 399.249 283.116 398.82C282.873 398.391 282.546 398.055 282.136 397.812C281.725 397.569 281.258 397.448 280.736 397.448C280.213 397.448 279.742 397.569 279.322 397.812C278.911 398.055 278.584 398.391 278.342 398.82C278.108 399.249 277.992 399.749 277.992 400.318C277.992 400.887 278.108 401.391 278.342 401.83C278.584 402.259 278.911 402.595 279.322 402.838C279.742 403.071 280.213 403.188 280.736 403.188ZM286.53 406.786C286.185 406.786 285.854 406.73 285.536 406.618C285.228 406.506 284.962 406.338 284.738 406.114L285.2 405.372C285.387 405.549 285.588 405.685 285.802 405.778C286.026 405.881 286.274 405.932 286.544 405.932C286.871 405.932 287.151 405.839 287.384 405.652C287.627 405.475 287.856 405.157 288.07 404.7L288.546 403.622L288.658 403.468L291.682 396.65H292.662L288.98 404.882C288.775 405.358 288.546 405.736 288.294 406.016C288.052 406.296 287.786 406.492 287.496 406.604C287.207 406.725 286.885 406.786 286.53 406.786ZM288.49 404.21L285.102 396.65H286.138L289.134 403.398L288.49 404.21ZM193.504 420V412.65H194.498V418.488L199.412 412.65H200.294V420H199.3V414.148L194.4 420H193.504ZM206.807 420V412.65H213.415V420H212.421V413.252L212.673 413.518H207.549L207.801 413.252V420H206.807ZM219.264 420.07C218.555 420.07 217.916 419.911 217.346 419.594C216.786 419.267 216.343 418.824 216.016 418.264C215.69 417.695 215.526 417.046 215.526 416.318C215.526 415.581 215.69 414.932 216.016 414.372C216.343 413.812 216.786 413.373 217.346 413.056C217.906 412.739 218.546 412.58 219.264 412.58C219.992 412.58 220.636 412.739 221.196 413.056C221.766 413.373 222.209 413.812 222.526 414.372C222.853 414.932 223.016 415.581 223.016 416.318C223.016 417.046 222.853 417.695 222.526 418.264C222.209 418.824 221.766 419.267 221.196 419.594C220.627 419.911 219.983 420.07 219.264 420.07ZM219.264 419.188C219.796 419.188 220.268 419.071 220.678 418.838C221.089 418.595 221.411 418.259 221.644 417.83C221.887 417.391 222.008 416.887 222.008 416.318C222.008 415.739 221.887 415.235 221.644 414.806C221.411 414.377 221.089 414.045 220.678 413.812C220.268 413.569 219.801 413.448 219.278 413.448C218.756 413.448 218.289 413.569 217.878 413.812C217.468 414.045 217.141 414.377 216.898 414.806C216.656 415.235 216.534 415.739 216.534 416.318C216.534 416.887 216.656 417.391 216.898 417.83C217.141 418.259 217.468 418.595 217.878 418.838C218.289 419.071 218.751 419.188 219.264 419.188ZM230.14 419.524V413.518H226.598L226.514 415.156C226.495 415.651 226.462 416.136 226.416 416.612C226.378 417.088 226.308 417.527 226.206 417.928C226.112 418.32 225.977 418.642 225.8 418.894C225.622 419.137 225.394 419.277 225.114 419.314L224.12 419.132C224.409 419.141 224.647 419.039 224.834 418.824C225.02 418.6 225.165 418.297 225.268 417.914C225.37 417.531 225.445 417.097 225.492 416.612C225.538 416.117 225.576 415.613 225.604 415.1L225.702 412.65H231.134V419.524H230.14ZM223.812 421.778V419.132H232.282V421.778H231.344V420H224.75V421.778H223.812ZM234.219 420V412.65H239.427V413.518H234.961L235.213 413.266V420H234.219ZM243.545 420.07C242.836 420.07 242.197 419.911 241.627 419.594C241.067 419.267 240.624 418.824 240.297 418.264C239.971 417.695 239.807 417.046 239.807 416.318C239.807 415.581 239.971 414.932 240.297 414.372C240.624 413.812 241.067 413.373 241.627 413.056C242.187 412.739 242.827 412.58 243.545 412.58C244.273 412.58 244.917 412.739 245.477 413.056C246.047 413.373 246.49 413.812 246.807 414.372C247.134 414.932 247.297 415.581 247.297 416.318C247.297 417.046 247.134 417.695 246.807 418.264C246.49 418.824 246.047 419.267 245.477 419.594C244.908 419.911 244.264 420.07 243.545 420.07ZM243.545 419.188C244.077 419.188 244.549 419.071 244.959 418.838C245.37 418.595 245.692 418.259 245.925 417.83C246.168 417.391 246.289 416.887 246.289 416.318C246.289 415.739 246.168 415.235 245.925 414.806C245.692 414.377 245.37 414.045 244.959 413.812C244.549 413.569 244.082 413.448 243.559 413.448C243.037 413.448 242.57 413.569 242.159 413.812C241.749 414.045 241.422 414.377 241.179 414.806C240.937 415.235 240.815 415.739 240.815 416.318C240.815 416.887 240.937 417.391 241.179 417.83C241.422 418.259 241.749 418.595 242.159 418.838C242.57 419.071 243.032 419.188 243.545 419.188ZM250.548 420V413.252L250.8 413.518H247.762V412.65H254.328V413.518H251.29L251.542 413.252V420H250.548ZM260.33 420V418.376L260.288 418.11V415.394C260.288 414.769 260.11 414.288 259.756 413.952C259.41 413.616 258.892 413.448 258.202 413.448C257.726 413.448 257.273 413.527 256.844 413.686C256.414 413.845 256.05 414.055 255.752 414.316L255.304 413.574C255.677 413.257 256.125 413.014 256.648 412.846C257.17 412.669 257.721 412.58 258.3 412.58C259.252 412.58 259.984 412.818 260.498 413.294C261.02 413.761 261.282 414.475 261.282 415.436V420H260.33ZM257.796 420.07C257.245 420.07 256.764 419.981 256.354 419.804C255.952 419.617 255.644 419.365 255.43 419.048C255.215 418.721 255.108 418.348 255.108 417.928C255.108 417.545 255.196 417.2 255.374 416.892C255.56 416.575 255.859 416.323 256.27 416.136C256.69 415.94 257.25 415.842 257.95 415.842H260.484V416.584H257.978C257.268 416.584 256.774 416.71 256.494 416.962C256.223 417.214 256.088 417.527 256.088 417.9C256.088 418.32 256.251 418.656 256.578 418.908C256.904 419.16 257.362 419.286 257.95 419.286C258.51 419.286 258.99 419.16 259.392 418.908C259.802 418.647 260.101 418.273 260.288 417.788L260.512 418.474C260.325 418.959 259.998 419.347 259.532 419.636C259.074 419.925 258.496 420.07 257.796 420.07ZM263.928 420V412.65H267.176C268.006 412.65 268.66 412.809 269.136 413.126C269.621 413.443 269.864 413.91 269.864 414.526C269.864 415.123 269.635 415.585 269.178 415.912C268.72 416.229 268.118 416.388 267.372 416.388L267.568 416.094C268.445 416.094 269.089 416.257 269.5 416.584C269.91 416.911 270.116 417.382 270.116 417.998C270.116 418.633 269.882 419.127 269.416 419.482C268.958 419.827 268.244 420 267.274 420H263.928ZM264.894 419.216H267.232C267.857 419.216 268.328 419.118 268.646 418.922C268.972 418.717 269.136 418.39 269.136 417.942C269.136 417.494 268.991 417.167 268.702 416.962C268.412 416.757 267.955 416.654 267.33 416.654H264.894V419.216ZM264.894 415.912H267.106C267.675 415.912 268.109 415.805 268.408 415.59C268.716 415.375 268.87 415.063 268.87 414.652C268.87 414.241 268.716 413.933 268.408 413.728C268.109 413.523 267.675 413.42 267.106 413.42H264.894V415.912ZM271.101 419.986L271.171 419.132C271.237 419.141 271.297 419.155 271.353 419.174C271.419 419.183 271.475 419.188 271.521 419.188C271.82 419.188 272.058 419.076 272.235 418.852C272.422 418.628 272.562 418.329 272.655 417.956C272.749 417.583 272.814 417.163 272.851 416.696C272.889 416.22 272.921 415.744 272.949 415.268L273.075 412.65H278.465V420H277.471V413.224L277.723 413.518H273.719L273.957 413.21L273.845 415.338C273.817 415.973 273.766 416.579 273.691 417.158C273.626 417.737 273.519 418.245 273.369 418.684C273.229 419.123 273.033 419.468 272.781 419.72C272.529 419.963 272.207 420.084 271.815 420.084C271.703 420.084 271.587 420.075 271.465 420.056C271.353 420.037 271.232 420.014 271.101 419.986ZM281.291 420V412.65H282.285V418.488L287.199 412.65H288.081V420H287.087V414.148L282.187 420H281.291ZM290.93 420V412.65H294.178C295.008 412.65 295.662 412.809 296.138 413.126C296.623 413.443 296.866 413.91 296.866 414.526C296.866 415.123 296.637 415.585 296.18 415.912C295.722 416.229 295.12 416.388 294.374 416.388L294.57 416.094C295.447 416.094 296.091 416.257 296.502 416.584C296.912 416.911 297.118 417.382 297.118 417.998C297.118 418.633 296.884 419.127 296.418 419.482C295.96 419.827 295.246 420 294.276 420H290.93ZM291.896 419.216H294.234C294.859 419.216 295.33 419.118 295.648 418.922C295.974 418.717 296.138 418.39 296.138 417.942C296.138 417.494 295.993 417.167 295.704 416.962C295.414 416.757 294.957 416.654 294.332 416.654H291.896V419.216ZM291.896 415.912H294.108C294.677 415.912 295.111 415.805 295.41 415.59C295.718 415.375 295.872 415.063 295.872 414.652C295.872 414.241 295.718 413.933 295.41 413.728C295.111 413.523 294.677 413.42 294.108 413.42H291.896V415.912ZM304.011 420V418.376L303.969 418.11V415.394C303.969 414.769 303.792 414.288 303.437 413.952C303.092 413.616 302.574 413.448 301.883 413.448C301.407 413.448 300.955 413.527 300.525 413.686C300.096 413.845 299.732 414.055 299.433 414.316L298.985 413.574C299.359 413.257 299.807 413.014 300.329 412.846C300.852 412.669 301.403 412.58 301.981 412.58C302.933 412.58 303.666 412.818 304.179 413.294C304.702 413.761 304.963 414.475 304.963 415.436V420H304.011ZM301.477 420.07C300.927 420.07 300.446 419.981 300.035 419.804C299.634 419.617 299.326 419.365 299.111 419.048C298.897 418.721 298.789 418.348 298.789 417.928C298.789 417.545 298.878 417.2 299.055 416.892C299.242 416.575 299.541 416.323 299.951 416.136C300.371 415.94 300.931 415.842 301.631 415.842H304.165V416.584H301.659C300.95 416.584 300.455 416.71 300.175 416.962C299.905 417.214 299.769 417.527 299.769 417.9C299.769 418.32 299.933 418.656 300.259 418.908C300.586 419.16 301.043 419.286 301.631 419.286C302.191 419.286 302.672 419.16 303.073 418.908C303.484 418.647 303.783 418.273 303.969 417.788L304.193 418.474C304.007 418.959 303.68 419.347 303.213 419.636C302.756 419.925 302.177 420.07 301.477 420.07ZM310.759 420.07C309.994 420.07 309.322 419.911 308.743 419.594C308.165 419.267 307.712 418.824 307.385 418.264C307.059 417.695 306.895 417.046 306.895 416.318C306.895 415.59 307.049 414.946 307.357 414.386C307.675 413.826 308.104 413.387 308.645 413.07C309.196 412.743 309.812 412.58 310.493 412.58C311.184 412.58 311.795 412.739 312.327 413.056C312.869 413.364 313.293 413.803 313.601 414.372C313.909 414.932 314.063 415.581 314.063 416.318C314.063 416.365 314.059 416.416 314.049 416.472C314.049 416.519 314.049 416.57 314.049 416.626H307.651V415.884H313.517L313.125 416.178C313.125 415.646 313.009 415.175 312.775 414.764C312.551 414.344 312.243 414.017 311.851 413.784C311.459 413.551 311.007 413.434 310.493 413.434C309.989 413.434 309.537 413.551 309.135 413.784C308.734 414.017 308.421 414.344 308.197 414.764C307.973 415.184 307.861 415.665 307.861 416.206V416.36C307.861 416.92 307.983 417.415 308.225 417.844C308.477 418.264 308.823 418.595 309.261 418.838C309.709 419.071 310.218 419.188 310.787 419.188C311.235 419.188 311.651 419.109 312.033 418.95C312.425 418.791 312.761 418.549 313.041 418.222L313.601 418.866C313.275 419.258 312.864 419.557 312.369 419.762C311.884 419.967 311.347 420.07 310.759 420.07ZM316.264 420V412.65H317.272L320.604 418.292H320.184L323.572 412.65H324.496V420H323.586V413.784L323.768 413.868L320.604 419.104H320.156L316.964 413.812L317.174 413.77V420H316.264ZM221.358 436V434.376L221.316 434.11V431.394C221.316 430.769 221.139 430.288 220.784 429.952C220.439 429.616 219.921 429.448 219.23 429.448C218.754 429.448 218.301 429.527 217.872 429.686C217.443 429.845 217.079 430.055 216.78 430.316L216.332 429.574C216.705 429.257 217.153 429.014 217.676 428.846C218.199 428.669 218.749 428.58 219.328 428.58C220.28 428.58 221.013 428.818 221.526 429.294C222.049 429.761 222.31 430.475 222.31 431.436V436H221.358ZM218.824 436.07C218.273 436.07 217.793 435.981 217.382 435.804C216.981 435.617 216.673 435.365 216.458 435.048C216.243 434.721 216.136 434.348 216.136 433.928C216.136 433.545 216.225 433.2 216.402 432.892C216.589 432.575 216.887 432.323 217.298 432.136C217.718 431.94 218.278 431.842 218.978 431.842H221.512V432.584H219.006C218.297 432.584 217.802 432.71 217.522 432.962C217.251 433.214 217.116 433.527 217.116 433.9C217.116 434.32 217.279 434.656 217.606 434.908C217.933 435.16 218.39 435.286 218.978 435.286C219.538 435.286 220.019 435.16 220.42 434.908C220.831 434.647 221.129 434.273 221.316 433.788L221.54 434.474C221.353 434.959 221.027 435.347 220.56 435.636C220.103 435.925 219.524 436.07 218.824 436.07ZM230.346 436L227.322 432.36L228.148 431.87L231.522 436H230.346ZM224.956 436V428.65H225.95V436H224.956ZM225.642 432.724V431.87H228.008V432.724H225.642ZM228.232 432.43L227.308 432.29L230.234 428.65H231.312L228.232 432.43ZM234.34 436V429.252L234.592 429.518H231.554V428.65H238.12V429.518H235.082L235.334 429.252V436H234.34ZM246.246 436.07C245.536 436.07 244.897 435.911 244.328 435.594C243.768 435.267 243.324 434.824 242.998 434.264C242.671 433.695 242.508 433.046 242.508 432.318C242.508 431.581 242.671 430.932 242.998 430.372C243.324 429.812 243.768 429.373 244.328 429.056C244.888 428.739 245.527 428.58 246.246 428.58C246.974 428.58 247.618 428.739 248.178 429.056C248.747 429.373 249.19 429.812 249.508 430.372C249.834 430.932 249.998 431.581 249.998 432.318C249.998 433.046 249.834 433.695 249.508 434.264C249.19 434.824 248.747 435.267 248.178 435.594C247.608 435.911 246.964 436.07 246.246 436.07ZM246.246 435.188C246.778 435.188 247.249 435.071 247.66 434.838C248.07 434.595 248.392 434.259 248.626 433.83C248.868 433.391 248.99 432.887 248.99 432.318C248.99 431.739 248.868 431.235 248.626 430.806C248.392 430.377 248.07 430.045 247.66 429.812C247.249 429.569 246.782 429.448 246.26 429.448C245.737 429.448 245.27 429.569 244.86 429.812C244.449 430.045 244.122 430.377 243.88 430.806C243.637 431.235 243.516 431.739 243.516 432.318C243.516 432.887 243.637 433.391 243.88 433.83C244.122 434.259 244.449 434.595 244.86 434.838C245.27 435.071 245.732 435.188 246.246 435.188ZM255.202 436.07C254.474 436.07 253.821 435.911 253.242 435.594C252.673 435.267 252.225 434.824 251.898 434.264C251.571 433.695 251.408 433.046 251.408 432.318C251.408 431.581 251.571 430.932 251.898 430.372C252.225 429.812 252.673 429.373 253.242 429.056C253.821 428.739 254.474 428.58 255.202 428.58C255.827 428.58 256.392 428.701 256.896 428.944C257.4 429.187 257.797 429.551 258.086 430.036L257.344 430.54C257.092 430.167 256.779 429.891 256.406 429.714C256.033 429.537 255.627 429.448 255.188 429.448C254.665 429.448 254.194 429.569 253.774 429.812C253.354 430.045 253.023 430.377 252.78 430.806C252.537 431.235 252.416 431.739 252.416 432.318C252.416 432.897 252.537 433.401 252.78 433.83C253.023 434.259 253.354 434.595 253.774 434.838C254.194 435.071 254.665 435.188 255.188 435.188C255.627 435.188 256.033 435.099 256.406 434.922C256.779 434.745 257.092 434.474 257.344 434.11L258.086 434.614C257.797 435.09 257.4 435.454 256.896 435.706C256.392 435.949 255.827 436.07 255.202 436.07ZM260.011 436V428.65H261.019L264.351 434.292H263.931L267.319 428.65H268.243V436H267.333V429.784L267.515 429.868L264.351 435.104H263.903L260.711 429.812L260.921 429.77V436H260.011ZM274.095 436.07C273.386 436.07 272.747 435.911 272.177 435.594C271.617 435.267 271.174 434.824 270.847 434.264C270.521 433.695 270.357 433.046 270.357 432.318C270.357 431.581 270.521 430.932 270.847 430.372C271.174 429.812 271.617 429.373 272.177 429.056C272.737 428.739 273.377 428.58 274.095 428.58C274.823 428.58 275.467 428.739 276.027 429.056C276.597 429.373 277.04 429.812 277.357 430.372C277.684 430.932 277.847 431.581 277.847 432.318C277.847 433.046 277.684 433.695 277.357 434.264C277.04 434.824 276.597 435.267 276.027 435.594C275.458 435.911 274.814 436.07 274.095 436.07ZM274.095 435.188C274.627 435.188 275.099 435.071 275.509 434.838C275.92 434.595 276.242 434.259 276.475 433.83C276.718 433.391 276.839 432.887 276.839 432.318C276.839 431.739 276.718 431.235 276.475 430.806C276.242 430.377 275.92 430.045 275.509 429.812C275.099 429.569 274.632 429.448 274.109 429.448C273.587 429.448 273.12 429.569 272.709 429.812C272.299 430.045 271.972 430.377 271.729 430.806C271.487 431.235 271.365 431.739 271.365 432.318C271.365 432.887 271.487 433.391 271.729 433.83C271.972 434.259 272.299 434.595 272.709 434.838C273.12 435.071 273.582 435.188 274.095 435.188ZM281.098 436V429.252L281.35 429.518H278.312V428.65H284.878V429.518H281.84L282.092 429.252V436H281.098ZM290.109 436.07C289.475 436.07 288.901 435.925 288.387 435.636C287.874 435.337 287.463 434.913 287.155 434.362C286.857 433.802 286.707 433.121 286.707 432.318C286.707 431.515 286.857 430.839 287.155 430.288C287.454 429.728 287.86 429.303 288.373 429.014C288.887 428.725 289.465 428.58 290.109 428.58C290.809 428.58 291.435 428.739 291.985 429.056C292.545 429.364 292.984 429.803 293.301 430.372C293.619 430.932 293.777 431.581 293.777 432.318C293.777 433.065 293.619 433.718 293.301 434.278C292.984 434.838 292.545 435.277 291.985 435.594C291.435 435.911 290.809 436.07 290.109 436.07ZM286.315 438.716V428.65H287.267V430.862L287.169 432.332L287.309 433.816V438.716H286.315ZM290.039 435.188C290.562 435.188 291.029 435.071 291.439 434.838C291.85 434.595 292.177 434.259 292.419 433.83C292.662 433.391 292.783 432.887 292.783 432.318C292.783 431.749 292.662 431.249 292.419 430.82C292.177 430.391 291.85 430.055 291.439 429.812C291.029 429.569 290.562 429.448 290.039 429.448C289.517 429.448 289.045 429.569 288.625 429.812C288.215 430.055 287.888 430.391 287.645 430.82C287.412 431.249 287.295 431.749 287.295 432.318C287.295 432.887 287.412 433.391 287.645 433.83C287.888 434.259 288.215 434.595 288.625 434.838C289.045 435.071 289.517 435.188 290.039 435.188ZM300.436 436V434.376L300.394 434.11V431.394C300.394 430.769 300.217 430.288 299.862 429.952C299.517 429.616 298.999 429.448 298.308 429.448C297.832 429.448 297.379 429.527 296.95 429.686C296.521 429.845 296.157 430.055 295.858 430.316L295.41 429.574C295.783 429.257 296.231 429.014 296.754 428.846C297.277 428.669 297.827 428.58 298.406 428.58C299.358 428.58 300.091 428.818 300.604 429.294C301.127 429.761 301.388 430.475 301.388 431.436V436H300.436ZM297.902 436.07C297.351 436.07 296.871 435.981 296.46 435.804C296.059 435.617 295.751 435.365 295.536 435.048C295.321 434.721 295.214 434.348 295.214 433.928C295.214 433.545 295.303 433.2 295.48 432.892C295.667 432.575 295.965 432.323 296.376 432.136C296.796 431.94 297.356 431.842 298.056 431.842H300.59V432.584H298.084C297.375 432.584 296.88 432.71 296.6 432.962C296.329 433.214 296.194 433.527 296.194 433.9C296.194 434.32 296.357 434.656 296.684 434.908C297.011 435.16 297.468 435.286 298.056 435.286C298.616 435.286 299.097 435.16 299.498 434.908C299.909 434.647 300.207 434.273 300.394 433.788L300.618 434.474C300.431 434.959 300.105 435.347 299.638 435.636C299.181 435.925 298.602 436.07 297.902 436.07Z" fill="#232226"/>
</g>
<path d="M8 454L2.2265 444H13.7735L8 454ZM16 396H24V398H16V396ZM7 445V405H9V445H7ZM16 398C12.134 398 9 401.134 9 405H7C7 400.029 11.0294 396 16 396V398Z" fill="#8A8A8C"/>
<path d="M148 454L153.774 444H142.226L148 454ZM140 396H132V398H140V396ZM149 445V405H147V445H149ZM140 398C143.866 398 147 401.134 147 405H149C149 400.029 144.971 396 140 396V398Z" fill="#8A8A8C"/>
<g filter="url(#filter4_d_6712_6552)">
<rect x="78" y="340" width="80" height="80" rx="8" transform="rotate(45 78 340)" fill="white"/>
</g>
<path d="M49.5875 392L45.8215 387.114L46.6615 386.61L50.7775 392H49.5875ZM42.8815 392V382.2H43.8895V392H42.8815ZM43.5815 387.506V386.596H46.6475V387.506H43.5815ZM46.7455 387.212L45.7935 387.044L49.4475 382.2H50.5675L46.7455 387.212ZM56.8188 392V390.376L56.7768 390.11V387.394C56.7768 386.769 56.5995 386.288 56.2448 385.952C55.8995 385.616 55.3815 385.448 54.6908 385.448C54.2148 385.448 53.7622 385.527 53.3328 385.686C52.9035 385.845 52.5395 386.055 52.2408 386.316L51.7928 385.574C52.1662 385.257 52.6142 385.014 53.1368 384.846C53.6595 384.669 54.2102 384.58 54.7888 384.58C55.7408 384.58 56.4735 384.818 56.9868 385.294C57.5095 385.761 57.7708 386.475 57.7708 387.436V392H56.8188ZM54.2848 392.07C53.7342 392.07 53.2535 391.981 52.8428 391.804C52.4415 391.617 52.1335 391.365 51.9188 391.048C51.7042 390.721 51.5968 390.348 51.5968 389.928C51.5968 389.545 51.6855 389.2 51.8628 388.892C52.0495 388.575 52.3482 388.323 52.7588 388.136C53.1788 387.94 53.7388 387.842 54.4388 387.842H56.9728V388.584H54.4668C53.7575 388.584 53.2628 388.71 52.9828 388.962C52.7122 389.214 52.5768 389.527 52.5768 389.9C52.5768 390.32 52.7402 390.656 53.0668 390.908C53.3935 391.16 53.8508 391.286 54.4388 391.286C54.9988 391.286 55.4795 391.16 55.8808 390.908C56.2915 390.647 56.5902 390.273 56.7768 389.788L57.0008 390.474C56.8142 390.959 56.4875 391.347 56.0208 391.636C55.5635 391.925 54.9848 392.07 54.2848 392.07ZM65.8069 392L62.7829 388.36L63.6089 387.87L66.9829 392H65.8069ZM60.4169 392V384.65H61.4109V392H60.4169ZM61.1029 388.724V387.87H63.4689V388.724H61.1029ZM63.6929 388.43L62.7689 388.29L65.6949 384.65H66.7729L63.6929 388.43ZM71.3159 392.07C70.6066 392.07 69.9673 391.911 69.3979 391.594C68.8379 391.267 68.3946 390.824 68.0679 390.264C67.7413 389.695 67.5779 389.046 67.5779 388.318C67.5779 387.581 67.7413 386.932 68.0679 386.372C68.3946 385.812 68.8379 385.373 69.3979 385.056C69.9579 384.739 70.5973 384.58 71.3159 384.58C72.0439 384.58 72.6879 384.739 73.2479 385.056C73.8173 385.373 74.2606 385.812 74.5779 386.372C74.9046 386.932 75.0679 387.581 75.0679 388.318C75.0679 389.046 74.9046 389.695 74.5779 390.264C74.2606 390.824 73.8173 391.267 73.2479 391.594C72.6786 391.911 72.0346 392.07 71.3159 392.07ZM71.3159 391.188C71.8479 391.188 72.3193 391.071 72.7299 390.838C73.1406 390.595 73.4626 390.259 73.6959 389.83C73.9386 389.391 74.0599 388.887 74.0599 388.318C74.0599 387.739 73.9386 387.235 73.6959 386.806C73.4626 386.377 73.1406 386.045 72.7299 385.812C72.3193 385.569 71.8526 385.448 71.3299 385.448C70.8073 385.448 70.3406 385.569 69.9299 385.812C69.5193 386.045 69.1926 386.377 68.9499 386.806C68.7073 387.235 68.5859 387.739 68.5859 388.318C68.5859 388.887 68.7073 389.391 68.9499 389.83C69.1926 390.259 69.5193 390.595 69.9299 390.838C70.3406 391.071 70.8026 391.188 71.3159 391.188ZM77.1923 392V384.65H78.1863V390.488L83.1003 384.65H83.9823V392H82.9883V386.148L78.0883 392H77.1923ZM80.5243 383.586C79.9083 383.586 79.409 383.432 79.0263 383.124C78.653 382.807 78.457 382.354 78.4383 381.766H79.1523C79.1617 382.139 79.2923 382.433 79.5443 382.648C79.7963 382.863 80.123 382.97 80.5243 382.97C80.9257 382.97 81.2523 382.863 81.5043 382.648C81.7657 382.433 81.901 382.139 81.9103 381.766H82.6243C82.615 382.354 82.419 382.807 82.0363 383.124C81.6537 383.432 81.1497 383.586 80.5243 383.586ZM91.8951 392V385.252L92.1471 385.518H89.1091V384.65H95.6751V385.518H92.6371L92.8891 385.252V392H91.8951ZM97.1122 392V384.65H98.1062V390.488L103.02 384.65H103.902V392H102.908V386.148L98.0082 392H97.1122ZM106.751 392V384.65H113.359V392H112.365V385.252L112.617 385.518H107.493L107.745 385.252V392H106.751ZM45.2718 408L42.2478 404.36L43.0738 403.87L46.4478 408H45.2718ZM39.8818 408V400.65H40.8758V408H39.8818ZM40.5678 404.724V403.87H42.9338V404.724H40.5678ZM43.1578 404.43L42.2338 404.29L45.1598 400.65H46.2378L43.1578 404.43ZM48.0165 408V400.65H51.2645C52.0952 400.65 52.7485 400.809 53.2245 401.126C53.7099 401.443 53.9525 401.91 53.9525 402.526C53.9525 403.123 53.7239 403.585 53.2665 403.912C52.8092 404.229 52.2072 404.388 51.4605 404.388L51.6565 404.094C52.5339 404.094 53.1779 404.257 53.5885 404.584C53.9992 404.911 54.2045 405.382 54.2045 405.998C54.2045 406.633 53.9712 407.127 53.5045 407.482C53.0472 407.827 52.3332 408 51.3625 408H48.0165ZM48.9825 407.216H51.3205C51.9459 407.216 52.4172 407.118 52.7345 406.922C53.0612 406.717 53.2245 406.39 53.2245 405.942C53.2245 405.494 53.0799 405.167 52.7905 404.962C52.5012 404.757 52.0439 404.654 51.4185 404.654H48.9825V407.216ZM48.9825 403.912H51.1945C51.7639 403.912 52.1979 403.805 52.4965 403.59C52.8045 403.375 52.9585 403.063 52.9585 402.652C52.9585 402.241 52.8045 401.933 52.4965 401.728C52.1979 401.523 51.7639 401.42 51.1945 401.42H48.9825V403.912ZM61.0981 408V406.376L61.0561 406.11V403.394C61.0561 402.769 60.8788 402.288 60.5241 401.952C60.1788 401.616 59.6608 401.448 58.9701 401.448C58.4941 401.448 58.0415 401.527 57.6121 401.686C57.1828 401.845 56.8188 402.055 56.5201 402.316L56.0721 401.574C56.4455 401.257 56.8935 401.014 57.4161 400.846C57.9388 400.669 58.4895 400.58 59.0681 400.58C60.0201 400.58 60.7528 400.818 61.2661 401.294C61.7888 401.761 62.0501 402.475 62.0501 403.436V408H61.0981ZM58.5641 408.07C58.0135 408.07 57.5328 407.981 57.1221 407.804C56.7208 407.617 56.4128 407.365 56.1981 407.048C55.9835 406.721 55.8761 406.348 55.8761 405.928C55.8761 405.545 55.9648 405.2 56.1421 404.892C56.3288 404.575 56.6275 404.323 57.0381 404.136C57.4581 403.94 58.0181 403.842 58.7181 403.842H61.2521V404.584H58.7461C58.0368 404.584 57.5421 404.71 57.2621 404.962C56.9915 405.214 56.8561 405.527 56.8561 405.9C56.8561 406.32 57.0195 406.656 57.3461 406.908C57.6728 407.16 58.1301 407.286 58.7181 407.286C59.2781 407.286 59.7588 407.16 60.1601 406.908C60.5708 406.647 60.8695 406.273 61.0561 405.788L61.2801 406.474C61.0935 406.959 60.7668 407.347 60.3001 407.636C59.8428 407.925 59.2641 408.07 58.5641 408.07ZM68.4902 408.07C67.8556 408.07 67.2816 407.925 66.7682 407.636C66.2549 407.337 65.8442 406.913 65.5362 406.362C65.2376 405.802 65.0882 405.121 65.0882 404.318C65.0882 403.515 65.2376 402.839 65.5362 402.288C65.8349 401.728 66.2409 401.303 66.7542 401.014C67.2676 400.725 67.8462 400.58 68.4902 400.58C69.1902 400.58 69.8156 400.739 70.3662 401.056C70.9262 401.364 71.3649 401.803 71.6822 402.372C71.9996 402.932 72.1582 403.581 72.1582 404.318C72.1582 405.065 71.9996 405.718 71.6822 406.278C71.3649 406.838 70.9262 407.277 70.3662 407.594C69.8156 407.911 69.1902 408.07 68.4902 408.07ZM64.6962 410.716V400.65H65.6482V402.862L65.5502 404.332L65.6902 405.816V410.716H64.6962ZM68.4202 407.188C68.9429 407.188 69.4096 407.071 69.8202 406.838C70.2309 406.595 70.5576 406.259 70.8002 405.83C71.0429 405.391 71.1642 404.887 71.1642 404.318C71.1642 403.749 71.0429 403.249 70.8002 402.82C70.5576 402.391 70.2309 402.055 69.8202 401.812C69.4096 401.569 68.9429 401.448 68.4202 401.448C67.8976 401.448 67.4262 401.569 67.0062 401.812C66.5956 402.055 66.2689 402.391 66.0262 402.82C65.7929 403.249 65.6762 403.749 65.6762 404.318C65.6762 404.887 65.7929 405.391 66.0262 405.83C66.2689 406.259 66.5956 406.595 67.0062 406.838C67.4262 407.071 67.8976 407.188 68.4202 407.188ZM75.4204 408V401.252L75.6724 401.518H72.6344V400.65H79.2004V401.518H76.1624L76.4144 401.252V408H75.4204ZM80.6376 408V400.65H81.6316V406.488L86.5456 400.65H87.4276V408H86.4336V402.148L81.5336 408H80.6376ZM94.0703 408.07C93.4356 408.07 92.8616 407.925 92.3483 407.636C91.835 407.337 91.4243 406.913 91.1163 406.362C90.8176 405.802 90.6683 405.121 90.6683 404.318C90.6683 403.515 90.8176 402.839 91.1163 402.288C91.415 401.728 91.821 401.303 92.3343 401.014C92.8476 400.725 93.4263 400.58 94.0703 400.58C94.7703 400.58 95.3956 400.739 95.9463 401.056C96.5063 401.364 96.945 401.803 97.2623 402.372C97.5796 402.932 97.7383 403.581 97.7383 404.318C97.7383 405.065 97.5796 405.718 97.2623 406.278C96.945 406.838 96.5063 407.277 95.9463 407.594C95.3956 407.911 94.7703 408.07 94.0703 408.07ZM90.2763 410.716V400.65H91.2283V402.862L91.1303 404.332L91.2703 405.816V410.716H90.2763ZM94.0003 407.188C94.523 407.188 94.9896 407.071 95.4003 406.838C95.811 406.595 96.1376 406.259 96.3803 405.83C96.623 405.391 96.7443 404.887 96.7443 404.318C96.7443 403.749 96.623 403.249 96.3803 402.82C96.1376 402.391 95.811 402.055 95.4003 401.812C94.9896 401.569 94.523 401.448 94.0003 401.448C93.4776 401.448 93.0063 401.569 92.5863 401.812C92.1756 402.055 91.849 402.391 91.6063 402.82C91.373 403.249 91.2563 403.749 91.2563 404.318C91.2563 404.887 91.373 405.391 91.6063 405.83C91.849 406.259 92.1756 406.595 92.5863 406.838C93.0063 407.071 93.4776 407.188 94.0003 407.188ZM107.042 408V400.65H108.036V408H107.042ZM102.968 403.24C103.892 403.249 104.597 403.455 105.082 403.856C105.567 404.257 105.81 404.836 105.81 405.592C105.81 406.376 105.549 406.978 105.026 407.398C104.503 407.818 103.757 408.023 102.786 408.014L99.874 408V400.65H100.868V403.212L102.968 403.24ZM102.716 407.258C103.407 407.267 103.925 407.132 104.27 406.852C104.625 406.563 104.802 406.143 104.802 405.592C104.802 405.041 104.629 404.64 104.284 404.388C103.939 404.127 103.416 403.991 102.716 403.982L100.868 403.954V407.23L102.716 407.258ZM112.879 405.06C112.879 404.668 112.94 404.332 113.061 404.052C113.192 403.772 113.35 403.525 113.537 403.31C113.733 403.095 113.938 402.895 114.153 402.708C114.377 402.521 114.587 402.335 114.783 402.148C114.979 401.952 115.138 401.742 115.259 401.518C115.38 401.285 115.441 401.014 115.441 400.706C115.441 400.202 115.245 399.791 114.853 399.474C114.461 399.157 113.906 398.998 113.187 398.998C112.59 398.998 112.072 399.096 111.633 399.292C111.194 399.479 110.821 399.759 110.513 400.132L109.771 399.572C110.144 399.105 110.625 398.746 111.213 398.494C111.801 398.242 112.482 398.116 113.257 398.116C113.91 398.116 114.475 398.214 114.951 398.41C115.436 398.606 115.81 398.886 116.071 399.25C116.342 399.614 116.477 400.048 116.477 400.552C116.477 400.953 116.412 401.299 116.281 401.588C116.16 401.868 116.001 402.12 115.805 402.344C115.618 402.559 115.413 402.764 115.189 402.96C114.974 403.147 114.769 403.338 114.573 403.534C114.377 403.73 114.218 403.949 114.097 404.192C113.976 404.435 113.915 404.724 113.915 405.06H112.879ZM113.397 408.07C113.201 408.07 113.028 408 112.879 407.86C112.739 407.711 112.669 407.538 112.669 407.342C112.669 407.137 112.739 406.969 112.879 406.838C113.028 406.698 113.201 406.628 113.397 406.628C113.612 406.628 113.789 406.698 113.929 406.838C114.069 406.969 114.139 407.137 114.139 407.342C114.139 407.538 114.069 407.711 113.929 407.86C113.789 408 113.612 408.07 113.397 408.07Z" fill="#232226"/>
<defs>
<filter id="filter0_d_6712_6552" x="39" y="0" width="264" height="120" filterUnits="userSpaceOnUse" color-interpolation-filters="sRGB">
<feFlood flood-opacity="0" result="BackgroundImageFix"/>
<feColorMatrix in="SourceAlpha" type="matrix" values="0 0 0 0 0 0 0 0 0 0 0 0 0 0 0 0 0 0 127 0" result="hardAlpha"/>
<feOffset dy="-1"/>
<feGaussianBlur stdDeviation="10"/>
<feComposite in2="hardAlpha" operator="out"/>
<feColorMatrix type="matrix" values="0 0 0 0 0.679167 0 0 0 0 0.679167 0 0 0 0 0.679167 0 0 0 0.48 0"/>
<feBlend mode="normal" in2="BackgroundImageFix" result="effect1_dropShadow_6712_6552"/>
<feBlend mode="normal" in="SourceGraphic" in2="effect1_dropShadow_6712_6552" result="shape"/>
</filter>
<filter id="filter1_d_6712_6552" x="39" y="116" width="264" height="80" filterUnits="userSpaceOnUse" color-interpolation-filters="sRGB">
<feFlood flood-opacity="0" result="BackgroundImageFix"/>
<feColorMatrix in="SourceAlpha" type="matrix" values="0 0 0 0 0 0 0 0 0 0 0 0 0 0 0 0 0 0 127 0" result="hardAlpha"/>
<feOffset dy="-1"/>
<feGaussianBlur stdDeviation="10"/>
<feComposite in2="hardAlpha" operator="out"/>
<feColorMatrix type="matrix" values="0 0 0 0 0.679167 0 0 0 0 0.679167 0 0 0 0 0.679167 0 0 0 0.48 0"/>
<feBlend mode="normal" in2="BackgroundImageFix" result="effect1_dropShadow_6712_6552"/>
<feBlend mode="normal" in="SourceGraphic" in2="effect1_dropShadow_6712_6552" result="shape"/>
</filter>
<filter id="filter2_d_6712_6552" x="97.7461" y="191.312" width="146.508" height="146.508" filterUnits="userSpaceOnUse" color-interpolation-filters="sRGB">
<feFlood flood-opacity="0" result="BackgroundImageFix"/>
<feColorMatrix in="SourceAlpha" type="matrix" values="0 0 0 0 0 0 0 0 0 0 0 0 0 0 0 0 0 0 127 0" result="hardAlpha"/>
<feOffset dy="-1"/>
<feGaussianBlur stdDeviation="10"/>
<feComposite in2="hardAlpha" operator="out"/>
<feColorMatrix type="matrix" values="0 0 0 0 0.679167 0 0 0 0 0.679167 0 0 0 0 0.679167 0 0 0 0.48 0"/>
<feBlend mode="normal" in2="BackgroundImageFix" result="effect1_dropShadow_6712_6552"/>
<feBlend mode="normal" in="SourceGraphic" in2="effect1_dropShadow_6712_6552" result="shape"/>
</filter>
<filter id="filter3_d_6712_6552" x="155" y="322" width="208" height="152" filterUnits="userSpaceOnUse" color-interpolation-filters="sRGB">
<feFlood flood-opacity="0" result="BackgroundImageFix"/>
<feColorMatrix in="SourceAlpha" type="matrix" values="0 0 0 0 0 0 0 0 0 0 0 0 0 0 0 0 0 0 127 0" result="hardAlpha"/>
<feOffset dy="-1"/>
<feGaussianBlur stdDeviation="10"/>
<feComposite in2="hardAlpha" operator="out"/>
<feColorMatrix type="matrix" values="0 0 0 0 0.679167 0 0 0 0 0.679167 0 0 0 0 0.679167 0 0 0 0.48 0"/>
<feBlend mode="normal" in2="BackgroundImageFix" result="effect1_dropShadow_6712_6552"/>
<feBlend mode="normal" in="SourceGraphic" in2="effect1_dropShadow_6712_6552" result="shape"/>
</filter>
<filter id="filter4_d_6712_6552" x="4.74609" y="322.312" width="146.508" height="146.508" filterUnits="userSpaceOnUse" color-interpolation-filters="sRGB">
<feFlood flood-opacity="0" result="BackgroundImageFix"/>
<feColorMatrix in="SourceAlpha" type="matrix" values="0 0 0 0 0 0 0 0 0 0 0 0 0 0 0 0 0 0 127 0" result="hardAlpha"/>
<feOffset dy="-1"/>
<feGaussianBlur stdDeviation="10"/>
<feComposite in2="hardAlpha" operator="out"/>
<feColorMatrix type="matrix" values="0 0 0 0 0.679167 0 0 0 0 0.679167 0 0 0 0 0.679167 0 0 0 0.48 0"/>
<feBlend mode="normal" in2="BackgroundImageFix" result="effect1_dropShadow_6712_6552"/>
<feBlend mode="normal" in="SourceGraphic" in2="effect1_dropShadow_6712_6552" result="shape"/>
</filter>
</defs>
</svg>
