<svg width="24" height="24" viewBox="0 0 24 24" fill="none" xmlns="http://www.w3.org/2000/svg">
<path d="M11.9961 20C16.4144 20 19.9961 16.4183 19.9961 12C19.9961 7.58172 16.4144 4 11.9961 4C7.57781 4 3.99609 7.58172 3.99609 12C3.99609 16.4183 7.57782 20 11.9961 20ZM21.9961 12C21.9961 17.5228 17.5189 22 11.9961 22C6.47325 22 1.99609 17.5228 1.99609 12C1.99609 6.47715 6.47324 2 11.9961 2C17.5189 2 21.9961 6.47715 21.9961 12Z" fill="#EFAF33"/>
<path d="M11.9961 10C12.5484 10 12.9961 10.4477 12.9961 11L12.9961 17C12.9961 17.5523 12.5484 18 11.9961 18C11.4438 18 10.9961 17.5523 10.9961 17L10.9961 11C10.9961 10.4477 11.4438 10 11.9961 10Z" fill="#EFAF33"/>
<path d="M13.4961 7.5C13.4961 8.32843 12.8245 9 11.9961 9C11.1677 9 10.4961 8.32843 10.4961 7.5C10.4961 6.67157 11.1677 6 11.9961 6C12.8245 6 13.4961 6.67157 13.4961 7.5Z" fill="#EFAF33"/>
</svg>
