<svg width="474" height="106" viewBox="0 0 474 106" fill="none" xmlns="http://www.w3.org/2000/svg">
<path d="M30.1455 30.2268C28.2336 30.8971 26.449 31.3998 24.792 31.735C23.1774 32.0701 21.6054 32.2377 20.0758 32.2377C13.5326 32.2377 8.54017 30.7086 5.09861 27.6503C1.69954 24.592 0 20.1302 0 14.265V1.00546H14.786V12.6311C14.786 15.3124 15.3808 17.3024 16.5705 18.6011C17.7602 19.8579 19.5659 20.4863 21.9878 20.4863C23.6448 20.4863 25.1319 20.3397 26.449 20.0464C27.7662 19.7113 28.8709 19.2505 29.7631 18.6639L30.1455 30.2268ZM28.1698 44.9945V1.00546H42.9558V44.9945H28.1698Z" fill="white"/>
<path d="M60.9697 44.9945V9.30055L64.2201 12.5055H47.9045V1.00546H88.8209V12.5055H72.5053L75.7557 9.30055V44.9945H60.9697Z" fill="white"/>
<path d="M115.847 46C112.236 46 108.879 45.4344 105.778 44.3033C102.719 43.1721 100.063 41.5801 97.8112 39.5273C95.5593 37.4326 93.796 34.9818 92.5214 32.1749C91.2892 29.3679 90.6731 26.3097 90.6731 23C90.6731 19.6485 91.2892 16.5902 92.5214 13.8251C93.796 11.0182 95.5593 8.58834 97.8112 6.53552C100.063 4.4408 102.719 2.82787 105.778 1.69672C108.879 0.565574 112.236 0 115.847 0C119.501 0 122.858 0.565574 125.917 1.69672C128.976 2.82787 131.632 4.4408 133.884 6.53552C136.136 8.58834 137.878 11.0182 139.11 13.8251C140.385 16.5902 141.022 19.6485 141.022 23C141.022 26.3097 140.385 29.3679 139.11 32.1749C137.878 34.9818 136.136 37.4326 133.884 39.5273C131.632 41.5801 128.976 43.1721 125.917 44.3033C122.858 45.4344 119.501 46 115.847 46ZM115.847 33.9973C117.25 33.9973 118.546 33.7459 119.735 33.2432C120.967 32.7404 122.03 32.0282 122.922 31.1066C123.857 30.143 124.579 28.9909 125.089 27.6503C125.599 26.2678 125.854 24.7177 125.854 23C125.854 21.2823 125.599 19.7532 125.089 18.4126C124.579 17.0301 123.857 15.878 122.922 14.9563C122.03 13.9927 120.967 13.2596 119.735 12.7568C118.546 12.2541 117.25 12.0027 115.847 12.0027C114.445 12.0027 113.128 12.2541 111.896 12.7568C110.706 13.2596 109.644 13.9927 108.709 14.9563C107.817 15.878 107.116 17.0301 106.606 18.4126C106.096 19.7532 105.841 21.2823 105.841 23C105.841 24.7177 106.096 26.2678 106.606 27.6503C107.116 28.9909 107.817 30.143 108.709 31.1066C109.644 32.0282 110.706 32.7404 111.896 33.2432C113.128 33.7459 114.445 33.9973 115.847 33.9973Z" fill="white"/>
<path d="M165.543 44.9945V1.00546H180.328V23.8798L195.688 1.00546H209.837V44.9945H195.051V22.1831L179.755 44.9945H165.543Z" fill="white"/>
<path d="M217.761 44.9945V1.00546H230.125L247.97 29.724H241.469L258.805 1.00546H271.169L271.296 44.9945H257.594L257.466 21.3661H259.633L247.779 41.0355H241.151L228.787 21.3661H231.463V44.9945H217.761Z" fill="white"/>
<path d="M292.895 17.3443H312.779V28.0273H292.895V17.3443ZM293.914 33.8087H316.221V44.9945H279.129V1.00546H315.392V12.1913H293.914V33.8087Z" fill="white"/>
<path d="M351.257 1.00546H366.298V44.9945H351.257V1.00546ZM337.363 44.9945H322.322V1.00546H337.363V44.9945ZM352.277 28.7814H336.343V16.5902H352.277V28.7814Z" fill="white"/>
<path d="M403.164 1.00546H418.205V44.9945H403.164V1.00546ZM389.27 44.9945H374.23V1.00546H389.27V44.9945ZM404.184 28.7814H388.251V16.5902H404.184V28.7814Z" fill="white"/>
<path d="M448.826 46C445.214 46 441.857 45.4344 438.756 44.3033C435.697 43.1721 433.041 41.5801 430.789 39.5273C428.537 37.4326 426.774 34.9818 425.499 32.1749C424.267 29.3679 423.651 26.3097 423.651 23C423.651 19.6485 424.267 16.5902 425.499 13.8251C426.774 11.0182 428.537 8.58834 430.789 6.53552C433.041 4.4408 435.697 2.82787 438.756 1.69672C441.857 0.565574 445.214 0 448.826 0C452.48 0 455.836 0.565574 458.895 1.69672C461.955 2.82787 464.61 4.4408 466.862 6.53552C469.114 8.58834 470.856 11.0182 472.088 13.8251C473.363 16.5902 474 19.6485 474 23C474 26.3097 473.363 29.3679 472.088 32.1749C470.856 34.9818 469.114 37.4326 466.862 39.5273C464.61 41.5801 461.955 43.1721 458.895 44.3033C455.836 45.4344 452.48 46 448.826 46ZM448.826 33.9973C450.228 33.9973 451.524 33.7459 452.713 33.2432C453.945 32.7404 455.008 32.0282 455.9 31.1066C456.835 30.143 457.557 28.9909 458.067 27.6503C458.577 26.2678 458.832 24.7177 458.832 23C458.832 21.2823 458.577 19.7532 458.067 18.4126C457.557 17.0301 456.835 15.878 455.9 14.9563C455.008 13.9927 453.945 13.2596 452.713 12.7568C451.524 12.2541 450.228 12.0027 448.826 12.0027C447.423 12.0027 446.106 12.2541 444.874 12.7568C443.684 13.2596 442.622 13.9927 441.688 14.9563C440.795 15.878 440.094 17.0301 439.584 18.4126C439.075 19.7532 438.82 21.2823 438.82 23C438.82 24.7177 439.075 26.2678 439.584 27.6503C440.094 28.9909 440.795 30.143 441.688 31.1066C442.622 32.0282 443.684 32.7404 444.874 33.2432C446.106 33.7459 447.423 33.9973 448.826 33.9973Z" fill="white"/>
<path d="M0 97.6483V54.9754H11.8337L28.9134 82.8347H22.6915L39.2831 54.9754H51.1169L51.2389 97.6483H38.1242L38.0022 74.7268H40.0761L28.7304 93.8077H22.3865L10.5528 74.7268H13.1147V97.6483H0Z" fill="#EFAF33"/>
<path d="M81.7315 68.0821C86.9367 68.0821 91.0033 69.2606 93.9312 71.6178C96.8998 73.9343 98.3841 77.4498 98.3841 82.1641C98.3841 87.2442 96.7168 91.1051 93.3823 93.7468C90.0477 96.3478 85.5541 97.6483 79.9016 97.6483H58.735V54.9754H72.8867V68.0821H81.7315ZM78.9256 87.5897C80.3489 87.5897 81.5282 87.1426 82.4635 86.2485C83.4395 85.3138 83.9275 84.0336 83.9275 82.408C83.9275 80.7823 83.4395 79.6647 82.4635 79.0551C81.5282 78.4455 80.3489 78.1407 78.9256 78.1407H72.8867V87.5897H78.9256ZM102.288 97.6483V54.9754H116.44V97.6483H102.288Z" fill="#EFAF33"/>
<path d="M163.782 98.6237C160.366 98.6237 157.194 98.0953 154.266 97.0387C151.379 95.9414 148.857 94.397 146.702 92.4056C144.588 90.4142 142.941 88.0571 141.761 85.3341C140.582 82.6112 139.992 79.6037 139.992 76.3118C139.992 73.0199 140.582 70.0125 141.761 67.2896C142.941 64.5666 144.588 62.2095 146.702 60.2181C148.857 58.2266 151.379 56.7026 154.266 55.646C157.194 54.5487 160.366 54 163.782 54C167.97 54 171.671 54.7315 174.884 56.1946C178.137 57.6577 180.821 59.771 182.935 62.5346L173.847 70.6424C172.586 69.0574 171.183 67.8382 169.638 66.9848C168.133 66.0907 166.425 65.6436 164.514 65.6436C163.009 65.6436 161.647 65.8875 160.427 66.3751C159.207 66.8628 158.15 67.5741 157.255 68.5088C156.401 69.4435 155.73 70.5815 155.242 71.9226C154.754 73.2231 154.51 74.6862 154.51 76.3118C154.51 77.9375 154.754 79.4209 155.242 80.762C155.73 82.0625 156.401 83.1801 157.255 84.1149C158.15 85.0496 159.207 85.7608 160.427 86.2485C161.647 86.7362 163.009 86.9801 164.514 86.9801C166.425 86.9801 168.133 86.5533 169.638 85.6999C171.183 84.8058 172.586 83.5662 173.847 81.9812L182.935 90.0891C180.821 92.812 178.137 94.9254 174.884 96.4291C171.671 97.8921 167.97 98.6237 163.782 98.6237Z" fill="#EFAF33"/>
<path d="M214.452 91.5522V66.1313H204.631L204.509 69.1794C204.428 71.4146 204.286 73.5076 204.082 75.4584C203.879 77.4091 203.594 79.1973 203.228 80.823C202.903 82.4486 202.476 83.8914 201.947 85.1512C201.419 86.3705 200.768 87.3865 199.996 88.1993L184.807 86.4924C186.149 86.4924 187.247 86.0453 188.101 85.1512C188.995 84.2165 189.707 82.9363 190.236 81.3107C190.764 79.6444 191.151 77.6936 191.395 75.4584C191.679 73.1825 191.883 70.6831 192.005 67.9601L192.493 54.9754H228.604V91.5522H214.452ZM183.587 106V86.4924H234.216V106H221.04V97.6483H196.763V106H183.587Z" fill="#EFAF33"/>
<path d="M252.226 70.8253H271.258V81.1887H252.226V70.8253ZM253.202 86.7972H274.552V97.6483H239.05V54.9754H273.759V65.8265H253.202V86.7972Z" fill="#EFAF33"/>
<path d="M283.563 98.4408C282.669 98.4408 281.713 98.3798 280.696 98.2579C279.68 98.136 278.602 97.9328 277.463 97.6483L278.195 86.1266C278.765 86.2485 279.293 86.3095 279.781 86.3095C281.367 86.3095 282.547 85.6592 283.319 84.3587C284.092 83.0582 284.62 81.3107 284.905 79.1161C285.19 76.8808 285.373 74.3814 285.454 71.6178L286.003 54.9754H322.053V97.6483H307.902V63.0832L311.013 66.1313H295.458L298.264 62.9003L298.02 71.0692C297.898 75.1739 297.613 78.9129 297.166 82.286C296.759 85.6186 296.048 88.5041 295.031 90.9426C294.014 93.3404 292.571 95.1895 290.7 96.49C288.87 97.7905 286.491 98.4408 283.563 98.4408Z" fill="#EFAF33"/>
<path d="M325.996 97.6483L344.662 54.9754H358.814L377.479 97.6483H362.595L348.81 61.803H354.422L340.636 97.6483H325.996ZM337.098 90.211L340.758 79.8476H360.4L364.059 90.211H337.098Z" fill="#EFAF33"/>
<path d="M394.596 70.8253H413.628V81.1887H394.596V70.8253ZM395.572 86.7972H416.921V97.6483H381.42V54.9754H416.128V65.8265H395.572V86.7972Z" fill="#EFAF33"/>
<path d="M422.761 97.6483V54.9754H434.595L451.674 82.8347H445.453L462.044 54.9754H473.878L474 97.6483H460.885L460.763 74.7268H462.837L451.491 93.8077H445.148L433.314 74.7268H435.876V97.6483H422.761Z" fill="#EFAF33"/>
</svg>
