<svg width="16" height="16" viewBox="0 0 16 16" fill="none" xmlns="http://www.w3.org/2000/svg">
<path fill-rule="evenodd" clip-rule="evenodd" d="M8.89805 2.49844C8.89805 2.16707 9.16668 1.89844 9.49805 1.89844H13.598C13.8742 1.89844 14.098 2.1223 14.098 2.39844V6.49844C14.098 6.82981 13.8294 7.09844 13.498 7.09844C13.1667 7.09844 12.898 6.82981 12.898 6.49844V3.94211L5.8666 11.0661C5.60858 11.3275 5.18706 11.3289 4.92734 11.0691C4.66761 10.8094 4.66899 10.3879 4.93041 10.1299L12.0544 3.09844H9.49805C9.16668 3.09844 8.89805 2.82981 8.89805 2.49844ZM8.09844 4.49844C8.09844 4.82981 7.82981 5.09844 7.49844 5.09844H3.99844C3.72116 5.09844 3.49787 5.19043 3.34415 5.34415C3.19043 5.49787 3.09844 5.72116 3.09844 5.99844V11.9984C3.09844 12.2757 3.19043 12.499 3.34415 12.6527C3.49787 12.8064 3.72116 12.8984 3.99844 12.8984H9.99844C10.2757 12.8984 10.499 12.8064 10.6527 12.6527C10.8064 12.499 10.8984 12.2757 10.8984 11.9984V8.49844C10.8984 8.16707 11.1671 7.89844 11.4984 7.89844C11.8298 7.89844 12.0984 8.16707 12.0984 8.49844V11.9984C12.0984 13.1537 11.1537 14.0984 9.99844 14.0984H3.99844C2.84321 14.0984 1.89844 13.1537 1.89844 11.9984V5.99844C1.89844 4.84321 2.84321 3.89844 3.99844 3.89844H7.49844C7.82981 3.89844 8.09844 4.16707 8.09844 4.49844Z" fill="#EFAF33"/>
</svg>
