<svg width="218" height="40" viewBox="0 0 218 40" fill="none" xmlns="http://www.w3.org/2000/svg">
<g clip-path="url(#clip0_6426_6574)">
<path d="M204.371 1.75781H199.416V21.7578H213.867V16.7578H204.371V1.75781Z" fill="#EFAF33"/>
<path fill-rule="evenodd" clip-rule="evenodd" d="M193.68 1.75781H183.682C181.655 1.75781 180.011 3.41615 180.011 5.46059V18.055C180.011 20.0995 181.655 21.7578 183.682 21.7578H193.68C195.707 21.7578 197.352 20.0995 197.352 18.055V5.46059C197.352 3.41615 195.707 1.75781 193.68 1.75781ZM184.965 16.7578H192.397V6.75781H184.965V16.7578Z" fill="#EFAF33"/>
<path d="M158.541 1.75781H141.2V6.75781H147.393V21.7578H152.348V6.75781H158.541V1.75781Z" fill="#EFAF33"/>
<path d="M126.749 1.75781H121.795V21.7578H126.749V10.0911L134.181 21.7578H139.136V1.75781H134.181V13.4245L126.749 1.75781Z" fill="#EFAF33"/>
<path fill-rule="evenodd" clip-rule="evenodd" d="M116.059 1.75781H106.061C104.034 1.75781 102.39 3.41615 102.39 5.46059V18.055C102.39 20.0995 104.034 21.7578 106.061 21.7578H116.059C118.086 21.7578 119.731 20.0995 119.731 18.055V5.46059C119.731 3.41615 118.086 1.75781 116.059 1.75781ZM107.344 16.7578H114.776V6.75781H107.344V16.7578Z" fill="#EFAF33"/>
<path d="M86.6557 1.75781H96.654C98.681 1.75781 100.325 3.41615 100.325 5.46059V8.42448H95.3707V6.75781H87.9389V16.7578H95.3707V15.0911H100.325V18.055C100.325 20.0995 98.681 21.7578 96.654 21.7578H86.6557C84.6286 21.7578 82.9844 20.0995 82.9844 18.055V5.46059C82.9844 3.41615 84.6286 1.75781 86.6557 1.75781Z" fill="#EFAF33"/>
<path fill-rule="evenodd" clip-rule="evenodd" d="M177.947 12.3134V5.36892C177.947 3.37726 176.342 1.75781 174.368 1.75781H160.606V21.7578H165.557V15.9245H168.245L172.374 21.7578H177.947L173.809 15.9134C175.659 15.7773 177.947 14.2161 177.947 12.3134ZM165.557 10.9245H172.992V6.75781H165.557V10.9245Z" fill="#EFAF33"/>
<path d="M4.95312 6.75818H14.862L4.95312 16.7579V21.7578H22.2936V16.7579H12.3848L22.2936 6.75818V1.7583H4.95312V6.75818Z" fill="#F6F6F6"/>
<path d="M24.358 21.7578H38.8084V16.7579H29.7253V14.258H36.3312V9.25812H29.7253V6.75818H38.8084V1.7583H24.358V21.7578Z" fill="#F6F6F6"/>
<path d="M51.1944 12.5914L45.8271 1.7583H40.8727V21.7578H45.8271V12.8969L48.7172 18.4246H53.6716L56.5617 12.8969V21.7578H61.5162V1.7583H56.5617L51.1944 12.5914Z" fill="#F6F6F6"/>
<path d="M77.3204 1.75781L67.1578 1.7583C65.1826 1.7583 63.5805 3.41636 63.5805 5.46047V8.73494C63.5805 10.6652 64.8391 12.3593 66.6399 12.8565L75.9666 15.5075V16.7581L68.5349 16.7586V15.0922H63.5805V18.0556C63.5805 20.0998 65.1826 21.7578 67.1578 21.7578L77.3204 21.7573C79.2955 21.7573 80.921 20.0993 80.921 18.0552V14.7807C80.921 12.8505 79.639 11.1563 77.8383 10.6591L68.5349 8.00812V6.75748L75.9666 6.757V8.42339H80.921V5.45999C80.921 3.41588 79.2955 1.75781 77.3204 1.75781Z" fill="#F6F6F6"/>
</g>
<path d="M4.96875 35.7999L5.87582 33.6245C6.26143 33.7846 6.65581 33.9092 7.05895 33.9981C7.47086 34.0871 7.86524 34.145 8.24209 34.1716C8.61894 34.1894 8.95197 34.1716 9.24118 34.1183C9.53915 34.0649 9.77578 33.9759 9.95106 33.8513C10.1263 33.7268 10.214 33.5622 10.214 33.3575C10.214 33.144 10.1263 32.9972 9.95106 32.9171C9.77578 32.837 9.56106 32.797 9.30691 32.797H6.82233V30.5282H9.04399C9.30691 30.5282 9.5041 30.4792 9.63556 30.3814C9.77578 30.2746 9.84589 30.1367 9.84589 29.9676C9.84589 29.7808 9.76702 29.634 9.60926 29.5272C9.46028 29.4205 9.25432 29.3493 8.99141 29.3137C8.73725 29.2692 8.44804 29.2647 8.12377 29.3003C7.79951 29.327 7.4621 29.3938 7.11154 29.5005C6.76974 29.5984 6.43671 29.7274 6.11245 29.8876L5.20538 27.592C5.85391 27.2895 6.53312 27.0849 7.243 26.9781C7.96164 26.8625 8.65838 26.8402 9.3332 26.9114C10.0168 26.9737 10.6303 27.1205 11.1736 27.3518C11.7258 27.5831 12.164 27.8901 12.4882 28.2727C12.8125 28.6464 12.9746 29.0912 12.9746 29.6073C12.9746 30.0522 12.8563 30.4525 12.6197 30.8084C12.3831 31.1554 12.0588 31.4268 11.6469 31.6225C11.2437 31.8183 10.7836 31.9162 10.2666 31.9162L10.3323 31.2889C10.937 31.2889 11.4628 31.4001 11.9098 31.6225C12.3655 31.8361 12.7161 32.1297 12.9615 32.5034C13.2156 32.8771 13.3427 33.3042 13.3427 33.7846C13.3427 34.2295 13.2244 34.6299 12.9878 34.9858C12.7511 35.3328 12.4225 35.6308 12.0018 35.8799C11.5899 36.1202 11.1079 36.3026 10.5558 36.4271C10.0124 36.5517 9.42522 36.614 8.79422 36.614C8.17198 36.6229 7.53221 36.5561 6.87491 36.4138C6.22638 36.2803 5.59099 36.0757 4.96875 35.7999Z" fill="#D4D4D5"/>
<path d="M13.6697 36.4138L17.6924 27.0715H20.7422L24.7649 36.4138H21.5573L18.5863 28.5663H19.7957L16.8247 36.4138H13.6697ZM16.0623 34.7856L16.851 32.5167H21.084L21.8728 34.7856H16.0623Z" fill="#D4D4D5"/>
<path d="M31.1881 33.9715L30.5177 34.6521V27.0715H33.5675V34.6521L32.8839 33.9715H36.0915L35.408 34.6521V27.0715H38.4578V36.4138H25.6142V27.0715H28.6641V34.6521L27.9936 33.9715H31.1881ZM36.7357 38.2422V35.7331L37.4061 36.4138H35.3422V33.9715H39.5752V38.2422H36.7357Z" fill="#D4D4D5"/>
<path d="M40.6088 36.4138V27.0715H43.6587V31.9295L46.8268 27.0715H49.7452V36.4138H46.6954V31.5692L43.5404 36.4138H40.6088Z" fill="#D4D4D5"/>
<path d="M53.47 36.4138V28.8332L54.1404 29.5139H50.775V27.0715H59.2147V29.5139H55.8494L56.5198 28.8332V36.4138H53.47Z" fill="#D4D4D5"/>
<path d="M59.0001 36.4138L63.0227 27.0715H66.0726L70.0952 36.4138H66.8876L63.9167 28.5663H65.1261L62.1551 36.4138H59.0001ZM61.3926 34.7856L62.1814 32.5167H66.4144L67.2031 34.7856H61.3926Z" fill="#D4D4D5"/>
<path d="M79.5789 36.6273C78.8252 36.6273 78.1285 36.5072 77.4887 36.267C76.8577 36.0267 76.3099 35.6886 75.8455 35.2527C75.381 34.8078 75.0173 34.2873 74.7543 33.6912C74.5002 33.0951 74.3731 32.4456 74.3731 31.7427C74.3731 31.0309 74.5002 30.3814 74.7543 29.7941C75.0173 29.198 75.381 28.682 75.8455 28.246C76.3099 27.8011 76.8577 27.4586 77.4887 27.2184C78.1285 26.9781 78.8208 26.858 79.5658 26.858C80.3195 26.858 81.0118 26.9781 81.6428 27.2184C82.2738 27.4586 82.8216 27.8011 83.2861 28.246C83.7505 28.682 84.1099 29.198 84.364 29.7941C84.6269 30.3814 84.7584 31.0309 84.7584 31.7427C84.7584 32.4456 84.6269 33.0951 84.364 33.6912C84.1099 34.2873 83.7505 34.8078 83.2861 35.2527C82.8216 35.6886 82.2738 36.0267 81.6428 36.267C81.0118 36.5072 80.3238 36.6273 79.5789 36.6273ZM79.5658 34.0782C79.855 34.0782 80.1223 34.0248 80.3677 33.9181C80.6218 33.8113 80.8409 33.66 81.025 33.4643C81.2178 33.2597 81.3668 33.015 81.4719 32.7303C81.5771 32.4367 81.6297 32.1075 81.6297 31.7427C81.6297 31.3779 81.5771 31.0531 81.4719 30.7684C81.3668 30.4748 81.2178 30.2301 81.025 30.0344C80.8409 29.8297 80.6218 29.674 80.3677 29.5673C80.1223 29.4605 79.855 29.4071 79.5658 29.4071C79.2765 29.4071 79.0049 29.4605 78.7507 29.5673C78.5053 29.674 78.2862 29.8297 78.0934 30.0344C77.9094 30.2301 77.7648 30.4748 77.6596 30.7684C77.5544 31.0531 77.5018 31.3779 77.5018 31.7427C77.5018 32.1075 77.5544 32.4367 77.6596 32.7303C77.7648 33.015 77.9094 33.2597 78.0934 33.4643C78.2862 33.66 78.5053 33.8113 78.7507 33.9181C79.0049 34.0248 79.2765 34.0782 79.5658 34.0782Z" fill="#D4D4D5"/>
<path d="M87.8368 36.4138V28.8332L88.5072 29.5139H85.1419V27.0715H93.5816V29.5139H90.2162L90.8867 28.8332V36.4138H87.8368Z" fill="#D4D4D5"/>
<path d="M97.9018 35.7999L98.8088 33.6245C99.1945 33.7846 99.5888 33.9092 99.992 33.9981C100.404 34.0871 100.798 34.145 101.175 34.1716C101.552 34.1894 101.885 34.1716 102.174 34.1183C102.472 34.0649 102.709 33.9759 102.884 33.8513C103.059 33.7268 103.147 33.5622 103.147 33.3575C103.147 33.144 103.059 32.9972 102.884 32.9171C102.709 32.837 102.494 32.797 102.24 32.797H99.7553V30.5282H101.977C102.24 30.5282 102.437 30.4792 102.569 30.3814C102.709 30.2746 102.779 30.1367 102.779 29.9676C102.779 29.7808 102.7 29.634 102.542 29.5272C102.393 29.4205 102.187 29.3493 101.924 29.3137C101.67 29.2692 101.381 29.2647 101.057 29.3003C100.733 29.327 100.395 29.3938 100.045 29.5005C99.7028 29.5984 99.3697 29.7274 99.0455 29.8876L98.1384 27.592C98.7869 27.2895 99.4661 27.0849 100.176 26.9781C100.895 26.8625 101.591 26.8402 102.266 26.9114C102.95 26.9737 103.563 27.1205 104.107 27.3518C104.659 27.5831 105.097 27.8901 105.421 28.2727C105.746 28.6464 105.908 29.0912 105.908 29.6073C105.908 30.0522 105.789 30.4525 105.553 30.8084C105.316 31.1554 104.992 31.4268 104.58 31.6225C104.177 31.8183 103.717 31.9162 103.2 31.9162L103.265 31.2889C103.87 31.2889 104.396 31.4001 104.843 31.6225C105.299 31.8361 105.649 32.1297 105.895 32.5034C106.149 32.8771 106.276 33.3042 106.276 33.7846C106.276 34.2295 106.157 34.6299 105.921 34.9858C105.684 35.3328 105.356 35.6308 104.935 35.8799C104.523 36.1202 104.041 36.3026 103.489 36.4271C102.945 36.5517 102.358 36.614 101.727 36.614C101.105 36.6229 100.465 36.5561 99.8079 36.4138C99.1594 36.2803 98.524 36.0757 97.9018 35.7999Z" fill="#D4D4D5"/>
<path d="M106.603 36.4138L110.625 27.0715H113.675L117.698 36.4138H114.49L111.519 28.5663H112.729L109.758 36.4138H106.603ZM108.995 34.7856L109.784 32.5167H114.017L114.806 34.7856H108.995Z" fill="#D4D4D5"/>
<path d="M123.046 36.6273C122.31 36.6273 121.626 36.5117 120.995 36.2803C120.373 36.0401 119.83 35.702 119.365 35.266C118.91 34.83 118.555 34.314 118.301 33.7179C118.046 33.1218 117.919 32.4634 117.919 31.7427C117.919 31.022 118.046 30.3636 118.301 29.7674C118.555 29.1713 118.91 28.6553 119.365 28.2193C119.83 27.7833 120.373 27.4497 120.995 27.2184C121.626 26.9781 122.31 26.858 123.046 26.858C123.949 26.858 124.746 27.0182 125.439 27.3385C126.14 27.6588 126.718 28.1214 127.174 28.7265L125.215 30.5015C124.944 30.1545 124.641 29.8876 124.308 29.7007C123.984 29.505 123.616 29.4071 123.204 29.4071C122.88 29.4071 122.586 29.4605 122.323 29.5673C122.06 29.674 121.832 29.8297 121.64 30.0344C121.456 30.239 121.311 30.4881 121.206 30.7817C121.101 31.0665 121.048 31.3868 121.048 31.7427C121.048 32.0986 121.101 32.4233 121.206 32.7169C121.311 33.0016 121.456 33.2463 121.64 33.451C121.832 33.6556 122.06 33.8113 122.323 33.9181C122.586 34.0248 122.88 34.0782 123.204 34.0782C123.616 34.0782 123.984 33.9848 124.308 33.798C124.641 33.6022 124.944 33.3308 125.215 32.9838L127.174 34.7589C126.718 35.355 126.14 35.8177 125.439 36.1469C124.746 36.4672 123.949 36.6273 123.046 36.6273Z" fill="#D4D4D5"/>
<path d="M130.137 36.4138V28.8332L130.808 29.5139H127.443V27.0715H135.882V29.5139H132.517L133.187 28.8332V36.4138H130.137Z" fill="#D4D4D5"/>
<path d="M136.905 36.4138V27.0715H141.336C142.194 27.0715 142.935 27.2139 143.557 27.4986C144.188 27.7833 144.675 28.1926 145.016 28.7265C145.358 29.2514 145.529 29.8742 145.529 30.5949C145.529 31.3156 145.358 31.9384 145.016 32.4634C144.675 32.9883 144.188 33.3976 143.557 33.6912C142.935 33.9759 142.194 34.1183 141.336 34.1183H138.627L140.008 32.7703V36.4138H136.905ZM140.008 33.1173L138.627 31.6893H141.138C141.568 31.6893 141.883 31.5914 142.085 31.3957C142.295 31.1999 142.4 30.933 142.4 30.5949C142.4 30.2568 142.295 29.9899 142.085 29.7941C141.883 29.5984 141.568 29.5005 141.138 29.5005H138.627L140.008 28.0725V33.1173Z" fill="#D4D4D5"/>
<path d="M151.291 36.6273C150.537 36.6273 149.841 36.5072 149.201 36.267C148.57 36.0267 148.022 35.6886 147.558 35.2527C147.093 34.8078 146.729 34.2873 146.466 33.6912C146.212 33.0951 146.085 32.4456 146.085 31.7427C146.085 31.0309 146.212 30.3814 146.466 29.7941C146.729 29.198 147.093 28.682 147.558 28.246C148.022 27.8011 148.57 27.4586 149.201 27.2184C149.841 26.9781 150.533 26.858 151.278 26.858C152.032 26.858 152.724 26.9781 153.355 27.2184C153.986 27.4586 154.534 27.8011 154.998 28.246C155.463 28.682 155.822 29.198 156.076 29.7941C156.339 30.3814 156.47 31.0309 156.47 31.7427C156.47 32.4456 156.339 33.0951 156.076 33.6912C155.822 34.2873 155.463 34.8078 154.998 35.2527C154.534 35.6886 153.986 36.0267 153.355 36.267C152.724 36.5072 152.036 36.6273 151.291 36.6273ZM151.278 34.0782C151.567 34.0782 151.834 34.0248 152.08 33.9181C152.334 33.8113 152.553 33.66 152.737 33.4643C152.93 33.2597 153.079 33.015 153.184 32.7303C153.289 32.4367 153.342 32.1075 153.342 31.7427C153.342 31.3779 153.289 31.0531 153.184 30.7684C153.079 30.4748 152.93 30.2301 152.737 30.0344C152.553 29.8297 152.334 29.674 152.08 29.5673C151.834 29.4605 151.567 29.4071 151.278 29.4071C150.989 29.4071 150.717 29.4605 150.463 29.5673C150.217 29.674 149.998 29.8297 149.805 30.0344C149.621 30.2301 149.477 30.4748 149.372 30.7684C149.267 31.0531 149.214 31.3779 149.214 31.7427C149.214 32.1075 149.267 32.4367 149.372 32.7303C149.477 33.015 149.621 33.2597 149.805 33.4643C149.998 33.66 150.217 33.8113 150.463 33.9181C150.717 34.0248 150.989 34.0782 151.278 34.0782Z" fill="#D4D4D5"/>
<path d="M157.587 36.4138V27.0715H160.637V31.9295L163.805 27.0715H166.724V36.4138H163.674V31.5692L160.519 36.4138H157.587ZM162.149 26.5377C161.106 26.5377 160.365 26.342 159.927 25.9505C159.498 25.5501 159.283 24.9807 159.283 24.2422H161.347C161.347 24.5358 161.404 24.7538 161.518 24.8961C161.64 25.0296 161.851 25.0963 162.149 25.0963C162.455 25.0963 162.67 25.0296 162.793 24.8961C162.916 24.7538 162.977 24.5358 162.977 24.2422H165.041C165.041 24.9807 164.817 25.5501 164.37 25.9505C163.932 26.342 163.192 26.5377 162.149 26.5377Z" fill="#D4D4D5"/>
<path d="M173.932 33.9715L173.261 34.6521V27.0715H176.311V34.6521L175.628 33.9715H178.835L178.152 34.6521V27.0715H181.202V36.4138H168.358V27.0715H171.408V34.6521L170.737 33.9715H173.932ZM179.479 38.2422V35.7331L180.15 36.4138H178.086V33.9715H182.319V38.2422H179.479Z" fill="#D4D4D5"/>
<path d="M183.353 36.4138V27.0715H186.402V31.9295L189.571 27.0715H192.489V36.4138H189.439V31.5692L186.284 36.4138H183.353Z" fill="#D4D4D5"/>
<path d="M199.776 36.4138L197.489 32.0363L199.96 30.5682L203.273 36.4138H199.776ZM194.045 36.4138V27.0715H197.147V36.4138H194.045ZM196.253 33.0372V30.5549H199.737V33.0372H196.253ZM200.263 32.0763L197.41 31.7827L200.052 27.0715H203.286L200.263 32.0763Z" fill="#D4D4D5"/>
<path d="M202.874 36.4138L206.896 27.0715H209.946L213.969 36.4138H210.761L207.79 28.5663H209L206.029 36.4138H202.874ZM205.266 34.7856L206.055 32.5167H210.288L211.077 34.7856H205.266Z" fill="#D4D4D5"/>
<defs>
<clipPath id="clip0_6426_6574">
<rect width="218" height="20" fill="white" transform="translate(0 1.75781)"/>
</clipPath>
</defs>
</svg>
