<svg width="649" height="288" viewBox="0 0 649 288" fill="none" xmlns="http://www.w3.org/2000/svg">
<path d="M0 185.639V138.918L92.2574 4.9836H167.43L78.5896 138.918L44.4202 128.639H212.782V185.639H0ZM112.759 223.016V185.639L114.933 128.639V95.3115H183.893V223.016H112.759Z" fill="#EFAF33"/>
<path d="M321.476 228C302.217 228 285.132 223.536 270.222 214.607C255.519 205.678 243.922 192.699 235.431 175.672C227.148 158.645 223.006 138.087 223.006 114C223.006 89.9126 227.148 69.3552 235.431 52.3279C243.922 35.3005 255.519 22.3224 270.222 13.3934C285.132 4.46448 302.217 0 321.476 0C340.735 0 357.716 4.46448 372.42 13.3934C387.33 22.3224 398.927 35.3005 407.21 52.3279C415.701 69.3552 419.946 89.9126 419.946 114C419.946 138.087 415.701 158.645 407.21 175.672C398.927 192.699 387.33 205.678 372.42 214.607C357.716 223.536 340.735 228 321.476 228ZM321.476 169.131C326.239 169.131 330.485 167.47 334.212 164.148C337.94 160.825 340.839 155.115 342.91 147.016C345.188 138.918 346.327 127.913 346.327 114C346.327 99.8798 345.188 88.8743 342.91 80.9836C340.839 72.8852 337.94 67.1749 334.212 63.8525C330.485 60.5301 326.239 58.8689 321.476 58.8689C316.713 58.8689 312.468 60.5301 308.74 63.8525C305.013 67.1749 302.01 72.8852 299.732 80.9836C297.661 88.8743 296.626 99.8798 296.626 114C296.626 127.913 297.661 138.918 299.732 147.016C302.01 155.115 305.013 160.825 308.74 164.148C312.468 167.47 316.713 169.131 321.476 169.131Z" fill="#EFAF33"/>
<path d="M436.218 185.639V138.918L528.475 4.9836H603.648L514.807 138.918L480.638 128.639H649V185.639H436.218ZM548.977 223.016V185.639L551.151 128.639V95.3115H620.111V223.016H548.977Z" fill="#EFAF33"/>
<path d="M18.0104 282.463C15.4243 282.463 13.0229 282.067 10.8062 281.274C8.62035 280.45 6.71156 279.291 5.07985 277.796C3.47893 276.301 2.23205 274.532 1.33923 272.488C0.446411 270.444 0 268.187 0 265.716C0 263.245 0.446411 260.988 1.33923 258.944C2.23205 256.9 3.47893 255.131 5.07985 253.636C6.71156 252.141 8.62035 250.997 10.8062 250.204C13.0229 249.38 15.4243 248.969 18.0104 248.969C21.1814 248.969 23.983 249.518 26.4152 250.616C28.8782 251.714 30.9101 253.3 32.511 255.375L25.6301 261.46C24.6757 260.271 23.6136 259.356 22.4437 258.715C21.3046 258.044 20.0115 257.708 18.5645 257.708C17.4254 257.708 16.3941 257.891 15.4704 258.257C14.5468 258.623 13.7464 259.157 13.0691 259.859C12.4225 260.561 11.9146 261.415 11.5451 262.421C11.1757 263.398 10.9909 264.496 10.9909 265.716C10.9909 266.936 11.1757 268.05 11.5451 269.056C11.9146 270.032 12.4225 270.871 13.0691 271.573C13.7464 272.275 14.5468 272.808 15.4704 273.174C16.3941 273.541 17.4254 273.724 18.5645 273.724C20.0115 273.724 21.3046 273.403 22.4437 272.763C23.6136 272.092 24.6757 271.161 25.6301 269.971L32.511 276.057C30.9101 278.101 28.8782 279.687 26.4152 280.816C23.983 281.914 21.1814 282.463 18.0104 282.463Z" fill="white"/>
<path d="M42.9211 281.731V255.741L45.2763 258.074H33.4541V249.701H63.102V258.074H51.2798L53.635 255.741V281.731H42.9211Z" fill="white"/>
<path d="M66.6961 281.731V249.701H82.2589C85.276 249.701 87.8775 250.189 90.0634 251.165C92.28 252.141 93.9887 253.544 95.1894 255.375C96.3901 257.174 96.9905 259.31 96.9905 261.781C96.9905 264.252 96.3901 266.387 95.1894 268.187C93.9887 269.987 92.28 271.39 90.0634 272.397C87.8775 273.373 85.276 273.861 82.2589 273.861H72.7457L77.5947 269.239V281.731H66.6961ZM77.5947 270.429L72.7457 265.533H81.5662C83.0747 265.533 84.1831 265.197 84.8912 264.526C85.6301 263.855 85.9995 262.94 85.9995 261.781C85.9995 260.622 85.6301 259.706 84.8912 259.035C84.1831 258.364 83.0747 258.029 81.5662 258.029H72.7457L77.5947 253.133V270.429Z" fill="white"/>
<path d="M95.946 281.731L110.077 249.701H120.791L134.922 281.731H123.654L113.217 254.826H117.466L107.029 281.731H95.946ZM104.351 276.149L107.122 268.37H121.992L124.763 276.149H104.351Z" fill="white"/>
<path d="M158.872 249.701H169.77V281.731H158.872V249.701ZM148.805 281.731H137.906V249.701H148.805V281.731ZM159.611 269.926H148.066V261.049H159.611V269.926Z" fill="white"/>
<path d="M175.518 281.731V249.701H186.232V266.357L197.361 249.701H207.613V281.731H196.899V265.121L185.816 281.731H175.518Z" fill="white"/>
<path d="M213.355 281.731V249.701H224.069V273.357H234.321V249.701H245.035V281.731H213.355ZM239.308 288V279.398L241.571 281.731H234.321V273.357H249.283V288H239.308Z" fill="white"/>
<path d="M250.677 281.731L264.809 249.701H275.523L289.654 281.731H278.386L267.949 254.826H272.198L261.761 281.731H250.677ZM259.082 276.149L261.853 268.37H276.723L279.494 276.149H259.082Z" fill="white"/>
<path d="M327.448 249.701H338.347V281.731H327.448V249.701ZM317.381 281.731H306.483V249.701H317.381V281.731ZM328.187 269.926H316.642V261.049H328.187V269.926Z" fill="white"/>
<path d="M354.069 261.598H368.478V269.377H354.069V261.598ZM354.808 273.586H370.971V281.731H344.094V249.701H370.371V257.846H354.808V273.586Z" fill="white"/>
<path d="M410.203 249.701H421.102V281.731H410.203V249.701ZM400.136 281.731H389.238V249.701H400.136V281.731ZM410.942 269.926H399.397V261.049H410.942V269.926Z" fill="white"/>
<path d="M424.125 281.731L438.256 249.701H448.97L463.101 281.731H451.833L441.396 254.826H445.645L435.208 281.731H424.125ZM432.53 276.149L435.3 268.37H450.17L452.941 276.149H432.53Z" fill="white"/>
<path d="M466.085 281.731V249.701H476.798V266.357L487.928 249.701H498.18V281.731H487.466V265.121L476.383 281.731H466.085ZM482.109 247.87C478.446 247.87 475.844 247.199 474.305 245.857C472.796 244.484 472.042 242.532 472.042 240H479.292C479.292 241.007 479.492 241.754 479.893 242.242C480.324 242.7 481.062 242.929 482.109 242.929C483.187 242.929 483.941 242.7 484.372 242.242C484.803 241.754 485.019 241.007 485.019 240H492.269C492.269 242.532 491.484 244.484 489.914 245.857C488.374 247.199 485.773 247.87 482.109 247.87Z" fill="white"/>
<path d="M525.211 277.155V258.074H517.776L517.684 260.362C517.622 262.04 517.514 263.611 517.36 265.075C517.207 266.54 516.991 267.882 516.714 269.102C516.468 270.322 516.144 271.405 515.744 272.351C515.344 273.266 514.851 274.029 514.266 274.639L502.767 273.357C503.783 273.357 504.615 273.022 505.261 272.351C505.938 271.649 506.477 270.688 506.877 269.468C507.278 268.217 507.57 266.753 507.755 265.075C507.97 263.367 508.124 261.491 508.217 259.447L508.586 249.701H535.925V277.155H525.211ZM501.844 288V273.357H540.174V288H530.199V281.731H511.819V288H501.844Z" fill="white"/>
<path d="M553.809 261.598H568.217V269.377H553.809V261.598ZM554.548 273.586H570.711V281.731H543.834V249.701H570.11V257.846H554.548V273.586Z" fill="white"/>
<path d="M596.098 249.701H606.996V281.731H596.098V249.701ZM586.03 281.731H575.132V249.701H586.03V281.731ZM596.837 269.926H585.291V261.049H596.837V269.926Z" fill="white"/>
<path d="M610.019 281.731L624.15 249.701H634.864L648.995 281.731H637.727L627.29 254.826H631.539L621.102 281.731H610.019ZM618.424 276.149L621.195 268.37H636.065L638.836 276.149H618.424Z" fill="white"/>
</svg>
