<svg width="50" height="50" viewBox="0 0 50 50" fill="none" xmlns="http://www.w3.org/2000/svg">
<path fill-rule="evenodd" clip-rule="evenodd" d="M24.5 9C24.5 4.30558 28.3056 0.5 33 0.5H33.5C38.1944 0.5 42 4.30558 42 9V17H47.5V18H42V21.5H49.5V33H19.5V46C19.5 47.3807 20.6193 48.5 22 48.5H25C26.3807 48.5 27.5 47.3807 27.5 46V41.5C27.5 39.567 29.067 38 31 38H49V39H31C29.6193 39 28.5 40.1193 28.5 41.5V46C28.5 47.933 26.933 49.5 25 49.5H22C20.067 49.5 18.5 47.933 18.5 46V33H7C3.41015 33 0.5 30.0899 0.5 26.5V21.5H41V18H35.5V17H41V9C41 4.85786 37.6421 1.5 33.5 1.5H33C28.8579 1.5 25.5 4.85786 25.5 9V10H24.5V9ZM1.5 22.5V24.5H48.5V22.5H1.5ZM48.5 25.5H1.5V26.5C1.5 29.5376 3.96243 32 7 32H48.5V25.5Z" fill="#545454"/>
</svg>
