<svg width="16" height="16" viewBox="0 0 16 16" fill="none" xmlns="http://www.w3.org/2000/svg">
<path d="M7.99935 2.66406C8.36754 2.66406 8.66602 2.96254 8.66602 3.33073V7.33073H12.666C13.0342 7.33073 13.3327 7.62921 13.3327 7.9974C13.3327 8.36559 13.0342 8.66407 12.666 8.66407H8.66602V12.6641C8.66602 13.0323 8.36754 13.3307 7.99935 13.3307C7.63116 13.3307 7.33268 13.0323 7.33268 12.6641V8.66407H3.33268C2.96449 8.66407 2.66602 8.36559 2.66602 7.9974C2.66602 7.62921 2.96449 7.33073 3.33268 7.33073H7.33268V3.33073C7.33268 2.96254 7.63116 2.66406 7.99935 2.66406Z" fill="#EFAF33"/>
<path fill-rule="evenodd" clip-rule="evenodd" d="M6.83268 3.33073C6.83268 2.6864 7.35502 2.16406 7.99935 2.16406C8.64368 2.16406 9.16602 2.6864 9.16602 3.33073V6.83073H12.666C13.3103 6.83073 13.8327 7.35307 13.8327 7.9974C13.8327 8.64173 13.3103 9.16407 12.666 9.16407H9.16602V12.6641C9.16602 13.3084 8.64368 13.8307 7.99935 13.8307C7.35502 13.8307 6.83268 13.3084 6.83268 12.6641V9.16407H3.33268C2.68835 9.16407 2.16602 8.64173 2.16602 7.9974C2.16602 7.35307 2.68835 6.83073 3.33268 6.83073H6.83268V3.33073ZM7.99935 3.16406C7.9073 3.16406 7.83268 3.23868 7.83268 3.33073V7.33073C7.83268 7.60687 7.60882 7.83073 7.33268 7.83073H3.33268C3.24063 7.83073 3.16602 7.90535 3.16602 7.9974C3.16602 8.08945 3.24064 8.16407 3.33268 8.16407H7.33268C7.60882 8.16407 7.83268 8.38792 7.83268 8.66407V12.6641C7.83268 12.7561 7.9073 12.8307 7.99935 12.8307C8.0914 12.8307 8.16602 12.7561 8.16602 12.6641V8.66407C8.16602 8.38792 8.38987 8.16407 8.66602 8.16407H12.666C12.7581 8.16407 12.8327 8.08945 12.8327 7.9974C12.8327 7.90535 12.7581 7.83073 12.666 7.83073H8.66602C8.38987 7.83073 8.16602 7.60687 8.16602 7.33073V3.33073C8.16602 3.23868 8.0914 3.16406 7.99935 3.16406Z" fill="#EFAF33"/>
</svg>
