<svg width="32" height="32" viewBox="0 0 32 32" fill="none" xmlns="http://www.w3.org/2000/svg">
<path d="M19.5172 7.06277C19.1082 6.90196 18.819 6.51893 18.819 6.07946V5.26248C18.819 4.61767 19.4219 4.14037 20.0312 4.35133C23.6012 5.58735 26.4141 8.40126 27.6494 11.9768C27.8599 12.5861 27.3827 13.1887 26.738 13.1887H25.9193C25.4804 13.1887 25.0977 12.9003 24.937 12.4919C23.9587 10.0064 21.9958 8.03735 19.5172 7.06277ZM7.06272 12.4905C6.90197 12.8995 6.51893 13.1887 6.07946 13.1887H5.26199C4.61734 13.1887 4.14005 12.5861 4.35058 11.9768C5.5862 8.40053 8.40053 5.5862 11.9768 4.35058C12.5861 4.14005 13.1887 4.61734 13.1887 5.26199V6.0807C13.1887 6.51957 12.9003 6.90228 12.492 7.06315C10.0064 8.04239 8.03729 10.0109 7.06272 12.4905ZM12.492 24.9446C12.9003 25.1054 13.1887 25.4881 13.1887 25.927V26.738C13.1887 27.3827 12.5861 27.8599 11.9768 27.6494C8.40126 26.4141 5.58735 23.6012 4.35133 20.0312C4.14037 19.4219 4.61767 18.819 5.26248 18.819H6.07946C6.51893 18.819 6.90197 19.1082 7.06272 19.5172C8.03729 21.9968 10.0064 23.9653 12.492 24.9446ZM24.9373 19.5172C25.098 19.1082 25.4811 18.819 25.9205 18.819H26.7375C27.3823 18.819 27.8596 19.4219 27.6487 20.0312C26.413 23.6005 23.6005 26.413 20.0312 27.6487C19.4219 27.8596 18.819 27.3823 18.819 26.7375V25.9205C18.819 25.4811 19.1082 25.098 19.5172 24.9373C21.9958 23.9632 23.9632 21.9958 24.9373 19.5172Z" fill="#232226"/>
</svg>
