<svg width="468" height="288" viewBox="0 0 468 288" fill="none" xmlns="http://www.w3.org/2000/svg">
<path d="M272.5 48.5C272.5 35.1667 277 23.6667 286 14C295.333 4.66667 307.167 0 321.5 0C335.833 0 347.333 4.66667 356 14C365 23.6667 369.5 35.1667 369.5 48.5C369.5 62.1667 365 73.6667 356 83C347.333 92.3333 335.833 97 321.5 97C307.167 97 295.333 92.3333 286 83C277 73.6667 272.5 62.1667 272.5 48.5ZM93 48.5C93 35.1667 97.5 23.6667 106.5 14C115.833 4.66667 127.667 0 142 0C156.333 0 167.833 4.66667 176.5 14C185.5 23.6667 190 35.1667 190 48.5C190 62.1667 185.5 73.6667 176.5 83C167.833 92.3333 156.333 97 142 97C127.667 97 115.833 92.3333 106.5 83C97.5 73.6667 93 62.1667 93 48.5Z" fill="#FBECD8"/>
<path d="M-3.05176e-05 212.859C30.3333 192.859 65.3333 177.359 105 166.359C145 155.693 188 150.359 234 150.359C280 150.359 323 155.693 363 166.359C403.333 177.359 438.333 192.859 468 212.859V287.359C430.333 266.359 392.333 251.026 354 241.359C316 231.693 276 226.859 234 226.859C192 226.859 151.833 231.693 113.5 241.359C75.5 251.026 37.6666 266.359 -3.05176e-05 287.359V212.859Z" fill="#FBECD8"/>
</svg>
