<svg width="40" height="40" viewBox="0 0 40 40" fill="none" xmlns="http://www.w3.org/2000/svg">
<path d="M16.6771 6.66146C11.1542 6.66146 6.67708 11.1386 6.67708 16.6615C6.67708 22.1843 11.1542 26.6615 16.6771 26.6615C22.1999 26.6615 26.6771 22.1843 26.6771 16.6615C26.6771 11.1386 22.1999 6.66146 16.6771 6.66146ZM3.34375 16.6615C3.34375 9.29766 9.31329 3.32812 16.6771 3.32812C24.0409 3.32812 30.0104 9.29766 30.0104 16.6615C30.0104 19.7426 28.9653 22.5797 27.2102 24.8375L36.1889 33.8163C36.8398 34.4672 36.8398 35.5224 36.1889 36.1733C35.5381 36.8242 34.4828 36.8242 33.8319 36.1733L24.8532 27.1946C22.5954 28.9497 19.7583 29.9948 16.6771 29.9948C9.31329 29.9948 3.34375 24.0253 3.34375 16.6615Z" fill="#EFAF33"/>
</svg>
