<svg width="80" height="80" viewBox="0 0 80 80" fill="none" xmlns="http://www.w3.org/2000/svg">
<g clip-path="url(#clip0_6701_6312)">
<path fill-rule="evenodd" clip-rule="evenodd" d="M25.1279 79.991C23.8882 79.9884 22.543 79.9856 21.0829 79.9831L3.33086 79.948C1.73638 79.2037 0.746349 78.216 0.00149642 76.6601C0.00149848 53.0971 -0.106239 29.5313 0.0294643 5.96858C0.0434253 3.54408 0.0643743 2.2562 0.096344 1.5582C0.112113 1.21387 0.13138 0.989556 0.159226 0.837021C0.307605 0.0241488 1.21204 0.0511298 1.87465 0.0307388C6.77288 -0.119961 11.7062 -4.2832e-07 16.6056 0C17.1131 0.79598 17.1878 1.38393 17.2104 2.34451C17.2386 3.53709 17.2415 5.69734 17.2415 9.7088L17.2415 18.5197L16.6864 19.0014C16.3438 19.3083 15.9286 19.4844 15.494 19.4844C15.0553 19.4844 14.6429 19.3047 14.3166 18.9824L13.8288 18.5008L13.8288 3.19553H3.41413V4.64816H6.0867L6.63329 5.18789C7.3422 5.8879 7.3422 6.83635 6.63329 7.53636L6.0867 8.0761H3.41413L3.41413 9.87733C4.26103 9.87733 5.12065 9.8435 5.96272 9.95527C6.75587 10.0605 7.2484 11.0097 7.16505 11.7504C7.09531 12.3702 6.62088 12.8007 6.22954 13.2404L3.41413 13.3173L3.41413 15.1065H9.36996L9.79887 15.53C10.1469 15.8737 10.3425 16.3066 10.3425 16.7624C10.3425 17.2182 10.1469 17.651 9.79886 17.9947L9.36996 18.4182L3.41413 18.4182L3.41413 20.2074L6.22954 20.2844L6.71173 20.8262L6.71293 20.8275C6.96097 21.1026 7.12498 21.4182 7.16504 21.7743C7.20485 22.128 7.11678 22.4718 6.94933 22.7958C6.64021 23.4034 6.16814 23.5657 5.54155 23.6098C4.83366 23.6598 4.12326 23.6474 3.41413 23.6474L3.41413 25.4486H6.0867L6.63329 25.9884C7.3422 26.6884 7.3422 27.6368 6.63329 28.3369L6.0867 28.8766H3.41412L3.41412 30.6778C5.01344 30.6778 6.61617 30.6493 8.21462 30.7116C8.99085 30.7419 9.59344 30.7441 10.0662 31.4714C10.2197 31.7076 10.3572 32.0222 10.3572 32.3337C10.3572 33.6101 9.22578 34.021 8.18876 34.0717C6.60073 34.1495 5.00362 34.1058 3.41412 34.1058L3.41412 35.907H6.20438L6.69213 36.3886C7.36991 37.0579 7.36991 38.0678 6.69213 38.7371L6.20438 39.2187H3.41412V41.0079L6.22954 41.0848L6.71172 41.6267L6.71293 41.628C6.96098 41.9031 7.12497 42.2187 7.16504 42.5748C7.20483 42.9285 7.11682 43.2721 6.94945 43.5961C6.46358 44.5514 5.32177 44.4479 4.39679 44.4479H3.41412V46.2431L9.36585 46.3096C9.84825 46.8036 10.2984 47.1861 10.2984 47.9631C10.2984 48.7401 9.84826 49.1226 9.36585 49.6166L3.41412 49.6831V51.4783C4.56484 51.4783 6.32872 51.1096 6.94945 52.3302C7.11682 52.6541 7.20483 52.9978 7.16504 53.3514C7.12497 53.7075 6.96097 54.0232 6.71293 54.2982L6.22954 54.8414L3.41412 54.9183V56.7075H6.20438L6.69213 57.1891C7.34748 57.8363 7.34749 58.8905 6.69213 59.5376L6.20438 60.0192H3.41527L3.42589 64.6024L3.42589 64.6035L3.42589 67.5868L3.99563 66.4529C4.82589 64.7959 5.35703 63.7928 5.84453 63.1319C6.3601 62.4329 6.83318 62.1074 7.50518 61.7788L7.50991 61.7765L7.52429 61.7697C7.88123 61.5997 8.23032 61.489 8.62596 61.4509C9.10037 61.4053 9.8582 61.3964 11.2915 61.3796L11.3437 61.379L11.3457 61.3789L13.8288 61.3402L13.8288 21.836L14.2365 21.3529L14.2378 21.3514C14.4799 21.0606 14.7811 20.8487 15.1438 20.7654C15.6785 20.6425 16.6956 20.8716 16.9543 21.4463C17.0422 21.6416 17.0945 21.8969 17.1331 22.2206C17.1728 22.5534 17.2023 23.0011 17.2249 23.606C17.3032 25.7009 17.3024 29.8273 17.3008 38.0338C17.3006 39.2861 17.3003 40.6335 17.3003 42.0832L17.3003 61.3456L39.0997 61.4141C39.7259 61.7178 40.3854 61.9871 40.8883 62.4837C41.6109 63.1972 41.8829 63.9658 41.9257 64.9483C41.9628 65.7978 41.972 67.4019 41.9894 70.4342C42.0056 73.6641 42.0167 75.8953 41.9023 76.8732C41.8404 77.4028 41.7379 77.7794 41.5509 78.1014C41.3853 78.3866 41.2199 78.7852 41.0015 79C40.9463 79.0545 41.0535 78.9424 41.0015 79C40.8075 79.2163 40.3353 79.4571 40.0675 79.5825C39.6582 79.7742 39.0464 79.8638 37.9489 79.9185C36.0415 80.0136 32.3999 80.006 25.1279 79.991ZM38.2996 76.5784L21.2603 76.5784C12.7201 76.5784 8.41786 76.5784 6.20096 76.5494C5.08732 76.5348 4.51915 76.513 4.20791 76.4827C3.89819 76.4526 3.71755 76.3146 3.56453 76.0345C3.38018 75.697 3.43309 75.5164 3.58019 75.1867C4.9515 72.113 6.52759 69.0474 8.13817 66.0895C8.48265 65.4568 8.70645 65.0986 8.80207 64.9797C9.48238 64.8135 10.2529 64.8799 10.9446 64.8692C12.9201 64.8388 16.5988 64.8301 23.5675 64.8185C27.7444 64.8126 31.4471 64.8185 34.1243 64.833C35.4631 64.8402 36.5442 64.8497 37.2996 64.8609C37.6777 64.8665 37.9719 64.8725 38.1754 64.8789C38.2637 64.8817 38.3322 64.8844 38.3819 64.887C38.3997 64.9006 38.4204 64.9189 38.4368 64.9358L38.2996 76.5784Z" fill="#EFAF33"/>
<path d="M42.6065 29.2812C46.4051 29.2937 49.8022 26.8212 51.0696 23.156C51.2971 22.4993 51.4278 21.6202 51.4672 20.7518C51.5067 19.8811 51.4565 18.975 51.2968 18.2596C50.5588 14.9574 47.8532 12.2989 44.4505 11.5163C43.8263 11.3717 42.9761 11.3382 42.1513 11.3835C41.3241 11.429 40.4687 11.5567 39.8307 11.7629C37.5898 12.4851 35.6459 14.1263 34.6189 16.1925C34.2951 16.8401 34.0802 17.3635 34.0297 17.8178C33.9731 18.3278 34.1246 18.723 34.4253 19.0792C34.6663 19.3653 34.9641 19.5763 35.318 19.6642C35.6729 19.7524 36.0342 19.7041 36.3786 19.5587L36.3811 19.5577C36.6219 19.4545 36.8143 19.3159 37.0008 19.0666C37.1649 18.8472 37.3249 18.5402 37.5287 18.1151C38.546 16.0157 40.4144 14.8095 42.5729 14.8095C44.1027 14.8095 45.2507 15.2922 46.4351 16.4432C49.0744 19.0521 48.3816 23.5018 45.0887 25.17C42.206 26.6276 38.9227 25.4735 37.5325 22.4774C37.2763 21.9172 37.0156 21.3346 36.4135 21.0845C35.2716 20.5974 34.0134 21.3874 34.0134 22.6513C34.0134 23.2019 34.2926 23.7706 34.5291 24.2536C34.8171 24.8419 35.2014 25.4773 35.5857 25.945C37.2578 27.991 39.9649 29.2687 42.6065 29.2812Z" fill="#EFAF33"/>
<path fill-rule="evenodd" clip-rule="evenodd" d="M61.3963 78.1987C63.286 78.2075 64.996 78.2033 65.8042 78.1854C66.7462 78.1645 67.605 77.6339 67.605 76.5222C67.605 75.8446 67.4197 75.2325 66.7277 74.9802C65.7978 74.6413 64.6064 74.7515 63.6342 74.7515H61.6045V69.7641C60.9444 69.0356 60.2559 68.3891 59.2095 68.7934C58.8034 68.9503 58.5014 69.3291 58.1953 69.6241L58.1285 74.7515C57.6614 74.7515 57.0402 74.4349 56.7213 74.0902L56.6638 45.6314H58.1338L58.1338 66.2713C59.4755 67.7089 60.2751 67.6344 61.6045 66.3049V35.8659C63.1135 35.8659 64.7691 35.7698 65.5797 34.2747L65.5807 34.2728C65.7835 33.895 65.8431 33.5045 65.8659 33.0794C65.899 32.4644 65.899 31.3931 65.899 29.3454V29.2682C65.899 27.2319 65.899 26.1606 65.8659 25.5442C65.8105 24.5122 65.3042 23.5272 64.3157 23.075C63.7634 22.8223 62.4872 22.7473 61.6192 22.7473L61.5809 20.6146L61.5809 20.6117C61.5094 17.6117 61.2927 16.2282 60.5654 14.1189L60.5647 14.117C59.0674 9.83031 56.2864 6.38554 52.3659 3.97291C50.0234 2.52866 47.0544 1.57805 44.0929 1.28912L44.0907 1.28891C43.0245 1.18973 40.4843 1.33563 39.1809 1.56493C33.3621 2.5813 28.2536 6.42502 25.5606 11.7989C22.1897 18.5051 23.1536 26.8164 27.9448 32.4546C31.4582 36.579 36.3479 38.9534 41.7792 39.2771C45.5038 39.4983 48.9601 40.56 51.0138 44.0433C51.3272 44.579 51.5757 44.9744 51.8792 45.2237C52.2237 45.5066 52.7852 45.5829 53.1929 45.6199L53.2513 74.8406L53.645 75.628L53.6463 75.6305C55.2376 78.769 58.4305 78.1759 61.3948 78.1987L61.3963 78.1987ZM34.9585 9.24729C33.9359 9.95742 33.9553 8.82643 33.9553 8.10491V7.34364C35.6742 6.24715 37.5199 5.43909 39.5291 5.04221C40.6354 4.82564 42.7055 4.67804 43.6504 4.75586L43.6534 4.7561C46.4016 4.96561 48.8547 5.95742 51.2037 7.34759L51.1689 8.1902L51.1688 8.19337C51.1319 9.25215 51.009 9.77493 49.9181 9.06281L49.915 9.06076C48.752 8.314 47.1385 7.61065 45.7826 7.25642L45.7801 7.25575C43.8203 6.75491 41.4924 6.72237 39.5243 7.20766L39.5227 7.20805C37.866 7.62224 36.3648 8.29338 34.963 9.24418L34.9585 9.24729ZM62.487 32.3951L62.487 26.2181H61.6045V32.3951H62.487ZM51.9979 12.1994C52.6921 11.8817 53.4569 11.1522 53.7157 10.5639C53.8451 10.2933 54.0569 9.35208 54.104 9.08147L54.7864 9.90507C56.7835 12.2961 57.8257 15.0332 58.5632 18.0116L58.6455 42.6606H56.1394L53.6334 42.6489L53.2216 41.9782C52.6097 40.9899 50.8449 39.2721 49.6095 38.4485C47.5976 37.1425 45.7621 36.5778 42.8443 36.4248C41.6912 36.3542 40.2323 36.2013 39.5969 36.0836C34.2789 35.0483 29.9491 31.5421 27.7842 26.5064C25.737 21.7648 26.2194 16.0938 29.0314 11.6699C29.5961 10.7993 30.8433 9.24619 30.9845 9.24619C31.0551 9.24619 30.9845 9.0697 30.9845 9.24619C30.9845 10.8934 32.7791 12.4229 34.3377 12.4229C35.2907 12.4229 35.7496 12.2817 36.6438 11.6934C37.6909 11.011 39.1146 10.3757 40.1617 10.1168C41.7935 9.71606 43.7674 9.74832 45.3739 10.2345C46.5151 10.5757 47.4211 10.9993 48.5271 11.717C48.9271 11.9758 49.4448 12.2347 49.6801 12.3053C50.3625 12.4935 51.4567 12.4464 51.9979 12.1994ZM51.0696 23.156C49.8022 26.8212 46.4051 29.2937 42.6065 29.2812C39.9649 29.2687 37.2578 27.991 35.5857 25.945C35.2014 25.4773 34.8171 24.8419 34.5291 24.2536C34.2926 23.7706 34.0134 23.2019 34.0134 22.6513C34.0134 21.3874 35.2716 20.5974 36.4135 21.0845C37.0156 21.3346 37.2763 21.9172 37.5325 22.4774C38.9227 25.4735 42.206 26.6276 45.0887 25.17C48.3816 23.5018 49.0744 19.0521 46.4351 16.4432C45.2507 15.2922 44.1027 14.8095 42.5729 14.8095C40.4144 14.8095 38.546 16.0157 37.5287 18.1151C37.3249 18.5402 37.1649 18.8472 37.0008 19.0666C36.8143 19.3159 36.6219 19.4545 36.3811 19.5577L36.3786 19.5587C36.0342 19.7041 35.6729 19.7524 35.318 19.6642C34.9641 19.5763 34.6663 19.3653 34.4253 19.0792C34.1246 18.723 33.9731 18.3278 34.0297 17.8178C34.0802 17.3635 34.2951 16.8401 34.6189 16.1925C35.6459 14.1263 37.5898 12.4851 39.8307 11.7629C40.4687 11.5567 41.3241 11.429 42.1513 11.3835C42.9761 11.3382 43.8263 11.3717 44.4505 11.5163C47.8532 12.2989 50.5588 14.9574 51.2968 18.2596C51.4565 18.975 51.5067 19.8811 51.4672 20.7518C51.4278 21.6202 51.2971 22.4993 51.0696 23.156Z" fill="#EFAF33"/>
<path fill-rule="evenodd" clip-rule="evenodd" d="M51.0696 23.156C49.8022 26.8212 46.4051 29.2937 42.6065 29.2812C39.9649 29.2687 37.2578 27.991 35.5857 25.945C35.2014 25.4773 34.8171 24.8419 34.5291 24.2536C34.2926 23.7706 34.0134 23.2019 34.0134 22.6513C34.0134 21.3874 35.2716 20.5974 36.4135 21.0845C37.0156 21.3346 37.2763 21.9172 37.5325 22.4774C38.9227 25.4735 42.206 26.6276 45.0887 25.17C48.3816 23.5018 49.0744 19.0521 46.4351 16.4432C45.2507 15.2922 44.1027 14.8095 42.5729 14.8095C40.4144 14.8095 38.546 16.0157 37.5287 18.1151C37.3249 18.5402 37.1649 18.8472 37.0008 19.0666C36.8143 19.3159 36.6219 19.4545 36.3811 19.5577L36.3786 19.5587C36.0342 19.7041 35.6729 19.7524 35.318 19.6642C34.9641 19.5763 34.6663 19.3653 34.4253 19.0792C34.1246 18.723 33.9731 18.3278 34.0297 17.8178C34.0802 17.3635 34.2951 16.8401 34.6189 16.1925C35.6459 14.1263 37.5898 12.4851 39.8307 11.7629C40.4687 11.5567 41.3241 11.429 42.1513 11.3835C42.9761 11.3382 43.8263 11.3717 44.4505 11.5163C47.8532 12.2989 50.5588 14.9574 51.2968 18.2596C51.4565 18.975 51.5067 19.8811 51.4672 20.7518C51.4278 21.6202 51.2971 22.4993 51.0696 23.156Z" fill="#EFAF33"/>
</g>
<defs>
<clipPath id="clip0_6701_6312">
<rect width="80" height="80" fill="white"/>
</clipPath>
</defs>
</svg>
