<svg width="655" height="152" viewBox="0 0 655 152" fill="none" xmlns="http://www.w3.org/2000/svg">
<path d="M0 56.8393V1.19614H27.9628C34.7894 1.19614 40.0669 2.46798 43.7953 5.01167C47.5762 7.55536 49.4666 11.1324 49.4666 15.7429C49.4666 20.2473 47.7337 23.8244 44.2679 26.474C40.8021 29.0707 36.1285 30.3691 30.2471 30.3691L31.8225 26.0766C38.0715 26.0766 42.9814 27.3219 46.5522 29.8126C50.123 32.3033 51.9085 35.9334 51.9085 40.7028C51.9085 45.6312 49.9655 49.5527 46.0796 52.4674C42.1937 55.382 36.6536 56.8393 29.4594 56.8393H0ZM18.2743 43.7234H28.593C30.1158 43.7234 31.2449 43.3525 31.98 42.6106C32.7677 41.8157 33.1615 40.7028 33.1615 39.272C33.1615 37.8412 32.7677 36.7813 31.98 36.0924C31.2449 35.3505 30.1158 34.9795 28.593 34.9795H18.2743V43.7234ZM18.2743 22.579H26.1512C27.7265 22.579 28.8818 22.2346 29.617 21.5456C30.3521 20.8567 30.7197 19.8499 30.7197 18.525C30.7197 17.1472 30.3521 16.1138 29.617 15.4249C28.8818 14.683 27.7265 14.312 26.1512 14.312H18.2743V22.579Z" fill="white"/>
<path d="M53.8906 56.8393L77.9938 1.19614H96.2681L120.371 56.8393H101.152L83.35 10.0991H90.5967L72.795 56.8393H53.8906ZM68.2265 47.1415L72.9526 33.6282H98.316L103.042 47.1415H68.2265Z" fill="white"/>
<path d="M158.858 42.2926L154.841 46.3466V1.19614H173.115V46.3466L169.019 42.2926H188.239L184.143 46.3466V1.19614H202.417V56.8393H125.46V1.19614H143.735V46.3466L139.718 42.2926H158.858Z" fill="white"/>
<path d="M207.505 56.8393L231.608 1.19614H249.882L273.985 56.8393H254.766L236.964 10.0991H244.211L226.409 56.8393H207.505ZM221.84 47.1415L226.567 33.6282H251.93L256.656 47.1415H221.84Z" fill="white"/>
<path d="M298.83 53.1828L304.265 40.2259C306.576 41.1797 308.939 41.9217 311.354 42.4516C313.822 42.9815 316.185 43.326 318.443 43.485C320.701 43.591 322.697 43.485 324.43 43.167C326.215 42.849 327.633 42.3191 328.683 41.5772C329.733 40.8353 330.259 39.8549 330.259 38.6361C330.259 37.3642 329.733 36.4898 328.683 36.0129C327.633 35.5359 326.346 35.2975 324.824 35.2975H309.936V21.7841H323.248C324.824 21.7841 326.005 21.4927 326.793 20.9097C327.633 20.2738 328.053 19.4524 328.053 18.4455C328.053 17.3327 327.58 16.4583 326.635 15.8223C325.743 15.1864 324.508 14.7625 322.933 14.5505C321.41 14.2855 319.677 14.259 317.734 14.471C315.791 14.63 313.77 15.0274 311.669 15.6634C309.621 16.2463 307.626 17.0147 305.683 17.9686L300.248 4.29626C304.134 2.49448 308.203 1.27563 312.457 0.639708C316.763 -0.0492086 320.938 -0.181692 324.981 0.242257C329.077 0.61321 332.753 1.4876 336.009 2.86544C339.317 4.24326 341.943 6.07154 343.886 8.35027C345.828 10.576 346.8 13.2257 346.8 16.2993C346.8 18.949 346.091 21.3337 344.673 23.4534C343.255 25.5202 341.312 27.1365 338.844 28.3023C336.429 29.4682 333.672 30.0511 330.574 30.0511L330.967 26.3151C334.591 26.3151 337.742 26.9775 340.42 28.3023C343.15 29.5742 345.251 31.323 346.721 33.5487C348.244 35.7744 349.005 38.3181 349.005 41.1797C349.005 43.8294 348.297 46.2141 346.879 48.3339C345.461 50.4006 343.492 52.1759 340.971 53.6597C338.503 55.0905 335.615 56.1769 332.307 56.9188C329.051 57.6607 325.532 58.0317 321.752 58.0317C318.023 58.0847 314.19 57.6872 310.251 56.8393C306.365 56.0444 302.558 54.8256 298.83 53.1828Z" fill="white"/>
<path d="M350.965 56.8393L375.068 1.19614H393.342L417.445 56.8393H398.226L380.424 10.0991H387.671L369.869 56.8393H350.965ZM365.301 47.1415L370.027 33.6282H395.39L400.116 47.1415H365.301Z" fill="white"/>
<path d="M449.47 56.8393V39.9079L453.803 43.6439H441.121C436.027 43.6439 431.616 42.8225 427.888 41.1797C424.212 39.484 421.376 37.0728 419.381 33.9461C417.385 30.8195 416.388 27.0835 416.388 22.738C416.388 18.2866 417.412 14.471 419.46 11.2914C421.56 8.0588 424.527 5.5681 428.36 3.81932C432.194 2.07053 436.71 1.19614 441.909 1.19614H467.745V56.8393H449.47ZM416.624 56.8393L430.487 36.5693H448.998L436.08 56.8393H416.624ZM449.47 34.0256V11.1324L453.803 15.6634H442.224C439.861 15.6634 438.075 16.2198 436.867 17.3327C435.712 18.4455 435.135 20.1413 435.135 22.42C435.135 24.7518 435.738 26.527 436.946 27.7459C438.154 28.9118 439.913 29.4947 442.224 29.4947H453.803L449.47 34.0256Z" fill="white"/>
<path d="M477.534 56.8393V1.19614H505.497C512.324 1.19614 517.601 2.46798 521.329 5.01167C525.11 7.55536 527.001 11.1324 527.001 15.7429C527.001 20.2473 525.268 23.8244 521.802 26.474C518.336 29.0707 513.663 30.3691 507.781 30.3691L509.357 26.0766C515.606 26.0766 520.516 27.3219 524.086 29.8126C527.657 32.3033 529.443 35.9334 529.443 40.7028C529.443 45.6312 527.5 49.5527 523.614 52.4674C519.728 55.382 514.188 56.8393 506.994 56.8393H477.534ZM495.808 43.7234H506.127C507.65 43.7234 508.779 43.3525 509.514 42.6106C510.302 41.8157 510.696 40.7028 510.696 39.272C510.696 37.8412 510.302 36.7813 509.514 36.0924C508.779 35.3505 507.65 34.9795 506.127 34.9795H495.808V43.7234ZM495.808 22.579H503.685C505.261 22.579 506.416 22.2346 507.151 21.5456C507.886 20.8567 508.254 19.8499 508.254 18.525C508.254 17.1472 507.886 16.1138 507.151 15.4249C506.416 14.683 505.261 14.312 503.685 14.312H495.808V22.579Z" fill="white"/>
<path d="M569.943 56.8393L556.237 30.7665L571.045 22.0226L590.895 56.8393H569.943ZM535.6 56.8393V1.19614H554.189V56.8393H535.6ZM548.833 36.7283V21.9431H569.706V36.7283H548.833ZM572.857 31.005L555.764 29.2562L571.597 1.19614H590.974L572.857 31.005Z" fill="white"/>
<path d="M588.501 56.8393L612.604 1.19614H630.879L654.982 56.8393H635.762L617.961 10.0991H625.207L607.406 56.8393H588.501ZM602.837 47.1415L607.563 33.6282H632.927L637.653 47.1415H602.837Z" fill="white"/>
<path d="M0 150.835V69.0938H78.9195V150.835H51.8747V84.6246L57.8199 90.4633H21.0996L27.0448 84.6246V150.835H0Z" fill="#EFAF33"/>
<path d="M93.349 150.835V69.0938H132.634C140.25 69.0938 146.817 70.3393 152.335 72.8305C157.93 75.3217 162.243 78.9027 165.274 83.5736C168.305 88.1667 169.82 93.6162 169.82 99.9219C169.82 106.228 168.305 111.677 165.274 116.27C162.243 120.863 157.93 124.444 152.335 127.013C146.817 129.505 140.25 130.75 132.634 130.75H108.62L120.86 118.956V150.835H93.349ZM120.86 121.992L108.62 109.497H130.885C134.693 109.497 137.491 108.641 139.278 106.928C141.144 105.216 142.076 102.88 142.076 99.9219C142.076 96.9637 141.144 94.6282 139.278 92.9155C137.491 91.2028 134.693 90.3465 130.885 90.3465H108.62L120.86 77.8518V121.992Z" fill="#EFAF33"/>
<path d="M178.16 150.835V69.0938H205.205V111.599L233.299 69.0938H259.178V150.835H232.133V108.446L204.156 150.835H178.16Z" fill="#EFAF33"/>
<path d="M326.596 69.0938H354.107V150.835H326.596V69.0938ZM301.183 150.835H273.672V69.0938H301.183V150.835ZM328.461 120.708H299.318V98.0535H328.461V120.708Z" fill="#EFAF33"/>
<path d="M413.145 150.835V125.962L419.557 131.451H400.789C393.25 131.451 386.722 130.244 381.204 127.831C375.764 125.34 371.568 121.797 368.615 117.204C365.661 112.611 364.185 107.123 364.185 100.739C364.185 94.2 365.7 88.5949 368.731 83.924C371.84 79.1752 376.231 75.5163 381.904 72.9473C387.577 70.3783 394.26 69.0938 401.954 69.0938H440.19V150.835H413.145ZM364.535 150.835L385.051 121.058H412.446L393.328 150.835H364.535ZM413.145 117.321V83.6904L419.557 90.3465H402.421C398.923 90.3465 396.281 91.1639 394.494 92.7987C392.784 94.4336 391.929 96.9247 391.929 100.272C391.929 103.698 392.823 106.306 394.61 108.096C396.398 109.809 399.001 110.665 402.421 110.665H419.557L413.145 117.321Z" fill="#EFAF33"/>
<path d="M473.213 150.835V84.5078L479.158 90.4633H449.315V69.0938H524.155V90.4633H494.312L500.258 84.5078V150.835H473.213Z" fill="#EFAF33"/>
<path d="M522.251 150.835L557.923 69.0938H584.967L620.639 150.835H592.195L565.85 82.1724H576.574L550.229 150.835H522.251ZM543.468 136.589L550.462 116.737H587.998L594.993 136.589H543.468Z" fill="#EFAF33"/>
<path d="M628.753 119.54L623.507 69.0938H654.982L649.736 119.54H628.753ZM639.245 152.003C634.737 152.003 631.046 150.64 628.17 147.916C625.295 145.113 623.857 141.805 623.857 137.99C623.857 134.098 625.295 130.828 628.17 128.181C631.046 125.534 634.737 124.211 639.245 124.211C643.83 124.211 647.521 125.534 650.319 128.181C653.194 130.828 654.632 134.098 654.632 137.99C654.632 141.805 653.194 145.113 650.319 147.916C647.521 150.64 643.83 152.003 639.245 152.003Z" fill="#EFAF33"/>
</svg>
