<svg width="80" height="80" viewBox="0 0 80 80" fill="none" xmlns="http://www.w3.org/2000/svg">
<path fill-rule="evenodd" clip-rule="evenodd" d="M1.99366 3.08419C1.41051 3.83523 0.920093 4.69891 0.584117 5.52044L0.5471 5.61094L0.51388 22.6008C0.512339 23.4675 0.510797 24.2917 0.509332 25.0756C0.495095 32.6933 0.487973 36.5057 0.558213 38.5502C0.596772 39.6725 0.659256 40.3035 0.770012 40.7512C1.15652 42.3137 2.66472 43.9324 4.10683 44.6426C4.7213 44.9263 5.36392 45.1097 6.0169 45.2729C7.02115 49.339 10.4046 52.6558 14.6836 53.1736L14.7151 62.2967C14.737 67.4571 14.7397 69.9037 14.8163 71.2611C14.855 71.946 14.9136 72.3812 15.0109 72.761C16.2238 77.4935 21.5965 80.5855 26.3226 79.279C29.6059 78.3875 32.083 75.948 33.0231 72.6903L33.0238 72.6878C33.1365 72.2896 33.1885 71.893 33.2215 70.5226C33.2547 69.1447 33.2684 66.7342 33.2849 62.2751L33.285 62.261C33.3015 57.5225 33.3097 55.1437 33.3412 53.9474C33.351 53.5749 33.3629 53.3328 33.3755 53.1767C33.6543 53.1363 33.9317 53.0848 34.2074 53.0266C37.8694 52.2838 40.9973 49.3135 41.8362 45.7674L41.8373 45.763L41.9522 45.2571L42.3034 45.189L42.3077 45.1882C42.7243 45.1037 43.3781 44.8844 43.8063 44.6853L43.81 44.6835C44.3459 44.4289 44.9548 43.9605 45.4827 43.4504C46.2102 42.7474 46.9762 41.7773 47.23 40.7512C47.3407 40.3035 47.4032 39.6726 47.4418 38.5502C47.512 36.5057 47.5049 32.6934 47.4907 25.0758C47.4892 24.2918 47.4877 23.4676 47.4861 22.6009L47.4529 5.61086C46.5697 3.4533 44.6404 1.21 42.3715 0.670374C41.9938 0.575911 41.5711 0.595128 41.1856 0.58371C40.5393 0.564565 39.579 0.550306 38.2024 0.53946C35.4481 0.517758 31.0124 0.509627 24.0554 0.504206C23.0048 0.503623 22.0139 0.502945 21.0794 0.502306C13.322 0.496999 9.44314 0.494345 7.36399 0.570952C6.2046 0.613669 5.56045 0.681735 5.10235 0.802889C3.85982 1.13151 2.751 2.1088 1.99366 3.08419ZM40.5939 4.44078C40.3566 4.43785 40.0154 4.43599 39.5792 4.43498C38.7071 4.43295 37.4614 4.4343 35.9205 4.43701C35.2831 4.43813 34.5954 4.43948 33.8629 4.44093C31.0541 4.44645 27.5873 4.45327 23.7798 4.45327L6.45604 4.4748L6.0154 4.70915L6.01313 4.71034C5.33199 5.06813 4.91506 5.63221 4.51924 6.3752L4.51924 23.1958C4.51634 25.3444 4.51325 27.206 4.51058 28.8191C4.50308 33.3376 4.49881 35.9116 4.51096 37.4178C4.5211 38.6745 4.33457 40.0919 5.55664 40.8932C5.95585 41.1549 6.51062 41.3188 7.3266 41.3806C8.63781 41.4812 9.85133 42.2876 9.85845 43.6764C9.86838 45.6122 11.2806 47.7451 13.2032 48.658C14.1043 49.073 14.6175 49.192 15.5403 49.2174C16.0903 49.2325 16.835 49.2452 17.7109 49.2553C19.4622 49.2756 21.7306 49.2858 24 49.2858C26.2694 49.2858 28.5379 49.2756 30.2891 49.2554C31.165 49.2452 31.9097 49.2325 32.4597 49.2174C33.3957 49.1916 33.853 49.0922 34.7736 48.6585L34.7764 48.6572C35.8048 48.1806 36.815 47.2451 37.3575 46.2755L37.3581 46.2745C37.56 45.9156 37.7588 45.4166 37.9071 44.91C38.1314 44.1437 38.0172 43.2298 38.397 42.5141C38.8113 41.7151 39.5392 41.4983 40.1737 41.4146C40.7217 41.3422 41.3027 41.3828 41.8322 41.2089L41.8364 41.2076C42.4201 41.0216 43.0642 40.398 43.3374 39.6953L43.3384 39.6927L43.5356 39.1653L43.481 6.38086C43.2256 5.92794 42.845 5.37962 42.355 4.98274C41.8237 4.55244 41.2376 4.44874 40.5939 4.44078ZM24.011 5.59225L23.9894 5.59225C16.1002 5.59225 12.0636 5.59225 9.95769 5.61939C8.90897 5.63291 8.32106 5.65325 7.97121 5.68589C7.79595 5.70224 7.65767 5.72352 7.54137 5.75665C7.20622 5.85212 6.81608 6.10526 6.65837 6.40437C6.42772 6.84182 6.42397 7.40426 6.39757 7.88496C6.32475 9.21118 6.32529 11.7741 6.32636 16.8543C6.32665 18.2449 6.32665 19.6355 6.32636 21.0261C6.32529 26.1063 6.32475 28.6692 6.39757 29.9955C6.4579 31.094 6.63605 32.0696 7.96983 32.1945C8.31855 32.2272 8.90411 32.2475 9.94802 32.261C12.0442 32.2882 16.0614 32.2882 23.9116 32.2882L23.9231 32.2882C24.939 32.2882 25.893 32.2883 26.7892 32.2885C33.6782 32.2895 37.1428 32.29 38.9187 32.22C39.4222 32.2002 39.8015 32.1743 40.0901 32.1395C40.3731 32.1054 40.5995 32.0595 40.7802 31.9859C41.7656 31.5842 41.6319 30.0736 41.6461 29.2804C41.6737 27.7377 41.6737 24.7859 41.6737 18.9769L41.6737 18.9619C41.6737 18.2219 41.6739 17.5263 41.674 16.8723C41.6751 11.7837 41.6756 9.2163 41.6028 7.88772C41.5764 7.40638 41.5728 6.84322 41.3422 6.40504C41.1007 5.94624 40.5138 5.73111 40.0292 5.68589C39.6793 5.65325 39.0914 5.63291 38.0427 5.6194C35.9368 5.59225 31.9002 5.59225 24.011 5.59225ZM37.7014 9.51963L37.7014 28.3608L10.299 28.3608L10.299 9.51963L37.7014 9.51963ZM21.4627 13.2109C20.9384 13.5748 20.6382 14.1881 20.6382 14.9051C20.6382 16.0155 21.4568 16.4678 22.3862 16.8559C23.0963 17.1525 24.2719 17.593 26.2943 18.3345C28.3104 19.0757 29.4912 19.5028 30.2218 19.7371C30.9308 19.9645 31.296 20.0402 31.6325 19.9988L31.6283 19.9993L31.637 19.9983L31.6325 19.9988C33.2305 19.8222 33.9734 17.8075 32.7746 16.6867C32.4588 16.392 31.915 16.2609 31.536 16.1063C30.9034 15.8482 30.0486 15.5118 29.1024 15.1473C27.2104 14.4185 24.9429 13.5736 23.3399 13.0128C22.6661 12.7782 21.9852 12.8482 21.4627 13.2109ZM13.1955 17.6955C12.634 18.0335 12.2705 18.7475 12.2705 19.3926C12.2705 19.7059 12.4053 20.0306 12.5539 20.2809C13.055 21.1246 13.8959 21.2807 14.7678 21.6139C15.6168 21.9384 16.7299 22.3567 17.8516 22.7738C18.9732 23.1908 20.1049 23.6071 20.9911 23.9275C21.8212 24.2276 22.7752 24.7605 23.6687 24.44C23.9721 24.3312 24.2715 24.1486 24.5097 23.907L24.5113 23.9053C25.2739 23.1242 25.18 21.81 24.377 21.091L24.3673 21.0823L24.3572 21.0742C23.9055 20.7102 23.214 20.5299 22.688 20.3337C21.9613 20.0626 19.9245 19.3035 18.1739 18.6529C16.4599 18.0132 15.4469 17.6505 14.7809 17.5043C14.2212 17.3814 13.6954 17.3951 13.1955 17.6955ZM11.9575 33.4418C11.7724 33.449 11.6247 33.4547 11.529 33.4543L11.527 33.4543C9.60639 33.4543 8.5347 33.4609 7.90013 33.5592C7.01363 33.6965 6.45619 34.308 6.36733 35.1832C6.33402 35.5113 6.32625 35.9932 6.32624 36.7624C6.32624 38.1401 6.16197 39.8754 8.21335 39.8754C8.8393 39.8754 9.39154 39.6834 9.77664 39.2373C10.1504 38.8043 10.2986 38.0483 10.2986 37.3817C11.9344 37.3817 13.803 37.6299 15.4119 37.2563C15.7082 37.1874 15.9497 37.0721 16.1474 36.8703C16.7783 36.2264 17.08 35.0069 16.4338 34.2869C16.0278 33.8344 15.3665 33.6332 14.7625 33.5316C13.8036 33.3703 12.6322 33.4157 11.9575 33.4418ZM32.5523 33.6061C31.0648 34.163 30.7622 36.2356 32.1478 37.0904C32.4382 37.2675 32.7556 37.326 33.0913 37.3493C33.5232 37.3793 34.2308 37.3817 35.4928 37.3817L37.7009 37.3817L37.7009 37.5431C37.7009 38.2096 37.8491 38.8043 38.2229 39.2373C38.608 39.6834 39.1602 39.8754 39.7862 39.8754C41.8375 39.8754 41.6733 38.1401 41.6733 36.7624C41.6733 35.7804 41.6501 35.111 41.5097 34.6513C41.4331 34.4005 41.3161 34.1884 41.1366 34.0135C40.5898 33.481 39.7874 33.5296 39.0817 33.5008C38.3768 33.472 37.4769 33.4544 36.5774 33.4489C35.6779 33.4435 34.7739 33.4502 34.0607 33.4708C33.5943 33.4842 33.004 33.4342 32.5523 33.6061ZM30.7748 40.1692C30.7748 35.1704 25.3242 32.0935 20.9527 34.2115C19.4254 34.9518 18.2729 36.2207 17.6237 37.8591C17.0965 39.179 17.059 41.1027 17.5785 42.4328L17.5796 42.4358C18.3715 44.4263 19.9256 45.8988 21.9706 46.5744L21.9696 46.574L21.9717 46.5747L21.9706 46.5744C26.2534 48.0085 30.7748 44.5144 30.7748 40.1692ZM24.5878 37.4996C26.2804 37.8755 27.3056 39.8065 26.4553 41.3718C25.9571 42.289 24.9518 42.9448 23.7677 42.8687C23.103 42.8273 22.6172 42.6212 22.1189 42.1804C21.3407 41.4864 21.0334 40.3874 21.3306 39.3905C21.5357 38.6979 22.1707 37.9739 22.8378 37.6927C23.4654 37.4343 24.054 37.381 24.5878 37.4996ZM29.3346 53.3189L29.3346 61.7854C29.3346 66.7182 29.3343 69.1584 29.2529 70.5353C29.2057 71.3335 29.0835 72.015 28.7271 72.7287C27.6043 74.9582 24.7811 76.1476 22.3755 75.3411L22.3736 75.3404C20.1265 74.5972 18.8789 72.7552 18.7471 70.5285C18.6657 69.153 18.6654 66.7128 18.6654 61.7854L18.6654 53.3189L29.3346 53.3189Z" fill="#EFAF33"/>
</svg>
