<svg width="47" height="80" viewBox="0 0 47 80" fill="none" xmlns="http://www.w3.org/2000/svg">
<path fill-rule="evenodd" clip-rule="evenodd" d="M1.49366 2.58419C0.910515 3.33523 0.420093 4.19891 0.0841175 5.02044L0.0470996 5.11094L0.0138798 22.1008C0.0123385 22.9675 0.0107973 23.7917 0.00933242 24.5756C-0.0049047 32.1933 -0.0120271 36.0057 0.0582128 38.0502C0.0967716 39.1725 0.159256 39.8035 0.270012 40.2512C0.65652 41.8137 2.16472 43.4324 3.60683 44.1426C4.2213 44.4263 4.86392 44.6097 5.5169 44.7729C6.52115 48.839 9.90459 52.1558 14.1836 52.6736L14.2151 61.7967C14.237 66.9571 14.2397 69.4037 14.3163 70.7611C14.355 71.446 14.4136 71.8812 14.5109 72.261C15.7238 76.9935 21.0965 80.0855 25.8226 78.779C29.1059 77.8875 31.583 75.448 32.5231 72.1903L32.5238 72.1878C32.6365 71.7896 32.6885 71.393 32.7215 70.0226C32.7547 68.6447 32.7684 66.2342 32.7849 61.7751L32.785 61.761C32.8015 57.0225 32.8097 54.6437 32.8412 53.4474C32.851 53.0749 32.8629 52.8328 32.8755 52.6767C33.1543 52.6363 33.4317 52.5848 33.7074 52.5266C37.3694 51.7838 40.4973 48.8135 41.3362 45.2674L41.3373 45.263L41.4522 44.7571L41.8034 44.689L41.8077 44.6882C42.2243 44.6037 42.8781 44.3844 43.3063 44.1853L43.31 44.1835C43.8459 43.9289 44.4548 43.4605 44.9827 42.9504C45.7102 42.2474 46.4762 41.2773 46.73 40.2512C46.8407 39.8035 46.9032 39.1726 46.9418 38.0502C47.012 36.0057 47.0049 32.1934 46.9907 24.5758C46.9892 23.7918 46.9877 22.9676 46.9861 22.1009L46.9529 5.11086C46.0697 2.9533 44.1404 0.709997 41.8715 0.170374C41.4938 0.0759112 41.0711 0.0951282 40.6856 0.0837099C40.0393 0.0645655 39.079 0.0503062 37.7024 0.0394596C34.9481 0.0177582 30.5124 0.00962709 23.5554 0.00420579C22.5048 0.00362336 21.5139 0.00294539 20.5794 0.00230605C12.822 -0.00300114 8.94314 -0.00565451 6.86399 0.0709518C5.7046 0.113669 5.06045 0.181735 4.60235 0.302889C3.35982 0.631506 2.251 1.6088 1.49366 2.58419ZM40.0939 3.94078C39.8566 3.93785 39.5154 3.93599 39.0792 3.93498C38.2071 3.93295 36.9614 3.9343 35.4205 3.93701C34.7831 3.93813 34.0954 3.93948 33.3629 3.94093C30.5541 3.94645 27.0873 3.95327 23.2798 3.95327L5.95604 3.9748L5.5154 4.20915L5.51313 4.21034C4.83199 4.56813 4.41506 5.13221 4.01924 5.8752L4.01924 22.6958C4.01634 24.8444 4.01325 26.706 4.01058 28.3191C4.00308 32.8376 3.99881 35.4116 4.01096 36.9178C4.0211 38.1745 3.83457 39.5919 5.05664 40.3932C5.45585 40.6549 6.01062 40.8188 6.8266 40.8806C8.13781 40.9812 9.35133 41.7876 9.35845 43.1764C9.36838 45.1122 10.7806 47.2451 12.7032 48.158C13.6043 48.573 14.1175 48.692 15.0403 48.7174C15.5903 48.7325 16.335 48.7452 17.2109 48.7553C18.9622 48.7756 21.2306 48.7858 23.5 48.7858C25.7694 48.7858 28.0379 48.7756 29.7891 48.7554C30.665 48.7452 31.4097 48.7325 31.9597 48.7174C32.8957 48.6916 33.353 48.5922 34.2736 48.1585L34.2764 48.1572C35.3048 47.6806 36.315 46.7451 36.8575 45.7755L36.8581 45.7745C37.06 45.4156 37.2588 44.9166 37.4071 44.41C37.6314 43.6437 37.5172 42.7298 37.897 42.0141C38.3113 41.2151 39.0392 40.9983 39.6737 40.9146C40.2217 40.8422 40.8027 40.8828 41.3322 40.7089L41.3364 40.7076C41.9201 40.5216 42.5642 39.898 42.8374 39.1953L42.8384 39.1927L43.0356 38.6653L42.981 5.88086C42.7256 5.42794 42.345 4.87962 41.855 4.48274C41.3237 4.05244 40.7376 3.94874 40.0939 3.94078ZM23.511 5.09225L23.4894 5.09225C15.6002 5.09225 11.5636 5.09225 9.45769 5.11939C8.40897 5.13291 7.82106 5.15325 7.47121 5.18589C7.29595 5.20224 7.15767 5.22352 7.04137 5.25665C6.70622 5.35212 6.31608 5.60526 6.15837 5.90437C5.92772 6.34182 5.92397 6.90426 5.89757 7.38496C5.82475 8.71118 5.82529 11.2741 5.82636 16.3543C5.82665 17.7449 5.82665 19.1355 5.82636 20.5261C5.82529 25.6063 5.82475 28.1692 5.89757 29.4955C5.9579 30.594 6.13605 31.5696 7.46983 31.6945C7.81855 31.7272 8.40411 31.7475 9.44802 31.761C11.5442 31.7882 15.5614 31.7882 23.4116 31.7882L23.4231 31.7882C24.439 31.7882 25.393 31.7883 26.2892 31.7885C33.1782 31.7895 36.6428 31.79 38.4187 31.72C38.9222 31.7002 39.3015 31.6743 39.5901 31.6395C39.8731 31.6054 40.0995 31.5595 40.2802 31.4859C41.2656 31.0842 41.1319 29.5736 41.1461 28.7804C41.1737 27.2377 41.1737 24.2859 41.1737 18.4769L41.1737 18.4619C41.1737 17.7219 41.1739 17.0263 41.174 16.3723C41.1751 11.2837 41.1756 8.7163 41.1028 7.38772C41.0764 6.90638 41.0728 6.34322 40.8422 5.90504C40.6007 5.44624 40.0138 5.23111 39.5292 5.18589C39.1793 5.15325 38.5914 5.13291 37.5427 5.1194C35.4368 5.09225 31.4002 5.09225 23.511 5.09225ZM37.2014 9.01963L37.2014 27.8608L9.79899 27.8608L9.799 9.01963L37.2014 9.01963ZM20.9627 12.7109C20.4384 13.0748 20.1382 13.6881 20.1382 14.4051C20.1382 15.5155 20.9568 15.9678 21.8862 16.3559C22.5963 16.6525 23.7719 17.093 25.7943 17.8345C27.8104 18.5757 28.9912 19.0028 29.7218 19.2371C30.4308 19.4645 30.796 19.5402 31.1325 19.4988L31.1283 19.4993L31.137 19.4983L31.1325 19.4988C32.7305 19.3222 33.4734 17.3075 32.2746 16.1867C31.9588 15.892 31.415 15.7609 31.036 15.6063C30.4034 15.3482 29.5486 15.0118 28.6024 14.6473C26.7104 13.9185 24.4429 13.0736 22.8399 12.5128C22.1661 12.2782 21.4852 12.3482 20.9627 12.7109ZM12.6955 17.1955C12.134 17.5335 11.7705 18.2475 11.7705 18.8926C11.7705 19.2059 11.9053 19.5306 12.0539 19.7809C12.555 20.6246 13.3959 20.7807 14.2678 21.1139C15.1168 21.4384 16.2299 21.8567 17.3516 22.2738C18.4732 22.6908 19.6049 23.1071 20.4911 23.4275C21.3212 23.7276 22.2752 24.2605 23.1687 23.94C23.4721 23.8312 23.7715 23.6486 24.0097 23.407L24.0113 23.4053C24.7739 22.6242 24.68 21.31 23.877 20.591L23.8673 20.5823L23.8572 20.5742C23.4055 20.2102 22.714 20.0299 22.188 19.8337C21.4613 19.5626 19.4245 18.8035 17.6739 18.1529C15.9599 17.5132 14.9469 17.1505 14.2809 17.0043C13.7212 16.8814 13.1954 16.8951 12.6955 17.1955ZM11.4575 32.9418C11.2724 32.949 11.1247 32.9547 11.029 32.9543L11.027 32.9543C9.10639 32.9543 8.0347 32.9609 7.40013 33.0592C6.51363 33.1965 5.95619 33.808 5.86733 34.6832C5.83402 35.0113 5.82625 35.4932 5.82624 36.2624C5.82624 37.6401 5.66197 39.3754 7.71335 39.3754C8.3393 39.3754 8.89154 39.1834 9.27664 38.7373C9.65038 38.3043 9.7986 37.5483 9.7986 36.8817C11.4344 36.8817 13.303 37.1299 14.9119 36.7563C15.2082 36.6874 15.4497 36.5721 15.6474 36.3703C16.2783 35.7264 16.58 34.5069 15.9338 33.7869C15.5278 33.3344 14.8665 33.1332 14.2625 33.0316C13.3036 32.8703 12.1322 32.9157 11.4575 32.9418ZM32.0523 33.1061C30.5648 33.663 30.2622 35.7356 31.6478 36.5904C31.9382 36.7675 32.2556 36.826 32.5913 36.8493C33.0232 36.8793 33.7308 36.8817 34.9928 36.8817L37.2009 36.8817L37.2009 37.0431C37.2009 37.7096 37.3491 38.3043 37.7229 38.7373C38.108 39.1834 38.6602 39.3754 39.2862 39.3754C41.3375 39.3754 41.1733 37.6401 41.1733 36.2624C41.1733 35.2804 41.1501 34.611 41.0097 34.1513C40.9331 33.9005 40.8161 33.6884 40.6366 33.5135C40.0898 32.981 39.2874 33.0296 38.5817 33.0008C37.8768 32.972 36.9769 32.9544 36.0774 32.9489C35.1779 32.9435 34.2739 32.9502 33.5607 32.9708C33.0943 32.9842 32.504 32.9342 32.0523 33.1061ZM30.2748 39.6692C30.2748 34.6704 24.8242 31.5935 20.4527 33.7115C18.9254 34.4518 17.7729 35.7207 17.1237 37.3591C16.5965 38.679 16.559 40.6027 17.0785 41.9328L17.0796 41.9358C17.8715 43.9263 19.4256 45.3988 21.4706 46.0744L21.4696 46.074L21.4717 46.0747L21.4706 46.0744C25.7534 47.5085 30.2748 44.0144 30.2748 39.6692ZM24.0878 36.9996C25.7804 37.3755 26.8056 39.3065 25.9553 40.8718C25.4571 41.789 24.4518 42.4448 23.2677 42.3687C22.603 42.3273 22.1172 42.1212 21.6189 41.6804C20.8407 40.9864 20.5334 39.8874 20.8306 38.8905C21.0357 38.1979 21.6707 37.4739 22.3378 37.1927C22.9654 36.9343 23.554 36.881 24.0878 36.9996ZM28.8346 52.8189L28.8346 61.2854C28.8346 66.2182 28.8343 68.6584 28.7529 70.0353C28.7057 70.8335 28.5835 71.515 28.2271 72.2287C27.1043 74.4582 24.2811 75.6476 21.8755 74.8411L21.8736 74.8404C19.6265 74.0972 18.3789 72.2552 18.2471 70.0285C18.1657 68.653 18.1654 66.2128 18.1654 61.2854L18.1654 52.8189L28.8346 52.8189Z" fill="#EFAF33"/>
</svg>
