<svg width="80" height="80" viewBox="0 0 80 80" fill="none" xmlns="http://www.w3.org/2000/svg">
<g clip-path="url(#clip0_6704_6323)">
<path d="M72.7163 41.8475C74.1863 39.9618 75 37.6514 75 35.2476C75 30.7205 71.2393 25.0162 66.2675 25.0207H45.285L45.81 14.5814C45.9325 12.0587 45.0138 9.66333 43.2288 7.83709C41.4768 6.03682 38.9637 4.99085 36.4125 5.00006C31.8625 5.00006 27.8375 7.973 26.63 12.2285L19.1137 38.6452H7.8C6.25125 38.6452 5 39.8599 5 41.3633V72.2819C5 73.7853 6.25125 75 7.8 75H60.4137C65.6129 75 69.5837 69.2733 69.5837 64.4843C69.5837 63.414 69.4263 62.3608 69.1113 61.3415C70.5813 59.4558 71.395 57.1454 71.395 54.7416C71.395 53.6713 71.2375 52.618 70.9225 51.5987C72.3925 49.713 73.2062 47.4026 73.2062 44.9988C73.1887 43.9286 73.0313 42.8668 72.7163 41.8475ZM11.3 68.8842V44.761H18.3875V68.8842H11.3ZM65.0688 40.5139C65.8586 41.9151 66.8985 43.3157 66.8887 44.9903C66.8887 47.4756 64.9666 48.8172 63.2575 50.2567C64.0474 51.6578 65.0873 53.0584 65.0775 54.7331C65.0775 57.2184 63.1554 58.56 61.4462 59.9994C62.2361 61.4005 63.276 62.8012 63.2663 64.4758C63.2663 66.3785 62.1112 68.0943 60.3262 68.8758H23.9875V44.4892L32.6938 13.8679C33.1427 12.2982 34.7081 11.1351 36.3863 11.1243C38.0974 11.1243 39.6016 12.5202 39.51 14.2841L38.67 31.1364H66.18C67.7375 32.0623 68.7 33.6252 68.7 35.2476C68.7 37.7304 66.7764 39.0757 65.0688 40.5139Z" fill="#EFAF33"/>
</g>
<defs>
<clipPath id="clip0_6704_6323">
<rect width="80" height="80" fill="white"/>
</clipPath>
</defs>
</svg>
