<svg width="50" height="50" viewBox="0 0 50 50" fill="none" xmlns="http://www.w3.org/2000/svg">
<path fill-rule="evenodd" clip-rule="evenodd" d="M24.3598 1.26524C24.7135 0.911588 25.2865 0.911588 25.6402 1.26524L32.6926 8.31761L39.7446 1.26524C40.089 0.920841 40.6806 0.920841 41.025 1.26524L48.7348 8.975C49.0884 9.32864 49.0884 9.90171 48.7348 10.2554L41.6825 17.3076L48.7348 24.3598C49.0884 24.7135 49.0884 25.2865 48.7348 25.6402L41.6825 32.6924L48.7348 39.7446C49.0884 40.0983 49.0884 40.6714 48.7348 41.025L41.025 48.7348C40.8553 48.9045 40.625 49 40.3848 49C40.1447 49 39.9144 48.9045 39.7446 48.7348L32.6926 41.6824L25.6402 48.7348C25.4635 48.9114 25.2313 49 25 49C24.7687 49 24.5365 48.9114 24.3598 48.7348L17.3075 41.6824L10.2554 48.7348C10.0856 48.9045 9.85534 49 9.61518 49C9.37501 49 9.14472 48.9045 8.975 48.7348L1.26524 41.025C0.911588 40.6714 0.911588 40.0983 1.26524 39.7446L8.31747 32.6924L1.26524 25.6402C0.911588 25.2865 0.911588 24.7135 1.26524 24.3598L8.31746 17.3076L1.26524 10.2554C0.911588 9.90171 0.911588 9.32864 1.26524 8.975L8.975 1.26524C9.31939 0.920841 9.91097 0.920841 10.2554 1.26524L17.3075 8.31761L24.3598 1.26524ZM25 3.18578L31.4294 9.61518L25 16.0446L18.5706 9.61518L25 3.18578ZM40.3848 3.18579L46.8142 9.61518L40.3848 16.0446L33.9557 9.61518L40.3848 3.18579ZM9.61517 3.18579L16.0443 9.61518L9.61517 16.0446L3.18578 9.61518L9.61517 3.18579ZM17.3074 10.9128L23.7023 17.3076L17.3074 23.7024L10.9129 17.3076L17.3074 10.9128ZM32.6926 10.9128L39.0871 17.3076L32.6926 23.7024L26.2977 17.3076L32.6926 10.9128ZM25 18.5706L31.4294 25L25 31.4294L18.5706 25L25 18.5706ZM40.3848 18.5706L46.8142 25L40.3848 31.4294L33.9557 25L40.3848 18.5706ZM9.61517 18.5706L16.0443 25L9.61517 31.4294L3.18578 25L9.61517 18.5706ZM17.3074 26.2976L23.7023 32.6924L17.3074 39.0872L10.9129 32.6924L17.3074 26.2976ZM32.6926 26.2976L39.0871 32.6924L32.6926 39.0872L26.2977 32.6924L32.6926 26.2976ZM25 33.9554L31.4294 40.3848L25 46.8142L18.5706 40.3848L25 33.9554ZM9.61517 33.9554L16.0443 40.3848L9.61517 46.8142L3.18578 40.3848L9.61517 33.9554ZM40.3848 33.9554L46.8142 40.3848L40.3848 46.8142L33.9557 40.3848L40.3848 33.9554Z" fill="#545454" stroke="white" stroke-width="0.8"/>
</svg>
