<svg width="16" height="16" viewBox="0 0 16 16" id="track" fill="none" xmlns="http://www.w3.org/2000/svg">
<path d="M7.9974 1.33594C5.06406 1.33594 2.66406 3.73594 2.66406 6.66927C2.66406 10.2693 7.33073 14.3359 7.53073 14.5359C7.85022 14.6957 8.14457 14.6957 8.46406 14.5359C8.66406 14.3359 13.3307 10.2693 13.3307 6.66927C13.3307 3.73594 10.9307 1.33594 7.9974 1.33594ZM7.9974 13.1359C6.5974 11.8026 3.9974 8.93594 3.9974 6.66927C3.9974 4.46927 5.7974 2.66927 7.9974 2.66927C10.1974 2.66927 11.9974 4.46927 11.9974 6.66927C11.9974 8.86927 9.3974 11.8026 7.9974 13.1359ZM7.9974 4.0026C6.53073 4.0026 5.33073 5.2026 5.33073 6.66927C5.33073 8.13594 6.53073 9.33594 7.9974 9.33594C9.46406 9.33594 10.6641 8.13594 10.6641 6.66927C10.6641 5.2026 9.46406 4.0026 7.9974 4.0026ZM7.9974 8.0026C7.26406 8.0026 6.66406 7.4026 6.66406 6.66927C6.66406 5.93594 7.26406 5.33594 7.9974 5.33594C8.73073 5.33594 9.33073 5.93594 9.33073 6.66927C9.33073 7.4026 8.73073 8.0026 7.9974 8.0026Z" fill="#EFAF33"/>
</svg>
