<svg width="15" height="15" viewBox="0 0 15 15" fill="none" xmlns="http://www.w3.org/2000/svg">
<path d="M4.33333 2.33333C4.33333 1.59695 4.93029 1 5.66667 1H9.66667C10.403 1 11 1.59695 11 2.33333V3.66667C11.8889 3.66667 12.7778 3.66667 13.6667 3.66667C14.0349 3.66667 14.3333 3.96514 14.3333 4.33333C14.3333 4.70152 14.0349 5 13.6667 5H12.9541L12.3759 13.095C12.326 13.7927 11.7454 14.3333 11.0459 14.3333H4.28741C3.58789 14.3333 3.00731 13.7927 2.95747 13.095L2.37925 5H1.66667C1.29848 5 1 4.70152 1 4.33333C1 3.96514 1.29848 3.66667 1.66667 3.66667C2.55556 3.66667 3.44444 3.66667 4.33333 3.66667V2.33333ZM5.66667 3.66667H9.66667V2.33333H5.66667V3.66667ZM3.71598 5L4.28741 13H11.0459L11.6173 5H3.71598ZM6.33333 6.33333C6.70152 6.33333 7 6.63181 7 7V11C7 11.3682 6.70152 11.6667 6.33333 11.6667C5.96514 11.6667 5.66667 11.3682 5.66667 11V7C5.66667 6.63181 5.96514 6.33333 6.33333 6.33333ZM9 6.33333C9.36819 6.33333 9.66667 6.63181 9.66667 7V11C9.66667 11.3682 9.36819 11.6667 9 11.6667C8.63181 11.6667 8.33333 11.3682 8.33333 11V7C8.33333 6.63181 8.63181 6.33333 9 6.33333Z" fill="#EFAF33"/>
<path fill-rule="evenodd" clip-rule="evenodd" d="M3.83333 2.33333C3.83333 1.32081 4.65415 0.5 5.66667 0.5H9.66667C10.6792 0.5 11.5 1.32081 11.5 2.33333V3.16667H13.6667C14.311 3.16667 14.8333 3.689 14.8333 4.33333C14.8333 4.97766 14.311 5.5 13.6667 5.5H13.4196L12.8746 13.1306C12.8061 14.09 12.0078 14.8333 11.0459 14.8333H4.28741C3.32558 14.8333 2.52727 14.09 2.45874 13.1306L1.91369 5.5H1.66667C1.02233 5.5 0.5 4.97767 0.5 4.33333C0.5 3.689 1.02233 3.16667 1.66667 3.16667H3.83333L3.83333 2.33333ZM5.66667 1.5C5.20643 1.5 4.83333 1.8731 4.83333 2.33333V3.66667C4.83333 3.94281 4.60948 4.16667 4.33333 4.16667H1.66667C1.57462 4.16667 1.5 4.24129 1.5 4.33333C1.5 4.42538 1.57462 4.5 1.66667 4.5H2.37925C2.64157 4.5 2.85929 4.70272 2.87798 4.96438L3.4562 13.0594C3.48735 13.4955 3.85021 13.8333 4.28741 13.8333H11.0459C11.4831 13.8333 11.846 13.4955 11.8771 13.0594L12.4554 4.96438C12.474 4.70272 12.6918 4.5 12.9541 4.5H13.6667C13.7587 4.5 13.8333 4.42538 13.8333 4.33333C13.8333 4.24129 13.7587 4.16667 13.6667 4.16667H11C10.7239 4.16667 10.5 3.94281 10.5 3.66667V2.33333C10.5 1.8731 10.1269 1.5 9.66667 1.5H5.66667ZM5.16667 2.33333C5.16667 2.05719 5.39052 1.83333 5.66667 1.83333H9.66667C9.94281 1.83333 10.1667 2.05719 10.1667 2.33333V3.66667C10.1667 3.94281 9.94281 4.16667 9.66667 4.16667H5.66667C5.39052 4.16667 5.16667 3.94281 5.16667 3.66667V2.33333ZM6.16667 2.83333V3.16667H9.16667V2.83333H6.16667ZM3.35005 4.65927C3.44464 4.55769 3.57719 4.5 3.71598 4.5H11.6173C11.7561 4.5 11.8887 4.55769 11.9833 4.65927C12.0779 4.76085 12.126 4.89718 12.1161 5.03562L11.5447 13.0356C11.526 13.2973 11.3082 13.5 11.0459 13.5H4.28741C4.02509 13.5 3.80737 13.2973 3.78868 13.0356L3.21726 5.03562C3.20737 4.89718 3.25547 4.76085 3.35005 4.65927ZM4.25297 5.5L4.75297 12.5H10.5804L11.0804 5.5H4.25297ZM5.16667 7C5.16667 6.35567 5.689 5.83333 6.33333 5.83333C6.97767 5.83333 7.5 6.35567 7.5 7V11C7.5 11.6443 6.97767 12.1667 6.33333 12.1667C5.689 12.1667 5.16667 11.6443 5.16667 11V7ZM6.33333 6.83333C6.24129 6.83333 6.16667 6.90795 6.16667 7V11C6.16667 11.092 6.24129 11.1667 6.33333 11.1667C6.42538 11.1667 6.5 11.092 6.5 11V7C6.5 6.90795 6.42538 6.83333 6.33333 6.83333ZM7.83333 7C7.83333 6.35567 8.35567 5.83333 9 5.83333C9.64433 5.83333 10.1667 6.35567 10.1667 7V11C10.1667 11.6443 9.64433 12.1667 9 12.1667C8.35567 12.1667 7.83333 11.6443 7.83333 11V7ZM9 6.83333C8.90795 6.83333 8.83333 6.90795 8.83333 7V11C8.83333 11.092 8.90795 11.1667 9 11.1667C9.09205 11.1667 9.16667 11.092 9.16667 11V7C9.16667 6.90795 9.09205 6.83333 9 6.83333Z" fill="#EFAF33"/>
</svg>
