<svg width="50" height="50" viewBox="0 0 50 50" fill="none" xmlns="http://www.w3.org/2000/svg">
<path fill-rule="evenodd" clip-rule="evenodd" d="M6.96204 0.5H43.038C44.42 0.499991 45.5082 0.499983 46.3584 0.614294C47.2308 0.731583 47.9272 0.977402 48.4749 1.52513C49.0226 2.07285 49.2684 2.76917 49.3857 3.64156C49.5 4.4918 49.5 5.58004 49.5 6.96208V19.0379C49.5 20.42 49.5 21.5082 49.3857 22.3584C49.2684 23.2308 49.0226 23.9271 48.4749 24.4749C47.9272 25.0226 47.2308 25.2684 46.3584 25.3857C45.5082 25.5 44.42 25.5 43.038 25.5H6.96202C5.58 25.5 4.49179 25.5 3.64156 25.3857C2.76917 25.2684 2.07285 25.0226 1.52513 24.4749C0.977402 23.9271 0.731583 23.2308 0.614294 22.3584C0.499983 21.5082 0.499991 20.42 0.5 19.038V6.96204C0.499991 5.58001 0.499983 4.49179 0.614294 3.64156C0.731583 2.76917 0.977402 2.07285 1.52513 1.52513C2.07285 0.977402 2.76917 0.731583 3.64156 0.614294C4.49179 0.499983 5.58001 0.499991 6.96204 0.5ZM3.77481 1.60538C3.01331 1.70776 2.56319 1.90128 2.23223 2.23223C1.90128 2.56319 1.70776 3.01331 1.60538 3.77481C1.50106 4.55069 1.5 5.57165 1.5 7V19C1.5 20.4283 1.50106 21.4493 1.60538 22.2252C1.70776 22.9867 1.90128 23.4368 2.23223 23.7678C2.56319 24.0987 3.01331 24.2922 3.77481 24.3946C4.55069 24.4989 5.57165 24.5 7 24.5H43C44.4283 24.5 45.4493 24.4989 46.2252 24.3946C46.9867 24.2922 47.4368 24.0987 47.7678 23.7678C48.0987 23.4368 48.2922 22.9867 48.3946 22.2252C48.4989 21.4493 48.5 20.4283 48.5 19V7C48.5 5.57165 48.4989 4.55069 48.3946 3.77481C48.2922 3.01331 48.0987 2.56319 47.7678 2.23223C47.4368 1.90128 46.9867 1.70776 46.2252 1.60538C45.4493 1.50106 44.4283 1.5 43 1.5H7C5.57165 1.5 4.55069 1.50106 3.77481 1.60538ZM44.5 21H5.5V20H44.5V21ZM12.5 37V29.5H13.5V37.0278C13.5 39.3432 13.5 41.1172 13.3635 42.5242C13.2258 43.9445 12.9453 45.0435 12.3504 45.9902C11.751 46.9443 10.9443 47.751 9.99024 48.3504C9.04348 48.9453 7.94453 49.2258 6.52421 49.3635C5.11721 49.5 3.34319 49.5 1.02779 49.5H1V48.5C3.34878 48.5 5.07453 48.4995 6.42768 48.3682C7.77314 48.2377 8.69741 47.9818 9.45821 47.5037C10.285 46.9842 10.9842 46.285 11.5037 45.4582C11.9817 44.6974 12.2377 43.7731 12.3682 42.4277C12.4995 41.0745 12.5 39.3488 12.5 37ZM24.5 49V29.5H25.5V49H24.5ZM36.5 29.5H37.5V37C37.5 39.3488 37.5005 41.0745 37.6318 42.4277C37.7623 43.7731 38.0182 44.6974 38.4963 45.4582C39.0158 46.285 39.715 46.9842 40.5418 47.5037C41.3026 47.9818 42.2269 48.2377 43.5723 48.3682C44.9255 48.4995 46.6512 48.5 49 48.5V49.5H48.9722C46.6568 49.5 44.8828 49.5 43.4758 49.3635C42.0555 49.2258 40.9565 48.9453 40.0098 48.3504C39.0557 47.751 38.249 46.9443 37.6496 45.9902C37.0547 45.0435 36.7742 43.9445 36.6365 42.5242C36.5 41.1172 36.5 39.3432 36.5 37.0278V29.5Z" fill="#545454"/>
</svg>
