<svg width="186" height="230" viewBox="0 0 186 230" fill="none" xmlns="http://www.w3.org/2000/svg">
<g clip-path="url(#clip0_6448_7538)">
<path fill-rule="evenodd" clip-rule="evenodd" d="M185.995 31.8034C164.713 31.1445 144.324 29.6912 124.734 20.3755C113.29 14.9344 103.091 7.57684 93.0025 0L93 0.00188083L92.9975 0C82.9092 7.57684 72.7096 14.9344 61.266 20.3755C41.6741 29.6919 21.2832 31.1447 0 31.8034C0 50.9386 0 70.0738 0 89.209C0 150.833 0.0231744 151.365 3.0704 160.174C8.28836 175.256 18.6328 185.965 42.1906 200.675C54.0693 208.093 92.0247 230 92.9975 230C92.9983 230 92.9991 230 93 230C93.0008 230 93.0017 230 93.0025 230C93.9753 230 131.931 208.093 143.809 200.675C167.367 185.965 177.712 175.256 182.93 160.174C185.977 151.365 186 150.833 186 89.209C186 70.0738 186 50.9386 186 31.8034H185.995ZM175.661 42.4406L174.556 42.4063H174.551C152.149 41.7128 137.928 38.656 120.499 30.3683C110.759 25.7374 101.616 19.8961 93 13.4251C84.3844 19.8961 75.2409 25.7374 65.5007 30.3683C48.0722 38.656 33.8508 41.7128 11.4486 42.4063L10.3389 42.4406C10.347 76.2429 9.25346 110.224 10.7147 143.996C11.5537 163.387 24.7667 176.208 40.5429 186.787C57.3892 198.066 75.2595 207.997 93 217.806C110.741 207.996 128.613 198.065 145.46 186.786C161.235 176.207 174.446 163.386 175.285 143.996C176.747 110.224 175.653 76.2429 175.661 42.4406Z" fill="#EFAF33"/>
<path d="M19.0625 87.2124H37.7648L19.0625 105.872V115.201H51.7915V105.872H33.0892L51.7915 87.2124V77.8828H19.0625V87.2124Z" fill="white"/>
<path d="M57.2464 115.201H84.5206V105.872H67.3768V101.207H79.845V91.8772H67.3768V87.2124H84.5206V77.8828H57.2464V115.201Z" fill="white"/>
<path d="M109.457 98.0969L99.3266 77.8828H89.9754V115.201H99.3266V98.667L104.781 108.981H114.133L119.587 98.667V115.201H128.939V77.8828H119.587L109.457 98.0969Z" fill="white"/>
<path d="M160.327 77.8828L141.145 77.8837C137.417 77.8837 134.393 80.9776 134.393 84.7918V90.9019C134.393 94.5036 136.769 97.6649 140.168 98.5925L157.771 103.539V105.873L143.745 105.874V102.764H134.393V108.294C134.393 112.108 137.417 115.202 141.145 115.202L160.327 115.201C164.055 115.201 167.122 112.107 167.122 108.293V102.183C167.122 98.5812 164.703 95.42 161.304 94.4923L143.745 89.5456V87.212L157.771 87.2111V90.3205H167.122V84.7909C167.122 80.9767 164.055 77.8828 160.327 77.8828Z" fill="white"/>
<path fill-rule="evenodd" clip-rule="evenodd" d="M23.1512 118.445H34.286C36.5435 118.445 38.3747 120.262 38.3747 122.501V125.747H32.8569V123.922H24.5803V134.874H32.8569V133.048H38.3747V136.295C38.3747 138.534 36.5435 140.35 34.286 140.35H23.1512C20.8936 140.35 19.0625 138.534 19.0625 136.295V122.501C19.0625 120.262 20.8936 118.445 23.1512 118.445Z" fill="#EFAF33"/>
<path fill-rule="evenodd" clip-rule="evenodd" d="M56.3571 118.445H45.2222C42.9647 118.445 41.1335 120.262 41.1335 122.501V136.295C41.1335 138.534 42.9647 140.35 45.2222 140.35H56.3571C58.6146 140.35 60.4457 138.534 60.4457 136.295V122.501C60.4457 120.262 58.6146 118.445 56.3571 118.445ZM46.6513 134.874H54.928V123.922H46.6513V134.874Z" fill="#EFAF33"/>
<path d="M68.7224 118.445H63.2046V140.35H68.7224V127.572L76.999 140.35H82.5168V118.445H76.999V131.223L68.7224 118.445Z" fill="#EFAF33"/>
<path d="M84.8158 118.445H104.128V123.922H97.2308V140.35H91.713V123.922H84.8158V118.445Z" fill="#EFAF33"/>
<path fill-rule="evenodd" clip-rule="evenodd" d="M125.739 130.006V122.4C125.739 120.219 123.952 118.445 121.754 118.445H106.427V140.35H111.942V133.961H115.623L120.221 140.35H125.739L121.132 133.949C123.192 133.8 125.739 132.09 125.739 130.006ZM111.942 128.485H120.221V123.922H111.942V128.485Z" fill="#EFAF33"/>
<path fill-rule="evenodd" clip-rule="evenodd" d="M144.181 118.445H133.047C130.789 118.445 128.958 120.262 128.958 122.501V136.295C128.958 138.534 130.789 140.35 133.047 140.35H144.181C146.439 140.35 148.27 138.534 148.27 136.295V122.501C148.27 120.262 146.439 118.445 144.181 118.445ZM134.476 134.874H142.752V123.922H134.476V134.874Z" fill="#EFAF33"/>
<path d="M156.547 118.445H151.029V140.35H167.122V134.874H156.547V118.445Z" fill="#EFAF33"/>
<path d="M19.0625 150.014L19.7051 148.501C19.9783 148.612 20.2576 148.699 20.5432 148.761C20.835 148.823 21.1144 148.863 21.3814 148.881C21.6484 148.894 21.8843 148.881 22.0892 148.844C22.3003 148.807 22.4679 148.745 22.5921 148.659C22.7162 148.572 22.7783 148.458 22.7783 148.315C22.7783 148.167 22.7162 148.065 22.5921 148.009C22.4679 147.953 22.3158 147.925 22.1357 147.925H20.3756V146.348H21.9495C22.1357 146.348 22.2754 146.314 22.3686 146.246C22.4679 146.171 22.5176 146.076 22.5176 145.958C22.5176 145.828 22.4617 145.726 22.3499 145.652C22.2444 145.577 22.0985 145.528 21.9122 145.503C21.7322 145.472 21.5273 145.469 21.2976 145.494C21.0679 145.513 20.8288 145.559 20.5805 145.633C20.3384 145.701 20.1024 145.791 19.8727 145.902L19.2301 144.306C19.6896 144.096 20.1707 143.953 20.6736 143.879C21.1827 143.799 21.6763 143.783 22.1544 143.833C22.6386 143.876 23.0732 143.978 23.4582 144.139C23.8493 144.3 24.1597 144.513 24.3895 144.779C24.6192 145.039 24.734 145.349 24.734 145.707C24.734 146.017 24.6502 146.295 24.4826 146.543C24.3149 146.784 24.0852 146.973 23.7934 147.109C23.5078 147.245 23.1819 147.313 22.8156 147.313L22.8621 146.877C23.2905 146.877 23.663 146.954 23.9797 147.109C24.3025 147.257 24.5509 147.461 24.7247 147.721C24.9048 147.981 24.9948 148.278 24.9948 148.612C24.9948 148.922 24.911 149.2 24.7433 149.448C24.5757 149.689 24.3429 149.896 24.0449 150.069C23.7531 150.236 23.4116 150.363 23.0205 150.45C22.6355 150.536 22.2196 150.58 21.7725 150.58C21.3317 150.586 20.8785 150.54 20.4129 150.441C19.9534 150.348 19.5033 150.205 19.0625 150.014Z" fill="#D4D4D5"/>
<path d="M25.2264 150.441L28.0762 143.944H30.2368L33.0865 150.441H30.8142L28.7095 144.984H29.5662L27.4615 150.441H25.2264ZM26.9214 149.308L27.4802 147.731H30.4789L31.0377 149.308H26.9214Z" fill="#D4D4D5"/>
<path d="M37.6368 148.742L37.1619 149.216V143.944H39.3225V149.216L38.8382 148.742H41.1105L40.6263 149.216V143.944H42.7869V150.441H33.6882V143.944H35.8488V149.216L35.3738 148.742H37.6368ZM41.5669 151.712V149.967L42.0418 150.441H40.5797V148.742H43.5784V151.712H41.5669Z" fill="#D4D4D5"/>
<path d="M44.3107 150.441V143.944H46.4712V147.322L48.7156 143.944H50.7831V150.441H48.6225V147.072L46.3874 150.441H44.3107Z" fill="#D4D4D5"/>
<path d="M53.4218 150.441V145.169L53.8967 145.642H51.5126V143.944H57.4915V145.642H55.1074L55.5823 145.169V150.441H53.4218Z" fill="#D4D4D5"/>
<path d="M57.3394 150.441L60.1892 143.944H62.3497L65.1995 150.441H62.9271L60.8224 144.984H61.6792L59.5745 150.441H57.3394ZM59.0344 149.308L59.5931 147.731H62.5919L63.1506 149.308H59.0344Z" fill="#D4D4D5"/>
<path d="M71.9179 150.589C71.384 150.589 70.8904 150.506 70.4371 150.338C69.9901 150.171 69.6021 149.936 69.273 149.633C68.944 149.324 68.6863 148.962 68.5001 148.547C68.32 148.133 68.23 147.681 68.23 147.192C68.23 146.697 68.32 146.246 68.5001 145.837C68.6863 145.423 68.944 145.064 69.273 144.761C69.6021 144.451 69.9901 144.213 70.4371 144.046C70.8904 143.879 71.3809 143.796 71.9086 143.796C72.4425 143.796 72.933 143.879 73.38 144.046C73.827 144.213 74.2151 144.451 74.5441 144.761C74.8732 145.064 75.1277 145.423 75.3078 145.837C75.494 146.246 75.5872 146.697 75.5872 147.192C75.5872 147.681 75.494 148.133 75.3078 148.547C75.1277 148.962 74.8732 149.324 74.5441 149.633C74.2151 149.936 73.827 150.171 73.38 150.338C72.933 150.506 72.4456 150.589 71.9179 150.589ZM71.9086 148.816C72.1135 148.816 72.3028 148.779 72.4767 148.705C72.6567 148.631 72.8119 148.526 72.9423 148.39C73.0789 148.247 73.1844 148.077 73.2589 147.879C73.3334 147.675 73.3707 147.446 73.3707 147.192C73.3707 146.939 73.3334 146.713 73.2589 146.515C73.1844 146.311 73.0789 146.141 72.9423 146.004C72.8119 145.862 72.6567 145.754 72.4767 145.68C72.3028 145.605 72.1135 145.568 71.9086 145.568C71.7037 145.568 71.5112 145.605 71.3312 145.68C71.1573 145.754 71.0021 145.862 70.8655 146.004C70.7352 146.141 70.6327 146.311 70.5582 146.515C70.4837 146.713 70.4465 146.939 70.4465 147.192C70.4465 147.446 70.4837 147.675 70.5582 147.879C70.6327 148.077 70.7352 148.247 70.8655 148.39C71.0021 148.526 71.1573 148.631 71.3312 148.705C71.5112 148.779 71.7037 148.816 71.9086 148.816Z" fill="#D4D4D5"/>
<path d="M77.768 150.441V145.169L78.2429 145.642H75.8588V143.944H81.8377V145.642H79.4536L79.9285 145.169V150.441H77.768Z" fill="#D4D4D5"/>
<path d="M84.8982 150.014L85.5408 148.501C85.814 148.612 86.0933 148.699 86.3789 148.761C86.6707 148.823 86.9501 148.863 87.2171 148.881C87.4841 148.894 87.72 148.881 87.9249 148.844C88.136 148.807 88.3036 148.745 88.4278 148.659C88.5519 148.572 88.614 148.458 88.614 148.315C88.614 148.167 88.5519 148.065 88.4278 148.009C88.3036 147.953 88.1515 147.925 87.9714 147.925H86.2113V146.348H87.7852C87.9714 146.348 88.1111 146.314 88.2043 146.246C88.3036 146.171 88.3533 146.076 88.3533 145.958C88.3533 145.828 88.2974 145.726 88.1856 145.652C88.0801 145.577 87.9342 145.528 87.7479 145.503C87.5679 145.472 87.363 145.469 87.1333 145.494C86.9036 145.513 86.6645 145.559 86.4162 145.633C86.1741 145.701 85.9381 145.791 85.7084 145.902L85.0658 144.306C85.5253 144.096 86.0064 143.953 86.5093 143.879C87.0184 143.799 87.512 143.783 87.9901 143.833C88.4743 143.876 88.9089 143.978 89.2939 144.139C89.685 144.3 89.9954 144.513 90.2251 144.779C90.4549 145.039 90.5697 145.349 90.5697 145.707C90.5697 146.017 90.4859 146.295 90.3183 146.543C90.1506 146.784 89.9209 146.973 89.6291 147.109C89.3435 147.245 89.0176 147.313 88.6513 147.313L88.6978 146.877C89.1262 146.877 89.4987 146.954 89.8154 147.109C90.1382 147.257 90.3866 147.461 90.5604 147.721C90.7405 147.981 90.8305 148.278 90.8305 148.612C90.8305 148.922 90.7467 149.2 90.579 149.448C90.4114 149.689 90.1786 149.896 89.8806 150.069C89.5888 150.236 89.2473 150.363 88.8562 150.45C88.4712 150.536 88.0553 150.58 87.6082 150.58C87.1674 150.586 86.7142 150.54 86.2486 150.441C85.7891 150.348 85.339 150.205 84.8982 150.014Z" fill="#D4D4D5"/>
<path d="M91.0621 150.441L93.9119 143.944H96.0725L98.9222 150.441H96.6498L94.5451 144.984H95.4019L93.2972 150.441H91.0621ZM92.7571 149.308L93.3158 147.731H96.3146L96.8734 149.308H92.7571Z" fill="#D4D4D5"/>
<path d="M102.711 150.589C102.19 150.589 101.705 150.509 101.258 150.348C100.817 150.181 100.433 149.946 100.103 149.642C99.7806 149.339 99.5292 148.98 99.3491 148.566C99.1691 148.151 99.0791 147.693 99.0791 147.192C99.0791 146.691 99.1691 146.233 99.3491 145.819C99.5292 145.404 99.7806 145.045 100.103 144.742C100.433 144.439 100.817 144.207 101.258 144.046C101.705 143.879 102.19 143.796 102.711 143.796C103.351 143.796 103.916 143.907 104.406 144.13C104.903 144.352 105.312 144.674 105.635 145.095L104.248 146.329C104.055 146.088 103.841 145.902 103.605 145.772C103.375 145.636 103.115 145.568 102.823 145.568C102.593 145.568 102.385 145.605 102.199 145.68C102.013 145.754 101.851 145.862 101.715 146.004C101.584 146.147 101.482 146.32 101.407 146.524C101.333 146.722 101.296 146.945 101.296 147.192C101.296 147.44 101.333 147.666 101.407 147.87C101.482 148.068 101.584 148.238 101.715 148.38C101.851 148.523 102.013 148.631 102.199 148.705C102.385 148.779 102.593 148.816 102.823 148.816C103.115 148.816 103.375 148.751 103.605 148.622C103.841 148.485 104.055 148.297 104.248 148.055L105.635 149.29C105.312 149.704 104.903 150.026 104.406 150.255C103.916 150.478 103.351 150.589 102.711 150.589Z" fill="#D4D4D5"/>
<path d="M107.735 150.441V145.169L108.21 145.642H105.825V143.944H111.804V145.642H109.42L109.895 145.169V150.441H107.735Z" fill="#D4D4D5"/>
<path d="M112.529 150.441V143.944H115.668C116.276 143.944 116.801 144.043 117.241 144.241C117.688 144.439 118.033 144.724 118.275 145.095C118.517 145.46 118.638 145.893 118.638 146.394C118.638 146.895 118.517 147.328 118.275 147.693C118.033 148.059 117.688 148.343 117.241 148.547C116.801 148.745 116.276 148.844 115.668 148.844H113.749L114.727 147.907V150.441H112.529ZM114.727 148.148L113.749 147.155H115.528C115.832 147.155 116.056 147.087 116.198 146.951C116.347 146.815 116.422 146.629 116.422 146.394C116.422 146.159 116.347 145.973 116.198 145.837C116.056 145.701 115.832 145.633 115.528 145.633H113.749L114.727 144.64V148.148Z" fill="#D4D4D5"/>
<path d="M122.72 150.589C122.186 150.589 121.693 150.506 121.239 150.338C120.792 150.171 120.404 149.936 120.075 149.633C119.746 149.324 119.489 148.962 119.302 148.547C119.122 148.133 119.032 147.681 119.032 147.192C119.032 146.697 119.122 146.246 119.302 145.837C119.489 145.423 119.746 145.064 120.075 144.761C120.404 144.451 120.792 144.213 121.239 144.046C121.693 143.879 122.183 143.796 122.711 143.796C123.245 143.796 123.735 143.879 124.182 144.046C124.629 144.213 125.017 144.451 125.346 144.761C125.676 145.064 125.93 145.423 126.11 145.837C126.296 146.246 126.39 146.697 126.39 147.192C126.39 147.681 126.296 148.133 126.11 148.547C125.93 148.962 125.676 149.324 125.346 149.633C125.017 149.936 124.629 150.171 124.182 150.338C123.735 150.506 123.248 150.589 122.72 150.589ZM122.711 148.816C122.916 148.816 123.105 148.779 123.279 148.705C123.459 148.631 123.614 148.526 123.745 148.39C123.881 148.247 123.987 148.077 124.061 147.879C124.136 147.675 124.173 147.446 124.173 147.192C124.173 146.939 124.136 146.713 124.061 146.515C123.987 146.311 123.881 146.141 123.745 146.004C123.614 145.862 123.459 145.754 123.279 145.68C123.105 145.605 122.916 145.568 122.711 145.568C122.506 145.568 122.314 145.605 122.134 145.68C121.96 145.754 121.804 145.862 121.668 146.004C121.538 146.141 121.435 146.311 121.361 146.515C121.286 146.713 121.249 146.939 121.249 147.192C121.249 147.446 121.286 147.675 121.361 147.879C121.435 148.077 121.538 148.247 121.668 148.39C121.804 148.526 121.96 148.631 122.134 148.705C122.314 148.779 122.506 148.816 122.711 148.816Z" fill="#D4D4D5"/>
<path d="M127.181 150.441V143.944H129.341V147.322L131.585 143.944H133.653V150.441H131.492V147.072L129.257 150.441H127.181ZM130.412 143.573C129.673 143.573 129.149 143.437 128.838 143.164C128.534 142.886 128.382 142.49 128.382 141.977H129.844C129.844 142.181 129.884 142.332 129.965 142.431C130.052 142.524 130.201 142.571 130.412 142.571C130.629 142.571 130.781 142.524 130.868 142.431C130.955 142.332 130.999 142.181 130.999 141.977H132.461C132.461 142.49 132.303 142.886 131.986 143.164C131.676 143.437 131.151 143.573 130.412 143.573Z" fill="#D4D4D5"/>
<path d="M138.76 148.742L138.285 149.216V143.944H140.445V149.216L139.961 148.742H142.233L141.749 149.216V143.944H143.91V150.441H134.811V143.944H136.971V149.216L136.496 148.742H138.76ZM142.69 151.712V149.967L143.165 150.441H141.702V148.742H144.701V151.712H142.69Z" fill="#D4D4D5"/>
<path d="M145.433 150.441V143.944H147.594V147.322L149.838 143.944H151.906V150.441H149.745V147.072L147.51 150.441H145.433Z" fill="#D4D4D5"/>
<path d="M157.068 150.441L155.448 147.396L157.199 146.376L159.545 150.441H157.068ZM153.008 150.441V143.944H155.206V150.441H153.008ZM154.572 148.093V146.366H157.04V148.093H154.572ZM157.413 147.424L155.392 147.22L157.264 143.944H159.555L157.413 147.424Z" fill="#D4D4D5"/>
<path d="M159.262 150.441L162.112 143.944H164.273L167.122 150.441H164.85L162.745 144.984H163.602L161.498 150.441H159.262ZM160.957 149.308L161.516 147.731H164.515L165.074 149.308H160.957Z" fill="#D4D4D5"/>
</g>
<defs>
<clipPath id="clip0_6448_7538">
<rect width="186" height="230" fill="white"/>
</clipPath>
</defs>
</svg>
