<svg width="195" height="241" viewBox="0 0 195 241" fill="none" xmlns="http://www.w3.org/2000/svg">
<g clip-path="url(#clip0_6448_7545)">
<path fill-rule="evenodd" clip-rule="evenodd" d="M194.995 33.3244C172.683 32.634 151.308 31.1112 130.769 21.35C118.772 15.6486 108.079 7.93921 97.5026 0L97.5 0.00197078L97.4974 0C86.921 7.93921 76.2278 15.6486 64.2305 21.35C43.6906 31.112 22.313 32.6343 0 33.3244C0 53.3748 0 73.4251 0 93.4755C0 158.047 0.0242958 158.605 3.21897 167.834C8.68941 183.638 19.5344 194.859 44.232 210.273C56.6855 218.045 96.4775 241 97.4974 241C97.4982 241 97.499 241 97.5 241C97.5009 241 97.5018 241 97.5026 241C98.5225 241 138.314 218.045 150.768 210.273C175.466 194.859 186.311 183.638 191.781 167.834C194.976 158.605 195 158.047 195 93.4755C195 73.4251 195 53.3748 195 33.3244H194.995ZM184.161 44.4704L183.003 44.4344H182.997C159.511 43.7077 144.602 40.5047 126.33 31.8207C116.118 26.9683 106.532 20.8477 97.5 14.0672C88.4676 20.8477 78.8815 26.9683 68.6701 31.8207C50.3983 40.5047 35.4887 43.7077 12.0026 44.4344L10.8392 44.4704C10.8477 79.8893 9.70121 115.496 11.2331 150.882C12.1128 171.201 25.9651 184.636 42.5047 195.721C60.1661 207.538 78.9011 217.945 97.5 228.222C116.1 217.944 134.836 207.538 152.498 195.719C169.037 184.634 182.887 171.2 183.767 150.882C185.299 115.496 184.152 79.8893 184.161 44.4704Z" fill="#2E2D31"/>
<path d="M19.9766 95.2133H39.5733L19.9766 114.765V124.541H54.2709V114.765H34.6741L54.2709 95.2133V85.4375H19.9766V95.2133Z" fill="#2E2D31"/>
<path d="M59.9866 124.541H88.5653V114.765H70.6016V109.877H83.6661V100.101H70.6016V95.2133H88.5653V85.4375H59.9866V124.541Z" fill="#2E2D31"/>
<path d="M114.694 106.618L104.079 85.4375H94.281V124.541H104.079V107.216L109.795 118.023H119.593L125.309 107.216V124.541H135.108V85.4375H125.309L114.694 106.618Z" fill="#2E2D31"/>
<path d="M167.997 85.4375L147.898 85.4384C143.992 85.4384 140.823 88.6803 140.823 92.6769V99.0792C140.823 102.853 143.313 106.166 146.874 107.138L165.319 112.321V114.766L150.622 114.767V111.509H140.823V117.303C140.823 121.3 143.992 124.542 147.898 124.542L167.997 124.541C171.903 124.541 175.118 121.299 175.118 117.302V110.9C175.118 107.126 172.582 103.813 169.021 102.841L150.622 97.6581V95.2129L165.319 95.2119V98.4701H175.118V92.676C175.118 88.6794 171.903 85.4375 167.997 85.4375Z" fill="#2E2D31"/>
<path fill-rule="evenodd" clip-rule="evenodd" d="M24.2608 132.195H35.9282C38.2936 132.195 40.2124 134.098 40.2124 136.445V139.846H34.4307V137.933H25.7582V149.41H34.4307V147.497H40.2124V150.898C40.2124 153.245 38.2936 155.148 35.9282 155.148H24.2608C21.8953 155.148 19.9766 153.245 19.9766 150.898V136.445C19.9766 134.098 21.8953 132.195 24.2608 132.195Z" fill="#2E2D31"/>
<path fill-rule="evenodd" clip-rule="evenodd" d="M59.0548 132.195H47.3874C45.0219 132.195 43.1032 134.098 43.1032 136.445V150.898C43.1032 153.245 45.0219 155.148 47.3874 155.148H59.0548C61.4202 155.148 63.339 153.245 63.339 150.898V136.445C63.339 134.098 61.4202 132.195 59.0548 132.195ZM48.8848 149.41H57.5573V137.933H48.8848V149.41Z" fill="#2E2D31"/>
<path d="M72.0115 132.195H66.2298V155.148H72.0115V141.759L80.6839 155.148H86.4656V132.195H80.6839V145.584L72.0115 132.195Z" fill="#2E2D31"/>
<path d="M88.8746 132.195H109.11V137.933H101.883V155.148H96.1017V137.933H88.8746V132.195Z" fill="#2E2D31"/>
<path fill-rule="evenodd" clip-rule="evenodd" d="M131.755 144.309V136.339C131.755 134.054 129.883 132.195 127.58 132.195H111.519V155.148H117.298V148.453H121.156L125.974 155.148H131.755L126.928 148.44C129.086 148.284 131.755 146.493 131.755 144.309ZM117.298 142.715H125.974V137.933H117.298V142.715Z" fill="#2E2D31"/>
<path fill-rule="evenodd" clip-rule="evenodd" d="M151.079 132.195H139.412C137.047 132.195 135.128 134.098 135.128 136.445V150.898C135.128 153.245 137.047 155.148 139.412 155.148H151.079C153.445 155.148 155.364 153.245 155.364 150.898V136.445C155.364 134.098 153.445 132.195 151.079 132.195ZM140.91 149.41H149.582V137.933H140.91V149.41Z" fill="#2E2D31"/>
<path d="M164.036 132.195H158.254V155.148H175.118V149.41H164.036V132.195Z" fill="#2E2D31"/>
</g>
<defs>
<clipPath id="clip0_6448_7545">
<rect width="195" height="241" fill="white"/>
</clipPath>
</defs>
</svg>
