<svg width="642" height="96" viewBox="0 0 642 96" fill="none" xmlns="http://www.w3.org/2000/svg">
<rect width="480" height="96" rx="4" fill="#154A92"/>
<path d="M176.34 22.722H177.502V19.964H176.648V11.662H175.486V19.964H170.026V11.662H168.864V21H176.34V22.722ZM181.992 21.168C183.098 21.168 184.008 20.804 184.68 20.132L184.176 19.446C183.644 19.992 182.86 20.3 182.09 20.3C180.634 20.3 179.738 19.236 179.654 17.962H185.128V17.696C185.128 15.666 183.924 14.07 181.88 14.07C179.948 14.07 178.548 15.652 178.548 17.612C178.548 19.726 179.99 21.168 181.992 21.168ZM184.092 17.192H179.654C179.71 16.156 180.424 14.938 181.866 14.938C183.406 14.938 184.078 16.184 184.092 17.192ZM187.878 21V17.976H191.406V21H192.456V14.238H191.406V17.052H187.878V14.238H186.828V21H187.878ZM199.831 21V16.352C199.831 14.714 198.641 14.07 197.213 14.07C196.107 14.07 195.239 14.434 194.511 15.19L195.001 15.918C195.603 15.274 196.261 14.98 197.073 14.98C198.053 14.98 198.781 15.498 198.781 16.408V17.626C198.235 16.996 197.465 16.702 196.541 16.702C195.393 16.702 194.175 17.416 194.175 18.928C194.175 20.398 195.393 21.168 196.541 21.168C197.451 21.168 198.221 20.846 198.781 20.23V21H199.831ZM196.919 20.412C195.939 20.412 195.253 19.796 195.253 18.942C195.253 18.074 195.939 17.458 196.919 17.458C197.661 17.458 198.375 17.738 198.781 18.298V19.572C198.375 20.132 197.661 20.412 196.919 20.412ZM204.747 22.722H205.797V21H210.907V22.722H211.957V20.076H211.173V14.238H206.469L206.035 17.57C205.769 19.572 205.377 20.02 204.747 20.132V22.722ZM207.393 15.162H210.123V20.076H206.105C206.595 19.684 206.917 18.97 207.085 17.696L207.393 15.162ZM212.595 21.168C213.897 21.168 214.625 20.216 214.933 17.696L215.241 15.162H217.971V21H219.021V14.238H214.317L213.883 17.57C213.617 19.572 213.225 20.3 212.595 20.3V21.168ZM222.125 21L223.777 18.382H225.625V21H226.675V14.238H223.105C221.733 14.238 220.963 15.162 220.963 16.31C220.963 17.444 221.691 18.214 222.699 18.34L220.893 21H222.125ZM223.217 17.458C222.447 17.458 222.041 16.982 222.041 16.31C222.041 15.638 222.475 15.162 223.217 15.162H225.625V17.458H223.217ZM231.585 22.722H232.635V21H237.745V22.722H238.795V20.076H238.011V14.238H233.307L232.873 17.57C232.607 19.572 232.215 20.02 231.585 20.132V22.722ZM234.231 15.162H236.961V20.076H232.943C233.433 19.684 233.755 18.97 233.923 17.696L234.231 15.162ZM241.239 21L244.809 15.736V21H245.859V14.238H244.823L241.281 19.404V14.238H240.231V21H241.239ZM247.157 21.168C248.459 21.168 249.187 20.216 249.495 17.696L249.803 15.162H252.533V21H253.583V14.238H248.879L248.445 17.57C248.179 19.572 247.787 20.3 247.157 20.3V21.168ZM258.732 21.168C259.838 21.168 260.748 20.804 261.42 20.132L260.916 19.446C260.384 19.992 259.6 20.3 258.83 20.3C257.374 20.3 256.478 19.236 256.394 17.962H261.868V17.696C261.868 15.666 260.664 14.07 258.62 14.07C256.688 14.07 255.288 15.652 255.288 17.612C255.288 19.726 256.73 21.168 258.732 21.168ZM260.832 17.192H256.394C256.45 16.156 257.164 14.938 258.606 14.938C260.146 14.938 260.818 16.184 260.832 17.192ZM266.901 21.168C268.679 21.168 269.911 19.796 269.911 17.612C269.911 15.414 268.679 14.07 266.901 14.07C265.949 14.07 265.109 14.56 264.619 15.246V14.238H263.569V23.576H264.619V19.978C265.165 20.734 265.977 21.168 266.901 21.168ZM266.635 20.23C265.809 20.23 264.983 19.726 264.619 19.138V16.086C264.983 15.498 265.809 15.008 266.635 15.008C267.993 15.008 268.805 16.114 268.805 17.612C268.805 19.11 267.993 20.23 266.635 20.23ZM276.858 21V16.352C276.858 14.714 275.668 14.07 274.24 14.07C273.134 14.07 272.266 14.434 271.538 15.19L272.028 15.918C272.63 15.274 273.288 14.98 274.1 14.98C275.08 14.98 275.808 15.498 275.808 16.408V17.626C275.262 16.996 274.492 16.702 273.568 16.702C272.42 16.702 271.202 17.416 271.202 18.928C271.202 20.398 272.42 21.168 273.568 21.168C274.478 21.168 275.248 20.846 275.808 20.23V21H276.858ZM273.946 20.412C272.966 20.412 272.28 19.796 272.28 18.942C272.28 18.074 272.966 17.458 273.946 17.458C274.688 17.458 275.402 17.738 275.808 18.298V19.572C275.402 20.132 274.688 20.412 273.946 20.412Z" fill="white"/>
<path d="M285.4 21L288.872 13.048V11.662H281.858V13.412H286.562L283.216 21H285.4ZM293.491 21.168C296.151 21.168 297.355 18.746 297.355 16.338C297.355 13.93 296.151 11.522 293.491 11.522C290.817 11.522 289.627 13.93 289.627 16.338C289.627 18.746 290.817 21.168 293.491 21.168ZM293.491 19.404C292.147 19.404 291.643 18.06 291.643 16.338C291.643 14.616 292.147 13.286 293.491 13.286C294.821 13.286 295.325 14.616 295.325 16.338C295.325 18.06 294.821 19.404 293.491 19.404ZM299.093 21V19.502H297.973V18.144H299.093V17.052H297.973V15.316H299.093V11.004H302.285C303.573 11.004 304.511 11.2653 305.099 11.788C305.696 12.3107 305.995 13.0293 305.995 13.944C305.995 14.4853 305.874 14.994 305.631 15.47C305.388 15.946 304.982 16.3287 304.413 16.618C303.853 16.9073 303.088 17.052 302.117 17.052H301.207V18.144H303.363V19.502H301.207V21H299.093ZM301.207 15.316H301.907C302.504 15.316 302.976 15.2133 303.321 15.008C303.676 14.8027 303.853 14.4713 303.853 14.014C303.853 13.1647 303.293 12.74 302.173 12.74H301.207V15.316Z" fill="#FFD556"/>
<g clip-path="url(#clip0)">
<path opacity="0.5" d="M102.987 59V56.792H104.363V54.792H102.987V48.328H99.8509L95.6109 55V56.792H100.715V59H102.987ZM100.715 54.792H97.8349L100.715 50.344V54.792ZM109.718 59.192C112.758 59.192 114.134 56.424 114.134 53.672C114.134 50.92 112.758 48.168 109.718 48.168C106.662 48.168 105.302 50.92 105.302 53.672C105.302 56.424 106.662 59.192 109.718 59.192ZM109.718 57.176C108.182 57.176 107.606 55.64 107.606 53.672C107.606 51.704 108.182 50.184 109.718 50.184C111.238 50.184 111.814 51.704 111.814 53.672C111.814 55.64 111.238 57.176 109.718 57.176ZM117.8 53.48C119.448 53.48 120.52 52.344 120.52 50.856C120.52 49.352 119.448 48.168 117.8 48.168C116.168 48.168 115.096 49.352 115.096 50.856C115.096 52.344 116.168 53.48 117.8 53.48ZM117.96 59L124.792 48.328H123.576L116.76 59H117.96ZM123.672 59.192C125.304 59.192 126.392 58.04 126.392 56.552C126.392 55.048 125.304 53.864 123.672 53.864C122.04 53.864 120.968 55.048 120.968 56.552C120.968 58.04 122.04 59.192 123.672 59.192ZM117.8 52.232C117.08 52.232 116.536 51.688 116.536 50.856C116.536 49.96 117.08 49.432 117.8 49.432C118.536 49.432 119.064 49.96 119.064 50.856C119.064 51.688 118.536 52.232 117.8 52.232ZM123.672 57.944C122.936 57.944 122.408 57.416 122.408 56.552C122.408 55.672 122.936 55.128 123.672 55.128C124.408 55.128 124.952 55.672 124.952 56.552C124.952 57.416 124.408 57.944 123.672 57.944ZM79.7593 73.12C80.9393 73.12 81.7393 72.56 82.2993 71.8L81.5893 71.41C81.2093 71.98 80.5193 72.38 79.7593 72.38C78.2993 72.38 77.1893 71.25 77.1893 69.67C77.1893 68.08 78.2993 66.96 79.7593 66.96C80.5193 66.96 81.2093 67.37 81.5893 67.93L82.2893 67.54C81.7593 66.79 80.9393 66.22 79.7593 66.22C77.8393 66.22 76.3293 67.62 76.3293 69.67C76.3293 71.72 77.8393 73.12 79.7593 73.12ZM85.5071 73.12C86.2971 73.12 86.9471 72.86 87.4271 72.38L87.0671 71.89C86.6871 72.28 86.1271 72.5 85.5771 72.5C84.5371 72.5 83.8971 71.74 83.8371 70.83H87.7471V70.64C87.7471 69.19 86.8871 68.05 85.4271 68.05C84.0471 68.05 83.0471 69.18 83.0471 70.58C83.0471 72.09 84.0771 73.12 85.5071 73.12ZM87.0071 70.28H83.8371C83.8771 69.54 84.3871 68.67 85.4171 68.67C86.5171 68.67 86.9971 69.56 87.0071 70.28ZM91.0719 72.45C90.0419 72.45 89.4619 71.57 89.4619 70.57C89.4619 69.6 90.0419 68.72 91.0719 68.72C92.1019 68.72 92.6719 69.6 92.6719 70.57C92.6719 71.57 92.1019 72.45 91.0719 72.45ZM91.0719 73.12C92.5619 73.12 93.4519 71.96 93.4519 70.57C93.4519 69.2 92.5619 68.05 91.1919 68.05C90.3319 68.05 89.7219 68.53 89.3719 69.08C89.5419 68.26 89.9719 67.64 91.4019 67.44C92.2219 67.33 93.3019 67.12 93.3019 66.33H92.5719C92.5719 66.53 92.2719 66.66 91.2119 66.82C89.5319 67.04 88.6819 68.01 88.6819 70.36C88.6819 71.96 89.5919 73.12 91.0719 73.12ZM96.9134 73.12C97.7034 73.12 98.3534 72.86 98.8334 72.38L98.4734 71.89C98.0934 72.28 97.5334 72.5 96.9834 72.5C95.9434 72.5 95.3034 71.74 95.2434 70.83H99.1534V70.64C99.1534 69.19 98.2934 68.05 96.8334 68.05C95.4534 68.05 94.4534 69.18 94.4534 70.58C94.4534 72.09 95.4834 73.12 96.9134 73.12ZM98.4134 70.28H95.2434C95.2834 69.54 95.7934 68.67 96.8234 68.67C97.9234 68.67 98.4034 69.56 98.4134 70.28ZM102.498 73.12C103.378 73.12 103.898 72.76 104.268 72.28L103.768 71.82C103.448 72.25 103.038 72.45 102.538 72.45C101.508 72.45 100.868 71.65 100.868 70.58C100.868 69.51 101.508 68.72 102.538 68.72C103.038 68.72 103.448 68.91 103.768 69.35L104.268 68.89C103.898 68.41 103.378 68.05 102.498 68.05C101.058 68.05 100.088 69.15 100.088 70.58C100.088 72.02 101.058 73.12 102.498 73.12ZM106.949 73V68.83H108.359V68.17H104.799V68.83H106.199V73H106.949ZM111.453 73.12C112.923 73.12 113.843 71.98 113.843 70.58C113.843 69.18 112.923 68.05 111.453 68.05C109.983 68.05 109.063 69.18 109.063 70.58C109.063 71.98 109.983 73.12 111.453 73.12ZM111.453 72.45C110.423 72.45 109.843 71.57 109.843 70.58C109.843 69.6 110.423 68.72 111.453 68.72C112.483 68.72 113.053 69.6 113.053 70.58C113.053 71.57 112.483 72.45 111.453 72.45ZM115.785 73L118.335 69.24V73H119.085V68.17H118.345L115.815 71.86V68.17L115.065 68.17V73L115.785 73ZM125.513 73V68.17H124.513L123.053 71.75L121.573 68.17H120.583V73H121.333V69.21L122.913 73H123.193L124.763 69.21V73H125.513ZM129.119 73.12C130.589 73.12 131.509 71.98 131.509 70.58C131.509 69.18 130.589 68.05 129.119 68.05C127.649 68.05 126.729 69.18 126.729 70.58C126.729 71.98 127.649 73.12 129.119 73.12ZM129.119 72.45C128.089 72.45 127.509 71.57 127.509 70.58C127.509 69.6 128.089 68.72 129.119 68.72C130.149 68.72 130.719 69.6 130.719 70.58C130.719 71.57 130.149 72.45 129.119 72.45ZM134.861 73.12C135.741 73.12 136.261 72.76 136.631 72.28L136.131 71.82C135.811 72.25 135.401 72.45 134.901 72.45C133.871 72.45 133.231 71.65 133.231 70.58C133.231 69.51 133.871 68.72 134.901 68.72C135.401 68.72 135.811 68.91 136.131 69.35L136.631 68.89C136.261 68.41 135.741 68.05 134.861 68.05C133.421 68.05 132.451 69.15 132.451 70.58C132.451 72.02 133.421 73.12 134.861 73.12ZM139.313 73V68.83H140.723V68.17H137.163V68.83H138.563V73H139.313ZM141.706 68.17V73H144.266C145.256 73 145.786 72.32 145.786 71.52C145.786 70.73 145.266 70.04 144.266 70.04H142.456V68.17H141.706ZM144.186 70.7C144.736 70.7 145.016 71.05 145.016 71.52C145.016 72 144.726 72.34 144.186 72.34H142.456V70.7H144.186Z" fill="white"/>
<rect opacity="0.15" x="217" y="42.5" width="1" height="35" fill="white"/>
<path opacity="0.5" d="M234.715 59V48.328H232.731L229.371 51.704L230.667 53.064L232.443 51.256V59H234.715ZM240.733 59.192C243.773 59.192 245.149 56.424 245.149 53.672C245.149 50.92 243.773 48.168 240.733 48.168C237.677 48.168 236.317 50.92 236.317 53.672C236.317 56.424 237.677 59.192 240.733 59.192ZM240.733 57.176C239.197 57.176 238.621 55.64 238.621 53.672C238.621 51.704 239.197 50.184 240.733 50.184C242.253 50.184 242.829 51.704 242.829 53.672C242.829 55.64 242.253 57.176 240.733 57.176ZM248.815 53.48C250.463 53.48 251.535 52.344 251.535 50.856C251.535 49.352 250.463 48.168 248.815 48.168C247.183 48.168 246.111 49.352 246.111 50.856C246.111 52.344 247.183 53.48 248.815 53.48ZM248.975 59L255.807 48.328H254.591L247.775 59H248.975ZM254.687 59.192C256.319 59.192 257.407 58.04 257.407 56.552C257.407 55.048 256.319 53.864 254.687 53.864C253.055 53.864 251.983 55.048 251.983 56.552C251.983 58.04 253.055 59.192 254.687 59.192ZM248.815 52.232C248.095 52.232 247.551 51.688 247.551 50.856C247.551 49.96 248.095 49.432 248.815 49.432C249.551 49.432 250.079 49.96 250.079 50.856C250.079 51.688 249.551 52.232 248.815 52.232ZM254.687 57.944C253.951 57.944 253.423 57.416 253.423 56.552C253.423 55.672 253.951 55.128 254.687 55.128C255.423 55.128 255.967 55.672 255.967 56.552C255.967 57.416 255.423 57.944 254.687 57.944ZM225.691 73V70.35H227.541C228.861 70.35 229.631 69.43 229.631 68.34C229.631 67.25 228.881 66.33 227.541 66.33H224.861V73H225.691ZM227.441 69.61H225.691V67.07H227.441C228.231 67.07 228.771 67.59 228.771 68.34C228.771 69.09 228.231 69.61 227.441 69.61ZM234.275 73V69.68C234.275 68.51 233.425 68.05 232.405 68.05C231.615 68.05 230.995 68.31 230.475 68.85L230.825 69.37C231.255 68.91 231.725 68.7 232.305 68.7C233.005 68.7 233.525 69.07 233.525 69.72V70.59C233.135 70.14 232.585 69.93 231.925 69.93C231.105 69.93 230.235 70.44 230.235 71.52C230.235 72.57 231.105 73.12 231.925 73.12C232.575 73.12 233.125 72.89 233.525 72.45V73H234.275ZM232.195 72.58C231.495 72.58 231.005 72.14 231.005 71.53C231.005 70.91 231.495 70.47 232.195 70.47C232.725 70.47 233.235 70.67 233.525 71.07V71.98C233.235 72.38 232.725 72.58 232.195 72.58ZM237.908 73.12C238.788 73.12 239.308 72.76 239.678 72.28L239.178 71.82C238.858 72.25 238.448 72.45 237.948 72.45C236.918 72.45 236.278 71.65 236.278 70.58C236.278 69.51 236.918 68.72 237.948 68.72C238.448 68.72 238.858 68.91 239.178 69.35L239.678 68.89C239.308 68.41 238.788 68.05 237.908 68.05C236.468 68.05 235.498 69.15 235.498 70.58C235.498 72.02 236.468 73.12 237.908 73.12ZM244.729 73L242.869 70.52L244.619 68.17H243.749L242.409 70.01L241.069 68.17H240.199L241.949 70.52L240.099 73H240.959L242.409 71.02L243.859 73H244.729ZM247.332 73.12C248.802 73.12 249.722 71.98 249.722 70.58C249.722 69.18 248.802 68.05 247.332 68.05C245.862 68.05 244.942 69.18 244.942 70.58C244.942 71.98 245.862 73.12 247.332 73.12ZM247.332 72.45C246.302 72.45 245.722 71.57 245.722 70.58C245.722 69.6 246.302 68.72 247.332 68.72C248.362 68.72 248.932 69.6 248.932 70.58C248.932 71.57 248.362 72.45 247.332 72.45ZM250.374 74.23H251.124V73H254.774V74.23H255.524V72.34H254.964V68.17H251.604L251.294 70.55C251.104 71.98 250.824 72.3 250.374 72.38V74.23ZM252.264 68.83H254.214V72.34H251.344C251.694 72.06 251.924 71.55 252.044 70.64L252.264 68.83ZM256.55 68.17V73H259.11C260.1 73 260.63 72.32 260.63 71.52C260.63 70.73 260.11 70.04 259.11 70.04H257.3V68.17H256.55ZM259.03 70.7C259.58 70.7 259.86 71.05 259.86 71.52C259.86 72 259.57 72.34 259.03 72.34H257.3V70.7H259.03ZM262.17 73V68.17H261.42V73H262.17Z" fill="white"/>
<rect opacity="0.15" x="269" y="42.5" width="1" height="35" fill="white"/>
<path opacity="0.5" d="M306.972 59V57L302.62 57C305.388 54.984 306.892 53.4 306.892 51.576C306.892 49.448 305.084 48.168 302.812 48.168C301.324 48.168 299.74 48.712 298.7 49.912L299.996 51.416C300.716 50.664 301.644 50.184 302.86 50.184C303.74 50.184 304.588 50.648 304.588 51.576C304.588 52.888 303.308 53.992 298.94 57.224V59L306.972 59ZM312.741 59.192C315.781 59.192 317.157 56.424 317.157 53.672C317.157 50.92 315.781 48.168 312.741 48.168C309.685 48.168 308.325 50.92 308.325 53.672C308.325 56.424 309.685 59.192 312.741 59.192ZM312.741 57.176C311.205 57.176 310.629 55.64 310.629 53.672C310.629 51.704 311.205 50.184 312.741 50.184C314.261 50.184 314.837 51.704 314.837 53.672C314.837 55.64 314.261 57.176 312.741 57.176ZM320.823 53.48C322.471 53.48 323.543 52.344 323.543 50.856C323.543 49.352 322.471 48.168 320.823 48.168C319.191 48.168 318.119 49.352 318.119 50.856C318.119 52.344 319.191 53.48 320.823 53.48ZM320.983 59L327.815 48.328H326.599L319.783 59H320.983ZM326.695 59.192C328.327 59.192 329.415 58.04 329.415 56.552C329.415 55.048 328.327 53.864 326.695 53.864C325.063 53.864 323.991 55.048 323.991 56.552C323.991 58.04 325.063 59.192 326.695 59.192ZM320.823 52.232C320.103 52.232 319.559 51.688 319.559 50.856C319.559 49.96 320.103 49.432 320.823 49.432C321.559 49.432 322.087 49.96 322.087 50.856C322.087 51.688 321.559 52.232 320.823 52.232ZM326.695 57.944C325.959 57.944 325.431 57.416 325.431 56.552C325.431 55.672 325.959 55.128 326.695 55.128C327.431 55.128 327.975 55.672 327.975 56.552C327.975 57.416 327.431 57.944 326.695 57.944ZM299.344 73V66.33H293.784V73H294.614V67.07H298.514V73H299.344ZM303.253 73.12C304.523 73.12 305.403 72.14 305.403 70.58C305.403 69.01 304.523 68.05 303.253 68.05C302.573 68.05 301.973 68.4 301.623 68.89V68.17H300.873V74.84H301.623V72.27C302.013 72.81 302.593 73.12 303.253 73.12ZM303.063 72.45C302.473 72.45 301.883 72.09 301.623 71.67V69.49C301.883 69.07 302.473 68.72 303.063 68.72C304.033 68.72 304.613 69.51 304.613 70.58C304.613 71.65 304.033 72.45 303.063 72.45ZM307.316 73L309.866 69.24V73H310.616V68.17H309.876L307.346 71.86V68.17H306.596V73H307.316ZM314.223 72.45C313.193 72.45 312.613 71.57 312.613 70.57C312.613 69.6 313.193 68.72 314.223 68.72C315.253 68.72 315.823 69.6 315.823 70.57C315.823 71.57 315.253 72.45 314.223 72.45ZM314.223 73.12C315.713 73.12 316.603 71.96 316.603 70.57C316.603 69.2 315.713 68.05 314.343 68.05C313.483 68.05 312.873 68.53 312.523 69.08C312.693 68.26 313.123 67.64 314.553 67.44C315.373 67.33 316.453 67.12 316.453 66.33H315.723C315.723 66.53 315.423 66.66 314.363 66.82C312.683 67.04 311.833 68.01 311.833 70.36C311.833 71.96 312.743 73.12 314.223 73.12ZM317.885 68.17V73H320.445C321.435 73 321.965 72.32 321.965 71.52C321.965 70.73 321.445 70.04 320.445 70.04H318.635V68.17H317.885ZM320.365 70.7C320.915 70.7 321.195 71.05 321.195 71.52C321.195 72 320.905 72.34 320.365 72.34H318.635V70.7H320.365ZM323.505 73V68.17H322.755V73H323.505ZM324.434 73.12C325.364 73.12 325.884 72.44 326.104 70.64L326.324 68.83H328.274V73H329.024V68.17H325.664L325.354 70.55C325.164 71.98 324.884 72.5 324.434 72.5V73.12ZM330.521 68.17V73H333.081C334.071 73 334.601 72.32 334.601 71.52C334.601 70.73 334.081 70.04 333.081 70.04H331.271V68.17H330.521ZM333.001 70.7C333.551 70.7 333.831 71.05 333.831 71.52C333.831 72 333.541 72.34 333.001 72.34H331.271V70.7H333.001Z" fill="white"/>
<rect opacity="0.15" x="358" y="42.5" width="1" height="35" fill="white"/>
<path d="M405.817 59.192C408.377 59.192 410.025 57.896 410.025 56.056C410.025 54.456 408.617 53.608 407.529 53.496C408.713 53.288 409.865 52.408 409.865 51.064C409.865 49.288 408.329 48.168 405.833 48.168C403.961 48.168 402.617 48.888 401.753 49.864L402.889 51.288C403.641 50.568 404.569 50.184 405.593 50.184C406.713 50.184 407.577 50.6 407.577 51.448C407.577 52.232 406.793 52.584 405.609 52.584C405.209 52.584 404.473 52.584 404.281 52.568V54.616C404.441 54.6 405.161 54.584 405.609 54.584C407.097 54.584 407.753 54.968 407.753 55.816C407.753 56.616 407.033 57.176 405.737 57.176C404.697 57.176 403.529 56.728 402.793 55.96L401.609 57.48C402.393 58.44 403.849 59.192 405.817 59.192ZM415.64 59.192C418.68 59.192 420.056 56.424 420.056 53.672C420.056 50.92 418.68 48.168 415.64 48.168C412.584 48.168 411.224 50.92 411.224 53.672C411.224 56.424 412.584 59.192 415.64 59.192ZM415.64 57.176C414.104 57.176 413.528 55.64 413.528 53.672C413.528 51.704 414.104 50.184 415.64 50.184C417.16 50.184 417.736 51.704 417.736 53.672C417.736 55.64 417.16 57.176 415.64 57.176ZM423.722 53.48C425.37 53.48 426.442 52.344 426.442 50.856C426.442 49.352 425.37 48.168 423.722 48.168C422.09 48.168 421.018 49.352 421.018 50.856C421.018 52.344 422.09 53.48 423.722 53.48ZM423.882 59L430.714 48.328H429.498L422.682 59H423.882ZM429.594 59.192C431.226 59.192 432.314 58.04 432.314 56.552C432.314 55.048 431.226 53.864 429.594 53.864C427.962 53.864 426.89 55.048 426.89 56.552C426.89 58.04 427.962 59.192 429.594 59.192ZM423.722 52.232C423.002 52.232 422.458 51.688 422.458 50.856C422.458 49.96 423.002 49.432 423.722 49.432C424.458 49.432 424.986 49.96 424.986 50.856C424.986 51.688 424.458 52.232 423.722 52.232ZM429.594 57.944C428.858 57.944 428.33 57.416 428.33 56.552C428.33 55.672 428.858 55.128 429.594 55.128C430.33 55.128 430.874 55.672 430.874 56.552C430.874 57.416 430.33 57.944 429.594 57.944ZM373.637 74.23H375.057V73H379.217V74.23H380.637V71.75H380.037V66.33H375.297L374.907 69.74C374.697 71.5 374.317 71.77 373.637 71.86V74.23ZM376.317 69.84L376.577 67.58H378.607V71.75H375.507C375.927 71.36 376.217 70.74 376.317 69.84ZM382.659 73L384.709 69.97V73H385.979V68.17H384.699L382.709 71.09V68.17H381.439V73H382.659ZM386.789 73.12C388.019 73.12 388.619 72.33 388.819 70.66L388.979 69.28H390.509V73H391.779V68.17H387.869L387.559 70.51C387.409 71.68 387.179 72.08 386.789 72.08V73.12ZM395.31 73.12C396.06 73.12 396.82 72.89 397.3 72.45L396.74 71.63C396.43 71.93 395.86 72.11 395.45 72.11C394.63 72.11 394.14 71.6 394.06 70.99H397.65V70.71C397.65 69.13 396.67 68.05 395.23 68.05C393.76 68.05 392.73 69.18 392.73 70.58C392.73 72.13 393.84 73.12 395.31 73.12ZM396.42 70.13H394.04C394.1 69.65 394.44 69.06 395.23 69.06C396.07 69.06 396.39 69.67 396.42 70.13ZM401.328 73.12C402.568 73.12 403.468 72.19 403.468 70.58C403.468 68.97 402.568 68.05 401.328 68.05C400.738 68.05 400.208 68.31 399.838 68.78V68.17H398.568V74.84H399.838V72.38C400.228 72.88 400.758 73.12 401.328 73.12ZM400.928 71.99C400.518 71.99 400.048 71.74 399.838 71.44V69.73C400.048 69.42 400.518 69.18 400.928 69.18C401.658 69.18 402.148 69.75 402.148 70.58C402.148 71.42 401.658 71.99 400.928 71.99ZM406.648 73.12C407.638 73.12 408.238 72.69 408.558 72.24L407.728 71.47C407.498 71.79 407.148 71.99 406.708 71.99C405.938 71.99 405.398 71.42 405.398 70.58C405.398 69.74 405.938 69.18 406.708 69.18C407.148 69.18 407.498 69.36 407.728 69.7L408.558 68.92C408.238 68.48 407.638 68.05 406.648 68.05C405.158 68.05 404.088 69.1 404.088 70.58C404.088 72.07 405.158 73.12 406.648 73.12ZM414.108 73L412.138 70.36L414.048 68.17H412.488L410.658 70.32V68.17H409.388V73H410.658V71.76L411.238 71.14L412.518 73H414.108ZM418.909 73V69.88C418.909 68.49 417.899 68.05 416.799 68.05C416.039 68.05 415.279 68.29 414.689 68.81L415.169 69.66C415.579 69.28 416.059 69.09 416.579 69.09C417.219 69.09 417.639 69.41 417.639 69.9V70.55C417.319 70.17 416.749 69.96 416.109 69.96C415.339 69.96 414.429 70.39 414.429 71.52C414.429 72.6 415.339 73.12 416.109 73.12C416.739 73.12 417.309 72.89 417.639 72.5V73H418.909ZM416.619 72.26C416.119 72.26 415.709 72 415.709 71.55C415.709 71.08 416.119 70.82 416.619 70.82C417.029 70.82 417.429 70.96 417.639 71.24V71.84C417.429 72.12 417.029 72.26 416.619 72.26ZM421.449 73L422.399 71.34H423.389V73H424.659V68.17H421.729C420.659 68.17 420.059 68.9 420.059 69.75C420.059 70.61 420.579 71.11 421.129 71.25L420.009 73H421.449ZM421.929 70.28C421.569 70.28 421.349 70.06 421.349 69.75C421.349 69.45 421.579 69.24 421.929 69.24H423.389V70.28H421.929ZM430.71 73.12C431.7 73.12 432.3 72.69 432.62 72.24L431.79 71.47C431.56 71.79 431.21 71.99 430.77 71.99C430 71.99 429.46 71.42 429.46 70.58C429.46 69.74 430 69.18 430.77 69.18C431.21 69.18 431.56 69.36 431.79 69.7L432.62 68.92C432.3 68.48 431.7 68.05 430.71 68.05C429.22 68.05 428.15 69.1 428.15 70.58C428.15 72.07 429.22 73.12 430.71 73.12ZM438.17 73L436.2 70.36L438.11 68.17H436.55L434.72 70.32V68.17H433.45V73H434.72V71.76L435.3 71.14L436.58 73H438.17ZM440.022 73L442.072 69.97V73H443.342V68.17H442.062L440.072 71.09V68.17H438.802V73H440.022ZM444.153 74.23H445.433V73H448.403V74.23H449.673V71.89H449.143V68.17H445.233L444.923 70.51C444.773 71.68 444.543 71.87 444.153 71.94V74.23ZM446.343 69.28H447.873V71.89H445.633C445.933 71.61 446.123 71.18 446.193 70.59L446.343 69.28ZM455.192 73L453.222 70.36L455.132 68.17H453.572L451.742 70.32V68.17H450.472V73H451.742V71.76L452.322 71.14L453.602 73H455.192ZM459.993 73V69.88C459.993 68.49 458.983 68.05 457.883 68.05C457.123 68.05 456.363 68.29 455.773 68.81L456.253 69.66C456.663 69.28 457.143 69.09 457.663 69.09C458.303 69.09 458.723 69.41 458.723 69.9V70.55C458.403 70.17 457.833 69.96 457.193 69.96C456.423 69.96 455.513 70.39 455.513 71.52C455.513 72.6 456.423 73.12 457.193 73.12C457.823 73.12 458.393 72.89 458.723 72.5V73H459.993ZM457.703 72.26C457.203 72.26 456.793 72 456.793 71.55C456.793 71.08 457.203 70.82 457.703 70.82C458.113 70.82 458.513 70.96 458.723 71.24V71.84C458.513 72.12 458.113 72.26 457.703 72.26Z" fill="#FFD556"/>
</g>
<g opacity="0.2">
<rect x="488.5" y="0.5" width="153" height="95" rx="3.5" fill="#DB5A5A" stroke="white" stroke-dasharray="4 4"/>
<path d="M541.425 47L547.377 33.368V30.992L535.353 30.992V33.992H543.417L537.681 47H541.425ZM555.199 47.288C559.063 47.288 561.607 45.152 561.607 41.744C561.607 38.504 559.183 36.56 556.471 36.56C555.007 36.56 553.711 37.136 552.943 37.904V33.992L560.527 33.992V30.992H549.535V40.184L551.911 40.808C552.871 39.896 553.951 39.512 555.271 39.512C557.095 39.512 558.151 40.472 558.151 41.888C558.151 43.184 557.071 44.264 555.175 44.264C553.495 44.264 552.007 43.64 550.927 42.512L549.031 44.888C550.399 46.376 552.415 47.288 555.199 47.288ZM570.185 47.288C573.833 47.288 576.305 44.912 576.305 41.792C576.305 38.384 573.737 36.584 570.857 36.584C569.105 36.584 567.497 37.568 566.753 38.648C566.729 38.528 566.729 38.432 566.729 38.312C566.729 35.768 568.385 33.776 570.737 33.776C572.153 33.776 573.065 34.208 573.929 35.024L575.465 32.408C574.313 31.424 572.681 30.752 570.737 30.752C566.009 30.752 563.273 34.184 563.273 39.032C563.273 43.544 565.313 47.288 570.185 47.288ZM569.993 44.264C567.761 44.264 566.897 42.56 566.753 41.024C567.521 40.064 568.673 39.512 569.873 39.512C571.409 39.512 572.849 40.232 572.849 41.912C572.849 43.04 571.841 44.264 569.993 44.264ZM581.739 38.72C584.211 38.72 585.819 37.016 585.819 34.784C585.819 32.528 584.211 30.752 581.739 30.752C579.291 30.752 577.683 32.528 577.683 34.784C577.683 37.016 579.291 38.72 581.739 38.72ZM581.979 47L592.227 30.992H590.403L580.179 47H581.979ZM590.547 47.288C592.995 47.288 594.627 45.56 594.627 43.328C594.627 41.072 592.995 39.296 590.547 39.296C588.099 39.296 586.491 41.072 586.491 43.328C586.491 45.56 588.099 47.288 590.547 47.288ZM581.739 36.848C580.659 36.848 579.843 36.032 579.843 34.784C579.843 33.44 580.659 32.648 581.739 32.648C582.843 32.648 583.635 33.44 583.635 34.784C583.635 36.032 582.843 36.848 581.739 36.848ZM590.547 45.416C589.443 45.416 588.651 44.624 588.651 43.328C588.651 42.008 589.443 41.192 590.547 41.192C591.651 41.192 592.467 42.008 592.467 43.328C592.467 44.624 591.651 45.416 590.547 45.416ZM521.103 68.722H522.265V67H529.223V68.722H530.385V65.964H529.531V57.662H523.819L523.245 62.352C522.853 65.516 522.223 65.992 521.103 66.062V68.722ZM524.393 62.436L524.855 58.698H528.369V65.964H522.965C523.651 65.446 524.155 64.41 524.393 62.436ZM531.444 69.646C531.64 69.702 531.99 69.744 532.214 69.744C533.11 69.73 533.796 69.352 534.202 68.372L537.59 60.238H536.442L534.202 65.782L531.948 60.238H530.814L533.642 67.07L533.194 68.092C532.956 68.652 532.648 68.806 532.186 68.806C532.018 68.806 531.766 68.764 531.612 68.694L531.444 69.646ZM540.968 67V61.162H542.942V60.238H537.958V61.162H539.918V67H540.968ZM544.319 60.238V67H547.903C549.289 67 550.031 66.048 550.031 64.928C550.031 63.822 549.303 62.856 547.903 62.856H545.369V60.238H544.319ZM547.791 63.78C548.561 63.78 548.953 64.27 548.953 64.928C548.953 65.6 548.547 66.076 547.791 66.076H545.369V63.78H547.791ZM552.187 67V60.238H551.137V67H552.187ZM557.337 67.168C558.443 67.168 559.353 66.804 560.025 66.132L559.521 65.446C558.989 65.992 558.205 66.3 557.435 66.3C555.979 66.3 555.083 65.236 554.999 63.962H560.473V63.696C560.473 61.666 559.269 60.07 557.225 60.07C555.293 60.07 553.893 61.652 553.893 63.612C553.893 65.726 555.335 67.168 557.337 67.168ZM559.437 63.192H554.999C555.055 62.156 555.769 60.938 557.211 60.938C558.751 60.938 559.423 62.184 559.437 63.192ZM568.765 67.168C569.997 67.168 570.725 66.664 571.243 65.992L570.543 65.348C570.095 65.95 569.521 66.23 568.821 66.23C567.379 66.23 566.483 65.11 566.483 63.612C566.483 62.114 567.379 61.008 568.821 61.008C569.521 61.008 570.095 61.274 570.543 61.89L571.243 61.246C570.725 60.574 569.997 60.07 568.765 60.07C566.749 60.07 565.391 61.61 565.391 63.612C565.391 65.628 566.749 67.168 568.765 67.168ZM578.665 67L575.655 63.304L578.651 60.238H577.321L573.765 63.836V60.238H572.715V67H573.765V65.068L574.885 63.962L577.321 67H578.665ZM580.914 67L584.484 61.736V67H585.534V60.238H584.498L580.956 65.404V60.238H579.906V67H580.914ZM586.833 68.722H587.883V67H592.993V68.722H594.043V66.076H593.259V60.238H588.555L588.121 63.57C587.855 65.572 587.463 66.02 586.833 66.132V68.722ZM589.479 61.162H592.209V66.076H588.191C588.681 65.684 589.003 64.97 589.171 63.696L589.479 61.162ZM601.429 67L598.419 63.304L601.415 60.238H600.085L596.529 63.836V60.238H595.479V67H596.529V65.068L597.649 63.962L600.085 67H601.429ZM603.678 67L607.248 61.736V67H608.298V60.238H607.262L603.72 65.404V60.238H602.67V67H603.678Z" fill="white"/>
<path d="M504.014 16L626.014 80M626.014 16L504.014 80" stroke="white"/>
</g>
<defs>
<clipPath id="clip0">
<rect x="5" y="30" width="470" height="60" fill="white"/>
</clipPath>
</defs>
</svg>
