<svg width="642" height="96" viewBox="0 0 642 96" fill="none" xmlns="http://www.w3.org/2000/svg">
<rect width="480" height="96" rx="4" fill="#154A92"/>
<path d="M163.488 22.722H164.65V19.964H163.796V11.662H162.634V19.964H157.174V11.662H156.012V21H163.488V22.722ZM169.139 21.168C170.245 21.168 171.155 20.804 171.827 20.132L171.323 19.446C170.791 19.992 170.007 20.3 169.237 20.3C167.781 20.3 166.885 19.236 166.801 17.962H172.275V17.696C172.275 15.666 171.071 14.07 169.027 14.07C167.095 14.07 165.695 15.652 165.695 17.612C165.695 19.726 167.137 21.168 169.139 21.168ZM171.239 17.192H166.801C166.857 16.156 167.571 14.938 169.013 14.938C170.553 14.938 171.225 16.184 171.239 17.192ZM175.026 21V17.976H178.554V21H179.604V14.238H178.554V17.052H175.026V14.238H173.976V21H175.026ZM186.978 21V16.352C186.978 14.714 185.788 14.07 184.36 14.07C183.254 14.07 182.386 14.434 181.658 15.19L182.148 15.918C182.75 15.274 183.408 14.98 184.22 14.98C185.2 14.98 185.928 15.498 185.928 16.408V17.626C185.382 16.996 184.612 16.702 183.688 16.702C182.54 16.702 181.322 17.416 181.322 18.928C181.322 20.398 182.54 21.168 183.688 21.168C184.598 21.168 185.368 20.846 185.928 20.23V21H186.978ZM184.066 20.412C183.086 20.412 182.4 19.796 182.4 18.942C182.4 18.074 183.086 17.458 184.066 17.458C184.808 17.458 185.522 17.738 185.928 18.298V19.572C185.522 20.132 184.808 20.412 184.066 20.412ZM193.743 21V17.976H197.271V21H198.321V14.238H197.271V17.052H193.743V14.238H192.693V21H193.743ZM205.695 21V16.352C205.695 14.714 204.505 14.07 203.077 14.07C201.971 14.07 201.103 14.434 200.375 15.19L200.865 15.918C201.467 15.274 202.125 14.98 202.937 14.98C203.917 14.98 204.645 15.498 204.645 16.408V17.626C204.099 16.996 203.329 16.702 202.405 16.702C201.257 16.702 200.039 17.416 200.039 18.928C200.039 20.398 201.257 21.168 202.405 21.168C203.315 21.168 204.085 20.846 204.645 20.23V21H205.695ZM202.783 20.412C201.803 20.412 201.117 19.796 201.117 18.942C201.117 18.074 201.803 17.458 202.783 17.458C203.525 17.458 204.239 17.738 204.645 18.298V19.572C204.239 20.132 203.525 20.412 202.783 20.412ZM217.863 21V19.964H212.515L217.765 12.628V11.662H211.031V12.698H216.281L211.031 20.034V21H217.863ZM222.651 21.168C223.757 21.168 224.667 20.804 225.339 20.132L224.835 19.446C224.303 19.992 223.519 20.3 222.749 20.3C221.293 20.3 220.397 19.236 220.313 17.962H225.787V17.696C225.787 15.666 224.583 14.07 222.539 14.07C220.607 14.07 219.207 15.652 219.207 17.612C219.207 19.726 220.649 21.168 222.651 21.168ZM224.751 17.192H220.313C220.369 16.156 221.083 14.938 222.525 14.938C224.065 14.938 224.737 16.184 224.751 17.192ZM236.7 21V16.114C236.7 14.756 236.042 14.07 234.81 14.07C233.829 14.07 232.92 14.714 232.542 15.33C232.346 14.63 231.758 14.07 230.722 14.07C229.728 14.07 228.818 14.784 228.538 15.218V14.238H227.488V21H228.538V16.058C228.902 15.512 229.63 15.008 230.316 15.008C231.198 15.008 231.562 15.554 231.562 16.408V21H232.612V16.044C232.962 15.512 233.704 15.008 234.404 15.008C235.272 15.008 235.65 15.554 235.65 16.408V21H236.7ZM241.86 21.168C244.38 21.168 245.304 19.782 245.304 18.424C245.304 14.938 239.774 16.142 239.774 14.042C239.774 13.16 240.572 12.558 241.692 12.558C242.714 12.558 243.694 12.908 244.394 13.678L245.094 12.824C244.31 11.998 243.204 11.522 241.776 11.522C239.942 11.522 238.57 12.572 238.57 14.112C238.57 17.444 244.1 16.114 244.1 18.522C244.1 19.236 243.568 20.132 241.902 20.132C240.586 20.132 239.578 19.488 238.962 18.802L238.276 19.684C239.046 20.552 240.236 21.168 241.86 21.168ZM252.947 21L249.937 17.304L252.933 14.238H251.603L248.047 17.836V11.662H246.997V21H248.047V19.068L249.167 17.962L251.603 21H252.947ZM254.707 13.272C255.099 13.272 255.421 12.964 255.421 12.572C255.421 12.18 255.099 11.858 254.707 11.858C254.329 11.858 254.007 12.18 254.007 12.572C254.007 12.964 254.329 13.272 254.707 13.272ZM255.239 21V14.238H254.189V21H255.239ZM263.283 21V11.662H262.233V15.26C261.687 14.518 260.861 14.07 259.951 14.07C258.173 14.07 256.941 15.47 256.941 17.626C256.941 19.824 258.187 21.168 259.951 21.168C260.903 21.168 261.729 20.678 262.233 19.992V21H263.283ZM260.203 20.23C258.845 20.23 258.033 19.124 258.033 17.626C258.033 16.128 258.845 15.008 260.203 15.008C261.043 15.008 261.855 15.512 262.233 16.1V19.166C261.855 19.754 261.043 20.23 260.203 20.23ZM271.336 21L268.326 17.304L271.322 14.238H269.992L266.436 17.836V11.662H265.386V21H266.436V19.068L267.556 17.962L269.992 21H271.336ZM273.095 13.272C273.487 13.272 273.809 12.964 273.809 12.572C273.809 12.18 273.487 11.858 273.095 11.858C272.717 11.858 272.395 12.18 272.395 12.572C272.395 12.964 272.717 13.272 273.095 13.272ZM273.627 21V14.238H272.577V21H273.627ZM276.282 21.14C276.702 21.14 277.052 20.79 277.052 20.37C277.052 19.95 276.702 19.6 276.282 19.6C275.862 19.6 275.512 19.95 275.512 20.37C275.512 20.79 275.862 21.14 276.282 21.14ZM279.998 21V16.212C280.306 15.666 281.188 15.134 281.832 15.134C282 15.134 282.126 15.148 282.252 15.176V14.098C281.328 14.098 280.544 14.616 279.998 15.33V14.238H278.948V21H279.998ZM289.184 21V14.238H288.134V19.208C287.742 19.754 286.958 20.23 286.132 20.23C285.222 20.23 284.62 19.88 284.62 18.69V14.238H283.57V19.012C283.57 20.482 284.312 21.168 285.726 21.168C286.734 21.168 287.616 20.636 288.134 20.048V21H289.184Z" fill="white"/>
<path d="M297.718 21L301.19 13.048V11.662H294.176V13.412H298.88L295.534 21H297.718ZM305.431 21.168C307.671 21.168 309.113 20.034 309.113 18.424C309.113 17.024 307.881 16.282 306.929 16.184C307.965 16.002 308.973 15.232 308.973 14.056C308.973 12.502 307.629 11.522 305.445 11.522C303.807 11.522 302.631 12.152 301.875 13.006L302.869 14.252C303.527 13.622 304.339 13.286 305.235 13.286C306.215 13.286 306.971 13.65 306.971 14.392C306.971 15.078 306.285 15.386 305.249 15.386C304.899 15.386 304.255 15.386 304.087 15.372V17.164C304.227 17.15 304.857 17.136 305.249 17.136C306.551 17.136 307.125 17.472 307.125 18.214C307.125 18.914 306.495 19.404 305.361 19.404C304.451 19.404 303.429 19.012 302.785 18.34L301.749 19.67C302.435 20.51 303.709 21.168 305.431 21.168ZM310.946 21V19.502H309.826V18.144H310.946V17.052H309.826V15.316H310.946V11.004H314.138C315.426 11.004 316.364 11.2653 316.952 11.788C317.549 12.3107 317.848 13.0293 317.848 13.944C317.848 14.4853 317.726 14.994 317.484 15.47C317.241 15.946 316.835 16.3287 316.266 16.618C315.706 16.9073 314.94 17.052 313.97 17.052H313.06V18.144H315.216V19.502H313.06V21H310.946ZM313.06 15.316H313.76C314.357 15.316 314.828 15.2133 315.174 15.008C315.528 14.8027 315.706 14.4713 315.706 14.014C315.706 13.1647 315.146 12.74 314.026 12.74H313.06V15.316Z" fill="#FFD556"/>
<g clip-path="url(#clip0)">
<path opacity="0.5" d="M98.9869 59V56.792H100.363V54.792H98.9869V48.328H95.8509L91.6109 55V56.792H96.7149V59H98.9869ZM96.7149 54.792H93.8349L96.7149 50.344V54.792ZM105.718 59.192C108.758 59.192 110.134 56.424 110.134 53.672C110.134 50.92 108.758 48.168 105.718 48.168C102.662 48.168 101.302 50.92 101.302 53.672C101.302 56.424 102.662 59.192 105.718 59.192ZM105.718 57.176C104.182 57.176 103.606 55.64 103.606 53.672C103.606 51.704 104.182 50.184 105.718 50.184C107.238 50.184 107.814 51.704 107.814 53.672C107.814 55.64 107.238 57.176 105.718 57.176ZM113.8 53.48C115.448 53.48 116.52 52.344 116.52 50.856C116.52 49.352 115.448 48.168 113.8 48.168C112.168 48.168 111.096 49.352 111.096 50.856C111.096 52.344 112.168 53.48 113.8 53.48ZM113.96 59L120.792 48.328H119.576L112.76 59H113.96ZM119.672 59.192C121.304 59.192 122.392 58.04 122.392 56.552C122.392 55.048 121.304 53.864 119.672 53.864C118.04 53.864 116.968 55.048 116.968 56.552C116.968 58.04 118.04 59.192 119.672 59.192ZM113.8 52.232C113.08 52.232 112.536 51.688 112.536 50.856C112.536 49.96 113.08 49.432 113.8 49.432C114.536 49.432 115.064 49.96 115.064 50.856C115.064 51.688 114.536 52.232 113.8 52.232ZM119.672 57.944C118.936 57.944 118.408 57.416 118.408 56.552C118.408 55.672 118.936 55.128 119.672 55.128C120.408 55.128 120.952 55.672 120.952 56.552C120.952 57.416 120.408 57.944 119.672 57.944ZM75.7593 73.12C76.9393 73.12 77.7393 72.56 78.2993 71.8L77.5893 71.41C77.2093 71.98 76.5193 72.38 75.7593 72.38C74.2993 72.38 73.1893 71.25 73.1893 69.67C73.1893 68.08 74.2993 66.96 75.7593 66.96C76.5193 66.96 77.2093 67.37 77.5893 67.93L78.2893 67.54C77.7593 66.79 76.9393 66.22 75.7593 66.22C73.8393 66.22 72.3293 67.62 72.3293 69.67C72.3293 71.72 73.8393 73.12 75.7593 73.12ZM81.5071 73.12C82.2971 73.12 82.9471 72.86 83.4271 72.38L83.0671 71.89C82.6871 72.28 82.1271 72.5 81.5771 72.5C80.5371 72.5 79.8971 71.74 79.8371 70.83H83.7471V70.64C83.7471 69.19 82.8871 68.05 81.4271 68.05C80.0471 68.05 79.0471 69.18 79.0471 70.58C79.0471 72.09 80.0771 73.12 81.5071 73.12ZM83.0071 70.28H79.8371C79.8771 69.54 80.3871 68.67 81.4171 68.67C82.5171 68.67 82.9971 69.56 83.0071 70.28ZM87.0719 72.45C86.0419 72.45 85.4619 71.57 85.4619 70.57C85.4619 69.6 86.0419 68.72 87.0719 68.72C88.1019 68.72 88.6719 69.6 88.6719 70.57C88.6719 71.57 88.1019 72.45 87.0719 72.45ZM87.0719 73.12C88.5619 73.12 89.4519 71.96 89.4519 70.57C89.4519 69.2 88.5619 68.05 87.1919 68.05C86.3319 68.05 85.7219 68.53 85.3719 69.08C85.5419 68.26 85.9719 67.64 87.4019 67.44C88.2219 67.33 89.3019 67.12 89.3019 66.33H88.5719C88.5719 66.53 88.2719 66.66 87.2119 66.82C85.5319 67.04 84.6819 68.01 84.6819 70.36C84.6819 71.96 85.5919 73.12 87.0719 73.12ZM92.9134 73.12C93.7034 73.12 94.3534 72.86 94.8334 72.38L94.4734 71.89C94.0934 72.28 93.5334 72.5 92.9834 72.5C91.9434 72.5 91.3034 71.74 91.2434 70.83H95.1534V70.64C95.1534 69.19 94.2934 68.05 92.8334 68.05C91.4534 68.05 90.4534 69.18 90.4534 70.58C90.4534 72.09 91.4834 73.12 92.9134 73.12ZM94.4134 70.28H91.2434C91.2834 69.54 91.7934 68.67 92.8234 68.67C93.9234 68.67 94.4034 69.56 94.4134 70.28ZM98.4982 73.12C99.3782 73.12 99.8982 72.76 100.268 72.28L99.7682 71.82C99.4482 72.25 99.0382 72.45 98.5382 72.45C97.5082 72.45 96.8682 71.65 96.8682 70.58C96.8682 69.51 97.5082 68.72 98.5382 68.72C99.0382 68.72 99.4482 68.91 99.7682 69.35L100.268 68.89C99.8982 68.41 99.3782 68.05 98.4982 68.05C97.0582 68.05 96.0882 69.15 96.0882 70.58C96.0882 72.02 97.0582 73.12 98.4982 73.12ZM102.949 73V68.83H104.359V68.17H100.799V68.83H102.199V73H102.949ZM107.453 73.12C108.923 73.12 109.843 71.98 109.843 70.58C109.843 69.18 108.923 68.05 107.453 68.05C105.983 68.05 105.063 69.18 105.063 70.58C105.063 71.98 105.983 73.12 107.453 73.12ZM107.453 72.45C106.423 72.45 105.843 71.57 105.843 70.58C105.843 69.6 106.423 68.72 107.453 68.72C108.483 68.72 109.053 69.6 109.053 70.58C109.053 71.57 108.483 72.45 107.453 72.45ZM111.785 73L114.335 69.24V73H115.085V68.17H114.345L111.815 71.86V68.17H111.065V73H111.785ZM121.513 73V68.17H120.513L119.053 71.75L117.573 68.17H116.583V73H117.333V69.21L118.913 73H119.193L120.763 69.21V73H121.513ZM125.119 73.12C126.589 73.12 127.509 71.98 127.509 70.58C127.509 69.18 126.589 68.05 125.119 68.05C123.649 68.05 122.729 69.18 122.729 70.58C122.729 71.98 123.649 73.12 125.119 73.12ZM125.119 72.45C124.089 72.45 123.509 71.57 123.509 70.58C123.509 69.6 124.089 68.72 125.119 68.72C126.149 68.72 126.719 69.6 126.719 70.58C126.719 71.57 126.149 72.45 125.119 72.45ZM130.861 73.12C131.741 73.12 132.261 72.76 132.631 72.28L132.131 71.82C131.811 72.25 131.401 72.45 130.901 72.45C129.871 72.45 129.231 71.65 129.231 70.58C129.231 69.51 129.871 68.72 130.901 68.72C131.401 68.72 131.811 68.91 132.131 69.35L132.631 68.89C132.261 68.41 131.741 68.05 130.861 68.05C129.421 68.05 128.451 69.15 128.451 70.58C128.451 72.02 129.421 73.12 130.861 73.12ZM135.313 73V68.83H136.723V68.17H133.163V68.83H134.563V73H135.313ZM137.706 68.17V73H140.266C141.256 73 141.786 72.32 141.786 71.52C141.786 70.73 141.266 70.04 140.266 70.04H138.456V68.17H137.706ZM140.186 70.7C140.736 70.7 141.016 71.05 141.016 71.52C141.016 72 140.726 72.34 140.186 72.34H138.456V70.7H140.186Z" fill="white"/>
<rect opacity="0.15" x="209" y="42.5" width="1" height="35" fill="white"/>
<path opacity="0.5" d="M226.715 59V48.328H224.731L221.371 51.704L222.667 53.064L224.443 51.256V59H226.715ZM232.733 59.192C235.773 59.192 237.149 56.424 237.149 53.672C237.149 50.92 235.773 48.168 232.733 48.168C229.677 48.168 228.317 50.92 228.317 53.672C228.317 56.424 229.677 59.192 232.733 59.192ZM232.733 57.176C231.197 57.176 230.621 55.64 230.621 53.672C230.621 51.704 231.197 50.184 232.733 50.184C234.253 50.184 234.829 51.704 234.829 53.672C234.829 55.64 234.253 57.176 232.733 57.176ZM240.815 53.48C242.463 53.48 243.535 52.344 243.535 50.856C243.535 49.352 242.463 48.168 240.815 48.168C239.183 48.168 238.111 49.352 238.111 50.856C238.111 52.344 239.183 53.48 240.815 53.48ZM240.975 59L247.807 48.328H246.591L239.775 59H240.975ZM246.687 59.192C248.319 59.192 249.407 58.04 249.407 56.552C249.407 55.048 248.319 53.864 246.687 53.864C245.055 53.864 243.983 55.048 243.983 56.552C243.983 58.04 245.055 59.192 246.687 59.192ZM240.815 52.232C240.095 52.232 239.551 51.688 239.551 50.856C239.551 49.96 240.095 49.432 240.815 49.432C241.551 49.432 242.079 49.96 242.079 50.856C242.079 51.688 241.551 52.232 240.815 52.232ZM246.687 57.944C245.951 57.944 245.423 57.416 245.423 56.552C245.423 55.672 245.951 55.128 246.687 55.128C247.423 55.128 247.967 55.672 247.967 56.552C247.967 57.416 247.423 57.944 246.687 57.944ZM217.691 73V70.35H219.541C220.861 70.35 221.631 69.43 221.631 68.34C221.631 67.25 220.881 66.33 219.541 66.33H216.861V73H217.691ZM219.441 69.61H217.691V67.07H219.441C220.231 67.07 220.771 67.59 220.771 68.34C220.771 69.09 220.231 69.61 219.441 69.61ZM226.275 73V69.68C226.275 68.51 225.425 68.05 224.405 68.05C223.615 68.05 222.995 68.31 222.475 68.85L222.825 69.37C223.255 68.91 223.725 68.7 224.305 68.7C225.005 68.7 225.525 69.07 225.525 69.72V70.59C225.135 70.14 224.585 69.93 223.925 69.93C223.105 69.93 222.235 70.44 222.235 71.52C222.235 72.57 223.105 73.12 223.925 73.12C224.575 73.12 225.125 72.89 225.525 72.45V73H226.275ZM224.195 72.58C223.495 72.58 223.005 72.14 223.005 71.53C223.005 70.91 223.495 70.47 224.195 70.47C224.725 70.47 225.235 70.67 225.525 71.07V71.98C225.235 72.38 224.725 72.58 224.195 72.58ZM229.908 73.12C230.788 73.12 231.308 72.76 231.678 72.28L231.178 71.82C230.858 72.25 230.448 72.45 229.948 72.45C228.918 72.45 228.278 71.65 228.278 70.58C228.278 69.51 228.918 68.72 229.948 68.72C230.448 68.72 230.858 68.91 231.178 69.35L231.678 68.89C231.308 68.41 230.788 68.05 229.908 68.05C228.468 68.05 227.498 69.15 227.498 70.58C227.498 72.02 228.468 73.12 229.908 73.12ZM236.729 73L234.869 70.52L236.619 68.17H235.749L234.409 70.01L233.069 68.17H232.199L233.949 70.52L232.099 73H232.959L234.409 71.02L235.859 73H236.729ZM239.332 73.12C240.802 73.12 241.722 71.98 241.722 70.58C241.722 69.18 240.802 68.05 239.332 68.05C237.862 68.05 236.942 69.18 236.942 70.58C236.942 71.98 237.862 73.12 239.332 73.12ZM239.332 72.45C238.302 72.45 237.722 71.57 237.722 70.58C237.722 69.6 238.302 68.72 239.332 68.72C240.362 68.72 240.932 69.6 240.932 70.58C240.932 71.57 240.362 72.45 239.332 72.45ZM242.374 74.23H243.124V73H246.774V74.23H247.524V72.34H246.964V68.17H243.604L243.294 70.55C243.104 71.98 242.824 72.3 242.374 72.38V74.23ZM244.264 68.83H246.214V72.34H243.344C243.694 72.06 243.924 71.55 244.044 70.64L244.264 68.83ZM248.55 68.17V73H251.11C252.1 73 252.63 72.32 252.63 71.52C252.63 70.73 252.11 70.04 251.11 70.04H249.3V68.17H248.55ZM251.03 70.7C251.58 70.7 251.86 71.05 251.86 71.52C251.86 72 251.57 72.34 251.03 72.34H249.3V70.7H251.03ZM254.17 73V68.17H253.42V73H254.17Z" fill="white"/>
<rect opacity="0.15" x="261" y="42.5" width="1" height="35" fill="white"/>
<path opacity="0.5" d="M298.972 59V57L294.62 57C297.388 54.984 298.892 53.4 298.892 51.576C298.892 49.448 297.084 48.168 294.812 48.168C293.324 48.168 291.74 48.712 290.7 49.912L291.996 51.416C292.716 50.664 293.644 50.184 294.86 50.184C295.74 50.184 296.588 50.648 296.588 51.576C296.588 52.888 295.308 53.992 290.94 57.224V59L298.972 59ZM304.741 59.192C307.781 59.192 309.157 56.424 309.157 53.672C309.157 50.92 307.781 48.168 304.741 48.168C301.685 48.168 300.325 50.92 300.325 53.672C300.325 56.424 301.685 59.192 304.741 59.192ZM304.741 57.176C303.205 57.176 302.629 55.64 302.629 53.672C302.629 51.704 303.205 50.184 304.741 50.184C306.261 50.184 306.837 51.704 306.837 53.672C306.837 55.64 306.261 57.176 304.741 57.176ZM312.823 53.48C314.471 53.48 315.543 52.344 315.543 50.856C315.543 49.352 314.471 48.168 312.823 48.168C311.191 48.168 310.119 49.352 310.119 50.856C310.119 52.344 311.191 53.48 312.823 53.48ZM312.983 59L319.815 48.328H318.599L311.783 59H312.983ZM318.695 59.192C320.327 59.192 321.415 58.04 321.415 56.552C321.415 55.048 320.327 53.864 318.695 53.864C317.063 53.864 315.991 55.048 315.991 56.552C315.991 58.04 317.063 59.192 318.695 59.192ZM312.823 52.232C312.103 52.232 311.559 51.688 311.559 50.856C311.559 49.96 312.103 49.432 312.823 49.432C313.559 49.432 314.087 49.96 314.087 50.856C314.087 51.688 313.559 52.232 312.823 52.232ZM318.695 57.944C317.959 57.944 317.431 57.416 317.431 56.552C317.431 55.672 317.959 55.128 318.695 55.128C319.431 55.128 319.975 55.672 319.975 56.552C319.975 57.416 319.431 57.944 318.695 57.944ZM291.344 73V66.33H285.784V73H286.614V67.07H290.514V73H291.344ZM295.253 73.12C296.523 73.12 297.403 72.14 297.403 70.58C297.403 69.01 296.523 68.05 295.253 68.05C294.573 68.05 293.973 68.4 293.623 68.89V68.17H292.873V74.84H293.623V72.27C294.013 72.81 294.593 73.12 295.253 73.12ZM295.063 72.45C294.473 72.45 293.883 72.09 293.623 71.67V69.49C293.883 69.07 294.473 68.72 295.063 68.72C296.033 68.72 296.613 69.51 296.613 70.58C296.613 71.65 296.033 72.45 295.063 72.45ZM299.316 73L301.866 69.24V73H302.616V68.17H301.876L299.346 71.86V68.17H298.596V73H299.316ZM306.223 72.45C305.193 72.45 304.613 71.57 304.613 70.57C304.613 69.6 305.193 68.72 306.223 68.72C307.253 68.72 307.823 69.6 307.823 70.57C307.823 71.57 307.253 72.45 306.223 72.45ZM306.223 73.12C307.713 73.12 308.603 71.96 308.603 70.57C308.603 69.2 307.713 68.05 306.343 68.05C305.483 68.05 304.873 68.53 304.523 69.08C304.693 68.26 305.123 67.64 306.553 67.44C307.373 67.33 308.453 67.12 308.453 66.33H307.723C307.723 66.53 307.423 66.66 306.363 66.82C304.683 67.04 303.833 68.01 303.833 70.36C303.833 71.96 304.743 73.12 306.223 73.12ZM309.885 68.17V73H312.445C313.435 73 313.965 72.32 313.965 71.52C313.965 70.73 313.445 70.04 312.445 70.04H310.635V68.17H309.885ZM312.365 70.7C312.915 70.7 313.195 71.05 313.195 71.52C313.195 72 312.905 72.34 312.365 72.34H310.635V70.7H312.365ZM315.505 73V68.17H314.755V73H315.505ZM316.434 73.12C317.364 73.12 317.884 72.44 318.104 70.64L318.324 68.83H320.274V73H321.024V68.17H317.664L317.354 70.55C317.164 71.98 316.884 72.5 316.434 72.5V73.12ZM322.521 68.17V73H325.081C326.071 73 326.601 72.32 326.601 71.52C326.601 70.73 326.081 70.04 325.081 70.04H323.271V68.17H322.521ZM325.001 70.7C325.551 70.7 325.831 71.05 325.831 71.52C325.831 72 325.541 72.34 325.001 72.34H323.271V70.7H325.001Z" fill="white"/>
<rect opacity="0.15" x="350" y="42.5" width="1" height="35" fill="white"/>
<path opacity="0.5" d="M358.334 59.144C360.254 59.144 361.49 58.172 361.49 56.792C361.49 55.592 360.434 54.956 359.618 54.872C360.506 54.716 361.37 54.056 361.37 53.048C361.37 51.716 360.218 50.876 358.346 50.876C356.942 50.876 355.934 51.416 355.286 52.148L356.138 53.216C356.701 52.676 357.398 52.388 358.166 52.388C359.006 52.388 359.654 52.7 359.654 53.336C359.654 53.924 359.066 54.188 358.178 54.188C357.878 54.188 357.326 54.188 357.182 54.176V55.712C357.302 55.7 357.842 55.688 358.178 55.688C359.294 55.688 359.786 55.976 359.786 56.612C359.786 57.212 359.246 57.632 358.274 57.632C357.494 57.632 356.618 57.296 356.066 56.72L355.178 57.86C355.766 58.58 356.858 59.144 358.334 59.144ZM364.32 54.86C365.556 54.86 366.36 54.008 366.36 52.892C366.36 51.764 365.556 50.876 364.32 50.876C363.096 50.876 362.292 51.764 362.292 52.892C362.292 54.008 363.096 54.86 364.32 54.86ZM364.44 59L369.564 50.996H368.652L363.54 59H364.44ZM368.724 59.144C369.948 59.144 370.764 58.28 370.764 57.164C370.764 56.036 369.948 55.148 368.724 55.148C367.5 55.148 366.696 56.036 366.696 57.164C366.696 58.28 367.5 59.144 368.724 59.144ZM364.32 53.924C363.78 53.924 363.372 53.516 363.372 52.892C363.372 52.22 363.78 51.824 364.32 51.824C364.872 51.824 365.268 52.22 365.268 52.892C365.268 53.516 364.872 53.924 364.32 53.924ZM368.724 58.208C368.172 58.208 367.776 57.812 367.776 57.164C367.776 56.504 368.172 56.096 368.724 56.096C369.276 56.096 369.684 56.504 369.684 57.164C369.684 57.812 369.276 58.208 368.724 58.208ZM357.604 70V69.408H354.548L357.548 65.216V64.664H353.7V65.256H356.7L353.7 69.448V70H357.604ZM360.34 70.096C360.972 70.096 361.492 69.888 361.876 69.504L361.588 69.112C361.284 69.424 360.836 69.6 360.396 69.6C359.564 69.6 359.052 68.992 359.004 68.264H362.132V68.112C362.132 66.952 361.444 66.04 360.276 66.04C359.172 66.04 358.372 66.944 358.372 68.064C358.372 69.272 359.196 70.096 360.34 70.096ZM361.54 67.824H359.004C359.036 67.232 359.444 66.536 360.268 66.536C361.148 66.536 361.532 67.248 361.54 67.824ZM368.368 70V67.208C368.368 66.432 367.992 66.04 367.288 66.04C366.728 66.04 366.208 66.408 365.992 66.76C365.88 66.36 365.544 66.04 364.952 66.04C364.384 66.04 363.864 66.448 363.704 66.696V66.136H363.104V70H363.704V67.176C363.912 66.864 364.328 66.576 364.72 66.576C365.224 66.576 365.432 66.888 365.432 67.376V70H366.032V67.168C366.232 66.864 366.656 66.576 367.056 66.576C367.552 66.576 367.768 66.888 367.768 67.376V70H368.368ZM370.789 70.096C371.789 70.096 372.309 69.576 372.309 68.928C372.309 67.424 369.917 67.984 369.917 67.136C369.917 66.792 370.245 66.528 370.773 66.528C371.269 66.528 371.693 66.736 371.925 67.016L372.205 66.6C371.893 66.288 371.429 66.04 370.773 66.04C369.853 66.04 369.333 66.552 369.333 67.152C369.333 68.584 371.725 68.008 371.725 68.944C371.725 69.328 371.405 69.608 370.813 69.608C370.285 69.608 369.797 69.352 369.541 69.056L369.229 69.488C369.621 69.904 370.157 70.096 370.789 70.096Z" fill="white"/>
<rect opacity="0.15" x="375" y="42.5" width="1" height="35" fill="white"/>
<path d="M419.573 59V57H415.221C417.989 54.984 419.493 53.4 419.493 51.576C419.493 49.448 417.685 48.168 415.413 48.168C413.925 48.168 412.341 48.712 411.301 49.912L412.597 51.416C413.317 50.664 414.245 50.184 415.461 50.184C416.341 50.184 417.189 50.648 417.189 51.576C417.189 52.888 415.909 53.992 411.541 57.224V59H419.573ZM424.815 59L428.783 49.912V48.328H420.767V50.328H426.143L422.319 59H424.815ZM432.222 53.48C433.87 53.48 434.942 52.344 434.942 50.856C434.942 49.352 433.87 48.168 432.222 48.168C430.59 48.168 429.518 49.352 429.518 50.856C429.518 52.344 430.59 53.48 432.222 53.48ZM432.382 59L439.214 48.328H437.998L431.182 59L432.382 59ZM438.094 59.192C439.726 59.192 440.814 58.04 440.814 56.552C440.814 55.048 439.726 53.864 438.094 53.864C436.462 53.864 435.39 55.048 435.39 56.552C435.39 58.04 436.462 59.192 438.094 59.192ZM432.222 52.232C431.502 52.232 430.958 51.688 430.958 50.856C430.958 49.96 431.502 49.432 432.222 49.432C432.958 49.432 433.486 49.96 433.486 50.856C433.486 51.688 432.958 52.232 432.222 52.232ZM438.094 57.944C437.358 57.944 436.83 57.416 436.83 56.552C436.83 55.672 437.358 55.128 438.094 55.128C438.83 55.128 439.374 55.672 439.374 56.552C439.374 57.416 438.83 57.944 438.094 57.944ZM381.102 73V70.63H382.802C384.242 70.63 385.042 69.64 385.042 68.48C385.042 67.31 384.252 66.33 382.802 66.33H379.682V73H381.102ZM382.612 69.38H381.102V67.58H382.612C383.172 67.58 383.592 67.92 383.592 68.48C383.592 69.03 383.172 69.38 382.612 69.38ZM387.997 73.12C388.747 73.12 389.507 72.89 389.987 72.45L389.427 71.63C389.117 71.93 388.547 72.11 388.137 72.11C387.317 72.11 386.827 71.6 386.747 70.99H390.337V70.71C390.337 69.13 389.357 68.05 387.917 68.05C386.447 68.05 385.417 69.18 385.417 70.58C385.417 72.13 386.527 73.12 387.997 73.12ZM389.107 70.13H386.727C386.787 69.65 387.127 69.06 387.917 69.06C388.757 69.06 389.077 69.67 389.107 70.13ZM395.424 73V69.88C395.424 68.49 394.414 68.05 393.314 68.05C392.554 68.05 391.794 68.29 391.204 68.81L391.684 69.66C392.094 69.28 392.574 69.09 393.094 69.09C393.734 69.09 394.154 69.41 394.154 69.9V70.55C393.834 70.17 393.264 69.96 392.624 69.96C391.854 69.96 390.944 70.39 390.944 71.52C390.944 72.6 391.854 73.12 392.624 73.12C393.254 73.12 393.824 72.89 394.154 72.5V73H395.424ZM393.134 72.26C392.634 72.26 392.224 72 392.224 71.55C392.224 71.08 392.634 70.82 393.134 70.82C393.544 70.82 393.944 70.96 394.154 71.24V71.84C393.944 72.12 393.544 72.26 393.134 72.26ZM396.234 73.12C397.464 73.12 398.064 72.33 398.264 70.66L398.424 69.28H399.954V73H401.224V68.17H397.314L397.004 70.51C396.854 71.68 396.624 72.08 396.234 72.08V73.12ZM402.484 68.17V73H405.404C406.484 73 407.084 72.27 407.084 71.41C407.084 70.56 406.524 69.83 405.404 69.83H403.754V68.17H402.484ZM405.214 70.89C405.574 70.89 405.784 71.11 405.784 71.41C405.784 71.71 405.574 71.93 405.214 71.93H403.754V70.89H405.214ZM409.282 73V71.07H411.282V73H412.552V68.17H411.282V69.96H409.282V68.17H408.012V73H409.282ZM417.983 73V69.88C417.983 68.49 416.973 68.05 415.873 68.05C415.113 68.05 414.353 68.29 413.763 68.81L414.243 69.66C414.653 69.28 415.133 69.09 415.653 69.09C416.293 69.09 416.713 69.41 416.713 69.9V70.55C416.393 70.17 415.823 69.96 415.183 69.96C414.413 69.96 413.503 70.39 413.503 71.52C413.503 72.6 414.413 73.12 415.183 73.12C415.813 73.12 416.383 72.89 416.713 72.5V73H417.983ZM415.693 72.26C415.193 72.26 414.783 72 414.783 71.55C414.783 71.08 415.193 70.82 415.693 70.82C416.103 70.82 416.503 70.96 416.713 71.24V71.84C416.503 72.12 416.103 72.26 415.693 72.26ZM420.522 73L421.472 71.34H422.462V73H423.732V68.17H420.802C419.732 68.17 419.132 68.9 419.132 69.75C419.132 70.61 419.652 71.11 420.202 71.25L419.082 73H420.522ZM421.002 70.28C420.642 70.28 420.422 70.06 420.422 69.75C420.422 69.45 420.652 69.24 421.002 69.24H422.462V70.28H421.002ZM429.013 73.12C430.493 73.12 431.573 72.07 431.573 70.58C431.573 69.1 430.493 68.05 429.013 68.05C428.023 68.05 427.413 68.48 427.103 68.92L427.883 69.62C428.123 69.28 428.493 69.06 428.933 69.06C429.573 69.06 430.043 69.43 430.193 70.08H428.253V71.06H430.203C430.053 71.73 429.573 72.11 428.933 72.11C428.493 72.11 428.123 71.88 427.883 71.54L427.103 72.24C427.413 72.69 428.023 73.12 429.013 73.12ZM437.244 73L435.274 70.36L437.184 68.17H435.624L433.794 70.32V68.17H432.524V73H433.794V71.76L434.374 71.14L435.654 73H437.244ZM440.057 73.12C441.657 73.12 442.617 71.96 442.617 70.58C442.617 69.21 441.657 68.05 440.057 68.05C438.467 68.05 437.507 69.21 437.507 70.58C437.507 71.96 438.467 73.12 440.057 73.12ZM440.057 71.99C439.267 71.99 438.827 71.34 438.827 70.58C438.827 69.83 439.267 69.18 440.057 69.18C440.847 69.18 441.297 69.83 441.297 70.58C441.297 71.34 440.847 71.99 440.057 71.99ZM444.829 73V71.07H446.829V73H448.099V68.17H446.829V69.96H444.829V68.17H443.559V73H444.829ZM451.599 73.12C453.199 73.12 454.159 71.96 454.159 70.58C454.159 69.21 453.199 68.05 451.599 68.05C450.009 68.05 449.049 69.21 449.049 70.58C449.049 71.96 450.009 73.12 451.599 73.12ZM451.599 71.99C450.809 71.99 450.369 71.34 450.369 70.58C450.369 69.83 450.809 69.18 451.599 69.18C452.389 69.18 452.839 69.83 452.839 70.58C452.839 71.34 452.389 71.99 451.599 71.99ZM460.812 73V68.17H459.132L457.962 71.05L456.772 68.17H455.102V73H456.372V69.86L457.672 73H458.252L459.542 69.86V73H460.812ZM463.294 73L465.344 69.97V73H466.614V68.17H465.334L463.344 71.09V68.17H462.074V73H463.294ZM469.155 73L470.105 71.34H471.095V73H472.365V68.17H469.435C468.365 68.17 467.765 68.9 467.765 69.75C467.765 70.61 468.285 71.11 468.835 71.25L467.715 73H469.155ZM469.635 70.28C469.275 70.28 469.055 70.06 469.055 69.75C469.055 69.45 469.285 69.24 469.635 69.24H471.095V70.28H469.635Z" fill="#FFD556"/>
</g>
<g opacity="0.2">
<rect x="488.5" y="0.5" width="153" height="95" rx="3.5" fill="#DB5A5A" stroke="white" stroke-dasharray="4 4"/>
<path d="M541.425 47L547.377 33.368V30.992L535.353 30.992V33.992H543.417L537.681 47H541.425ZM555.199 47.288C559.063 47.288 561.607 45.152 561.607 41.744C561.607 38.504 559.183 36.56 556.471 36.56C555.007 36.56 553.711 37.136 552.943 37.904V33.992L560.527 33.992V30.992H549.535V40.184L551.911 40.808C552.871 39.896 553.951 39.512 555.271 39.512C557.095 39.512 558.151 40.472 558.151 41.888C558.151 43.184 557.071 44.264 555.175 44.264C553.495 44.264 552.007 43.64 550.927 42.512L549.031 44.888C550.399 46.376 552.415 47.288 555.199 47.288ZM570.185 47.288C573.833 47.288 576.305 44.912 576.305 41.792C576.305 38.384 573.737 36.584 570.857 36.584C569.105 36.584 567.497 37.568 566.753 38.648C566.729 38.528 566.729 38.432 566.729 38.312C566.729 35.768 568.385 33.776 570.737 33.776C572.153 33.776 573.065 34.208 573.929 35.024L575.465 32.408C574.313 31.424 572.681 30.752 570.737 30.752C566.009 30.752 563.273 34.184 563.273 39.032C563.273 43.544 565.313 47.288 570.185 47.288ZM569.993 44.264C567.761 44.264 566.897 42.56 566.753 41.024C567.521 40.064 568.673 39.512 569.873 39.512C571.409 39.512 572.849 40.232 572.849 41.912C572.849 43.04 571.841 44.264 569.993 44.264ZM581.739 38.72C584.211 38.72 585.819 37.016 585.819 34.784C585.819 32.528 584.211 30.752 581.739 30.752C579.291 30.752 577.683 32.528 577.683 34.784C577.683 37.016 579.291 38.72 581.739 38.72ZM581.979 47L592.227 30.992H590.403L580.179 47H581.979ZM590.547 47.288C592.995 47.288 594.627 45.56 594.627 43.328C594.627 41.072 592.995 39.296 590.547 39.296C588.099 39.296 586.491 41.072 586.491 43.328C586.491 45.56 588.099 47.288 590.547 47.288ZM581.739 36.848C580.659 36.848 579.843 36.032 579.843 34.784C579.843 33.44 580.659 32.648 581.739 32.648C582.843 32.648 583.635 33.44 583.635 34.784C583.635 36.032 582.843 36.848 581.739 36.848ZM590.547 45.416C589.443 45.416 588.651 44.624 588.651 43.328C588.651 42.008 589.443 41.192 590.547 41.192C591.651 41.192 592.467 42.008 592.467 43.328C592.467 44.624 591.651 45.416 590.547 45.416ZM521.103 68.722H522.265V67H529.223V68.722H530.385V65.964H529.531V57.662H523.819L523.245 62.352C522.853 65.516 522.223 65.992 521.103 66.062V68.722ZM524.393 62.436L524.855 58.698H528.369V65.964H522.965C523.651 65.446 524.155 64.41 524.393 62.436ZM531.444 69.646C531.64 69.702 531.99 69.744 532.214 69.744C533.11 69.73 533.796 69.352 534.202 68.372L537.59 60.238H536.442L534.202 65.782L531.948 60.238H530.814L533.642 67.07L533.194 68.092C532.956 68.652 532.648 68.806 532.186 68.806C532.018 68.806 531.766 68.764 531.612 68.694L531.444 69.646ZM540.968 67V61.162H542.942V60.238H537.958V61.162H539.918V67H540.968ZM544.319 60.238V67H547.903C549.289 67 550.031 66.048 550.031 64.928C550.031 63.822 549.303 62.856 547.903 62.856H545.369V60.238H544.319ZM547.791 63.78C548.561 63.78 548.953 64.27 548.953 64.928C548.953 65.6 548.547 66.076 547.791 66.076H545.369V63.78H547.791ZM552.187 67V60.238H551.137V67H552.187ZM557.337 67.168C558.443 67.168 559.353 66.804 560.025 66.132L559.521 65.446C558.989 65.992 558.205 66.3 557.435 66.3C555.979 66.3 555.083 65.236 554.999 63.962H560.473V63.696C560.473 61.666 559.269 60.07 557.225 60.07C555.293 60.07 553.893 61.652 553.893 63.612C553.893 65.726 555.335 67.168 557.337 67.168ZM559.437 63.192H554.999C555.055 62.156 555.769 60.938 557.211 60.938C558.751 60.938 559.423 62.184 559.437 63.192ZM568.765 67.168C569.997 67.168 570.725 66.664 571.243 65.992L570.543 65.348C570.095 65.95 569.521 66.23 568.821 66.23C567.379 66.23 566.483 65.11 566.483 63.612C566.483 62.114 567.379 61.008 568.821 61.008C569.521 61.008 570.095 61.274 570.543 61.89L571.243 61.246C570.725 60.574 569.997 60.07 568.765 60.07C566.749 60.07 565.391 61.61 565.391 63.612C565.391 65.628 566.749 67.168 568.765 67.168ZM578.665 67L575.655 63.304L578.651 60.238H577.321L573.765 63.836V60.238H572.715V67H573.765V65.068L574.885 63.962L577.321 67H578.665ZM580.914 67L584.484 61.736V67H585.534V60.238H584.498L580.956 65.404V60.238H579.906V67H580.914ZM586.833 68.722H587.883V67H592.993V68.722H594.043V66.076H593.259V60.238H588.555L588.121 63.57C587.855 65.572 587.463 66.02 586.833 66.132V68.722ZM589.479 61.162H592.209V66.076H588.191C588.681 65.684 589.003 64.97 589.171 63.696L589.479 61.162ZM601.429 67L598.419 63.304L601.415 60.238H600.085L596.529 63.836V60.238H595.479V67H596.529V65.068L597.649 63.962L600.085 67H601.429ZM603.678 67L607.248 61.736V67H608.298V60.238H607.262L603.72 65.404V60.238H602.67V67H603.678Z" fill="white"/>
<path d="M504.014 16L626.014 80M626.014 16L504.014 80" stroke="white"/>
</g>
<defs>
<clipPath id="clip0">
<rect x="5" y="30" width="471" height="60" fill="white"/>
</clipPath>
</defs>
</svg>
