<svg width="6" height="58" viewBox="0 0 6 58" fill="none" xmlns="http://www.w3.org/2000/svg">
<path opacity="0.5" d="M3 58L5.88675 53L0.113251 53L3 58ZM2.5 2.18557e-08L2.5 0.966667L3.5 0.966667L3.5 -2.18557e-08L2.5 2.18557e-08ZM2.5 2.9L2.5 4.83333L3.5 4.83333L3.5 2.9L2.5 2.9ZM2.5 6.76667L2.5 8.7L3.5 8.7L3.5 6.76667L2.5 6.76667ZM2.5 10.6333L2.5 12.5667L3.5 12.5667L3.5 10.6333L2.5 10.6333ZM2.5 14.5L2.5 16.4333L3.5 16.4333L3.5 14.5L2.5 14.5ZM2.5 18.3667L2.5 20.3L3.5 20.3L3.5 18.3667L2.5 18.3667ZM2.5 22.2333L2.5 24.1667L3.5 24.1667L3.5 22.2333L2.5 22.2333ZM2.5 26.1L2.5 28.0333L3.5 28.0333L3.5 26.1L2.5 26.1ZM2.5 29.9667L2.5 31.9L3.5 31.9L3.5 29.9667L2.5 29.9667ZM2.5 33.8333L2.5 35.7667L3.5 35.7667L3.5 33.8333L2.5 33.8333ZM2.5 37.7L2.5 39.6333L3.5 39.6333L3.5 37.7L2.5 37.7ZM2.5 41.5667L2.5 43.5L3.5 43.5L3.5 41.5667L2.5 41.5667ZM2.5 45.4333L2.5 47.3667L3.5 47.3667L3.5 45.4333L2.5 45.4333ZM2.5 49.3L2.5 51.2333L3.5 51.2333L3.5 49.3L2.5 49.3ZM2.5 53.1667L2.5 55.1L3.5 55.1L3.5 53.1667L2.5 53.1667Z" fill="#545454"/>
</svg>
