<svg width="159" height="60" viewBox="0 0 159 60" fill="none" xmlns="http://www.w3.org/2000/svg">
<path opacity="0.5" d="M158 59L154.31 54.5594L152.309 59.9752L158 59ZM0.826732 1.46902L1.76126 1.81426L2.10779 0.87622L1.17327 0.530982L0.826732 1.46902ZM3.6303 2.50473L5.49935 3.19521L5.84589 2.25717L3.97684 1.5667L3.6303 2.50473ZM7.3684 3.88568L9.23745 4.57616L9.58398 3.63812L7.71493 2.94765L7.3684 3.88568ZM11.1065 5.26664L12.9755 5.95711L13.3221 5.01908L11.453 4.3286L11.1065 5.26664ZM14.8446 6.64759L16.7136 7.33807L17.0602 6.40003L15.1911 5.70955L14.8446 6.64759ZM18.5827 8.02854L20.4517 8.71902L20.7983 7.78098L18.9292 7.0905L18.5827 8.02854ZM22.3208 9.40949L24.1898 10.1L24.5364 9.16193L22.6673 8.47146L22.3208 9.40949ZM26.0589 10.7904L27.9279 11.4809L28.2745 10.5429L26.4054 9.85241L26.0589 10.7904ZM29.797 12.1714L31.666 12.8619L32.0126 11.9238L30.1435 11.2334L29.797 12.1714ZM33.5351 13.5524L35.4041 14.2428L35.7506 13.3048L33.8816 12.6143L33.5351 13.5524ZM37.2732 14.9333L39.1422 15.6238L39.4887 14.6857L37.6197 13.9953L37.2732 14.9333ZM41.0113 16.3143L42.8803 17.0047L43.2268 16.0667L41.3578 15.3762L41.0113 16.3143ZM44.7494 17.6952L46.6184 18.3857L46.9649 17.4477L45.0959 16.7572L44.7494 17.6952ZM48.4875 19.0762L50.3565 19.7666L50.703 18.8286L48.834 18.1381L48.4875 19.0762ZM52.2256 20.4571L54.0946 21.1476L54.4411 20.2096L52.5721 19.5191L52.2256 20.4571ZM55.9637 21.8381L57.8327 22.5285L58.1792 21.5905L56.3102 20.9L55.9637 21.8381ZM59.7018 23.219L61.5708 23.9095L61.9173 22.9715L60.0483 22.281L59.7018 23.219ZM63.4398 24.6L65.3089 25.2905L65.6554 24.3524L63.7864 23.6619L63.4398 24.6ZM67.1779 25.9809L69.047 26.6714L69.3935 25.7334L67.5245 25.0429L67.1779 25.9809ZM70.916 27.3619L72.7851 28.0524L73.1316 27.1143L71.2626 26.4238L70.916 27.3619ZM74.6541 28.7428L76.5232 29.4333L76.8697 28.4953L75.0007 27.8048L74.6541 28.7428ZM78.3922 30.1238L80.2613 30.8143L80.6078 29.8762L78.7387 29.1857L78.3922 30.1238ZM82.1303 31.5047L83.9993 32.1952L84.3459 31.2572L82.4768 30.5667L82.1303 31.5047ZM85.8684 32.8857L87.7374 33.5762L88.084 32.6381L86.2149 31.9476L85.8684 32.8857ZM89.6065 34.2666L91.4755 34.9571L91.8221 34.0191L89.953 33.3286L89.6065 34.2666ZM93.3446 35.6476L95.2136 36.3381L95.5602 35.4L93.6911 34.7095L93.3446 35.6476ZM97.0827 37.0285L98.9517 37.719L99.2982 36.781L97.4292 36.0905L97.0827 37.0285ZM100.821 38.4095L102.69 39.1L103.036 38.1619L101.167 37.4714L100.821 38.4095ZM104.559 39.7904L106.428 40.4809L106.774 39.5429L104.905 38.8524L104.559 39.7904ZM108.297 41.1714L110.166 41.8619L110.513 40.9238L108.643 40.2333L108.297 41.1714ZM112.035 42.5523L113.904 43.2428L114.251 42.3048L112.382 41.6143L112.035 42.5523ZM115.773 43.9333L117.642 44.6238L117.989 43.6857L116.12 42.9953L115.773 43.9333ZM119.511 45.3142L121.38 46.0047L121.727 45.0667L119.858 44.3762L119.511 45.3142ZM123.249 46.6952L125.118 47.3857L125.465 46.4476L123.596 45.7572L123.249 46.6952ZM126.987 48.0761L128.856 48.7666L129.203 47.8286L127.334 47.1381L126.987 48.0761ZM130.725 49.4571L132.595 50.1476L132.941 49.2095L131.072 48.5191L130.725 49.4571ZM134.464 50.838L136.333 51.5285L136.679 50.5905L134.81 49.9L134.464 50.838ZM138.202 52.219L140.071 52.9095L140.417 51.9714L138.548 51.281L138.202 52.219ZM141.94 53.5999L143.809 54.2904L144.155 53.3524L142.286 52.6619L141.94 53.5999ZM145.678 54.9809L147.547 55.6714L147.893 54.7333L146.024 54.0429L145.678 54.9809ZM149.416 56.3618L151.285 57.0523L151.632 56.1143L149.762 55.4238L149.416 56.3618ZM153.154 57.7428L155.023 58.4333L155.37 57.4952L153.501 56.8048L153.154 57.7428Z" fill="#545454"/>
</svg>
