<svg width="77" height="59" viewBox="0 0 77 59" fill="none" xmlns="http://www.w3.org/2000/svg">
<path opacity="0.5" d="M76 59L73.8107 53.6577L70.2788 58.2248L76 59ZM0.694126 1.39553L1.47538 1.99969L2.08712 1.20864L1.30587 0.604474L0.694126 1.39553ZM3.03788 3.20803L4.60038 4.41636L5.21212 3.62531L3.64962 2.41697L3.03788 3.20803ZM6.16288 5.62469L7.72538 6.83303L8.33712 6.04197L6.77462 4.83364L6.16288 5.62469ZM9.28788 8.04136L10.8504 9.24969L11.4621 8.45864L9.89963 7.25031L9.28788 8.04136ZM12.4129 10.458L13.9754 11.6664L14.5871 10.8753L13.0246 9.66697L12.4129 10.458ZM15.5379 12.8747L17.1004 14.083L17.7121 13.292L16.1496 12.0836L15.5379 12.8747ZM18.6629 15.2914L20.2254 16.4997L20.8371 15.7086L19.2746 14.5003L18.6629 15.2914ZM21.7879 17.708L23.3504 18.9164L23.9621 18.1253L22.3996 16.917L21.7879 17.708ZM24.9129 20.1247L26.4754 21.333L27.0871 20.542L25.5246 19.3336L24.9129 20.1247ZM28.0379 22.5414L29.6004 23.7497L30.2121 22.9586L28.6496 21.7503L28.0379 22.5414ZM31.1629 24.958L32.7254 26.1664L33.3371 25.3753L31.7746 24.167L31.1629 24.958ZM34.2879 27.3747L35.8504 28.583L36.4621 27.792L34.8996 26.5836L34.2879 27.3747ZM37.4129 29.7914L38.9754 30.9997L39.5871 30.2086L38.0246 29.0003L37.4129 29.7914ZM40.5379 32.208L42.1004 33.4164L42.7121 32.6253L41.1496 31.417L40.5379 32.208ZM43.6629 34.6247L45.2254 35.833L45.8371 35.042L44.2746 33.8336L43.6629 34.6247ZM46.7879 37.0414L48.3504 38.2497L48.9621 37.4587L47.3996 36.2503L46.7879 37.0414ZM49.9129 39.458L51.4754 40.6664L52.0871 39.8753L50.5246 38.667L49.9129 39.458ZM53.0379 41.8747L54.6004 43.083L55.2121 42.292L53.6496 41.0836L53.0379 41.8747ZM56.1629 44.2914L57.7254 45.4997L58.3371 44.7086L56.7746 43.5003L56.1629 44.2914ZM59.2879 46.708L60.8504 47.9164L61.4621 47.1253L59.8996 45.917L59.2879 46.708ZM62.4129 49.1247L63.9754 50.333L64.5871 49.542L63.0246 48.3336L62.4129 49.1247ZM65.5379 51.5413L67.1004 52.7497L67.7121 51.9586L66.1496 50.7503L65.5379 51.5413ZM68.6629 53.958L70.2254 55.1663L70.8371 54.3753L69.2746 53.167L68.6629 53.958ZM71.7879 56.3747L73.3503 57.583L73.9621 56.792L72.3996 55.5836L71.7879 56.3747Z" fill="#545454"/>
</svg>
