<svg width="132" height="86" viewBox="0 0 132 86" fill="none" xmlns="http://www.w3.org/2000/svg">
<path d="M126 0C129.314 0 132 2.68629 132 6V74L8.89894 74L8.89785 74L0 74L8.89785 66.6009V66.5991L0 59.2L8.89785 51.8009V51.7991L0 44.4L8.89785 37.0009V36.9991L0 29.6L8.89785 22.2009V22.1991L0 14.8L8.89785 7.40091V7.39909L0 0H126Z" fill="#E0E0E0"/>
<path d="M120 74L132 74L132 80C132 83.3137 129.314 86 126 86H120V74Z" fill="#E0E0E0"/>
<path d="M120 74H126C129.314 74 132 76.6863 132 80C132 83.3137 129.314 86 126 86H120V74Z" fill="#E0E0E0"/>
</svg>
