<svg width="144" height="94" viewBox="0 0 144 94" fill="none" xmlns="http://www.w3.org/2000/svg">
<g filter="url(#filter0_d)">
<path fill-rule="evenodd" clip-rule="evenodd" d="M16.6293 4H128.001C132.419 4 136.001 7.58172 136.001 12V78L16.6293 78L16.6288 78L8 78L16.6288 70.6004V70.5996L8 63.2L16.6288 55.8004V55.7996L8 48.4L16.6288 41.0004V40.9996L8 33.6L16.6288 26.2004V26.1996L8 18.8L16.6288 11.4004V11.3996L8 4H16.6288H16.6293Z" fill="#EB4444"/>
</g>
<mask id="mask0" mask-type="alpha" maskUnits="userSpaceOnUse" x="120" y="4" width="16" height="74">
<path d="M120.898 4H128C132.418 4 136 7.58172 136 12V78H120.898V4Z" fill="#2F80ED"/>
</mask>
<g mask="url(#mask0)">
<g opacity="0.5" filter="url(#filter1_f)">
<path d="M132.047 4V78" stroke="white"/>
</g>
</g>
<path d="M128 78H136V86C136 90.4183 132.418 94 128 94V78Z" fill="#EB4444"/>
<path d="M128 78C132.418 78 136 81.5817 136 86C136 90.4183 132.418 94 128 94V78Z" fill="#5E2828"/>
<defs>
<filter id="filter0_d" x="0" y="0" width="144.001" height="90" filterUnits="userSpaceOnUse" color-interpolation-filters="sRGB">
<feFlood flood-opacity="0" result="BackgroundImageFix"/>
<feColorMatrix in="SourceAlpha" type="matrix" values="0 0 0 0 0 0 0 0 0 0 0 0 0 0 0 0 0 0 127 0"/>
<feOffset dy="4"/>
<feGaussianBlur stdDeviation="4"/>
<feColorMatrix type="matrix" values="0 0 0 0 0 0 0 0 0 0 0 0 0 0 0 0 0 0 0.25 0"/>
<feBlend mode="normal" in2="BackgroundImageFix" result="effect1_dropShadow"/>
<feBlend mode="normal" in="SourceGraphic" in2="effect1_dropShadow" result="shape"/>
</filter>
<filter id="filter1_f" x="127.547" y="0" width="9" height="82" filterUnits="userSpaceOnUse" color-interpolation-filters="sRGB">
<feFlood flood-opacity="0" result="BackgroundImageFix"/>
<feBlend mode="normal" in="SourceGraphic" in2="BackgroundImageFix" result="shape"/>
<feGaussianBlur stdDeviation="2" result="effect1_foregroundBlur"/>
</filter>
</defs>
</svg>
