
<svg width="0" height="0" class="hidden"><symbol viewBox="0 0 6 58" fill="none" xmlns="http://www.w3.org/2000/svg" id="arrow-moder-stats1"><path opacity=".5" d="M3 58l2.887-5H.113L3 58zM2.5 0v.967h1V0h-1zm0 2.9v1.933h1V2.9h-1zm0 3.867V8.7h1V6.767h-1zm0 3.866v1.934h1v-1.934h-1zm0 3.867v1.933h1V14.5h-1zm0 3.867V20.3h1v-1.933h-1zm0 3.866v1.934h1v-1.934h-1zm0 3.867v1.933h1V26.1h-1zm0 3.867V31.9h1v-1.933h-1zm0 3.866v1.934h1v-1.934h-1zm0 3.867v1.933h1V37.7h-1zm0 3.867V43.5h1v-1.933h-1zm0 3.866v1.934h1v-1.934h-1zm0 3.867v1.933h1V49.3h-1zm0 3.867V55.1h1v-1.933h-1z" fill="#545454"></path></symbol><symbol viewBox="0 0 77 59" fill="none" xmlns="http://www.w3.org/2000/svg" id="arrow-moder-stats2"><path opacity=".5" d="M76 59l-2.19-5.342-3.531 4.567L76 59zM.694 1.396L1.475 2l.612-.791-.781-.605-.612.792zm2.344 1.812L4.6 4.416l.612-.79-1.562-1.21-.612.791zm3.125 2.417l1.562 1.208.612-.791-1.562-1.208-.612.79zM9.288 8.04l1.562 1.21.612-.791L9.9 7.25l-.612.791zm3.125 2.417l1.562 1.208.612-.79-1.562-1.209-.612.791zm3.125 2.417l1.562 1.208.612-.791-1.562-1.208-.612.79zm3.125 2.416l1.562 1.209.612-.791-1.562-1.209-.612.791zm3.125 2.417l1.562 1.208.612-.79-1.562-1.209-.612.791zm3.125 2.417l1.562 1.208.612-.791-1.562-1.208-.612.79zm3.125 2.416l1.562 1.21.612-.791-1.562-1.209-.612.791zm3.125 2.417l1.562 1.208.612-.79-1.562-1.209-.612.791zm3.125 2.417l1.562 1.208.612-.791-1.562-1.208-.612.79zm3.125 2.416L38.975 31l.612-.791L38.025 29l-.612.791zm3.125 2.417l1.562 1.208.612-.79-1.562-1.209-.612.791zm3.125 2.417l1.562 1.208.612-.791-1.562-1.208-.612.79zm3.125 2.416l1.562 1.209.612-.791L47.4 36.25l-.612.791zm3.125 2.417l1.562 1.208.612-.79-1.562-1.209-.612.791zm3.125 2.417l1.562 1.208.612-.791-1.562-1.208-.612.79zm3.125 2.416l1.562 1.209.612-.791-1.562-1.209-.612.791zm3.125 2.417l1.562 1.208.612-.79-1.562-1.209-.612.791zm3.125 2.417l1.562 1.208.612-.791-1.562-1.208-.612.79zm3.125 2.416l1.562 1.21.612-.791-1.562-1.209-.612.791zm3.125 2.417l1.562 1.208.612-.79-1.562-1.209-.612.791zm3.125 2.417l1.562 1.208.612-.791-1.562-1.208-.612.79z" fill="#545454"></path></symbol><symbol viewBox="0 0 159 60" fill="none" xmlns="http://www.w3.org/2000/svg" id="arrow-moder-stats3"><path opacity=".5" d="M158 59l-3.69-4.44-2.001 5.415L158 59zM.827 1.469l.934.345.347-.938-.935-.345-.346.938zM3.63 2.505l1.87.69.346-.938-1.87-.69-.346.938zm3.738 1.38l1.87.691.346-.938-1.87-.69-.346.938zm3.739 1.382l1.869.69.346-.938-1.869-.69-.346.938zm3.738 1.38l1.869.691.346-.938-1.869-.69-.346.938zm3.738 1.382l1.869.69.346-.938-1.869-.69-.346.938zm3.738 1.38l1.869.691.346-.938-1.869-.69-.346.937zm3.738 1.381l1.869.69.346-.937-1.869-.69-.346.937zm3.738 1.381l1.869.69.347-.937-1.87-.69-.346.937zm3.738 1.381l1.87.69.346-.937-1.87-.69-.346.937zm3.738 1.381l1.87.69.346-.937-1.87-.69-.346.937zm3.738 1.381l1.87.69.346-.937-1.87-.69-.346.937zm3.738 1.381l1.87.69.346-.937-1.87-.69-.346.937zm3.738 1.381l1.87.69.346-.937-1.869-.69-.347.937zm3.739 1.381l1.869.69.346-.937-1.869-.69-.346.937zm3.738 1.381l1.869.69.346-.938-1.869-.69-.346.938zm3.738 1.381l1.869.69.346-.938-1.869-.69-.346.938zM63.44 24.6l1.869.69.346-.938-1.869-.69-.346.938zm3.738 1.38l1.869.691.347-.938-1.87-.69-.346.938zm3.738 1.382l1.87.69.346-.938-1.87-.69-.346.938zm3.738 1.38l1.87.691.346-.938-1.87-.69-.346.938zm3.738 1.382l1.87.69.346-.938-1.87-.69-.346.938zm3.738 1.38l1.87.691.346-.938-1.87-.69-.346.938zm3.738 1.382l1.87.69.346-.938-1.87-.69-.346.938zm3.739 1.38l1.868.691.347-.938-1.869-.69-.347.938zm3.738 1.382l1.869.69.346-.938-1.869-.69-.346.938zm3.738 1.38l1.869.691.346-.938-1.869-.69-.346.938zm3.738 1.382l1.869.69.346-.938-1.869-.69-.346.938zm3.738 1.38l1.869.69.346-.937-1.869-.69-.346.937zm3.738 1.381l1.869.69.347-.937-1.87-.69-.346.937zm3.738 1.381l1.869.69.347-.937-1.869-.69-.347.937zm3.738 1.381l1.869.69.347-.937-1.869-.69-.347.937zm3.738 1.381l1.869.69.347-.937-1.869-.69-.347.937zm3.738 1.381l1.869.69.347-.937-1.869-.69-.347.937zm3.738 1.381l1.869.69.347-.937-1.869-.69-.347.937zm3.738 1.381l1.87.69.346-.938-1.869-.69-.347.938zm3.739 1.381l1.869.69.346-.938-1.869-.69-.346.938zm3.738 1.381l1.869.69.346-.938-1.869-.69-.346.938zm3.738 1.38l1.869.691.346-.938-1.869-.69-.346.938zm3.738 1.382l1.869.69.346-.938-1.869-.69-.346.938zm3.738 1.38l1.869.691.347-.938-1.87-.69-.346.938zm3.738 1.382l1.869.69.347-.938-1.869-.69-.347.938z" fill="#545454"></path></symbol><symbol viewBox="0 0 80 80" fill="none" xmlns="http://www.w3.org/2000/svg" id="emoji-coupon-buy-error"><path d="M80 40c0 22.091-17.909 40-40 40C17.911 80 0 62.091 0 40 0 17.911 17.911 0 40 0c22.091 0 40 17.911 40 40z" fill="#FFCC4D"></path><path d="M26.667 37.778c3.068 0 5.555-3.482 5.555-7.778 0-4.295-2.487-7.777-5.555-7.777-3.068 0-5.556 3.482-5.556 7.777 0 4.296 2.488 7.778 5.556 7.778zm26.666 0c3.068 0 5.556-3.482 5.556-7.778 0-4.295-2.488-7.777-5.556-7.777S47.777 25.705 47.777 30c0 4.296 2.488 7.778 5.556 7.778z" fill="#664500"></path><path d="M55.555 46.668a8.89 8.89 0 0 1 0 17.778H24.444a8.89 8.89 0 0 1 0-17.778h31.11z" fill="#fff"></path><path d="M55.556 44.445h-31.11c-6.128 0-11.112 4.985-11.112 11.111 0 6.127 4.984 11.112 11.111 11.112h31.111c6.127 0 11.111-4.985 11.111-11.112 0-6.126-4.984-11.11-11.11-11.11zm0 4.445c3.296 0 6.022 2.409 6.553 5.555h-7.664V48.89h1.111zm-3.333 0v5.555h-6.667V48.89h6.667zm-8.889 0v5.555h-6.667V48.89h6.667zm-8.889 0v5.555h-6.667V48.89h6.667zm-10 0h1.111v5.555h-7.664c.53-3.146 3.258-5.555 6.553-5.555zm0 13.333c-3.296 0-6.022-2.409-6.553-5.556h7.664v5.556h-1.11zm3.333 0v-5.556h6.667v5.556h-6.667zm8.89 0v-5.556h6.666v5.556h-6.667zm8.888 0v-5.556h6.667v5.556h-6.667zm10 0h-1.11v-5.556h7.663c-.53 3.147-3.257 5.556-6.553 5.556z" fill="#664500"></path></symbol><symbol viewBox="0 0 80 80" fill="none" xmlns="http://www.w3.org/2000/svg" id="emoji-coupon-buy-ok-2"><path d="M6.02 57.777h18.128V80H6.02V57.777zm49.852 0H74V80H55.872V57.777z" fill="#FFDC5D"></path><path d="M74 63.819s-6.798 4.444-18.128 2.222V54.93H74v8.889zm-67.98 0s6.798 4.444 18.128 2.222V54.93H6.02v8.889z" fill="#F9CA55"></path><path d="M8.25 41.346h18.128v17.777H8.25V41.346zm45.373-1.112H71.75v17.778H53.623V40.234z" fill="#EF9645"></path><path d="M.068 26.302s.007-2.722 2.78-2.715c2.779.009 2.77 2.73 2.77 2.73L5.575 38.95c.441-.2.904-.38 1.389-.536l.056-17.53s.01-2.723 2.78-2.714c2.774.006 2.768 2.73 2.768 2.73l-.048 16.49c.45-.04.915-.071 1.382-.094l.064-19.115s.006-2.722 2.782-2.711c2.776.009 2.765 2.73 2.765 2.73l-.064 19.112c.476.027.934.073 1.392.116l.056-17.865s.01-2.722 2.78-2.711c2.774.007 2.763 2.727 2.763 2.727l-.054 18.89-.007 1.514v1.358c-8.326-.02-13.898 6.76-13.923 13.564 0 1.36 1.387 1.37 1.387 1.37.023-8.174 5.59-13.59 13.918-13.565l4.081-9.307s.895-2.575 3.526-1.693c2.624.87 1.734 3.45 1.734 3.45l-2.024 6.9c-.802 2.743-1.552 5.503-1.946 8.32-1.129 7.965-8.115 14.09-16.54 14.068C7.403 64.409-.03 57.08 0 48.069c.002-.476.032-.93.077-1.356l-.072-.009.063-20.402zm79.864 0s-.007-2.722-2.78-2.715c-2.779.009-2.772 2.73-2.772 2.73l.043 12.632c-.44-.2-.904-.38-1.387-.536l-.056-17.53s-.01-2.723-2.78-2.714c-2.776.006-2.77 2.73-2.77 2.73l.05 16.49a33.44 33.44 0 0 0-1.382-.094l-.061-19.115s-.01-2.722-2.785-2.711c-2.776.009-2.765 2.73-2.765 2.73l.064 19.112c-.476.027-.934.073-1.392.116l-.056-17.865s-.012-2.722-2.783-2.711c-2.774.007-2.762 2.727-2.762 2.727l.054 18.89.007 1.514v1.358c8.325-.02 13.897 6.76 13.924 13.564 0 1.36-1.386 1.37-1.386 1.37-.025-8.174-5.593-13.59-13.918-13.565l-4.081-9.307s-.893-2.575-3.526-1.693c-2.622.87-1.734 3.45-1.734 3.45l2.024 6.9c.802 2.743 1.552 5.503 1.946 8.32 1.129 7.965 8.113 14.09 16.54 14.068C72.597 64.409 80.032 57.08 80 48.069a13.446 13.446 0 0 0-.077-1.356l.072-.009-.063-20.402z" fill="#FFDC5D"></path><path d="M52.568 14.351c-.482 0-.972-.151-1.382-.462a2.192 2.192 0 0 1-.408-3.118l6.75-8.567a2.29 2.29 0 0 1 3.178-.4 2.192 2.192 0 0 1 .407 3.118l-6.75 8.567a2.27 2.27 0 0 1-1.795.862zm-24.971 0a2.28 2.28 0 0 1-1.795-.864l-6.75-8.565a2.196 2.196 0 0 1 .41-3.118 2.299 2.299 0 0 1 3.179.4l6.75 8.567a2.196 2.196 0 0 1-.407 3.118 2.29 2.29 0 0 1-1.387.462zm12.415-1.018c-1.25 0-2.266-.995-2.266-2.222V2.222C37.746.996 38.761 0 40.012 0c1.253 0 2.266.996 2.266 2.222v8.89c0 1.226-1.013 2.221-2.266 2.221z" fill="#5DADEC"></path></symbol><symbol viewBox="0 0 80 80" fill="none" xmlns="http://www.w3.org/2000/svg" id="emoji-coupon-buy-ok"><path d="M80 40c0 22.091-17.909 40-40 40C17.911 80 0 62.091 0 40 0 17.911 17.911 0 40 0c22.091 0 40 17.911 40 40z" fill="#FFCC4D"></path><path d="M25.556 44.446c3.068 0 5.555-3.482 5.555-7.778 0-4.295-2.487-7.777-5.555-7.777-3.069 0-5.556 3.482-5.556 7.777 0 4.296 2.487 7.778 5.556 7.778zm37.682-4.901c-.133-.3-3.331-7.326-9.905-7.326-6.57 0-9.77 7.026-9.904 7.326-.204.46-.071.998.322 1.314.39.315.947.326 1.356.03.026-.02 2.804-2.004 8.226-2.004 5.392 0 8.165 1.958 8.227 2.003a1.108 1.108 0 0 0 1.356-.023c.393-.315.529-.857.322-1.32zM13.33 27.681a2.222 2.222 0 0 1-1.776-3.556c7.25-9.666 16.925-9.777 17.334-9.777a2.223 2.223 0 0 1 .009 4.444c-.347.005-7.931.191-13.789 8a2.21 2.21 0 0 1-1.778.889zm51.116 4.722a2.218 2.218 0 0 1-1.78-.889c-5.76-7.682-15.47-5.837-15.565-5.822a2.218 2.218 0 0 1-2.615-1.742 2.224 2.224 0 0 1 1.742-2.616c.513-.104 12.571-2.382 19.991 7.511a2.22 2.22 0 0 1-.444 3.111 2.172 2.172 0 0 1-1.33.447zM51.676 52.39a1.141 1.141 0 0 0-1.327.133c-.022.018-2.251 1.918-10.349 1.918-8.091 0-10.324-1.898-10.324-1.898a1.117 1.117 0 0 0-1.334-.182 1.113 1.113 0 0 0-.529 1.238c.023.098 2.543 9.73 12.187 9.73 9.645 0 12.165-9.633 12.189-9.73a1.103 1.103 0 0 0-.513-1.21z" fill="#664500"></path></symbol><symbol viewBox="0 0 76 80" fill="none" xmlns="http://www.w3.org/2000/svg" id="emoji-faq"><path d="M38 75.596c20.987 0 38-16.923 38-37.798C76 16.923 58.987 0 38 0S0 16.923 0 37.798c0 20.875 17.013 37.798 38 37.798z" fill="#FFCB4C"></path><path d="M30.23 46.737a2.032 2.032 0 0 1-.697-1.032c-.3-1.023.29-2.04 1.319-2.27 10.121-2.27 16.937 3.03 17.225 3.257.858.68 1.026 1.88.387 2.68-.64.796-1.851.891-2.707.215-.246-.187-5.64-4.275-13.819-2.441a2.044 2.044 0 0 1-1.708-.41zM27.09 30.71c2.623 0 4.75-2.645 4.75-5.906 0-3.262-2.127-5.906-4.75-5.906s-4.75 2.644-4.75 5.906c0 3.261 2.127 5.905 4.75 5.905zm25.16 2.362c2.623 0 4.75-2.644 4.75-5.905s-2.127-5.905-4.75-5.905-4.75 2.644-4.75 5.905 2.127 5.905 4.75 5.905z" fill="#65471B"></path><path d="M36.38 78.108s2.828-.914 3.195-3.006c.386-2.161-1.395-2.595-1.395-2.595s2.327-.463 2.62-3.06c.275-2.447-1.925-3.03-1.925-3.03s2.168-.89 2.271-3.422c.085-2.132-2.224-3.175-2.224-3.175s11.261-2.715 12.42-2.981c1.153-.267 2.95-1.368 2.389-3.767-.557-2.401-2.692-2.486-3.794-2.23-1.104.256-15.074 3.482-19.894 4.598l-3.216.743c-1.207.282-1.755-.245-.903-1.139 1.135-1.191 1.862-2.51 2.114-4.698.266-2.3-.518-5.142-.968-6.245-.835-2.048-2.246-3.667-3.875-4.222-2.542-.867-4.348.713-3.447 3.47 1.35 4.123.465 7.504-1.862 9.545-5.475 4.796-8.02 8.216-6.326 15.504 1.85 7.949 9.784 13.065 17.775 11.224l7.045-1.514z" fill="#F19020"></path><path d="M18.545 14.082a2.061 2.061 0 0 1-.874-.887c-.483-.952-.09-2.061.879-2.473 9.535-4.07 17.21-.095 17.531.076.968.514 1.36 1.66.874 2.566-.483.9-1.654 1.214-2.622.707-.275-.14-6.33-3.184-14.033.104a2.055 2.055 0 0 1-1.755-.093zM45.67 22.42a2.058 2.058 0 0 1-.809-.943c-.418-.983.052-2.061 1.046-2.41 9.793-3.415 17.179 1.067 17.487 1.26.928.579 1.24 1.75.697 2.62-.54.867-1.734 1.1-2.662.529-.268-.16-6.095-3.604-14.008-.843a2.076 2.076 0 0 1-1.75-.213z" fill="#65471B"></path></symbol><symbol viewBox="0 0 72 80" fill="none" xmlns="http://www.w3.org/2000/svg" id="emoji-microscope"><path d="M38.807 47.315L24.66 33.172l-.868 9.768 5.243 5.243 9.772-.868z" fill="#66757F"></path><path d="M29.035 49.296c-.294 0-.578-.118-.79-.325L23 43.727a1.117 1.117 0 0 1-.323-.886l.867-9.768a1.114 1.114 0 0 1 1.9-.689L39.59 46.53c.308.307.409.762.26 1.168a1.12 1.12 0 0 1-.951.73l-9.77.867-.094.002zm-4.087-6.777l4.509 4.507 6.874-.609L25.559 35.65l-.611 6.869z" fill="#66757F"></path><path d="M63.84 71.076h-6.694c0-7.39-5.867-13.38-13.107-13.38-7.238 0-13.108 5.99-13.108 13.38H14.153a4.461 4.461 0 0 0-8.924 0 4.463 4.463 0 0 0-4.462 4.46 4.463 4.463 0 0 0 4.462 4.46h58.61a4.463 4.463 0 0 0 4.463-4.46c0-2.462-2-4.46-4.462-4.46z" fill="#8899A6"></path><path d="M39.298 22.016v8.92c8.626 0 15.618 6.99 15.618 15.61 0 8.623-6.992 15.612-15.618 15.612h-18.93c4.502 5.448 11.309 8.92 18.93 8.92 13.554 0 24.542-10.983 24.542-24.531 0-13.548-10.988-24.531-24.542-24.531z" fill="#8899A6"></path><path d="M31.297 67.543a4.463 4.463 0 0 1-6.31 0L2.903 45.465a4.458 4.458 0 0 1 0-6.307 4.465 4.465 0 0 1 6.312 0L31.3 61.236a4.46 4.46 0 0 1-.003 6.307zm-16.12-3.983a2.23 2.23 0 1 1 .621 4.415l-13.257 1.86a2.231 2.231 0 1 1-.618-4.417l13.255-1.858z" fill="#67757F"></path><path d="M55.677 6.36l9.953 9.948-8.492 8.49-9.953-9.949 8.492-8.49z" fill="#66757F"></path><path d="M70.616 15.512a4.732 4.732 0 0 1-6.687 0l-7.45-7.449a4.724 4.724 0 1 1 6.683-6.681l7.456 7.448a4.726 4.726 0 0 1-.002 6.682zm-32.485 33.51L22.955 33.85a2.235 2.235 0 0 1 0-3.154L44.95 8.712a2.237 2.237 0 0 1 3.154 0l15.174 15.172a2.235 2.235 0 0 1 0 3.153L41.284 49.02a2.235 2.235 0 0 1-3.153 0z" fill="#AAB8C2"></path><path d="M25.39 28.26l3.654-3.65 18.33 18.322-3.654 3.65L25.39 28.26z" fill="#E1E8ED"></path></symbol><symbol viewBox="0 0 80 80" fill="none" xmlns="http://www.w3.org/2000/svg" id="emoji-new-quest"><path d="M40 80c22.091 0 40-17.909 40-40S62.091 0 40 0 0 17.909 0 40s17.909 40 40 40z" fill="#FFCC4D"></path><path d="M60.744 52.508a1.113 1.113 0 0 0-1.41-.064c-.087.064-8.716 6.444-19.334 6.444-10.591 0-19.249-6.38-19.333-6.444a1.112 1.112 0 1 0-1.62 1.46c.286.478 7.149 11.651 20.953 11.651 13.804 0 20.669-11.173 20.953-11.651a1.108 1.108 0 0 0-.209-1.396z" fill="#664500"></path><path d="M40 59.093c-.328 0-.646-.025-.973-.036v10.035h1.945V59.056c-.322.01-.642.038-.971.038z" fill="#65471B"></path><path d="M48.89 57.777c.035-.008-3.223.84-5.436 1.08-.813.094-1.638.17-2.482.198v10.038h3.473c2.444 0 4.444-2 4.444-4.445v-6.87zm-17.778 0c-.036-.008 3.222.84 5.435 1.08.814.094 1.638.17 2.482.198v10.038h-3.473c-2.444 0-4.444-2-4.444-4.445v-6.87z" fill="#fff"></path><path d="M60.745 52.512a1.113 1.113 0 0 0-1.411-.065c-.067.05-5.02 3.707-12.025 5.49-.984.25-4.142.955-7.302.957-3.164 0-6.33-.707-7.315-.958-7.005-1.782-11.958-5.44-12.025-5.489a1.113 1.113 0 0 0-1.41.065c-.396.355-.483.94-.21 1.395.216.36 4.19 6.816 12.065 9.958v-4.064c-.036-.01 3.222.84 5.435 1.08.814.093 1.638.169 2.483.197.324.011.642.036.97.036.33 0 .647-.024.974-.036a29.982 29.982 0 0 0 2.482-.197c2.213-.24 5.471-1.09 5.436-1.08v4.064c7.875-3.142 11.849-9.598 12.064-9.958a1.111 1.111 0 0 0-.211-1.395zm-1.58-21.345c0 3.81-2.084 6.898-4.658 6.898-2.57 0-4.657-3.089-4.657-6.898 0-3.809 2.084-6.898 4.657-6.898 2.574 0 4.658 3.09 4.658 6.898zm-38.149 0c0 3.81 2.085 6.898 4.658 6.898 2.571 0 4.658-3.089 4.658-6.898 0-3.809-2.085-6.898-4.658-6.898-2.573 0-4.658 3.09-4.658 6.898z" fill="#65471B"></path><path d="M77.352 21.394c-.38-.369-2.816.609-5.28-.647-5.085-2.59-17.934-5.09-26.298.836-.896.633-4.638.74-5.685.696-1.046.046-4.788-.06-5.684-.696-8.362-5.927-21.211-3.427-26.296-.836-2.464 1.256-4.9.278-5.28.647-.549.531-.549 2.658.003 3.191.546.531 3.282 1.145 3.826 2.738.55 1.596.554 11.018 4.918 14.276 4.087 3.048 13.62 3.966 19.662.528 5.271-2.997 5.087-9.309 6.054-13.069.344-1.34 1.315-2.015 2.8-2.015 1.484 0 2.455.675 2.8 2.015.966 3.758.78 10.072 6.053 13.07 6.042 3.435 15.575 2.517 19.66-.53 4.367-3.255 4.371-12.68 4.918-14.275.544-1.593 3.28-2.209 3.826-2.738.551-.533.554-2.66.003-3.191zm-44.876 8.111c-.171 2.456-.609 7.171-3.549 8.845-1.802 1.026-4.151 1.65-6.609 1.65h-.002c-2.722 0-6.495-.77-7.971-1.87-1.845-1.376-2.547-7.038-2.811-9.156-.17-1.349-.622-4.644.862-5.151 2.356-.802 5.642-1.429 9.005-1.429 1.54 0 6.713.096 9.233 1.647 2.233 1.37 1.938 4.113 1.842 5.464zm36.173-.562c-.264 2.12-.966 7.811-2.81 9.187-1.476 1.1-5.25 1.87-7.972 1.87h-.002c-2.46 0-4.807-.624-6.611-1.65-2.94-1.672-3.378-6.358-3.55-8.814-.092-1.35-.39-4.113 1.843-5.484 2.522-1.551 7.694-1.658 9.234-1.658 3.362 0 6.646.616 9.004 1.418 1.484.506 1.033 3.782.864 5.13z" fill="#292F33"></path></symbol><symbol viewBox="0 0 76 80" fill="none" xmlns="http://www.w3.org/2000/svg" id="emoji-no-favorites"><path d="M76 37.778c0 20.865-17.013 37.779-38 37.779-20.985 0-38-16.914-38-37.779C0 16.916 17.015 0 38 0c20.987 0 38 16.916 38 37.778z" fill="#FFCC4D"></path><path d="M37.999 60.002c8.641 0 15.647-7.462 15.647-16.667 0-9.205-7.006-16.667-15.647-16.667-8.642 0-15.647 7.462-15.647 16.667 0 9.205 7.005 16.667 15.647 16.667z" fill="#664500"></path><path d="M47.987 60.82s2.228-1.602.369-3.586c-1.86-1.985-3.624.115-3.624.115l-9.272 8.592c-.154-.456-1.026-1.651-1.23-2.105l12.865-11.925s2.23-1.602.367-3.588c-1.86-1.983-3.626.113-3.626.113l-12.1 11.213c-.28-.35-1.03-1.2-1.328-1.55l14.03-13s2.228-1.605.366-3.588c-1.86-1.984-3.624.114-3.624.114L27.147 54.62c-.335-.322-1.368-1.353-1.708-1.657L38.552 40.81s2.226-1.604.366-3.586c-1.862-1.985-3.623.113-3.623.113L21.429 50.185l-1.11 1.031-.492.46s-1.203 1.653-2.43.398l4.117-9.24s1.297-2.387-1.102-3.678c-2.403-1.291-3.7 1.095-3.7 1.095l-3.728 6.13c-1.482 2.428-3.015 4.84-4.826 7.037-5.105 6.207-4.942 15.365.711 21.398 6.167 6.576 16.532 6.938 23.147.81l.999-.93 14.972-13.875z" fill="#F4900C"></path><path d="M22.384 13.516c-5.04 1.342-7.778 4.367-7.946 4.556a2.218 2.218 0 0 0 .203 3.138 2.24 2.24 0 0 0 3.154-.203c.177-.193 4.672-5.006 12.987-3.315a2.234 2.234 0 0 0 2.638-1.731 2.22 2.22 0 0 0-1.741-2.623c-3.655-.746-6.764-.495-9.295.178zm31.223.002c-2.53-.673-5.64-.924-9.297-.182a2.222 2.222 0 0 0-1.74 2.622 2.235 2.235 0 0 0 2.637 1.731c8.324-1.693 12.81 3.123 12.996 3.327.82.905 2.235.987 3.151.174a2.207 2.207 0 0 0 .197-3.12c-.167-.187-2.906-3.21-7.944-4.552z" fill="#664500"></path></symbol><symbol viewBox="0 0 80 80" fill="none" xmlns="http://www.w3.org/2000/svg" id="emoji-opinion-error"><path d="M13.17 61.766h53.784V80H13.17V61.766z" fill="#DD551F"></path><path d="M48.815.816C44.288-.675 33.639-.267 30.977 3.252c-6.923.135-15.044 6.498-16.109 14.896-1.053 8.308 1.296 12.166 2.132 18.414.945 7.08 4.858 9.343 7.986 10.291 4.5 6.05 9.283 5.79 17.317 5.79 15.687 0 23.158-10.677 23.82-28.809C66.52 12.866 60.194 4.56 48.814.816z" fill="#FFE51E"></path><path d="M57.783 24.609c-1.517-2.138-3.462-3.859-7.722-4.468 1.597.746 3.128 3.317 3.328 4.74.199 1.421.398 2.573-.866 1.15-5.064-5.696-10.582-3.453-16.05-6.931-3.818-2.43-4.981-5.12-4.981-5.12s-.466 3.588-6.257 7.244c-1.679 1.06-3.682 3.42-4.794 6.907-.8 2.505-.55 4.738-.55 8.556 0 11.144 9.028 20.514 20.168 20.514 11.14 0 20.169-9.452 20.169-20.514 0-6.931-.715-9.64-2.445-12.078z" fill="#F3D2A2"></path><path d="M42.304 42.389h-4.482a1.13 1.13 0 0 1-1.12-1.14c0-.629.501-1.14 1.12-1.14h4.482c.618 0 1.12.511 1.12 1.14 0 .63-.502 1.14-1.12 1.14z" fill="#C1694F"></path><path d="M31.098 34.417c-1.237 0-2.24-1.022-2.24-2.28v-2.28c0-1.258 1.003-2.279 2.24-2.279 1.237 0 2.241 1.021 2.241 2.28v2.28c0 1.257-1.004 2.279-2.24 2.279zm17.928 0c-1.239 0-2.24-1.022-2.24-2.28v-2.28c0-1.258 1.001-2.279 2.24-2.279 1.24 0 2.241 1.021 2.241 2.28v2.28c0 1.257-1.001 2.279-2.24 2.279z" fill="#662113"></path><path d="M6.883 39.024c.59-1.104 1.74-1.687 2.842-1.582.076-.146 15.875 6.706 15.875 6.706l-2.842 3.526c-1.568 1.947-4.273 2.332-6.041.857l-3.758-3.134-5.065-2.592c-1.313-.677-1.766-2.368-1.01-3.781z" fill="#E2C196"></path><path d="M.54 32.088c-.784.974-.706 2.36.18 3.098l11.018 6.24 7.998 6.67c.886.736 2.237.545 3.021-.428L25.6 44.14l-3.2-2.666-7.223-4.315-11.615-5.5c-.002 0-2.236-.545-3.02.428z" fill="#F3D2A2"></path><path d="M21.058 39.964s43.917 19.733 45.062 20.25c2.667 1.206 7.068 3.875 7.068 8.383l-.786 10.827c0 .315-.251.57-.56.57h-7.447a.544.544 0 0 1-.312-.098L20.518 50.13a.572.572 0 0 1-.248-.472v-9.174a.561.561 0 0 1 .788-.52z" fill="#FA743E"></path><path d="M40.567 48.692l-1.746-.739L24.34 52.76l3.321 2.35 12.906-6.418zm11.66 5.279l2.257 1.014-11.598 10.471-8.563-.057 17.904-11.428z" fill="#DD551F"></path><path d="M73.117 39.024c-.59-1.104-1.739-1.687-2.841-1.582-.077-.146-15.876 6.706-15.876 6.706l2.842 3.526c1.569 1.947 4.274 2.332 6.042.857l3.758-3.134 5.064-2.592c1.314-.677 1.766-2.368 1.011-3.781z" fill="#E2C196"></path><path d="M79.46 32.096c.784.973.705 2.359-.18 3.098l-11.02 6.24-7.997 6.67c-.885.736-2.237.544-3.021-.429L54.4 44.149l3.2-2.667 7.223-4.312 11.615-5.5c0-.003 2.237-.547 3.021.426z" fill="#F3D2A2"></path><path d="M58.944 39.964s-43.916 19.733-45.061 20.25c-2.667 1.206-7.069 3.875-7.069 8.383l.787 10.827c0 .315.251.57.56.57h7.447c.112 0 .22-.034.312-.098L59.482 50.13a.572.572 0 0 0 .25-.472v-9.174a.56.56 0 0 0-.788-.52z" fill="#FA743E"></path></symbol><symbol viewBox="0 0 81 81" fill="none" xmlns="http://www.w3.org/2000/svg" id="emoji-poop"><path d="M74.538 51.552c.809-3.507.54-7.258-1.018-10.991-1.507-3.611-4.105-6.467-7.27-8.385.707-2.649.52-5.5-.72-8.333-1.868-4.267-5.91-7.114-10.47-7.916.553-1.271.73-2.865.08-4.816C52.916 4.444 44.027 8.89 37.36.002c-5.422 3.253-6.6 8.09-6.396 12.194-5.38.915-8.444 2.08-8.444 2.08v.004a8.252 8.252 0 0 0-5.16 7.65c0 1.953.706 3.724 1.84 5.137l-1.538.573.002.007c-5.178 1.936-8.834 6.614-8.834 12.087 0 2.327.667 4.505 1.823 6.396C4.38 48.95 0 55.07 0 62.224c0 9.818 8.202 17.778 18.32 17.778 7.265 0 14.577-1.562 21.181-3.7 4.985 2.311 12.656 3.7 24.205 3.7 9 0 16.296-7.296 16.296-16.296 0-4.836-2.118-9.167-5.464-12.154z" fill="#BF6952"></path><path d="M30 44.444c4.296 0 7.779-4.477 7.779-10s-3.483-10-7.778-10c-4.296 0-7.778 4.477-7.778 10s3.482 10 7.778 10zm22.223 0c4.296 0 7.778-4.477 7.778-10s-3.482-10-7.778-10c-4.295 0-7.778 4.477-7.778 10s3.483 10 7.778 10z" fill="#F5F8FA"></path><path d="M31.113 39.998c2.454 0 4.444-2.487 4.444-5.556 0-3.068-1.99-5.555-4.445-5.555-2.454 0-4.444 2.487-4.444 5.555 0 3.069 1.99 5.556 4.445 5.556zm19.999 0c2.455 0 4.445-2.487 4.445-5.556 0-3.068-1.99-5.555-4.445-5.555-2.454 0-4.444 2.487-4.444 5.555 0 3.069 1.99 5.556 4.444 5.556zm-30.12 15.323c-.547-1.096.007-1.989 1.23-1.989h40c1.222 0 1.776.893 1.23 1.989 0 0-5.674 11.345-21.23 11.345-15.556 0-21.23-11.345-21.23-11.345z" fill="#292F33"></path><path d="M42.22 57.777c-6.157 0-11.46 2.05-13.982 5.014 3.316 2.122 7.878 3.876 13.983 3.876s10.67-1.754 13.983-3.876c-2.523-2.965-7.825-5.014-13.983-5.014z" fill="#F2ABBA"></path></symbol><symbol viewBox="0 0 80 80" fill="none" xmlns="http://www.w3.org/2000/svg" id="emoji-search-1"><path d="M80 40c0 22.091-17.909 40-40 40S0 62.091 0 40 17.909 0 40 0s40 17.909 40 40z" fill="#FFCC4D"></path><path d="M48.889 60.003c0 6.14-3.98 6.667-8.889 6.667-4.911 0-8.889-.527-8.889-6.667 0-6.136 3.978-13.333 8.889-13.333 4.909 0 8.889 7.197 8.889 13.333zm17.778-26.667c-.276 0-.556-.05-.825-.16-11.62-4.646-16.382-11.646-16.58-11.942a2.22 2.22 0 0 1 .616-3.082 2.22 2.22 0 0 1 3.078.609c.042.06 4.288 6.189 14.535 10.286a2.224 2.224 0 0 1-.824 4.29zm-53.334 0a2.222 2.222 0 0 1-.827-4.287c10.25-4.097 14.496-10.226 14.538-10.286a2.226 2.226 0 0 1 3.083-.6 2.218 2.218 0 0 1 .61 3.073c-.197.296-4.96 7.296-16.577 11.943a2.256 2.256 0 0 1-.827.157z" fill="#664500"></path><path d="M53.333 35.555h8.889v42.222l-8.89-.102v-42.12zM17.777 77.777l8.89-.102v-42.12h-8.89v42.222z" fill="#5DADEC"></path><path d="M33.33 40.002a2.24 2.24 0 0 1-.992-.233c-7.804-3.902-15.71-.04-15.789 0a2.223 2.223 0 0 1-1.989-3.976c.405-.2 9.996-4.882 19.767 0a2.223 2.223 0 0 1-.997 4.209zm31.11 0c-.333 0-.673-.076-.99-.233-7.807-3.902-15.712-.04-15.79 0a2.222 2.222 0 1 1-1.988-3.976c.404-.2 10.002-4.88 19.766 0a2.223 2.223 0 0 1-.997 4.209z" fill="#664500"></path><path d="M40 79.998c22.091 0 40-1.99 40-4.444 0-2.455-17.909-4.445-40-4.445S0 73.1 0 75.554s17.909 4.444 40 4.444z" fill="#5DADEC"></path><path d="M39.999 64.444c3.682 0 6.666-1.99 6.666-4.445S43.681 55.555 40 55.555c-3.682 0-6.667 1.99-6.667 4.444 0 2.455 2.985 4.445 6.667 4.445z" fill="#E75A70"></path></symbol><symbol viewBox="0 0 80 80" fill="none" xmlns="http://www.w3.org/2000/svg" id="emoji-search-2"><path d="M40 80c22.091 0 40-17.909 40-40S62.091 0 40 0 0 17.909 0 40s17.909 40 40 40z" fill="#FFCC4D"></path><path d="M46.662 60.002c-.23 0-.458-.036-.687-.11a19.215 19.215 0 0 0-11.944 0 2.222 2.222 0 0 1-1.371-4.227 23.63 23.63 0 0 1 14.686.001 2.225 2.225 0 0 1 1.43 2.8 2.226 2.226 0 0 1-2.114 1.536z" fill="#65471B"></path><path d="M67.414 26.813c-2.007 6.1-7.745 10.477-14.431 10.477a15.07 15.07 0 0 1-9.744-3.551c.08 1.1.168 2.216.302 3.422.337 3.085 1.964 5.516 4.702 7.03 1.822 1.008 4 1.528 6.25 1.67 3.854.243 7.934-.622 10.83-2.02 3.06-1.477 5.049-4.137 5.458-7.3.406-3.144-.787-6.497-3.367-9.728z" fill="#fff"></path><path d="M47.448 16.854c-2.882 1.222-4.327 5.114-4.393 11.754l.086.15a11.863 11.863 0 0 0 9.843 5.207c5.853 0 10.775-4.304 11.673-10.053-.256-.233-.491-.471-.762-.702-8.256-7.045-14.371-7.238-16.447-6.356z" fill="#65471B"></path><path d="M52.978 37.293c6.687 0 12.425-4.378 14.431-10.478a25.715 25.715 0 0 0-2.758-2.909c-.897 5.75-5.82 10.054-11.673 10.054a11.863 11.863 0 0 1-9.842-5.207l-.087-.151a61.942 61.942 0 0 0 .185 5.14 15.07 15.07 0 0 0 9.744 3.55z" fill="#F4900C"></path><path d="M47.581 26.248a2.46 2.46 0 1 0 0-4.92 2.46 2.46 0 0 0 0 4.92zM27.016 37.29c-6.687 0-12.425-4.377-14.431-10.477-2.58 3.23-3.772 6.584-3.367 9.726.411 3.162 2.398 5.825 5.458 7.3 2.895 1.398 6.973 2.262 10.829 2.02 2.25-.142 4.428-.66 6.25-1.67 2.736-1.514 4.363-3.945 4.703-7.03.133-1.204.222-2.315.302-3.413a15.1 15.1 0 0 1-8.778 3.51 12.54 12.54 0 0 1-.966.034z" fill="#fff"></path><path d="M27.021 33.965a11.863 11.863 0 0 0 9.842-5.207l.087-.15c-.069-6.64-1.511-10.532-4.394-11.754-2.075-.882-8.193-.689-16.446 6.354-.271.23-.505.469-.762.702.897 5.75 5.82 10.055 11.673 10.055z" fill="#65471B"></path><path d="M36.946 28.602l-.087.15a11.864 11.864 0 0 1-9.842 5.208c-5.853 0-10.776-4.305-11.673-10.054a25.724 25.724 0 0 0-2.758 2.91c2.007 6.1 7.744 10.477 14.431 10.477a15.101 15.101 0 0 0 9.744-3.542c.138-1.87.203-3.587.185-5.15z" fill="#F4900C"></path><path d="M21.74 26.244a2.461 2.461 0 1 0-2.611-2.302 2.465 2.465 0 0 0 2.612 2.302z" fill="#fff"></path></symbol><symbol viewBox="0 0 80 81" fill="none" xmlns="http://www.w3.org/2000/svg" id="emoji-search-3"><path d="M79.406 44.285c-.798-7.265-1.632-10.954-3.854-15.398 0 0 6.667-20.001 2.222-28.224-1.497-2.77-16.452 3.751-22.22 8.223 0 0-8.889-2.218-15.555-2.218S24.444 8.886 24.444 8.886C18.676 4.414 3.721-2.106 2.224.663c-4.445 8.223 2.222 28.224 2.222 28.224C2.223 33.33 1.39 37.02.592 44.285c-.877 7.965.87 14.314 1.631 15.714.867 1.591 5.26 6.723 11.11 11.112C22.224 77.778 35.556 80 40 80c4.444 0 17.777-2.222 26.665-8.89 5.85-4.388 10.244-9.52 11.11-11.11.763-1.401 2.51-7.75 1.632-15.715z" fill="#FFCC4D"></path><path d="M39.998 43.332c6.667 0 6.667 1.111 6.667 3.334 0 2.222-3.334 6.667-6.667 6.667-3.333 0-6.666-4.445-6.666-6.667 0-2.223-.002-3.334 6.666-3.334z" fill="#E75A70"></path><path d="M4.446 6.665C5.44 3.683 16.98 8.887 19.201 11.11c0 0-10.31 6.667-12.533 13.334 0 0-4.444-11.112-2.222-17.779zm71.107 0C74.56 3.683 63.021 8.887 60.8 11.11c0 0 10.31 6.667 12.532 13.334 0 0 4.444-11.112 2.222-17.779z" fill="#F18F26"></path><path d="M10.965 12.449c0-3.143 13.479 3.104 11.257 5.327-2.222 2.222-4.444 3.562-6.666 5.784-2.222 2.223-4.591-8.889-4.591-11.111zm58.068 0c0-3.143-13.48 3.104-11.258 5.327 2.223 2.222 4.445 3.562 6.667 5.784 2.222 2.223 4.59-8.889 4.59-11.111z" fill="#FFCC4D"></path><path d="M1.56 55.553a1.11 1.11 0 0 1-.689-1.983c.36-.282 8.933-6.933 23.661-5.789.611.045 1.069.58 1.022 1.191-.046.611-.57 1.114-1.193 1.023-13.85-1.054-22.032 5.258-22.112 5.322a1.133 1.133 0 0 1-.689.236zM21.266 45.19a1.14 1.14 0 0 1-.331-.049C10.29 41.814 1.52 44.37 1.43 44.394a1.11 1.11 0 1 1-.64-2.127c.385-.115 9.524-2.77 20.803.752a1.11 1.11 0 0 1-.328 2.171zM78.44 55.553a1.11 1.11 0 0 0 .689-1.983c-.36-.282-8.933-6.933-23.661-5.789a1.109 1.109 0 0 0-1.022 1.191c.047.611.57 1.114 1.193 1.023 13.85-1.054 22.032 5.258 22.112 5.322.207.158.449.236.689.236zM58.734 45.19c.11 0 .223-.016.331-.049 10.644-3.327 19.415-.771 19.504-.747a1.11 1.11 0 1 0 .64-2.127c-.385-.115-9.524-2.77-20.803.752a1.11 1.11 0 0 0 .328 2.171z" fill="#FEE7B8"></path><path d="M56.36 68.078C55.285 66.376 48.77 56.664 40 56.664c-9.408 0-16.221 11.174-16.506 11.652a1.11 1.11 0 0 0 1.567 1.495c.065-.044 6.484-4.258 14.94-4.258 8.425 0 14.876 4.216 14.938 4.258.191.13.478.214.625.187.615-.009 1.146-.487 1.146-1.111a1.1 1.1 0 0 0-.35-.81zm-29.693-28.08c2.455 0 4.445-3.483 4.445-7.778 0-4.296-1.99-7.779-4.445-7.779-2.454 0-4.444 3.483-4.444 7.779 0 4.295 1.99 7.778 4.444 7.778zm26.664 0c2.455 0 4.445-3.483 4.445-7.778 0-4.296-1.99-7.779-4.445-7.779-2.454 0-4.444 3.483-4.444 7.779 0 4.295 1.99 7.778 4.444 7.778zm15.559-8.891a2.218 2.218 0 0 1-1.78-.889c-5.87-7.824-13.469-7.998-13.791-8a2.227 2.227 0 0 1-2.202-2.233 2.216 2.216 0 0 1 2.215-2.212c.41 0 10.082.112 17.333 9.779a2.22 2.22 0 0 1-1.776 3.555zm-57.78 0a2.223 2.223 0 0 1-1.775-3.556c7.248-9.666 16.923-9.778 17.332-9.778a2.223 2.223 0 0 1 .01 4.445c-.348.005-7.931.191-13.789 8a2.21 2.21 0 0 1-1.778.89z" fill="#292F33"></path><path d="M33.334 68.89c0 6.138-4.975 11.112-11.11 11.112-6.136 0-11.11-4.974-11.11-11.112S20.001 40 22.223 40c2.222 0 11.11 22.752 11.11 28.89z" fill="#5DADEC"></path></symbol><symbol viewBox="0 0 80 80" fill="none" xmlns="http://www.w3.org/2000/svg" id="emoji-search-4"><path d="M80 40c0 22.091-17.909 40-40 40S0 62.091 0 40 17.909 0 40 0s40 17.909 40 40z" fill="#FFCC4D"></path><path d="M39.999 47.781c-20.74 0-23.3 18.565-23.325 18.751a1.112 1.112 0 0 0 1.454 1.194c.13-.045 13.262-4.39 21.87-4.39 12.434 0 21.656 4.296 21.747 4.338.358.171.796.134 1.127-.104.327-.238.502-.636.451-1.04C63.3 66.346 60.74 47.78 40 47.78zm24.444-25.555c-12.342 0-17.338-9.705-17.544-10.118a2.223 2.223 0 0 1 3.97-1.998c.167.324 4.047 7.671 13.574 7.671a2.222 2.222 0 1 1 0 4.445zm-48.889 0a2.223 2.223 0 0 1 0-4.445c11.296 0 13.325-6.933 13.407-7.229.322-1.173 1.538-1.884 2.709-1.575a2.212 2.212 0 0 1 1.595 2.677c-.108.431-2.813 10.572-17.71 10.572z" fill="#664500"></path><path d="M40.001 51.11c8.89 0 13.334 4.444 13.334 4.444H26.668s4.444-4.445 13.333-4.445z" fill="#CCD6DD"></path><path d="M13.335 42.223a2.221 2.221 0 0 1-1.336-3.998c.318-.238 6.558-4.85 15.236-6.518-5.5-2.757-11.605-2.817-11.683-2.817a2.224 2.224 0 0 1-2.217-2.227c0-1.224.993-2.218 2.22-2.218.49 0 12.115.085 19.349 7.318a2.222 2.222 0 0 1-1.572 3.793c-10.25 0-18.584 6.16-18.666 6.223-.4.3-.87.444-1.331.444zm53.329-.002c-.463 0-.93-.142-1.33-.44-.084-.065-8.468-6.225-18.668-6.225a2.222 2.222 0 0 1-1.571-3.793c7.235-7.233 18.857-7.318 19.349-7.318a2.22 2.22 0 0 1 2.22 2.218 2.224 2.224 0 0 1-2.216 2.227c-.08 0-6.184.06-11.684 2.817 8.677 1.667 14.917 6.28 15.233 6.518.98.736 1.18 2.125.447 3.107a2.221 2.221 0 0 1-1.78.889z" fill="#664500"></path></symbol><symbol viewBox="0 0 218 200" fill="none" xmlns="http://www.w3.org/2000/svg" id="emoji-sloth"><path d="M36.334 115.036c-6.692 0-12.111-5.417-12.111-12.106V12.129c0-6.689 5.42-6.053 12.11-6.053 6.692 0 12.112-.636 12.112 6.053 0 0-3.67 38.887 0 72.622 3.27 30.11 24.222 36.339 24.222 36.339 0 6.689-29.642-6.054-36.333-6.054zm84.778 30.261c-6.692 0-12.112-5.418-12.112-12.107V6.07c0-6.69 5.42-6.054 12.112-6.054 6.691 0 12.111-.635 12.111 6.054 0 0-2.701 30.92-.757 56.278 1.937 25.345.757 70.842.757 70.842 0 6.683-5.42 12.107-12.111 12.107z" fill="#7A5C44"></path><path d="M62.5 95.498c-2.5-2.5-8-2.5-20 6.5 1.167 3.167 4.8 8.802 10 6.002 6.5-3.5 12.5-10.002 10-12.502z" fill="#634A36"></path><path d="M218 12.126L0 36.34V12.126L218 .02v12.106z" fill="#662113"></path><path d="M137.111 99.337c-3.833 6.816-8.254 10.951-13.08 13.275-2.435.249-6.855-.514-8.581-8.735-2.01-9.606-4.045-23.202-4.045-39.916 0-25.085 3.639-52.918 3.639-52.918 0-5.624 8.551-5.666 12.632-6C126.732.008 117.085.02 105.368.02c-8.8 0-13.662 6.5-14.546 13.928-.89 7.434-4.778 38.421-4.505 60.534.145 12.01.932 25.188 1.907 36.417-4.796-1.217-9.598-2.379-14.315-2.972-16.998-2.155-39.391-3.239-43.17-35.6-2.992-25.618-.472-55.23-.472-55.23 0-5.625 8.55-7.01 12.631-7.344-.944-5.036-10.16-5.514-21.86-4.74-8.78.582-13.57 5.11-14.994 14.989-2.289 15.914-2.555 52.592-1.21 77.943.75 14.153 2.966 65.134 24.821 84.959 12.765 11.574 34.444 18.414 61.167 16.883 25.343-1.453 46.162-10.872 57.819-20.66 20.237-16.992 24.767-29.28 25.609-42.586 1.35-21.501-28.807-52.016-37.139-37.204z" fill="#A78E81"></path><path d="M212.106 125.156c-12.723 19.377-38.011 25.261-65.152 7.458-27.141-17.803-31.81-43.336-19.087-62.713 12.723-19.377 45.344-15.642 62.881-3.777 17.537 11.864 34.081 39.655 21.358 59.032z" fill="#A78E81"></path><path d="M201.461 128.218c-9.083 13.844-31.271 18.063-54.53 2.809-23.26-15.255-26.76-36.326-17.67-50.17 9.083-13.845 26.002-11.63 49.262 3.632 23.259 15.26 32.021 29.891 22.938 43.729z" fill="#E2D2C7"></path><path d="M124.546 76.083c-3.022 6.816-4.1 14.141-2.973 21.49 9.071 2.657 22.024 5.872 28.158 4.594 9.968-2.07 13.31-10.999 11.845-18.045-2.029-9.782-19.323-15.4-37.03-8.039z" fill="#292F33"></path><path d="M141.624 95.445a7.193 7.193 0 0 0 7.194-7.191 7.193 7.193 0 0 0-7.194-7.192 7.193 7.193 0 0 0-7.194 7.192 7.193 7.193 0 0 0 7.194 7.191z" fill="#F5F8FA"></path><path d="M207.747 130.652c-5.051 5.485-11.342 9.389-18.536 11.284-6.05-7.258-14.152-17.864-15.43-23.996-2.071-9.963 4.796-16.58 11.845-18.045 9.792-2.028 21.83 11.592 22.121 30.757z" fill="#292F33"></path><path d="M189.76 127.039a7.192 7.192 0 1 0 0-14.383 7.193 7.193 0 0 0-7.194 7.192 7.193 7.193 0 0 0 7.194 7.191z" fill="#F5F8FA"></path><path d="M169.841 123.971c-4.36 6.646-13.286 8.493-19.929 4.134-6.649-4.358-8.496-13.281-4.136-19.922 4.36-6.646 9.338-2.481 15.98 1.877 6.643 4.358 12.445 7.264 8.085 13.911z" fill="#292F33"></path><path d="M169.42 139.995c-.146 0-.297-.013-.442-.031-27.123-3.959-38.132-24.637-38.586-25.521a3.02 3.02 0 0 1 1.296-4.068c1.489-.787 3.306-.187 4.081 1.278.103.187 10.131 18.82 34.087 22.318a3.036 3.036 0 0 1 2.561 3.433 3.033 3.033 0 0 1-2.997 2.591z" fill="#292F33"></path></symbol><symbol viewBox="0 0 75 80" fill="none" xmlns="http://www.w3.org/2000/svg" id="emoji-ufo"><path d="M75 37.778C75 58.642 45.832 80 37.5 80 29.166 80 0 58.642 0 37.778 0 16.913 16.789 0 37.5 0S75 16.913 75 37.778z" fill="#CCD6DD"></path><path d="M27.577 32.99c6.891 6.943 9.684 15.385 6.238 18.856-3.445 3.471-11.825.66-18.717-6.284-6.893-6.943-9.686-15.385-6.238-18.856 3.448-3.471 11.826-.658 18.717 6.284zm19.84 0c-6.891 6.943-9.684 15.385-6.239 18.856 3.446 3.471 11.826.66 18.717-6.284 6.894-6.945 9.686-15.385 6.239-18.856-3.446-3.471-11.826-.66-18.717 6.284zm-9.92 35.9c-5.177 0-7.886-2.577-8.177-2.873a2.231 2.231 0 0 1 0-3.142 2.193 2.193 0 0 1 3.097-.022c.112.104 1.778 1.593 5.08 1.593 3.35 0 5.014-1.531 5.084-1.598a2.209 2.209 0 0 1 3.106.065 2.217 2.217 0 0 1-.013 3.102c-.291.298-3 2.876-8.177 2.876z" fill="#292F33"></path></symbol><symbol viewBox="0 0 21 24" fill="none" xmlns="http://www.w3.org/2000/svg" id="like"><path d="M21 11.863c0-.338-.079-.655-.21-.943-.88-2.903-4.998-2.69-10.855-2.833-.979-.023-.419-1.206-.075-3.804C10.084 2.594 9.019 0 7.23 0c-2.95 0-.112 2.381-2.72 8.27C3.114 11.416 0 9.654 0 12.815v7.194c0 1.23.118 2.412 1.809 2.607C3.448 22.805 3.079 24 5.444 24h11.835c1.205 0 2.186-1.004 2.186-2.238a2.25 2.25 0 0 0-.458-1.354 2.24 2.24 0 0 0 .671-3.298 2.238 2.238 0 0 0 1.132-1.947c0-.61-.242-1.163-.63-1.568.496-.41.82-1.03.82-1.732z" fill="#FFDB5E"></path><path d="M13.172 14.099h5.643c.768 0 1.488-.42 1.88-1.096a.595.595 0 0 0-.201-.805.567.567 0 0 0-.787.206c-.185.322-.528.52-.892.52h-5.779a1.052 1.052 0 0 1-1.038-1.062c0-.586.466-1.063 1.038-1.063h3.862a.58.58 0 0 0 .573-.587.58.58 0 0 0-.573-.587h-3.862c-1.206 0-2.186 1.003-2.186 2.237 0 .688.311 1.297.79 1.707a2.255 2.255 0 0 0 .14 3.304c-.4.405-.649.967-.649 1.588 0 .752.367 1.415.924 1.821-.344.396-.559.91-.559 1.48 0 1.233.98 2.237 2.186 2.237h3.597c.768 0 1.488-.42 1.88-1.096a.595.595 0 0 0-.2-.804.568.568 0 0 0-.786.204 1.04 1.04 0 0 1-.894.521h-3.597a1.052 1.052 0 0 1-1.038-1.062c0-.586.466-1.063 1.038-1.063h4.268c.767 0 1.488-.42 1.88-1.096a.595.595 0 0 0-.2-.805.564.564 0 0 0-.787.205c-.19.327-.524.522-.893.522h-4.633a1.052 1.052 0 0 1-1.038-1.063c0-.586.465-1.063 1.038-1.063h5.307c.767 0 1.488-.42 1.88-1.095a.595.595 0 0 0-.2-.805.567.567 0 0 0-.786.205c-.19.326-.524.52-.894.52h-5.452a1.052 1.052 0 0 1-1.038-1.062c0-.586.465-1.063 1.038-1.063z" fill="#EE9547"></path></symbol><symbol viewBox="0 0 26 32" fill="none" xmlns="http://www.w3.org/2000/svg" id="notification"><g clip-path="url(#clip0)" fill="#FFCC4D"><path d="M21.667 11.556c0 9.778 4.333 8.889 4.333 13.333 0 0 0 1.778-1.733 1.778H1.733C0 26.667 0 24.889 0 24.889c0-4.444 4.333-3.555 4.333-13.333 0-4.909 3.88-8.889 8.667-8.889s8.667 3.98 8.667 8.889z"></path><path d="M12.998 5.333c1.436 0 2.6-1.194 2.6-2.666 0-1.473-1.164-2.667-2.6-2.667-1.435 0-2.6 1.194-2.6 2.667 0 1.472 1.165 2.666 2.6 2.666zM13.002 32c1.914 0 3.466-1.592 3.466-3.556H9.535c0 1.964 1.552 3.556 3.467 3.556z"></path></g><defs><clipPath id="clip0"><path fill="#fff" d="M0 0h26v32H0z"></path></clipPath></defs></symbol><symbol viewBox="0 0 80 80" fill="none" xmlns="http://www.w3.org/2000/svg" id="sheet"><path d="M71.111 0H22.222a8.89 8.89 0 0 0-8.889 8.889v53.333H8.89A8.89 8.89 0 0 0 8.89 80h53.333a8.89 8.89 0 0 0 8.89-8.889V17.778a8.89 8.89 0 0 0 0-17.778z" fill="#FFD983"></path><path d="M17.777 22.221h53.334v-4.444H22.22l-4.444-2.222v6.666z" fill="#E39F3D"></path><path d="M22.222 0a8.89 8.89 0 0 0-8.889 8.889v54.567c-1.31-.765-2.817-1.234-4.444-1.234a8.89 8.89 0 1 0 8.889 8.89V16.543c1.31.765 2.818 1.234 4.444 1.234a8.89 8.89 0 0 0 0-17.778z" fill="#FFE8B6"></path><path d="M26.668 8.89a4.446 4.446 0 0 1-4.445 4.444A4.446 4.446 0 0 1 17.78 8.89a4.446 4.446 0 0 1 4.444-4.445 4.446 4.446 0 0 1 4.445 4.445zM13.334 71.112a4.446 4.446 0 0 1-4.444 4.444 4.446 4.446 0 0 1-4.445-4.444 4.446 4.446 0 0 1 4.445-4.444 4.446 4.446 0 0 1 4.444 4.444zm53.334-37.778a2.222 2.222 0 0 1-2.223 2.222h-40a2.223 2.223 0 0 1 0-4.444h40c1.23 0 2.223.996 2.223 2.222zm0 8.89a2.22 2.22 0 0 1-2.223 2.221h-40a2.222 2.222 0 1 1 0-4.444h40a2.22 2.22 0 0 1 2.223 2.222zm0 8.888a2.22 2.22 0 0 1-2.223 2.222h-40a2.222 2.222 0 1 1 0-4.444h40a2.22 2.22 0 0 1 2.223 2.222zm0 8.889a2.22 2.22 0 0 1-2.223 2.222h-40a2.222 2.222 0 1 1 0-4.444h40A2.22 2.22 0 0 1 66.668 60z" fill="#C1694F"></path></symbol><symbol viewBox="0 0 138 80" xmlns="http://www.w3.org/2000/svg" id="supplier-about"><path d="M73.227 30.033c-.3.325-.704.488-1.211.488-.378 0-.762-.097-1.153-.293a2.466 2.466 0 0 1-.937-.859 2.333 2.333 0 0 1-.371-1.309c0-.599.162-1.054.488-1.367.338-.312.768-.469 1.289-.469.586 0 1.1.196 1.543.586.456.391.723.938.8 1.641 0 .73-.149 1.256-.448 1.582zm-2.325 19.453c.43-.39.899-.97 1.407-1.738l1.113-1.68 1.27.88-1.192 1.737c-.73 1.055-1.504 1.908-2.324 2.559a4.43 4.43 0 0 1-2.793.957c-.625 0-1.172-.156-1.64-.469a3.332 3.332 0 0 1-1.075-1.308 4.26 4.26 0 0 1-.371-1.778c0-.599.078-1.217.234-1.855.156-.638.384-1.367.684-2.188l1.972-5.547c.026-.104.098-.325.215-.664.117-.351.176-.677.176-.976 0-.404-.097-.723-.293-.957-.182-.248-.45-.371-.8-.371-.352 0-.801.273-1.348.82-.534.547-1.354 1.582-2.461 3.105l-1.016-.761c.834-1.12 1.53-1.999 2.09-2.637a8.088 8.088 0 0 1 1.797-1.582 3.768 3.768 0 0 1 2.05-.605c1.902 0 2.852 1.093 2.852 3.28 0 .925-.156 1.876-.468 2.852l-2.051 6.31c-.078.195-.15.462-.215.8a4.962 4.962 0 0 0-.098.977c0 .378.072.71.215.996.156.274.436.41.84.41.39 0 .8-.188 1.23-.566z"></path><path fill-rule="evenodd" clip-rule="evenodd" d="M68.649.144a.5.5 0 0 1 .702 0l21.852 21.58H121a.5.5 0 0 1 .5.5v7.396H137a.498.498 0 0 1 .488.61l-3.975 17.665 3.975 17.666a.501.501 0 0 1-.488.61h-36a.5.5 0 0 1-.5-.5v-.002a.5.5 0 0 1 .316-.465l17.547-6.93H91.207L69.351 79.855a.5.5 0 0 1-.702 0L46.793 58.273H19.637l17.547 6.931a.5.5 0 0 1 .316.465v.001a.5.5 0 0 1-.5.5H1a.5.5 0 0 1-.488-.61l3.975-17.665L.512 30.23A.5.5 0 0 1 1 29.62h15.5v-7.397a.5.5 0 0 1 .5-.5h29.797L68.649.144zM17.5 57.274h103v-34.55h-103v34.55zm-1-26.654H1.625l3.863 17.166a.5.5 0 0 1 0 .22L1.625 65.17h32.751l-17.5-6.913a.5.5 0 0 1-.376-.484V30.62zm105 0h14.875l-3.863 17.166a.508.508 0 0 0 0 .22l3.863 17.164h-32.751l17.501-6.913a.5.5 0 0 0 .375-.484V30.62zM69 1.203l20.78 20.52H48.22L69 1.203zm0 77.594L48.216 58.273h41.568L69 78.797z"></path></symbol><symbol viewBox="0 0 136 80" xmlns="http://www.w3.org/2000/svg" id="supplier-advan"><path fill-rule="evenodd" clip-rule="evenodd" d="M67.5 17v21.5h1V27.187h10.864v4.75a.5.5 0 0 0 .5.5H97a.5.5 0 0 0 .328-.876l-4.84-4.217 4.84-4.217A.5.5 0 0 0 97 22.25H81.074l4.415-4.396a.5.5 0 0 0-.353-.854H67.5zm1 9.188V18h15.426l-4.415 4.396a.5.5 0 0 0-.147.354v3.438H68.5zm11.864 5.25V23.25h15.3L91.4 26.967a.5.5 0 0 0 0 .754l4.266 3.716H80.364z"></path><path fill-rule="evenodd" clip-rule="evenodd" d="M22.606 69.876A49.835 49.835 0 0 1 18.5 50c0-27.614 22.386-50 50-50s50 22.386 50 50a49.83 49.83 0 0 1-4.447 20.643L121.23 79H136v1H0v-1h14.77l7.836-9.124zM19.5 50c0-27.062 21.938-49 49-49s49 21.938 49 49c0 7.05-1.488 13.75-4.167 19.805l-9.53-11.097a4.5 4.5 0 0 0-6.828 0l-4.354 5.07.758.652 4.355-5.07a3.5 3.5 0 0 1 5.31 0L119.912 79h-17.681L71.429 42.762a4.5 4.5 0 0 0-6.858 0L33.77 79H16.09l16.867-19.64a3.5 3.5 0 0 1 5.31 0l4.355 5.07.758-.652-4.354-5.07a4.5 4.5 0 0 0-6.828 0L23.332 69.03A48.844 48.844 0 0 1 19.5 50zm45.833-6.59L35.081 79h65.838L70.667 43.41a3.5 3.5 0 0 0-5.334 0z"></path></symbol><symbol viewBox="0 0 138 37" xmlns="http://www.w3.org/2000/svg" id="supplier-footer-separator"><path fill-rule="evenodd" clip-rule="evenodd" d="M69 .996l17.28 17.492h33.729l8.745-8.851 9.246 9.36-9.246 9.358-8.745-8.85H86.281L69 36.995 51.72 19.504H17.99l-8.744 8.851L0 18.996l9.246-9.36 8.745 8.852h33.728L69 .996zm-16.362 18L69 35.56l16.005-16.202v-.722L69 2.434 52.638 18.996zm-35.566 0l-7.826-7.922-7.826 7.922 7.826 7.922 7.827-7.922zm104.212.361l7.47 7.56 7.826-7.92-7.826-7.923-7.47 7.56v.723zM69 9.637l9.246 9.36L69 28.354l-9.246-9.359L69 9.636zm-7.826 9.36L69 26.916l7.826-7.92L69 11.073l-7.826 7.922z"></path></symbol><symbol viewBox="0 0 136 61" xmlns="http://www.w3.org/2000/svg" id="supplier-instruments"><path fill-rule="evenodd" clip-rule="evenodd" d="M38.22 60.488c0 .274.22.508.497.508H96.29a.498.498 0 0 0 .497-.508V13.724a.497.497 0 0 0-.497-.508h-3.97a.498.498 0 0 0-.496.508v3.558h-2.978v-5.591a.451.451 0 0 0-.04-.193l-1.985-5.083a.476.476 0 0 0-.636-.275.515.515 0 0 0-.278.285l-1.985 5.083a.407.407 0 0 0-.04.183v5.591h-2.978V1.525a.498.498 0 0 0-.496-.509h-7.941a.498.498 0 0 0-.496.509v15.757h-5.956v-8.56l.973-2.968a.555.555 0 0 0 .01-.285l-.993-4.066a.512.512 0 0 0-.486-.387h-3.971a.492.492 0 0 0-.477.387l-.992 4.066a.555.555 0 0 0 0 .285l.973 2.968v8.56h-5.956l.02-.529a7.836 7.836 0 0 1 .833-3.232c.209-.387.417-.753.626-1.098l.07-.112a7.729 7.729 0 0 0 1.429-4.178 7.243 7.243 0 0 0-2.065-5.083A6.949 6.949 0 0 0 51.036.996a6.702 6.702 0 0 0-2.472.529.51.51 0 0 0-.278.66.51.51 0 0 0 .11.173L51.9 5.947l-2.8 2.877-3.544-3.62a.46.46 0 0 0-.347-.152.476.476 0 0 0-.347.153.583.583 0 0 0-.11.162 7.162 7.162 0 0 0-.565 3.101 8.765 8.765 0 0 0 1.578 4.087l.09.152a8.395 8.395 0 0 1 1.28 4.036l.03.54h-3.981v-3.559a.497.497 0 0 0-.496-.508h-3.97a.498.498 0 0 0-.497.508v46.764zm57.574-.508h-2.978V14.232h2.978V59.98zm-3.97 0h-48.64V34.564h48.64V59.98zm-49.633 0h-2.977V14.232h2.977V59.98zm49.633-26.432h-2.978V22.365h2.978v11.183zm-6.949 0V11.792l.635-1.626h1.708l.635 1.626v21.756h-2.978zm-.993 0h-2.978V22.365h2.978v11.183zm-3.97 0h-6.949v-3.05h2.978v-1.017h-2.978v-3.05h2.978v-1.016h-2.978v-3.05h2.978V21.35h-2.978V18.3h2.978v-1.017h-2.978v-3.05h2.978v-1.016h-2.978v-3.05h2.978V9.149h-2.978V6.1h2.978V5.083h-2.978v-3.05h6.949v31.515zm-7.941 0h-3.167l-1.489-3.05h1.181a.498.498 0 0 0 .497-.508v-4.067a.498.498 0 0 0-.496-.508h-2.482v-3.05h5.956v11.183zM60.555 29.48h-1.489v-3.05H68v3.05h-1.489a.497.497 0 0 0-.496.509c0 .081.02.152.05.223l1.627 3.335h-8.318l1.638-3.325a.552.552 0 0 0-.03-.498.514.514 0 0 0-.427-.244zm-2.293 4.067h-3.166V22.365h5.956v3.05H58.57a.498.498 0 0 0-.496.508v4.067c0 .284.218.508.496.508h1.181l-1.489 3.05zm-4.159 0h-2.541V16.265h-.993v17.283h-2.422v-16.5a9.229 9.229 0 0 0-1.43-4.849l-.088-.142a8.134 8.134 0 0 1-1.45-3.599c-.02-.336 0-.681.04-1.006l.12-1.027L48.047 9.2a1.47 1.47 0 0 0 1.052.447 1.47 1.47 0 0 0 1.052-.447l2.105-2.155a1.56 1.56 0 0 0 0-2.155l-2.67-2.735 1.052-.102h.017c.133-.01.26-.02.47-.02 3.235 0 5.905 2.694 5.945 6.008v.122a6.77 6.77 0 0 1-1.33 3.7c-.218.367-.447.753-.665 1.17a8.924 8.924 0 0 0-.973 4.107v16.408zm-6.948 0h-3.971V22.365h3.97v11.183zm14.86-25.07l-.944-2.907.864-3.538h3.196l.864 3.538-.943 2.907a.47.47 0 0 0-.03.163v16.774h-2.978V8.64a.47.47 0 0 0-.03-.163zm29.809 12.87h-2.978v-3.05h2.978v3.05zm-7.942 0h-2.978v-3.05h2.978v3.05zm-11.911 0h-5.956v-3.05h5.956v3.05zm-10.92-3.05v3.05h-5.955v-3.05h5.956zm-13.896 3.05h-3.971v-3.05h3.97v3.05zM20.79 22.1a.5.5 0 0 0-.437-.256h-7.941a.5.5 0 0 0-.437.743l7.805 13.99-7.805 13.988a.5.5 0 0 0 .437.744h7.94a.5.5 0 0 0 .438-.257l7.94-14.232a.5.5 0 0 0 0-.487L20.79 22.1zm-.143 13.976l-7.384-13.232h6.796l7.383 13.232h-6.796zm6.796 1h-6.797L13.264 50.31h6.796l7.383-13.233z"></path><path fill-rule="evenodd" clip-rule="evenodd" d="M8.878 22.1a.5.5 0 0 0-.437-.256H.5a.5.5 0 0 0-.437.743l7.806 13.99L.063 50.564a.5.5 0 0 0 .437.744h7.941a.5.5 0 0 0 .437-.257l7.94-14.232a.5.5 0 0 0 0-.487L8.879 22.1zm-.143 13.976L1.352 22.844h6.796l7.383 13.232H8.735zm6.796 1H8.735L1.352 50.31h6.796l7.383-13.233zm99.68-14.976a.499.499 0 0 1 .436-.256h7.941a.5.5 0 0 1 .437.743l-7.805 13.99 7.805 13.988a.5.5 0 0 1-.437.744h-7.941a.499.499 0 0 1-.436-.257L107.27 36.82a.497.497 0 0 1 0-.487l7.941-14.233zm.143 13.976l7.383-13.232h-6.796l-7.383 13.232h6.796zm-6.796 1h6.796l7.383 13.233h-6.796l-7.383-13.233z"></path><path fill-rule="evenodd" clip-rule="evenodd" d="M127.122 22.1a.502.502 0 0 1 .437-.256h7.941a.498.498 0 0 1 .437.743l-7.805 13.99 7.805 13.988a.5.5 0 0 1-.437.744h-7.941a.502.502 0 0 1-.437-.257l-7.941-14.232a.502.502 0 0 1 0-.487l7.941-14.233zm.143 13.976l7.384-13.232h-6.796l-7.384 13.232h6.796zm-6.796 1h6.796l7.384 13.233h-6.796l-7.384-13.233z"></path></symbol><symbol viewBox="0 0 138 81" xmlns="http://www.w3.org/2000/svg" id="supplier-offices"><path fill-rule="evenodd" clip-rule="evenodd" d="M138 80.996H0v-.986h138v.986z"></path><path fill-rule="evenodd" clip-rule="evenodd" d="M51.5 8.035h32v72.467h-1V9.022h-30V37.12h-1V8.035z"></path><path fill-rule="evenodd" clip-rule="evenodd" d="M31.5 31.555l32 8.142v41.298h-32v-49.44zm1 1.272V80.01h30V40.461l-30-7.634zM75 16.909H52v-.986h23v.986zm0 7.887H52v-.985h23v.985zm0 7.888H52v-.986h23v.986z"></path><path fill-rule="evenodd" clip-rule="evenodd" d="M75 40.572H63v-.986h12v.986zm-20 31.55H32v-.986h23v.986zm0-7.888H32v-.986h23v.986zm0-7.887H32v-.986h23v.986zm0-7.887H32v-.987h23v.986zm20 0H63v-.987h12v.986zm0 7.887H63v-.986h12v.986zm0 7.887H63v-.986h12v.986zm0 7.888H63v-.986h12v.986zM75.5.996v8.025h-16V4.922l16-3.926zm-15 4.697v2.342h14V2.258l-14 3.435zm22 32.907h30.05l-4.095 42.396H82.5V38.601zm1 .986V80.01h24.045l3.905-40.424H83.5z"></path><path fill-rule="evenodd" clip-rule="evenodd" d="M111 52.404H83v-.986h28v.986zm-2 15.775H83v-.986h26v.986zM82.5 32.685h32v6.901h-32v-6.901zm1 .986v4.93h30v-4.93h-30z"></path><path fill-rule="evenodd" clip-rule="evenodd" d="M82.5 26.77h22.768l4.666 6.9H82.5v-6.9zm1 .985v4.93h24.566l-3.334-4.93H83.5z"></path><path fill-rule="evenodd" clip-rule="evenodd" d="M102.23 13.808l3.426 1.35-5.195 12.294-.923-.38 4.805-11.37-1.574-.62-5.309 12.372-.92-.384 5.69-13.262zm18.27-1.046l6.207 6.12-6.207 6.12-6.207-6.12 6.207-6.12zm-4.793 6.12l4.793 4.725 4.793-4.725-4.793-4.726-4.793 4.726zM7.5 32.48l6.207 6.12L7.5 44.72 1.293 38.6 7.5 32.48zM2.707 38.6L7.5 43.327l4.793-4.725L7.5 33.875l-4.793 4.726z"></path><path fill-rule="evenodd" clip-rule="evenodd" d="M131.5 12.762l6.207 6.12-6.207 6.12-6.207-6.12 6.207-6.12zm-4.793 6.12l4.793 4.725 4.793-4.725-4.793-4.726-4.793 4.726zM18.5 32.48l6.207 6.12-6.207 6.12-6.207-6.12 6.207-6.12zm-4.793 6.12l4.793 4.726 4.793-4.725-4.793-4.726-4.793 4.726zM37.5 8.818l6.207 6.12-6.207 6.12-6.207-6.12 6.207-6.12zm-4.793 6.12l4.793 4.725 4.793-4.725-4.793-4.726-4.793 4.726z"></path><path fill-rule="evenodd" clip-rule="evenodd" d="M26.5 8.818l6.207 6.12-6.207 6.12-6.207-6.12 6.207-6.12zm-4.793 6.12l4.793 4.725 4.793-4.725-4.793-4.726-4.793 4.726z"></path></symbol><symbol viewBox="0 0 136 80" xmlns="http://www.w3.org/2000/svg" id="supplier-portfolio"><path fill-rule="evenodd" clip-rule="evenodd" d="M72.162 6.312l7.25 2.032-4.678 5.933.32 7.568L68 19.2l-7.053 2.645.32-7.568-4.68-5.933 7.252-2.032L68 0l4.162 6.312zm5.537 2.59l-3.98 5.047.272 6.43L68 18.131l-5.99 2.246.271-6.43-3.98-5.046 6.167-1.728L68 1.817l3.532 5.357L77.7 8.902zM60.75 44.25a4.5 4.5 0 0 1 4.5-4.5h5.5a4.5 4.5 0 0 1 4.5 4.5v.116H88a4.5 4.5 0 0 1 4.5 4.5v26.629a4.5 4.5 0 0 1-4.5 4.5H48a4.5 4.5 0 0 1-4.5-4.5V48.866a4.5 4.5 0 0 1 4.5-4.5h12.75v-.116zm1 .116h12.5v-.116a3.5 3.5 0 0 0-3.5-3.5h-5.5a3.5 3.5 0 0 0-3.5 3.5v.116zM44.5 59.855v15.64a3.5 3.5 0 0 0 3.5 3.5h40a3.5 3.5 0 0 0 3.5-3.5v-15.64a4.491 4.491 0 0 1-3.5 1.671H72.23a4.25 4.25 0 0 1-8.462 0H48a4.491 4.491 0 0 1-3.5-1.671zm26.75 1.27a3.25 3.25 0 0 1-6.501 0v-.195a3.25 3.25 0 1 1 6.5 0v.195zm20.25-4.099v-8.16a3.5 3.5 0 0 0-3.5-3.5H48a3.5 3.5 0 0 0-3.5 3.5v8.16a3.5 3.5 0 0 0 3.5 3.5h15.768a4.25 4.25 0 0 1 8.462 0H88a3.5 3.5 0 0 0 3.5-3.5z"></path><path d="M0 51.82h40v-1H0v1zm96 0h40v-1H96v1zM8 57.858h32v-1H8v1zm88 0h32v-1H96v1zm-80 6.037h24v-1H16v1zm80 0h24v-1H96v1zm-56 6.039v-1H24v1h16zm56-1v1h16v-1H96zm-64 7.038h8v-1h-8v1zm64 0h8v-1h-8v1z"></path><path fill-rule="evenodd" clip-rule="evenodd" d="M36.161 20.401L32 14.09l-4.162 6.31-7.25 2.033 4.678 5.933-.32 7.568L32 33.29l7.053 2.645-.32-7.568 4.68-5.933L36.16 20.4zm5.538 2.591l-6.167-1.728L32 15.907l-3.532 5.357-6.167 1.728 3.98 5.047-.271 6.43L32 32.221l5.99 2.246-.271-6.43 3.98-5.046zm66.463-2.591l7.251 2.033-4.68 5.933.32 7.568L104 33.29l-7.053 2.645.32-7.568-4.68-5.933 7.251-2.033L104 14.09l4.162 6.311zm5.537 2.591l-3.98 5.047.272 6.43L104 32.221l-5.99 2.246.271-6.43-3.98-5.046 6.167-1.728L104 15.907l3.532 5.357 6.167 1.728z"></path></symbol><symbol viewBox="0 0 138 81" xmlns="http://www.w3.org/2000/svg" id="supplier-production"><path fill-rule="evenodd" clip-rule="evenodd" d="M68.597 43.859V32.79a.465.465 0 0 1 .376-.459.45.45 0 0 1 .329.07l5.138 3.5V13.398a.46.46 0 0 1 .049-.212.45.45 0 0 1 .403-.254h5.843c.118 0 .235.047.32.133a.47.47 0 0 1 .133.333v27.1l4.694 3.196.096-1.799c.097-1.808.146-3.62.146-5.436v-6.186h-1.007a.445.445 0 0 1-.319-.134.47.47 0 0 1-.134-.33V23.84a.463.463 0 0 1 .453-.467h20.449a.44.44 0 0 1 .318.136.47.47 0 0 1 .134.33v5.968a.476.476 0 0 1-.134.33.446.446 0 0 1-.318.135h-1.008v6.186a103.47 103.47 0 0 0 4.614 30.58l4.128 13.35a.48.48 0 0 1-.067.417.46.46 0 0 1-.364.19H28.153a.443.443 0 0 1-.319-.136.471.471 0 0 1-.133-.33V62.628a.484.484 0 0 1 .133-.333.449.449 0 0 1 .32-.134h5.39v-29.37a.468.468 0 0 1 .24-.41.438.438 0 0 1 .462.021l5.139 3.5V13.398a.48.48 0 0 1 .134-.333.454.454 0 0 1 .32-.134h5.842c.12 0 .234.048.32.134a.48.48 0 0 1 .134.333v27.1l4.934 3.36V32.792a.47.47 0 0 1 .242-.41.434.434 0 0 1 .36-.03c.036.013.071.03.103.051l5.138 3.5V13.398a.493.493 0 0 1 .134-.333.45.45 0 0 1 .319-.134h5.843c.12 0 .234.048.319.134a.505.505 0 0 1 .098.145.5.5 0 0 1 .035.188v27.1l4.937 3.36zM34.449 80.065h7.858v-8.02h-7.858v8.02zm14.606 0h7.857v-8.02h-7.857v8.02zm14.605 0h7.858v-8.02H63.66v8.02zm14.774 0h33.815l-3.941-12.743-.074-.25-.085-.279-.222-.715H82.748l-.218.721-.075.25-.08.27-3.941 12.746zm26.677-55.76H85.569v5.036h19.542v-5.036zM86.124 50.227h18.434l-.141-1.152c-.51-4.185-.766-8.4-.766-12.616v-6.186h-16.62v6.186a104.792 104.792 0 0 1-.767 12.616l-.14 1.152zm18.56.931H85.998l-.132.872c-.6 3.984-1.43 7.93-2.486 11.817l-.355 1.298h24.63l-.352-1.298a103.636 103.636 0 0 1-2.489-11.817l-.13-.872zM80.281 13.863h-4.934v5.036h4.934v-5.036zm0 5.967h-4.934v5.036h4.934V19.83zm0 5.968h-4.934v10.72l4.934 3.362V25.798zm4.79 18.461l-15.567-10.6v10.6H85.07zM62.755 13.863H57.82v5.036h4.936v-5.036zm0 5.967H57.82v5.036h4.936V19.83zm0 5.968H57.82v10.72l4.936 3.362V25.798zm4.79 18.461l-15.569-10.6v10.6h15.568zM45.227 13.863h-4.936v5.036h4.936v-5.036zm0 5.967h-4.936v5.036h4.936V19.83zm0 5.968h-4.936v10.72l4.936 3.362V25.798zm4.789 18.461l-15.568-10.6v10.6h15.568zm35.745.934H34.45v16.969h43.365c.12 0 .234.048.319.134a.47.47 0 0 1 .133.333l-.2 15.803 2.17-7.272 1.273-4.12a102.946 102.946 0 0 0 4.145-20.723l.108-1.124zm-8.4 17.9H28.607v16.972h4.936v-8.486c0-.124.047-.244.134-.33a.44.44 0 0 1 .318-.137h8.763c.12 0 .234.048.32.137a.475.475 0 0 1 .135.33v8.486h4.936v-8.486c0-.124.047-.244.133-.33a.44.44 0 0 1 .32-.137h8.762c.12 0 .234.048.32.137a.474.474 0 0 1 .134.33v8.486h4.936v-8.486c0-.124.048-.244.134-.33a.44.44 0 0 1 .319-.137h8.763a.447.447 0 0 1 .417.283.49.49 0 0 1 .037.184v8.486h4.936V63.094zm-34.148-6.899h4.936v-2.518c0-.667-.26-1.306-.722-1.779a2.446 2.446 0 0 0-1.747-.739 2.44 2.44 0 0 0-1.745.74 2.544 2.544 0 0 0-.722 1.778v2.518zm14.605 0h4.936v-2.518c0-.667-.26-1.306-.722-1.779a2.445 2.445 0 0 0-1.747-.739 2.44 2.44 0 0 0-1.745.74 2.544 2.544 0 0 0-.722 1.778v2.518zm14.606 0h4.936v-2.518c0-.667-.26-1.306-.722-1.779a2.445 2.445 0 0 0-1.747-.739c-.655 0-1.282.267-1.745.74a2.544 2.544 0 0 0-.722 1.778v2.518zM41.155 6.088a3.894 3.894 0 0 0-2.775-1.176 4.797 4.797 0 0 1-3.418-1.448A4.974 4.974 0 0 1 33.65.996h.93a4.046 4.046 0 0 0 1.02 1.807 3.89 3.89 0 0 0 2.778 1.176 4.792 4.792 0 0 1 3.415 1.448 4.994 4.994 0 0 1 1.314 2.468h-.932a4.028 4.028 0 0 0-1.02-1.807zm17.528 0a3.898 3.898 0 0 0-2.776-1.176 4.773 4.773 0 0 1-3.417-1.448A4.974 4.974 0 0 1 51.177.996h.931a4.046 4.046 0 0 0 1.02 1.807 3.902 3.902 0 0 0 2.775 1.176c.604 0 1.196.116 1.747.334.62.247 1.19.623 1.67 1.114a4.974 4.974 0 0 1 1.313 2.468h-.93a4.045 4.045 0 0 0-1.02-1.807zm17.527 0a3.899 3.899 0 0 0-2.777-1.176 4.792 4.792 0 0 1-3.416-1.448A4.994 4.994 0 0 1 68.703.996h.932a4.028 4.028 0 0 0 1.02 1.807 3.886 3.886 0 0 0 2.775 1.176 4.801 4.801 0 0 1 3.418 1.448 4.974 4.974 0 0 1 1.312 2.468h-.93a4.047 4.047 0 0 0-1.02-1.807zm-32.912 45.15a3.339 3.339 0 0 1 2.383-1.011 3.347 3.347 0 0 1 2.384 1.012 3.48 3.48 0 0 1 .99 2.44v2.982a.47.47 0 0 1-.134.33.446.446 0 0 1-.319.135H42.76a.449.449 0 0 1-.319-.134.478.478 0 0 1-.133-.33v-2.984a3.49 3.49 0 0 1 .991-2.44zm15.509-.659c.456-.228.962-.35 1.48-.352.893.002 1.75.364 2.384 1.012.348.354.612.777.779 1.238.138.38.21.787.21 1.201v2.983a.48.48 0 0 1-.07.253l-.063.078a.445.445 0 0 1-.319.134h-5.843a.45.45 0 0 1-.319-.134.478.478 0 0 1-.134-.33v-2.984a3.491 3.491 0 0 1 .992-2.44c.266-.272.57-.494.903-.659zm19.46 3.097v2.985a.47.47 0 0 1-.134.33.446.446 0 0 1-.32.135h-5.842a.45.45 0 0 1-.319-.134.478.478 0 0 1-.134-.33v-2.986c0-.915.356-1.793.99-2.44a3.337 3.337 0 0 1 2.384-1.01 3.322 3.322 0 0 1 2.385 1.01c.633.648.99 1.525.99 2.44zM6.044 36.894h23.168v1.025H7.032c-.245 3.273-2.81 5.886-6.025 6.135v29.782c3.215.249 5.78 2.861 6.025 6.135h16.136v1.025H6.044v-.513c0-3.115-2.48-5.64-5.54-5.64H0V43.046h.504c3.06 0 5.54-2.525 5.54-5.64v-.513zm102.744 0h23.168v.512c0 3.116 2.481 5.641 5.54 5.641H138v31.795h-.504c-3.059 0-5.54 2.526-5.54 5.641v.513H117.35v-1.025h13.618c.245-3.274 2.81-5.886 6.025-6.135V44.054c-3.215-.25-5.78-2.862-6.025-6.135h-22.18v-1.025zm-98.104 6.153h18.528v1.026H11.26a12.77 12.77 0 0 1-4.21 4.286V69.53a12.771 12.771 0 0 1 4.21 4.287h11.907v1.025H10.684l-.146-.256a11.753 11.753 0 0 0-4.243-4.32l-.251-.148V47.772l.251-.148a11.752 11.752 0 0 0 4.243-4.32l.146-.257zm116.055 1.026h-16.44v-1.026h17.017l.146.256a11.747 11.747 0 0 0 4.243 4.32l.251.149v22.346l-.251.148a11.748 11.748 0 0 0-4.243 4.32l-.146.256h-11.477v-1.025h10.9a12.77 12.77 0 0 1 4.21-4.287V48.36a12.768 12.768 0 0 1-4.21-4.287z"></path></symbol><symbol viewBox="0 0 268 32" xmlns="http://www.w3.org/2000/svg" id="supplier-separator"><path d="M0 25h108v1H0v-1zm160 0h108v1H160v-1z"></path><path fill-rule="evenodd" clip-rule="evenodd" d="M128.343 26l6-6 6 6-6 6-6-6zm6 4.586L138.929 26l-4.586-4.586L129.757 26l4.586 4.586z"></path></symbol><symbol viewBox="0 0 138 81" xmlns="http://www.w3.org/2000/svg" id="supplier-shops"><path fill-rule="evenodd" clip-rule="evenodd" d="M136.446 4.468C114.668-.447 91.84 1.974 71.615 11.355l-4.803 2.227a101.768 101.768 0 0 1-11.686 4.567l-.311-.939a100.737 100.737 0 0 0 11.57-4.522l4.803-2.227c20.61-9.56 43.898-11.963 66.071-6.821l.583.135-8.169 18.617L138 41.369l-.97-.225a101.272 101.272 0 0 0-20.441-2.588l.024-.987c6.587.158 13.178.953 19.678 2.394l-7.709-17.571 7.864-17.924zm-55.754-.75a100.72 100.72 0 0 0-9.077 3.685L66.812 9.63C46.202 19.19 22.915 21.594.741 16.452l.23-.961c21.953 5.09 45.008 2.71 65.415-6.754l4.802-2.227a101.737 101.737 0 0 1 9.169-3.722l.335.93zM0 19.218l.97.224a101.31 101.31 0 0 0 32.407 2.168l.095.984A102.33 102.33 0 0 1 1.71 20.623l7.71 17.571L1.553 56.12a101.291 101.291 0 0 0 26.339 2.403l.04.987A102.326 102.326 0 0 1 .74 56.948l-.583-.136 8.169-18.617L0 19.217zm37.433 3.013c0-1.364 1.122-2.47 2.505-2.47h64.136c1.384 0 2.506 1.106 2.506 2.47v4.938c0 1.364-1.122 2.47-2.506 2.47H91.548V32.6h18.539c1.384 0 2.505 1.105 2.505 2.47v44.937h18.54v.988H12.881v-.988h18.54V35.07c0-1.364 1.121-2.469 2.505-2.469h18.539v-2.963H39.938c-1.383 0-2.505-1.105-2.505-2.47v-4.937zm66.641 6.42c.831 0 1.504-.664 1.504-1.482V22.23c0-.819-.673-1.482-1.504-1.482H39.938c-.83 0-1.503.664-1.503 1.482v4.938c0 .818.673 1.481 1.503 1.481h64.136zm-17.537.987H57.476v2.963h29.061v-2.963zm1.002 2.963h3.007v-2.963h-3.007v2.963zm-53.613.988c-.83 0-1.504.663-1.504 1.481v28.148h3.007V41.984c0-.818.673-1.482 1.503-1.482h14.03c.83 0 1.503.664 1.503 1.482v21.234h7.015V41.984c0-.818.673-1.482 1.503-1.482H83.03c.83 0 1.503.664 1.503 1.482v21.234h7.015V41.984c0-.818.673-1.482 1.503-1.482h14.03c.83 0 1.503.664 1.503 1.482v21.234h3.006V35.07c0-.818-.673-1.481-1.503-1.481H33.926zm77.664 30.617h-3.006v7.407c0 .819-.673 1.482-1.503 1.482h-14.03c-.83 0-1.503-.663-1.503-1.482v-7.407h-7.015v15.309c0 .173-.03.339-.086.493h27.143V64.206zm-52.11 0h-7.015v7.407c0 .819-.673 1.482-1.503 1.482h-14.03c-.83 0-1.503-.663-1.503-1.482v-7.407h-3.007v15.802h27.143a1.46 1.46 0 0 1-.085-.493V64.206zm-3.006-31.605v-2.963h-3.007v2.963h3.007zM36.931 41.49a.497.497 0 0 0-.501.494v29.63c0 .272.224.493.501.493h14.03a.497.497 0 0 0 .5-.494v-29.63a.497.497 0 0 0-.5-.493h-14.03zm24.051 0a.498.498 0 0 0-.501.494v37.53c0 .273.224.494.501.494h10.522V41.49H60.983zm11.524 0v38.518H83.03a.497.497 0 0 0 .5-.493V41.984a.497.497 0 0 0-.5-.494H72.507zm20.544 0a.498.498 0 0 0-.501.494v29.63c0 .272.224.493.501.493h14.03a.498.498 0 0 0 .501-.494v-29.63a.498.498 0 0 0-.501-.493H93.05zm43.979 3.604a101.258 101.258 0 0 0-20.441-2.588l.024-.987a102.274 102.274 0 0 1 20.646 2.614l-.229.961zm-68.53 22.569v-7.901H69.5v7.9h-1zm6.013 0v-7.901h1.002v7.9h-1.002zm-46.579-4.204A102.326 102.326 0 0 1 .741 60.897l.23-.962a101.292 101.292 0 0 0 26.922 2.537l.04.987z"></path></symbol><symbol viewBox="0 0 110 81" xmlns="http://www.w3.org/2000/svg" id="supplier-staff"><path d="M96.981 39.14a.747.747 0 0 1-.34-.081c-3.3-1.644-10.092-1.664-10.16-1.664a.763.763 0 0 1-.763-.76c0-.42.342-.762.763-.762 2.484 0 7.947.38 10.843 1.825a.762.762 0 0 1-.343 1.441z"></path><path d="M109.234 80.996a.764.764 0 0 1-.764-.761V66.743a4.493 4.493 0 0 0-3.254-4.3l-6.761-1.924a2.903 2.903 0 0 1-.54-.215l-.565-.287-4.854 4.836v15.38a.763.763 0 0 1-1.527 0v-15.38l-4.876-4.858-.561.274c-.491.24-1.004.387-1.38.494l-1.798.51 1.006 1.043a7.705 7.705 0 0 1 2.179 5.364v12.553a.763.763 0 0 1-1.528 0V67.68c0-2.603-1.65-4.95-4.105-5.84l-11.262-4.083-4.802 7.175a2.505 2.505 0 0 1-2.095 1.115c-.67 0-1.298-.26-1.774-.735l-4.188-4.173v19.09a.763.763 0 0 1-1.528 0v-19.09l-4.186 4.173a2.494 2.494 0 0 1-2.028.72 2.505 2.505 0 0 1-1.842-1.102L41.4 57.753l-11.262 4.082a6.234 6.234 0 0 0-4.105 5.841v12.552a.763.763 0 0 1-1.528 0V67.676c0-1.442.41-2.857 1.183-4.093l.509-.81-3.191-1.59-2.346 2.226a6.005 6.005 0 0 1-4.143 1.651 5.995 5.995 0 0 1-4.142-1.65l-2.346-2.223-6.018 2.999a4.438 4.438 0 0 0-2.483 3.997v12.05a.763.763 0 0 1-1.528 0v-12.05a5.962 5.962 0 0 1 3.324-5.36l6.065-3.021-1.713-.744c-4.437-1.922-5.83-4.617-5.845-4.643a.762.762 0 0 1 0-.68c1.266-2.523 1.412-6.938 1.53-10.487a86.29 86.29 0 0 1 .142-3.18c.526-7.363 6.12-12.915 13.012-12.915 6.895 0 12.488 5.552 13.014 12.916a86.1 86.1 0 0 1 .142 3.179c.118 3.55.264 7.964 1.53 10.486a.762.762 0 0 1 0 .681c-.013.026-1.41 2.727-5.838 4.647l-1.713.744 3.72 1.853.428-.3a7.744 7.744 0 0 1 1.819-.95l10.694-3.874-.05-.659a.755.755 0 0 1 .207-.582l3.289-3.445v-6.235l-.308-.26c-4.253-3.6-6.694-8.902-6.694-14.55v-3.873l-.08-.174a17.941 17.941 0 0 1-1.67-7.565v-3.484C35.005 7.596 41.63.996 49.77.996h24.502c.422 0 .764.342.764.761v17.439c0 2.616-.563 5.163-1.67 7.566l-.08.174v4.469c0 5.012-2.106 9.853-5.777 13.28-.262.246-.55.496-.906.788l-.318.26v6.118l3.289 3.445a.755.755 0 0 1 .207.583l-.05.659 10.43 3.78 3.57-1.017c1.236-.352 1.984-.643 1.984-1.735v-2.8l-.362-.262a11.833 11.833 0 0 1-4.889-9.584v-2.868l-.93-1.855a7.743 7.743 0 0 1-.818-3.46v-.098c0-5.228 4.27-9.482 9.516-9.482h15.751c.421 0 .764.342.764.762v8.405a9.506 9.506 0 0 1-1.004 4.24l-.747 1.486v3.307c0 3.062-1.215 5.924-3.42 8.055-.44.427-.93.827-1.453 1.188l-.376.259v2.703c0 .69.465 1.302 1.129 1.492l6.761 1.924A6.02 6.02 0 0 1 110 66.741v13.492a.767.767 0 0 1-.766.763zM56.21 59.416l4.841 4.824a.99.99 0 0 0 .692.29h.054l.072-.01-.024.003a.988.988 0 0 0 .727-.437l5.474-8.181-2.632-2.756-9.204 6.268zm-14.217-3.514l5.478 8.188a.98.98 0 0 0 .723.433l.043.004h.06a.98.98 0 0 0 .7-.293l4.834-4.817-9.203-6.27-2.635 2.755zM12.03 58.64c0 .414-.103.822-.295 1.183l-.312.585 2.004 1.899a4.477 4.477 0 0 0 3.09 1.23 4.477 4.477 0 0 0 3.09-1.23l2.004-1.896-.312-.585a2.527 2.527 0 0 1-.295-1.184v-2.918l-1.132.35a11.33 11.33 0 0 1-6.707 0l-1.133-.352v2.918h-.002zm75.215-1.078c0 .276-.026.537-.08.78l-.103.466 4.67 4.654 4.7-4.683-.12-.478a3.01 3.01 0 0 1-.092-.74v-1.837l-1.133.35a11.33 11.33 0 0 1-3.35.505 10.6 10.6 0 0 1-3.346-.533l-1.146-.374v1.89zm-60.328-7.89a11.17 11.17 0 0 1-4.01 4.932l-.377.259v3.64l1.17-.42c3.263-1.17 4.93-2.779 5.633-3.631l.32-.392-.18-.471c-.387-1.005-.675-2.216-.882-3.706l-.443-3.169-1.231 2.958zm-22.473.204c-.208 1.492-.498 2.708-.884 3.715l-.182.472.321.389c.699.85 2.36 2.455 5.633 3.63l1.168.42v-3.65l-.375-.259a11.262 11.262 0 0 1-4.012-4.93l-1.23-2.94-.44 3.153zm40.838 1.877l9.739 6.633 9.736-6.633v-4.878l-1.28.67a18.025 18.025 0 0 1-8.441 2.062 18.6 18.6 0 0 1-1.23-.04 17.513 17.513 0 0 1-7.236-2.08l-1.288-.694v4.96zM6.015 44.594c.421 0 .764.341.764.761 0 5.35 4.367 9.704 9.736 9.704 4.834 0 8.878-3.447 9.618-8.199l.04-.257-.107-.236c-2.86-6.274-10.158-7.105-12.325-7.212l-.395-.02-2.732 2.823a.766.766 0 0 1-1.314-.515.747.747 0 0 1 .213-.542l2.953-3.05a.768.768 0 0 1 .529-.233c.01 0 .06-.002.144-.002.668 0 3.055.067 5.79.943 3.367 1.079 5.93 2.94 7.619 5.533l1.711 2.627-.116-3.421a83.337 83.337 0 0 0-.14-3.12c-.222-3.137-1.486-6.029-3.555-8.15a11 11 0 0 0-7.935-3.35 11 11 0 0 0-7.936 3.35c-2.069 2.121-3.33 5.016-3.553 8.15-.068.943-.102 2.05-.137 3.122l-.05 1.483 1.054-.176a.713.713 0 0 1 .124-.013zm82.217-15.916c-4.404 0-7.988 3.57-7.988 7.959v.098c0 .959.227 1.92.659 2.779l1.01 2.016a.753.753 0 0 1 .081.34v3.048c0 5.435 4.234 9.982 9.437 10.136.103.002.206.005.308.005 2.54 0 4.946-.972 6.772-2.74a9.607 9.607 0 0 0 2.958-6.964v-3.488a.78.78 0 0 1 .08-.341l.828-1.647c.552-1.1.842-2.33.842-3.56v-7.644H88.232v.003zM49.77 2.518c-7.299 0-13.237 5.918-13.237 13.19v3.488c0 2.507.563 4.94 1.674 7.233a.76.76 0 0 1 .076.33v4.048c0 9.1 6.862 16.675 15.623 17.238.373.024.752.037 1.126.037 3.68 0 7.165-1.163 10.076-3.366l.033-.024c.456-.346.901-.722 1.325-1.118 3.413-3.188 5.294-7.511 5.294-12.171V26.76c0-.114.027-.229.077-.331a16.459 16.459 0 0 0 1.674-7.233V2.518H49.77z"></path><path d="M102.233 80.994a.763.763 0 0 1-.764-.761V69.77a.763.763 0 0 1 1.527 0v10.463c0 .42-.342.76-.763.76zm-94.468 0a.763.763 0 0 1-.764-.761v-8.308a.763.763 0 0 1 1.528 0v8.308c0 .42-.343.76-.764.76zm35.003-57.549a.763.763 0 0 1-.764-.761v-3.758c0-1.248.895-2.29 2.128-2.475 1.938-.291 4.944-.637 8.261-.637 4.932 0 11.611.796 15.417 4.588a.753.753 0 0 1 .223.538.759.759 0 0 1-.764.761.76.76 0 0 1-.541-.224c-2.342-2.334-6.227-3.695-11.548-4.047a42.788 42.788 0 0 0-2.791-.09c-3.252 0-6.162.335-8.03.616a.985.985 0 0 0-.83.97v3.758a.76.76 0 0 1-.76.76zm-7.001 57.55a.763.763 0 0 1-.764-.762v-6.976a.763.763 0 0 1 1.528 0v6.976c0 .42-.343.761-.764.761zm38.506 0a.763.763 0 0 1-.764-.762v-6.976a.763.763 0 0 1 1.528 0v6.976c0 .42-.343.761-.764.761z"></path></symbol></svg>

<svg><use xlink:href="#arrow-moder-stats1"></use></svg><svg><use xlink:href="#arrow-moder-stats2"></use></svg><svg><use xlink:href="#arrow-moder-stats3"></use></svg><svg><use xlink:href="#emoji-coupon-buy-error"></use></svg><svg><use xlink:href="#emoji-coupon-buy-ok-2"></use></svg><svg><use xlink:href="#emoji-coupon-buy-ok"></use></svg><svg><use xlink:href="#emoji-faq"></use></svg><svg><use xlink:href="#emoji-microscope"></use></svg><svg><use xlink:href="#emoji-new-quest"></use></svg><svg><use xlink:href="#emoji-no-favorites"></use></svg><svg><use xlink:href="#emoji-opinion-error"></use></svg><svg><use xlink:href="#emoji-poop"></use></svg><svg><use xlink:href="#emoji-search-1"></use></svg><svg><use xlink:href="#emoji-search-2"></use></svg><svg><use xlink:href="#emoji-search-3"></use></svg><svg><use xlink:href="#emoji-search-4"></use></svg><svg><use xlink:href="#emoji-sloth"></use></svg><svg><use xlink:href="#emoji-ufo"></use></svg><svg><use xlink:href="#like"></use></svg><svg><use xlink:href="#notification"></use></svg><svg><use xlink:href="#sheet"></use></svg><svg><use xlink:href="#supplier-about"></use></svg><svg><use xlink:href="#supplier-advan"></use></svg><svg><use xlink:href="#supplier-footer-separator"></use></svg><svg><use xlink:href="#supplier-instruments"></use></svg><svg><use xlink:href="#supplier-offices"></use></svg><svg><use xlink:href="#supplier-portfolio"></use></svg><svg><use xlink:href="#supplier-production"></use></svg><svg><use xlink:href="#supplier-separator"></use></svg><svg><use xlink:href="#supplier-shops"></use></svg><svg><use xlink:href="#supplier-staff"></use></svg>
