<svg width="1610" height="1467" fill="none" xmlns="http://www.w3.org/2000/svg"><g opacity=".4" filter="url(#a)"><path fill-rule="evenodd" clip-rule="evenodd" d="M481.235 583.84c103.84-3.485 219.891.375 284.839 81.536 65.045 81.284 43.511 195.56 17.613 296.422-24.751 96.392-65.427 194.112-154.783 237.792-89.845 43.93-194.077 20.21-284.179-23.19-90.142-43.41-170.854-110.82-195.537-207.842-25.365-99.704 2.994-206.977 70.194-284.837 64.241-74.432 163.633-96.585 261.853-99.881Z" fill="#B3FFFA"/></g><g opacity=".5" filter="url(#b)"><path fill-rule="evenodd" clip-rule="evenodd" d="M641.201 200c132.616.018 265.102 44.517 347.951 148.047 82.998 103.713 100.288 243.489 68.598 372.477-31.01 126.206-115.805 229.908-231.278 289.586-120.05 62.04-263.607 89.34-384.287 28.53-118.645-59.78-170.859-192.529-198.88-322.373-27.496-127.411-29.748-265.066 49.827-368.313C374.092 242.908 508.559 199.982 641.201 200Z" fill="#4B40D4"/></g><g opacity=".4" filter="url(#c)"><path fill-rule="evenodd" clip-rule="evenodd" d="M947.132 413.02c125.398-1.108 249.178 44.237 328.358 141.245 80.13 98.167 112.25 232.04 75.17 353.113-34.48 112.582-146.15 170.012-251.58 222.882-108.812 54.57-230.602 128.15-339.369 73.49-107.751-54.15-114.586-196.06-139.068-313.914-23.532-113.281-60.071-234.308 5.34-329.835 69.893-102.075 197.241-145.887 321.149-146.981Z" fill="#8C0073"/></g><defs><filter id="a" x="0" y="443" width="949" height="920" filterUnits="userSpaceOnUse" color-interpolation-filters="sRGB"><feFlood flood-opacity="0" result="BackgroundImageFix"/><feBlend in="SourceGraphic" in2="BackgroundImageFix" result="shape"/><feGaussianBlur stdDeviation="70" result="effect1_foregroundBlur_152_12"/></filter><filter id="b" x="26" y="0" width="1246.6" height="1272.75" filterUnits="userSpaceOnUse" color-interpolation-filters="sRGB"><feFlood flood-opacity="0" result="BackgroundImageFix"/><feBlend in="SourceGraphic" in2="BackgroundImageFix" result="shape"/><feGaussianBlur stdDeviation="100" result="effect1_foregroundBlur_152_12"/></filter><filter id="c" x="345" y="169" width="1265" height="1298" filterUnits="userSpaceOnUse" color-interpolation-filters="sRGB"><feFlood flood-opacity="0" result="BackgroundImageFix"/><feBlend in="SourceGraphic" in2="BackgroundImageFix" result="shape"/><feGaussianBlur stdDeviation="122" result="effect1_foregroundBlur_152_12"/></filter></defs></svg>