<svg width="1617" height="1560" fill="none" xmlns="http://www.w3.org/2000/svg"><g opacity=".7" filter="url(#a)"><path fill-rule="evenodd" clip-rule="evenodd" d="M985.201 486.918c132.619.018 265.099 44.517 347.949 148.047 83 103.713 100.29 243.489 68.6 372.475-31.01 126.21-115.8 229.91-231.28 289.59-120.05 62.04-263.605 89.34-384.285 28.53-118.645-59.78-170.859-192.53-198.88-322.37-27.496-127.416-29.748-265.071 49.827-368.318 80.96-105.046 215.427-147.972 348.069-147.954Z" fill="#4B40D4"/></g><g opacity=".7" filter="url(#b)"><path fill-rule="evenodd" clip-rule="evenodd" d="M680.121 244.024c152.706-1.348 303.434 53.852 399.859 171.943 97.59 119.503 136.7 282.472 91.55 429.859-41.99 137.047-177.987 206.964-306.372 271.324-132.507 66.43-280.819 156-413.272 89.46-131.216-65.92-139.538-238.668-169.353-382.139-28.656-137.901-73.151-285.232 6.503-401.522C374.15 298.69 529.23 245.356 680.121 244.024Z" fill="#8C0073"/></g><g opacity=".6" filter="url(#c)"><path fill-rule="evenodd" clip-rule="evenodd" d="M816.235 503.758c103.84-3.485 219.895.374 284.835 81.536 65.05 81.284 43.52 195.56 17.62 296.422-24.75 96.396-65.43 194.104-154.786 237.794-89.845 43.92-194.077 20.21-284.179-23.19-90.142-43.41-170.854-110.824-195.537-207.844-25.365-99.704 2.994-206.977 70.194-284.837 64.241-74.432 163.633-96.585 261.853-99.881Z" fill="#FFFCEE"/></g><defs><filter id="a" x="370" y="286.918" width="1246.6" height="1272.75" filterUnits="userSpaceOnUse" color-interpolation-filters="sRGB"><feFlood flood-opacity="0" result="BackgroundImageFix"/><feBlend in="SourceGraphic" in2="BackgroundImageFix" result="shape"/><feGaussianBlur stdDeviation="100" result="effect1_foregroundBlur_151_7"/></filter><filter id="b" x="0" y="0" width="1434.2" height="1474.04" filterUnits="userSpaceOnUse" color-interpolation-filters="sRGB"><feFlood flood-opacity="0" result="BackgroundImageFix"/><feBlend in="SourceGraphic" in2="BackgroundImageFix" result="shape"/><feGaussianBlur stdDeviation="122" result="effect1_foregroundBlur_151_7"/></filter><filter id="c" x="335" y="362.918" width="949" height="920" filterUnits="userSpaceOnUse" color-interpolation-filters="sRGB"><feFlood flood-opacity="0" result="BackgroundImageFix"/><feBlend in="SourceGraphic" in2="BackgroundImageFix" result="shape"/><feGaussianBlur stdDeviation="70" result="effect1_foregroundBlur_151_7"/></filter></defs></svg>