<svg width="40" height="32" viewBox="0 0 40 32" fill="none" xmlns="http://www.w3.org/2000/svg">
<path d="M1.00531 1.95122C0.402123 1.95122 0 1.56098 0 0.97561C0 0.390244 0.402123 0 1.00531 0H4.02123C6.03185 0 7.64034 1.26829 8.24352 3.02439L39.0059 2.92683C39.7096 2.92683 40.2123 3.60976 39.9107 4.29268L34.4821 18.439C33.8789 20.0976 32.2704 21.1707 30.3603 21.1707L13.069 21.2683L13.2701 22.1463C13.5717 23.2195 14.4764 23.9024 15.5823 23.9024H32.572C33.0746 23.9024 33.5773 24.2927 33.5773 24.878C33.5773 25.3659 33.0746 25.8537 32.572 25.8537H15.5823C13.5717 25.8537 11.8626 24.4878 11.36 22.6341L6.33344 3.70732C6.03185 2.63415 5.12707 1.95122 4.02123 1.95122H1.00531ZM8.74618 4.97561L12.5663 19.3171L30.3603 19.2195C31.4661 19.2195 32.2704 18.6341 32.6725 17.7561L37.5985 4.87805L8.74618 4.97561Z" fill="#2F80ED"/>
<path fill-rule="evenodd" clip-rule="evenodd" d="M15.0796 27.3171C16.3865 27.3171 17.4924 28.3902 17.4924 29.6585C17.4924 30.9268 16.3865 32 15.0796 32C13.7727 32 12.6669 30.9268 12.6669 29.6585C12.6669 28.3902 13.7727 27.3171 15.0796 27.3171Z" fill="#2F80ED"/>
<path fill-rule="evenodd" clip-rule="evenodd" d="M30.0587 27.3171C31.3656 27.3171 32.4714 28.3902 32.4714 29.6585C32.4714 30.9268 31.3656 32 30.0587 32C28.7518 32 27.646 30.9268 27.646 29.6585C27.646 28.3902 28.7518 27.3171 30.0587 27.3171Z" fill="#2F80ED"/>
</svg>
