<svg width="96" height="90" viewBox="0 0 96 90" fill="none" xmlns="http://www.w3.org/2000/svg">
<g opacity="0.5">
<path d="M17.0323 63.6198C11.9071 63.6198 7.74194 67.7941 7.74194 72.9305C7.74194 78.0668 11.9071 82.2411 17.0323 82.2411C22.1574 82.2411 26.3226 78.0668 26.3226 72.9305C26.3226 67.7941 22.1574 63.6198 17.0323 63.6198ZM17.0323 79.1376C13.6103 79.1376 10.8387 76.3599 10.8387 72.9305C10.8387 69.501 13.6103 66.7234 17.0323 66.7234C20.4542 66.7234 23.2258 69.501 23.2258 72.9305C23.2258 76.3599 20.4542 79.1376 17.0323 79.1376Z" fill="white"/>
<path d="M17.0323 7.75589C11.9071 7.75589 7.74194 11.9302 7.74194 17.0665C7.74194 22.2029 11.9071 26.3772 17.0323 26.3772C22.1574 26.3772 26.3226 22.2029 26.3226 17.0665C26.3226 11.9302 22.1574 7.75589 17.0323 7.75589ZM17.0323 23.2736C13.6103 23.2736 10.8387 20.496 10.8387 17.0665C10.8387 13.6371 13.6103 10.8594 17.0323 10.8594C20.4542 10.8594 23.2258 13.6371 23.2258 17.0665C23.2258 20.496 20.4542 23.2736 17.0323 23.2736Z" fill="white"/>
<path d="M50.7561 44.9985L89.3419 7.32139C89.9768 6.74724 90.0232 5.76962 89.4503 5.13339C89.2335 4.90063 88.9548 4.72993 88.6297 4.65234C72.0774 0.555654 60.2323 12.6905 56.9961 16.5079C56.1135 17.5476 55.2464 18.5563 54.3484 19.6115C49.0684 25.4772 44.4542 30.6446 40.5213 35.1292L32.3303 26.9979C31.8503 26.5479 31.711 25.8341 31.9897 25.2289C36.4955 16.9424 33.4452 6.57654 25.1768 2.07639C16.9084 -2.42376 6.58065 0.633242 2.07484 8.90421C0.712258 11.4181 0 14.2113 0 17.0665C0 24.8254 5.32645 30.8153 14.9884 34.1361C21.2903 36.0448 26.9574 39.6449 31.3548 44.5485L31.8039 45.0761L31.3394 45.6192C26.9419 50.5228 21.2903 54.1074 14.9884 56.0161C5.32645 59.1662 0 65.1716 0 72.9305C0 82.3653 7.61806 90 17.0323 90C17.6516 90 18.271 89.969 18.8903 89.8914C28.2426 88.8362 34.9626 80.379 33.9097 71.0218C33.6619 68.8338 32.9961 66.7078 31.9432 64.7681C31.6645 64.1629 31.7884 63.4646 32.2684 62.9991L40.4903 54.9764C46.2658 61.5094 52.0103 67.8872 54.2865 70.4942C55.2 71.5028 56.0671 72.5115 56.9497 73.5977C59.7213 76.872 68.8258 86.2602 81.7239 86.2602C84.0619 86.2447 86.369 85.9343 88.6297 85.3447C89.4658 85.1429 89.9768 84.305 89.7755 83.467C89.7135 83.1877 89.5587 82.9239 89.3419 82.7222L50.7561 44.9985ZM33.7239 42.4381C28.9548 37.1155 22.8387 33.205 16.0103 31.1101C11.1639 29.4807 3.09677 25.5392 3.09677 17.0665C3.08129 9.35422 9.32129 3.10057 17.0168 3.08505C24.7123 3.06953 30.9677 9.32319 30.9677 17.0355C30.9677 19.3787 30.3794 21.6908 29.2645 23.7392C28.32 25.5703 28.6761 27.8048 30.1626 29.2325L38.4774 37.3483L33.8323 42.6243L33.7239 42.4381ZM30.1626 60.7801C28.6916 62.2077 28.32 64.4267 29.2645 66.2578C30.6271 68.6941 31.2155 71.5028 30.9677 74.2805C30.2555 80.8445 25.1148 86.043 18.5806 86.8033C14.6323 87.2689 10.6839 85.9964 7.74194 83.3274C4.78452 80.6893 3.09677 76.903 3.09677 72.9305C3.09677 64.4578 11.1639 60.5163 15.9794 58.9645C22.8077 56.8696 28.9239 52.9591 33.6929 47.6365C35.8606 44.9985 38.5548 41.895 41.7135 38.3569C45.9097 33.6395 50.88 28.0997 56.64 21.7219C57.569 20.6822 58.4671 19.6425 59.3497 18.6183C61.9355 15.5148 70.1884 6.94897 81.8787 6.94897C82.9161 6.96449 83.9535 7.02656 84.9755 7.16622L30.1626 60.7801ZM59.3497 71.4718C58.4671 70.4321 57.569 69.3924 56.64 68.3682C54.3329 65.8233 48.5574 59.3835 42.7045 52.8505L48.4955 47.202L85.0065 82.8929C71.6748 84.6153 62.1058 74.7305 59.3497 71.4718Z" fill="white"/>
<path d="M41.8064 46.5503C42.6616 46.5503 43.3548 45.8555 43.3548 44.9985C43.3548 44.1415 42.6616 43.4467 41.8064 43.4467C40.9513 43.4467 40.2581 44.1415 40.2581 44.9985C40.2581 45.8555 40.9513 46.5503 41.8064 46.5503Z" fill="white"/>
<path d="M78.9677 37.2396C78.9677 33.8102 76.1961 31.0325 72.7742 31.0325C69.3523 31.0325 66.5806 33.8102 66.5806 37.2396C66.5806 40.6691 69.3523 43.4467 72.7742 43.4467C76.1961 43.4467 78.9677 40.6691 78.9677 37.2396ZM69.6774 37.2396C69.6774 35.5327 71.071 34.1361 72.7742 34.1361C74.4774 34.1361 75.871 35.5327 75.871 37.2396C75.871 38.9466 74.4774 40.3432 72.7742 40.3432C71.071 40.3432 69.6774 38.9621 69.6774 37.2396Z" fill="white"/>
<path d="M89.8064 48.1021C86.3845 48.1021 83.6129 50.8797 83.6129 54.3092C83.6129 57.7386 86.3845 60.5163 89.8064 60.5163C93.2284 60.5163 96 57.7386 96 54.3092C96 50.8797 93.2284 48.1021 89.8064 48.1021ZM89.8064 57.4127C88.1032 57.4127 86.7097 56.0161 86.7097 54.3092C86.7097 52.6022 88.1032 51.2056 89.8064 51.2056C91.5097 51.2056 92.9032 52.6022 92.9032 54.3092C92.9032 56.0161 91.5097 57.4127 89.8064 57.4127Z" fill="white"/>
<path d="M68.5781 58.5145C69.1819 59.1197 70.1574 59.1197 70.7613 58.53C70.7613 58.53 70.7613 58.53 70.7768 58.5145L94.0026 35.2378C94.6064 34.6326 94.6064 33.6395 94.0026 33.0343C93.3987 32.4291 92.4077 32.4291 91.8039 33.0343L68.5781 56.311C67.9742 56.9161 67.9742 57.9093 68.5781 58.5145Z" fill="white"/>
</g>
</svg>
