<svg width="320" height="48" viewBox="0 0 320 48" fill="none" xmlns="http://www.w3.org/2000/svg">
<path fill-rule="evenodd" clip-rule="evenodd" d="M0 0H320C320 22.6274 320 33.9411 312.971 40.9706C309.922 44.0189 306.068 45.7453 300.835 46.723C300.271 44.5802 298.32 43 296 43C293.324 43 291.139 45.1021 291.006 47.745C289.133 47.8358 287.134 47.8942 285 47.9319C284.963 45.2018 282.739 43 280 43C277.239 43 275 45.2382 275 47.9994C274.023 48 273.023 48 272 48H269C269 45.2386 266.761 43 264 43C261.239 43 259 45.2386 259 48H253C253 45.2386 250.761 43 248 43C245.239 43 243 45.2386 243 48H237C237 45.2386 234.761 43 232 43C229.239 43 227 45.2386 227 48H221C221 45.2386 218.761 43 216 43C213.239 43 211 45.2386 211 48H205C205 45.2386 202.761 43 200 43C197.239 43 195 45.2386 195 48H189C189 45.2386 186.761 43 184 43C181.239 43 179 45.2386 179 48H173C173 45.2386 170.761 43 168 43C165.239 43 163 45.2386 163 48H157C157 45.2386 154.761 43 152 43C149.239 43 147 45.2386 147 48H141C141 45.2386 138.761 43 136 43C133.239 43 131 45.2386 131 48H125C125 45.2386 122.761 43 120 43C117.239 43 115 45.2386 115 48H109C109 45.2386 106.761 43 104 43C101.239 43 99 45.2386 99 48H93C93 45.2386 90.7614 43 88 43C85.2386 43 83 45.2386 83 48H77C77 45.2386 74.7614 43 72 43C69.2386 43 67 45.2386 67 48H61C61 45.2386 58.7614 43 56 43C53.2386 43 51 45.2386 51 48H48C46.9771 48 45.9773 48 45 47.9994C44.9996 45.2382 42.7612 43 40 43C37.2613 43 35.0369 45.2018 35.0005 47.9319C32.8658 47.8942 30.8674 47.8358 28.9936 47.745C28.8609 45.1021 26.6759 43 24 43C21.6799 43 19.7289 44.5802 19.1645 46.723C13.9317 45.7453 10.0777 44.0189 7.02944 40.9706C0 33.9411 0 22.6274 0 0Z" fill="#F5F4EF"/>
</svg>
