<svg width="87" height="65" viewBox="0 0 87 65" fill="none" xmlns="http://www.w3.org/2000/svg">
<rect width="87" height="65" rx="4" fill="#F9FCFF"/>
<path fill-rule="evenodd" clip-rule="evenodd" d="M29.4242 12.9756C28.6209 12.9756 27.9697 13.6308 27.9697 14.439V49.561C27.9697 50.3692 28.6209 51.0244 29.4242 51.0244H33.303V52H29.4242C28.0854 52 27 50.908 27 49.561V14.439C27 13.092 28.0854 12 29.4242 12H50.9584L59 20.0906V49.561C59 50.908 57.9146 52 56.5758 52H52.697V51.0244H56.5758C57.3791 51.0244 58.0303 50.3692 58.0303 49.561V20.7805H52.697C51.3581 20.7805 50.2727 19.6885 50.2727 18.3415V12.9756H29.4242ZM51.2424 13.6655L57.3446 19.8049H52.697C51.8936 19.8049 51.2424 19.1497 51.2424 18.3415V13.6655Z" fill="#B5C3D0"/>
<path d="M27 24H59V40H27V24Z" fill="#B5C3D0"/>
<path d="M39 44H47V52H51L43 60L35 52H39V44Z" fill="#B5C3D0"/>
</svg>
