<svg width="88" height="89" viewBox="0 0 88 89" fill="none" xmlns="http://www.w3.org/2000/svg">
<g filter="url(#filter0_d)">
<path fill-rule="evenodd" clip-rule="evenodd" d="M80 72.9992L80 3.99921L8.00001 3.9992L8 72.9992L80 72.9992ZM8 77L8 73L12 73L20 73L28 73L36 73L44 73L52 73L60 73L68 73L76 73L80 73L80 77L76 73L72 77L68 73L64 77L60 73L56 77L52 73L48 77L44 73L40 77L36 73L32 77L28 73L24 77L20 73L16 77L12 73L8 77Z" fill="#FFD556"/>
</g>
<defs>
<filter id="filter0_d" x="0" y="0" width="88" height="89.0008" filterUnits="userSpaceOnUse" color-interpolation-filters="sRGB">
<feFlood flood-opacity="0" result="BackgroundImageFix"/>
<feColorMatrix in="SourceAlpha" type="matrix" values="0 0 0 0 0 0 0 0 0 0 0 0 0 0 0 0 0 0 127 0"/>
<feOffset dy="4"/>
<feGaussianBlur stdDeviation="4"/>
<feColorMatrix type="matrix" values="0 0 0 0 0 0 0 0 0 0 0 0 0 0 0 0 0 0 0.25 0"/>
<feBlend mode="normal" in2="BackgroundImageFix" result="effect1_dropShadow"/>
<feBlend mode="normal" in="SourceGraphic" in2="effect1_dropShadow" result="shape"/>
</filter>
</defs>
</svg>
