<svg width="40" height="40" viewBox="0 0 40 40" fill="none" xmlns="http://www.w3.org/2000/svg">
<g filter="url(#filter0_d)">
<path d="M8 8L11 8V16H8V8Z" fill="white"/>
<path d="M8 8L11 8V16H8V8Z" fill="white"/>
<path d="M32 8V11L24 11V8L32 8Z" fill="white"/>
<path d="M32 8V11L24 11V8L32 8Z" fill="white"/>
<path d="M8 24H11V32H8V24Z" fill="white"/>
<path d="M8 24H11V32H8V24Z" fill="white"/>
<path d="M16 8V11L8 11V8L16 8Z" fill="white"/>
<path d="M16 8V11L8 11V8L16 8Z" fill="white"/>
<path d="M29 8L32 8V16L29 16V8Z" fill="white"/>
<path d="M29 8L32 8V16L29 16V8Z" fill="white"/>
<path d="M32 29V32H24V29H32Z" fill="white"/>
<path d="M32 29V32H24V29H32Z" fill="white"/>
<path d="M29 24H32V32H29V24Z" fill="white"/>
<path d="M29 24H32V32H29V24Z" fill="white"/>
<path d="M16 29V32H8V29H16Z" fill="white"/>
<path d="M16 29V32H8V29H16Z" fill="white"/>
</g>
<defs>
<filter id="filter0_d" x="0" y="0" width="40" height="40" filterUnits="userSpaceOnUse" color-interpolation-filters="sRGB">
<feFlood flood-opacity="0" result="BackgroundImageFix"/>
<feColorMatrix in="SourceAlpha" type="matrix" values="0 0 0 0 0 0 0 0 0 0 0 0 0 0 0 0 0 0 127 0"/>
<feOffset/>
<feGaussianBlur stdDeviation="4"/>
<feColorMatrix type="matrix" values="0 0 0 0 0 0 0 0 0 0 0 0 0 0 0 0 0 0 1 0"/>
<feBlend mode="normal" in2="BackgroundImageFix" result="effect1_dropShadow"/>
<feBlend mode="normal" in="SourceGraphic" in2="effect1_dropShadow" result="shape"/>
</filter>
</defs>
</svg>
