<svg width="90" height="90" viewBox="0 0 90 90" fill="none" xmlns="http://www.w3.org/2000/svg">
<g opacity="0.5">
<path d="M12 50.64V54.36C12 55.185 12.675 55.86 13.5 55.86C14.325 55.86 15 55.185 15 54.36V51.255L16.755 49.5H19.86C20.685 49.5 21.36 48.825 21.36 48C21.36 47.175 20.685 46.5 19.86 46.5H16.14C15.735 46.5 15.36 46.665 15.075 46.935L12.435 49.575C12.165 49.86 12 50.235 12 50.64Z" fill="white"/>
<path d="M36 54.36V51.255L37.755 49.5H40.86C41.685 49.5 42.36 48.825 42.36 48C42.36 47.175 41.685 46.5 40.86 46.5H37.14C36.735 46.5 36.36 46.665 36.075 46.935L33.435 49.575C33.165 49.86 33 50.235 33 50.64V54.36C33 55.185 33.675 55.86 34.5 55.86C35.325 55.86 36 55.185 36 54.36Z" fill="white"/>
<path d="M66 50.64V54.36C66 55.185 66.675 55.86 67.5 55.86C68.325 55.86 69 55.185 69 54.36V51.255L70.755 49.5H73.86C74.685 49.5 75.36 48.825 75.36 48C75.36 47.175 74.685 46.5 73.86 46.5H70.14C69.735 46.5 69.36 46.665 69.075 46.935L66.435 49.575C66.165 49.86 66 50.235 66 50.64Z" fill="white"/>
<path d="M76.5 0H13.5C6.06 0 0 6.06 0 13.5V88.5C0 89.325 0.675 90 1.5 90H88.5C89.325 90 90 89.325 90 88.5V13.5C90 6.06 83.94 0 76.5 0ZM30 48.78L35.28 43.5H42.735L48 48.78V56.235L42.72 61.5H35.265L30 56.22V48.78ZM34.65 40.5C34.245 40.5 33.87 40.665 33.585 40.935L28.5 46.035L23.415 40.95C23.13 40.665 22.74 40.5 22.35 40.5H19.5V3H37.5V40.5H34.65ZM21.72 43.5L27 48.78V56.235L21.72 61.5H14.28L9 56.22V48.765L14.28 43.5H21.72ZM13.5 3H16.5V40.5H13.65C13.245 40.5 12.87 40.665 12.585 40.935L6.435 47.085C6.165 47.37 6 47.76 6 48.15V56.85C6 57.255 6.165 57.63 6.435 57.915L12.585 64.065C12.87 64.335 13.26 64.5 13.65 64.5H22.35C22.755 64.5 23.13 64.335 23.415 64.065L28.5 58.965L33.585 64.05C33.87 64.335 34.26 64.5 34.65 64.5H43.35C43.755 64.5 44.13 64.335 44.415 64.065L50.565 57.915C50.835 57.63 51 57.24 51 56.85V48.15C51 47.745 50.835 47.37 50.565 47.085L44.415 40.935C44.13 40.665 43.74 40.5 43.35 40.5H40.5V3H54.495L69.78 40.5H67.65C67.245 40.5 66.87 40.665 66.585 40.935L60.435 47.085C60.165 47.37 60 47.76 60 48.15V56.85C60 57.255 60.165 57.63 60.435 57.915L66.585 64.065C66.87 64.335 67.245 64.5 67.65 64.5H76.35C76.755 64.5 77.13 64.335 77.415 64.065L83.565 57.915C83.835 57.63 84 57.24 84 56.85V48.15C84 47.745 83.835 47.37 83.565 47.085L77.415 40.935C77.13 40.665 76.755 40.5 76.35 40.5H73.005L57.735 3H76.5C82.29 3 87 7.71 87 13.5V81H3V13.5C3 7.71 7.71 3 13.5 3ZM75.735 43.5L81 48.78V56.235L75.735 61.5H68.28L63 56.22V48.765L68.265 43.5H75.735ZM3 87V84H87V87H3Z" fill="white"/>
</g>
</svg>
