<svg width="75" height="80" viewBox="0 0 75 80" fill="none" xmlns="http://www.w3.org/2000/svg">
<path d="M57.3438 32.8735C52.9047 32.2958 48.5916 33.2538 45.0011 35.2824C48.8611 31.9867 51.9743 30.33 52.3323 30.051C54.876 28.6458 55.8278 25.4057 54.4508 22.7306C53.0602 20.1623 49.7463 19.1885 47.2026 20.5938C46.8582 20.766 43.8372 22.5432 39.8987 25.6116C40.1137 24.7715 40.3286 23.9313 40.4515 22.9707C41.766 11.8562 33.943 1.61436 22.8454 0.170222C11.7478 -1.27391 1.6033 6.62978 0.16946 17.8373C-1.26438 29.0448 6.55865 39.2866 17.6562 40.7308C20.6156 41.1159 23.4455 40.833 26.0266 39.9752C19.8711 48.615 14.7345 60.2088 15.1242 74.8006C15.2055 77.5241 17.1929 79.6274 19.7295 79.9575C20.0466 79.9988 20.2579 80.0263 20.5887 79.9608C23.497 79.9052 25.8601 77.3913 25.8061 74.4544C25.5049 60.8508 31.0334 50.3931 37.1307 43.048C35.8654 45.3791 35.0092 47.8721 34.6679 50.5406C33.234 61.7481 41.057 71.9899 52.1546 73.434C63.2522 74.8781 73.3967 66.9745 74.8305 55.7669C76.2644 44.5594 68.4413 34.3176 57.3438 32.8735ZM19.0218 30.0569C13.7372 29.3692 10.0558 24.5496 10.7386 19.2127C11.4214 13.8757 16.1952 10.1564 21.4798 10.844C26.7644 11.5317 30.4458 16.3514 29.763 21.6883C29.0802 27.0252 24.3064 30.7446 19.0218 30.0569ZM53.5202 62.7602C48.2356 62.0725 44.5542 57.2528 45.237 51.9159C45.9198 46.579 50.6936 42.8596 55.9782 43.5473C61.2628 44.235 64.9442 49.0547 64.2614 54.3916C63.5786 59.7285 58.8048 63.4479 53.5202 62.7602Z" fill="#DB5A5A"/>
</svg>
