<svg width="80" height="80" viewBox="0 0 80 80" fill="none" xmlns="http://www.w3.org/2000/svg">
<path d="M76.545 33.6964C74.3332 30.9618 71.3842 29.4786 68.2617 29.4786H55.5548L60.4554 16.2688C61.7998 12.3291 61.3661 8.20394 59.2411 4.91309C57.1594 1.80765 53.9068 0 50.2638 0C46.6643 0 41.5902 2.5029 39.5519 6.48899L23.8526 35.7822V35.9676H0V42.1321V73.8355V80H23.7224H65.3126C71.7311 80 76.1981 76.2457 76.9353 70.0811L79.8844 45.4229C80.4048 41.2514 79.1471 36.8946 76.545 33.6964ZM23.8526 73.9745H6.07156V41.993H23.8526V73.9745ZM73.9863 44.6813L71.0372 69.4322C70.6036 73.1402 67.6545 73.9745 65.3126 73.9745H29.4904V37.4971L44.5826 9.59444C45.4066 7.97219 48.2689 6.34994 50.2205 6.34994C51.9118 6.34994 53.4297 7.18424 54.3405 8.57474C55.3379 10.1043 55.5548 12.2364 54.9042 14.0904L46.7944 35.9676H68.2617C70.1265 35.9676 71.4709 37.1727 72.0781 37.9143C73.5526 39.7682 74.2899 42.2711 73.9863 44.6813Z" fill="#27AE60"/>
</svg>
