<svg width="98" height="12" viewBox="0 0 98 12" fill="none" xmlns="http://www.w3.org/2000/svg">
<path d="M62.2075 12L57.3916 5.57721L62.006 0H57.4832L54.2787 4.49775V0H50.5799V12H54.2787V8.67166L54.9563 7.77211L57.7029 12H62.2075Z" fill="#FFD556"/>
<path d="M66.5636 12V0H62.8648V12H66.5636Z" fill="#FFD556"/>
<path d="M74.0084 12C77.8354 12 80.6919 9.82309 80.6919 5.991C80.6919 2.15892 77.8354 0 73.9901 0H68.5334V12H74.0084ZM73.9901 8.83358H72.2322V3.16642H74.0084C75.986 3.16642 76.9382 4.37181 76.9382 5.991C76.9382 7.50225 75.8395 8.83358 73.9901 8.83358Z" fill="#FFD556"/>
<path d="M93.6439 12L88.8281 5.57721L93.4425 0H88.9196L85.7152 4.49775V0H82.0163V12H85.7152V8.67166L86.3927 7.77211L89.1394 12H93.6439Z" fill="#FFD556"/>
<path d="M98.0001 12V0H94.3012V12H98.0001Z" fill="#FFD556"/>
<path d="M44.2093 12C47.4586 12 49.4373 10.5196 49.4373 7.95936C49.4373 3.64006 42.7027 4.58055 42.7027 3.48331C42.7027 3.18723 42.9023 2.96081 43.6284 2.96081C44.772 2.96081 46.1335 3.34398 47.1863 4.11031L49.1468 1.61974C47.7672 0.539913 45.9883 0 44.0096 0C40.6877 0 38.9814 1.88099 38.9814 3.84906C38.9814 8.42961 45.7341 7.29753 45.7341 8.41219C45.7341 8.86502 45.0806 9.03919 44.3908 9.03919C42.7571 9.03919 41.3957 8.37736 40.488 7.54136L38.582 10.1538C39.8709 11.2685 41.6317 12 44.2093 12Z" fill="#FFD556"/>
<path d="M9.77801 12V8.83358H4.92604L9.64837 2.86057V0H0V3.16642H4.70381L0 9.12144V12H9.77801Z" fill="white"/>
<path d="M20.8081 12V8.83358H15.1783V7.52024H20.6784V4.35382H15.1783V3.16642H20.8081V0H11.4375V12H20.8081Z" fill="white"/>
<path d="M37.1363 12V0H31.9695L29.8028 5.75712L27.6361 0H22.4693V12H26.2101V4.78561L28.9694 12H30.6361L33.3955 4.78561V12H37.1363Z" fill="white"/>
</svg>
