<svg id="Layer_1" data-name="Layer 1" xmlns="http://www.w3.org/2000/svg" xmlns:xlink="http://www.w3.org/1999/xlink" viewBox="0 0 163 40"><defs><style>.cls-1{fill:url(#linear-gradient);}.cls-2{fill:#fff;}.cls-3{fill:url(#linear-gradient-2);}.cls-4{fill:url(#linear-gradient-3);}.cls-5{fill:url(#linear-gradient-4);}.cls-6{fill:#ff6476;}.cls-7{fill:url(#linear-gradient-5);}.cls-8{fill:url(#linear-gradient-6);}.cls-9{fill:url(#linear-gradient-7);}.cls-10{fill:url(#linear-gradient-8);}.cls-11{fill:url(#linear-gradient-9);}.cls-12{fill:url(#linear-gradient-10);}</style><linearGradient id="linear-gradient" y1="38" x2="210" y2="38" gradientTransform="matrix(1, 0, 0, -1, 0, 58)" gradientUnits="userSpaceOnUse"><stop offset="0" stop-color="#3172ca"/><stop offset="1" stop-color="#2e6ec5"/></linearGradient><linearGradient id="linear-gradient-2" x1="18.58" y1="46" x2="18.58" y2="30" gradientTransform="matrix(1, 0, 0, -1, 0, 58)" gradientUnits="userSpaceOnUse"><stop offset="0" stop-color="#fff"/><stop offset="1" stop-color="#bfd9fb"/></linearGradient><linearGradient id="linear-gradient-3" x1="33.71" x2="33.71" xlink:href="#linear-gradient-2"/><linearGradient id="linear-gradient-4" x1="52.13" x2="52.13" xlink:href="#linear-gradient-2"/><linearGradient id="linear-gradient-5" x1="94.98" y1="46" x2="94.98" y2="30" gradientTransform="matrix(1, 0, 0, -1, 0, 58)" gradientUnits="userSpaceOnUse"><stop offset="0" stop-color="#ffd556"/><stop offset="1" stop-color="#ffbf00"/></linearGradient><linearGradient id="linear-gradient-6" x1="106.18" x2="106.18" xlink:href="#linear-gradient-5"/><linearGradient id="linear-gradient-7" x1="119.51" x2="119.51" xlink:href="#linear-gradient-5"/><linearGradient id="linear-gradient-8" x1="137.31" x2="137.31" xlink:href="#linear-gradient-5"/><linearGradient id="linear-gradient-9" x1="148.51" x2="148.51" xlink:href="#linear-gradient-5"/><linearGradient id="linear-gradient-10" x1="78.31" x2="78.31" xlink:href="#linear-gradient-5"/></defs><title>Artboard 1</title><path class="cls-1" d="M67,4a4,4,0,0,0,4-4h88a4,4,0,0,1,4,4V36a4,4,0,0,1-4,4H71a4,4,0,0,0-8,0H4a4,4,0,0,1-4-4V4A4,4,0,0,1,4,0H63A4,4,0,0,0,67,4Zm1,6a1,1,0,1,1-1-1A1,1,0,0,1,68,10Zm-1,8a1,1,0,1,0-1-1A1,1,0,0,0,67,18Zm1,6a1,1,0,1,1-1-1A1,1,0,0,1,68,24Zm-1,8a1,1,0,1,0-1-1A1,1,0,0,0,67,32Z"/><path class="cls-2" d="M25.17,28V23.78H18.63l6.36-8V12H12v4.22h6.33L12,24.16V28Z"/><path class="cls-3" d="M25.17,28V23.78H18.63l6.36-8V12H12v4.22h6.33L12,24.16V28Z"/><path class="cls-2" d="M40,28V23.78H32.44V22h7.41V17.81H32.44V16.22H40V12H27.4V28Z"/><path class="cls-4" d="M40,28V23.78H32.44V22h7.41V17.81H32.44V16.22H40V12H27.4V28Z"/><path class="cls-2" d="M62,28V12H55l-2.92,7.68L49.21,12h-7V28h5V18.38L51,28h2.24L57,18.38V28Z"/><path class="cls-5" d="M62,28V12H55l-2.92,7.68L49.21,12h-7V28h5V18.38L51,28h2.24L57,18.38V28Z"/><path class="cls-6" d="M102.81,28l-6.48-8.56L102.54,12H96.45l-4.31,6V12h-5V28h5V23.56l.91-1.2L96.74,28Z"/><path class="cls-7" d="M102.81,28l-6.48-8.56L102.54,12H96.45l-4.31,6V12h-5V28h5V23.56l.91-1.2L96.74,28Z"/><path class="cls-6" d="M108.67,28V12h-5V28Z"/><path class="cls-8" d="M108.67,28V12h-5V28Z"/><path class="cls-6" d="M118.7,28c5.15,0,9-2.9,9-8s-3.85-8-9-8h-7.35V28Zm0-4.22h-2.37V16.22h2.39c2.66,0,3.94,1.61,3.94,3.77A3.75,3.75,0,0,1,118.67,23.78Z"/><path class="cls-9" d="M118.7,28c5.15,0,9-2.9,9-8s-3.85-8-9-8h-7.35V28Zm0-4.22h-2.37V16.22h2.39c2.66,0,3.94,1.61,3.94,3.77A3.75,3.75,0,0,1,118.67,23.78Z"/><path class="cls-6" d="M145.13,28l-6.48-8.56L144.86,12h-6.09l-4.31,6V12h-5V28h5V23.56l.91-1.2,3.7,5.64Z"/><path class="cls-10" d="M145.13,28l-6.48-8.56L144.86,12h-6.09l-4.31,6V12h-5V28h5V23.56l.91-1.2,3.7,5.64Z"/><path class="cls-6" d="M151,28V12h-5V28Z"/><path class="cls-11" d="M151,28V12h-5V28Z"/><path class="cls-6" d="M78.58,28c4.37,0,7-2,7-5.39,0-5.76-9.07-4.51-9.07-6,0-.39.27-.7,1.25-.7a8.53,8.53,0,0,1,4.79,1.53l2.64-3.32A11.13,11.13,0,0,0,78.31,12c-4.47,0-6.77,2.51-6.77,5.13,0,6.11,9.09,4.6,9.09,6.08,0,.6-.88.84-1.81.84a7.81,7.81,0,0,1-5.25-2L71,25.54A11.09,11.09,0,0,0,78.58,28Z"/><path class="cls-12" d="M78.58,28c4.37,0,7-2,7-5.39,0-5.76-9.07-4.51-9.07-6,0-.39.27-.7,1.25-.7a8.53,8.53,0,0,1,4.79,1.53l2.64-3.32A11.13,11.13,0,0,0,78.31,12c-4.47,0-6.77,2.51-6.77,5.13,0,6.11,9.09,4.6,9.09,6.08,0,.6-.88.84-1.81.84a7.81,7.81,0,0,1-5.25-2L71,25.54A11.09,11.09,0,0,0,78.58,28Z"/></svg>