<svg width="32" height="32" viewBox="0 0 32 32" fill="none" xmlns="http://www.w3.org/2000/svg">
<path d="M6.92976 26.0094C6.1145 26.0094 5.50305 25.011 6.1145 24.2123L9.57938 20.4182L13.6557 15.8254L15.8977 13.4292L12 16.0251H0L4.68778 30.6022C4.8916 31.4009 5.70686 32 6.72595 32H24.458C25.4771 32 26.2923 31.4009 26.4962 30.6022L27.9229 26.0094H6.92976Z" fill="white"/>
<path d="M31.1844 11.0326L16.9172 0.449293C16.102 -0.149764 15.0829 -0.149764 14.2676 0.449293L1.22335 10.0342H25.0699C25.8852 10.0342 26.4966 11.0326 25.8852 11.6317L22.0126 15.8251L18.3439 20.0185L15.8981 22.6144L20 20.0185H29.7577L31.7958 13.4289C32.2035 12.4304 31.9997 11.6317 31.1844 11.0326Z" fill="white"/>
</svg>
