<svg width="172" height="101" fill="none" xmlns="http://www.w3.org/2000/svg"><g filter="url(#a)"><path d="M97 50.5C97 76.181 76.187 97 50.513 97 24.84 97 4.026 76.181 4.026 50.5S24.84 4 50.513 4C76.187 4 97 24.819 97 50.5Z" fill="#551E7B"/></g><g filter="url(#b)"><path d="M86.67 50.5c0 19.974-16.188 36.167-36.157 36.167-19.969 0-36.157-16.193-36.157-36.167s16.188-36.167 36.157-36.167c19.969 0 36.156 16.193 36.156 36.167Z" fill="#7432A1"/></g><g filter="url(#c)" fill="#9855C6"><path d="M72.896 50.5c0 12.365-10.022 22.389-22.383 22.389-12.362 0-22.383-10.024-22.383-22.389s10.021-22.389 22.383-22.389c12.361 0 22.383 10.024 22.383 22.389Z"/><path d="M72.896 50.5c0 12.365-10.022 22.389-22.383 22.389-12.362 0-22.383-10.024-22.383-22.389s10.021-22.389 22.383-22.389c12.361 0 22.383 10.024 22.383 22.389Z"/></g><path d="M30.44 60H14.68v-3.8l8.72-11.08h-8.72v-4.44h15.6v3.68l-8.84 11.2h9V60Zm13.3.48c-2.986 0-5.453-.933-7.4-2.8-1.946-1.867-2.92-4.32-2.92-7.36 0-2.853.934-5.253 2.8-7.2 1.894-1.947 4.294-2.92 7.2-2.92 2.88 0 5.214.987 7 2.96 1.787 1.947 2.68 4.507 2.68 7.68v1.12H38.74c.16 1.28.734 2.347 1.72 3.2.987.853 2.267 1.28 3.84 1.28.854 0 1.774-.173 2.76-.52 1.014-.347 1.814-.813 2.4-1.4l2.24 3.28c-1.946 1.787-4.6 2.68-7.96 2.68Zm4.44-11.96c-.08-1.093-.52-2.08-1.32-2.96-.773-.88-1.92-1.32-3.44-1.32-1.44 0-2.56.44-3.36 1.32-.8.853-1.266 1.84-1.4 2.96h9.52ZM85.85 60h-5.12V47.8c0-2.053-.96-3.08-2.88-3.08-.827 0-1.6.227-2.32.68-.693.453-1.253.973-1.68 1.56V60h-5.12V47.8c0-2.053-.96-3.08-2.88-3.08-.8 0-1.56.227-2.28.68-.72.453-1.293.987-1.72 1.6v13h-5.08V40.68h5.08v2.52c.48-.693 1.32-1.36 2.52-2a7.71 7.71 0 0 1 3.8-1c2.8 0 4.587 1.173 5.36 3.52.613-.96 1.52-1.787 2.72-2.48a7.843 7.843 0 0 1 3.92-1.04c1.813 0 3.213.493 4.2 1.48.987.96 1.48 2.413 1.48 4.36V60Zm26.63.48c-1.68 0-3.293-.267-4.84-.8-1.52-.533-2.787-1.267-3.8-2.2l2.2-3.56c.747.693 1.76 1.307 3.04 1.84 1.28.533 2.493.8 3.64.8 1.067 0 1.867-.187 2.4-.56.56-.373.84-.88.84-1.52 0-.48-.293-.867-.88-1.16-.56-.32-1.267-.547-2.12-.68a29.198 29.198 0 0 1-2.76-.6 19.687 19.687 0 0 1-2.76-.96c-.827-.373-1.533-.96-2.12-1.76-.56-.827-.84-1.84-.84-3.04 0-1.707.707-3.147 2.12-4.32 1.413-1.173 3.347-1.76 5.8-1.76 2.987 0 5.587.88 7.8 2.64l-2.04 3.48c-.613-.64-1.44-1.173-2.48-1.6a8.26 8.26 0 0 0-3.24-.64c-.907 0-1.64.187-2.2.56-.56.347-.84.8-.84 1.36 0 .427.28.787.84 1.08.56.267 1.267.467 2.12.6.853.133 1.773.347 2.76.64.987.267 1.907.6 2.76 1 .853.373 1.56.987 2.12 1.84.56.853.84 1.893.84 3.12 0 1.813-.747 3.307-2.24 4.48-1.467 1.147-3.507 1.72-6.12 1.72Zm28.503-2.92c-1.867 1.947-4.347 2.92-7.44 2.92-3.094 0-5.574-.973-7.44-2.92-1.84-1.973-2.76-4.387-2.76-7.24 0-2.853.92-5.253 2.76-7.2 1.866-1.947 4.346-2.92 7.44-2.92 3.093 0 5.573.973 7.44 2.92 1.866 1.947 2.8 4.347 2.8 7.2 0 2.853-.934 5.267-2.8 7.24Zm-11.04-3.2c.88 1.067 2.08 1.6 3.6 1.6s2.72-.533 3.6-1.6c.906-1.093 1.36-2.44 1.36-4.04 0-1.573-.454-2.893-1.36-3.96-.88-1.093-2.08-1.64-3.6-1.64s-2.72.547-3.6 1.64c-.88 1.067-1.32 2.387-1.32 3.96 0 1.6.44 2.947 1.32 4.04ZM153.791 60h-5.12V45.12h-3.2v-4.44h3.2v-1.04c0-2.053.6-3.68 1.8-4.88 1.2-1.227 2.774-1.84 4.72-1.84 2.24 0 3.92.6 5.04 1.8l-1.92 3c-.533-.533-1.24-.8-2.12-.8-.72 0-1.306.24-1.76.72-.426.453-.64 1.12-.64 2v1.04h3.92v4.44h-3.92V60Zm13.326.48c-1.786 0-3.146-.453-4.08-1.36-.933-.907-1.4-2.213-1.4-3.92V45.12h-3.2v-4.44h3.2V35.4h5.12v5.28h3.92v4.44h-3.92v8.72c0 .613.16 1.12.48 1.52.32.4.747.6 1.28.6.8 0 1.387-.187 1.76-.56l1.08 3.84c-.933.827-2.346 1.24-4.24 1.24Z" fill="#fff" fill-opacity=".8"/><defs><filter id="a" x=".026" y="0" width="100.974" height="101" filterUnits="userSpaceOnUse" color-interpolation-filters="sRGB"><feFlood flood-opacity="0" result="BackgroundImageFix"/><feColorMatrix in="SourceAlpha" values="0 0 0 0 0 0 0 0 0 0 0 0 0 0 0 0 0 0 127 0" result="hardAlpha"/><feOffset/><feGaussianBlur stdDeviation="2"/><feComposite in2="hardAlpha" operator="out"/><feColorMatrix values="0 0 0 0 0 0 0 0 0 0 0 0 0 0 0 0 0 0 0.25 0"/><feBlend in2="BackgroundImageFix" result="effect1_dropShadow_201_2"/><feBlend in="SourceGraphic" in2="effect1_dropShadow_201_2" result="shape"/></filter><filter id="b" x="10.356" y="10.333" width="80.313" height="80.333" filterUnits="userSpaceOnUse" color-interpolation-filters="sRGB"><feFlood flood-opacity="0" result="BackgroundImageFix"/><feColorMatrix in="SourceAlpha" values="0 0 0 0 0 0 0 0 0 0 0 0 0 0 0 0 0 0 127 0" result="hardAlpha"/><feOffset/><feGaussianBlur stdDeviation="2"/><feComposite in2="hardAlpha" operator="out"/><feColorMatrix values="0 0 0 0 0 0 0 0 0 0 0 0 0 0 0 0 0 0 0.25 0"/><feBlend in2="BackgroundImageFix" result="effect1_dropShadow_201_2"/><feBlend in="SourceGraphic" in2="effect1_dropShadow_201_2" result="shape"/></filter><filter id="c" x="24.13" y="24.111" width="52.765" height="52.778" filterUnits="userSpaceOnUse" color-interpolation-filters="sRGB"><feFlood flood-opacity="0" result="BackgroundImageFix"/><feColorMatrix in="SourceAlpha" values="0 0 0 0 0 0 0 0 0 0 0 0 0 0 0 0 0 0 127 0" result="hardAlpha"/><feOffset/><feGaussianBlur stdDeviation="2"/><feComposite in2="hardAlpha" operator="out"/><feColorMatrix values="0 0 0 0 0 0 0 0 0 0 0 0 0 0 0 0 0 0 0.25 0"/><feBlend in2="BackgroundImageFix" result="effect1_dropShadow_201_2"/><feBlend in="SourceGraphic" in2="effect1_dropShadow_201_2" result="shape"/></filter></defs></svg>