<svg width="35" height="50" viewBox="0 0 35 50" fill="none" xmlns="http://www.w3.org/2000/svg">
<path d="M6.49896 46.7704C6.15662 46.2244 6.06877 45.6323 6.03509 45.1462L4.29981 45.0918C4.29981 45.0918 4.40797 45.7104 4.10652 46.1824C3.97532 46.3874 3.60102 46.5325 3.0836 46.7396C2.26387 47.1448 1.25192 47.6696 1.21162 47.9555C1.14539 48.4315 5.93183 48.5659 6.73543 48.1269C7.15562 47.8978 6.87481 47.3694 6.49896 46.7704Z" fill="#072855"/>
<path d="M17.8011 30.8947C17.8011 30.8947 10.4771 26.9828 5.90904 27.4371C0.860941 27.9407 -0.63662 44.6709 3.80345 45.877C8.24351 47.0831 7.78984 44.9832 8.03931 43.7417C8.28879 42.5003 7.23486 33.6195 8.39783 33.7179C9.5608 33.8162 15.655 38.3572 19.0163 36.231C22.3776 34.1048 17.8011 30.8947 17.8011 30.8947Z" fill="#0D3A78"/>
<path d="M19.4751 21.8025C19.4751 21.8025 17.1277 12.3778 15.9906 10.9714C14.8527 9.56399 12.4889 9.97876 11.921 11.5268C11.353 13.0748 13.1032 21.4451 13.488 22.0001C13.8738 22.5563 19.4751 21.8025 19.4751 21.8025Z" fill="#FFD556"/>
<path d="M8.38534 33.7194C9.54799 33.8177 15.6405 38.3575 19.0009 36.2319C19.4738 35.9324 19.7894 35.6119 19.9822 35.2808C16.3966 35.3037 8.73355 29.4941 6.67645 30.163C4.3587 30.9156 5.79886 40.7431 4.53643 41.7261C3.76685 42.3251 2.45202 42.5164 1.54297 42.5741C1.94897 44.3107 2.68641 45.5747 3.79225 45.8753C8.23106 47.0811 7.77752 44.9817 8.02693 43.7406C8.27662 42.4981 7.22129 33.6208 8.38534 33.7194Z" fill="#072855"/>
<path d="M11.9209 11.527C11.353 13.075 13.1032 21.4452 13.4881 22.0003C13.8738 22.5565 19.4741 21.8016 19.4741 21.8016C19.4741 21.8016 19.3842 21.4399 19.2312 20.8498C17.9308 19.1953 15.1562 15.5788 15.1901 14.8904C15.2348 13.9921 16.7513 13.0913 15.9917 10.9707C14.8527 9.56418 12.4889 9.97895 11.9209 11.527Z" fill="#FF7A00"/>
<path d="M30.7065 42.9376C30.7065 42.9376 31.8655 43.3268 32.5994 42.6294C33.3332 41.9319 34.0588 42.5575 34.0439 44.2944C34.0303 46.0316 33.6709 47.1742 33.1264 47.5747C32.5819 47.9752 30.9096 48.468 30.7173 48.0107C30.525 47.5533 31.9289 46.3003 31.9289 46.3003L30.8351 44.9862L30.7065 42.9376Z" fill="#072855"/>
<path d="M19.4697 30.5073C19.4697 30.5073 14.417 43.7316 16.6176 48.1578C18.8186 52.5826 29.042 47.3395 30.5735 46.5916C32.105 45.8437 33.0735 42.0571 30.0775 40.9364C27.0815 39.8157 23.3111 42.1963 23.3111 42.1963C23.3111 42.1963 27.2832 31.4874 24.8673 30.1806C22.4515 28.8737 19.4697 30.5073 19.4697 30.5073Z" fill="#0D3A78"/>
<path d="M30.0839 40.939C27.0698 39.808 23.2896 42.1731 23.2896 42.1731C23.2896 42.1731 27.2438 31.4862 24.8119 30.1713C23.7821 29.6156 22.6537 29.5858 21.6937 29.7353C22.3849 31.9496 23.3841 35.4264 23.1979 36.4822C22.9187 38.0725 21.8465 42.5357 21.7265 42.9533C21.6288 43.2959 21.38 48.6763 18.9727 49.7677C22.823 50.5014 29.3945 47.1741 30.6003 46.5918C32.1376 45.8518 33.098 42.0701 30.0839 40.939Z" fill="#072855"/>
<path d="M25.6363 31.1575C27.094 23.9334 24.6875 19.8985 23.3884 18.9542C19.9583 16.4589 13.8882 18.7622 13.0543 21.961C12.4906 24.1224 16.2034 27.6469 16.3465 31.7833C16.3707 32.482 16.8099 33.1052 17.4635 33.3412C20.5468 34.4616 25.4392 32.1382 25.6363 31.1575Z" fill="#4179C5"/>
<path d="M25.6662 31.159C27.1076 23.9399 24.6733 19.896 23.3634 18.9469C22.0601 18.0022 20.3804 17.7369 18.75 17.9459C19.7658 18.6703 21.1402 20.0837 21.2842 22.4915C21.4191 24.7523 20.9306 29.7684 20.5021 33.5379C23.0446 33.1984 25.5289 31.8497 25.6662 31.159Z" fill="#0D3A78"/>
<path d="M20.7216 11.6242C20.7216 11.6242 20.3933 9.87977 18.8042 10.0285C16.5537 10.2366 16.2966 12.8384 16.8496 13.6635C17.6246 14.8158 18.3791 14.3122 19.0642 13.7216C19.7508 13.1294 20.7216 11.6242 20.7216 11.6242Z" fill="#4179C4"/>
<path d="M17.7773 12.8373C17.7773 12.8373 19.0753 10.4137 20.1153 9.95024C21.5358 9.31827 22.271 10.5722 22.1022 11.247C21.9334 11.9218 20.6297 13.3567 20.2132 13.4507C19.7952 13.5463 17.7773 12.8373 17.7773 12.8373Z" fill="#0C3670"/>
<path d="M17.8584 14.3535L17.332 18.6237C17.4397 19.1893 20.7212 20.1751 21.4489 19.2903C21.6622 19.0313 21.4825 18.5045 21.1249 17.9651L19.0587 15.051L17.8584 14.3535Z" fill="#FFD556"/>
<path d="M20.8818 12.437C20.8818 12.437 21.2922 11.9241 20.5857 11.1776C19.8792 10.4311 17.3218 12.9496 17.2636 13.7944C17.1758 15.0553 17.7138 15.7534 17.7138 15.7534C17.7138 15.7534 20.9158 13.8922 20.8818 12.437Z" fill="#082C5C"/>
<path d="M18.4047 12.8617L17.9877 15.2158C17.9105 16.0019 18.4605 16.7195 19.2315 16.8293C19.847 16.9171 20.2313 16.8695 20.9767 16.6786C21.5981 16.5181 21.8375 15.8584 21.7225 15.011C21.5743 13.9126 21.1308 12.9398 20.865 12.4327C20.26 11.2714 18.7869 11.3471 18.4047 12.8617Z" fill="#FFD556"/>
<path d="M17.9877 15.215L18.4044 12.8627C18.4501 12.6776 18.5143 12.5153 18.5907 12.373C18.6184 12.8306 18.7478 13.8068 18.8895 13.9564C19.2561 14.3402 19.1785 13.9537 19.9173 13.8378C20.3866 13.7635 21.0671 13.9017 21.5003 14.0151C21.5918 14.3279 21.6708 14.6619 21.718 15.012C21.8329 15.8588 21.5923 16.5197 20.9729 16.6783C20.228 16.8691 19.844 16.9167 19.2306 16.8304C18.4601 16.7177 17.9107 16.0038 17.9877 15.215Z" fill="#082C5C"/>
<path d="M19.957 14.3284C19.957 14.3284 20.4978 14.3932 21.223 14.2051C21.223 14.2051 21.3088 14.6945 21.0422 14.9026C20.771 15.1125 20.211 14.893 19.957 14.3284Z" fill="white"/>
<path d="M18.5934 13.7775C18.544 13.6371 18.5143 13.4909 18.494 13.3441C18.4559 13.0649 18.3348 12.6565 17.9577 12.9135C17.4077 13.2877 17.5839 14.6499 18.2763 14.6765C18.7893 14.6952 18.7187 14.13 18.5934 13.7775Z" fill="#FFD556"/>
<path d="M16.0486 13.3876C16.4767 12.9863 16.6736 12.3879 16.5801 11.7975C16.1713 9.20728 14.8049 1.32267 13.395 1.66095C10.5731 2.33741 11.233 12.1031 11.926 13.3646C13.1025 15.5078 14.9829 14.3865 16.0486 13.3876Z" fill="#FFD556"/>
<path d="M21.5389 19.9285C19.6065 20.4477 16.6814 24.3372 15.2986 26.5013C14.8391 27.2207 7.96135 26.5695 3.3041 27.0019C2.51773 27.0742 2.08088 27.386 2.41302 27.9868C3.83469 30.5627 10.7064 32.5629 15.7779 31.4875C19.1692 30.7686 24.8027 25.2163 24.9383 22.4582C25.0282 20.6305 24.096 19.2422 21.5389 19.9285Z" fill="#FFD556"/>
<path d="M2.46616 27.3848C2.46616 27.3848 0.826195 28.3536 0.484986 28.6498C0.143776 28.9459 -0.501102 30.5866 0.680489 30.8114C1.15715 30.9018 1.20243 29.7689 1.91143 29.7604C2.62044 29.752 3.48571 28.9943 3.55969 28.3904C3.63356 27.7893 2.46616 27.3848 2.46616 27.3848Z" fill="#FFD556"/>
<path d="M24.9408 22.4496C24.9783 21.6902 24.8387 21.0058 24.4798 20.5156C23.9722 21.4487 21.9141 22.7232 20.8568 23.9277C19.5955 25.3639 19.4025 27.2681 19.0828 28.1996C18.763 29.131 15.6062 30.2536 14.5094 29.5979C13.4137 28.9412 12.5985 30.006 10.757 29.7918C8.91557 29.5777 6.86773 28.9075 5.25572 28.5216C4.20341 28.2705 3.45548 28.5687 3.0625 28.8072C5.318 30.9622 11.2566 32.4442 15.7743 31.4856C19.1695 30.7643 24.8051 25.2094 24.9408 22.4496Z" fill="#FF7A00"/>
<path d="M13.1489 1.75C10.6128 2.92163 11.2539 12.1431 11.9262 13.3662C12.8126 14.9784 14.0968 14.7408 15.1322 14.1007C14.8972 13.7743 14.0385 12.5403 13.7975 11.683C13.5199 10.6876 13.8633 6.113 13.6497 4.36341C13.5375 3.44808 13.4285 2.45448 13.1489 1.75Z" fill="#FF7A00"/>
<path d="M13.1082 1.97138C13.1082 1.97138 15.0051 2.06212 15.451 1.99951C15.8969 1.9369 17.3252 0.915428 16.4608 0.0757072C16.112 -0.262449 15.4593 0.66446 14.8611 0.28105C14.263 -0.10236 13.1293 0.0572634 12.7405 0.523226C12.3505 0.98994 13.1082 1.97138 13.1082 1.97138Z" fill="#FFD556"/>
</svg>
