<svg width="35" height="45" viewBox="0 0 35 45" fill="none" xmlns="http://www.w3.org/2000/svg">
<path d="M26.2052 36.5896C26.6187 36.3257 27.1109 35.7897 27.3798 35.315C27.9508 35.5376 28.4878 35.8147 29.0432 36.0599C28.8049 36.4482 28.7128 36.6924 28.7145 37.2053C28.7163 37.4289 29.284 37.9718 29.388 38.1731C29.5571 38.5008 31.0527 39.742 30.4607 40.0758C29.4746 40.635 26.1192 38.6657 25.3873 37.7354C24.9989 37.253 25.7917 36.8536 26.2052 36.5896Z" fill="#0C3670"/>
<path d="M16.5702 21.9193C19.7109 21.101 24.4354 20.2064 28.7631 21.0735C33.5443 22.0353 34.6508 34.4776 30.5467 35.9921C26.4427 37.5065 26.7857 35.7875 25.9625 34.0624C25.1393 32.3403 27.922 27.2809 25.3659 27.0061C22.8098 26.7344 16.2868 29.7205 14.0887 26.942C11.8905 24.1665 13.4295 22.7376 16.5702 21.9193Z" fill="#0D3A78"/>
<path d="M25.2863 26.9932C22.5722 26.523 16.9768 30.1107 13.8361 26.8406C13.3946 26.3795 13.1739 26.3123 13.0785 25.6742C17.1915 26.0864 24.2424 22.7796 27.3205 23.9491C30.7922 25.2681 27.6426 30.4771 29.5455 32.3366C30.7058 33.4693 31.4186 33.0022 32.5938 33.5396C32.4625 34.651 30.9802 35.97 30.2643 36.1746C27.3921 36.999 26.3959 36.0372 25.8679 34.0892C25.34 32.1442 28.0005 27.4604 25.2863 26.9932Z" fill="#082A58"/>
<path d="M19.9019 40.4754C20.3203 40.0804 20.6251 39.3149 20.768 38.7199C21.3493 38.9503 21.9241 39.1915 22.5126 39.3986C22.3736 39.9404 22.3823 40.2563 22.5014 40.8618C22.5509 41.1263 23.2775 41.7658 23.414 41.9709C23.6377 42.3083 25.4274 43.5185 24.8078 43.9185C23.7791 44.5822 20.1258 42.8866 19.2388 41.9068C18.776 41.3934 19.4864 40.8712 19.9019 40.4754Z" fill="#0C3670"/>
<path d="M9.5912 20.7847C14.2599 22.531 20.1838 20.4232 23.7974 22.8334C27.411 25.2437 24.2883 33.8978 24.2427 37.7699C24.1972 41.6421 20.1454 40.5427 18.5913 38.2686C17.0372 35.9945 16.8391 32.391 17.7795 29.6709C15.0624 31.184 7.7456 28.3641 6.9874 25.7917C6.22919 23.2194 8.47083 22.3691 9.5912 20.7847Z" fill="#0D3A78"/>
<path d="M18.5978 38.2569C16.9909 36.0911 16.8429 32.311 17.7972 29.6972C14.7144 30.9462 8.22409 28.712 6.86262 25.696C6.28548 24.4186 7.37202 23.1697 7.84812 22.5942C9.37904 23.8922 9.68257 24.6699 11.2278 25.4585C13.5557 26.6456 15.5155 26.969 17.8675 26.5134C20.2194 26.0578 22.6936 27.6505 25.2184 25.2261C26.2241 28.4446 24.4265 34.3792 24.2647 37.6892C24.0671 41.9007 20.2046 40.4226 18.5978 38.2569Z" fill="#082A58"/>
<path d="M23.7627 16.7931C24.0871 16.3808 24.7062 16.3448 25.0305 16.5579C26.4524 17.5016 32.2589 16.6077 32.0643 18.4286C31.675 22.0731 24.0655 21.7936 22.722 20.4598C20.4378 18.1989 22.9545 17.8198 23.7627 16.7931Z" fill="#FFD556"/>
<path d="M21.3562 9.99609C22.2837 12.4479 23.8108 14.8204 25.0307 16.7531C26.2506 18.6859 26.015 20.35 23.3873 20.6339C20.7596 20.9179 16.6645 17.1745 16.7838 14.2708C16.9031 11.3701 19.832 11.6174 21.3562 9.99609Z" fill="#FFD556"/>
<path d="M31.9564 18.0871C32.89 18.3161 33.746 18.6764 34.3127 19.513C34.8794 20.3496 34.8108 22.0961 33.5223 21.9556C33.0033 21.9007 33.4865 20.7404 33.0212 20.4748C32.553 20.2122 31.9326 20.0748 31.6283 19.5863C31.3211 19.0947 31.6343 18.5115 31.9564 18.0871Z" fill="#FFD556"/>
<path d="M31.7151 19.6259C31.7174 19.5845 31.7186 19.5428 31.7186 19.501C21.2522 21.4579 19.9206 15.1783 18.5957 12.6183C18.4177 12.2744 16.9787 13.4791 16.8866 13.5389C16.8303 13.7583 16.7949 14.0008 16.7838 14.2705C16.6708 17.021 20.3392 20.5249 22.9599 20.6457C24.5533 21.6628 30.0161 21.8571 31.6283 19.586C31.6571 19.5995 31.6861 19.6128 31.7151 19.6259Z" fill="#FF7A00"/>
<path d="M9.03059 20.5785C7.69736 12.9818 10.2773 8.86283 11.6434 7.92546C15.2464 5.4492 21.4592 8.08423 22.2436 11.4551C22.7745 13.7329 18.8553 17.2717 18.6078 21.583C18.566 22.3097 18.2051 22.3708 18.2051 22.6761C15.2255 21.7601 9.21253 21.6105 9.03059 20.5785Z" fill="#4179C5"/>
<path d="M7.70411 22.5209C6.37088 14.9242 10.2781 8.86031 11.6412 7.92599C12.9983 6.99473 14.7282 6.7871 16.3984 7.07106C15.3396 7.78554 13.902 9.20534 13.7051 11.7121C13.5202 14.0662 12.7716 17.8096 13.1355 21.7606C10.5316 21.3026 7.83236 23.2476 7.70411 22.5209Z" fill="#22518F"/>
<path d="M13.6989 11.7766C12.5178 14.0789 9.09375 16.146 6.20657 18.4268C5.24617 19.184 2.91078 25.0067 2.74972 27.0128C2.72287 27.3517 2.91376 28.6066 2.17705 27.7059C-0.987502 23.8434 -0.349222 19.9474 2.35005 15.4956C4.15453 12.5186 7.79631 7.93555 11.7542 7.87449C14.3789 7.83174 15.2618 8.73247 13.6989 11.7766Z" fill="#FFD556"/>
<path d="M8.37589 16.7903C10.6318 15.1244 12.807 13.5182 13.7 11.7775C14.1151 10.9691 14.3576 10.3118 14.4409 9.7832C4.64594 14.2286 2.82678 19.7155 2.60938 28.0225C2.76887 27.9795 2.75861 27.5751 2.75091 27.2716C2.74828 27.1676 2.74594 27.0754 2.75083 27.0137C2.91189 25.0076 5.24728 19.1849 6.20769 18.4277C6.91192 17.8713 7.64811 17.3277 8.37589 16.7903Z" fill="#FF7A00"/>
<path d="M2.31277 26.3165C3.24982 26.544 4.10972 26.8998 4.68501 27.7342C5.26031 28.5686 5.21273 30.3137 3.92221 30.1769C3.40375 30.1232 3.87286 28.9607 3.4054 28.6995C2.93501 28.4388 2.31084 28.3016 2.00063 27.8171C1.69043 27.3325 1.99453 26.7421 2.31277 26.3165Z" fill="#FFD556"/>
<path d="M22.9258 2.46519C22.9258 2.46519 22.7389 0.769574 21.21 0.817399C19.0397 0.878268 18.6023 3.35648 19.0695 4.18255C19.7278 5.3347 20.488 4.89993 21.1845 4.37385C21.8853 3.84778 22.9258 2.46519 22.9258 2.46519Z" fill="#4179C4"/>
<path d="M20.0198 3.46305C20.0198 3.46305 21.4425 1.21962 22.4703 0.841366C23.8761 0.323984 24.4876 1.57179 24.2753 2.20656C24.0629 2.84133 22.7081 4.13695 22.3047 4.20217C21.897 4.26739 20.0198 3.46305 20.0198 3.46305Z" fill="#0C3670"/>
<path d="M19.1911 4.11523L16.7916 7.47604C16.6259 8.00211 18.9618 10.3586 19.9811 9.9499C20.2826 9.82817 20.3676 9.30209 20.3124 8.68036L19.8919 5.26304L19.1911 4.11523Z" fill="#FFD556"/>
<path d="M22.5951 3.89001C22.5951 3.89001 23.177 3.64654 22.9179 2.69438C22.6631 1.74223 19.3546 2.67699 18.9214 3.35959C18.2759 4.37696 18.4118 5.21607 18.4118 5.21607C18.4118 5.21607 21.9623 5.12912 22.5951 3.89001Z" fill="#0D3A78"/>
<path d="M20.309 3.11229L18.882 4.90356C18.4573 5.52963 18.5975 6.39049 19.2005 6.8383C19.6805 7.19917 20.0287 7.33395 20.7465 7.5209C21.3453 7.67307 21.8507 7.2296 22.1395 6.46005C22.5132 5.46442 22.5812 4.43835 22.5897 3.89054C22.6067 2.63404 21.3241 2.01666 20.309 3.11229Z" fill="#FFD556"/>
<path d="M20.9484 5.07227C20.9484 5.07227 21.3774 5.37661 22.0781 5.55486C22.0781 5.55486 21.9252 6.00703 21.6067 6.0592C21.2797 6.11138 20.9059 5.66791 20.9484 5.07227Z" fill="white"/>
<path d="M21.2134 6.82802C20.623 6.44542 19.7609 7.2454 18.9794 5.86282C18.8308 5.6063 18.8817 5.1411 18.9157 4.86719L18.886 4.90632C18.4613 5.53239 18.6014 6.39324 19.2045 6.84106C19.6844 7.20192 20.0327 7.3367 20.7547 7.52366C21.1199 7.61931 21.4512 7.48888 21.7188 7.19758C21.5913 7.16714 21.396 6.94541 21.2134 6.82802Z" fill="#0C3670"/>
<path d="M20.0523 3.95842C20.0735 3.8193 20.116 3.68017 20.167 3.54539C20.2604 3.29322 20.3453 2.89323 19.9079 2.93236C19.2708 2.99323 18.7994 4.22364 19.3728 4.56711C19.8017 4.82362 19.9971 4.31494 20.0523 3.95842Z" fill="#FFD556"/>
</svg>
