<svg width="34" height="91" viewBox="0 0 34 91" fill="none" xmlns="http://www.w3.org/2000/svg">
<path d="M16.4894 0.349609H15.918V13.4934H16.4894V0.349609Z" fill="#0D3A78"/>
<path d="M24.5618 32.0005C24.5618 32.0005 18.6821 25.9198 18.9437 24.0359C19.2053 22.1521 19.6775 18.8671 18.9267 17.1385C18.1746 15.4099 16.3564 17.3394 15.4486 19.7908C14.8247 21.4763 13.9143 24.6595 15.255 28.1076C16.5958 31.5557 19.7298 34.5367 21.2066 36.4923C22.448 38.1322 24.5618 32.0005 24.5618 32.0005Z" fill="#FF7A00"/>
<path d="M20.5471 27.3043C18.2371 27.0616 16.6491 28.6441 15.9336 29.5625C17.4614 32.3909 19.9415 34.8201 21.2076 36.4939C22.4477 38.1351 24.5615 32.0022 24.5615 32.0022C24.5615 32.0022 22.2096 29.5691 20.5471 27.3043Z" fill="#AED1FF"/>
<path d="M11.5336 90.6387C11.8803 90.6387 12.185 90.3895 12.2426 90.0373L16.4898 64.2466L21.9077 56.3068C22.1314 55.9793 22.0464 55.5332 21.7181 55.3101C21.3898 55.087 20.9424 55.1718 20.7187 55.4992L15.2105 63.5695C15.1517 63.6556 15.1124 63.7535 15.0954 63.8565L10.822 89.805C10.7579 90.1964 11.0235 90.5656 11.4159 90.6296C11.4551 90.6361 11.4944 90.6387 11.5336 90.6387Z" fill="#0C3670"/>
<path d="M23.6645 62.9414C24.0333 62.9414 24.3316 63.2389 24.3316 63.6068C24.3316 63.9747 24.0333 64.2721 23.6645 64.2721H13.7586L13.2969 62.9414H23.6645Z" fill="#0D3A78"/>
<path d="M6.09679 62.9414H13.2937L13.7554 64.2721H6.09679C5.72792 64.2721 5.42969 63.9747 5.42969 63.6068C5.42969 63.2402 5.72792 62.9414 6.09679 62.9414Z" fill="#0D3A78"/>
<path d="M32.1206 89.9201C32.1887 89.9201 32.2567 89.9097 32.3247 89.8875C32.6753 89.7753 32.8688 89.4009 32.7564 89.0512L20.2318 50.1284C20.1193 49.7788 19.7439 49.5857 19.3933 49.6979C19.0428 49.8101 18.8492 50.1845 18.9617 50.5342L31.4862 89.457C31.5765 89.7401 31.8381 89.9201 32.1206 89.9201Z" fill="#0C3670"/>
<path d="M16.2452 72.6432H26.3774C26.7462 72.6432 27.0445 72.3457 27.0445 71.9778C27.0445 71.6099 26.7462 71.3125 26.3774 71.3125H16.2452C15.8764 71.3125 15.5781 71.6099 15.5781 71.9778C15.5781 72.3457 15.8777 72.6432 16.2452 72.6432Z" fill="#0D3A78"/>
<path d="M19.1046 81.0162H28.9947C29.3636 81.0162 29.6619 80.7188 29.6619 80.3509C29.6619 79.983 29.3636 79.6855 28.9947 79.6855H19.1046C18.7357 79.6855 18.4375 79.983 18.4375 80.3509C18.4375 80.7188 18.7357 81.0162 19.1046 81.0162Z" fill="#0D3A78"/>
<path d="M1.2094 90.6367C1.55603 90.6367 1.86081 90.3876 1.91836 90.0353L6.16559 64.2446L11.5835 56.3048C11.8072 55.9774 11.7222 55.5312 11.3939 55.3081C11.0655 55.085 10.6182 55.1698 10.3945 55.4973L4.88632 63.5676C4.82746 63.6537 4.78822 63.7515 4.77121 63.8546L0.497824 89.8031C0.433729 90.1945 0.699263 90.5637 1.09168 90.6276C1.13092 90.6341 1.17016 90.6367 1.2094 90.6367Z" fill="#0C3670"/>
<path d="M9.09873 46.3283C9.77629 45.2873 10.9274 44.6937 12.5206 44.5645C14.9719 44.3649 17.1079 45.3421 18.6985 47.389C19.8692 48.8945 20.3283 50.447 20.3466 50.5122C20.4473 50.8579 20.2472 51.2193 19.9006 51.3197C19.5539 51.4202 19.1916 51.2219 19.0896 50.8762C19.0242 50.6557 17.4493 45.4725 12.6252 45.8652C11.4598 45.9604 10.6422 46.3531 10.1975 47.0354C9.29886 48.4105 10.0431 50.5879 10.0497 50.6087C10.0588 50.6361 10.0641 50.6635 10.0693 50.6909L22.4133 89.0527C22.5258 89.4024 22.3335 89.7768 21.9817 89.889C21.9137 89.9112 21.8456 89.9216 21.7776 89.9216C21.4951 89.9216 21.2335 89.7415 21.1432 89.4598C21.1432 89.4598 8.59774 50.8749 8.59905 50.2226C8.40415 49.2533 8.26027 47.6173 9.09873 46.3283Z" fill="#0C3670"/>
<path d="M20.8714 70.1589C20.5849 69.714 20.513 69.2287 20.4868 68.8321L19.0153 68.7969C19.0153 68.7969 19.1029 69.3031 18.8452 69.6905C18.7327 69.8588 18.4149 69.9801 17.974 70.1511C17.2769 70.4876 16.4149 70.9208 16.3795 71.1556C16.3207 71.5457 20.3795 71.6318 21.0624 71.2704C21.4221 71.0786 21.1853 70.6468 20.8714 70.1589Z" fill="#0D3A78"/>
<path d="M29.9998 78.372C29.6649 77.8841 29.5681 77.344 29.5262 76.9004L27.8794 76.9082C27.8794 76.9082 27.9945 77.4705 27.7198 77.9128C27.5995 78.1058 27.2476 78.2507 26.761 78.4568C25.9919 78.856 25.0436 79.3687 25.0122 79.6322C24.9598 80.0706 29.5001 80.034 30.2522 79.6048C30.6459 79.3817 30.3673 78.9069 29.9998 78.372Z" fill="#0D3A78"/>
<path d="M21.0508 45.5094C19.0704 47.7911 14.6833 50.0337 13.7572 54.1445C12.6898 58.8841 15.5413 67.2832 17.0063 68.7952C18.2032 70.0319 21.0613 69.7123 21.3124 68.7952C22.3759 64.9075 19.5649 57.6095 19.4511 56.6663C19.2693 55.1738 26.4688 52.2307 26.4688 52.2307L25.8906 46.0716C23.4498 45.0332 21.0508 45.5094 21.0508 45.5094Z" fill="#4179C5"/>
<path d="M30.1111 45.4023C30.1111 45.4023 31.0608 47.157 31.2622 48.3194C31.7422 51.1021 33.3799 66.6713 32.7887 71.934C32.1974 77.1968 29.5212 77.5099 27.6703 77.549C25.8194 77.5882 24.875 53.7909 24.875 51.4348C24.875 49.0787 25.2857 45.8472 25.2857 45.8472L30.1111 45.4023Z" fill="#4179C5"/>
<path d="M31.2627 48.3175C31.0625 47.1564 30.1116 45.4004 30.1116 45.4004L29.4092 45.4656C29.1371 45.7696 28.9422 46.1244 28.8951 46.5341C28.6897 48.3279 29.8016 55.1771 30.0305 57.0035C30.2594 58.83 28.2319 63.7222 29.2783 65.516C30.3248 67.3099 30.1613 69.4625 28.4608 70.6366C27.6799 71.1754 26.8611 71.6424 26.2031 71.9895C26.6034 75.2471 27.0926 77.5588 27.6708 77.5471C29.5216 77.5079 32.1992 77.1935 32.7891 71.9321C33.3804 66.6693 31.7427 51.1015 31.2627 48.3175Z" fill="#0D3A78"/>
<path d="M21.4905 33.0352C21.4905 33.0352 19.2956 34.2067 19.4578 34.3959C20.1301 35.1812 20.7475 35.8857 21.204 36.491C21.5075 36.8929 21.8646 36.8276 22.2295 36.5002L21.4905 33.0352Z" fill="#2C143D"/>
<path d="M30.3498 45.8624C30.5473 45.7345 33.2445 40.1299 33.459 38.5814C33.6068 37.509 33.2732 35.9056 30.508 34.5476C27.7428 33.1895 24.0999 31.1778 22.1522 31.6318C19.1529 32.331 21.3295 44.7678 21.0522 45.5088C21.0509 45.5088 25.7834 46.8499 30.3498 45.8624Z" fill="#AED1FF"/>
<path d="M23.1423 35.2407C21.9611 32.5571 19.2861 28.7346 18.4359 27.5918C17.2508 28.0615 16.4006 28.9538 15.9297 29.5591C17.4575 32.3875 19.9375 34.8167 21.2037 36.4905C21.7636 37.2315 22.5013 36.3887 23.1423 35.2407Z" fill="#87B3EE"/>
<path d="M30.5082 34.5477C30.0098 34.3025 29.4827 34.0363 28.9411 33.7676C28.877 34.8674 28.6756 38.1536 28.4075 40.5985C28.1799 42.6702 27.9143 44.648 28.274 46.1639C28.9581 46.1078 29.6553 46.0126 30.3499 45.8625C30.5474 45.7347 33.2446 40.1301 33.4591 38.5816C33.6056 37.5079 33.2721 35.9058 30.5082 34.5477Z" fill="#87B3EE"/>
<path d="M27.9693 28.7681C27.9693 28.7681 27.3769 28.0327 27.8426 26.8756C28.3083 25.7185 30.3774 25.8204 30.7675 26.5314C31.1576 27.2423 31.4374 27.5621 31.7071 27.9125C31.9767 28.2629 32.1748 29.5157 31.7622 30.1778C31.3476 30.8399 30.4897 31.9338 29.6421 31.9684C28.7965 32.0031 27.4607 29.7276 27.9693 28.7681Z" fill="#0D3A78"/>
<path d="M30.0274 30.7559L29.3493 34.0071C29.1225 34.4043 26.3529 34.2597 26.02 33.396C25.9219 33.1434 26.1956 32.795 26.6062 32.4854L28.9367 30.8496L30.0274 30.7559Z" fill="#FFD556"/>
<path d="M28.467 31.1797C28.949 31.3569 29.6087 31.5912 29.6087 31.5912C29.6087 31.5912 29.1655 32.2614 28.2525 32.4284C27.7684 32.516 27.315 32.4305 26.9453 32.2471L28.467 31.1797Z" fill="#0D3A78"/>
<path d="M30.0143 29.3912L29.7325 31.2735C29.5895 31.8867 28.987 32.2757 28.3681 32.1515C27.8738 32.0517 27.5919 31.9111 27.069 31.5668C26.634 31.2796 26.6177 30.7173 26.922 30.1103C27.3162 29.3239 27.9044 28.7128 28.2374 28.4032C28.9972 27.6983 30.1062 28.1526 30.0143 29.3912Z" fill="#FFD556"/>
<path d="M28.3658 30.0452C28.3658 30.0452 27.9348 29.9475 27.4262 29.6113C27.4262 29.6113 27.2342 29.9556 27.3874 30.1858C27.5406 30.414 28.0267 30.4017 28.3658 30.0452Z" fill="white"/>
<path d="M27.2287 30.897C27.7985 31.0519 27.8006 32.0317 29.0955 31.7506C29.3365 31.6976 29.5939 31.4104 29.741 31.2352L29.7348 31.2759C29.5918 31.8891 28.9893 32.2782 28.3704 32.1539C27.8761 32.0541 27.5943 31.9136 27.0714 31.5693C26.8059 31.3941 26.6976 31.117 26.7221 30.7891C26.8059 30.8502 27.0551 30.8502 27.2287 30.897Z" fill="#FF7A00"/>
<path d="M29.8046 28.4863C29.8046 28.4863 29.9006 29.2849 29.7005 29.5904C29.5003 29.896 29.3879 30.0101 29.4513 30.1507C29.5146 30.2912 29.9517 30.2016 30.113 29.8614C30.2744 29.5212 30.5563 28.6147 29.8046 28.4863Z" fill="#0D3A78"/>
<path d="M29.5899 30.1883C29.6634 30.0967 29.7226 29.9948 29.7757 29.8889C29.8758 29.6892 30.0739 29.4142 30.2966 29.7096C30.6234 30.1394 30.027 31.1763 29.4898 31.0093C29.0915 30.8871 29.404 30.4206 29.5899 30.1883Z" fill="#FFD556"/>
<path d="M30.7941 34.6956C30.7012 34.6461 30.6057 34.5978 30.5076 34.5482C30.2015 34.3982 29.885 34.239 29.5606 34.0772L27.4454 38.6303C27.4454 38.6303 23.6443 38.2676 23.3002 37.6192C22.9575 36.9722 25.919 32.3891 25.9294 32.3734C25.4023 32.1595 24.8882 31.9742 24.4029 31.8359C24.4029 31.8359 21.4572 35.344 20.5625 38.0224C20.6632 41.4796 21.1969 45.1181 21.0517 45.5095C21.0517 45.5095 24.7195 47.7208 28.5978 46.681C28.8738 45.0881 29.9425 36.205 30.7941 34.6956Z" fill="#4179C5"/>
<path d="M18.8918 17.623C18.8918 17.623 19.9303 16.6367 19.8087 16.3328C19.6871 16.0301 19.4032 16.4228 19.1377 16.4658C18.8721 16.5089 19.5235 14.7072 19.1128 14.4215C18.7021 14.1358 17.3849 16.1906 17.4948 17.1247C17.5785 17.8331 17.8636 18.3001 18.2011 18.2766C18.4392 18.2597 18.8918 17.623 18.8918 17.623Z" fill="#FFD556"/>
<path d="M27.5357 38.4398L27.4468 38.6315C27.4468 38.6315 23.6456 38.2689 23.3016 37.6205C23.2976 37.6126 23.2963 37.6009 23.2924 37.5918C22.3663 37.4535 21.5017 37.3439 20.8581 37.2656C20.7443 37.5226 20.6449 37.777 20.5625 38.0236C20.5769 38.5076 20.5991 38.9955 20.6279 39.4782C22.4579 39.8944 26.3388 40.595 28.4082 39.6204C29.2963 39.203 28.7234 38.7972 27.5357 38.4398Z" fill="#0D3A78"/>
<path d="M31.8119 35.9302C30.1297 35.2844 25.2219 35.1591 23.1277 35.2413C22.5954 35.2622 22.1297 34.8917 22.029 34.3699C21.719 32.7561 20.5901 30.4965 19.3684 28.8357C18.7327 27.9708 17.5921 27.1737 16.6529 27.6955C16.1519 27.9734 15.4443 35.2713 20.7563 38.5694C22.6961 39.7735 29.5607 40.144 31.3514 39.8374C33.9231 39.3978 33.269 36.4898 31.8119 35.9302Z" fill="#FFD556"/>
<path d="M21.4939 37.2504C20.6006 37.1851 18.9001 35.8375 18.8347 34.6946C18.7693 33.5531 18.3546 33.1409 17.4835 31.8363C16.8988 30.9609 16.5456 29.4984 16.3756 28.6309C16.1113 30.7561 16.5168 35.9366 20.7562 38.5693C22.5338 39.673 28.4515 40.0761 30.8046 39.9C29.9596 39.4591 28.6359 38.7233 27.9034 38.0762C26.7693 37.0768 22.3873 37.3156 21.4939 37.2504Z" fill="#FF7A00"/>
<path d="M17.4618 28.3665C17.845 27.7925 18.0059 27.1206 17.9274 26.4618C17.8934 26.1735 17.883 25.8734 17.9601 25.7338C18.176 25.3398 17.5847 25.4547 17.4199 26.0169C17.3414 26.2857 17.1622 26.4931 17.1478 26.227C17.1335 25.9608 17.7142 24.5245 17.2132 24.8806C16.3264 25.5121 15.9955 26.6549 16.4834 27.7821C16.6913 28.2674 17.2002 28.7579 17.4618 28.3665Z" fill="#FFD556"/>
<path d="M31.8112 35.9304C30.7098 35.5077 28.2271 35.3081 26.0557 35.2441C25.7222 36.0334 24.9845 38.0438 25.3128 39.6876C27.7457 39.9694 30.3488 40.0112 31.3533 39.8389C33.9223 39.398 33.2683 36.49 31.8112 35.9304Z" fill="#AED1FF"/>
<path d="M16.2628 23.164C18.123 23.164 19.631 21.66 19.631 19.8047C19.631 17.9493 18.123 16.4453 16.2628 16.4453C14.4025 16.4453 12.8945 17.9493 12.8945 19.8047C12.8945 21.66 14.4025 23.164 16.2628 23.164Z" fill="#FFFCEE"/>
<path d="M12.54 14.2575L4.12662 18.4153C3.70542 18.6227 3.85454 19.2555 4.32413 19.2555H28.196C28.6656 19.2555 28.8134 18.624 28.3935 18.4153L19.9801 14.2575C17.6361 13.0991 14.884 13.0991 12.54 14.2575Z" fill="#4179C5"/>
<path d="M28.3919 18.4172L19.9785 14.2595C18.851 13.7024 17.628 13.4154 16.4023 13.3945C16.4978 13.6268 16.6522 13.9659 16.902 14.4643C17.6437 15.9424 18.8209 15.1805 18.5148 16.3221C18.3173 17.0592 18.8471 18.1172 19.0472 19.2548H28.1944C28.664 19.2561 28.8131 18.6247 28.3919 18.4172Z" fill="#0D3A78"/>
<path d="M22.8028 52.581C21.5601 52.9724 19.7668 54.6254 18.8106 54.8863C17.8544 55.1472 17.0474 55.1902 17.2436 57.0819C17.4398 58.9736 19.309 60.757 18.8106 62.6265C18.3829 64.2311 16.4993 65.5814 15.2266 65.2513C15.84 66.9578 16.5032 68.2806 17.0029 68.7972C18.1998 70.034 21.0578 69.7144 21.309 68.7972C22.3724 64.9095 19.5614 57.6116 19.4476 56.6684C19.3208 55.6247 22.8015 53.8726 24.9074 52.9124C24.9074 52.9124 24.0454 52.1897 22.8028 52.581Z" fill="#0D3A78"/>
<path d="M32.8216 36.9082C32.6254 37.3935 32.1244 37.8762 31.2179 38.1215C29.9321 38.4698 29.8667 38.4698 28.7863 37.8384C27.7097 37.2096 25.405 37.3687 25.3879 37.37C25.2349 38.1189 25.163 38.9408 25.3134 39.687C27.7464 39.9688 30.3494 40.0105 31.354 39.8383C33.1669 39.5278 33.371 37.9845 32.8216 36.9082Z" fill="#87B3EE"/>
</svg>
