<svg width="43" height="82" viewBox="0 0 43 82" fill="none" xmlns="http://www.w3.org/2000/svg">
<path d="M28.8514 81.3923C28.4202 81.3923 28.0411 81.0827 27.9695 80.6449L22.6868 48.5953L15.9479 38.7286C15.6697 38.3217 15.7754 37.7673 16.1838 37.49C16.5922 37.2128 17.1486 37.3182 17.4268 37.7251L24.2779 47.7539C24.3512 47.8609 24.4 47.9825 24.4211 48.1106L29.7364 80.3564C29.8161 80.8427 29.4859 81.3015 28.9978 81.381C28.949 81.3891 28.9002 81.3923 28.8514 81.3923Z" fill="#0C3670"/>
<path d="M13.7609 46.9744C13.3021 46.9744 12.9312 47.3441 12.9312 47.8012C12.9312 48.2584 13.3021 48.628 13.7609 48.628H26.082L26.6563 46.9744H13.7609Z" fill="#0C3670"/>
<path d="M35.607 46.9744H26.6563L26.082 48.628H35.607C36.0658 48.628 36.4367 48.2584 36.4367 47.8012C36.4367 47.3457 36.0658 46.9744 35.607 46.9744Z" fill="#0C3670"/>
<path d="M3.00238 81.2387C2.91778 81.2387 2.83318 81.2257 2.74858 81.1981C2.31255 81.0587 2.07176 80.5934 2.21168 80.1589L17.7899 31.7902C17.9298 31.3558 18.3968 31.1158 18.8328 31.2552C19.2688 31.3947 19.5096 31.8599 19.3697 32.2944L3.79146 80.6631C3.6792 81.0149 3.35381 81.2387 3.00238 81.2387Z" fill="#0C3670"/>
<path d="M22.995 59.0302H10.3925C9.93369 59.0302 9.56274 58.6605 9.56274 58.2033C9.56274 57.7462 9.93369 57.3765 10.3925 57.3765H22.995C23.4538 57.3765 23.8247 57.7462 23.8247 58.2033C23.8247 58.6605 23.4522 59.0302 22.995 59.0302Z" fill="#0C3670"/>
<path d="M19.4398 69.4323H7.13829C6.67949 69.4323 6.30854 69.0626 6.30854 68.6054C6.30854 68.1483 6.67949 67.7786 7.13829 67.7786H19.4398C19.8986 67.7786 20.2695 68.1483 20.2695 68.6054C20.2695 69.0626 19.8986 69.4323 19.4398 69.4323Z" fill="#0C3670"/>
<path d="M41.6897 81.3922C41.2586 81.3922 40.8795 81.0825 40.8079 80.6448L35.5251 48.5951L28.7862 38.7285C28.508 38.3215 28.6138 37.7671 29.0221 37.4899C29.4305 37.2126 29.9869 37.318 30.2651 37.7249L37.1163 47.7537C37.1895 47.8607 37.2383 47.9823 37.2595 48.1104L42.5748 80.3562C42.6545 80.8426 42.3242 81.3014 41.8361 81.3808C41.7873 81.3889 41.7385 81.3922 41.6897 81.3922Z" fill="#0C3670"/>
<path d="M31.6873 27.0887C30.8445 25.795 29.4128 25.0574 27.4311 24.8969C24.3822 24.6488 21.7253 25.8631 19.747 28.4068C18.2908 30.2777 17.7198 32.2069 17.697 32.288C17.5717 32.7176 17.8206 33.1666 18.2518 33.2915C18.6829 33.4163 19.1336 33.1699 19.2605 32.7403C19.3418 32.4663 21.3007 26.0252 27.301 26.5132C28.7506 26.6316 29.7675 27.1195 30.3206 27.9674C31.4383 29.6762 30.5126 32.382 30.5045 32.4079C30.4931 32.442 30.4866 32.476 30.4801 32.5101L15.1264 80.1816C14.9865 80.6161 15.2256 81.0814 15.6633 81.2208C15.7479 81.2484 15.8325 81.2614 15.9171 81.2614C16.2685 81.2614 16.5939 81.0376 16.7062 80.6874C16.7062 80.6874 32.3104 32.7386 32.3088 31.928C32.5512 30.7235 32.7302 28.6905 31.6873 27.0887Z" fill="#0C3670"/>
<path d="M17.2465 11.045C17.2465 11.045 17.9559 19.2723 19.5109 20.2858C21.0658 21.2993 23.7874 23.0547 24.5791 24.7149C25.37 26.3762 22.7838 26.4808 20.3969 25.5802C18.7558 24.9608 15.8282 23.5935 14.1484 20.3974C12.4686 17.2013 12.2821 12.9825 11.7885 10.6418C11.3765 8.67677 17.2465 11.045 17.2465 11.045Z" fill="#FFD556"/>
<path d="M24.0284 26.035C23.2035 26.2854 21.7669 26.0997 20.396 25.5825C18.7549 24.9631 15.8274 23.5958 14.1476 20.3997C12.9068 18.039 12.4807 15.1202 12.1439 12.8125C12.0247 11.9959 11.9167 11.2559 11.7876 10.6441C11.5989 9.74367 12.7291 9.75312 14.0092 10.0276C14.3015 13.2465 15.069 18.6304 16.4011 20.5362C17.4462 22.0312 19.8038 23.3463 21.6241 24.3617C22.924 25.0868 23.9499 25.6592 24.0284 26.035Z" fill="#FF7A00"/>
<path d="M18.1337 17.0094C16.8319 18.8674 14.6489 19.0245 13.514 18.9638C12.4104 16.0266 12.211 12.6432 11.79 10.6382C11.3762 8.67329 17.2471 11.0424 17.2471 11.0424C17.2471 11.0424 17.5315 14.3338 18.1337 17.0094Z" fill="#AED1FF"/>
<path d="M13.951 10.0107C15.1701 12.5997 16.2705 17.0189 16.5672 18.3774C15.4618 18.9501 14.2598 19.0054 13.5122 18.9649C12.4086 16.0277 12.2093 12.6443 11.7882 10.6393C11.6014 9.75214 12.6948 9.74803 13.951 10.0107Z" fill="#87B3EE"/>
<path d="M24.7549 26.1777C24.7549 26.1777 26.109 26.525 26.2975 26.2666C26.4849 26.009 26.0129 25.978 25.8398 25.7807C25.6666 25.5834 27.4948 25.1874 27.5185 24.6994C27.5421 24.2115 25.1595 24.1882 24.4435 24.7637C23.9007 25.2005 23.662 25.6786 23.8563 25.9456C23.9936 26.1337 24.7549 26.1777 24.7549 26.1777Z" fill="#FFD556"/>
<path d="M17.2364 55.9425C17.5927 55.3897 17.6822 54.7866 17.7148 54.2938L19.5451 54.25C19.5451 54.25 19.4361 54.879 19.7566 55.3605C19.8965 55.5697 20.2919 55.7204 20.8402 55.9328C21.7073 56.3511 22.7795 56.8893 22.8234 57.1811C22.8966 57.6659 17.8482 57.7729 16.9989 57.3238C16.5515 57.0855 16.8459 56.5489 17.2364 55.9425Z" fill="#0D3A78"/>
<path d="M17.0123 25.3112C19.4756 28.1467 24.9324 30.9335 26.0843 36.042C27.4119 41.9318 23.8651 52.3691 22.0429 54.2481C20.5542 55.785 16.9993 55.3878 16.6869 54.2481C15.3642 49.4169 18.8606 40.3479 19.0021 39.1758C19.2283 37.3211 10.2734 33.6637 10.2734 33.6637L10.9925 26.0099C14.0285 24.7195 17.0123 25.3112 17.0123 25.3112Z" fill="#4179C5"/>
<path d="M5.88566 66.149C6.30216 65.5427 6.42256 64.8715 6.47462 64.3203L8.52297 64.33C8.52297 64.33 8.3798 65.0288 8.72146 65.5784C8.87114 65.8183 9.3088 65.9983 9.91403 66.2544C10.8707 66.7505 12.0502 67.3876 12.0893 67.7151C12.1544 68.2599 6.50716 68.2145 5.57165 67.6811C5.08194 67.4039 5.42848 66.8137 5.88566 66.149Z" fill="#0D3A78"/>
<path d="M5.74116 25.1758C5.74116 25.1758 4.55998 27.3563 4.30943 28.8008C3.71233 32.2588 1.67537 51.6063 2.41076 58.1463C3.14614 64.6862 6.47492 65.0753 8.77708 65.1239C11.0792 65.1726 12.2539 35.6001 12.2539 32.6722C12.2539 29.7443 11.743 25.7286 11.743 25.7286L5.74116 25.1758Z" fill="#4179C5"/>
<path d="M4.30845 28.7988C4.55737 27.356 5.74018 25.1738 5.74018 25.1738L6.61386 25.2549C6.95227 25.6326 7.19469 26.0736 7.25326 26.5827C7.5087 28.8118 6.12577 37.3232 5.84105 39.5928C5.55633 41.8625 8.07813 47.9421 6.77656 50.1712C5.47498 52.4004 5.67836 55.0754 7.79341 56.5345C8.76471 57.204 9.7832 57.7844 10.6016 58.2156C10.1037 62.2638 9.49522 65.1366 8.7761 65.122C6.47394 65.0733 3.14354 64.6826 2.40978 58.1443C1.67439 51.6044 3.71135 32.2585 4.30845 28.7988Z" fill="#0D3A78"/>
<path d="M5.44766 25.7517C5.20198 25.5928 1.84718 18.6281 1.58035 16.7037C1.39651 15.3711 1.81138 13.3786 5.25079 11.691C8.6902 10.0033 13.2213 7.50338 15.6439 8.06756C19.3745 8.93653 16.6672 24.3915 17.0121 25.3123C17.0138 25.3123 11.1274 26.9789 5.44766 25.7517Z" fill="#AED1FF"/>
<path d="M5.25176 11.6902C5.87164 11.3854 6.5273 11.0547 7.20087 10.7207C7.28059 12.0874 7.53114 16.1712 7.86467 19.2093C8.14776 21.7838 8.47804 24.2416 8.03062 26.1254C7.17972 26.0557 6.31255 25.9373 5.44863 25.7509C5.20295 25.592 1.84815 18.6273 1.58132 16.703C1.3991 15.3687 1.81398 13.3779 5.25176 11.6902Z" fill="#87B3EE"/>
<path d="M10.2234 5.02746C10.2234 5.02746 11.0525 4.34286 10.8218 2.94839C10.5911 1.55392 8.29381 1.19761 7.69276 1.90089C7.09171 2.60417 6.70674 2.89686 6.32557 3.2259C5.94439 3.55494 5.42271 4.90535 5.7152 5.73641C6.00993 6.56795 6.68668 7.98111 7.6093 8.21213C8.52968 8.44268 10.5492 6.21158 10.2234 5.02746Z" fill="#0D3A78"/>
<path d="M7.52425 6.76094L7.47985 10.5461C7.63291 11.0413 10.7192 11.5103 11.2963 10.6215C11.4658 10.3617 11.249 9.91041 10.8722 9.47117L8.70299 7.11387L7.52425 6.76094Z" fill="#FFD556"/>
<path d="M9.1319 7.58957C8.55627 7.67816 7.77046 7.79011 7.77046 7.79011C7.77046 7.79011 8.09642 8.64326 9.06402 9.03939C9.57728 9.24834 10.099 9.25604 10.552 9.13491L9.1319 7.58957Z" fill="#0D3A78"/>
<path d="M7.84936 5.26733L7.70201 7.42891C7.71023 8.14468 8.27802 8.71513 8.98845 8.71723C9.556 8.71828 9.89996 8.62567 10.5583 8.3608C11.1063 8.13954 11.2608 7.51671 11.0737 6.7711C10.8314 5.80531 10.3333 4.99067 10.0425 4.56999C9.37856 3.61196 8.04916 3.86625 7.84936 5.26733Z" fill="#FFD556"/>
<path d="M9.50733 6.36971C9.50733 6.36971 10.0066 6.35864 10.6496 6.09872C10.6496 6.09872 10.7775 6.52752 10.5524 6.75002C10.3278 6.97024 9.79451 6.84571 9.50733 6.36971Z" fill="white"/>
<path d="M10.5705 7.56507C9.90327 7.60846 9.66185 8.70761 8.30003 8.09592C8.04672 7.98135 7.83255 7.60014 7.71286 7.36989L7.70968 7.41701C7.71796 8.13784 8.28857 8.71231 9.00253 8.71443C9.5729 8.71547 9.91857 8.62221 10.5802 8.35546C10.9163 8.21959 11.1035 7.93345 11.1564 7.55977C11.049 7.6092 10.7738 7.5522 10.5705 7.56507Z" fill="#FF7A00"/>
<path d="M8.281 4.29477C8.281 4.29477 7.98258 5.16106 8.12794 5.54627C8.2733 5.93148 8.36878 6.08382 8.26539 6.22577C8.162 6.36773 7.7048 6.16893 7.61034 5.75401C7.51588 5.33909 7.42643 4.26705 8.281 4.29477Z" fill="#0D3A78"/>
<path d="M8.11233 6.23603C8.05377 6.1172 8.01339 5.99028 7.98074 5.86021C7.9192 5.61508 7.76821 5.26372 7.4518 5.54219C6.98825 5.94679 7.39205 7.23736 8.02303 7.17331C8.49047 7.12762 8.26024 6.53695 8.11233 6.23603Z" fill="#FFD556"/>
<path d="M4.89495 11.872C5.01047 11.8104 5.12924 11.7505 5.25126 11.6888C5.63197 11.5024 6.0257 11.3046 6.42918 11.1036L9.05999 16.7616C9.05999 16.7616 13.788 16.3109 14.2159 15.5052C14.6421 14.701 10.9587 9.00575 10.9456 8.9863C11.6013 8.72042 12.2407 8.49021 12.8443 8.31836C12.8443 8.31836 16.5082 12.6778 17.6211 16.0061C17.4958 20.3023 16.832 24.8239 17.0126 25.3102C17.0126 25.3102 12.4506 28.0582 7.62663 26.7661C7.28334 24.7866 5.95411 13.7478 4.89495 11.872Z" fill="#356DBA"/>
<path d="M14.8344 34.0956C16.38 34.5819 18.6106 36.636 19.7999 36.9602C20.9892 37.2845 21.9931 37.338 21.749 39.6887C21.505 42.0395 19.18 44.2557 19.7999 46.5789C20.3319 48.573 22.6748 50.2509 24.2578 49.8407C23.4948 51.9613 22.6699 53.6052 22.0484 54.2472C20.5597 55.7841 17.0048 55.3869 16.6924 54.2472C15.3697 49.416 18.866 40.3469 19.0076 39.1748C19.1654 37.8778 14.836 35.7006 12.2166 34.5074C12.2166 34.5074 13.2888 33.6092 14.8344 34.0956Z" fill="#0D3A78"/>
<path d="M4.73951 13.188C7.23433 13.421 13.4284 16.2947 15.9879 17.6901C16.6385 18.0448 17.4474 17.8701 17.8948 17.2813C19.2764 15.4596 22.0769 13.3379 24.6238 12.0204C25.9495 11.3339 27.8628 11.0437 28.7115 12.2745C29.1645 12.9305 25.5457 22.4711 16.8911 23.3057C13.7308 23.6102 4.94648 19.8344 2.90368 18.3464C-0.0303464 16.2103 2.57819 12.9865 4.73951 13.188Z" fill="#FFD556"/>
<path d="M16.7848 21.1999C17.9385 21.6701 20.8891 21.0388 21.6754 19.6536C22.4609 18.27 23.2319 18.0117 25.1223 16.9221C26.3909 16.1911 27.733 14.5848 28.48 13.6076C27.4987 16.4217 23.7983 22.6339 16.8909 23.3007C13.9946 23.58 6.37055 20.4295 3.54626 18.757C4.87138 18.7286 6.97502 18.628 8.28706 18.2731C10.3168 17.7266 15.6311 20.7297 16.7848 21.1999Z" fill="#FF7A00"/>
<path d="M34.2109 3.20606C34.1263 3.21669 34.0364 3.17848 33.986 3.10213C33.9138 2.99353 33.9426 2.8493 34.0483 2.77842L36.3328 1.25796C36.4386 1.18708 36.5816 1.21928 36.6539 1.32787C36.7261 1.43647 36.6973 1.5807 36.5915 1.65158L34.307 3.17204C34.2772 3.19014 34.2425 3.20144 34.2109 3.20606Z" fill="white"/>
<path d="M32.2651 2.90889C32.2651 2.90889 32.5793 2.28689 33.5945 2.23956C34.6096 2.19223 34.9679 3.92052 34.2412 4.45185C33.5119 4.98398 31.5094 4.0276 32.2651 2.90889Z" fill="#A0C0EA"/>
<path d="M26.8427 8.05181C26.8427 8.05181 26.4644 7.12347 27.1801 6.21095C27.8983 5.29763 30.7407 2.31011 32.1772 2.70153C33.6138 3.09296 34.0452 4.39045 33.8906 5.27157C33.736 6.15268 30.6429 7.77034 30.6769 8.52929C30.7109 9.28824 29.453 10.0037 30.5377 11.2511C30.6799 11.4136 31.2597 10.8202 31.2597 10.8202C31.5708 10.5583 32.003 10.4936 32.3843 10.651L33.0674 10.9331C33.4834 11.1043 33.7659 11.5049 33.7777 11.9541C33.7901 12.3726 33.7669 12.8722 33.63 13.1805C33.3546 13.7922 31.4333 15.0641 30.7642 15.1888C30.0934 15.3169 28.3245 14.7995 28.1417 13.883C27.9596 12.9606 26.8427 8.05181 26.8427 8.05181Z" fill="#0D3A78"/>
<path d="M32.8265 3.94575C32.0095 3.6212 28.9237 6.88351 28.7199 7.97451C28.516 9.0655 29.7405 13.4167 29.9907 14.0219C30.24 14.6246 30.9341 14.8028 30.9341 14.8028C31.1707 14.8318 31.3956 14.8341 31.6037 14.8112C32.4188 14.3586 33.4356 13.5962 33.6291 13.1642C33.7667 12.8586 33.7899 12.3594 33.7775 11.9411C33.7734 11.8397 33.757 11.7422 33.7283 11.6487C33.6056 11.544 33.4625 11.468 33.2958 11.4275C32.9096 11.3358 31.849 12.1873 31.849 12.1873C31.849 12.1873 30.6881 11.3934 30.4905 10.9851C29.8826 9.72339 30.7142 9.27933 30.6811 8.52337C30.6471 7.76489 33.7375 6.14831 33.892 5.26775C33.9006 5.21218 33.9092 5.15661 33.9137 5.09683C33.6991 4.61348 33.3189 4.142 32.8265 3.94575Z" fill="#5C90D7"/>
<path d="M4.73452 13.1893C6.36846 13.3448 9.58885 14.633 12.3374 15.8974C12.2687 17.0864 11.9541 20.0455 10.5345 21.8885C7.3256 20.7334 4.05203 19.1743 2.90437 18.3381C-0.0301961 16.1991 2.57248 12.9841 4.73452 13.1893Z" fill="#AED1FF"/>
<path d="M2.87857 13.7861C2.82381 14.5126 3.15053 15.4241 4.12906 16.2897C5.51683 17.518 5.59834 17.5584 7.33439 17.4378C9.06393 17.318 11.8384 18.9394 11.8587 18.9515C11.5877 19.9802 11.1704 21.0498 10.5227 21.8879C7.3166 20.7373 4.04656 19.1824 2.90069 18.3473C0.832585 16.8408 1.53007 14.7895 2.87857 13.7861Z" fill="#87B3EE"/>
<path d="M32.235 12.0763C32.4965 10.1744 32.0959 9.91152 30.8727 9.16247C31.3648 8.7712 31.1069 8.27407 30.9164 8.07442C30.594 8.60278 29.9208 9.74884 29.8078 10.1062C29.6665 10.5528 29.275 11.092 27.9538 11.2438C27.6139 10.7036 27.3933 10.1929 27.3255 10.005C27.3255 10.005 26.3417 10.9725 25.9378 11.8196C25.5339 12.6667 26.5712 14.4571 27.5149 14.4955C28.4585 14.534 29.7751 13.9708 30.2265 13.9892C30.6778 14.0076 31.9735 13.9781 32.235 12.0763Z" fill="#FFD556"/>
</svg>
