<svg width="34" height="62" viewBox="0 0 34 62" fill="none" xmlns="http://www.w3.org/2000/svg">
<path d="M26.3603 8.93159L26.3047 8.71483C26.3047 8.71483 26.9078 8.01418 27.5817 8.16876C28.2555 8.32334 27.9051 9.12145 27.9051 9.12145L26.3603 8.93159Z" fill="#FFD556"/>
<path d="M28.0446 7.46006C27.9115 7.41974 27.8357 7.2786 27.8761 7.14586L28.4876 5.1363C28.6039 4.75152 28.3865 4.34491 28.0008 4.22897L25.1132 3.35357C24.5876 3.19395 24.2894 2.63779 24.4495 2.11356L24.7022 1.28352C24.8841 0.685358 25.5209 0.345951 26.1207 0.527416L27.4246 0.922271C27.5577 0.962596 27.6335 1.10374 27.5931 1.23648C27.5526 1.36921 27.4111 1.44482 27.278 1.4045L25.9741 1.00964C25.6405 0.90883 25.2868 1.09702 25.1857 1.4297L24.933 2.25974C24.8538 2.51849 25.0004 2.79237 25.2598 2.87134L28.1473 3.74674C28.7993 3.94333 29.1682 4.63391 28.9711 5.28416L28.3596 7.29372C28.3192 7.42478 28.1777 7.50039 28.0446 7.46006Z" fill="white"/>
<path d="M32.9438 1.56392L27.9572 0.0533944C27.3036 -0.144873 26.6078 0.226459 26.409 0.878389C26.2102 1.53032 26.5825 2.22425 27.2362 2.42252L32.2228 3.93305C32.8764 4.13132 33.5722 3.75999 33.771 3.10806C33.9698 2.45613 33.5975 1.76219 32.9438 1.56392Z" fill="white"/>
<path d="M28.1318 7.21796C27.783 7.11211 27.4124 7.31037 27.3063 7.65818L26.095 11.6739C25.9889 12.0217 26.1876 12.3914 26.5364 12.4973C26.8851 12.6031 27.2557 12.4048 27.3619 12.057L28.5732 8.04127C28.6793 7.69347 28.4805 7.32382 28.1318 7.21796Z" fill="#A0C9FF"/>
<path d="M28.444 7.41992C28.289 7.89543 27.9807 8.78091 27.7061 9.26314C27.4719 9.67144 27.0154 9.72856 26.6852 9.7084L26.0989 11.6726C25.9928 12.0204 26.1916 12.3901 26.5403 12.4959C26.889 12.6018 27.2596 12.4035 27.3658 12.0557L28.5771 8.03993C28.6428 7.81646 28.5855 7.58627 28.444 7.41992Z" fill="white"/>
<path d="M33.7236 2.26006C33.3277 2.41632 32.2714 3.14554 31.7728 2.98424C31.1595 2.78429 31.4948 1.69214 29.3081 2.29703C28.4405 2.5373 27.5072 1.56108 26.9411 1.34601C26.6632 1.24016 26.4795 1.29393 26.3633 1.37458C26.4189 1.85008 26.7491 2.2735 27.2343 2.42136L32.2209 3.93189C32.8745 4.13016 33.5703 3.75883 33.7691 3.1069C33.8601 2.8179 33.8365 2.5205 33.7236 2.26006Z" fill="#FFCB9C"/>
<path d="M7.90153 10.1934C7.90153 10.1934 8.2351 10.6201 8.36482 11.1713C8.49285 11.7224 8.23173 12.3777 7.70274 12.5558C7.33211 12.6801 6.36173 12.2012 6.42912 11.4552C6.49651 10.7092 7.90153 10.1934 7.90153 10.1934Z" fill="#FFD556"/>
<path d="M6.9375 12.3518C7.21042 12.5332 7.52713 12.6139 7.70571 12.5534C8.09823 12.4207 8.34251 12.0275 8.39137 11.6074C8.12519 11.8964 7.64506 12.2812 6.9375 12.3518Z" fill="#FF7A00"/>
<path d="M5.62399 14.731C6.40231 16.4953 5.74192 18.4847 4.50369 22.9743C6.65838 23.0331 7.27949 18.0835 8.96416 18.2112C10.1148 18.2985 9.51673 19.7486 9.51673 19.7486C6.9156 24.3373 2.96558 27.5697 1.52013 26.1583C-1.40952 23.2985 1.67849 17.4093 2.55115 16.05C3.14247 15.1292 4.94001 13.1785 5.62399 14.731Z" fill="#FFD556"/>
<path d="M5.11371 20.751C5.92909 17.7653 6.25423 16.1724 5.61911 14.7291C4.93514 13.1765 3.1376 15.1273 2.54628 16.0481C2.19419 16.5975 1.48157 17.8829 0.949219 19.4102C1.70732 19.8756 3.14939 20.578 5.11371 20.751Z" fill="#87B3EE"/>
<path d="M13.747 51.7291C14.0873 51.2452 14.1901 50.7075 14.2373 50.2656C14.2373 50.2656 15.4536 50.8386 16.0298 51.2973C16.2066 51.4384 16.4981 51.6401 16.9799 51.8518C17.7431 52.2584 18.6848 52.7826 18.7134 53.0464C18.7606 53.485 14.2272 53.3942 13.4808 52.9574C13.09 52.7305 13.373 52.2584 13.747 51.7291Z" fill="#072855"/>
<path d="M1.87038 59.3778L2.0338 58.4688L3.54663 58.5696L3.76227 58.9963C3.76227 58.9963 5.74513 60.0213 5.1437 60.8026C5.18076 61.0042 1.65137 61.2411 1.22683 60.6715C0.926961 60.2683 1.87038 59.3778 1.87038 59.3778Z" fill="#072855"/>
<path d="M10.3595 27.1074C8.81798 27.3931 7.12488 27.4838 5.58509 27.4838C3.54326 27.4838 1.76763 27.3259 0.958982 27.2502C0.869694 27.5863 0.344072 30.1907 0.227829 30.5637C-0.644832 33.3848 1.26053 41.0029 1.40541 44.5382C1.45259 45.6891 -0.639187 53.5759 1 58C1.15162 58.4083 1.8794 58.7527 3.35012 58.6334C3.91112 58.5881 4.99941 57.9933 5.05164 57.4338C5.37341 54.038 7.28998 43.8946 7.28998 36.7301C9.27284 36.2949 14.6503 36.3974 14.1298 37.8744C13.0347 40.9828 12.7871 52.1698 15.0951 52.0975C19.5881 51.9564 19.3944 38.2104 19.0995 36.3621C18.3263 31.5046 10.7992 28.171 10.3595 27.1074Z" fill="#0D3A78"/>
<path d="M4.47099 30.4477C6.23147 29.9084 4.1408 28.4079 2.33483 27.3645C1.75362 27.3242 1.27855 27.2805 0.958461 27.252C0.901182 27.4704 0.658581 28.6415 0.464844 29.5404C1.30886 30.2092 2.73915 30.9787 4.47099 30.4477Z" fill="#0D3A78"/>
<path d="M5.91016 13.6252C5.91016 13.6252 6.12074 12.318 6.25888 11.7853C6.38186 11.3199 6.54357 11.0847 6.77605 10.9755C7.27302 10.7419 7.59142 13.8352 7.36231 13.9612C7.13489 14.0889 5.91016 13.6252 5.91016 13.6252Z" fill="#FFD556"/>
<path d="M10.3621 27.1069L9.98809 24.1682C9.84321 23.029 10.0218 21.868 10.5289 20.8363C11.3156 19.2367 12.222 16.3098 10.6839 14.9252C8.63699 13.0854 3.97552 12.4704 3.04895 16.0174C2.53344 17.9883 2.53514 22.53 0.961659 27.2514C0.609564 28.3066 1.66248 29.8306 3.65207 30.2994C8.58814 31.4638 10.3621 27.1069 10.3621 27.1069Z" fill="#AED1FF"/>
<path d="M10.6831 14.9251C9.89469 14.216 8.72048 13.6918 7.5193 13.5137C7.81749 14.2631 8.17127 15.3972 8.19486 16.6187C8.23698 18.761 7.93036 24.2218 6.67359 26.4481C6.07553 27.5083 5.63751 29.0625 5.42188 30.4924C9.01866 30.4 10.3614 27.1068 10.3614 27.1068L9.98735 24.168C9.84247 23.0288 10.021 21.8678 10.5281 20.8361C11.3149 19.2365 12.2212 16.3096 10.6831 14.9251Z" fill="#87B3EE"/>
<path d="M6.0885 12.5731C4.81657 12.0741 4.24715 9.84276 5.3742 9.06649C7.74622 7.42994 8.08821 9.00768 7.93996 10.246C7.86415 10.8795 7.58618 11.3029 7.53732 11.4104C7.39244 11.7229 6.65118 12.7949 6.0885 12.5731Z" fill="#0D3A78"/>
<path d="M7.74319 11.3994C7.74319 11.3994 7.79542 11.1222 7.5663 10.9861C7.33718 10.8517 7.19567 11.1457 7.37257 11.5573C7.54946 11.9724 7.73982 11.8447 7.74319 11.3994Z" fill="#FFD556"/>
<path d="M9.6538 14.4678C10.5046 14.2242 15.6647 16.1968 16.8726 16.19C18.9869 16.1783 24.7906 8.20892 26.4331 9.4691C28.0757 10.7293 22.432 19.5505 18.0519 20.6998C14.504 21.6306 9.96041 19.9353 9.07427 18.7524C7.43509 16.5681 8.67838 14.7484 9.6538 14.4678Z" fill="#FFD556"/>
<path d="M25.7188 9.51993C25.7188 9.51993 26.2056 8.52019 26.6975 8.54539C27.1895 8.57059 27.368 9.00746 27.9038 8.89824C28.4395 8.78903 28.8775 9.13851 28.6349 9.45272C28.3889 9.7686 26.2915 11.3363 25.7188 9.51993Z" fill="#FFD556"/>
<path d="M18.6088 34.801C17.3941 35.6092 15.7533 36.5081 15.5191 35.6478C15.14 34.2616 9.66487 33.2115 6.42188 33.5895C3.17889 33.9676 1.7048 36.1099 2.34666 36.908C2.9902 37.7061 4.10377 47.6195 3.6826 49.2997C3.26143 50.9799 3.72471 53.0802 3.50739 54.0044C3.35071 54.6748 1.57819 54.4035 0.5 55C0.515162 56.7273 0.595684 56.9091 1.02191 58.0584C1.17353 58.4667 1.90131 58.8111 3.37202 58.6918C3.93302 58.6465 5.02131 58.0517 5.07354 57.4921C5.39531 54.0964 7.28611 43.8944 7.28611 36.7299C9.26896 36.2947 14.6464 36.3972 14.1259 37.8741C13.0308 40.9825 12.7832 52.1695 15.0912 52.0973C19.5842 51.9561 19.3905 38.2102 19.0957 36.3619C19.0131 35.8242 18.8429 35.3034 18.6088 34.801Z" fill="#072855"/>
<path d="M26.429 9.46853C26.247 9.32907 26.0162 9.30387 25.7433 9.36604C25.7619 9.97092 25.7214 11.0597 25.2767 11.8309C24.6314 12.9517 23.3107 14.1278 21.5148 14.8839C19.7173 15.64 20.504 16.2281 20.1384 17.4043C19.7728 18.5804 17.325 18.7468 17.325 18.7468L13.0156 20.6337C14.606 21.0033 16.4288 21.126 18.0461 20.7009C22.4279 19.5499 28.0715 10.7287 26.429 9.46853Z" fill="#FF7A00"/>
<path d="M8.83984 18.0703C8.83984 18.0703 9.38568 20.505 10.3291 21.2997C10.3897 21.1435 10.4554 20.9889 10.5296 20.836C10.8143 20.2563 11.1141 19.5036 11.3096 18.7138L8.83984 18.0703Z" fill="#0D3A78"/>
<path d="M17.0687 16.1688C16.9979 16.1839 16.9288 16.1923 16.8648 16.1923C15.6569 16.199 10.4968 14.2264 9.64599 14.4701C8.67056 14.7507 7.42727 16.5704 9.06646 18.7547C9.865 19.8199 13.6286 21.3002 16.9592 20.9054C17.5252 19.2755 17.3348 17.439 17.0687 16.1688Z" fill="#AED1FF"/>
<path d="M13.649 18.1057C12.4698 17.2101 12.9752 17.8251 11.6561 17.7092C10.6554 17.6201 9.05325 16.5599 8.33559 16.0508C8.16375 16.7918 8.30021 17.7327 9.06674 18.7543C9.86527 19.8195 13.6288 21.2998 16.9594 20.905C17.2037 20.2043 17.3064 19.465 17.3233 18.7492C16.203 18.7912 14.4375 18.7055 13.649 18.1057Z" fill="#87B3EE"/>
<path d="M6.48292 10.5885C5.87644 10.7515 5.18741 10.4793 4.77634 10.2659C4.72917 11.1833 5.25985 12.2503 6.09208 12.5762C6.65307 12.7964 7.39602 11.7244 7.5409 11.4118C7.58976 11.306 7.86773 10.8826 7.94354 10.2474C7.9705 10.0257 7.9806 9.79378 7.96712 9.57031C7.70431 9.86939 7.15342 10.4087 6.48292 10.5885Z" fill="#0C3670"/>
<path d="M5.56637 9.36817C5.56637 9.36817 5.38443 7.6325 4.12093 7.80052C2.85744 7.96854 2.85744 9.842 3.48918 10.1932C4.12093 10.5443 4.0367 11.0904 3.81264 11.2164C3.58858 11.3424 3.65091 11.9171 4.32141 11.8112C4.9919 11.7054 5.77696 10.6704 5.56637 9.36817Z" fill="#0D3A78"/>
</svg>
