<svg width="30" height="32" viewBox="0 0 30 32" fill="none" xmlns="http://www.w3.org/2000/svg">
<path d="M19.1304 10.1567C19.1304 9.32616 18.8882 8.51428 18.4343 7.82372C17.9805 7.13316 17.3354 6.59494 16.5806 6.27711C15.8259 5.95928 14.9954 5.87612 14.1942 6.03815C13.393 6.20018 12.657 6.60011 12.0793 7.18739C11.5017 7.77466 11.1083 8.52289 10.9489 9.33746C10.7896 10.152 10.8714 10.9963 11.184 11.7637C11.4966 12.531 12.026 13.1868 12.7053 13.6482C13.3845 14.1096 14.1831 14.3559 15 14.3559C16.0955 14.3559 17.1461 13.9135 17.9207 13.126C18.6953 12.3385 19.1304 11.2704 19.1304 10.1567ZM12.3188 10.1567C12.3188 9.61757 12.4761 9.09056 12.7707 8.64231C13.0653 8.19405 13.484 7.84467 13.974 7.63836C14.4639 7.43205 15.003 7.37807 15.5231 7.48325C16.0432 7.58843 16.5209 7.84803 16.8959 8.22925C17.2708 8.61046 17.5262 9.09615 17.6296 9.6249C17.7331 10.1537 17.68 10.7017 17.4771 11.1998C17.2741 11.6979 16.9305 12.1236 16.4896 12.4231C16.0487 12.7226 15.5303 12.8825 15 12.8825C14.2889 12.8825 13.6069 12.5953 13.1041 12.0841C12.6013 11.5729 12.3188 10.8796 12.3188 10.1567Z" fill="#2F80ED"/>
<path d="M19.6014 22.3492L23.6232 17.5606C24.285 16.7852 24.8119 15.9008 25.1812 14.9453C25.8012 13.276 26.0131 11.4785 25.7985 9.70754C25.5839 7.93657 24.9493 6.24512 23.9493 4.77873C22.9499 3.30481 21.6132 2.09979 20.0543 1.26736C18.4954 0.434925 16.7609 0 15 0C13.2391 0 11.5046 0.434925 9.9457 1.26736C8.38678 2.09979 7.05012 3.30481 6.05072 4.77873C5.05069 6.24512 4.41607 7.93657 4.20148 9.70754C3.98689 11.4785 4.19875 13.276 4.81884 14.9453C5.18807 15.9008 5.71495 16.7852 6.37681 17.5606L10.3985 22.3492C5.32609 22.8649 0 24.3383 0 27.0641C0 29.7899 7.53623 32 15 32C22.4638 32 30 30.3056 30 27.0641C30 23.8226 24.6739 22.8649 19.6014 22.3492ZM6.15942 14.4296C5.62561 12.9824 5.44563 11.425 5.63497 9.89148C5.82432 8.35792 6.37731 6.8941 7.24638 5.62595C8.11268 4.34954 9.2709 3.3061 10.6215 2.58531C11.9721 1.86452 13.4746 1.48794 15 1.48794C16.5254 1.48794 18.0279 1.86452 19.3785 2.58531C20.7291 3.3061 21.8873 4.34954 22.7536 5.62595C23.6227 6.8941 24.1757 8.35792 24.365 9.89148C24.5544 11.425 24.3744 12.9824 23.8406 14.4296C23.5336 15.2368 23.0924 15.9844 22.5362 16.6397L15 25.5907L7.5 16.6397C6.93097 15.9872 6.47741 15.2394 6.15942 14.4296ZM15 30.5266C6.73913 30.5266 1.44928 28.4638 1.44928 27.0641C1.44928 25.6643 4.96377 24.2278 11.5217 23.7121L15 27.8744L18.442 23.7489C25.0362 24.2278 28.5507 25.959 28.5507 27.0641C28.5507 28.1691 23.2609 30.5266 15 30.5266Z" fill="#2F80ED"/>
</svg>
