<svg width="26" height="32" viewBox="0 0 26 32" fill="none" xmlns="http://www.w3.org/2000/svg">
<g clip-path="url(#clip0)">
<path d="M21.6667 11.5559C21.6667 21.3337 26 20.4448 26 24.8892C26 24.8892 26 26.667 24.2667 26.667H1.73333C0 26.667 0 24.8892 0 24.8892C0 20.4448 4.33333 21.3337 4.33333 11.5559C4.33333 6.64744 8.2134 2.66699 13 2.66699C17.7866 2.66699 21.6667 6.64744 21.6667 11.5559Z" fill="#FFCC4D"/>
<path d="M12.9984 5.33333C14.4344 5.33333 15.5984 4.13943 15.5984 2.66667C15.5984 1.19391 14.4344 0 12.9984 0C11.5625 0 10.3984 1.19391 10.3984 2.66667C10.3984 4.13943 11.5625 5.33333 12.9984 5.33333Z" fill="#FFCC4D"/>
<path d="M13.0018 31.9999C14.9163 31.9999 16.4685 30.4079 16.4685 28.4443H9.53516C9.53516 30.4079 11.0874 31.9999 13.0018 31.9999Z" fill="#FFCC4D"/>
</g>
<defs>
<clipPath id="clip0">
<rect width="26" height="31.9999" fill="white"/>
</clipPath>
</defs>
</svg>
