<svg width="28" height="32" viewBox="0 0 28 32" fill="none" xmlns="http://www.w3.org/2000/svg">
<path fill-rule="evenodd" clip-rule="evenodd" d="M7.11885 0.103516C7.55994 -0.12414 8.10057 0.0354459 8.35027 0.467011L12.7818 8.12609C12.9091 8.34621 12.9425 8.60901 12.8743 8.85441C12.8061 9.09973 12.6421 9.30669 12.4199 9.42798C12.4199 9.42801 12.42 9.42795 12.4199 9.42798L12.4181 9.42897L12.4098 9.43357L12.3738 9.45353C12.3416 9.47151 12.2933 9.49862 12.2316 9.53396C12.1079 9.60468 11.9306 9.708 11.7194 9.83649C11.2946 10.0948 10.7425 10.4488 10.216 10.8398C9.67819 11.2392 9.21655 11.641 8.93512 11.9897C8.81839 12.1343 8.75838 12.2387 8.73065 12.3021C10.4389 15.9186 12.3783 18.3892 13.8805 19.9502C14.6384 20.7377 15.2856 21.2943 15.7366 21.6498C15.962 21.8276 16.1383 21.955 16.2548 22.0359C16.2665 22.044 16.2776 22.0516 16.288 22.0588C16.3651 22.0525 16.5491 22.0191 16.8796 21.8468C17.3092 21.6229 17.8001 21.2616 18.2835 20.8509C18.76 20.4461 19.1969 20.021 19.5168 19.6945C19.676 19.5319 19.8045 19.3956 19.8925 19.3007C19.9365 19.2532 19.9702 19.2163 19.9925 19.1917L20.0171 19.1644L20.0227 19.1581L20.0236 19.1571C20.0237 19.1571 20.0236 19.1572 20.0236 19.1571C20.1919 18.9677 20.4292 18.8549 20.6811 18.8447C20.9332 18.8344 21.1786 18.9274 21.3615 19.1026L27.7093 25.1812C27.9931 25.4529 28.0786 25.8742 27.9236 26.2365C27.7121 26.7306 27.2303 27.4271 26.6147 28.1311C25.9824 28.8542 25.15 29.6526 24.1818 30.3347C22.276 31.6771 19.6226 32.7068 16.9548 31.3894L16.9504 31.3873C3.9446 24.8803 0.532504 13.169 0.0297336 8.83116C-0.123936 7.50532 0.335682 6.28217 1.00137 5.24948C1.66709 4.21675 2.58265 3.30398 3.47467 2.55738C4.37192 1.80641 5.27902 1.1958 5.95825 0.774252C6.29901 0.562764 6.58522 0.397135 6.78788 0.283519C6.88927 0.226676 6.96993 0.182751 7.02626 0.152514C7.05443 0.137393 7.07652 0.125686 7.0921 0.117489L7.11053 0.107837L7.11598 0.105005L7.11885 0.103516C7.11911 0.103386 7.11885 0.103516 7.54411 0.941272L7.11885 0.103516ZM7.20098 2.21579C7.11792 2.26569 7.02958 2.31955 6.93668 2.37721C6.30592 2.76867 5.47636 3.3282 4.66688 4.00571C3.85218 4.68759 3.09095 5.46164 2.56646 6.27529C2.04193 7.08898 1.7979 7.87178 1.88377 8.61267C2.33913 12.5415 5.51404 23.5632 17.7779 29.7C19.5409 30.5694 21.43 29.977 23.1128 28.7917C23.939 28.2096 24.6627 27.5174 25.2146 26.8863C25.4976 26.5627 25.7216 26.271 25.8871 26.032L20.7503 21.1131C20.4151 21.4514 19.9731 21.8767 19.4862 22.2903C18.9591 22.7382 18.3458 23.2014 17.7368 23.5189C17.1828 23.8076 16.3793 24.1118 15.61 23.8307C15.5516 23.8094 15.4955 23.7822 15.4424 23.7496L15.928 22.9459C15.4424 23.7496 15.4428 23.7498 15.4424 23.7496L15.4409 23.7487L15.4389 23.7475L15.4338 23.7443L15.4185 23.7347C15.4128 23.7311 15.4062 23.7269 15.3987 23.722C15.39 23.7164 15.38 23.71 15.3689 23.7027C15.3274 23.6757 15.2694 23.637 15.1963 23.5862C15.0501 23.4847 14.8432 23.3348 14.5868 23.1326C14.074 22.7283 13.3625 22.1148 12.5409 21.261C10.897 19.5528 8.8142 16.8853 6.99972 13.0144C6.78821 12.5642 6.82463 12.109 6.94665 11.7405C7.06406 11.3858 7.27204 11.0683 7.48741 10.8015C7.91899 10.2668 8.53154 9.75307 9.10911 9.3242C9.6734 8.90518 10.2521 8.53247 10.6979 8.25969L7.20098 2.21579ZM8.68656 12.2084C8.68682 12.2089 8.68709 12.2095 8.68735 12.2101L8.68656 12.2084Z" fill="#2F80ED"/>
</svg>
