<svg width="26" height="18" viewBox="0 0 26 18" fill="none" xmlns="http://www.w3.org/2000/svg">
<path d="M21 1C23.2091 1 25 2.79086 25 5L25 13C25 15.2091 23.2091 17 21 17L5 17C2.79086 17 0.999999 15.2091 0.999999 13L1 5C1 2.79086 2.79086 0.999999 5 0.999999L21 1Z" fill="#E00000"/>
<path fill-rule="evenodd" clip-rule="evenodd" d="M26 5L26 13C26 15.7614 23.7614 18 21 18L5 18C2.23858 18 -6.88954e-07 15.7614 -5.68248e-07 13L-2.18557e-07 5C-9.78513e-08 2.23857 2.23858 -1.03864e-06 5 -9.17939e-07L21 -2.18557e-07C23.7614 -9.78513e-08 26 2.23858 26 5ZM25 5C25 2.79086 23.2091 1 21 1L5 0.999999C2.79086 0.999999 1 2.79086 1 5L0.999999 13C0.999999 15.2091 2.79086 17 5 17L21 17C23.2091 17 25 15.2091 25 13L25 5Z" fill="white"/>
<path d="M18 9L9 14L9 4L18 9Z" fill="white"/>
</svg>
