<svg width="32" height="32" viewBox="0 0 32 32" fill="none" xmlns="http://www.w3.org/2000/svg">
<path d="M17.988 2.02677L18.1904 2.17065L18.4273 2.09635L20.7547 1.36655L22.2086 3.32499L22.3567 3.52436L22.605 3.52692L25.044 3.55204L25.8216 5.86392L25.9007 6.09928L26.1361 6.17844L28.448 6.95603L28.4731 9.39505L28.4756 9.64334L28.675 9.79136L30.6335 11.2453L29.9036 13.5727L29.8294 13.8096L29.9732 14.012L31.3865 16L29.9732 17.988L29.8294 18.1904L29.9036 18.4273L30.6335 20.7547L28.675 22.2086L28.4756 22.3567L28.4731 22.605L28.448 25.044L26.1361 25.8216L25.9007 25.9007L25.8216 26.1361L25.044 28.448L22.605 28.4731L22.3567 28.4756L22.2086 28.675L20.7547 30.6335L18.4273 29.9036L18.1904 29.8294L17.988 29.9732L16 31.3865L14.012 29.9732L13.8096 29.8294L13.5727 29.9036L11.2453 30.6335L9.79136 28.675L9.64334 28.4756L9.39505 28.4731L6.95603 28.448L6.17844 26.1361L6.09928 25.9007L5.86392 25.8216L3.55204 25.044L3.52692 22.605L3.52436 22.3567L3.32499 22.2086L1.36655 20.7547L2.09635 18.4273L2.17065 18.1904L2.02677 17.988L0.613476 16L2.02677 14.012L2.17065 13.8096L2.09635 13.5727L1.36655 11.2453L3.32499 9.79136L3.52436 9.64334L3.52692 9.39505L3.55204 6.95603L5.86392 6.17844L6.09928 6.09928L6.17844 5.86392L6.95603 3.55204L9.39505 3.52692L9.64334 3.52436L9.79136 3.32499L11.2453 1.36655L13.5727 2.09635L13.8096 2.17065L14.012 2.02677L16 0.613476L17.988 2.02677Z" stroke="#B9CFEC"/>
</svg>
