<svg width="0" height="0" display="none" xmlns="http://www.w3.org/2000/svg">
  <symbol viewBox="0 0 32 32" fill="none" xmlns="http://www.w3.org/2000/svg" id="icon-index-opinion">
        <path d="M22 9H10c-1.1 0-2 .9-2 2v8c0 1.1.9 2 2 2h2v4l6-4h4c1.1 0 2-.9 2-2v-8c0-1.1-.9-2-2-2zm1 10c0 .6-.4 1-1 1h-4.4L13 23.008V20h-3c-.6 0-1-.4-1-1v-8c0-.6.4-1 1-1h12c.6 0 1 .4 1 1v8z" fill="#545454"></path>
    </symbol>
    <symbol viewBox="0 0 32 32" fill="none" xmlns="http://www.w3.org/2000/svg" id="icon-index-man">
        <path fill-rule="evenodd" clip-rule="evenodd" d="M9.61 18.61A5.5 5.5 0 0 1 13.5 17h3a.5.5 0 0 1 0 1h-3a4.5 4.5 0 0 0-4.472 4H14.5a.5.5 0 0 1 0 1h-6a.5.5 0 0 1-.5-.5 5.5 5.5 0 0 1 1.61-3.89zM15 8a3 3 0 1 0 0 6 3 3 0 0 0 0-6zm-4 3a4 4 0 1 1 8 0 4 4 0 0 1-8 0zm10.146 4.146a.5.5 0 0 1 .708 0l2 2a.5.5 0 0 1 0 .708l-4.5 4.5a.5.5 0 0 1-.256.136l-2.5.5a.5.5 0 0 1-.588-.588l.5-2.5a.5.5 0 0 1 .136-.256l4.5-4.5zm-3.685 5.1l-.324 1.617 1.616-.324 4.04-4.039-1.293-1.293-4.04 4.04z"
        fill="#545454"></path>
    </symbol>
    <symbol viewBox="0 0 32 32" fill="none" xmlns="http://www.w3.org/2000/svg" id="icon-index-book">
        <path d="M19.41 12a.45.45 0 0 0 .454-.444.45.45 0 0 0-.455-.445.45.45 0 0 0-.454.445.45.45 0 0 0 .454.444zm0 4.445a.45.45 0 0 0 .454-.445v-2.666a.45.45 0 0 0-.455-.445.45.45 0 0 0-.454.445V16a.45.45 0 0 0 .454.445zm-8.864-4.889h3.181c.25 0 .455-.2.455-.445a.45.45 0 0 0-.455-.444h-3.181c-.25 0-.455.2-.455.444 0 .245.205.445.455.445zm0 1.778h3.181c.25 0 .455-.2.455-.445a.45.45 0 0 0-.455-.444h-3.181a.45.45 0 0 0-.455.444c0 .245.205.445.455.445zm0 1.777h3.181c.25 0 .455-.2.455-.444a.45.45 0 0 0-.455-.445h-3.181c-.25 0-.455.2-.455.445a.45.45 0 0 0 .455.444zm0 1.779h3.181c.25 0 .455-.2.455-.445a.45.45 0 0 0-.455-.445h-3.181c-.25 0-.455.2-.455.445 0 .244.205.444.455.444z"
        fill="#545454"></path>
        <path d="M25.546 9.778h-1.364V8.444A.45.45 0 0 0 23.727 8h-5.909A2.285 2.285 0 0 0 16 8.902c-.425-.564-1.1-.9-1.818-.902h-5.91a.45.45 0 0 0-.454.444v1.334H6.455a.45.45 0 0 0-.455.444V20.89a.45.45 0 0 0 .455.445H11c2.48 0 3.28.72 4.636 2.489a.462.462 0 0 0 .728 0c1.409-1.838 2.184-2.49 3.727-2.49h5.454A.45.45 0 0 0 26 20.89V10.222a.45.45 0 0 0-.454-.444zm-7.728-.89h5.455v9.779h-5a2.622 2.622 0 0 0-1.819.827v-9.272c0-.735.612-1.333 1.364-1.333zm-9.09 0h5.454c.752 0 1.364.599 1.364 1.334v9.298c-.514-.497-1.146-.853-1.819-.853h-5V8.889zM25.09 20.446h-5c-1.916 0-2.937.927-4.091 2.38-1.2-1.491-2.302-2.38-5-2.38H6.91v-9.778h.908v8.444a.45.45 0 0 0 .455.445h5.454c.703 0 1.487.789 1.866 1.531a.456.456 0 0 0 .811-.004l.003.006c.38-.742 1.068-1.533 1.866-1.533h5.454a.45.45 0 0 0 .455-.445v-8.444h.909v9.778z"
        fill="#545454"></path>
    </symbol>
    <symbol viewBox="0 0 32 32" fill="none" xmlns="http://www.w3.org/2000/svg" id="icon-index-doc">
        <path d="M21 9v14H11V9h10zm1-1H10v16h12V8z" fill="#545454"></path>
        <path d="M19 11h-6v1h6v-1zm-1 3h-5v1h5v-1zm1 3h-6v1h6v-1zm-2 3h-4v1h4v-1z" fill="#545454"></path>
    </symbol>
    <symbol viewBox="0 0 32 32" fill="none" xmlns="http://www.w3.org/2000/svg" id="icon-index-chart">
        <path d="M16.5 8h-1c-4.2.3-7.5 3.8-7.5 8 0 4.4 3.6 8 8 8s8-3.6 8-8c0-4.2-3.3-7.7-7.5-8zm6.5 8c0 1.2-.3 2.3-.8 3.3l-5.4-3.4 4.8-4.1C22.5 13 23 14.4 23 16zm-2-4.9l-4.5 3.8V9c1.7.1 3.3.9 4.5 2.1zM16 23c-3.9 0-7-3.1-7-7 0-3.7 2.9-6.7 6.5-7v7c0 .2.1.3.2.4l5.9 3.7C20.4 21.9 18.3 23 16 23z"
        fill="#545454"></path>
    </symbol>
    <symbol viewBox="0 0 32 32" fill="none" xmlns="http://www.w3.org/2000/svg" id="icon-index-percent">
        <path fill-rule="evenodd" clip-rule="evenodd" d="M23.354 9.354l-14 14-.708-.707 14-14 .708.707zM11.5 13a1.5 1.5 0 1 0 0-3 1.5 1.5 0 0 0 0 3zm0 1a2.5 2.5 0 1 0 0-5 2.5 2.5 0 0 0 0 5zm9 8a1.5 1.5 0 1 0 0-3 1.5 1.5 0 0 0 0 3zm0 1a2.5 2.5 0 1 0 0-5 2.5 2.5 0 0 0 0 5z"
        fill="#545454"></path>
    </symbol>
    <symbol viewBox="0 0 32 32" fill="none" xmlns="http://www.w3.org/2000/svg" id="icon-index-pencil">
        <path d="M23.548 11.18l-2.73-2.74c-.586-.587-1.464-.587-2.049 0l-8.485 8.612-.195.196-2.049 6.165c-.097.196 0 .391.098.49.097.097.195.097.39.097h.195l6.145-2.055c.097 0 .097-.098.195-.098l8.583-8.612c.487-.489.487-1.467-.098-2.055zm-6.827.685l3.413 3.425-5.461 5.48-3.414-3.327 5.462-5.578zm-7.413 10.96l1.463-4.5 3.024 3.033-4.487 1.468zm13.557-10.274l-2.048 2.054-3.413-3.425 2.048-2.055a.47.47 0 0 1 .682 0l2.731 2.74c.195.196.195.588 0 .685z"
        fill="#545454"></path>
    </symbol>
    <symbol viewBox="0 0 32 32" fill="none" xmlns="http://www.w3.org/2000/svg" id="icon-index-check">
        <path d="M6 28.49V8a2 2 0 0 1 2-2h16a2 2 0 0 1 2 2v20.49c-.323.26-.657.507-1 .74V8a1 1 0 0 0-1-1H8a1 1 0 0 0-1 1v21.23a15.36 15.36 0 0 1-1-.74z" fill="#545454"></path>
        <path d="M8.059 14.5c0 .276-.237.5-.53.5-.292 0-.529-.224-.529-.5s.237-.5.53-.5c.292 0 .529.224.529.5zm2.118 0c0 .276-.238.5-.53.5-.292 0-.53-.224-.53-.5s.238-.5.53-.5c.292 0 .53.224.53.5zm2.117 0c0 .276-.237.5-.53.5-.292 0-.529-.224-.529-.5s.237-.5.53-.5c.292 0 .53.224.53.5zm2.118 0c0 .276-.237.5-.53.5-.292 0-.53-.224-.53-.5s.238-.5.53-.5c.293 0 .53.224.53.5zm2.118 0c0 .276-.238.5-.53.5-.292 0-.53-.224-.53-.5s.238-.5.53-.5c.292 0 .53.224.53.5zm2.117 0c0 .276-.237.5-.53.5-.292 0-.529-.224-.529-.5s.237-.5.53-.5c.292 0 .53.224.53.5zm2.118 0c0 .276-.237.5-.53.5-.292 0-.53-.224-.53-.5s.238-.5.53-.5c.293 0 .53.224.53.5zm2.117 0c0 .276-.237.5-.53.5-.291 0-.529-.224-.529-.5s.238-.5.53-.5c.292 0 .53.224.53.5zm2.118 0c0 .276-.237.5-.53.5-.292 0-.529-.224-.529-.5s.237-.5.53-.5c.292 0 .529.224.529.5zM14.514 27L11 23.241l.991-.964 2.523 2.699L20.099 19 21 20.06 14.514 27z"
        fill="#545454"></path>
    </symbol>
    
    <symbol id="bg-bookmark" viewBox="0 0 148 90" fill="none">
        <g filter="url(#filter0_d)">
        <path fill-rule="evenodd" clip-rule="evenodd" d="M16.8989 4H134C137.314 4 140 6.68629 140 10V78L16.8989 78L16.8978 78L8 78L16.8978 70.6009V70.5991L8 63.2L16.8978 55.8009V55.7991L8 48.4L16.8978 41.0009V40.9991L8 33.6L16.8978 26.2009V26.1991L8 18.8L16.8978 11.4009V11.3991L8 4H16.8978H16.8989Z" fill="#EB4444"/>
        </g>
        <mask id="mask0" mask-type="alpha" maskUnits="userSpaceOnUse" x="120" y="4" width="21" height="74">
        <path d="M120.898 4H134C137.314 4 140 6.68629 140 10V78H120.898V4Z" fill="#2F80ED"/>
        </mask>
        <g mask="url(#mask0)">
        <g opacity="0.5" filter="url(#filter1_f)">
        <path d="M135 4V78" stroke="white"/>
        </g>
        </g>
        <path d="M128 78H140V84C140 87.3137 137.314 90 134 90H128V78Z" fill="#EB4444"/>
        <path d="M128 78H134C137.314 78 140 80.6863 140 84C140 87.3137 137.314 90 134 90H128V78Z" fill="#5E2828"/>
        <defs>
        <filter id="filter0_d" x="0" y="0" width="148" height="90" filterUnits="userSpaceOnUse" color-interpolation-filters="sRGB">
        <feFlood flood-opacity="0" result="BackgroundImageFix"/>
        <feColorMatrix in="SourceAlpha" type="matrix" values="0 0 0 0 0 0 0 0 0 0 0 0 0 0 0 0 0 0 127 0"/>
        <feOffset dy="4"/>
        <feGaussianBlur stdDeviation="4"/>
        <feColorMatrix type="matrix" values="0 0 0 0 0 0 0 0 0 0 0 0 0 0 0 0 0 0 0.25 0"/>
        <feBlend mode="normal" in2="BackgroundImageFix" result="effect1_dropShadow"/>
        <feBlend mode="normal" in="SourceGraphic" in2="effect1_dropShadow" result="shape"/>
        </filter>
        <filter id="filter1_f" x="130.5" y="0" width="9" height="82" filterUnits="userSpaceOnUse" color-interpolation-filters="sRGB">
        <feFlood flood-opacity="0" result="BackgroundImageFix"/>
        <feBlend mode="normal" in="SourceGraphic" in2="BackgroundImageFix" result="shape"/>
        <feGaussianBlur stdDeviation="2" result="effect1_foregroundBlur"/>
        </filter>
        </defs>
        </symbol>
</svg>