<?xml version="1.0" encoding="utf-8"?><svg width="2461" height="2473" viewBox="0 0 2461 2473" xmlns="http://www.w3.org/2000/svg" xmlns:xlink="http://www.w3.org/1999/xlink"><svg width="5" height="7" fill="#545454" viewBox="0 0 5 7" id="arrow-b" xmlns="http://www.w3.org/2000/svg"><path d="M3 4V0H2v4H0l2.5 3L5 4H3z"/></svg><svg width="5" height="7" fill="#545454" viewBox="0 0 5 7" id="arrow-t" x="5" y="7" xmlns="http://www.w3.org/2000/svg"><path d="M3 3v4H2V3H0l2.5-3L5 3z"/></svg><svg width="16" height="16" fill="#545454" viewBox="0 0 16 16" id="back" x="10" y="14" xmlns="http://www.w3.org/2000/svg"><path d="M15 1H5v1H4V0h12v16H4v-2h1v1h10V1z"/><path d="M10 7H4v2h6V7zm-6 4V5L0 8l4 3z"/></svg><svg width="5" height="8" fill="#545454" viewBox="0 0 5 8" id="back-section-arrow" x="26" y="30" xmlns="http://www.w3.org/2000/svg"><path fill-rule="evenodd" clip-rule="evenodd" d="M3.603 4L0 .65.699 0 5 4 .699 8 0 7.35 3.603 4z"/></svg><svg width="14" height="16" viewBox="0 0 14 16" id="bell" x="31" y="38" xmlns="http://www.w3.org/2000/svg"><path d="M13 11c-.6 0-1-.4-1-1V7c0-2-1.2-3.8-3-4.6V2c0-1.1-.9-2-2-2S5 .9 5 2v.4C3.2 3.2 2 5 2 7v3c0 .6-.4 1-1 1s-1 .4-1 1v1c0 .6.4 1 1 1h5v1c0 .6.4 1 1 1s1-.4 1-1v-1h5c.6 0 1-.4 1-1v-1c0-.6-.4-1-1-1zm0 2H1v-1c1.1 0 2-.9 2-2V7c0-1.9 1.3-3.4 3-3.9V2c0-.6.4-1 1-1s1 .4 1 1v1.1c1.7.4 3 2 3 3.9v3c0 1.1.9 2 2 2v1z" fill="#545454"/></svg><svg width="10" height="12" fill="#545454" viewBox="0 0 10 12" id="bell-check" x="45" y="54" xmlns="http://www.w3.org/2000/svg"><path fill-rule="evenodd" clip-rule="evenodd" d="M6 1c0 .05-.004.1-.012.149a3.335 3.335 0 012.345 3.184c0 2.19.595 2.953 1.074 3.568.323.414.593.761.593 1.432 0 0 0 .667-.667.667H.667C0 10 0 9.333 0 9.333c0-.67.27-1.018.593-1.432.48-.615 1.074-1.378 1.074-3.568 0-1.496.986-2.762 2.343-3.184A1 1 0 116 1zm.334 9.667a1.333 1.333 0 01-2.667 0h2.667zm-2.123-2.94L7.747 4.28l-.544-.53-2.992 2.917-1.36-1.326-.543.53L4.21 7.727z"/></svg><svg width="11" height="12" fill="#545454" viewBox="0 0 11 12" id="bell-cross" x="55" y="66" xmlns="http://www.w3.org/2000/svg"><path fill-rule="evenodd" clip-rule="evenodd" d="M6.5 1c0 .05-.004.1-.012.149a3.335 3.335 0 012.345 3.184c0 2.19.595 2.953 1.074 3.568.323.414.593.761.593 1.432 0 0 0 .667-.667.667H1.167C.5 10 .5 9.333.5 9.333c0-.67.27-1.018.593-1.432.48-.615 1.074-1.378 1.074-3.568 0-1.496.986-2.762 2.343-3.184A1 1 0 116.5 1zm.334 9.667a1.333 1.333 0 01-2.667 0h2.667zm-1.352-4.53l1.36 1.325.544-.53-1.36-1.326 1.36-1.326-.544-.53-1.36 1.326-1.36-1.326-.544.53 1.36 1.326-1.36 1.326.544.53 1.36-1.326z"/></svg><svg width="12" height="9" viewBox="0 0 12 9" id="book" x="66" y="78" xmlns="http://www.w3.org/2000/svg"><path d="M11.5 0H9.9C8.5 0 7.2.3 6 .8 4.8.3 3.5 0 2.1 0H.5C.2 0 0 .2 0 .5v7c0 .3.2.5.5.5h1.6c1.2 0 2.4.3 3.7 1h.4c1.3-.7 2.5-1 3.7-1h1.6c.3 0 .5-.2.5-.5v-7c0-.3-.2-.5-.5-.5zM1 7V1h1.1c1.2 0 2.3.2 3.4.7v6.1C4.3 7.3 3.2 7 2.1 7H1zm10 0H9.9c-1.1 0-2.2.3-3.4.7V1.6C7.6 1.2 8.7 1 9.9 1H11v6z" fill="#545454"/></svg><svg width="16" height="16" fill="#545454" viewBox="0 0 16 16" id="book2" x="78" y="87" xmlns="http://www.w3.org/2000/svg"><path d="M13.515 0H9.84c-.797 0-1.492.4-1.89.9C7.553.4 6.857 0 6.062 0H2.385C1.093 0 0 1 0 2.3v13.2c0 .3.199.5.497.5s.497-.2.497-.5c0-.7.596-1.3 1.391-1.3h3.776c.796 0 1.392.6 1.392 1.3-.1.3.1.5.397.5.298 0 .497-.2.497-.5 0-.7.596-1.3 1.392-1.3h3.776c.795 0 1.391.6 1.391 1.3 0 .3.199.5.497.5s.497-.2.497-.5V2.3C15.9 1 14.807 0 13.515 0zM7.453 13.6c-.397-.3-.894-.4-1.39-.4H2.384c-.497 0-.994.2-1.391.4V2.3c0-.7.596-1.3 1.391-1.3H6.16c.796 0 1.392.6 1.392 1.3v11.3h-.1zm7.454 0c-.398-.3-.895-.4-1.392-.4H9.84c-.497 0-.994.2-1.392.4V2.3c0-.7.596-1.3 1.392-1.3h3.776c.696 0 1.292.6 1.292 1.3v11.3z"/></svg><svg width="32" height="27" fill="#545454" viewBox="0 0 32 27" id="book3" x="94" y="103" xmlns="http://www.w3.org/2000/svg"><path d="M21.454 6.545a.727.727 0 100-1.454.727.727 0 000 1.454zM21.454 13.818c.4 0 .728-.323.728-.727V8.727A.73.73 0 0021.455 8a.73.73 0 00-.728.727v4.364c0 .4.324.727.727.727zM7.273 5.818h5.09a.73.73 0 00.728-.727.73.73 0 00-.727-.727H7.273a.73.73 0 00-.728.727c0 .4.328.727.728.727zM7.273 8.727h5.09A.73.73 0 0013.092 8a.73.73 0 00-.727-.727H7.273A.73.73 0 006.545 8c0 .4.328.727.728.727zM7.273 11.636h5.09a.73.73 0 00.728-.727.73.73 0 00-.727-.727H7.273a.73.73 0 00-.728.727c0 .4.328.727.728.727zM7.273 14.546h5.09a.73.73 0 00.728-.728.73.73 0 00-.727-.727H7.273a.73.73 0 00-.728.727c0 .4.328.728.728.728z"/><path d="M31.273 2.91H29.09V.726c0-.4-.324-.727-.727-.727h-9.455A3.629 3.629 0 0016 1.476 3.629 3.629 0 0013.09 0H3.637c-.4 0-.727.324-.727.727V2.91H.727c-.4 0-.727.324-.727.727v17.455c0 .4.324.727.727.727H8c3.967 0 5.247 1.178 7.418 4.073a.729.729 0 001.164 0c2.254-3.007 3.494-4.073 5.963-4.073h8.728c.4 0 .727-.324.727-.727V3.636c0-.4-.324-.727-.727-.727zM18.909 1.454h8.727v16h-8a4.156 4.156 0 00-2.909 1.352V3.637c0-1.204.979-2.182 2.182-2.182zm-14.545 0h8.727c1.204 0 2.182.978 2.182 2.181V18.85c-.822-.815-1.833-1.396-2.91-1.396h-8v-16zm26.181 18.909h-8c-3.065 0-4.698 1.516-6.545 3.894-1.92-2.44-3.684-3.894-8-3.894H1.455v-16h1.454v13.818c0 .4.324.727.727.727h8.728c1.123 0 2.378 1.291 2.985 2.506a.727.727 0 00.818.385.71.71 0 00.48-.393l.004.011c.607-1.214 1.709-2.509 2.985-2.509h8.728c.4 0 .727-.323.727-.727V4.364h1.454v16z"/><defs><linearGradient id="aja" y1="13.091" x2="24.007" y2="26.943" gradientUnits="userSpaceOnUse"><stop stop-color="#2F80ED"/><stop offset="1" stop-color="#6A08B8"/></linearGradient><linearGradient id="ajb" y1="13.091" x2="24.007" y2="26.943" gradientUnits="userSpaceOnUse"><stop stop-color="#2F80ED"/><stop offset="1" stop-color="#6A08B8"/></linearGradient><linearGradient id="ajc" y1="13.091" x2="24.007" y2="26.943" gradientUnits="userSpaceOnUse"><stop stop-color="#2F80ED"/><stop offset="1" stop-color="#6A08B8"/></linearGradient><linearGradient id="ajd" y1="13.091" x2="24.007" y2="26.943" gradientUnits="userSpaceOnUse"><stop stop-color="#2F80ED"/><stop offset="1" stop-color="#6A08B8"/></linearGradient><linearGradient id="aje" y1="13.091" x2="24.007" y2="26.943" gradientUnits="userSpaceOnUse"><stop stop-color="#2F80ED"/><stop offset="1" stop-color="#6A08B8"/></linearGradient><linearGradient id="ajf" y1="13.091" x2="24.007" y2="26.943" gradientUnits="userSpaceOnUse"><stop stop-color="#2F80ED"/><stop offset="1" stop-color="#6A08B8"/></linearGradient><linearGradient id="ajg" y1="13.091" x2="24.007" y2="26.943" gradientUnits="userSpaceOnUse"><stop stop-color="#2F80ED"/><stop offset="1" stop-color="#6A08B8"/></linearGradient></defs></svg><svg width="12" height="12" fill="#545454" viewBox="0 0 12 12" id="box" x="126" y="130" xmlns="http://www.w3.org/2000/svg"><path d="M12 2.936c0-.185-.1-.37-.3-.37L6.2.07c-.1-.092-.3-.092-.4 0L.3 2.566c-.2.093-.3.185-.3.37v6.012c0 .185.138.472.32.56l5.239 2.4c.079.071.341.092.441.092.1 0 .386-.017.46-.07l5.24-2.52c.2-.092.3-.185.3-.37V2.936zM1 3.858l4.5 2.035-.004 4.938L1 8.763V3.858zm5.5 2.06L11 3.791v4.88l-4.497 2.16L6.5 5.918zM6 .994l4.4 2.035L6 4.97 1.6 2.936 6 .994z"/></svg><svg width="20" height="20" fill="#545454" viewBox="0 0 20 20" id="calendar" x="138" y="142" xmlns="http://www.w3.org/2000/svg"><path d="M17.228 1.683h-1.683V0h-1.09v1.683h-8.91V0h-1.09v1.683H2.772A2.767 2.767 0 000 4.455v12.773A2.767 2.767 0 002.772 20h14.456A2.767 2.767 0 0020 17.228V4.455c0-1.584-1.188-2.772-2.772-2.772zm1.683 15.545c0 .89-.792 1.683-1.683 1.683H2.772c-.89 0-1.683-.792-1.683-1.683v-10h17.822v10zm0-11.09H1.089V4.456c0-.89.792-1.683 1.683-1.683h1.683v1.09h1.09v-1.09h8.91v1.09h1.09v-1.09h1.683c.89 0 1.683.792 1.683 1.683V6.14z"/></svg><svg width="16" height="16" fill="#545454" viewBox="0 0 16 16" id="card" x="158" y="162" xmlns="http://www.w3.org/2000/svg"><path d="M13 4h-2V0L5 6l6 6V8h5V7c0-1.7-1.3-3-3-3zm-3 3v2.6L6.4 6 10 2.4V5h3c1.1 0 2 .9 2 2h-5z"/><path d="M12 9v2h3v4H1v-4h7.6l-2-2H1V7h3.6l-1-1H1c-.6 0-1 .4-1 1v8c0 .6.4 1 1 1h14c.6 0 1-.4 1-1V9h-4z"/></svg><svg width="16" height="12" fill="#545454" viewBox="0 0 16 12" id="card-mc" x="174" y="178" xmlns="http://www.w3.org/2000/svg"><path d="M10.848 9.946c0 .17-.1.307-.256.307-.171 0-.27-.138-.27-.307 0-.169.099-.307.27-.307.156 0 .256.123.256.307zm-5.61-.307c-.171 0-.271.138-.271.307 0 .17.1.307.27.307.157 0 .257-.123.257-.307s-.1-.307-.256-.307zm2.79-.015c-.128 0-.213.092-.227.23h.455c-.014-.138-.1-.23-.228-.23zm4.33.015c-.171 0-.271.138-.271.307 0 .17.1.307.27.307.157 0 .257-.123.257-.307s-.1-.307-.257-.307zM16 1.781v8.438C16 11.2 15.26 12 14.348 12H1.652C.74 11.985 0 11.186 0 10.204V1.765C0 .798.74 0 1.652 0h12.71C15.26 0 16 .798 16 1.781zM2.689 5.094c0 1.95 1.466 3.532 3.275 3.532.626 0 1.224-.2 1.723-.522-.798-.722-1.296-1.797-1.296-3.01 0-1.213.513-2.288 1.296-3.01a3.065 3.065 0 00-1.723-.522c-1.809-.015-3.275 1.582-3.275 3.532zm1.922 4.73c0-.216-.128-.37-.342-.37a.336.336 0 00-.313.17.308.308 0 00-.285-.17.28.28 0 00-.256.14V9.47H3.23v.937h.185v-.522c0-.17.085-.246.213-.246.129 0 .186.092.186.246v.522h.185v-.522c0-.17.085-.246.213-.246s.185.092.185.246v.522h.2c.014 0 .014-.584.014-.584zm1.068-.354h-.185v.108a.344.344 0 00-.27-.138c-.243 0-.442.2-.442.49 0 .293.185.492.441.492.128 0 .214-.046.27-.138v.108h.186V9.47zm.968.66c0-.168-.114-.245-.299-.276l-.085-.015c-.086-.016-.143-.03-.143-.092 0-.077.057-.108.171-.108.114 0 .214.046.27.077l.086-.169a.621.621 0 00-.356-.092c-.228 0-.356.107-.356.307 0 .154.1.246.3.276l.085.016c.1.015.156.046.156.092 0 .077-.07.107-.199.107a.459.459 0 01-.285-.092l-.085.154c.1.077.228.123.37.123.214 0 .37-.139.37-.308zm.84.23l-.057-.168a.357.357 0 01-.17.046c-.1 0-.129-.061-.129-.153v-.43h.314V9.47H7.13v-.292h-.185v.292h-.17v.185h.17v.43c0 .214.071.353.3.353a.417.417 0 00.241-.077zm.969-.414c0-.291-.171-.491-.413-.491-.257 0-.427.2-.427.491 0 .292.185.492.441.492a.46.46 0 00.356-.139l-.1-.153a.407.407 0 01-.256.092c-.128 0-.228-.061-.256-.23h.64c0 .015.015-.062.015-.062zm.74-.476l-.128-.03a.25.25 0 00-.228.138V9.47h-.185v.937h.185v-.522c0-.154.057-.246.185-.246l.114.03.057-.199zm.256.476c0-.184.114-.291.257-.307.085 0 .156.03.228.077l.085-.169a.462.462 0 00-.313-.107c-.285 0-.47.215-.47.49 0 .277.185.492.47.492a.46.46 0 00.313-.107l-.085-.17a.319.319 0 01-.228.078c-.143.015-.257-.108-.257-.277zm1.581-.476h-.185v.108a.343.343 0 00-.27-.138c-.243 0-.442.2-.442.49 0 .293.185.492.441.492.129 0 .214-.046.27-.138v.108h.186V9.47zm.798 0l-.129-.03a.25.25 0 00-.227.138V9.47h-.186v.937h.186v-.522c0-.154.056-.246.185-.246l.114.03.057-.199zm.954-.384h-.186v.492a.343.343 0 00-.27-.138c-.242 0-.442.2-.442.49 0 .293.186.492.442.492.128 0 .213-.046.27-.138v.108h.185V9.086zm.526-3.992c0-1.95-1.466-3.532-3.275-3.532-1.808 0-3.275 1.582-3.275 3.532s1.467 3.532 3.275 3.532c1.809 0 3.275-1.582 3.275-3.532z"/></svg><svg width="16" height="12" fill="#545454" viewBox="0 0 16 12" id="card-mir" x="190" y="190" xmlns="http://www.w3.org/2000/svg"><path fill-rule="evenodd" clip-rule="evenodd" d="M1.333 0C.596 0 0 .597 0 1.333v9.334C0 11.403.596 12 1.333 12h13.334c.737 0 1.333-.597 1.333-1.333V1.333C16 .597 15.404 0 14.667 0H1.333zm2.935 4.526c.138-.526.656-.524.66-.526h1.184v4H4.927V5.626h-.099L4.135 8H3.31l-.69-2.376h-.1V8H1.334V4h1.188s.52-.002.659.524c.127.491.494 1.852.494 1.852h.1l.494-1.85zm4.482-.107A.667.667 0 019.26 4h1.123v4H9.195V5.624h-.099l-.825 1.957c-.162.384-.526.419-.526.419h-1.12V4H7.81v2.376h.099l.841-1.957zm2.159 1.398V8h1.187V6.725h1.284c.56 0 1.037-.38 1.211-.908H10.91zM10.742 4h2.638c.711 0 1.287.61 1.287 1.362 0 .097-.008.19-.026.28h-2.034a1.8 1.8 0 01-.498-.07c-.695-.199-1.234-.81-1.367-1.572z"/></svg><svg width="16" height="12" fill="#545454" viewBox="0 0 16 12" id="card-noname" x="206" y="202" xmlns="http://www.w3.org/2000/svg"><path fill-rule="evenodd" clip-rule="evenodd" d="M15 10.219V1.78c0-.508-.368-.781-.638-.781H1.652C1.357 1 1 1.284 1 1.766v8.438c0 .494.357.787.663.796h12.685c.29 0 .652-.278.652-.781zM1.652 12h12.696C15.26 12 16 11.201 16 10.219V1.78C16 .798 15.26 0 14.362 0H1.652C.74 0 0 .798 0 1.766v8.438c0 .982.74 1.78 1.652 1.796z"/><path d="M1 3h14v2H1V3zm10 5h2v1h-2V8z"/></svg><svg width="16" height="12" fill="#545454" viewBox="0 0 16 12" id="card-visa" x="222" y="214" xmlns="http://www.w3.org/2000/svg"><path d="M13.133 5.4l.2 1.275h-.866l.4-1.275.133-.45c.067 0 .133.45.133.45zM16 1.5v9c0 .825-.6 1.5-1.333 1.5H1.333C.6 12 0 11.325 0 10.5v-9C0 .675.6 0 1.333 0h13.334C15.4 0 16 .675 16 1.5zM4.6 8.25l1.667-4.5H5.133L4.067 6.825l-.134-.6-.333-2.1c-.067-.225-.267-.3-.533-.375H1.333v.075c.4.15.8.3 1.134.525l.933 3.9h1.2zm3.2-4.5H6.733L6 8.25h1.067c.066 0 .733-4.5.733-4.5zm3.067 3c0-.525-.267-.9-.934-1.2-.333-.225-.6-.3-.6-.525 0-.15.2-.375.6-.375.334 0 .6.075.8.15l.067.075.133-.975c-.2-.075-.533-.15-1-.15-1.066 0-1.8.6-1.8 1.5 0 .675.534.975.934 1.2.4.225.533.375.533.525 0 .3-.333.45-.667.45-.4 0-.666-.075-1-.225L7.8 7.125l-.133.975c.266.15.733.225 1.2.225 1.266 0 2-.6 2-1.575zm3.8 1.5l-.867-4.5h-.867c-.266 0-.466.075-.533.375L10.8 8.25h1.133l.2-.675h1.4l.134.675h1z"/></svg><svg width="16" height="13" fill="#545454" viewBox="0 0 16 13" id="card2" x="238" y="226" xmlns="http://www.w3.org/2000/svg"><path fill-rule="evenodd" clip-rule="evenodd" d="M15 1H1v11h14V1zM1 0a1 1 0 00-1 1v11a1 1 0 001 1h14a1 1 0 001-1V1a1 1 0 00-1-1H1z"/><path d="M9 3h4v1H9V3zm0 3h4v1H9V6zm0 3h4v1H9V9zM3 9a2 2 0 114 0v1H3V9z"/><path d="M3 5a2 2 0 114 0 2 2 0 01-4 0z"/></svg><svg width="12" height="12" fill="#545454" viewBox="0 0 12 12" id="cart" x="254" y="239" xmlns="http://www.w3.org/2000/svg"><path fill-rule="evenodd" clip-rule="evenodd" d="M.5 1H0V0h.5A2.5 2.5 0 013 2.5v4A1.5 1.5 0 004.5 8h7v1h-7A2.5 2.5 0 012 6.5v-4A1.5 1.5 0 00.5 1z"/><path fill-rule="evenodd" clip-rule="evenodd" d="M11 3H3l-.05-1H12v2a2.5 2.5 0 01-2.5 2.5H3v-1h6.5A1.5 1.5 0 0011 4V3z"/><path d="M5 11a1 1 0 11-2 0 1 1 0 012 0zm6 0a1 1 0 11-2 0 1 1 0 012 0z"/></svg><svg width="11" height="10" fill="#545454" viewBox="0 0 11 10" id="cart2" x="266" y="251" xmlns="http://www.w3.org/2000/svg"><path fill-rule="evenodd" clip-rule="evenodd" d="M0 1h.5A1.5 1.5 0 012 2.5V7h6.5A2.5 2.5 0 0011 4.5V2H2.95A2.5 2.5 0 00.5 0H0v1zm3 2v3h5.5A1.5 1.5 0 0010 4.5V3H3z"/><path d="M4 9a1 1 0 11-2 0 1 1 0 012 0zm6 0a1 1 0 11-2 0 1 1 0 012 0z"/></svg><svg width="15" height="20" fill="#545454" viewBox="0 0 15 20" id="check" x="277" y="261" xmlns="http://www.w3.org/2000/svg"><path d="M11.711 4.574v-.39a5.604 5.604 0 00-1.67-3.99A.63.63 0 009.594 0H.623a.63.63 0 00-.572.365c-.1.219-.05.487.124.657a4.445 4.445 0 011.32 3.139v9.075c0 .365.275.633.624.633H4.51v1.021a3.5 3.5 0 00.822 2.239l2.093 2.457c.224.268.548.414.897.414h5.506c.648 0 1.171-.51 1.171-1.144V8.321c0-1.898-1.445-3.48-3.289-3.747zm-7.2 4.866v3.212H2.74v-7.08a.74.74 0 00.748-.73c0-.39-.349-.73-.747-.73a5.4 5.4 0 00-.847-2.895h7.424a4.466 4.466 0 011.146 2.895.74.74 0 00-.747.73c0 .413.349.73.747.73v7.056H9.02v-1.582c0-1.508-1.295-2.773-2.865-2.773h-.424c-.672 0-1.22.535-1.22 1.167zm3.862 9.344L6.305 16.35a2.264 2.264 0 01-.549-1.46v-5.4h.399c.897 0 1.644.705 1.644 1.605v2.774l3.065-.025a.883.883 0 00.897-.876V5.791a2.572 2.572 0 012.018 2.506v10.486H8.373z"/><path d="M4.66 5.572a.739.739 0 00.748-.73.739.739 0 00-.748-.73.739.739 0 00-.747.73c0 .403.334.73.747.73zm1.944 0a.739.739 0 00.747-.73.739.739 0 00-.747-.73.739.739 0 00-.748.73c0 .403.335.73.748.73zm1.918 0a.739.739 0 00.747-.73.739.739 0 00-.747-.73.739.739 0 00-.747.73c0 .403.334.73.747.73z"/></svg><svg width="17" height="16" fill="#545454" viewBox="0 0 17 16" id="circle-check" x="292" y="281" xmlns="http://www.w3.org/2000/svg"><path d="M14.17 7.427c.018.18.036.376.036.573a6.193 6.193 0 01-6.19 6.192 6.194 6.194 0 010-12.384c.93 0 1.806.196 2.594.572.518-.43 1.055-.823 1.592-1.199A7.928 7.928 0 008.015 0C3.596 0 0 3.58 0 8s3.596 8 7.997 8c4.42 0 8.016-3.58 8.016-8 0-.77-.108-1.503-.322-2.22a42.532 42.532 0 00-1.521 1.647z"/><path d="M16.299 1.235c-2.344.77-5.332 2.828-8.087 6.353L6.584 5.781a.65.65 0 00-.966 0L4.419 7.123a.643.643 0 00.036.895L8.14 11.56a.657.657 0 001.02-.16c1.967-3.562 4.079-6.21 7.657-9.253.43-.376.036-1.092-.519-.913z"/></svg><svg width="16" height="16" viewBox="0 0 16 16" id="city" x="309" y="297" xmlns="http://www.w3.org/2000/svg"><g fill="#545454"><path d="M9 2v3h3v11h4V2H9zm6 12h-2v-1h2v1zm0-2h-2v-1h2v1zm0-2h-2V9h2v1zm0-2h-2V7h2v1zm0-2h-2V5h2v1zm0-2h-5V3h5v1z"/><path d="M5 16h6V6H5v10zm1-9h4v1H6V7zm0 2h4v1H6V9zm0 2h4v1H6v-1zm0 2h4v1H6v-1z"/><path d="M8 0H0v16h4V5h4V0zM3 14H1v-1h2v1zm0-2H1v-1h2v1zm0-2H1V9h2v1zm0-2H1V7h2v1zm0-2H1V5h2v1zm4-2H1V3h6v1zm0-2H1V1h6v1z"/></g></svg><svg width="8" height="12" fill="#545454" viewBox="0 0 8 12" id="clip" x="325" y="313" xmlns="http://www.w3.org/2000/svg"><path d="M4 0C1.8 0 0 1.7 0 3.7v5C0 10.5 1.6 12 3.5 12S7 10.5 7 8.8v-1c0 .3.2.5.5.5s.5-.2.5-.5V3.7C8 1.7 6.2 0 4 0zm3 5.1c0-1.3-1.1-2.3-2.5-2.3S2 3.8 2 5.1v2.8c0 .3.2.5.5.5s.5-.3.5-.6V5.1c0-.7.7-1.3 1.5-1.3S6 4.3 6 5.1v3.7C6 10 4.9 11 3.5 11S1 10 1 8.8v-5C1 2.2 2.3 1 4 1s3 1.2 3 2.7v1.4z"/></svg><svg width="10" height="16" viewBox="0 0 10 16" id="clock" x="333" y="325" xmlns="http://www.w3.org/2000/svg"><path d="M9.727 5.6L10 5.5V0H0v5.5l.273.1L4.09 8 0 10.5V16h10v-5.5L5.91 8l3.817-2.4zM9.091 1v3.7H.909V1h8.182zM.909 11.1l3.636-2.2v3.4L.91 13v-1.9zM9.091 13l-3.636-.8V8.9l3.636 2.2V13z" fill="#545454"/></svg><svg width="16" height="16" viewBox="0 0 16 16" id="clock2" x="343" y="341" xmlns="http://www.w3.org/2000/svg"><g fill-rule="evenodd" clip-rule="evenodd" fill="#545454"><path d="M8 1.067a6.933 6.933 0 100 13.866A6.933 6.933 0 008 1.067zM0 8a8 8 0 1116 0A8 8 0 010 8z"/><path d="M8 3.2c.295 0 .533.239.533.533v3.734h3.734a.533.533 0 010 1.066H8A.533.533 0 017.467 8V3.733c0-.294.238-.533.533-.533z"/></g></svg><svg width="26" height="32" fill="#545454" viewBox="0 0 26 32" id="clock3" x="359" y="357" xmlns="http://www.w3.org/2000/svg"><path d="M22.333 9.693l1.145-1.657a1.074 1.074 0 00-.26-1.485l-2.3-1.632a1.046 1.046 0 00-1.47.263l-1.141 1.65a12.9 12.9 0 00-3.197-.975V4.265h.703c.583 0 1.054-.476 1.054-1.066V1.066c0-.59-.471-1.066-1.054-1.066h-5.621c-.583 0-1.054.476-1.054 1.066V3.2c0 .59.47 1.066 1.054 1.066h.703v1.596a12.608 12.608 0 00-3.197.974L6.552 5.182c-.333-.483-.99-.6-1.468-.263L2.783 6.551a1.074 1.074 0 00-.26 1.485l1.145 1.657c-4.999 5.214-4.872 13.538.281 18.596a12.89 12.89 0 0018.38-.285c4.894-5.1 4.894-13.211.004-18.311zM20.4 6.288l1.728 1.222-.836 1.205a13.115 13.115 0 00-1.725-1.226l.833-1.201zm-9.858-3.445V1.422h4.918v1.421h-4.918zM12.3 4.265h1.405v1.443a11.504 11.504 0 00-1.405 0V4.265zM5.604 6.288l.832 1.204c-.607.36-1.183.772-1.724 1.227l-.833-1.205 1.725-1.226zm7.398 24.279c-6.404 0-11.593-5.25-11.593-11.73C1.41 12.359 6.6 7.11 13.002 7.11c6.405 0 11.593 5.25 11.593 11.729-.007 6.476-5.192 11.722-11.593 11.729zm6.18-18.983l.994 1.005-6.675 6.754-.994-1.006 6.675-6.753z"/><defs><linearGradient id="baa" y1="16" x2="22.665" y2="24.694" gradientUnits="userSpaceOnUse"><stop stop-color="#2F80ED"/><stop offset="1" stop-color="#6A08B8"/></linearGradient></defs></svg><svg width="12" height="12" fill="#545454" viewBox="0 0 12 12" id="clock4" x="385" y="389" xmlns="http://www.w3.org/2000/svg"><path fill-rule="evenodd" clip-rule="evenodd" d="M0 6a6 6 0 1112 0A6 6 0 010 6zm5.998-4.8c.295 0 .534.239.534.533v3.734h3.733a.533.533 0 110 1.066H5.998A.533.533 0 015.465 6V1.733c0-.294.239-.533.533-.533z"/></svg><svg width="16" height="16" viewBox="0 0 16 16" id="close" x="397" y="401" xmlns="http://www.w3.org/2000/svg"><path fill-rule="evenodd" clip-rule="evenodd" d="M.146.146a.5.5 0 01.708 0L8 7.293 15.146.146a.5.5 0 01.708.708L8.707 8l7.147 7.146a.5.5 0 01-.708.708L8 8.707.854 15.854a.5.5 0 01-.708-.708L7.293 8 .146.854a.5.5 0 010-.708z" fill="#545454"/></svg><svg width="12" height="12" fill="#545454" viewBox="0 0 12 12" id="close-8" x="413" y="417" xmlns="http://www.w3.org/2000/svg"><path d="M12 .613L11.387 0 6.044 5.343.614 0 0 .613l5.343 5.43L0 11.388.613 12l5.43-5.343L11.388 12l.613-.613-5.343-5.343L12 .614z"/></svg><svg width="8" height="8" fill="#545454" viewBox="0 0 8 8" id="close-9" x="425" y="429" xmlns="http://www.w3.org/2000/svg"><path d="M8 .978L7.022 0 4 3.022.978 0 0 .978 3.022 4 0 7.022.978 8 4 4.889 7.022 8 8 7.022 4.889 4 8 .978z"/></svg><svg width="16" height="16" viewBox="0 0 16 16" id="close2" x="433" y="437" xmlns="http://www.w3.org/2000/svg"><g fill="#545454"><path fill-rule="evenodd" clip-rule="evenodd" d="M8 15A7 7 0 108 1a7 7 0 000 14zm0 1A8 8 0 108 0a8 8 0 000 16z"/><path d="M11 5.733L10.267 5 8 7.267 5.733 5 5 5.733 7.267 8 5 10.267l.733.733L8 8.667 10.267 11l.733-.733L8.667 8 11 5.733z"/></g></svg><svg width="16" height="16" viewBox="0 0 16 16" id="close3" x="449" y="453" xmlns="http://www.w3.org/2000/svg"><path fill-rule="evenodd" clip-rule="evenodd" d="M8 16A8 8 0 108 0a8 8 0 000 16zm3.023-12l.977.978L8.889 8 12 11.022l-.977.978L8 8.889 4.978 12 4 11.022 7.022 8 4 4.978 4.978 4 8 7.022 11.023 4z" fill="#545454"/></svg><svg width="8" height="8" viewBox="0 0 8 8" id="close4" x="465" y="469" xmlns="http://www.w3.org/2000/svg"><path d="M8 .978L7.022 0 4 3.022.978 0 0 .978 3.022 4 0 7.022.978 8 4 4.889 7.022 8 8 7.022 4.889 4 8 .978z" fill="#545454"/></svg><svg width="12" height="12" fill="#545454" viewBox="0 0 12 12" id="close5" x="473" y="477" xmlns="http://www.w3.org/2000/svg"><path fill-rule="evenodd" clip-rule="evenodd" d="M2.348 0L6 3.652 9.652 0l.628.488c.46.358.874.772 1.232 1.232l.488.628L8.348 6 12 9.652l-.488.628c-.358.46-.772.874-1.232 1.232L9.652 12 6 8.348 2.348 12l-.628-.488A7.016 7.016 0 01.488 10.28L0 9.652 3.652 6 0 2.348l.488-.628C.846 1.26 1.26.846 1.72.488L2.348 0z"/></svg><svg width="20" height="20" fill="#545454" viewBox="0 0 20 20" id="close6" x="485" y="489" xmlns="http://www.w3.org/2000/svg"><path fill-rule="evenodd" clip-rule="evenodd" d="M10 20c5.523 0 10-4.477 10-10S15.523 0 10 0 0 4.477 0 10s4.477 10 10 10zm3.778-15L15 6.222 11.11 10 15 13.778 13.778 15 10 11.111 6.222 15 5 13.778 8.778 10 5 6.222 6.222 5 10 8.778 13.778 5z"/></svg><svg width="20" height="20" fill="#545454" viewBox="0 0 20 20" id="close7" x="505" y="509" xmlns="http://www.w3.org/2000/svg"><path fill-rule="evenodd" clip-rule="evenodd" d="M20 10c0 5.523-4.477 10-10 10S0 15.523 0 10 4.477 0 10 0s10 4.477 10 10zm-5-3.778L13.778 5 10 8.778 6.222 5 5 6.222 8.778 10 5 13.778 6.222 15 10 11.111 13.778 15 15 13.778 11.11 10 15 6.222z"/></svg><svg width="12" height="12" fill="#545454" viewBox="0 0 12 12" id="comment" x="525" y="529" xmlns="http://www.w3.org/2000/svg"><path fill-rule="evenodd" clip-rule="evenodd" d="M4 8v2.234L7.723 8H10.5c.273 0 .5-.227.5-.5v-6c0-.273-.227-.5-.5-.5h-9c-.273 0-.5.227-.5.5v6c0 .273.227.5.5.5H4zm-1 4V9H1.5C.675 9 0 8.325 0 7.5v-6C0 .675.675 0 1.5 0h9c.825 0 1.5.675 1.5 1.5v6c0 .825-.675 1.5-1.5 1.5H8l-5 3z"/></svg><svg width="10" height="12" fill="#545454" viewBox="0 0 10 12" id="compare" x="537" y="541" xmlns="http://www.w3.org/2000/svg"><path d="M2 3H0v9h2V3zm4-3H4v12h2V0zm4 5H8v7h2V5z"/></svg><svg width="16" height="16" viewBox="0 0 16 16" id="copy" x="547" y="553" xmlns="http://www.w3.org/2000/svg"><g fill="#545454"><path d="M11 5v10H1V5h10zm1-1H0v12h12V4z"/><path d="M4 0v3h1V1h10v10h-2v1h3V0H4z"/></g></svg><svg width="16" height="16" fill="#545454" viewBox="0 0 16 16" id="darts" x="563" y="569" xmlns="http://www.w3.org/2000/svg"><path d="M14.8 3.931l1-.997c.2-.2.2-.4.2-.599-.1-.2-.3-.299-.5-.299H14V.54c0-.2-.1-.399-.3-.499-.2-.1-.4 0-.5.1l-1 .997C10.9.44 9.5.041 8 .041c-4.4 0-8 3.591-8 7.98C0 12.409 3.6 16 8 16s8-3.59 8-7.98c0-1.495-.4-2.892-1.2-4.089zm-1.3-.897h.8l-1 .997H12V2.734l1-.997v.798c0 .3.2.499.5.499zM9 8.02c0 .598-.4.997-1 .997s-1-.399-1-.997c0-.599.4-.998 1-.998h.2l-.6.599c-.2.2-.2.498 0 .698.1.2.3.2.4.2.1 0 .3 0 .4-.1L9 7.82v.2zm0-1.696c-.3-.2-.6-.3-1-.3-1.1 0-2 .898-2 1.996 0 1.097.9 1.994 2 1.994s2-.897 2-1.994c0-.4-.1-.699-.3-.998l1.4-1.396c.6.598.9 1.496.9 2.394 0 2.194-1.8 3.99-4 3.99s-4-1.796-4-3.99c0-2.195 1.8-3.99 4-3.99.9 0 1.8.3 2.4.898L9 6.325zm-1 8.678c-3.9 0-7-3.092-7-6.982s3.1-6.982 7-6.982c1.2 0 2.4.299 3.4.897l-.2.2c-.1.1-.2.3-.2.399V4.03a5.15 5.15 0 00-3-.997c-2.8 0-5 2.194-5 4.987 0 2.792 2.2 4.987 5 4.987s5-2.195 5-4.987a5.12 5.12 0 00-1-2.993h1.5c.1 0 .3-.1.4-.1l.2-.199c.6.898.9 2.095.9 3.292 0 3.89-3.1 6.982-7 6.982z"/></svg><svg width="16" height="16" viewBox="0 0 16 16" id="discount" x="579" y="585" xmlns="http://www.w3.org/2000/svg"><g fill="#545454"><path d="M10.203 5.17l-5.136 5.136.694.695 5.136-5.137-.694-.694zM9.62 9.227c.294 0 .49.196.49.49 0 .295-.196.492-.49.492-.295 0-.491-.197-.491-.491 0-.295.294-.491.49-.491zm0-.785a1.3 1.3 0 00-1.276 1.276 1.3 1.3 0 001.276 1.276 1.3 1.3 0 001.276-1.276c0-.687-.491-1.276-1.276-1.276zM6.38 5.89c.197 0 .491.196.491.49 0 .295-.294.491-.49.491-.197 0-.491-.196-.491-.49 0-.295.196-.491.49-.491zm0-.786A1.3 1.3 0 005.105 6.38a1.3 1.3 0 001.277 1.276A1.3 1.3 0 007.657 6.38 1.3 1.3 0 006.38 5.104z"/><path d="M10.797 16L8.05 14.822 5.301 16l-1.375-2.748-2.944-.884.589-2.945L0 6.871l2.356-1.865.392-3.043 3.043.098L8.05 0l2.258 2.061 2.944-.098.393 3.043L16 6.871l-1.57 2.552.588 2.945-2.846.883L10.797 16zM8.05 13.84l2.356.982 1.178-2.258 2.356-.785-.491-2.454 1.276-2.258-1.963-1.57-.393-2.552-2.552.098L8.05 1.374 6.185 3.043l-2.552-.098-.295 2.552-1.963 1.57 1.374 2.16-.49 2.454 2.356.785 1.08 2.258 2.355-.883z"/></g></svg><svg width="21" height="20" fill="#545454" viewBox="0 0 21 20" id="discount2" x="595" y="601" xmlns="http://www.w3.org/2000/svg"><path d="M19.66 11.488a1.66 1.66 0 00-.979.109l-1.299.518-2.245.903a1.644 1.644 0 00-1.048-1.632l-4.015-1.504a4.904 4.904 0 00-3.757.121l-1.669.749-.364.166a1.082 1.082 0 00-1.33-.364L.277 11.776a.478.478 0 00-.276.435v7.309c0 .262.213.48.47.48.076 0 .145-.02.214-.051l5.194-2.675a1.13 1.13 0 00.615-1.268 3.02 3.02 0 012.634.064l1.995 1.012a3.95 3.95 0 003.438.076l5.45-2.457c.841-.378 1.218-1.376.848-2.234a1.7 1.7 0 00-.264-.422c-.263-.429-.934-.557-.934-.557zM5.57 16.314a.161.161 0 01-.081.09c-.006.006-.013.006-.025.012L.94 18.746V12.53l2.396-1.088c.076-.038.17 0 .207.083l.094.224 1.82 4.205.106.243a.146.146 0 01.006.116zm14.064-2.49l-5.45 2.458a3.021 3.021 0 01-2.635-.064l-1.995-1.012a3.976 3.976 0 00-3.419-.09L4.692 11.79l.615-.275 1.393-.628a4.012 4.012 0 013.055-.102l4.014 1.504c.345.128.52.518.395.864a.654.654 0 01-.834.403l-3.105-1.069a.47.47 0 00-.596.301c-.081.25.05.525.295.608l3.105 1.069c.22.077.445.102.678.077a.437.437 0 00.27-.026l5.062-2.035c.006 0 .012-.006.018-.006a.71.71 0 01.948.377c.156.378-.007.813-.37.973zm-8.437-9.715c1.11 0 2.014-.922 2.014-2.055C13.21.922 12.308 0 11.197 0c-1.11 0-2.013.922-2.013 2.054 0 1.14.897 2.055 2.013 2.055zm0-2.74a.68.68 0 01.671.685.679.679 0 01-.67.685.679.679 0 01-.672-.685c0-.377.301-.684.671-.684zm4.153 6.145c0 1.132.903 2.054 2.014 2.054 1.11 0 2.013-.922 2.013-2.054 0-1.133-.903-2.055-2.013-2.055-1.11 0-2.014.922-2.014 2.055zm2.685 0a.679.679 0 01-.671.684.679.679 0 01-.672-.684.68.68 0 01.672-.685c.37 0 .67.307.67.685zM10.45 9.037a.663.663 0 00.948-.039l6.888-7.66a.696.696 0 00-.038-.967.663.663 0 00-.947.039l-6.894 7.654a.698.698 0 00.044.973z"/></svg><svg width="16" height="14" fill="#545454" viewBox="0 0 16 14" id="discount3" x="616" y="621" xmlns="http://www.w3.org/2000/svg"><path fill-rule="evenodd" clip-rule="evenodd" d="M15 1H1v3.17a3.001 3.001 0 010 5.66V13h14V9.83a3.001 3.001 0 010-5.66V1zm1 0a1 1 0 00-1-1H1a1 1 0 00-1 1v4a2 2 0 110 4v4a1 1 0 001 1h14a1 1 0 001-1V9a2 2 0 110-4V1z"/><path fill-rule="evenodd" clip-rule="evenodd" d="M10.8 3.6L6 11l-.8-.6L10 3l.8.6z"/><path d="M6 4a1 1 0 11-2 0 1 1 0 012 0zm6 6a1 1 0 11-2 0 1 1 0 012 0z"/></svg><svg width="12" height="16" fill="#545454" viewBox="0 0 12 16" id="doc" x="632" y="635" xmlns="http://www.w3.org/2000/svg"><path d="M11 1v14H1V1h10zm1-1H0v16h12V0z"/><path d="M9 3H3v1h6V3zM8 6H3v1h5V6zm1 3H3v1h6V9zm-2 3H3v1h4v-1z"/></svg><svg width="10" height="13" fill="#545454" viewBox="0 0 10 13" id="doc2" x="644" y="651" xmlns="http://www.w3.org/2000/svg"><path fill-rule="evenodd" clip-rule="evenodd" d="M9 1.002H1v10h8v-10zm-8-1a1 1 0 00-1 1v10a1 1 0 001 1h8a1 1 0 001-1v-10a1 1 0 00-1-1H1z"/><path fill-rule="evenodd" clip-rule="evenodd" d="M3 3.002v-3h4v3H3zm3-1v-1H4v1h2z"/><path d="M3 5.002h4v1H3v-1zm0 3h4v1H3v-1z"/></svg><svg width="13" height="16" fill="#545454" viewBox="0 0 13 16" id="doc3" x="654" y="664" xmlns="http://www.w3.org/2000/svg"><path fill-rule="evenodd" clip-rule="evenodd" d="M12 1H1v14h11V1zM1 0a1 1 0 00-1 1v14a1 1 0 001 1h11a1 1 0 001-1V1a1 1 0 00-1-1H1z"/><path fill-rule="evenodd" clip-rule="evenodd" d="M9 1H4v2h5V1zM4 0a1 1 0 00-1 1v2a1 1 0 001 1h5a1 1 0 001-1V1a1 1 0 00-1-1H4z"/><path d="M3 6h7v1H3V6zm0 3h7v1H3V9zm0 3h7v1H3v-1z"/></svg><svg width="8" height="12" fill="#545454" viewBox="0 0 8 12" id="dots" x="667" y="680" xmlns="http://www.w3.org/2000/svg"><path d="M1.5 3a1.5 1.5 0 100-3 1.5 1.5 0 000 3zm0 4.5a1.5 1.5 0 100-3 1.5 1.5 0 000 3zm0 4.5a1.5 1.5 0 100-3 1.5 1.5 0 000 3zm5-9a1.5 1.5 0 100-3 1.5 1.5 0 000 3zm0 4.5a1.5 1.5 0 100-3 1.5 1.5 0 000 3zm0 4.5a1.5 1.5 0 100-3 1.5 1.5 0 000 3z"/></svg><svg width="16" height="16" fill="#545454" viewBox="0 0 16 16" id="exit" x="675" y="692" xmlns="http://www.w3.org/2000/svg"><path d="M3.734 0v5.272h1.813v-3.46h8.637v12.376H5.547v-3.476H3.734V16H16V0H3.734z"/><path d="M10.506 8L8.053 5.866v1.228H0v1.812h8.053v1.228L10.506 8z"/></svg><svg width="16" height="16" fill="#545454" viewBox="0 0 16 16" id="exit2" x="691" y="708" xmlns="http://www.w3.org/2000/svg"><path d="M1 1h10v1h1V0H0v16h12v-2h-1v1H1V1z"/><path d="M6 7h6v2H6V7zm6 4V5l4 3-4 3z"/></svg><svg width="12" height="12" fill="#545454" viewBox="0 0 12 12" id="exit2-mini" x="707" y="724" xmlns="http://www.w3.org/2000/svg"><path d="M.75.75h7.5v.75H9V0H0v12h9v-1.5h-.75v.75H.75V.75z"/><path d="M4.5 5.25H9v1.5H4.5v-1.5zm4.5 3v-4.5L12 6 9 8.25z"/></svg><svg width="12" height="8" fill="#545454" viewBox="0 0 12 8" id="eye" x="719" y="736" xmlns="http://www.w3.org/2000/svg"><path d="M6 .889c2.1 0 4 1.244 4.9 3.111C10 5.867 8.1 7.111 6 7.111 3.9 7.111 2 5.867 1.1 4 2 2.133 3.9.889 6 .889zM6 0C3.3 0 1 1.689 0 4c1 2.311 3.3 4 6 4s5-1.689 6-4c-1-2.311-3.3-4-6-4z"/><path d="M6 2.844c.7 0 1.2.534 1.2 1.067 0 .533-.5 1.245-1.2 1.245S4.8 4.622 4.8 4c0-.622.5-1.156 1.2-1.156zm0-.888c-1.2 0-2.2.888-2.2 1.955 0 1.067 1 1.956 2.2 1.956 1.2 0 2.2-.89 2.2-1.956 0-1.067-1-1.955-2.2-1.955z"/></svg><svg width="16" height="16" fill="#545454" viewBox="0 0 16 16" id="eye2" x="731" y="744" xmlns="http://www.w3.org/2000/svg"><path d="M12.742 3.928L16 .671 15.33 0l-3.354 3.353c-1.15-.67-2.491-1.15-3.928-1.15-3.45 0-6.42 2.396-7.665 5.75.575 1.628 1.629 3.065 2.874 4.119L0 15.329.67 16l3.354-3.353c1.15.67 2.491 1.15 3.928 1.15 3.45 0 6.42-2.396 7.665-5.75-.575-1.724-1.533-3.065-2.875-4.119zm-11.4 4.12c1.149-2.874 3.736-4.79 6.61-4.79 1.15 0 2.3.287 3.258.862L9.58 5.748c-.382-.383-.957-.574-1.532-.574-1.629 0-2.874 1.245-2.874 2.874 0 .575.191 1.15.574 1.629L4.024 11.4c-1.15-.862-2.108-2.012-2.683-3.353zm8.622 0a1.922 1.922 0 01-1.916 1.916c-.383 0-.67-.096-.958-.287L9.677 7.09c.095.191.287.575.287.958zm-3.832 0c0-1.054.862-1.916 1.916-1.916.383 0 .67.096.958.287L6.323 9.006c-.095-.287-.191-.67-.191-.958zm1.916 4.79c-1.246 0-2.3-.383-3.258-.958l1.63-1.629c.478.288 1.053.575 1.628.575 1.629 0 2.874-1.245 2.874-2.874 0-.575-.192-1.15-.575-1.629L12.072 4.6c1.054.862 2.012 2.012 2.587 3.353-1.246 2.97-3.833 4.886-6.611 4.886z"/></svg><svg width="16" height="12" fill="#545454" viewBox="0 0 16 12" id="eye3" x="747" y="760" xmlns="http://www.w3.org/2000/svg"><path d="M8 0C4.4 0 1.3 2.5 0 6c1.3 3.5 4.4 6 8 6 3.6 0 6.7-2.5 8-6-1.3-3.5-4.4-6-8-6zm0 11c-3 0-5.7-2-6.9-5C2.3 3 5 1 8 1c3 0 5.7 2 6.9 5-1.2 3-3.9 5-6.9 5z"/><path d="M8 9a3 3 0 002.867-3.888A1.497 1.497 0 018 4.5a1.5 1.5 0 01.883-1.368A3 3 0 108 9z"/></svg><svg width="12" height="11" fill="#545454" viewBox="0 0 12 11" id="eye4" x="763" y="772" xmlns="http://www.w3.org/2000/svg"><path d="M6 .786c-.842 0-1.65.2-2.399.534l.571.599A5.14 5.14 0 016 1.57c2.32 0 4.405 1.574 5.227 3.929a6.13 6.13 0 01-1.435 2.306l.527.552a6.926 6.926 0 001.66-2.731.411.411 0 000-.254C11.086 2.629 8.683.786 6 .786z"/><path d="M7.49 5.394l.676.709c.05-.194.084-.393.084-.603 0-1.3-1.01-2.357-2.25-2.357-.2 0-.39.036-.575.088l.676.708c.745.053 1.338.674 1.389 1.455zM2.27 2.149A6.788 6.788 0 00.02 5.373a.412.412 0 000 .254C.915 8.371 3.318 10.214 6 10.214c1.115 0 2.168-.343 3.097-.914L10.72 11l.53-.556L1.28 0 .75.556l1.52 1.593zM6 9.429C3.68 9.429 1.596 7.855.773 5.5a5.977 5.977 0 012.033-2.79L4.17 4.137c-.262.386-.42.854-.42 1.362 0 1.3 1.01 2.357 2.25 2.357.485 0 .932-.165 1.3-.44l1.248 1.308c-.775.44-1.637.704-2.548.704zM4.712 4.707l2.045 2.142c-.223.138-.48.222-.757.222-.827 0-1.5-.704-1.5-1.571 0-.29.08-.56.212-.793z"/></svg><svg width="18" height="16" fill="#545454" viewBox="0 0 18 16" id="eye4-big" x="775" y="783" xmlns="http://www.w3.org/2000/svg"><path d="M9 1.143c-1.264 0-2.474.29-3.598.777l.857.87A7.921 7.921 0 019 2.287c3.48 0 6.607 2.288 7.841 5.714a8.88 8.88 0 01-2.153 3.354l.79.803a10.026 10.026 0 002.492-3.972c.04-.12.04-.25 0-.37-1.343-3.99-4.947-6.672-8.97-6.672z"/><path d="M11.235 7.846l1.014 1.03c.074-.28.126-.571.126-.876 0-1.89-1.514-3.429-3.375-3.429-.3 0-.586.053-.863.128l1.015 1.03c1.118.078 2.007.981 2.083 2.117zM3.406 3.125C1.896 4.285.682 5.876.03 7.815c-.04.12-.04.25 0 .37 1.343 3.99 4.947 6.672 8.97 6.672 1.672 0 3.252-.499 4.645-1.33L16.08 16l.795-.808L1.92 0l-.795.808 2.28 2.317zM9 13.715c-3.48 0-6.607-2.29-7.841-5.715a8.715 8.715 0 013.05-4.06l2.046 2.08A3.437 3.437 0 005.625 8c0 1.89 1.514 3.429 3.375 3.429.728 0 1.398-.24 1.95-.64l1.872 1.901c-1.162.64-2.456 1.024-3.822 1.024zm-1.931-6.87l3.067 3.116A2.2 2.2 0 019 10.286C7.76 10.286 6.75 9.26 6.75 8c0-.423.121-.814.319-1.154z"/></svg><svg width="18" height="16" fill="#545454" viewBox="0 0 18 16" id="eye5" x="793" y="799" xmlns="http://www.w3.org/2000/svg"><path d="M9 1.143c-1.264 0-2.474.29-3.598.777l.857.87A7.921 7.921 0 019 2.287c3.48 0 6.607 2.288 7.841 5.714a8.88 8.88 0 01-2.153 3.354l.79.803a10.026 10.026 0 002.492-3.972c.04-.12.04-.25 0-.37-1.343-3.99-4.947-6.672-8.97-6.672z"/><path d="M11.235 7.846l1.014 1.03c.074-.28.126-.571.126-.876 0-1.89-1.514-3.429-3.375-3.429-.3 0-.586.053-.863.128l1.015 1.03c1.118.078 2.007.981 2.083 2.117zM3.406 3.125C1.896 4.285.682 5.876.03 7.815c-.04.12-.04.25 0 .37 1.343 3.99 4.947 6.672 8.97 6.672 1.672 0 3.252-.499 4.645-1.33L16.08 16l.795-.808L1.92 0l-.795.808 2.28 2.317zM9 13.715c-3.48 0-6.607-2.29-7.841-5.715a8.715 8.715 0 013.05-4.06l2.046 2.08A3.437 3.437 0 005.625 8c0 1.89 1.514 3.429 3.375 3.429.728 0 1.398-.24 1.95-.64l1.872 1.901c-1.162.64-2.456 1.024-3.822 1.024zm-1.931-6.87l3.067 3.116A2.2 2.2 0 019 10.286C7.76 10.286 6.75 9.26 6.75 8c0-.423.121-.814.319-1.154z"/></svg><svg width="16" height="16" viewBox="0 0 16 16" id="file" x="811" y="815" xmlns="http://www.w3.org/2000/svg"><g fill="#545454"><path d="M.5 16h15c.3 0 .5-.2.5-.5v-4.7h-1V15H1v-4.2H0v4.7c0 .3.2.5.5.5z"/><path d="M8.3 11.6L13 7.9l-.6-.8-3.9 3.1V0h-1v10.2L3.6 7.1l-.6.8 4.7 3.7c.2.2.4.2.6 0z"/></g></svg><svg width="12" height="16" fill="#545454" viewBox="0 0 12 16" id="fire" x="827" y="831" xmlns="http://www.w3.org/2000/svg"><path d="M5.913 2c.3 1.4 1.097 2.7 2.494 3.3 1.597.8 2.595 2.4 2.595 4.2v.5c0 2.8-2.195 5-4.99 5-2.794 0-4.99-2.2-4.99-5v-.5c.6.8 1.498 1.3 2.296 1.3h.1c1.197 0 2.195-.5 2.694-1.3.3-.6.5-1.5-.2-2.9-.897-1.8-1.197-3.4 0-4.6zM7.01 0C3.02 2 4.017 5 5.015 7c.997 2-.3 2.8-1.697 2.8C2.32 9.8.324 8 2.021 6c-2.395.7-1.996 4-1.996 4 0 3.3 2.694 6 5.987 6C9.306 16 12 13.3 12 10v-.5c0-2.2-1.197-4.2-3.193-5.1C7.21 3.6 6.412 1.7 7.01 0z"/></svg><svg width="16" height="13" fill="#545454" viewBox="0 0 16 13" id="folder" x="839" y="847" xmlns="http://www.w3.org/2000/svg"><path fill-rule="evenodd" clip-rule="evenodd" d="M15 1.002H1v10h14v-10zm-14-1a1 1 0 00-1 1v10a1 1 0 001 1h14a1 1 0 001-1v-10a1 1 0 00-1-1H1z"/><path d="M9 4.002h6v1H9v-1z"/><path d="M9.754 5.002l-2.887-5-.866.5 2.598 4.5h1.155z"/></svg><svg width="16" height="16" fill="#545454" viewBox="0 0 16 16" id="gear" x="855" y="860" xmlns="http://www.w3.org/2000/svg"><path d="M15.546 6.452l-1.912-.383a4.92 4.92 0 00-.279-.68l1.081-1.626a.58.58 0 00-.075-.731l-1.384-1.383a.581.581 0 00-.732-.075l-1.627 1.074a7.49 7.49 0 00-.674-.278L9.554.465A.583.583 0 008.984 0H7.027a.58.58 0 00-.57.465l-.377 1.91a6.765 6.765 0 00-.68.285L3.772 1.574a.58.58 0 00-.732.075L1.65 3.032a.588.588 0 00-.07.737l1.082 1.62a5.53 5.53 0 00-.285.686l-1.912.377a.58.58 0 00-.465.57v1.957a.58.58 0 00.465.569l1.906.377c.082.232.175.465.285.685L1.58 12.226a.587.587 0 00.07.732l1.383 1.388a.582.582 0 00.732.075l1.621-1.08c.221.11.448.203.68.285l.384 1.91c.052.273.29.465.57.465h1.958a.58.58 0 00.57-.465l.383-1.91a5.88 5.88 0 00.68-.285l1.622 1.08a.582.582 0 00.732-.075l1.383-1.388a.572.572 0 00.07-.732l-1.081-1.62c.11-.221.203-.447.279-.68l1.912-.377a.579.579 0 00.47-.57V7.022a.567.567 0 00-.453-.569zm-.697 2.05l-1.79.355a.585.585 0 00-.448.424 4.608 4.608 0 01-.441 1.074c-.006.012-.012.017-.018.029a.578.578 0 00.035.58l1.011 1.51-.709.715-1.459-.97a.583.583 0 00-.639-.075c-.017.005-.029.017-.046.023a4.843 4.843 0 01-1.064.441c-.011 0-.017.006-.029.006-.029.012-.052.018-.075.035a.578.578 0 00-.308.407l-.355 1.783H7.51l-.355-1.784a.58.58 0 00-.412-.447 4.678 4.678 0 01-1.087-.453.583.583 0 00-.634.041l-1.488.993-.709-.714 1.006-1.51a.59.59 0 00.023-.61 4.785 4.785 0 01-.447-1.069.59.59 0 00-.454-.435l-1.79-.354V7.492l1.779-.354a.58.58 0 00.447-.413 4.53 4.53 0 01.436-1.05.6.6 0 000-.651l-.046-.064-.965-1.44.709-.71 1.348.901a.58.58 0 00.75.151 4.907 4.907 0 011.11-.47.586.586 0 00.418-.448l.355-1.782h1.005l.36 1.782a.574.574 0 00.413.442c.372.104.738.255 1.093.447a.583.583 0 00.598-.023l1.517-1.005.715.714-1.011 1.516a.59.59 0 00-.023.61c.197.343.342.703.441 1.074a.593.593 0 00.448.424l1.79.36v1z"/><path d="M8.003 10.674a2.683 2.683 0 01-2.68-2.677 2.683 2.683 0 012.68-2.677 2.683 2.683 0 012.679 2.677 2.683 2.683 0 01-2.68 2.677z"/></svg><svg width="16" height="16" fill="#545454" viewBox="0 0 16 16" id="goblet" x="871" y="876" xmlns="http://www.w3.org/2000/svg"><path d="M15.576 1.52A1.884 1.884 0 0014.082.8h-1.28V0H3.198v.8h-1.28C1.33.8.77 1.067.424 1.52.05 1.973-.083 2.56.05 3.12L.344 4.4c.4 1.813 1.707 3.173 3.388 3.733.053.054.106.107.16.107.56.187.56.56.533.693-.026.187-.16.4-.373.4a.41.41 0 00-.4.4c0 .214.186.4.4.4.587 0 1.067-.48 1.147-1.093v-.08c.32.613.694 1.2 1.094 1.787L7.2 12v2c0 .667-.534 1.2-1.2 1.2H3.998v.8H12v-.8h-2c-.667 0-1.2-.533-1.2-1.2v-2l.88-1.227c.426-.586.8-1.226 1.147-1.866v.16c.08.613.587 1.093 1.147 1.093.213 0 .4-.16.4-.4 0-.213-.16-.4-.4-.4-.214 0-.347-.213-.374-.4-.026-.16 0-.507.534-.693a.482.482 0 00.187-.134 5.102 5.102 0 003.334-3.706l.294-1.28a1.87 1.87 0 00-.374-1.627zM1.117 4.213l-.293-1.28c-.08-.32 0-.666.213-.933.214-.267.534-.427.88-.427h1.308a17.18 17.18 0 001.28 5.92c-1.68-.293-3.014-1.546-3.388-3.28zm7.897 6.107l-.88 1.227-.134.186-.16-.213-.88-1.227a16.003 16.003 0 01-2.961-9.28V.8H12v.213c0 3.36-1.04 6.56-2.987 9.307zm6.162-7.36l-.293 1.28c-.374 1.707-1.734 2.96-3.415 3.28a16.59 16.59 0 001.28-5.92h1.308c.346 0 .666.16.88.427a1 1 0 01.24.933z"/></svg><svg width="16" height="16" viewBox="0 0 16 16" id="group" x="887" y="892" xmlns="http://www.w3.org/2000/svg"><use width="100%" height="100%" xlink:href="#cka" fill="#545454"/><use width="100%" height="100%" xlink:href="#ckb" fill="#545454"/><use width="100%" height="100%" xlink:href="#ckc" fill="#545454"/><use width="100%" height="100%" xlink:href="#ckd" fill="#545454"/><defs><path id="cka" d="M0 7h7V0H0zm1-6h5v5H1z"/><path id="ckb" d="M9 0v7h7V0zm6 6h-5V1h5z"/><path id="ckc" d="M0 16h7V9H0zm1-6h5v5H1z"/><path id="ckd" d="M9 16h7V9H9zm1-6h5v5h-5z"/></defs></svg><svg width="16" height="16" viewBox="0 0 16 16" id="hands" x="903" y="908" xmlns="http://www.w3.org/2000/svg"><g fill="#545454"><path d="M5.5 10.4c.3 0 .5 0 .7.1l2.8.9v.2c-.1.2-.2.4-.5.4H6.1c-.2 0-.3.2-.4.4 0 .1 0 .2.1.3.1.1.2.1.2.1h1.1c.6 0 1.1 0 1.5-.1 1-.2 1.2-1 1.2-1.6 0-.2-.1-.3-.3-.3l-3.1-1c-.3-.1-.6-.1-.9-.1-1.1 0-2.1.5-2.3.6l-3.1 2s-.1 0-.1.1v.3c.1.1.2.2.3.2.1 0 .1 0 .2-.1l3-1.9c.1 0 1-.5 2-.5z"/><path d="M16 9.8c-.3-.4-.7-.8-1.4-.8-.2 0-.5.1-.8.2-.9.4-2.7 1.3-3.3 1.6-.1.1-.2.1-.2.1-.2.1-.3.3-.2.5.1.1.2.2.4.2h.1l.1-.1c1.6-.8 2.7-1.4 3.3-1.6.3-.2.6-.2.9 0l.1.1-5.9 4.6c-.3.2-.7.4-1.2.4h-.3l-5.3-.9c-.1 0-.2 0-.3.1L.7 15.4c-.1.1-.1.2-.1.3 0 .1 0 .2.1.3H1c.1 0 .2 0 .2-.1l1.2-1.1 5.1.9h.4c.6 0 1.2-.2 1.6-.6l6.3-4.9c.2 0 .2-.2.2-.4zM11 5c1.4 0 2.5-1.1 2.5-2.5S12.4 0 11 0 8.5 1.1 8.5 2.5 9.6 5 11 5zm0-4c.8 0 1.5.7 1.5 1.5S11.8 4 11 4s-1.5-.7-1.5-1.5S10.2 1 11 1zM5 8.5c1.4 0 2.5-1.1 2.5-2.5S6.4 3.5 5 3.5 2.5 4.6 2.5 6 3.6 8.5 5 8.5zm0-4c.8 0 1.5.7 1.5 1.5S5.8 7.5 5 7.5 3.5 6.8 3.5 6 4.2 4.5 5 4.5z"/></g></svg><svg width="25" height="16" fill="#545454" viewBox="0 0 25 16" id="hands2" x="919" y="924" xmlns="http://www.w3.org/2000/svg"><path d="M24.243 6.76l-3.22-5.508a.347.347 0 00-.426-.148c-.008.005-.896.353-1.832.353-.362 0-.813-.216-1.333-.47-.713-.345-1.6-.771-2.634-.771a4.72 4.72 0 00-2.426.666 4.734 4.734 0 00-2.35-.869c-1.029-.086-1.95.265-2.689.548-.54.208-1.004.383-1.368.354C5.04.836 4.176.413 4.168.41a.346.346 0 00-.437.11L.063 5.74a.344.344 0 00.062.464l3.916 3.244-.024.024a1.496 1.496 0 00-.443 1.066c0 .402.157.783.443 1.066a1.492 1.492 0 001.352.416v.013c0 .402.156.783.442 1.066a1.497 1.497 0 001.466.389 1.5 1.5 0 001.503 1.438c.105 0 .208-.01.31-.032.672.841 1.538 1.106 2.305 1.106.5 0 .955-.11 1.287-.246.254.084.529.13.81.13.607 0 1.176-.21 1.557-.556.183.078.38.116.583.116a1.49 1.49 0 001.066-.443c.22-.22.367-.501.418-.806a1.497 1.497 0 001.83-.232c.259-.257.41-.591.437-.953a1.494 1.494 0 001.53-.37c.286-.286.442-.664.442-1.066s-.156-.782-.442-1.066l-.618-.618 3.845-2.674c.149-.1.192-.3.103-.456zM5.66 11.118a.813.813 0 01-1.155 0 .813.813 0 010-1.155l.691-.69a.813.813 0 011.155 0 .813.813 0 010 1.154l-.69.691zm2.051 1.236l-.256.257a.813.813 0 01-1.155 0 .817.817 0 010-1.155l1.557-1.558a.813.813 0 011.155 0 .813.813 0 01.003 1.153l-1.298 1.298-.006.005zm1.069 1.881a.814.814 0 01-.578-1.393l1.557-1.556a.81.81 0 01.578-.238.817.817 0 01.578 1.395L9.357 14a.83.83 0 01-.577.235zm2.742.532c.05.178.162.34.337.499-.583.102-1.441.075-2.124-.68.038-.033.076-.065.11-.1l1.558-1.557c.021-.022.043-.049.065-.073.572.443.445.664.253 1.001-.135.243-.307.545-.2.91zm8.902-3.765a.813.813 0 010 1.155.813.813 0 01-1.155 0l-3.608-3.61a.345.345 0 10-.488.488l3.284 3.284.003.003a.813.813 0 010 1.155.813.813 0 01-1.155 0l-2.755-2.755a.345.345 0 10-.489.488l2.15 2.15a.81.81 0 01.238.578.818.818 0 01-1.395.578L13.67 13.13a.345.345 0 10-.489.489l1.29 1.29c-.25.175-.607.283-.98.283-.242 0-.477-.043-.685-.127-.507-.264-.602-.434-.62-.494-.025-.078.037-.194.14-.372.305-.534.531-1.168-.53-1.962a1.492 1.492 0 00-.394-1.444 1.497 1.497 0 00-1.464-.388A1.489 1.489 0 009.5 9.41a1.496 1.496 0 00-1.066-.443c-.402 0-.782.157-1.066.443l-.118.119c-.06-.281-.2-.54-.408-.748a1.496 1.496 0 00-1.066-.442c-.402 0-.782.156-1.066.442l-.18.181a.25.25 0 00-.038-.038L.813 5.874l3.323-4.722c.361.151 1.038.391 1.772.454.519.045 1.08-.17 1.674-.397.71-.27 1.51-.578 2.383-.505a4.01 4.01 0 011.794.602c-.715.564-1.225 1.241-1.549 1.754-.173.275-1.684 2.726-1.287 3.959a.953.953 0 00.553.61c.2.08.402.121.605.121.95 0 1.673-.88 2.372-1.73.518-.631 1.052-1.281 1.578-1.414l5.484 5.484.91.912zm-.626-1.606l-5.402-5.402a.35.35 0 00-.246-.103h-.021c-.87.06-1.552.888-2.21 1.69-.597.726-1.215 1.476-1.836 1.476a.937.937 0 01-.342-.07c-.057-.022-.12-.062-.157-.181-.2-.624.475-2.208 1.214-3.379.594-.942 1.903-2.52 4.002-2.52.875 0 1.65.375 2.332.704.572.278 1.112.537 1.633.537.736 0 1.433-.184 1.805-.302l2.912 4.987-3.684 2.563z"/></svg><svg width="17" height="16" viewBox="0 0 17 16" id="info" x="944" y="940" xmlns="http://www.w3.org/2000/svg"><g fill="#545454"><path d="M8 16c-4.476 0-8-3.545-8-7.952C0 3.545 3.524 0 8 0s8 3.545 8 8.048C15.905 12.455 12.381 16 8 16zM8 .958C4.095.958.952 4.12.952 8.048s3.143 7.09 7.048 7.09c3.905 0 7.048-3.162 7.048-7.09S11.809.958 8 .958z"/><path d="M8 13.126a.753.753 0 01-.762-.767V6.994c0-.383.286-.766.762-.766.476 0 .762.287.762.766v5.365c-.095.48-.381.767-.762.767zm0-7.569a.753.753 0 01-.762-.767V3.64c0-.383.286-.766.762-.766.476 0 .762.288.762.767v1.245c-.095.383-.381.67-.762.67z"/></g></svg><svg width="20" height="20" fill="#545454" viewBox="0 0 20 20" id="info2" x="961" y="956" xmlns="http://www.w3.org/2000/svg"><path fill-rule="evenodd" clip-rule="evenodd" d="M10 19a9 9 0 100-18 9 9 0 000 18zm0 1c5.523 0 10-4.477 10-10S15.523 0 10 0 0 4.477 0 10s4.477 10 10 10z"/><path d="M8.272 8.752v-.544c.16-.064.373-.128.64-.192.267-.075.55-.139.848-.192.299-.053.592-.096.88-.128.299-.043.56-.064.784-.064l.288.192-1.44 6.896h1.12v.544a3.044 3.044 0 01-.496.272c-.181.085-.379.16-.592.224-.203.064-.41.112-.624.144a3.101 3.101 0 01-.608.064c-.405 0-.688-.075-.848-.224-.15-.16-.224-.33-.224-.512 0-.213.016-.421.048-.624s.075-.427.128-.672l1.088-4.96-.992-.224zm1.344-3.6c0-.363.123-.645.368-.848.245-.203.555-.304.928-.304.405 0 .725.101.96.304.245.203.368.485.368.848 0 .341-.123.613-.368.816-.235.203-.555.304-.96.304-.373 0-.683-.101-.928-.304-.245-.203-.368-.475-.368-.816z"/></svg><svg width="12" height="12" fill="#545454" viewBox="0 0 12 12" id="info3" x="981" y="976" xmlns="http://www.w3.org/2000/svg"><path fill-rule="evenodd" clip-rule="evenodd" d="M6 0a6 6 0 100 12A6 6 0 006 0zm.761 2.328l-.2 4.5h-1.12l-.21-4.5h1.53zm.05 5.97c0 .43-.37.8-.81.8-.44 0-.8-.37-.8-.8 0-.44.36-.81.8-.81.44 0 .81.37.81.81z"/></svg><svg width="12" height="12" fill="#545454" viewBox="0 0 12 12" id="info4" x="993" y="988" xmlns="http://www.w3.org/2000/svg"><path d="M6 12c-3.357 0-6-2.659-6-5.964C0 2.659 2.643 0 6 0s6 2.659 6 6.036C11.929 9.34 9.286 12 6 12zM6 .719C3.071.719.714 3.089.714 6.036c0 2.946 2.357 5.317 5.286 5.317 2.929 0 5.286-2.371 5.286-5.317S8.857.719 6 .719z"/><path d="M6 9.844a.565.565 0 01-.571-.575V5.245c0-.287.214-.574.571-.574s.571.215.571.574V9.27c-.071.36-.285.575-.571.575zm0-5.676a.565.565 0 01-.571-.575V2.73c0-.288.214-.575.571-.575s.571.215.571.575v.934c-.071.287-.285.503-.571.503z"/></svg><svg width="4" height="11" fill="#545454" viewBox="0 0 4 11" id="info5" x="1005" y="1000" xmlns="http://www.w3.org/2000/svg"><path d="M2.064 2.114c.588 0 1.064-.476 1.064-1.064C3.128.462 2.652 0 2.064 0A1.06 1.06 0 001 1.05c0 .588.49 1.064 1.064 1.064zm1 7.887v-7h-2V10l2 .001z"/><path d="M0 3h2v1H0V3zm0 6h4v1H0V9z"/></svg><svg width="16" height="16" fill="#545454" viewBox="0 0 16 16" id="kick" x="1009" y="1011" xmlns="http://www.w3.org/2000/svg"><path d="M6.793 2.681c.764 0 1.382-.6 1.382-1.34C8.175.6 7.557 0 6.793 0 6.03 0 5.411.6 5.411 1.34c0 .741.62 1.341 1.382 1.341zM11.2 9.247l.526.727-3.43 2.327a.94.94 0 01-.807.12.93.93 0 01-.361-.208.894.894 0 01-.229-.341l-.212-.559L7.88 9.306l.334.887L9.927 9.03a.938.938 0 011.274.217z"/><path d="M16 3.394l-6.732.57c-.016.143-.788 4.276-.788 4.276-.035.193-.11.376-.22.539a1.45 1.45 0 01-.423.41l-3.79 6.368a.912.912 0 01-.556.413.94.94 0 01-.693-.088l-.793-.445 4.247-7.13a.047.047 0 00-.018-.065.05.05 0 00-.066.017l-.39.653-.15-.391c-.08-.2-.114-.415-.1-.63l.003-.025.275-3.524a.048.048 0 00-.012-.035.05.05 0 00-.033-.017.048.048 0 00-.037.01.045.045 0 00-.016.034l-.065.837L4.39 6.386a1.162 1.162 0 01-.43.265L.077 8.023A1.215 1.215 0 01.23 6.89a1.27 1.27 0 01.609-.454l2.667-.942L5.36 3.697a.898.898 0 01.27-.189s3.184-.746 3.27-.753c1.46-.128 5.794-.49 5.834-.49.318 0 .625.116.859.325.234.21.38.496.407.804z"/></svg><svg width="12" height="16" viewBox="0 0 12 16" id="lamp" x="1025" y="1027" xmlns="http://www.w3.org/2000/svg"><g fill="#545454"><path d="M7.997 4.01H3.893v.999h2.841L3.683 8.206l.316.8h4.103v-1h-2.84l3.05-3.197-.315-.8z"/><path d="M9.997 1.511C8.944.612 7.787.112 6.524.012c-1.684-.1-3.367.4-4.63 1.5C.737 2.61 0 4.108 0 5.707c0 1.299.42 2.598 1.263 3.597.631.8.947 1.699.947 2.598v1.699c0 .6.21 1.199.736 1.698.421.5 1.053.7 1.79.7H7.26c.631 0 1.262-.2 1.789-.7a2.28 2.28 0 00.736-1.698v-1.399c0-1 .316-1.998 1.053-2.998 1.473-2.098 1.894-5.296-.842-7.694zm-1.684 13.09c-.316.3-.631.4-1.052.4H4.735c-.42 0-.736-.1-1.052-.4-.316-.3-.42-.6-.42-1v-1.598h5.47v1.599c0 .4-.104.7-.42 1zm.526-3.597H3.157c-.21-.8-.526-1.599-1.052-2.298-.632-.9-1.053-1.999-1.053-3.098 0-1.299.526-2.498 1.579-3.397.947-.8 2.104-1.2 3.367-1.2h.42c1.053.1 2 .5 2.842 1.2 2.315 1.998 2 4.696.737 6.395-.526.8-.947 1.598-1.158 2.398z"/></g></svg><svg width="16" height="16" viewBox="0 0 16 16" id="like" x="1037" y="1043" xmlns="http://www.w3.org/2000/svg"><path d="M15.309 6.74c-.442-.548-1.032-.844-1.657-.844h-2.541l.98-2.642c.269-.788.182-1.613-.243-2.271C11.432.362 10.781 0 10.053 0c-.72 0-1.735.5-2.143 1.298L4.77 7.156v.038H0V16h13.063c1.283 0 2.177-.75 2.324-1.984l.59-4.931a3.154 3.154 0 00-.668-2.346zM4.771 14.794H1.214V8.399h3.557v6.396zm10.026-5.859l-.59 4.95c-.086.742-.676.909-1.145.909H5.899V7.499l3.019-5.58c.164-.325.737-.649 1.127-.649.338 0 .642.167.824.445.2.306.243.732.113 1.103L9.359 7.194h4.293c.373 0 .642.24.764.389.294.37.442.871.381 1.353z" fill="#545454"/></svg><svg width="16" height="16" fill="#545454" viewBox="0 0 16 16" id="link" x="1053" y="1059" xmlns="http://www.w3.org/2000/svg"><path d="M12 14c0 .6-.4 1-1 1H2c-.6 0-1-.4-1-1V5c0-.6.4-1 1-1h5V3H2C.9 3 0 3.9 0 5v9c0 1.1.9 2 2 2h9c1.1 0 2-.9 2-2V9h-1v5z"/><path d="M9 0v1h5.3L6 9.3l.7.7L15 1.7V7h1V0H9z"/></svg><svg width="13" height="15" viewBox="0 0 13 15" id="list" x="1069" y="1075" xmlns="http://www.w3.org/2000/svg"><g fill="#545454"><path d="M4 9h7v1H4V9z"/><path fill-rule="evenodd" clip-rule="evenodd" d="M1.5 9a.5.5 0 100 1 .5.5 0 000-1zm0-1a1.5 1.5 0 100 3 1.5 1.5 0 000-3z"/><path d="M4 5h9v1H4V5z"/><path fill-rule="evenodd" clip-rule="evenodd" d="M1.5 5a.5.5 0 100 1 .5.5 0 000-1zm0-1a1.5 1.5 0 100 3 1.5 1.5 0 000-3z"/><path d="M4 1h8v1H4V1z"/><path fill-rule="evenodd" clip-rule="evenodd" d="M1.5 1a.5.5 0 100 1 .5.5 0 000-1zm0-1a1.5 1.5 0 100 3 1.5 1.5 0 000-3z"/><path d="M4 13h8v1H4v-1z"/><path fill-rule="evenodd" clip-rule="evenodd" d="M1.5 13a.5.5 0 100 1 .5.5 0 000-1zm0-1a1.5 1.5 0 100 3 1.5 1.5 0 000-3z"/></g></svg><svg width="16" height="16" fill="#545454" viewBox="0 0 16 16" id="list2" x="1082" y="1090" xmlns="http://www.w3.org/2000/svg"><path d="M16 14H0v2h16v-2zm0-14H0v2h16V0zm0 7H0v2h16V7z"/></svg><svg width="16" height="16" fill="#545454" viewBox="0 0 16 16" id="list3" x="1098" y="1106" xmlns="http://www.w3.org/2000/svg"><path d="M16 14H5v2h11v-2zm0-14H0v2h16V0zm0 7H5v2h11V7z"/></svg><svg width="16" height="16" fill="#545454" viewBox="0 0 16 16" id="list4" x="1114" y="1122" xmlns="http://www.w3.org/2000/svg"><path d="M16 14h-6v2h6v-2zm0-14H0v2h16V0zm0 7H5v2h11V7z"/></svg><svg width="16" height="16" fill="#545454" viewBox="0 0 16 16" id="list5" x="1130" y="1138" xmlns="http://www.w3.org/2000/svg"><path d="M16 14H0v2h16v-2zm0-14H0v2h16V0zm0 7H7v2h9V7z"/></svg><svg width="12" height="17" viewBox="0 0 12 17" id="lock" x="1146" y="1154" xmlns="http://www.w3.org/2000/svg"><path d="M10 5V4c0-2.2-1.8-4-4-4S2 1.8 2 4v1H0v11h12V5h-2zM3 4c0-1.7 1.3-3 3-3s3 1.3 3 3v1H3V4zm8 11H1V6h10v9z" fill="#545454"/></svg><svg width="16" height="16" viewBox="0 0 16 16" id="lock2" x="1158" y="1171" xmlns="http://www.w3.org/2000/svg"><path d="M8 5V4c0-2.2-1.8-4-4-4S0 1.8 0 4v1h1V4c0-1.7 1.3-3 3-3s3 1.3 3 3v1H4v11h12V5H8zm7 10H5V6h10v9z" fill="#545454"/></svg><svg width="8" height="12" fill="#545454" viewBox="0 0 8 12" id="lock3" x="1174" y="1187" xmlns="http://www.w3.org/2000/svg"><g fill-rule="evenodd" clip-rule="evenodd"><path d="M7 6H1v5h6V6zM1 5a1 1 0 00-1 1v5a1 1 0 001 1h6a1 1 0 001-1V6a1 1 0 00-1-1H1z"/><path d="M6 5V3a2 2 0 10-4 0v2h4zM4 0a3 3 0 00-3 3v3h6V3a3 3 0 00-3-3z"/></g></svg><svg width="16" height="10" viewBox="0 0 16 10" id="mail" x="1182" y="1199" xmlns="http://www.w3.org/2000/svg"><path d="M16 1.5c0-.8-.7-1.5-1.5-1.5h-13C.7 0 0 .7 0 1.5v7C0 9.3.7 10 1.5 10h13c.8 0 1.5-.7 1.5-1.5v-7zM1.5 1h13c.2 0 .3 0 .4.1L8 4.5 1.1 1.1c.1-.1.2-.1.4-.1zm13 8h-13C1.2 9 1 9 1 8.7V2.1l7 3.5 7-3.5v6.6c0 .3-.2.3-.5.3z" fill="#545454"/></svg><svg width="24" height="12" fill="#545454" viewBox="0 0 24 12" id="mail2" x="1198" y="1209" xmlns="http://www.w3.org/2000/svg"><path d="M23.055.56A2.596 2.596 0 0021.452 0H6.904a2.6 2.6 0 00-1.603.56c-.575.48-.945 1.16-.945 1.92v1.4H.616c-.328 0-.616.28-.616.6 0 .32.288.6.616.6h4.357c.328 0 .616-.28.616-.6v-2c0-.2.041-.4.164-.6l6.74 6c.493.44 1.11.64 1.685.64s1.233-.2 1.685-.64l6.74-6c.082.2.164.4.164.6v7.04c0 .72-.575 1.28-1.315 1.28H6.904c-.74 0-1.315-.56-1.315-1.28V7.4h.616c.33 0 .617-.28.617-.6 0-.32-.288-.6-.617-.6h-3.41c-.33 0-.617.28-.617.6 0 .32.288.6.617.6h1.561v2.12c0 1.36 1.15 2.48 2.548 2.48h14.548C22.85 12 24 10.88 24 9.52V2.48c0-.76-.37-1.44-.945-1.92zM15.04 7c-.493.44-1.233.44-1.726 0L6.822 1.2h14.712L15.041 7z"/></svg><svg width="17" height="16" viewBox="0 0 17 16" id="man" x="1222" y="1221" xmlns="http://www.w3.org/2000/svg"><path d="M14.5 10.6l-2.6-1.5c.8-1.1 1.2-2.4 1.2-3.9 0-1.2-.4-2.3-1-3.1l-.2-.2C11.3 1.2 10.6.6 9.6.3c0-.1-.2-.1-.4-.2-.1 0-.2 0-.3-.1H8c-.3 0-.6 0-.9.1-.1 0-.2 0-.3.1-.2 0-.4.1-.6.2-.9.2-1.7.8-2.3 1.5l-.1.2c-.6.9-1 1.9-1 3.1 0 1.4.5 2.8 1.2 3.9l-2.6 1.5c-.8.6-1.4 1.6-1.4 2.6V16h16v-2.8c0-1-.6-2-1.5-2.6zM11 2.1c-.8 1-1.9 1.6-3 1.6s-2.2-.5-3-1.6c.6-.6 1.3-1 2.1-1.1.3 0 .6-.1.9-.1.3 0 .6 0 .9.1.8.2 1.5.6 2.1 1.1zm-6.6.8C5.4 4 6.7 4.7 8 4.7c1.3 0 2.6-.7 3.6-1.8.4.7.6 1.4.6 2.3 0 1.4-.6 2.8-1.4 3.8l-.5.5c-.1.1-.1.1-.2.1-.2.1-.3.2-.5.3-.1.1-.1.1-.2.1-.2.1-.4.2-.6.2h-.1c-.2.1-.5.1-.7.1-.2 0-.5 0-.7-.1h-.1c-.2 0-.4-.1-.6-.2-.1 0-.1 0-.2-.1-.2-.1-.3-.2-.5-.3-.1 0-.1-.1-.2-.1-.2-.2-.3-.4-.5-.5-.9-1-1.4-2.4-1.4-3.8 0-.9.2-1.7.6-2.3zm2.4 12.2l.6-1.9h1.2l.6 1.9H6.8zm8.3 0h-4.8l-.9-2.8H6.7l-.9 2.8H.9v-1.8c0-.7.4-1.4 1-1.8l2.7-1.6c.2.2.4.4.7.6l.1.1c.2.1.4.3.7.4.1 0 .1.1.2.1.2.1.5.2.7.2h.1c.3.1.5.1.8.1.3 0 .5 0 .8-.1h.1c.2-.1.5-.1.7-.2.1 0 .1-.1.2-.1.2-.1.5-.2.7-.4l.1-.1c.2-.2.5-.4.7-.6l2.7 1.6c.6.4 1 1.1 1 1.8v1.8h.2z" fill="#545454"/></svg><svg width="16" height="16" viewBox="0 0 16 16" id="man2" x="1239" y="1237" xmlns="http://www.w3.org/2000/svg"><path d="M8 1c2.2 0 4 1.8 4 4s-1.8 4-4 4-4-1.8-4-4 1.8-4 4-4zm0-1C5.2 0 3 2.2 3 5c0 2.7 2.2 5 5 5 2.7 0 5-2.2 5-5s-2.2-5-5-5zm3 12c1.9 0 3.4 1.3 3.9 3H1.1c.4-1.7 2-3 3.9-3h6zm0-1H5c-2.8 0-5 2.2-5 5h16c0-2.8-2.2-5-5-5z" fill="#545454"/></svg><svg width="16" height="16" viewBox="0 0 16 16" id="man3" x="1255" y="1253" xmlns="http://www.w3.org/2000/svg"><g fill="#545454"><path fill-rule="evenodd" clip-rule="evenodd" d="M1.61 11.61A5.5 5.5 0 015.5 10h3a.5.5 0 010 1h-3a4.5 4.5 0 00-4.472 4H6.5a.5.5 0 010 1h-6a.5.5 0 01-.5-.5 5.5 5.5 0 011.61-3.89zM7 1a3 3 0 100 6 3 3 0 000-6zM3 4a4 4 0 118 0 4 4 0 01-8 0z"/><path d="M10 13a.5.5 0 01.5-.5h5a.5.5 0 010 1h-5a.5.5 0 01-.5-.5z"/><path d="M13 10a.5.5 0 01.5.5v5a.5.5 0 01-1 0v-5a.5.5 0 01.5-.5z"/></g></svg><svg width="11" height="12" fill="#545454" viewBox="0 0 11 12" id="man4" x="1271" y="1269" xmlns="http://www.w3.org/2000/svg"><path fill-rule="evenodd" clip-rule="evenodd" d="M4.678 9.695c-1.663 0-3.118.937-3.747 2.305L0 11.56C.81 9.8 2.643 8.651 4.678 8.651h1.644c2.035 0 3.869 1.148 4.678 2.907l-.931.441c-.63-1.368-2.084-2.305-3.747-2.305H4.678z"/><path d="M5.603 1.042c1.335 0 2.363 1.043 2.363 2.398v1.147c0 1.355-1.028 2.397-2.363 2.397-1.336 0-2.466-.938-2.466-2.293V3.44c0-1.355 1.13-2.398 2.466-2.398zm0-1.042C3.65 0 2.109 1.564 2.109 3.44v1.147c0 1.876 1.542 3.44 3.391 3.44 1.85 0 3.39-1.564 3.39-3.44V3.44C8.994 1.564 7.453 0 5.604 0z"/></svg><svg width="16" height="16" fill="#545454" viewBox="0 0 16 16" id="man5" x="1282" y="1281" xmlns="http://www.w3.org/2000/svg"><path d="M8 0C3.6 0 0 3.6 0 8s3.6 8 8 8 8-3.6 8-8-3.6-8-8-8zM3.9 13.6c.7-1 2-1.6 3.3-1.6h1.6c1.3 0 2.6.6 3.3 1.6C11 14.5 9.5 15 8 15c-1.5 0-3-.5-4.1-1.4zm9-.6c-.9-1.2-2.5-2-4.1-2H7.2c-1.6 0-3.2.8-4.1 2C1.8 11.7 1 10 1 8c0-3.9 3.1-7 7-7s7 3.1 7 7c0 2-.8 3.7-2.1 5z"/><path d="M8 2.7C6.2 2.7 4.7 4.2 4.7 6v1.1c0 1.8 1.5 3.3 3.3 3.3 1.8 0 3.3-1.5 3.3-3.3v-1c0-1.9-1.5-3.4-3.3-3.4zm2.3 4.5c0 1.3-1 2.3-2.3 2.3-1.3 0-2.3-1-2.3-2.3V6.1c0-1.3 1-2.3 2.3-2.3 1.3 0 2.3 1 2.3 2.3v1.1z"/></svg><svg width="24" height="24" fill="#545454" viewBox="0 0 24 24" id="man6" x="1298" y="1297" xmlns="http://www.w3.org/2000/svg"><path d="M12 0C5.4 0 0 5.4 0 12s5.4 12 12 12 12-5.4 12-12S18.6 0 12 0zM5.85 20.4c1.05-1.5 3-2.4 4.95-2.4h2.4c1.95 0 3.9.9 4.95 2.4-1.65 1.35-3.9 2.1-6.15 2.1-2.25 0-4.5-.75-6.15-2.1zm13.5-.9c-1.35-1.8-3.75-3-6.15-3h-2.4c-2.4 0-4.8 1.2-6.15 3C2.7 17.55 1.5 15 1.5 12 1.5 6.15 6.15 1.5 12 1.5S22.5 6.15 22.5 12c0 3-1.2 5.55-3.15 7.5z"/><path d="M12 4.05C9.3 4.05 7.05 6.3 7.05 9v1.65c0 2.7 2.25 4.95 4.95 4.95s4.95-2.25 4.95-4.95v-1.5c0-2.85-2.25-5.1-4.95-5.1zm3.45 6.75c0 1.95-1.5 3.45-3.45 3.45-1.95 0-3.45-1.5-3.45-3.45V9.15c0-1.95 1.5-3.45 3.45-3.45 1.95 0 3.45 1.5 3.45 3.45v1.65z"/></svg><svg width="10" height="12" fill="#545454" viewBox="0 0 10 12" id="mark" x="1322" y="1321" xmlns="http://www.w3.org/2000/svg"><path d="M9 1v9.5L5.4 8.8 5 8.7l-.4.1L1 10.5V1h8zm1-1H0v12l5-2.2 5 2.2V0z"/></svg><svg width="10" height="12" fill="#545454" viewBox="0 0 10 12" id="mark2" x="1332" y="1333" xmlns="http://www.w3.org/2000/svg"><path d="M10 0H0v12l5-2.2 5 2.2V0z"/></svg><svg width="12" height="16" viewBox="0 0 12 16" id="marker" x="1342" y="1345" xmlns="http://www.w3.org/2000/svg"><g fill-rule="evenodd" clip-rule="evenodd" fill="#545454"><path d="M6 .93C3.502.93.91 2.82.91 6.13c0 .757.307 1.686.815 2.69.507 1.002 1.179 2.011 1.865 2.935A36.855 36.855 0 006 14.666a36.835 36.835 0 002.41-2.91c.686-.924 1.358-1.934 1.865-2.935.508-1.004.815-1.934.815-2.69C11.09 2.82 8.498.93 6 .93zm0 14.409l-.324.326-.001-.001-.003-.004-.013-.013-.048-.05a36.362 36.362 0 01-.816-.898 38.195 38.195 0 01-1.93-2.382c-.7-.944-1.415-2.02-1.948-3.07C.387 8.2 0 7.11 0 6.132 0 2.218 3.092 0 6 0c2.91 0 6 2.218 6 6.13 0 .98-.386 2.07-.917 3.118-.533 1.05-1.248 2.126-1.948 3.07a38.214 38.214 0 01-2.746 3.279l-.048.05-.013.013-.003.004s-.001.001-.325-.325zm0 0l.324.326L6 16l-.324-.335.324-.326z"/><path d="M6 4.47c-.897 0-1.625.744-1.625 1.66 0 .918.728 1.661 1.625 1.661s1.625-.743 1.625-1.66c0-.917-.728-1.66-1.625-1.66zM3.465 6.13C3.465 4.7 4.6 3.54 6 3.54c1.4 0 2.535 1.16 2.535 2.59C8.535 7.562 7.4 8.72 6 8.72c-1.4 0-2.535-1.159-2.535-2.59z"/></g></svg><svg width="8" height="12" fill="#545454" viewBox="0 0 8 12" id="marker2" x="1354" y="1361" xmlns="http://www.w3.org/2000/svg"><path fill-rule="evenodd" clip-rule="evenodd" d="M0 4.544C0 1.652 2.037 0 4 0s4 1.652 4 4.544c0 .66-.241 1.473-.64 2.35-.399.875-.927 1.756-1.466 2.564A31.79 31.79 0 014 12a31.778 31.778 0 01-1.894-2.543C1.566 8.65 1.04 7.768.641 6.893.24 6.016 0 5.204 0 4.543zM4 2a2 2 0 100 4 2 2 0 000-4z"/></svg><svg width="9" height="12" fill="#545454" viewBox="0 0 9 12" id="marker3" x="1362" y="1373" xmlns="http://www.w3.org/2000/svg"><g fill-rule="evenodd" clip-rule="evenodd"><path d="M4.5.697C2.627.697.682 2.115.682 4.598c0 .567.23 1.264.612 2.017.38.751.884 1.508 1.398 2.202A27.63 27.63 0 004.5 10.999a27.627 27.627 0 001.808-2.183c.514-.692 1.018-1.45 1.398-2.2.381-.753.612-1.45.612-2.018 0-2.483-1.944-3.9-3.818-3.9zm0 10.807l-.243.245v-.001l-.003-.003-.01-.01-.036-.037-.134-.144a28.65 28.65 0 01-1.925-2.316C1.624 8.53 1.088 7.723.688 6.936.29 6.15 0 5.333 0 4.598 0 1.664 2.319 0 4.5 0 6.682 0 9 1.664 9 4.598c0 .735-.29 1.552-.688 2.338-.4.788-.936 1.594-1.46 2.302a28.649 28.649 0 01-2.06 2.46l-.036.037-.01.01-.002.003h-.001l-.243-.244zm0 0l.243.245L4.5 12l-.243-.251.243-.245z"/><path d="M4.5 3.353c-.673 0-1.219.557-1.219 1.245 0 .688.546 1.245 1.219 1.245s1.219-.557 1.219-1.245c0-.688-.546-1.245-1.219-1.245z"/></g></svg><svg width="16" height="17" fill="#545454" viewBox="0 0 16 17" id="megafon" x="1371" y="1385" xmlns="http://www.w3.org/2000/svg"><path d="M15.4.002c-.1 0-.2 0-.3.1l-.6.3c-3 1.5-6.2 2.6-9.5 3.3H1.8c-1 0-1.8.9-1.8 1.9v2.4c0 1 .8 1.9 1.8 1.9h.6l2.2 5.4c.3.4.7.7 1.2.7h1c.5 0 .9-.6.7-1.1l-2.1-5c3.1.7 6.2 1.8 9.1 3.2l.6.3c.1 0 .2.1.3.1.3 0 .6-.3.6-.6V.602c0-.3-.3-.6-.6-.6zm-13.6 8.8c-.4 0-.8-.3-.8-.8v-2.4c0-.5.4-.9.8-.9H3v4.1H1.8zm4 6.2c-.1 0-.2-.1-.3-.2l-2-4.9h.8l2.2 5.1h-.7zM4 8.802v-4.1h1v4.1H4zm11 3.5c-2.9-1.5-5.9-2.6-9-3.3v-4.4c3.1-.7 6.1-1.8 9-3.3v11z"/></svg><svg width="16" height="16" viewBox="0 0 16 16" id="message" x="1387" y="1402" xmlns="http://www.w3.org/2000/svg"><g fill="#545454"><path d="M14 0H2C.9 0 0 .9 0 2v8c0 1.1.9 2 2 2h1v4l7.049-4H14c1.1 0 2-.9 2-2V2c0-1.1-.9-2-2-2zm1 10c0 .6-.4 1-1 1H9.649L4 14.205V11H2c-.6 0-1-.4-1-1V2c0-.6.4-1 1-1h12c.6 0 1 .4 1 1v8z"/><path d="M9 8H7v2h2V8zm0-6H7v5h2V2z"/></g></svg><svg width="16" height="16" viewBox="0 0 16 16" id="message2" x="1403" y="1418" xmlns="http://www.w3.org/2000/svg"><g fill="#545454"><path d="M14 0H2C.9 0 0 .9 0 2v8c0 1.1.9 2 2 2h1v4l7.008-4H14c1.1 0 2-.9 2-2V2c0-1.1-.9-2-2-2zm1 10c0 .6-.4 1-1 1H9.608L4 14.222V11H2c-.6 0-1-.4-1-1V2c0-.6.4-1 1-1h12c.6 0 1 .4 1 1v8z"/><path d="M4 7a1 1 0 100-2 1 1 0 000 2zm4 0a1 1 0 100-2 1 1 0 000 2zm4 0a1 1 0 100-2 1 1 0 000 2z"/></g></svg><svg width="16" height="16" fill="#545454" viewBox="0 0 16 16" id="note" x="1419" y="1434" xmlns="http://www.w3.org/2000/svg"><g fill-rule="evenodd" clip-rule="evenodd"><path d="M15 1H1v14h9.586L15 10.586V1zm1 10l-5 5H0V0h16v11z"/><path d="M12 5H4V4h8v1zm0 3H4V7h8v1zm-4 3H4v-1h4v1zm2-1h5.5v1H11v5h-1v-6z"/></g></svg><svg width="16" height="16" viewBox="0 0 16 16" id="ok" x="1435" y="1450" xmlns="http://www.w3.org/2000/svg"><g fill="#545454"><path fill-rule="evenodd" clip-rule="evenodd" d="M8 15A7 7 0 108 1a7 7 0 000 14zm0 1A8 8 0 108 0a8 8 0 000 16z"/><path d="M6.514 12L3 8.241l.991-.964 2.523 2.699L12.099 4 13 5.06 6.514 12z"/></g></svg><svg width="10" height="8" viewBox="0 0 10 8" id="ok2" x="1451" y="1466" xmlns="http://www.w3.org/2000/svg"><path d="M3.514 8L0 4.241l.991-.964 2.523 2.699L9.099 0 10 1.06 3.514 8z" fill="#545454"/></svg><svg width="16" height="13" fill="#545454" viewBox="0 0 16 13" id="ok3" x="1461" y="1474" xmlns="http://www.w3.org/2000/svg"><path d="M5.622 13L0 6.89l1.586-1.566L5.622 9.71 14.559 0 16 1.722 5.622 13z"/></svg><svg width="16" height="12" fill="#545454" viewBox="0 0 16 12" id="ok4" x="1477" y="1487" xmlns="http://www.w3.org/2000/svg"><path fill-rule="evenodd" clip-rule="evenodd" d="M15.836.13a.5.5 0 01.034.706l-10 11a.5.5 0 01-.74 0l-5-5.5a.5.5 0 01.74-.672l4.63 5.093L15.13.164a.5.5 0 01.706-.034z"/></svg><svg width="12" height="12" fill="#545454" viewBox="0 0 12 12" id="pause" x="1493" y="1499" xmlns="http://www.w3.org/2000/svg"><path fill-rule="evenodd" clip-rule="evenodd" d="M4 1H1v10h3V1zm7 0H8v10h3V1zM0 0v12h5V0H0zm7 0v12h5V0H7z"/></svg><svg width="16" height="16" fill="#545454" viewBox="0 0 16 16" id="pause2" x="1505" y="1511" xmlns="http://www.w3.org/2000/svg"><path fill-rule="evenodd" clip-rule="evenodd" d="M8 15A7 7 0 108 1a7 7 0 000 14zm0 1A8 8 0 108 0a8 8 0 000 16z"/><path d="M5 3.998h2v8H5v-8zm4 0h2v8H9v-8z"/></svg><svg width="16" height="16" fill="#545454" viewBox="0 0 16 16" id="pause3" x="1521" y="1527" xmlns="http://www.w3.org/2000/svg"><path d="M5 4h2v8H5V4zm4 0h2v8H9V4z"/><path fill-rule="evenodd" clip-rule="evenodd" d="M14 1H2a1 1 0 00-1 1v12a1 1 0 001 1h12a1 1 0 001-1V2a1 1 0 00-1-1zM2 0a2 2 0 00-2 2v12a2 2 0 002 2h12a2 2 0 002-2V2a2 2 0 00-2-2H2z"/></svg><svg width="16" height="16" viewBox="0 0 16 16" id="pencil" x="1537" y="1543" xmlns="http://www.w3.org/2000/svg"><path d="M15.548 3.18L12.818.44c-.586-.587-1.464-.587-2.049 0L2.284 9.052l-.195.196L.04 15.413c-.097.196 0 .391.098.49.097.097.195.097.39.097h.195l6.145-2.055c.097 0 .097-.098.195-.098l8.583-8.612c.487-.489.487-1.467-.098-2.055zm-6.827.685l3.413 3.426-5.461 5.48-3.414-3.328 5.462-5.578zm-7.413 10.96l1.463-4.5 3.024 3.033-4.487 1.468zM14.865 4.55l-2.048 2.056L9.404 3.18l2.048-2.055a.47.47 0 01.682 0l2.731 2.74c.195.196.195.588 0 .685z" fill="#545454"/></svg><svg width="12" height="12" fill="#545454" viewBox="0 0 12 12" id="pencil2" x="1553" y="1559" xmlns="http://www.w3.org/2000/svg"><path d="M11.584 2.195L9.83.42c-.554-.56-1.385-.56-1.94 0L1.702 6.677c-.092.093-.092.093-.092.187L.039 11.44c-.093.187 0 .373.092.467C.223 12 .315 12 .5 12h.184l4.526-1.494c.092 0 .092-.094.185-.094l6.188-6.256a1.363 1.363 0 000-1.961zm-4.988.933l2.402 2.428-3.88 3.923L2.626 7.05l3.971-3.923zM1.24 10.88l1.016-2.988 1.94 1.961L1.24 10.88zm9.699-7.377L9.645 4.809 7.243 2.381l1.293-1.307a.781.781 0 01.647 0l1.755 1.774a.455.455 0 010 .654z"/></svg><svg width="16" height="16" fill="#545454" viewBox="0 0 16 16" id="pencil3" x="1565" y="1571" xmlns="http://www.w3.org/2000/svg"><path d="M0 0h12v1H0V0zm0 3h12v1H0V3zm0 3h11v1H0V6z"/><path d="M15.584 6.195L13.83 4.42c-.554-.56-1.385-.56-1.94 0l-6.188 6.257c-.092.093-.092.093-.092.187L4.04 15.44c-.093.187 0 .373.092.467.092.093.184.093.37.093h.184l4.526-1.494c.092 0 .092-.094.185-.094l6.188-6.256a1.363 1.363 0 000-1.961zm-4.988.933l2.402 2.428-3.88 3.923-2.493-2.428 3.971-3.923zM5.24 14.88l1.016-2.988 1.94 1.961L5.24 14.88zm9.699-7.377L13.646 8.81l-2.402-2.428 1.293-1.307a.781.781 0 01.647 0l1.755 1.774a.455.455 0 010 .654z"/><path d="M0 9h7.5v1H0V9z"/></svg><svg width="16" height="16" viewBox="0 0 16 16" id="people" x="1581" y="1587" xmlns="http://www.w3.org/2000/svg"><g fill="#545454"><path d="M10.002 3.002H8.996V4.01h1.006V3.003z"/><path d="M13.79 0H8.168c-1.204 0-2.19.988-2.19 2.193v3.812H2.19C.986 6.005 0 6.973 0 8.178v5.63A2.2 2.2 0 002.19 16h5.623a2.2 2.2 0 002.19-2.193V9.995h3.807c1.204 0 2.19-.988 2.19-2.193v-5.61C15.98.989 14.994 0 13.79 0zM8.996 13.807c0 .652-.532 1.186-1.183 1.186H2.19a1.188 1.188 0 01-1.184-1.186v-5.63c0-.651.533-1.184 1.184-1.184h5.623c.296 0 .572.118.789.316-.02.02-.02.04-.04.059l.158.079c.158.197.276.454.276.73v5.63zm5.978-5.985c0 .652-.533 1.185-1.184 1.185H9.983v-.81a2.25 2.25 0 00-.198-.888c.888-1.166 1.894-.968 2.762.553l.868-.494c-.867-1.54-1.795-1.857-2.426-1.857-.493 0-1.144.198-1.835.988a2.207 2.207 0 00-1.361-.494h-.809V2.193c0-.652.533-1.186 1.184-1.186h5.622c.651 0 1.184.534 1.184 1.186v5.63z"/><path d="M13.001 3.002h-1.006V4.01h1.006V3.003zM4.005 9.007H2.999v1.995h1.006V9.007zm2.999 0H5.998v1.995h1.006V9.007zm-3.571 3.141l-.868.494c.868 1.54 1.795 1.857 2.426 1.857.632 0 1.559-.316 2.427-1.857l-.868-.494c-.987 1.738-2.13 1.738-3.117 0z"/></g></svg><svg width="18" height="20" fill="#545454" viewBox="0 0 18 20" id="people2" x="1597" y="1603" xmlns="http://www.w3.org/2000/svg"><path d="M10.877 7.308a1.99 1.99 0 00.337-1.139C11.214 5 10.219 4.046 9 4.046c-1.22 0-2.214.954-2.214 2.123 0 .416.128.8.337 1.139-1.428.077-2.567 1.215-2.567 2.615v4.046c0 .723.61 1.308 1.348 1.308.112 0 .208-.015.305-.03v4.245c0 .277.24.508.529.508.289 0 .53-.23.53-.508v-9a.524.524 0 00-.53-.507c-.289 0-.53.23-.53.507v3.493a.311.311 0 01-.304.307.312.312 0 01-.305-.307V9.923c0-.892.754-1.615 1.668-1.615h3.466c.914 0 1.668.723 1.668 1.615v4c0 .2-.16.354-.353.354a.352.352 0 01-.353-.354v-3.43a.524.524 0 00-.53-.508.523.523 0 00-.529.507v8.985c0 .277.241.508.53.508.288 0 .53-.231.53-.508V15.23c.111.03.24.046.352.046.77 0 1.396-.6 1.396-1.354v-4c0-1.4-1.14-2.538-2.567-2.615zM7.829 6.185c0-.616.53-1.123 1.171-1.123.642 0 1.171.507 1.171 1.123 0 .615-.53 1.123-1.171 1.123-.642 0-1.171-.508-1.171-1.123zM6.61 3.6c1.026 0 1.877-.8 1.877-1.8S7.652 0 6.61 0C5.567 0 4.733.8 4.733 1.8s.834 1.8 1.877 1.8zm0-2.585c.449 0 .834.354.834.8 0 .447-.37.8-.834.8-.466 0-.835-.353-.835-.8 0-.446.37-.8.835-.8zM11.39 3.6c1.027 0 1.877-.8 1.877-1.8S12.433 0 11.39 0c-1.042 0-1.877.8-1.877 1.8s.85 1.8 1.877 1.8zm0-2.585c.45 0 .835.354.835.8 0 .447-.37.8-.835.8-.465 0-.834-.353-.834-.8 0-.446.385-.8.834-.8z"/><path d="M2.358 7.477h1.444c1.075 0 1.957-.846 1.957-1.877 0-1.03-.882-1.877-1.957-1.877-1.075 0-1.957.846-1.957 1.877 0 .323.08.63.24.892C.916 6.631 0 7.585 0 8.754v3.385c0 .646.545 1.169 1.22 1.169.063 0 .112-.016.176-.016v2.739c0 .277.24.508.53.508a.524.524 0 00.529-.508V9.215a.524.524 0 00-.53-.507c-.289 0-.53.23-.53.507v2.924c0 .092-.08.169-.176.169a.174.174 0 01-.176-.17V8.755a1.308 1.308 0 011.315-1.277zm1.444-2.754c.497 0 .915.4.915.877s-.418.877-.915.877c-.497 0-.914-.4-.914-.877a.906.906 0 01.914-.877zm12.112 1.769c.145-.261.241-.569.241-.892 0-1.03-.882-1.877-1.957-1.877-1.075 0-1.957.846-1.957 1.877 0 1.03.882 1.877 1.957 1.877h1.444c.722 0 1.315.57 1.315 1.277v3.385c0 .092-.08.169-.176.169a.174.174 0 01-.177-.17V9.216a.524.524 0 00-.53-.507.523.523 0 00-.529.507v6.816c0 .277.241.508.53.508.289 0 .53-.231.53-.508v-2.739a.653.653 0 00.176.016c.674 0 1.219-.523 1.219-1.17V8.755a2.317 2.317 0 00-2.086-2.262zm-2.63-.892c0-.477.416-.877.914-.877.497 0 .914.4.914.877s-.417.877-.914.877c-.498 0-.915-.4-.915-.877z"/></svg><svg width="10" height="16" viewBox="0 0 10 16" id="phone" x="1615" y="1623" xmlns="http://www.w3.org/2000/svg"><g fill="#545454"><path d="M8.176 0H1.918C.908 0 0 .9 0 1.9v12.2c0 1 .908 1.9 1.918 1.9h6.157c1.11 0 1.917-.9 1.917-1.9V1.9C10.093.9 9.185 0 8.176 0zM1.009 4h8.075v8H1.009V4zm8.075 10.1a.9.9 0 01-.908.9H1.918a.9.9 0 01-.909-.9V13h8.075v1.1zM1.009 3V1.9c0-.5.404-.9.909-.9h6.157c.605 0 1.009.4 1.009.9V3H1.009z"/><path d="M5.047 15c.557 0 1.009-.448 1.009-1s-.452-1-1.01-1c-.557 0-1.009.448-1.009 1s.452 1 1.01 1z"/></g></svg><svg width="16" height="12" viewBox="0 0 16 12" id="photo" x="1625" y="1639" xmlns="http://www.w3.org/2000/svg"><g fill="#545454"><path d="M14 1c.6 0 1 .4 1 1v8c0 .6-.4 1-1 1H2c-.6 0-1-.4-1-1V2c0-.6.4-1 1-1h12zm0-1H2C.9 0 0 .9 0 2v8c0 1.1.9 2 2 2h12c1.1 0 2-.9 2-2V2c0-1.1-.9-2-2-2z"/><path d="M8 3c1.7 0 3 1.3 3 3S9.7 9 8 9 5 7.7 5 6s1.3-3 3-3zm0-1C5.8 2 4 3.8 4 6s1.8 4 4 4 4-1.8 4-4-1.8-4-4-4zm5.8 1h-1c-.5 0-.8-.3-.8-.7 0-.4.3-.7.7-.7h1c.4 0 .7.3.7.7.1.4-.2.7-.6.7z"/></g></svg><svg width="28" height="24" viewBox="0 0 28 24" id="play" x="1641" y="1651" xmlns="http://www.w3.org/2000/svg"><g fill="#545454"><path d="M25.667 0H2.333C.933 0 0 .96 0 2.4v19.2C0 23.04.933 24 2.333 24h23.334c1.4 0 2.333-.96 2.333-2.4V2.4C28 .96 27.067 0 25.667 0zm0 21.6H2.333V2.4h23.334v19.2z"/><path d="M9.333 7.2v9.6l9.334-4.8-9.334-4.8z"/></g></svg><svg width="16" height="17" viewBox="0 0 16 17" id="play2" x="1669" y="1675" xmlns="http://www.w3.org/2000/svg"><g fill="#545454"><path fill-rule="evenodd" clip-rule="evenodd" d="M1 8a7 7 0 1014 0A7 7 0 001 8zm7-8a8 8 0 100 16A8 8 0 008 0z"/><path d="M5 12V4l8 4-8 4z"/></g></svg><svg width="24" height="20" fill="#545454" viewBox="0 0 24 20" id="play3" x="1685" y="1692" xmlns="http://www.w3.org/2000/svg"><path d="M21 1c1.1 0 2 .9 2 2v14c0 1.1-.9 2-2 2H3c-1.1 0-2-.9-2-2V3c0-1.1.9-2 2-2h18zm0-1H3C1.3 0 0 1.3 0 3v14c0 1.7 1.3 3 3 3h18c1.7 0 3-1.3 3-3V3c0-1.7-1.3-3-3-3z"/><path d="M9 5.8v8.3l7-4.6-7-3.7z"/></svg><svg width="19" height="16" fill="#545454" viewBox="0 0 19 16" id="play4" x="1709" y="1712" xmlns="http://www.w3.org/2000/svg"><path d="M16.625.8c.87 0 1.583.72 1.583 1.6v11.2c0 .88-.712 1.6-1.583 1.6H2.375c-.87 0-1.583-.72-1.583-1.6V2.4c0-.88.712-1.6 1.583-1.6h14.25zm0-.8H2.375C1.029 0 0 1.04 0 2.4v11.2C0 14.96 1.03 16 2.375 16h14.25C17.971 16 19 14.96 19 13.6V2.4C19 1.04 17.97 0 16.625 0z"/><path d="M7.125 4.64v6.64l5.542-3.68-5.542-2.96z"/></svg><svg width="12" height="12" fill="#545454" viewBox="0 0 12 12" id="play5" x="1728" y="1728" xmlns="http://www.w3.org/2000/svg"><path d="M10.882 5.673L.5 11.17V.788l10.382 4.885z"/></svg><svg width="12" height="12" fill="#545454" viewBox="0 0 12 12" id="play6" x="1740" y="1740" xmlns="http://www.w3.org/2000/svg"><path fill-rule="evenodd" clip-rule="evenodd" d="M0 12l12-6.353L0 0v12zM1 1.576v8.763L9.763 5.7 1 1.577z"/></svg><svg width="16" height="16" fill="#545454" viewBox="0 0 16 16" id="play7" x="1752" y="1752" xmlns="http://www.w3.org/2000/svg"><path fill-rule="evenodd" clip-rule="evenodd" d="M14.245 6.78L2.976 1.147A1.365 1.365 0 001 2.367v11.265a1.365 1.365 0 001.976 1.22l11.27-5.632c1.006-.502 1.006-1.938 0-2.44zM3.423.253C1.851-.533 0 .61 0 2.368v11.264c0 1.758 1.85 2.901 3.423 2.115l11.27-5.632c1.743-.871 1.743-3.359 0-4.23L3.422.253z"/></svg><svg width="16" height="16" viewBox="0 0 16 16" id="plus" x="1768" y="1768" xmlns="http://www.w3.org/2000/svg"><g fill="#545454"><path fill-rule="evenodd" clip-rule="evenodd" d="M8 15A7 7 0 108 1a7 7 0 000 14zm0 1A8 8 0 108 0a8 8 0 000 16z"/><path d="M12.5 7H9V3.5H7V7H3.5v2H7v3.5h2V9h3.5V7z"/></g></svg><svg width="16" height="16" fill="#545454" viewBox="0 0 16 16" id="plus2" x="1784" y="1784" xmlns="http://www.w3.org/2000/svg"><path d="M16 7H9V0H7v7H0v2h7v7h2V9h7V7z"/></svg><svg width="28" height="28" fill="#545454" viewBox="0 0 28 28" id="plus3" x="1800" y="1800" xmlns="http://www.w3.org/2000/svg"><path fill-rule="evenodd" clip-rule="evenodd" d="M1 14c0 7.18 5.82 13 13 13s13-5.82 13-13S21.18 1 14 1 1 6.82 1 14zM14 0C6.268 0 0 6.268 0 14s6.268 14 14 14 14-6.268 14-14S21.732 0 14 0z"/><path fill-rule="evenodd" clip-rule="evenodd" d="M13.5 19V9h1v10h-1z"/><path fill-rule="evenodd" clip-rule="evenodd" d="M9 13.5h10v1H9v-1z"/></svg><svg width="5" height="10" fill="#545454" viewBox="0 0 5 10" id="pointer" x="1828" y="1828" xmlns="http://www.w3.org/2000/svg"><path d="M.784 10L5 5 .784 0 0 .7 3.627 5 0 9.3l.784.7z"/></svg><svg width="12" height="7" fill="#545454" viewBox="0 0 12 7" id="pointer2" x="1833" y="1838" xmlns="http://www.w3.org/2000/svg"><path d="M3.856.846a.49.49 0 000-.7.487.487 0 00-.697 0L.146 3.14a.49.49 0 000 .7L3.16 6.86a.53.53 0 00.36.14c.14 0 .251-.056.363-.14a.49.49 0 000-.7L1.736 4.008H12V3H1.708L3.856.846z"/></svg><svg width="8" height="12" fill="#545454" viewBox="0 0 8 12" id="pointer3" x="1845" y="1845" xmlns="http://www.w3.org/2000/svg"><path d="M5.5 11C4.1 11 3 9.9 3 8.5V4h2L2.5 0 0 4h2v4.5C2 10.4 3.6 12 5.5 12H8v-1H5.5z"/></svg><svg width="12" height="10" fill="#545454" viewBox="0 0 12 10" id="pointer4" x="1853" y="1857" xmlns="http://www.w3.org/2000/svg"><path d="M8 3H4v2L0 2.5 4 0v2h4a4 4 0 010 8H0V9h8a3 3 0 000-6z"/></svg><svg width="10" height="17" fill="#545454" viewBox="0 0 10 17" id="pointer5" x="1865" y="1867" xmlns="http://www.w3.org/2000/svg"><path fill-rule="evenodd" clip-rule="evenodd" d="M7.205 8.5L0 15.62 1.397 17 10 8.5 1.397 0 0 1.38 7.205 8.5z"/></svg><svg width="22" height="16" fill="#545454" viewBox="0 0 22 16" id="pointer6" x="1875" y="1884" xmlns="http://www.w3.org/2000/svg"><path d="M6 16V0l16 8-16 8zM0 5h6v6H0V5z"/></svg><svg width="20" height="20" fill="#545454" viewBox="0 0 20 20" id="pointer7" x="1897" y="1900" xmlns="http://www.w3.org/2000/svg"><path fill-rule="evenodd" clip-rule="evenodd" d="M20 10c0 5.523-4.477 10-10 10S0 15.523 0 10 4.477 0 10 0s10 4.477 10 10zM10 9L7.5 5 5 9h2v6h1V9h2zm3 2V5h-1v6h-2l2.5 4 2.5-4h-2z"/></svg><svg version="1" width="32" height="32" viewBox="0 0 128 128" id="preloader_dark" x="1917" y="1920" xmlns="http://www.w3.org/2000/svg"><path d="M78.75 16.18V1.56a64.1 64.1 0 0147.7 47.7H111.8a49.98 49.98 0 00-33.07-33.08zM16.43 49.25H1.8a64.1 64.1 0 0147.7-47.7V16.2a49.98 49.98 0 00-33.07 33.07zm33.07 62.32v14.62A64.1 64.1 0 011.8 78.5h14.63a49.98 49.98 0 0033.07 33.07zm62.32-33.07h14.62a64.1 64.1 0 01-47.7 47.7v-14.63a49.98 49.98 0 0033.08-33.07z" fill="#545454"/></svg><svg version="1" width="14" height="14" viewBox="0 0 128 128" id="preloader_dark_small" x="1949" y="1952" xmlns="http://www.w3.org/2000/svg"><path d="M78.75 16.18V1.56a64.1 64.1 0 0147.7 47.7H111.8a49.98 49.98 0 00-33.07-33.08zM16.43 49.25H1.8a64.1 64.1 0 0147.7-47.7V16.2a49.98 49.98 0 00-33.07 33.07zm33.07 62.32v14.62A64.1 64.1 0 011.8 78.5h14.63a49.98 49.98 0 0033.07 33.07zm62.32-33.07h14.62a64.1 64.1 0 01-47.7 47.7v-14.63a49.98 49.98 0 0033.08-33.07z" fill="#545454"/></svg><svg width="16" height="16" fill="#545454" viewBox="0 0 16 16" id="print" x="1963" y="1966" xmlns="http://www.w3.org/2000/svg"><path fill-rule="evenodd" clip-rule="evenodd" d="M11 9H5v6h6V9zM4 8v8h8V8H4zm7-7H5v2h6V1zM4 0v3h8V0H4z"/><path d="M2 4h12a1 1 0 011 1v6a1 1 0 01-1 1h-2v1h2a2 2 0 002-2V5a2 2 0 00-2-2H2a2 2 0 00-2 2v6a2 2 0 002 2h2v-1H2a1 1 0 01-1-1V5a1 1 0 011-1z"/><path d="M12 6a1 1 0 112 0 1 1 0 01-2 0z"/></svg><svg width="16" height="16" viewBox="0 0 16 16" id="question" x="1979" y="1982" xmlns="http://www.w3.org/2000/svg"><g fill="#545454"><path d="M8 16c-4.476 0-8-3.545-8-7.952C0 3.545 3.524 0 8 0s8 3.545 8 8.048C15.905 12.455 12.381 16 8 16zM8 .958C4.095.958.952 4.12.952 8.048s3.143 7.09 7.048 7.09c3.905 0 7.048-3.162 7.048-7.09S11.809.958 8 .958z"/><path d="M7.688 10.162l.886-.379c-.247-.19-.392-.48-.392-.713C8.182 7.643 11 7.454 11 5.256 11 4.004 9.925 3 8.153 3 6.773 3 5.697 3.582 5 4.485l.726.786c.538-.713 1.22-1.194 2.31-1.194 1.148 0 1.715.626 1.715 1.354 0 1.543-2.63 1.703-2.63 3.552 0 .436.174.844.567 1.179zM7.993 13a.807.807 0 00.799-.8.807.807 0 00-.8-.801.807.807 0 00-.798.8c0 .437.363.801.799.801z"/></g></svg><svg width="16" height="16" fill="#545454" viewBox="0 0 16 16" id="question2" x="1995" y="1998" xmlns="http://www.w3.org/2000/svg"><path d="M14 0H2C.9 0 0 .9 0 2v8c0 1.1.9 2 2 2h1v4l7.03-4H14c1.1 0 2-.9 2-2V2c0-1.1-.9-2-2-2zm1 10c0 .6-.4 1-1 1H9.63L4 14.216V11H2c-.6 0-1-.4-1-1V2c0-.6.4-1 1-1h12c.6 0 1 .4 1 1v8z"/><path d="M8.5 2.5h-1c-1.1 0-2 .9-2 2V5h1v-.5c0-.6.5-1 1-1h.9c.6 0 1 .5 1 1 0 .2 0 .4-.1.5L7.5 6.8V8h1v-.8l1.6-1.5.1-.1c.2-.3.3-.7.3-1.1 0-1.1-.9-2-2-2zm0 6.1h-1v1h1v-1z"/></svg><svg width="12" height="12" fill="#545454" viewBox="0 0 12 12" id="question3" x="2011" y="2014" xmlns="http://www.w3.org/2000/svg"><path d="M6 12c-3.357 0-6-2.659-6-5.964C0 2.659 2.643 0 6 0s6 2.659 6 6.036C11.929 9.34 9.286 12 6 12zM6 .719C3.071.719.714 3.089.714 6.036c0 2.946 2.357 5.317 5.286 5.317 2.929 0 5.286-2.371 5.286-5.317S8.857.719 6 .719z"/><path d="M5.766 7.621l.664-.284c-.185-.142-.294-.36-.294-.535 0-1.07 2.114-1.211 2.114-2.86 0-.939-.806-1.692-2.136-1.692-1.035 0-1.841.437-2.364 1.114l.545.59c.403-.536.915-.896 1.732-.896.861 0 1.286.47 1.286 1.015 0 1.157-1.972 1.277-1.972 2.664 0 .327.13.633.425.884zm.229 2.129a.605.605 0 00.599-.6c0-.328-.273-.6-.6-.6a.605.605 0 00-.599.6c0 .327.273.6.6.6z"/></svg><svg width="20" height="20" fill="#545454" viewBox="0 0 20 20" id="question4" x="2023" y="2026" xmlns="http://www.w3.org/2000/svg"><path fill-rule="evenodd" clip-rule="evenodd" d="M10 19a9 9 0 100-18 9 9 0 000 18zm0 1c5.523 0 10-4.477 10-10S15.523 0 10 0 0 4.477 0 10s4.477 10 10 10z"/><path d="M9.375 11.875l1.531-.465a.892.892 0 01-.253-.61C10.653 9.577 13 9.418 13 7.296 13 5.945 11.89 5 10.077 5 8.87 5 7.745 5.509 7 6.41l1.138 1.323c.436-.538 1.026-.902 1.729-.902.772 0 1.095.378 1.095.829 0 1.003-2.051 1.206-2.051 2.936 0 .509.169.945.464 1.279zM10.049 15c.618 0 1.138-.538 1.138-1.177 0-.64-.52-1.178-1.138-1.178-.618 0-1.138.538-1.138 1.178 0 .64.52 1.177 1.138 1.177z"/></svg><svg width="16" height="14" viewBox="0 0 16 14" id="refresh" x="2043" y="2046" xmlns="http://www.w3.org/2000/svg"><path d="M15.485 5.767h-1.138C13.812 2.503 11.168 0 7.99 0a6.076 6.076 0 00-4.048 1.56c-.368.326-.402.87-.134 1.269.3.399.803.435 1.17.145.87-.762 1.908-1.16 3.012-1.16 2.242 0 4.15 1.704 4.652 3.953h-1.105c-.435 0-.669.544-.435.943l1.975 3.192a.48.48 0 00.836 0l1.974-3.192c.268-.4.034-.943-.401-.943zm-4.216 5.005c-.904.907-2.041 1.415-3.28 1.415-2.375 0-4.316-1.85-4.718-4.317h1.172c.435 0 .669-.544.435-.943L2.903 3.736a.48.48 0 00-.836 0L.093 6.927c-.235.4 0 .943.435.943h1.104C1.966 11.316 4.677 14 7.989 14c1.64 0 3.213-.69 4.417-1.886l.034-.036a.965.965 0 00.033-1.27c-.334-.326-.87-.362-1.204-.036z" fill="#545454"/></svg><svg width="16" height="16" fill="#545454" viewBox="0 0 16 16" id="refresh2" x="2059" y="2060" xmlns="http://www.w3.org/2000/svg"><path d="M7.423 2.002V.124c0-.104.148-.155.24-.104l4.158 2.843c.074.052.074.138 0 .19l-4.176 2.86c-.093.069-.24 0-.24-.104V3.931c-3.049.052-5.506 2.447-5.34 5.324.148 2.567 2.402 4.67 5.155 4.807 3.012.138 5.524-2.016 5.71-4.755a.35.35 0 01.35-.31h1.386c.185 0 .351.137.333.327-.185 3.963-3.954 7.081-8.352 6.633C3.21 15.595.457 13.028.051 9.824c-.517-4.204 2.975-7.77 7.372-7.822z"/></svg><svg width="28" height="24" fill="#545454" viewBox="0 0 28 24" id="repair" x="2075" y="2076" xmlns="http://www.w3.org/2000/svg"><path fill-rule="evenodd" clip-rule="evenodd" d="M16.052 1.113L27.709 20.57a2.386 2.386 0 010 2.286C27.303 23.55 26.465 24 25.657 24H2.343c-.808 0-1.647-.451-2.051-1.143-.373-.692-.405-1.594 0-2.286L11.948 1.143A2.377 2.377 0 0114 0c.84 0 1.648.421 2.052 1.113zm-.543 8.102c.916 0 1.434-.719 1.434-1.664 0-.832-.677-1.4-1.434-1.513a.82.82 0 01-.14-.02C15.32 6.01 15.27 6 15.23 6c-.876 0-1.154.756-1.154 1.702s.557 1.513 1.433 1.513zM16.226 22H26.34l-3.584-5.863c-1.016.448-1.635 1.242-2.189 1.951v.002l-.16.203-4.062-2.232-1.831-6.581c-.08-.378-.478-.794-.916-.984a.945.945 0 00-.438-.113h-3.146c-.477 0-.796.227-1.035.605l-1.433 2.27c-.24.416-.08 1.021.239 1.134l1.91 1.06-.079.075c-.199.378-.04.908.279 1.097l4.101 2.156v4.199c0 .454.358.794.836.794.24 0 .478-.076.637-.265a.73.73 0 00.24-.53V16.78l4.06 2.232c-.458.398-.936.501-1.395.6-.457.1-.894.195-1.272.572A4.608 4.608 0 0016.226 22zm-6.013-9.343L8.9 11.938l1.314-2.118h1.673l-1.673 2.837zm2.39 1.362l1.114-1.854.837 2.913-1.952-1.06zm-2.947.908l1.832.983c.08 0 .199.794.159.832.08.492-.12 1.022-.2 1.173L8.86 21.433c-.12.15-.717.53-1.195.189-.318-.227-.438-.795-.199-1.135l2.429-3.29c.163-.218.086-.613.03-.894-.012-.062-.023-.118-.03-.166l-.239-1.21z"/></svg><svg width="24" height="27" fill="#545454" viewBox="0 0 24 27" id="rouble" x="2103" y="2100" xmlns="http://www.w3.org/2000/svg"><path d="M7.674 26.68V15.6h7.72c5.08 0 8.04-3.6 8.04-7.8 0-4.2-2.92-7.8-8.04-7.8h-10v26.68h2.28zm7.48-13.16h-7.48V2.08h7.48c3.52 0 5.88 2.36 5.88 5.72s-2.36 5.72-5.88 5.72z"/><path d="M7.674 26.68V15.6h7.72c5.08 0 8.04-3.6 8.04-7.8 0-4.2-2.92-7.8-8.04-7.8h-10v26.68h2.28zm7.48-13.16h-7.48V2.08h7.48c3.52 0 5.88 2.36 5.88 5.72s-2.36 5.72-5.88 5.72z"/><path d="M0 13.68h7v2H0v-2z"/><path d="M0 13.68h7v2H0v-2zM0 18.68h19v2H0v-2z"/><path d="M0 18.68h19v2H0v-2z"/><defs><linearGradient id="fka" y1="13.34" x2="19.996" y2="21.631" gradientUnits="userSpaceOnUse"><stop stop-color="#2F80ED"/><stop offset="1" stop-color="#6A08B8"/></linearGradient><linearGradient id="fkb" y1="13.34" x2="19.996" y2="21.631" gradientUnits="userSpaceOnUse"><stop stop-color="#2F80ED"/><stop offset="1" stop-color="#6A08B8"/></linearGradient><linearGradient id="fkc" y1="13.34" x2="19.996" y2="21.631" gradientUnits="userSpaceOnUse"><stop stop-color="#2F80ED"/><stop offset="1" stop-color="#6A08B8"/></linearGradient></defs></svg><svg width="20" height="16" fill="#545454" viewBox="0 0 20 16" id="scissors" x="2127" y="2127" xmlns="http://www.w3.org/2000/svg"><path d="M15.025 8H9.884L0 3.35s2.37-1.477 6.515.513a981.43 981.43 0 016.146 2.953L15.01 5.71a3.186 3.186 0 01-.858-.944c-.878-1.497-.387-3.445 1.104-4.327a3.146 3.146 0 014.308 1.107c.878 1.497.389 3.446-1.102 4.328h-.021L15.025 8zm2.62-3.522a1.523 1.523 0 01-2.083-.533 1.538 1.538 0 01.53-2.092 1.524 1.524 0 012.083.533c.43.718.185 1.661-.53 2.092zM15.025 8H9.884L0 12.65s2.37 1.477 6.515-.513a982.472 982.472 0 006.146-2.953l2.349 1.107a3.187 3.187 0 00-.858.944c-.878 1.497-.387 3.445 1.104 4.327 1.49.882 3.43.39 4.308-1.107.878-1.497.389-3.446-1.102-4.328h-.021L15.025 8zm2.62 3.522a1.523 1.523 0 00-2.083.533 1.538 1.538 0 00.53 2.092c.715.43 1.655.185 2.083-.533a1.537 1.537 0 00-.53-2.092z" fill-rule="evenodd" clip-rule="evenodd"/></svg><svg width="16" height="16" fill="#545454" viewBox="0 0 16 16" id="search" x="2147" y="2143" xmlns="http://www.w3.org/2000/svg"><path d="M15.922 15.169l-4.032-4.052c1.034-1.143 1.654-2.701 1.654-4.364C13.441 3.013 10.443 0 6.721 0 2.998 0 0 3.013 0 6.753s2.998 6.754 6.72 6.754a6.454 6.454 0 004.343-1.663l4.032 4.052c.104.104.207.104.414.104s.31 0 .413-.104c.104-.104.104-.52 0-.727zm-9.201-2.702c-3.102 0-5.687-2.597-5.687-5.714 0-3.117 2.585-5.714 5.687-5.714 3.101 0 5.686 2.597 5.686 5.714 0 3.117-2.585 5.714-5.686 5.714z"/></svg><svg width="16" height="16" viewBox="0 0 16 16" id="send" x="2163" y="2159" xmlns="http://www.w3.org/2000/svg"><path d="M10 2.2l4.6 4.7-4.6 5.4V9.1L9.1 9s-.4-.1-1-.1c-1.5 0-4.4.3-6.7 2.5C2.4 7.2 4.9 5 9 5h1V2v.2zM9 0v4C4 4 0 7 0 16c1.6-5.4 6.1-6 8.1-6H9v5l7-8-7-7z" fill="#545454"/></svg><svg width="16" height="16" viewBox="0 0 16 16" id="send2" x="2179" y="2175" xmlns="http://www.w3.org/2000/svg"><path d="M6 2.2L1.4 6.9 6 12.3V9.1l.9-.1s.4-.1 1-.1c1.5 0 4.4.3 6.7 2.5C13.6 7.2 11.1 5 7 5H6V2v.2zM7 0v4c5 0 9 3 9 12-1.6-5.4-6.1-6-8.1-6H7v5L0 7l7-7z" fill="#545454"/></svg><svg width="13" height="24" fill="#545454" viewBox="0 0 13 24" id="slider-arrow" x="2195" y="2191" xmlns="http://www.w3.org/2000/svg"><path d="M1 1.5L11 12 1 22.5"/></svg><svg width="16" height="16" viewBox="0 0 16 16" id="star" x="2208" y="2215" xmlns="http://www.w3.org/2000/svg"><path d="M7.983 1.53l1.615 3.48c.231.487.67.834 1.2.904l3.738.58-2.746 2.852a1.677 1.677 0 00-.438 1.368l.646 3.942-3.23-1.809a1.528 1.528 0 00-.785-.208c-.277 0-.53.07-.761.208l-3.23 1.81.646-3.943a1.5 1.5 0 00-.439-1.368L1.431 6.493l3.714-.58c.531-.07.97-.417 1.2-.904L7.983 1.53zm0-1.53a.625.625 0 00-.553.348L5.445 4.59a.65.65 0 01-.461.348l-4.476.696c-.485.07-.67.672-.346 1.02l3.276 3.386a.6.6 0 01.161.51l-.738 4.753c-.07.395.254.696.6.696a.793.793 0 00.3-.07l3.945-2.203a.637.637 0 01.3-.069c.116 0 .208.023.3.07l3.946 2.202c.092.047.184.07.3.07a.623.623 0 00.6-.696l-.762-4.753a.6.6 0 01.162-.51l3.276-3.386c.346-.348.139-.95-.346-1.02l-4.476-.696a.596.596 0 01-.462-.348L8.537.348A.625.625 0 007.983 0z" fill="#545454"/></svg><svg width="16" height="16" viewBox="0 0 16 16" id="star2" x="2224" y="2231" xmlns="http://www.w3.org/2000/svg"><path d="M7.43.348A.625.625 0 017.983 0c.208 0 .439.116.554.348l2.007 4.243a.596.596 0 00.462.348l4.476.696c.485.07.692.672.346 1.02l-3.276 3.386a.6.6 0 00-.162.51l.762 4.753a.623.623 0 01-.9.626l-3.946-2.203a.637.637 0 00-.3-.069.637.637 0 00-.3.07L3.761 15.93a.793.793 0 01-.3.07c-.346 0-.67-.301-.6-.696l.738-4.753a.6.6 0 00-.161-.51L.162 6.655c-.323-.348-.139-.95.346-1.02l4.476-.696a.65.65 0 00.461-.348L7.43.348z" fill="#545454"/></svg><svg width="16" height="16" fill="#545454" viewBox="0 0 16 16" id="stat" x="2240" y="2247" xmlns="http://www.w3.org/2000/svg"><path d="M8.5 0h-1C3.3.3 0 3.8 0 8c0 4.4 3.6 8 8 8s8-3.6 8-8c0-4.2-3.3-7.7-7.5-8zM15 8c0 1.2-.3 2.3-.8 3.3L8.8 7.9l4.8-4.1C14.5 5 15 6.4 15 8zm-2-4.9L8.5 6.9V1c1.7.1 3.3.9 4.5 2.1zM8 15c-3.9 0-7-3.1-7-7 0-3.7 2.9-6.7 6.5-7v7c0 .2.1.3.2.4l5.9 3.7C12.4 13.9 10.3 15 8 15z"/></svg><svg width="12" height="12" fill="#545454" viewBox="0 0 12 12" id="stats" x="2256" y="2263" xmlns="http://www.w3.org/2000/svg"><path d="M0 11h12v1H0v-1zm0-4h2.182v3H0V7zm3.273-3h2.182v6H3.273V4zm3.272-4h2.182v10H6.545V0zm3.273 2H12v8H9.818V2z"/></svg><svg width="16" height="16" viewBox="0 0 16 16" id="stop" x="2268" y="2275" xmlns="http://www.w3.org/2000/svg"><path d="M2 2.7l.3-.4.4-.3C4.2.7 6 0 8 0c4.4 0 8 3.6 8 8 0 2-.7 3.8-2 5.3l-.4.4-.3.3c-1.5 1.3-3.3 2-5.3 2-4.4 0-8-3.6-8-8 0-2 .7-3.8 2-5.3zM8 1c-1.7 0-3.3.6-4.6 1.7l9.9 9.9C14.4 11.3 15 9.7 15 8c0-3.9-3.1-7-7-7zm0 14c1.7 0 3.3-.6 4.6-1.7L2.7 3.4C1.6 4.7 1 6.3 1 8c0 3.9 3.1 7 7 7z" fill="#545454"/></svg><svg width="17" height="17" viewBox="0 0 17 17" id="stop2" x="2284" y="2291" xmlns="http://www.w3.org/2000/svg"><g fill="#545454"><path fill-rule="evenodd" clip-rule="evenodd" d="M1 8a7 7 0 1014 0A7 7 0 001 8zm7-8a8 8 0 100 16A8 8 0 008 0z"/><path d="M5 5h6v6H5V5z"/></g></svg><svg width="16" height="16" fill="#545454" viewBox="0 0 16 16" id="stop3" x="2301" y="2308" xmlns="http://www.w3.org/2000/svg"><path fill-rule="evenodd" clip-rule="evenodd" d="M8 15A7 7 0 108 1a7 7 0 000 14zm0 1A8 8 0 108 0a8 8 0 000 16z"/><path d="M4 7h8v2H4V7z"/></svg><svg width="32" height="32" fill="#545454" viewBox="0 0 32 32" id="techsupport" x="2317" y="2324" xmlns="http://www.w3.org/2000/svg"><path d="M26.067 24.086l-4.978-2.852a2.61 2.61 0 00-3.135.416l-2.291 2.286a.742.742 0 01-.809.164 13.007 13.007 0 01-6.956-6.953.744.744 0 01.164-.81l2.288-2.29a2.607 2.607 0 00.416-3.132L7.912 5.937a2.592 2.592 0 00-2.793-1.253 6.58 6.58 0 00-5.117 6.233 20.797 20.797 0 006.044 14.96l.06.06A20.882 20.882 0 0020.567 32c.172 0 .346-.002.518-.007a6.582 6.582 0 006.235-5.114 2.59 2.59 0 00-1.254-2.793zm-.48 2.398a4.8 4.8 0 01-4.55 3.732c-4.876.137-10.11-1.985-13.682-5.545l-.034-.034c-3.556-3.564-5.679-8.802-5.541-13.67a4.8 4.8 0 013.733-4.55.713.713 0 01.157-.017.822.822 0 01.699.421L9.223 11.8a.826.826 0 01-.132.992l-2.287 2.29a2.519 2.519 0 00-.552 2.74 14.787 14.787 0 007.93 7.925 2.52 2.52 0 002.738-.552l2.29-2.286a.829.829 0 01.995-.132l4.978 2.852a.803.803 0 01.404.856zM24.38 0a7.631 7.631 0 00-7.606 7.033 7.623 7.623 0 00.64 3.701l-1.887 5.756 6.153-1.732A7.63 7.63 0 0032 7.626 7.624 7.624 0 0024.379 0zm0 13.473a5.735 5.735 0 01-2.294-.469l-.29-.126-3.54.997 1.075-3.278-.17-.33a5.735 5.735 0 01-.631-2.641 5.846 5.846 0 013.611-5.403 5.852 5.852 0 017.976 4.262 5.846 5.846 0 01-5.737 6.988zm-.91-6.603h1.778v5.042H23.47V6.869zm0-3.491h1.778v1.94H23.47v-1.94z"/></svg><svg width="12" height="16" fill="#545454" viewBox="0 0 12 16" id="ticket" x="2349" y="2356" xmlns="http://www.w3.org/2000/svg"><path fill-rule="evenodd" clip-rule="evenodd" d="M8.83 1a3.001 3.001 0 01-5.66 0H1v14h2.17a3.001 3.001 0 015.66 0H11V1H8.83zM8 0a2 2 0 11-4 0H1a1 1 0 00-1 1v14a1 1 0 001 1h3a2 2 0 014-.001L11 16a1 1 0 001-1V1a1 1 0 00-1-1H8z"/><path d="M0 5h2v1H0V5zm10 0h2v1h-2V5zM4 5h4v1H4V5z"/></svg><svg width="14" height="16" fill="#545454" viewBox="0 0 14 16" id="trash" x="2361" y="2372" xmlns="http://www.w3.org/2000/svg"><path d="M14 3h-4V1.4C10 .6 9.4 0 8.6 0H5.4C4.6 0 4 .6 4 1.4V3H0v1h1l.9 11c0 .6.5 1 1.1 1h8c.6 0 1-.4 1.1-1L13 4h1V3zM5 1.4c0-.2.2-.4.4-.4h3.2c.2 0 .4.2.4.4V3H5V1.4zM10.7 15H3.3c-.2 0-.3-.1-.3-.3L2 4h10l-.9 10.7c0 .2-.2.3-.4.3z"/></svg><svg width="12" height="12" fill="#545454" viewBox="0 0 12 12" id="trash2" x="2375" y="2388" xmlns="http://www.w3.org/2000/svg"><path d="M12 2H9v-.6C9 .6 8.4 0 7.6 0H4.4C3.6 0 3 .6 3 1.4V2H0v1h1l.9 8c.1.6.5 1 1.1 1h6c.5 0 1-.4 1.1-1l.9-8h1V2zm-8-.6c0-.2.2-.4.4-.4h3.2c.2 0 .4.2.4.4V2H4v-.6zM8.7 11H3.3c-.2 0-.4-.1-.4-.3L2 3h8l-1 7.7c0 .2-.1.3-.3.3z"/></svg><svg width="10" height="16" fill="#545454" viewBox="0 0 10 16" id="trophy" x="2387" y="2400" xmlns="http://www.w3.org/2000/svg"><path d="M3.031 11.94c.488-.4 1.185-.6 2.021-.6.837 0 1.464.2 1.951.6.28.2.419.4.488.532.07.133.279.2.488.133.14-.066.21-.266.14-.465-.14-.2-.349-.466-.697-.8-.628-.465-1.394-.731-2.37-.731-.975 0-1.812.266-2.37.732-.348.266-.626.599-.696.799-.07.133 0 .332.14.465.139.067.348 0 .487-.133 0-.133.14-.332.418-.532z"/><path d="M.523 12.34v3.327c0 .2.139.333.348.333h8.362c.21 0 .349-.133.349-.333V12.34c0-.2-.14-.332-.349-.332H.871c-.209 0-.348.133-.348.332zm.697.332h7.665v2.662H1.22v-2.662zM.592 3.354a.348.348 0 00-.487 0 .312.312 0 000 .466l2.369 2.13c.14.133.348.133.488 0a.312.312 0 000-.466l-2.37-2.13z"/><path d="M3.659 3.487c.209 0 .348-.2.278-.4 0-.199-.209-.332-.418-.265l-3.205.465c-.21 0-.349.2-.28.4.07.2.21.333.419.266l3.206-.466zm-.628 2.33c0-.2-.07-.333-.278-.4-.21-.066-.349.067-.419.267l-.557 3.061c0 .2.07.333.279.4.209 0 .348-.067.418-.267l.557-3.061z"/><path d="M1.986 8.479c-.14.067-.209.266-.14.466.07.133.28.2.488.133l2.858-1.464c.139-.067.209-.267.139-.466-.07-.133-.279-.2-.488-.067L1.986 8.48zm5.575.333c0 .2.209.333.418.266.21 0 .349-.2.279-.4L7.7 5.685c0-.2-.209-.333-.418-.267-.209.067-.348.2-.279.4l.558 2.995z"/><path d="M5.192 7.081c-.14-.066-.349 0-.488.133-.07.133 0 .333.14.466L7.7 9.145c.14.066.349 0 .488-.134.07-.133 0-.332-.14-.465L5.193 7.08zm4.39-3.195c.209 0 .348-.066.418-.266 0-.2-.07-.333-.279-.4l-3.205-.398c-.21 0-.349.066-.418.266-.07.2.07.333.278.4l3.206.398z"/><path d="M7.073 5.484a.312.312 0 000 .466c.14.133.349.133.488 0l2.3-2.13a.312.312 0 000-.466.348.348 0 00-.488 0l-2.3 2.13zm-.906-2.197c.07.134.279.2.488.134.14-.067.21-.267.14-.466L5.33.225C5.26.026 5.051-.04 4.842.093c-.14.066-.209.266-.14.399l1.464 2.795z"/><path d="M5.331.492c.07-.133 0-.333-.14-.466-.139-.066-.348 0-.487.133L3.31 2.955c-.14.2-.07.399.14.466.139.066.348 0 .487-.134L5.331.492zM4.007 11.008h.697V7.68h-.697v3.328zm1.393 0h.698V7.68H5.4v3.328z"/></svg><svg width="16" height="11" fill="#545454" viewBox="0 0 16 11" id="video" x="2397" y="2416" xmlns="http://www.w3.org/2000/svg"><path fill-rule="evenodd" clip-rule="evenodd" d="M11 2a1 1 0 00-1-1H2a1 1 0 00-1 1v7a1 1 0 001 1h8a1 1 0 001-1V6.476L15 9V2l-4 2.57V2zm1 .817V2a2 2 0 00-2-2H2a2 2 0 00-2 2v7a2 2 0 002 2h8a2 2 0 002-2v-.78l2.318 1.511c.398.264.715.345 1.08.186A1 1 0 0016 9V2a1 1 0 00-.601-.917c-.366-.159-.737-.07-1.081.186L12 2.817z"/><path d="M11 3h1v5h-1V3z"/></svg><svg width="16" height="14" viewBox="0 0 16 14" id="warning" x="2413" y="2427" xmlns="http://www.w3.org/2000/svg"><g fill="#545454"><path d="M15.565 14H.434c-.183 0-.275-.096-.366-.287a.3.3 0 010-.383L7.587.215c.184-.287.642-.287.826 0L15.93 13.33c.092.191.092.287 0 .479-.091.191-.275.191-.366.191zM1.26 13.043h13.478L7.954 1.46 1.261 13.043z"/><path d="M7.954 3.949c.367 0 .734.287.734.574v4.404c0 .287-.275.574-.734.574-.458 0-.642-.287-.642-.574V4.523c0-.287.275-.574.642-.574zm0 6.126c.367 0 .734.287.734.575v1.053c0 .287-.275.574-.734.574-.458 0-.642-.287-.642-.574V10.65c0-.288.275-.575.642-.575z"/></g></svg><svg width="20" height="20" fill="#545454" viewBox="0 0 20 20" id="warning2" x="2429" y="2441" xmlns="http://www.w3.org/2000/svg"><path fill-rule="evenodd" clip-rule="evenodd" d="M10 19a9 9 0 100-18 9 9 0 000 18zm0 1c5.523 0 10-4.477 10-10S15.523 0 10 0 0 4.477 0 10s4.477 10 10 10z"/><path d="M10.943 11.647L11.229 5H9.043l.3 6.647h1.6zm-.8 3.353c.628 0 1.157-.546 1.157-1.182 0-.65-.529-1.196-1.157-1.196-.629 0-1.143.546-1.143 1.196C9 14.454 9.514 15 10.143 15z"/></svg><svg width="12" height="12" fill="#545454" viewBox="0 0 12 12" id="weight" x="2449" y="2461" xmlns="http://www.w3.org/2000/svg"><path d="M10.5 12h-9C.7 12 0 11.3 0 10.5V5.7c0-.8.7-1.5 1.5-1.5h2.1c.3 0 .5-.2.5-.5s-.2-.6-.5-.6c-.8 0-1.5-.7-1.5-1.5S2.7 0 3.6 0h4.8c.8 0 1.5.7 1.5 1.5s-.6 1.6-1.5 1.6c-.3 0-.5.2-.5.5s.2.5.5.5h2.1c.8 0 1.5.7 1.5 1.5v4.8c0 .9-.7 1.6-1.5 1.6zm-9-6.9c-.3 0-.5.3-.5.6v4.8c0 .3.2.5.5.5h8.9c.3 0 .5-.2.5-.5V5.7c0-.3-.2-.5-.5-.5h-2c-.8 0-1.5-.7-1.5-1.5s.7-1.5 1.5-1.5c.3 0 .5-.2.5-.5S8.7 1 8.4 1H3.6c-.3 0-.5.2-.5.5s.2.5.5.5c.8 0 1.5.7 1.5 1.5s-.7 1.6-1.5 1.6H1.5z"/></svg></svg>