<svg xmlns="http://www.w3.org/2000/svg" width="99" height="226" fill="none"><g fill="#0c3670"><path d="M96.567 225.386a2.28 2.28 0 0 0 .688-.108c1.192-.374 1.923-1.62 1.627-2.782L57.1 56.304c-.3-1.163-1.497-1.806-2.7-1.432s-1.923 1.62-1.627 2.782l41.794 166.2c.23.942 1.062 1.54 2.002 1.54zm-34.4 0a2.28 2.28 0 0 0 .688-.108c1.192-.374 1.923-1.62 1.628-2.782L22.7 56.304c-.3-1.163-1.497-1.806-2.7-1.432s-1.924 1.62-1.628 2.782l41.794 166.2c.23.942 1.062 1.54 2.002 1.54z"/><path d="M34.195 112.216H68.05c1.227 0 2.3-1 2.376-2.213a2.04 2.04 0 0 0-2.063-2.214H34.508a2.42 2.42 0 0 0-2.376 2.214c-.087 1.224.835 2.213 2.063 2.213zm6.388 27.844h34.26a2.42 2.42 0 0 0 2.376-2.214c.087-1.224-.84-2.213-2.063-2.213h-34.26c-1.227 0-2.3 1-2.376 2.213a2.04 2.04 0 0 0 2.063 2.214zm-13.18-55.547h33.856c1.227 0 2.3-1 2.376-2.214s-.84-2.214-2.063-2.214H27.715a2.42 2.42 0 0 0-2.376 2.214 2.03 2.03 0 0 0 2.063 2.214zm20.378 83.394h33.7c1.227 0 2.3-1 2.376-2.213a2.04 2.04 0 0 0-2.063-2.214h-33.71a2.42 2.42 0 0 0-2.376 2.214c-.087 1.224.84 2.213 2.063 2.213zm7.13 27.848h33.773c1.227 0 2.3-1 2.376-2.213a2.04 2.04 0 0 0-2.063-2.214H55.222a2.42 2.42 0 0 0-2.376 2.214c-.087 1.224.835 2.213 2.063 2.213z"/></g><path d="M19.286 23.07l.144-.56s-1.558-1.8-3.3-1.41-.836 2.46-.836 2.46l4-.5z" fill="#ffd556"/><path d="M14.93 19.272a.65.65 0 0 0 .435-.812l-1.58-5.19a1.88 1.88 0 0 1 1.258-2.344l7.46-2.26a2.57 2.57 0 0 0 1.715-3.203l-.653-2.144C23.093 1.773 21.45.896 19.9 1.365l-3.368 1.02a.65.65 0 0 0-.435.812c.104.343.47.538.814.434l3.368-1.02c.862-.26 1.776.226 2.037 1.085l.653 2.144c.204.668-.174 1.376-.844 1.58l-7.46 2.26a3.19 3.19 0 0 0-2.128 3.971l1.58 5.19c.104.338.47.534.814.43z" fill="#311e69"/><path d="M2.275 4.04L15.156.138a3.22 3.22 0 0 1 4 2.13c.514 1.683-.448 3.477-2.137 4L4.138 10.16a3.22 3.22 0 0 1-4-2.13c-.514-1.683.448-3.477 2.137-4zm12.43 14.604c.9-.273 1.858.24 2.132 1.137l3.13 10.373a1.71 1.71 0 0 1-1.14 2.127c-.9.273-1.858-.24-2.132-1.137l-3.13-10.373a1.71 1.71 0 0 1 1.14-2.127z" fill="#a0c9ff"/><path d="M13.903 19.168c.4 1.228 1.197 3.516 1.906 4.76.605 1.055 1.784 1.202 2.637 1.15l1.514 5.074a1.71 1.71 0 0 1-1.14 2.127c-.9.273-1.858-.24-2.132-1.137L13.56 20.77c-.17-.577-.022-1.172.344-1.602z" fill="#311e69"/><path d="M.265 5.84c1.023.404 3.75 2.287 5.04 1.87 1.584-.516.718-3.338 6.367-1.775 2.24.62 4.652-1.9 6.114-2.457.718-.273 1.192-.135 1.493.074a3.22 3.22 0 0 1-2.25 2.704L4.146 10.16c-1.688.512-3.486-.447-4-2.13a3.12 3.12 0 0 1 .118-2.187z" fill="#1f5cae"/><path d="M66.963 26.332s-.862 1.102-1.197 2.526.344 3.116 1.7 3.576c.957.32 3.464-.916 3.3-2.843s-3.803-3.26-3.803-3.26z" fill="#ffd556"/><path d="M69.46 31.907c-.705.47-1.523.677-1.984.52-1.014-.343-1.645-1.358-1.77-2.443.688.746 1.928 1.74 3.755 1.923z" fill="#eac34f"/><path d="M72.84 38.055c-2 4.557-.305 9.696 2.894 21.293-5.566.152-12.29-5.603-16.64-5.273-2.972.226-1.427 3.97-1.427 3.97 6.72 11.853 22.04 13.173 25.775 9.527 7.568-7.387-.41-22.6-2.663-26.11-1.527-2.378-6.17-7.417-7.937-3.407z" fill="#ffd556"/><path d="M82.094 43.734c-.222.096-.426.213-.61.373-3.364 2.92.705 10.286.705 10.286s.27 5.482-1.097 7.734-3.83 2.687-8.712 2.734-7.124-2.964-10.97-5.278c-1.536-.924-2.65-1.163-3.434-1.12 7.084 12.213 21.98 12.517 25.47 9.106 6.445-6.29 1.614-18.25-1.353-23.836z" fill="#eac34f"/><path d="M74.147 53.606C72.04 45.893 71.2 41.78 72.842 38.05c1.767-4 6.4 1.03 7.938 3.407.9 1.42 2.75 4.74 4.125 8.685-1.958 1.202-5.683 3.016-10.757 3.464z" fill="#87b3ee"/><path d="M51.867 133.624c-.88-1.25-1.145-2.64-1.266-3.78 0 0-3.142 1.48-4.63 2.665-.457.364-1.2.885-2.454 1.432-1.97 1.05-4.404 2.404-4.478 3.086-.122 1.133 11.6.898 13.516-.23 1-.586.28-1.806-.688-3.173zm28.425 26.06l-.422-2.348-3.908.26-.557 1.103s-5.122 2.647-3.568 4.666c-.096.52 9.02 1.132 10.118-.34.775-1.042-1.662-3.342-1.662-3.342z" fill="#0d3a78"/><path d="M60.614 70.023c3.982.738 8.355.972 12.333.972 5.274 0 9.86-.408 11.95-.603.23.868 1.588 7.595 1.89 8.56 2.254 7.287-2.668 26.966-3.042 36.098-.122 2.973 5.56 30.86 1.327 42.287-.392 1.054-2.272 1.944-6.07 1.636-1.45-.117-4.26-1.654-4.395-3.1-.83-8.772-6.062-42.486-6.062-60.993-5.122-1.124-19.013-.86-17.668 2.956 2.83 8.03 3.468 36.926-2.493 36.74-11.606-.365-11.106-35.872-10.344-40.647 1.997-12.548 21.44-21.16 22.577-23.906z" fill="#4179c5"/><path d="M75.823 78.654c-4.547-1.393.853-5.27 5.518-7.964l3.555-.29 1.275 5.91c-2.18 1.727-5.875 3.715-10.348 2.344z" fill="#0d3a78"/><path d="M72.115 35.193l-.9-4.752c-.318-1.202-.735-1.8-1.336-2.092-1.284-.603-2.106 7.387-1.514 7.713s3.75-.868 3.75-.868z" fill="#ffd556"/><path d="M60.614 70.023l.966-7.59c.374-2.943-.087-5.942-1.397-8.607-2.032-4.132-4.373-11.693-.4-15.27 5.287-4.753 17.328-6.34 19.722 2.82 1.332 5.09 1.327 16.823 5.392 29.02.9 2.726-1.8 6.662-6.95 7.873-12.75 3.008-17.333-8.246-17.333-8.246z" fill="#aed1ff"/><path d="M59.783 38.556c2.037-1.83 5.07-3.186 8.173-3.646-.77 1.936-1.684 4.865-1.745 8.02-.11 5.534.683 19.64 3.93 25.4 1.545 2.74 2.676 6.753 3.233 10.447-9.29-.24-12.76-8.746-12.76-8.746l.966-7.59c.374-2.943-.087-5.942-1.397-8.607-2.032-4.132-4.373-11.693-.4-15.27z" fill="#87b3ee"/><path d="M71.646 32.483c3.285-1.29 4.756-7.053 1.845-9.058-6.127-4.227-7.01-.152-6.628 3.047.196 1.636.914 2.73 1.04 3.008.374.807 2.29 3.576 3.742 3.003z" fill="#0d3a78"/><g fill="#ffd556"><path d="M67.376 29.454s-.135-.716.457-1.068.957.412.5 1.476c-.457 1.072-.95.742-.957-.408zm-4.93 7.924c-2.198-.63-15.527 4.466-18.647 4.45-5.46-.03-20.453-20.616-24.696-17.36s10.335 26.04 21.65 29c9.165 2.404 20.9-1.975 23.2-5.03 4.234-5.642 1.023-10.343-1.497-11.068z"/><path d="M20.944 24.597s-1.258-2.582-2.528-2.517-1.732 1.194-3.116.912-2.515.62-1.89 1.432c.635.816 6.053 4.865 7.533.174z"/></g><path d="M39.3 89.897c3.138 2.088 7.376 4.4 7.98 2.187.98-3.58 15.122-6.293 23.5-5.317s12.185 6.5 10.527 8.572-4.54 27.67-3.45 32.01-.11 9.766.453 12.153c.405 1.732 5.548 4.783 8.334 6.324-.04 4.462-.466 8.54-1.567 11.5-.392 1.055-2.272 1.944-6.07 1.636-1.45-.117-4.26-1.653-4.395-3.1-.83-8.77-6.062-42.486-6.062-60.993-5.122-1.124-19.013-.86-17.668 2.956 2.83 8.03 3.468 36.927-2.494 36.74C36.78 134.2 37.28 98.703 38.042 93.93c.213-1.39.653-2.734 1.258-4.032z" fill="#0d3a78"/><path d="M19.103 24.465c.47-.36 1.066-.425 1.77-.265-.048 1.563.057 4.375 1.205 6.367 1.667 2.895 5.078 5.933 9.717 7.886s2.61 3.472 3.555 6.5 7.267 3.468 7.267 3.468l11.132 4.874c-4.108.955-8.816 1.272-12.994.174-11.32-2.973-25.897-25.76-21.654-29.014z" fill="#eac34f"/><path d="M64.548 46.68s-1.4 6.29-3.847 8.342l-.518-1.198c-.735-1.497-1.5-3.442-2.015-5.482l6.38-1.662z" fill="#0d3a78"/><path d="M43.272 41.766c.183.04.36.06.527.06 3.12.017 16.45-5.078 18.647-4.45 2.52.725 5.73 5.425 1.497 11.067C61.88 51.197 52.16 55.02 43.555 54c-1.462-4.2-.97-8.954-.283-12.235z" fill="#aed1ff"/><path d="M52.102 46.77c3.046-2.313 1.74-.725 5.148-1.024 2.585-.23 6.723-2.97 8.577-4.284.444 1.914.09 4.345-1.89 6.983C61.876 51.196 52.154 55.02 43.55 54c-.63-1.8-.896-3.72-.94-5.568 2.894.108 7.454-.113 9.49-1.662z" fill="#87b3ee"/><path d="M70.636 27.345c1.567.42 3.347-.282 4.408-.833.122 2.37-1.25 5.126-3.4 5.968-1.45.57-3.368-2.2-3.742-3.008-.126-.273-.844-1.367-1.04-3.008-.07-.573-.096-1.172-.06-1.75.68.773 2.102 2.166 3.834 2.63z" fill="#0c3670"/><path d="M73 24.2s.47-4.483 3.734-4.05 3.264 5.273 1.632 6.18-1.414 2.318-.835 2.643.418 1.8-1.314 1.536-3.76-2.947-3.216-6.31z" fill="#0d3a78"/><path d="M60.335 54.413s-3.046-1.085-5.792-.486-2.406 2.847-1.84 3.064 2.66-.92 3.064-.65-2.802 1.628-1.658 2.28 3.16.27 5.222 0c1.64-.22 2.067-3.42 1.005-4.206z" fill="#ffd556"/></svg>