<svg xmlns="http://www.w3.org/2000/svg" width="145" height="176" fill="none"><path d="M36.2 150.667c-1.042-1.626-1.31-3.4-1.412-4.838l-5.28-.162s.33 1.843-.588 3.25c-.4.61-1.538 1.043-3.113 1.66-2.494 1.207-5.574 2.77-5.696 3.622-.202 1.418 14.363 1.818 16.81.5 1.28-.682.424-2.256-.72-4.04z" fill="#0c3670"/><path d="M70.598 103.366S48.31 91.713 34.41 93.066c-15.36 1.5-19.918 51.338-6.407 54.93s12.13-2.663 12.9-6.36-2.448-30.153 1.09-29.86 22.083 13.82 32.312 7.486-3.698-15.896-3.698-15.896z" fill="#0d3a78"/><path d="M75.694 76.29S68.55 48.214 65.09 44.025s-10.656-2.957-12.384 1.654 3.598 29.545 4.77 31.2 18.218-.59 18.218-.59z" fill="#ffd556"/><path d="M109.872 139.25s3.527 1.16 5.76-.918 4.44-.214 4.396 4.96-1.135 8.58-2.792 9.772-6.746 2.66-7.33 1.3 3.687-5.095 3.687-5.095l-3.33-3.915-.39-6.103z" fill="#0c3670"/><path d="M75.68 102.218s-15.375 39.393-8.68 52.578 37.806-2.437 42.467-4.665 7.607-13.508-1.5-16.846-20.59 3.753-20.59 3.753 12.087-31.9 4.735-35.794-16.425.974-16.425.974z" fill="#0d3a78"/><path d="M108 133.3c-9.172-3.37-20.675 3.676-20.675 3.676s12.032-31.835 4.632-35.752c-3.134-1.655-6.567-1.744-9.5-1.3 2.103 6.597 5.144 16.954 4.577 20.1-.85 4.737-4.112 18.032-4.477 19.276-.297 1.02-1.055 17.048-8.38 20.3 11.716 2.186 31.713-7.726 35.382-9.46 4.678-2.204 7.6-13.47-1.57-16.84zm-66.045-21.503c3.538.293 22.077 13.816 32.302 7.484 1.44-.892 2.4-1.847 2.986-2.833-10.9.068-34.23-17.238-40.5-15.245-7.053 2.242-2.67 31.517-6.512 34.445-2.342 1.784-6.343 2.354-9.1 2.526 1.235 5.173 3.48 8.938 6.844 9.834 13.507 3.592 12.127-2.662 12.886-6.36s-2.452-30.146 1.1-29.852z" fill="#0c3670"/><path d="M52.712 45.677c-1.728 4.61 3.598 29.545 4.77 31.2s18.215-.592 18.215-.592l-.74-2.835C71 68.52 62.556 57.747 62.66 55.696c.136-2.676 4.75-5.36 2.44-11.676-3.466-4.2-10.66-2.954-12.387 1.657z" fill="#eac34f"/><path d="M94.463 104.154c4.436-21.52-2.887-33.54-6.84-36.352-10.438-7.433-28.91-.572-31.446 8.957-1.715 6.44 9.582 16.938 10.018 29.26.074 2.08 1.4 3.938 3.4 4.64 9.382 3.337 24.27-3.584 24.87-6.505z" fill="#4179c5"/><path d="M94.544 104.155c4.386-21.504-3.02-33.55-7.007-36.378-3.966-2.814-9.077-3.604-14.038-2.982 3.09 2.158 7.273 6.368 7.712 13.54.4 6.734-1.076 21.677-2.38 32.906 7.737-1.012 15.296-5.03 15.714-7.087z" fill="#0d3a78"/><path d="M77.24 52.727s-.65-3.378-3.793-3.1c-4.452.403-4.96 5.442-3.867 7.04 1.533 2.232 3.026 1.256 4.38.113s3.28-4.062 3.28-4.062z" fill="#4179c4"/><path d="M71.41 55.083s2.568-4.694 4.625-5.59c2.8-1.224 4.265 1.205 3.93 2.51s-2.913 4.086-3.737 4.268-4.82-1.188-4.82-1.188z" fill="#0c3670"/><path d="M71.57 58.02l-1.04 8.27c.213 1.095 6.705 3.005 8.145 1.29.422-.502.066-1.522-.64-2.567l-4.088-5.644-2.375-1.35z" fill="#ffd556"/><path d="M77.55 54.3s.812-.993-.586-2.44-6.457 3.432-6.572 5.068c-.174 2.442.89 3.794.89 3.794s6.335-3.605 6.267-6.423z" fill="#0d3a78"/><path d="M72.65 55.13l-.825 4.56c-.153 1.523.936 2.912 2.46 3.125 1.218.17 1.978.078 3.453-.292 1.23-.31 1.703-1.588 1.475-3.23-.293-2.127-1.17-4.01-1.697-4.993-1.197-2.25-4.11-2.102-4.867.83z" fill="#ffd556"/><path d="M71.822 59.686l.825-4.556c.1-.358.217-.673.368-.948.055.886.31 2.777.59 3.066.725.743.572-.005 2.033-.23.93-.144 2.275.124 3.132.343.18.606.337 1.253.43 1.93.227 1.64-.25 2.92-1.474 3.227-1.474.37-2.233.462-3.447.295a2.88 2.88 0 0 1-2.459-3.129z" fill="#0d3a78"/><path d="M75.714 57.975s1.07.126 2.505-.24c0 0 .17.948-.358 1.35-.536.406-1.644-.02-2.147-1.112z" fill="#fff"/><path d="M77.877 60.843c-1.437-.106-2.206 2.148-4.965.45-.516-.314-.883-1.184-1.083-1.702l-.018.1c-.153 1.52.934 2.91 2.458 3.12 1.217.17 1.976.078 3.45-.292.75-.187 1.216-.737 1.418-1.5-.254.07-.82-.135-1.26-.168z" fill="#0c3670"/><g fill="#ffd556"><path d="M73.027 56.906a4.21 4.21 0 0 1-.197-.839c-.075-.54-.315-1.332-1.06-.834-1.088.725-.74 3.363.63 3.414 1.015.036.875-1.06.627-1.74zm-7.752-5.683c1.303-1.195 1.902-2.978 1.617-4.737C65.648 38.77 61.5 15.283 57.2 16.3c-8.587 2.015-6.58 31.106-4.47 34.864 3.58 6.384 9.302 3.044 12.545.07zM81.983 70.7c-5.88 1.546-14.78 13.133-19 19.58-1.398 2.143-22.327.203-36.5 1.5-2.393.215-3.722 1.144-2.7 2.934 4.326 7.674 25.236 13.632 40.67 10.43 10.32-2.144 27.462-18.684 27.874-26.9.273-5.445-2.563-9.58-10.344-7.536z"/><path d="M23.94 92.914l-6.03 3.768c-1.038.882-3 5.77.595 6.44 1.45.27 1.588-3.106 3.746-3.13s4.8-2.282 5.016-4.08c.225-1.8-3.328-2.996-3.328-2.996z"/></g><path d="M92.325 78.22c.114-2.262-.3-4.3-1.403-5.76-1.544 2.78-7.807 6.576-11.025 10.164-3.838 4.278-4.425 9.95-5.398 12.725s-10.58 6.12-13.916 4.166-5.815 1.216-11.418.578-11.835-2.635-16.74-3.784c-3.202-.748-5.478.14-6.674.85 6.863 6.42 24.934 10.835 38.68 7.98 10.33-2.148 27.48-18.696 27.893-26.917zm-35.88-61.665c-7.717 3.5-5.766 30.96-3.72 34.603 2.697 4.803 6.605 4.095 9.756 2.188-.715-.972-3.328-4.648-4.06-7.202-.845-2.965.2-16.592-.45-21.804-.34-2.727-.673-5.686-1.524-7.785z" fill="#eac34f"/><path d="M56.325 17.215l7.13.084c1.357-.187 5.703-3.23 3.073-5.73-1.06-1.007-3.047 1.754-4.868.612s-5.27-.667-6.453.72 1.12 4.314 1.12 4.314z" fill="#ffd556"/></svg>