<svg xmlns="http://www.w3.org/2000/svg" width="104" height="152" fill="none"><path d="M84.674 148.112c-2.472-1.302-2.894-3.967-2.894-3.967L72.73 93.98c-4.84 2.634-10.95 3.624-17.002 3.75 3.272 13.17 9.42 30.75 20.805 46.415.474 1.515.67 2.53-.187 3.79a2.87 2.87 0 0 1 .744.855c.6 1.06 7.02 1.054 8.112.703.64-.204.06-.864-.527-1.38z" fill="#ffd556"/><path d="M77.09 148.79c.6 1.06 7.02 1.054 8.11.703.64-.204.06-.868-.526-1.38 1.98 1.015 4.43 2.322 4.513 3 .14 1.124-11.536 1.09-13.477 0-1.014-.57-.305-1.797.635-3.177.283.22.54.503.744.855z" fill="#0d3a78"/><path d="M38.298 144.15s.46 2.252.287 2.604c-.07.14-1.75.686-3.072 1.363-.592.516-1.166 1.176-.527 1.38 1.092.35 7.51.356 8.112-.703.2-.356.457-.638.744-.855-.58-.85 2.963-29.7 5.636-50.35-6.72-6.532-12.83-7.413-16.763-2.552 1.4 24.24 5.583 49.114 5.583 49.114z" fill="#ffd556"/><path d="M45.56 94.37c-1.34.595-2.537 1.47-3.13 2.778-1.828 4-.962 28.354-1.336 33.446-.218 2.977 1.145 8.155 3.003 12.09.87-9.41 3.373-29.57 5.38-45.1-1.336-1.298-2.642-2.365-3.917-3.216z" fill="#eac34f"/><path d="M69.43 65.162c-.374-8.88-5.178-15.113-8.216-18.798-3.55.108-7.724.065-11.906-.352-4.93-.495-4.217-.265-8.155-2.196-1.262 3.902-4.904 8.368-6.636 14.366-2.494 8.637-2.628 22.634-1.806 36.853 3.164.755 10.918 2.73 18.107 3.2.587-7.192.84-12.92 1.036-16.62-.083 3.563.178 9.236 1.89 16.128 8.064 1.632 14.14-1.115 18.978-3.75.004-15.034-3.212-26.905-3.3-28.823z" fill="#0d3a78"/><g fill="#ffd556"><path d="M55.18 26.833c1.244-3.664 5.1-5.755 8.884-4.996 3.757.752 8.68 1.514 11.017.936 5.27-1.308 16.786-9.814 19.303-7.854 4.522 3.524-11.026 15.752-18.77 17.28s-19.647-.973-20.407-2.283c-.5-.853-.4-1.95-.027-3.084z"/><path d="M93.066 15.708c.238-.617 1.592-1.775 2.515-2.214 1.767-.843 1.28-1.446 1.56-2.215s1.48-.4 1.165 1.444c-.2 1.18-.956 1.203.066 1.456 1.493.367 4.724.347 4.64.88-.088.562-2.756 4.558-7.222 4.92-1.254.102-4.06-.827-2.725-4.268z"/></g><path d="M75.612 32.202c-5.538 1.09-13.2.125-17.395-.993.985-1.457 2.678-2.704 4.218-3.38 3.6-1.582 19.412-2.62 21.987-3.733s8.458-7.382 10.045-8.004c.244-.096.47-.09.67-.007 1.003 4.497-12.485 14.726-19.527 16.117z" fill="#eac34f"/><g fill="#ffd556"><path d="M44.1 20.8s7.44-5.477 12.846-2.474 3.455 11.224 3.634 15.55 3.138 15.772 1.667 17.495-5.823 6.068-16.463 3.71C37 53.14 42.497 38.825 42.497 38.825s-.104-2.982-.51-5.247c-.805-4.44-1.715-10.082 2.102-12.778z"/><path d="M44.278 20.85S32.014 24.57 27.722 23.7c-5.562-1.123-15.874-11.108-20.5-7.313S19.43 32.307 27.586 33.55s20.48-1.902 21.214-3.305c1.72-3.27-4.522-9.394-4.522-9.394z"/></g><path d="M42.746 29.688c-2.72-.72-11.822-.677-15.405-.628s-2.9.303-7.117-2.427-5.655-4.31-8.814-5.257c-1.874-.566-3.498-1.178-4.514-1.59 2.5 5.094 14.28 12.79 20.7 13.768 6.318.964 15.13-.708 19.125-2.16-1.07-.602-2.535-1.328-3.966-1.705z" fill="#eac34f"/><path d="M9.726 16.46c-.14-.647-1.297-2-2.14-2.578-1.614-1.107-1.04-1.628-1.197-2.43s-1.4-.625-1.375 1.246c.013 1.198.757 1.337-.292 1.428-1.532.13-4.722-.4-4.722.148 0 .57 2.015 4.93 6.37 5.98 1.223.295 4.138-.187 3.355-3.793zM55.03 8.628l.374 2.4c.296 1.897-.918 3.776-2.815 4.115-1.75.308-3.438-.694-3.7-2.9-.23-1.957 1.166-3.65 1.67-4.535 1.153-2.023 3.834-1.788 4.47.93z" fill="#ffd556"/><path d="M52.38 14.352c-.718.022-1.998-.26-2.524-.7-.466-.386-.88-1.324-.97-1.532l.01.108c.257 2.205 1.95 3.212 3.7 2.9 1.166-.208 2.076-1.003 2.533-2.023-.98.92-2.102 1.228-2.746 1.246z" fill="#eac34f"/><path d="M54.1 12.805l.074 6.233c.01 1.024-2.524 3.663-4.147 2.36-.474-.382.148-1.788.596-2.856l1.227-5.35 2.25-.386zm-4.18-2.613a2.86 2.86 0 0 1-.013-.634c.026-.404-.026-1-.644-.755-.9.37-.93 2.526.056 2.76.735.17.68-.842.6-1.37z" fill="#ffd556"/><path d="M80.06 143.576c.426.36 1.027.52 1.7.547L72.724 93.98c-3.238 1.762-7.04 2.786-11.014 3.307l.022.707s2.14 13.177 5.688 15.773c3.542 2.59 3.9 5.538 4.252 8.602s6.284 19.422 8.4 21.206z" fill="#eac34f"/><path d="M69.43 65.16c-.374-8.88-5.18-15.113-8.216-18.797a103.08 103.08 0 0 1-5.923.013l-.165 9.054s4.382.213 6.388 3.763 4.39 10.147.718 12.86-2.61 4.774-2.846 9.575c-.14 2.79 1.2 10.443 2.346 16.367 4.3-.603 7.898-2.33 10.992-4.015 0-15.03-3.216-26.9-3.294-28.82z" fill="#082d61"/><path d="M43.098 148.79c-.6 1.06-7.02 1.054-8.112.703-.64-.204-.06-.868.527-1.38-1.98 1.015-4.43 2.322-4.513 3-.14 1.124 11.536 1.09 13.477 0 1.014-.57.305-1.797-.635-3.177a2.91 2.91 0 0 0-.744.855z" fill="#0d3a78"/><path d="M60.57 33.88c-.04-.92.022-2.023.083-3.207-1.236-3.516-1.662-9.457-2.415-11.397a6.5 6.5 0 0 0-1.301-.946c-3.303-1.836-7.36-.503-10.022.807-.535 2.49 1.023 6.805.01 9.974-.883 2.76-3.333 2.808-5.004 4.1.38 1.944.574 5.612.574 5.612S37 53.147 45.77 55.092c10.636 2.357 14.987-1.984 16.463-3.71s-1.488-13.173-1.662-17.5z" fill="#4179c5"/><g fill="#0d3a78"><path d="M49.847 7.877s-.792 6.32-.574 8.15-.76 4.2.392 8.086 12.59 2.452 12.568-3.446c-.026-7.865-4.32-6.762-4.878-11.927-.418-3.906-2.668-3.607-4.943-3.898-2.09-.273-2.624 1.354-2.563 3.034z"/><path d="M60.57 33.88c-.04-.92.022-2.023.083-3.207-1.236-3.516-1.662-9.457-2.415-11.397-.38-.356-.81-.673-1.3-.946-.97-.538-2.006-.8-3.05-.872l-.492 8.65s-1.397 9.64-.897 11.753c1.67 7.07 1.162 11.402 2.633 17.578 4.09-.83 6.175-2.964 7.11-4.054 1.466-1.736-1.497-13.177-1.67-17.504z"/></g><path d="M57.354 8.737c-.24-2.227-1.07-3.086-2.167-3.468.1.916.318 2.46.862 4.306.888 3.003 2.568 5.976.975 7.847s-2.14 3.98-5.017 2.843a8.54 8.54 0 0 1-2.82-1.836c-.13 1.47-.23 3.3.483 5.68 1.153 3.876 12.6 2.452 12.568-3.446-.03-7.86-4.326-6.758-4.883-11.927zm-6.532 89.48l.836-12.725s-8.377 6.588-9.226 11.654l8.4 1.072z" fill="#082d61"/></svg>