<svg width="14" height="29" viewBox="0 0 14 29" fill="none" xmlns="http://www.w3.org/2000/svg">
<path d="M8.25265 2.37617C7.86155 2.47628 7.43024 3.38942 7.82573 3.63683C8.22122 3.88496 8.1642 4.39123 8.41494 4.43842C8.66569 4.48561 9.25125 4.08446 9.38283 3.82847C9.51442 3.57248 9.60434 2.03151 8.25265 2.37617Z" fill="#0D3A78"/>
<path d="M7.96754 5.61311C7.63986 6.92181 5.92301 8.3057 3.97606 8.4414C-0.351129 8.74298 1.86144 2.64596 2.34948 2.82177C3.04714 3.07338 3.10549 6.28515 3.35844 6.51581C3.83353 6.94832 6.19863 5.76955 6.89302 5.31415C7.30694 5.0429 8.0538 5.26899 7.96754 5.61311Z" fill="#FFD556"/>
<path d="M4.09533 7.81912C3.88179 7.80915 2.91824 7.87929 2.51516 7.67137C2.11207 7.46345 2.20057 6.84255 2.20144 6.28955C2.20231 5.73656 1.93432 5.90049 1.68789 5.40819C1.44145 4.91588 2.25623 3.81401 2.23426 3.40678C2.22665 3.26389 2.15148 3.16533 2.05774 3.09677C1.36191 4.26485 0.270716 8.69909 3.97706 8.44163C5.2256 8.35449 6.37914 7.75296 7.13297 6.98807C6.39994 6.77316 4.29025 7.82837 4.09533 7.81912Z" fill="#EAC34F"/>
<path d="M7.96762 5.61211C8.05388 5.26799 7.30702 5.0419 6.8931 5.31315C6.4613 5.59618 5.38502 6.15838 4.51694 6.44017C4.52543 6.8679 4.60957 7.59968 5.02255 8.24657C6.50937 7.79676 7.70031 6.67886 7.96762 5.61211Z" fill="#AED1FF"/>
<path d="M4.71501 7.59518C4.78881 7.8118 4.88801 8.03344 5.02366 8.24562C6.42038 7.82367 7.55563 6.81116 7.90996 5.80546C6.85714 5.91115 4.72429 7.58865 4.71501 7.59518Z" fill="#87B3EE"/>
<path d="M2.60211 3.07539L2.34481 2.45548C2.34481 2.45548 2.2839 2.18249 2.12599 2.26747C2.03184 2.31828 1.9336 2.29507 1.85645 2.50977C1.77963 2.72384 1.98016 3.09229 2.20881 3.14802C2.43745 3.20375 2.60211 3.07539 2.60211 3.07539Z" fill="#FFD556"/>
<path d="M4.76683 27.0521C5.01889 26.8665 5.20541 26.7732 5.3507 26.5314C5.36061 26.5154 5.36636 26.4907 5.37077 26.4634C5.38696 26.3443 5.49938 26.261 5.62034 26.2835C5.90368 26.3364 6.41001 26.2984 6.55794 26.449C6.80348 26.6988 6.93056 27.0654 6.73931 27.2182C6.37321 27.5102 3.93294 27.9292 3.92249 27.6936C3.91579 27.5523 4.38875 27.3305 4.76683 27.0521Z" fill="#0C3670"/>
<path d="M12.7312 27.1051C12.4848 26.9124 12.3012 26.8138 12.1632 26.5679C12.1537 26.5516 12.1487 26.5268 12.1451 26.4994C12.1325 26.3799 12.0226 26.2934 11.9011 26.3123C11.6163 26.3571 11.1113 26.3046 10.9589 26.4509C10.706 26.6935 10.568 27.0563 10.7546 27.2145C11.1119 27.5169 13.5386 28.0058 13.556 27.7706C13.567 27.6296 13.1008 27.3943 12.7312 27.1051Z" fill="#0C3670"/>
<path d="M11.5159 19.5116C11.2088 17.9814 11.3484 16.5048 11.5071 14.9717C11.6292 13.7968 11.8894 12.2931 11.3455 11.1818C10.9201 10.2165 10.0399 9.51503 9.55302 8.58616C9.33298 8.16642 9.24087 7.70806 9.30959 7.23898C9.36003 6.89361 9.61077 6.45384 9.63928 6.10417C9.70727 5.28685 9.13925 4.58466 8.18671 4.67834C7.46518 4.74984 6.38106 5.32046 6.31673 6.09345C6.24655 6.93579 6.57186 7.74739 6.46586 8.60046C6.40153 9.11745 6.11861 9.55508 5.92123 10.0299C5.67707 10.6177 5.51112 11.2426 5.36126 11.859C5.06373 13.0825 4.86927 14.3288 4.72087 15.5773C4.42553 18.0558 4.31076 20.5549 4.27933 23.049C4.26398 24.2568 4.30053 25.3516 4.57613 25.6676C5.50381 26.7288 6.97685 26.8997 7.82485 25.777C8.66408 24.6651 7.43009 21.9335 7.28535 19.5438C7.21078 18.3146 7.32409 17.1362 7.61577 15.9385C7.7554 15.3664 7.8943 14.7943 8.03393 14.2223C8.12604 13.8455 8.33219 13.385 8.33219 12.9974L8.62241 18.7837C8.57709 19.5824 8.57416 20.3847 8.59902 21.1842C8.63996 22.4963 8.7094 23.9179 9.21455 25.1506C9.44921 25.7241 9.80523 26.1417 10.3974 26.3898C11.0502 26.663 12.0466 26.7752 12.4845 26.0952C12.7732 25.6476 12.7805 25.0455 12.7579 24.535C12.7272 23.8463 12.5971 23.162 12.4391 22.492C12.2008 21.4823 11.8901 20.482 11.5159 19.5116Z" fill="#4179C5"/>
<path d="M6.7982 15.5654C6.47947 16.4478 6.50213 18.274 6.68416 19.3209C6.86619 20.3678 6.38809 20.1225 6.27405 21.258C6.16001 22.3935 5.93266 24.6202 5.27253 24.6202C4.96988 24.6202 4.59559 24.2169 4.27832 23.7815C4.29002 24.6782 4.358 25.4175 4.57585 25.6671C5.50354 26.7282 6.97658 26.8991 7.82458 25.7765C8.66381 24.6646 7.42982 21.933 7.28507 19.5433C7.21051 18.3141 7.32382 17.1357 7.6155 15.9379C7.73612 15.4445 7.85601 14.9504 7.97663 14.457C7.66448 14.5843 7.0336 14.9125 6.7982 15.5654Z" fill="#0D3A78"/>
<path d="M12.7583 24.5362C12.7276 23.8476 12.5975 23.1633 12.4396 22.4933C12.2005 21.4829 11.8906 20.4825 11.5163 19.5122C11.2092 17.9819 11.3489 16.5053 11.5075 14.9722C11.6296 13.7974 11.8898 12.2936 11.3459 11.1824C10.9205 10.2171 10.0403 9.51558 9.55343 8.58671C9.33339 8.16697 9.24128 7.70861 9.31 7.23953C9.36044 6.89415 9.61118 6.45439 9.63969 6.10472C9.6704 5.73932 9.57317 5.39681 9.37141 5.13867C9.00808 5.56628 8.40278 6.38932 8.39401 7.14514C8.38085 8.22632 8.13376 8.61031 9.00004 9.17807C9.86632 9.74583 9.80199 10.7433 10.082 11.5142C10.362 12.285 10.8401 14.0219 10.7034 15.0738C10.5666 16.1256 10.0681 19.5494 10.7275 20.4346C11.3861 21.3199 10.6865 23.9584 9.74716 23.558C9.30488 23.3692 8.96129 23.247 8.72444 23.1132C8.80851 23.8161 8.95325 24.5098 9.21642 25.1519C9.45109 25.7254 9.8071 26.143 10.3992 26.3911C11.0521 26.6642 12.0485 26.7765 12.4863 26.0965C12.7736 25.6488 12.781 25.0461 12.7583 24.5362Z" fill="#0D3A78"/>
<path d="M8.03244 5.87117C8.14575 5.76463 8.49811 5.07316 8.67429 4.71849C8.53027 4.67702 8.36798 4.66129 8.18595 4.67916C8.01343 4.69632 7.81971 4.74209 7.62452 4.81216C7.4191 5.04313 7.03896 5.49791 7.047 5.69312C7.05943 5.96056 7.87819 6.01633 8.03244 5.87117Z" fill="#AED1FF"/>
<path d="M9.13381 5.01172C9.13381 5.01172 12.6201 5.8841 13.7752 8.32175C15.276 11.4895 8.75806 12.246 8.81581 10.8431C8.84651 10.1023 12.0236 9.40936 12.1113 9.21773C12.5134 8.34034 10.2567 7.33139 9.63018 6.83942C8.60966 6.03784 9.13381 5.01172 9.13381 5.01172Z" fill="#FFD556"/>
<path d="M8.52692 3.94141L8.46405 4.86956C8.45309 5.02258 8.03713 5.38512 7.80685 5.17275C7.7396 5.11054 7.85072 4.90817 7.93113 4.75515L8.18041 3.97287L8.52692 3.94141Z" fill="#FFD556"/>
<path d="M8.0332 4.43723C8.24155 4.39146 8.46964 4.10901 8.46964 4.10901L8.14578 4.08398L8.0332 4.43723Z" fill="#0D3A78"/>
<path d="M8.57573 3.34855L8.60424 3.70895C8.6269 3.99426 8.42002 4.26026 8.12834 4.28815C7.85931 4.31389 7.61515 4.14513 7.60199 3.81406C7.59029 3.52017 7.82203 3.2842 7.90903 3.15835C8.10787 2.87089 8.5114 2.93668 8.57573 3.34855Z" fill="#FFD556"/>
<path d="M8.57725 3.73544C8.59918 3.71184 8.61672 3.68538 8.63281 3.65821C8.66351 3.60601 8.72199 3.53522 8.77828 3.61816C8.86089 3.73901 8.68105 4.00859 8.53631 3.95496C8.42958 3.91563 8.52242 3.79479 8.57725 3.73544Z" fill="#FFD556"/>
<path d="M8.0133 3.78796C8.0133 3.78796 7.88098 3.76436 7.71796 3.66211C7.71796 3.66211 7.68945 3.75006 7.72893 3.80727C7.77718 3.87591 7.90292 3.90737 8.0133 3.78796Z" fill="white"/>
<path d="M8.10484 4.16871C7.99519 4.1637 7.80512 4.1065 7.73055 4.03571C7.66476 3.97278 7.61285 3.82905 7.60189 3.79688C7.60189 3.8026 7.60116 3.8076 7.60189 3.81332C7.61505 4.1444 7.85921 4.31315 8.12824 4.28741C8.30807 4.27025 8.45501 4.16227 8.53615 4.01568C8.37679 4.14082 8.20353 4.173 8.10484 4.16871Z" fill="#EAC34F"/>
<path d="M10.1381 13.0449C10.103 13.0449 10.073 13.0184 10.0701 12.9834C9.9919 12.0809 9.36979 11.4252 8.62487 11.4574C7.72496 11.4967 7.5444 12.9698 7.54294 12.9848C7.53855 13.0213 7.50492 13.0477 7.46764 13.0434C7.43036 13.0391 7.40331 13.0062 7.40769 12.9698C7.415 12.9047 7.60361 11.368 8.61975 11.3237C8.63949 11.323 8.65923 11.3223 8.67896 11.3223C9.47287 11.3223 10.125 12.0202 10.2076 12.9712C10.2105 13.0077 10.1827 13.0406 10.1454 13.0434C10.1425 13.0449 10.1403 13.0449 10.1381 13.0449Z" fill="#311E69"/>
<path d="M12.2822 6.54883C12.3684 6.96786 12.7946 7.5156 13.0929 7.82164C13.5483 8.2893 13.4569 9.13522 13.0476 9.49203C12.6374 9.84813 11.8231 9.90391 11.1717 10.4273C10.5204 10.9508 10.2959 10.7169 9.64019 10.8285C9.38068 10.8728 9.09557 10.9765 8.89746 11.1095C9.63508 12.1313 15.1712 11.2704 13.7757 8.32505C13.4321 7.59997 12.8838 7.01433 12.2822 6.54883Z" fill="#EAC34F"/>
<path d="M8.91227 10.6896C8.91227 10.6896 8.30551 10.8119 8.13664 11.1794C7.96777 11.547 8.63155 11.7322 8.80554 11.6764C9.16594 11.5613 8.73024 11.4018 8.73024 11.4018C8.73024 11.4018 9.49344 11.3296 9.5161 11.0007C9.53876 10.6724 8.91227 10.6896 8.91227 10.6896Z" fill="#FFD556"/>
<path d="M7.36426 13.0156V15.4926C7.36426 15.8516 8.01415 16.1419 8.81537 16.1419C9.61659 16.1419 10.2665 15.8509 10.2665 15.4926V13.0156H7.36426Z" fill="#0D3A78"/>
<path d="M8.81537 14.4657C8.01415 14.4657 7.36426 14.1747 7.36426 13.8164V14.5794C7.36426 14.9383 8.01415 15.2287 8.81537 15.2287C9.61659 15.2287 10.2665 14.9376 10.2665 14.5794V13.8164C10.2665 14.1747 9.61659 14.4657 8.81537 14.4657Z" fill="#74ACF6"/>
<path d="M8.81537 13.6657C9.61679 13.6657 10.2665 13.375 10.2665 13.0165C10.2665 12.6579 9.61679 12.3672 8.81537 12.3672C8.01394 12.3672 7.36426 12.6579 7.36426 13.0165C7.36426 13.375 8.01394 13.6657 8.81537 13.6657Z" fill="#1B4370"/>
<path d="M8.81537 13.6657C9.61679 13.6657 10.2665 13.375 10.2665 13.0165C10.2665 12.6579 9.61679 12.3672 8.81537 12.3672C8.01394 12.3672 7.36426 12.6579 7.36426 13.0165C7.36426 13.375 8.01394 13.6657 8.81537 13.6657Z" fill="#311E69"/>
<path d="M8.81537 12.5469C9.58807 12.5469 10.0815 12.8243 10.0815 13.0152C10.0815 13.2061 9.58807 13.4836 8.81537 13.4836C8.04266 13.4836 7.54921 13.2061 7.54921 13.0152C7.54921 12.8243 8.04266 12.5469 8.81537 12.5469ZM8.81537 12.3652C8.01415 12.3652 7.36426 12.6563 7.36426 13.0145C7.36426 13.3735 8.01415 13.6638 8.81537 13.6638C9.61659 13.6638 10.2665 13.3728 10.2665 13.0145C10.2665 12.6563 9.61659 12.3652 8.81537 12.3652Z" fill="white"/>
<path d="M7.65332 13.1822C7.83608 13.3366 8.25131 13.4839 8.81567 13.4839C9.38003 13.4839 9.79526 13.3359 9.97801 13.1822C9.71338 13.0241 9.29157 12.9219 8.81567 12.9219C8.33976 12.9219 7.91796 13.0241 7.65332 13.1822Z" fill="#74ACF6"/>
<path d="M9.25586 13.3154L9.45762 13.5221C9.49637 13.5614 9.5183 13.6143 9.5183 13.6694V14.1027C9.5183 14.2128 9.68498 14.2278 9.70106 14.1184C9.70106 14.117 9.70179 14.1156 9.70179 14.1141C9.71933 13.9726 9.62064 13.8574 9.73688 13.816C9.85238 13.7745 9.90136 13.9332 9.97812 13.7459C10.0549 13.5592 10.0125 13.3826 10.0125 13.3826L9.70837 13.1738L9.25586 13.3154Z" fill="#74ACF6"/>
<path d="M2.5513 0.561897L2.63376 0.618123L2.66087 0.702856L2.50736 0.728867L2.5513 0.561897Z" fill="#1B4370"/>
<path d="M3.38836 0.770049C3.38836 0.770049 3.43235 0.867303 3.48884 0.915175C3.48884 0.915175 3.2155 1.42154 3.21129 1.54083C3.20637 1.65997 2.91861 1.56824 3.04019 1.38441C3.16106 1.20043 3.26035 0.798628 3.38836 0.770049Z" fill="#AED1FF"/>
<path d="M3.23298 1.5436L3.16055 1.46669L1.77743 1.18113C1.77743 1.18113 1.59191 1.55085 1.63803 1.74899C1.68416 1.94713 1.96889 1.97591 2.03978 2.14338C2.11066 2.31085 1.77448 2.77693 1.70653 3.07479C1.67973 3.19153 1.66876 3.25077 1.71692 3.31595C1.81366 3.44785 2.03427 3.52315 2.18445 3.45233C2.25867 3.41747 2.33043 3.35351 2.36435 3.23828C2.4514 2.9452 2.38523 2.37852 2.52919 2.26534C2.67401 2.15161 2.8967 2.26107 3.03452 2.10848C3.1725 1.95518 3.23298 1.5436 3.23298 1.5436ZM2.00407 3.27707C1.922 3.25676 1.87783 3.15358 1.906 3.0474C1.93417 2.94122 2.02293 2.87133 2.105 2.89164C2.18707 2.91195 2.23124 3.01512 2.20307 3.1213C2.17561 3.22763 2.08614 3.29738 2.00407 3.27707Z" fill="#0A2851"/>
<path d="M3.16034 1.46636L2.43257 1.28513L1.70481 1.10389C1.70481 1.10389 1.55513 1.49366 1.60125 1.6918C1.64737 1.88994 1.89627 1.89867 1.96715 2.06614C2.03804 2.23361 1.70186 2.69969 1.63391 2.99754C1.60712 3.11427 1.6385 3.20448 1.68667 3.26965C1.78325 3.40225 1.96078 3.44644 2.11096 3.37563C2.18518 3.34077 2.25694 3.2768 2.29086 3.16158C2.3779 2.8685 2.31173 2.30182 2.45569 2.18865C2.60051 2.07492 2.8232 2.18438 2.96102 2.03178C3.09971 1.87864 3.16034 1.46636 3.16034 1.46636ZM1.93145 3.19981C1.84938 3.1795 1.80521 3.07633 1.83338 2.97015C1.86155 2.86397 1.95031 2.79408 2.03238 2.81439C2.11445 2.8347 2.15861 2.93787 2.13044 3.04405C2.10299 3.15038 2.01352 3.22012 1.93145 3.19981Z" fill="#0D3A78"/>
<path d="M1.76951 1.12304C1.76951 1.12304 1.90711 0.452397 1.89941 0.396484L2.26109 0.48629L2.28206 0.529608L2.32197 0.501384L2.54977 0.558436L2.60291 0.681921L2.70687 0.597577L2.79882 0.620718L2.82745 0.659792L2.86968 0.637926L3.38489 0.766119C3.38489 0.766119 3.13242 1.32881 3.13197 1.46149L1.76951 1.12304Z" fill="white"/>
<path d="M2.08589 0.783482C2.13002 0.927544 2.03703 1.03313 2.11203 1.07545C2.18616 1.11832 2.20174 0.779915 2.29329 0.818357C2.38541 0.857652 2.38616 0.961645 2.38616 0.961645C2.38616 0.961645 2.47546 0.839076 2.6012 0.858212C2.72694 0.877347 2.67276 1.03678 2.82578 1.03073C2.97807 1.02453 2.92246 0.942119 3.06315 0.981343C3.12089 0.997192 3.19688 1.02499 3.26685 1.05299C3.32865 0.89959 3.38852 0.764928 3.38852 0.764928L2.87306 0.637148L2.8308 0.659172L2.80217 0.619998L2.71018 0.59693L2.60612 0.681775L2.55301 0.557913L2.3251 0.501044L2.28515 0.529445L2.26419 0.486L1.90234 0.396484C1.90494 0.418387 1.88583 0.534393 1.86139 0.667683C1.945 0.671314 2.05918 0.695378 2.08589 0.783482Z" fill="#74ACF6"/>
<path d="M2.57972 3.04954C2.57972 3.04954 2.68475 2.69814 2.5848 2.59649C2.48486 2.49484 2.52126 2.19287 2.42676 2.24431C2.33128 2.29605 2.28101 2.40827 2.31098 2.49564C2.3406 2.58363 2.20791 2.96197 2.31516 3.0577C2.42241 3.15342 2.57972 3.04954 2.57972 3.04954Z" fill="#FFD556"/>
<path d="M11.8633 6.24592C10.5408 5.36425 9.1343 5.01172 9.1343 5.01172C9.1343 5.01172 8.61088 6.03784 9.63067 6.83942C9.91578 7.06324 10.5386 7.39431 11.0942 7.77115C11.4414 7.51659 11.8581 7.04322 11.8633 6.24592Z" fill="#AED1FF"/>
<path d="M9.63966 6.10512C9.37795 6.00358 9.16156 5.82624 9 5.6582C9.00439 6.01002 9.13524 6.45121 9.63015 6.84021C9.91526 7.06402 10.5381 7.3951 11.0937 7.77193C11.2596 7.64966 11.4417 7.47661 11.5871 7.24279C11.3642 7.05186 11.0023 6.75011 10.821 6.63927C10.5483 6.47266 10.2413 6.33894 9.63966 6.10512Z" fill="#87B3EE"/>
<path d="M7.83606 3.13314C7.83606 3.13314 7.87407 2.85784 8.15698 2.80492C8.43916 2.75201 8.72939 2.94436 8.76667 3.17533C8.80395 3.40629 8.75278 3.56218 8.75278 3.56218C8.75278 3.56218 8.9063 3.38126 8.88948 3.06664C8.87267 2.75201 8.58757 2.61043 8.3434 2.5854C8.0985 2.55966 7.79951 2.89073 7.83606 3.13314Z" fill="#FFD556"/>
<path d="M9.44962 3.45898C9.44962 3.45898 9.31292 5.34318 9.1594 5.79438C9.00588 6.24559 8.81435 7.99893 8.81435 7.99893L8.37354 7.6178L8.36111 7.23381L8.25073 7.54272C8.25073 7.54272 8.08478 7.2474 8.03288 7.03645C7.98098 6.82479 8.51024 4.1862 8.51024 4.1862L9.44962 3.45898Z" fill="#0D3A78"/>
</svg>
