<svg width="15" height="28" viewBox="0 0 15 28" fill="none" xmlns="http://www.w3.org/2000/svg">
<path d="M8.42106 0.576886C8.39718 0.572358 8.37628 0.554242 8.36957 0.529333C8.35986 0.493857 8.38076 0.457626 8.41584 0.447814L9.1727 0.238732C9.20778 0.22892 9.24361 0.250054 9.25331 0.28553C9.26302 0.321006 9.24212 0.357237 9.20703 0.36705L8.45017 0.576131C8.44047 0.578395 8.43002 0.578396 8.42106 0.576886Z" fill="#0D3873"/>
<path d="M7.92273 0.325462C7.92273 0.325462 8.06454 0.184244 8.34445 0.261272C8.62436 0.3383 8.56465 0.839738 8.31907 0.919786C8.07276 0.999835 7.61595 0.562588 7.92273 0.325462Z" fill="#A0C0EA"/>
<path d="M5.9919 1.25121C5.9919 1.25121 5.97398 0.965749 6.25314 0.78073C6.53305 0.595712 7.58326 0.0338587 7.9393 0.266454C8.29534 0.499049 8.29384 0.889477 8.17068 1.11528C8.04752 1.34107 7.05479 1.50872 6.99433 1.71791C6.93387 1.92709 6.52483 2.01092 6.70621 2.44515C6.7301 2.50178 6.94283 2.39153 6.94283 2.39153C7.05181 2.34773 7.17571 2.36812 7.26528 2.44439L7.42576 2.58108C7.52354 2.66415 7.56385 2.79781 7.52578 2.92091C7.4907 3.0357 7.43845 3.16936 7.37277 3.2411C7.2414 3.38308 6.60022 3.55979 6.40615 3.53487C6.21134 3.5107 5.77618 3.21467 5.81051 2.9496C5.84559 2.68303 5.9919 1.25121 5.9919 1.25121Z" fill="#0D3A78"/>
<path d="M8.00244 0.662888C7.80911 0.50279 6.66634 1.11826 6.51034 1.39692C6.35434 1.67558 6.28865 2.96619 6.30134 3.15272C6.31403 3.33849 6.4872 3.44799 6.4872 3.44799C6.54915 3.47669 6.61036 3.49708 6.66933 3.50916C6.93356 3.45781 7.28139 3.34 7.37395 3.23956C7.43963 3.16857 7.49189 3.03491 7.52697 2.92012C7.53518 2.89218 7.53966 2.86424 7.54041 2.8363C7.51652 2.79703 7.48442 2.7638 7.44262 2.73812C7.34559 2.67922 6.9776 2.81742 6.9776 2.81742C6.9776 2.81742 6.73352 2.49949 6.7171 2.3711C6.66709 1.97464 6.93506 1.92706 6.99552 1.71863C7.05598 1.50944 8.04872 1.34179 8.17188 1.116C8.17934 1.10165 8.18681 1.0873 8.19353 1.07144C8.17934 0.921159 8.11888 0.759551 8.00244 0.662888Z" fill="#5C90D7"/>
<path d="M5.9469 1.69692C5.9469 1.69692 6.06409 2.25273 6.16038 2.2852C6.25667 2.31692 6.66645 2.2044 6.72392 2.15833C6.78139 2.11151 6.84036 2.17948 6.76945 2.41962C6.69854 2.65977 6.52388 2.97166 6.3007 3.09475C6.09767 3.20652 5.58863 2.92333 5.54459 2.7149C5.50055 2.50647 5.54683 1.5844 5.97303 1.44922L5.9469 1.69692Z" fill="#FFD556"/>
<path d="M6.23459 2.62204C6.1398 2.47855 5.97409 2.39926 5.80316 2.40455C5.46354 2.41587 4.62905 2.54123 4.0782 3.455C3.37284 4.62552 5.4725 4.39746 5.89796 4.10143C6.24429 3.85977 6.513 3.04342 6.23459 2.62204Z" fill="#70A1E3"/>
<path d="M13.3322 3.77835C13.356 3.66583 13.5546 3.43022 13.6994 3.32978C13.9763 3.13721 13.8778 3.04659 13.9047 2.90688C13.9315 2.76717 14.145 2.79813 14.1405 3.12361C14.1383 3.33204 14.0107 3.35621 14.1905 3.37207C14.4533 3.39472 15.0004 3.3041 15.0004 3.39774C15.0004 3.49667 14.6548 4.25563 13.9076 4.43838C13.6979 4.48973 13.1978 4.40591 13.3322 3.77835Z" fill="#FFD556"/>
<path d="M3.97212 1.16016C3.97212 1.16016 4.08483 1.47431 4.22815 1.77563C4.37146 2.07694 4.43714 2.37675 4.15873 2.54742C3.96391 2.66674 3.3511 2.51419 3.29512 2.07619C3.23839 1.63894 3.97212 1.16016 3.97212 1.16016Z" fill="#FFD556"/>
<path d="M3.82179 2.36824C4.11961 2.31538 4.27785 2.15604 4.33607 2.08203C4.37339 2.26781 4.33906 2.43394 4.15768 2.54571C4.01287 2.63482 3.63668 2.5729 3.43066 2.35465C3.57174 2.37882 3.71057 2.38863 3.82179 2.36824Z" fill="#EAC34F"/>
<path d="M7.17589 27.1945C7.08333 26.9053 6.67728 26.6145 6.67728 26.6145L6.77581 26.3027L5.745 26.2324L5.63379 26.86C5.63379 26.86 5.74724 27.125 6.09731 27.307C6.55113 27.5434 7.26844 27.4837 7.17589 27.1945Z" fill="#FFD556"/>
<path d="M7.86292 27.845C7.86292 27.1917 6.67612 26.6133 6.67612 26.6133C6.67612 26.6133 6.46265 27.0347 6.01853 27.0347C5.89388 27.0347 5.63263 26.8587 5.63263 26.8587C5.63263 26.8587 4.98996 27.4742 5.19448 27.7528C5.48409 28.1478 7.88905 27.9839 7.86292 27.845Z" fill="#0D3A78"/>
<path d="M3.32238 27.1945C3.22983 26.9053 2.82377 26.6145 2.82377 26.6145L2.92229 26.3027L1.89149 26.2324L1.78027 26.86C1.78027 26.86 1.89373 27.125 2.2438 27.307C2.69688 27.5434 3.41419 27.4837 3.32238 27.1945Z" fill="#FFD556"/>
<path d="M4.0094 27.845C4.0094 27.1917 2.8226 26.6133 2.8226 26.6133C2.8226 26.6133 2.60913 27.0347 2.16501 27.0347C2.04036 27.0347 1.77911 26.8587 1.77911 26.8587C1.77911 26.8587 1.13645 27.4742 1.34097 27.7528C1.63058 28.1478 4.03552 27.9839 4.0094 27.845Z" fill="#0D3A78"/>
<path d="M3.71367 10.6348C2.65302 10.6348 1.73044 10.551 1.31021 10.5117C1.26393 10.6892 1.21168 10.875 1.15197 11.0713C0.698148 12.5575 0.789212 16.418 0.8646 18.281C0.889232 18.8874 0.126397 24.984 1.56698 26.412C1.90287 26.745 3.03144 26.5389 3.37256 25.8109C4.11599 24.2265 4.03463 15.7255 3.96894 15.1138C3.97044 15.1138 3.70994 12.0727 3.71367 10.6348Z" fill="#4179C5"/>
<path d="M2.87988 3.24074C2.87988 3.24074 2.90004 2.75969 2.98662 2.40324C3.06276 2.0906 3.1904 1.90709 3.3882 1.78022C3.81216 1.50835 4.30927 3.28378 4.1152 3.42047C3.92188 3.55791 2.87988 3.24074 2.87988 3.24074Z" fill="#FFD556"/>
<path d="M3.23549 2.46937L2.98619 2.40291C2.98619 2.40291 2.37263 1.23239 2.81152 0.909924C3.25041 0.587462 3.31386 0.714333 3.33103 0.281615C3.3482 -0.151102 4.21329 -0.0423573 4.32973 0.318618C4.5447 0.987707 3.97219 1.20444 4.02369 1.43553C4.0752 1.66737 4.09013 1.76932 4.00205 1.76177C3.91398 1.75421 3.79306 1.78669 3.75051 1.98605C3.70872 2.18618 3.23549 2.46937 3.23549 2.46937Z" fill="#0D3A78"/>
<path d="M4.33015 0.320851C4.26521 0.119219 3.96665 -0.00387567 3.71286 0.00216576C3.78452 0.0754181 3.94649 0.271765 3.97037 0.564019C4.00098 0.940098 3.51954 0.793592 3.35234 0.97257C3.18514 1.15155 3.40534 1.57369 3.02765 1.6983C2.89927 1.74059 2.80224 1.75342 2.72461 1.7421C2.82239 2.08948 2.9866 2.40439 2.9866 2.40439L3.2359 2.47085C3.2359 2.47085 3.70913 2.18841 3.75168 1.98904C3.79423 1.78967 3.91514 1.75645 4.00322 1.76475C4.0913 1.7723 4.07636 1.67036 4.02486 1.43852C3.97261 1.20668 4.54512 0.98994 4.33015 0.320851Z" fill="#0C3670"/>
<path d="M3.9705 15.114C3.9705 15.114 3.71001 12.0729 3.71374 10.635C3.42637 10.635 3.14944 10.629 2.88969 10.6191C2.33584 12.063 1.46104 14.4275 1.50284 14.8655C1.56256 15.5036 3.18452 17.2964 3.18452 18.177C3.18452 19.0583 2.01339 20.1216 2.22388 21.7316C2.38063 22.9308 1.83723 24.4993 0.84375 24.5582C0.973627 25.3693 1.19831 26.0452 1.56853 26.4122C1.90442 26.7452 3.033 26.5391 3.37411 25.8111C4.11755 24.2267 4.03619 15.7257 3.9705 15.114Z" fill="#0D3A78"/>
<path d="M7.95513 17.2088C7.64984 14.1692 6.42274 10.9966 6.19508 10.4355C5.39418 10.5866 4.5149 10.6342 3.71399 10.6342C3.71175 11.5864 3.62591 13.1572 3.56844 14.1095C3.53634 14.6351 3.63487 15.1607 3.85282 15.6387C4.32232 16.6688 5.1292 18.5303 5.21504 19.3587C5.46135 21.7323 4.66866 25.0196 4.98215 25.8971C5.1807 26.4529 6.69144 26.9143 7.30127 26.027C7.70582 25.4395 8.68587 24.4819 7.95513 17.2088Z" fill="#4179C4"/>
<path d="M4.03034 1.81467C4.03034 1.81467 4.02436 1.64778 3.87732 1.59945C3.73028 1.55112 3.68699 1.73916 3.84 1.95438C3.99301 2.16961 4.08557 2.07144 4.03034 1.81467Z" fill="#FFD556"/>
<path d="M7.95439 17.2088C7.64911 14.1692 6.422 10.9966 6.19435 10.4355C5.67036 10.5345 5.11353 10.5881 4.56641 10.6145C4.85452 11.9995 5.54197 14.9561 6.3496 15.9891C7.41847 17.356 6.90717 18.6323 7.02809 19.8171C7.1296 20.8178 5.97415 23.4428 4.98514 24.0341C4.90229 24.8814 4.86199 25.5633 4.98067 25.8971C5.17922 26.4529 6.68996 26.9143 7.29978 26.027C7.70509 25.4395 8.68513 24.4819 7.95439 17.2088Z" fill="#0D3A78"/>
<path d="M7.19816 13.4198C7.6684 12.4079 8.05654 6.28262 6.52041 4.04654C5.26046 2.21221 0.0579163 2.62605 0.0116383 4.80247C-0.0062757 5.65582 -0.0256786 6.55675 0.137041 8.03011C0.212429 8.71279 0.23706 12.8278 0.574441 14.5956C0.63714 14.9241 0.924511 15.1582 1.25517 15.1492C2.76219 15.1099 6.58609 14.0247 7.19816 13.4198Z" fill="#AED1FF"/>
<path d="M6.51982 4.04506C6.11974 3.46357 5.32331 3.10789 4.4209 2.96289C4.58735 3.4968 5.19493 5.48896 5.3763 6.69121C5.58679 8.08905 5.35317 10.5192 5.53007 12.1602C5.60546 12.858 5.7316 13.5339 5.85177 14.0799C6.5019 13.8435 7.00722 13.6071 7.19831 13.4183C7.6678 12.4057 8.05594 6.28115 6.51982 4.04506Z" fill="#87B3EE"/>
<path d="M12.1219 8.44953C13.4109 7.96471 15.386 5.38351 14.0223 3.79159C13.2475 2.88688 11.259 6.26933 11.3665 6.80551C11.474 7.34244 11.7188 8.60132 12.1219 8.44953Z" fill="#87B3EE"/>
<path d="M7.61309 9.2889C7.60338 8.63265 7.56531 7.95752 7.48993 7.3058L6.16504 6.4668C6.16579 6.4668 6.5069 8.55713 7.61309 9.2889Z" fill="#0D3A78"/>
<path d="M5.73306 4.23364C5.66588 3.84019 6.06447 3.53434 6.42126 3.70426C8.08055 4.49644 11.6828 6.20164 12.4217 6.42743C13.3891 6.72346 13.5466 8.7262 10.6445 8.65823C7.74242 8.59027 6.7676 8.05107 6.3929 7.23094C6.18912 6.78539 5.90548 5.24784 5.73306 4.23364Z" fill="#AED1FF"/>
<path d="M9.37668 7.4138C8.21078 7.23482 6.69779 6.43131 6.01855 5.98047C6.02303 6.49248 6.28577 6.99769 6.39251 7.23029C6.76721 8.05117 7.74203 8.58961 10.6441 8.65758C12.8945 8.71044 13.3043 7.51801 12.9244 6.84213C12.019 7.17592 10.5366 7.59202 9.37668 7.4138Z" fill="#87B3EE"/>
</svg>
