<svg width="20" height="28" viewBox="0 0 20 28" fill="none" xmlns="http://www.w3.org/2000/svg">
<path d="M16.3582 27.2937C15.8807 27.0537 15.7991 26.5626 15.7991 26.5626C15.7991 26.5626 14.8297 21.5198 14.0504 17.3184C13.1155 17.8038 11.9351 17.9862 10.7656 18.0094C11.3979 20.436 12.5858 23.6761 14.7852 26.5626C14.8768 26.8418 14.9147 27.0289 14.749 27.2609C14.8037 27.3009 14.8533 27.3529 14.8928 27.4184C15.0088 27.6136 16.2489 27.6128 16.4599 27.548C16.5835 27.5104 16.4717 27.3889 16.3582 27.2937Z" fill="#FFD556"/>
<path d="M14.8935 27.4193C15.0095 27.6144 16.2496 27.6136 16.4606 27.5488C16.5842 27.5113 16.4724 27.3889 16.3589 27.2945C16.7414 27.4817 17.2147 27.7224 17.2307 27.8472C17.2576 28.0543 15.0019 28.0479 14.627 27.8472C14.4311 27.7424 14.5681 27.5161 14.7497 27.2617C14.8044 27.3025 14.854 27.3545 14.8935 27.4193Z" fill="#0D3A78"/>
<path d="M7.39898 26.5641C7.39898 26.5641 7.48809 26.9792 7.45446 27.044C7.44101 27.0696 7.11649 27.1704 6.86091 27.2952C6.74657 27.3903 6.63559 27.5119 6.75918 27.5495C6.9702 27.6143 8.21029 27.6151 8.32631 27.4199C8.36498 27.3544 8.41459 27.3024 8.47008 27.2624C8.35826 27.1056 9.04262 21.7892 9.55883 17.9837C8.26073 16.78 7.08034 16.6176 6.32031 17.5134C6.59103 21.9804 7.39898 26.5641 7.39898 26.5641Z" fill="#FFD556"/>
<path d="M8.80158 17.3906C8.54264 17.5002 8.31143 17.6618 8.19709 17.9025C7.84398 18.6415 8.01129 23.1277 7.93898 24.0659C7.89695 24.6146 8.1601 25.5688 8.51909 26.2942C8.68724 24.5602 9.17067 20.845 9.55825 17.9833C9.30014 17.7441 9.04792 17.5474 8.80158 17.3906Z" fill="#EAC34F"/>
<path d="M13.4138 12.0077C13.3415 10.3713 12.4134 9.22275 11.8265 8.54371C11.1405 8.56371 10.3342 8.55571 9.52629 8.47893C8.57374 8.38775 8.71162 8.43014 7.95075 8.07422C7.70694 8.79325 7.00324 9.61627 6.66863 10.7216C6.18689 12.3132 6.16082 14.8927 6.31972 17.5129C6.93094 17.652 8.42913 18.0159 9.81802 18.1007C9.93152 16.7754 9.98028 15.7197 10.0181 15.0382C10.0021 15.6949 10.0526 16.7402 10.383 18.0103C11.9409 18.3111 13.1145 17.8048 14.0494 17.3193C14.0503 14.5487 13.429 12.3612 13.4138 12.0077Z" fill="#0D3A78"/>
<path d="M10.661 4.94562C10.9014 4.27046 11.6444 3.88511 12.3773 4.02501C13.1032 4.16366 14.0541 4.30391 14.5058 4.19757C15.5239 3.95649 17.7487 2.38899 18.2351 2.75026C19.1088 3.39963 16.1048 5.65299 14.6088 5.93456C13.1121 6.21643 10.8131 5.75522 10.6662 5.51384C10.5695 5.35668 10.5869 5.15467 10.661 4.94562Z" fill="#FFD556"/>
<path d="M17.9804 2.89444C18.0264 2.7807 18.288 2.56731 18.4664 2.48638C18.8077 2.33111 18.7137 2.21985 18.7677 2.07817C18.8217 1.93648 19.0539 2.00449 18.9928 2.34428C18.9544 2.56198 18.8082 2.56597 19.0056 2.61257C19.294 2.68011 19.9184 2.67658 19.9023 2.77455C19.8852 2.87806 19.3698 3.61446 18.5069 3.68101C18.2647 3.69975 17.7227 3.52861 17.9804 2.89444Z" fill="#FFD556"/>
<path d="M14.6079 5.93579C13.538 6.13677 12.0575 5.95887 11.2473 5.75289C11.4376 5.4844 11.7647 5.25456 12.0623 5.12988C12.7578 4.83837 15.8126 4.64679 16.3101 4.44204C16.8079 4.23791 17.9441 3.0816 18.2508 2.96701C18.298 2.94927 18.3417 2.95068 18.3805 2.96576C18.5742 3.79441 15.9685 5.67948 14.6079 5.93579Z" fill="#EAC34F"/>
<path d="M8.51797 3.83266C8.51797 3.83266 9.95563 2.82329 10.9998 3.37676C12.044 3.93024 11.6674 5.44509 11.7018 6.24251C11.7363 7.04073 12.308 9.14904 12.0238 9.46657C11.7388 9.7849 10.8989 10.5847 8.84334 10.1504C7.14841 9.7921 8.21026 7.1543 8.21026 7.1543C8.21026 7.1543 8.19008 6.60483 8.11189 6.18732C7.95636 5.36911 7.78065 4.32935 8.51797 3.83266Z" fill="#FFD556"/>
<path d="M8.55426 3.8422C8.55426 3.8422 6.18492 4.52741 5.35563 4.36717C4.28099 4.16013 2.28889 2.3201 1.39311 3.01946C0.49787 3.71833 3.75347 5.95327 5.32942 6.1823C6.90537 6.41132 9.28592 5.8318 9.42784 5.5733C9.76001 4.97082 8.55426 3.8422 8.55426 3.8422Z" fill="#FFD556"/>
<path d="M8.25839 5.47077C7.73281 5.33834 5.97438 5.34595 5.28225 5.35504C4.59063 5.36463 4.72171 5.41079 3.9073 4.9078C3.09289 4.4048 2.81483 4.11379 2.2044 3.93908C1.84246 3.83484 1.52863 3.72196 1.33241 3.64595C1.8154 4.58469 4.09121 6.00314 5.32971 6.18313C6.55037 6.36078 8.25265 6.05276 9.02457 5.78502C8.81811 5.67416 8.53479 5.54025 8.25839 5.47077Z" fill="#EAC34F"/>
<path d="M1.87885 3.03374C1.85195 2.91457 1.62831 2.66502 1.46521 2.55865C1.15329 2.3547 1.26427 2.25872 1.23401 2.11075C1.20374 1.96278 0.963295 1.99558 0.96834 2.3403C0.970862 2.56105 1.11462 2.58664 0.912007 2.60344C0.616067 2.62743 -0.00019145 2.53145 -0.00019145 2.63063C-0.00019145 2.73541 0.389071 3.53922 1.23065 3.73278C1.4669 3.78717 2.03019 3.69839 1.87885 3.03374Z" fill="#FFD556"/>
<path d="M10.6316 1.58992L10.7039 2.03062C10.7611 2.38014 10.5265 2.72646 10.16 2.78885C9.822 2.84564 9.4958 2.66088 9.44535 2.25457C9.4008 1.89385 9.67067 1.58192 9.7682 1.41876C9.99099 1.04605 10.5089 1.08924 10.6316 1.58992Z" fill="#FFD556"/>
<path d="M10.1195 2.64548C9.98073 2.64948 9.73355 2.59749 9.63182 2.51671C9.54187 2.44553 9.46199 2.27277 9.44434 2.23438C9.44518 2.24077 9.44518 2.24717 9.44602 2.25437C9.49562 2.66068 9.82267 2.84623 10.1606 2.78865C10.386 2.75026 10.5617 2.60389 10.65 2.41593C10.4608 2.58549 10.2439 2.64228 10.1195 2.64548Z" fill="#EAC34F"/>
<path d="M10.4497 2.35938L10.464 3.50791C10.4656 3.69667 9.97633 4.18296 9.66273 3.94302C9.57109 3.87263 9.69131 3.61349 9.77791 3.41674L10.015 2.43056L10.4497 2.35938Z" fill="#FFD556"/>
<path d="M9.64504 1.87851C9.63915 1.83932 9.63916 1.80093 9.64252 1.76174C9.64756 1.68736 9.63748 1.57538 9.51809 1.62257C9.34406 1.69056 9.33817 2.08807 9.52902 2.13126C9.6711 2.16245 9.66017 1.97609 9.64504 1.87851Z" fill="#FFD556"/>
<path d="M15.4673 26.4579C15.5497 26.5243 15.6657 26.5538 15.7977 26.5586C15.7674 26.4011 14.8165 21.4526 14.0498 17.3184C13.4243 17.6431 12.6895 17.8318 11.9219 17.9278L11.9261 18.0582C11.9261 18.0582 12.3397 20.4864 13.0249 20.9647C13.7093 21.4422 13.7782 21.9853 13.8463 22.55C13.9153 23.1138 15.0603 26.1291 15.4673 26.4579Z" fill="#EAC34F"/>
<path d="M13.4129 12.007C13.3406 10.3706 12.4124 9.22201 11.8256 8.54297C11.4708 8.55337 11.0841 8.55577 10.6814 8.54537L10.6494 10.2138C10.6494 10.2138 11.496 10.253 11.8836 10.9072C12.272 11.5615 12.7319 12.7772 12.0223 13.2771C11.3128 13.7762 11.5179 14.1569 11.4725 15.0415C11.4456 15.5558 11.7045 16.9658 11.9257 18.0576C12.7563 17.9464 13.4516 17.6281 14.0493 17.3178C14.0493 14.548 13.428 12.3605 13.4129 12.007Z" fill="#082D61"/>
<path d="M8.32577 27.4193C8.20975 27.6144 6.96966 27.6136 6.75864 27.5488C6.63505 27.5113 6.74686 27.3889 6.86036 27.2945C6.47783 27.4817 6.00449 27.7224 5.98852 27.8472C5.96162 28.0543 8.21732 28.0479 8.59229 27.8472C8.78818 27.7424 8.65113 27.5161 8.46954 27.2617C8.41405 27.3025 8.36528 27.3545 8.32577 27.4193Z" fill="#0D3A78"/>
<path d="M11.7023 6.24451C11.6948 6.07495 11.7065 5.8718 11.7183 5.65345C11.4795 5.00559 11.3971 3.91065 11.2517 3.55313C11.1786 3.48754 11.0953 3.42916 11.0003 3.37877C10.3622 3.04045 9.57863 3.28599 9.0641 3.52754C8.96069 3.98663 9.26168 4.78165 9.06578 5.36551C8.89512 5.8742 8.42178 5.88299 8.09894 6.12294C8.17208 6.48126 8.20992 7.1571 8.20992 7.1571C8.20992 7.1571 7.1489 9.7949 8.84299 10.1532C10.8977 10.5875 11.7385 9.7877 12.0235 9.46937C12.3085 9.15025 11.736 7.04193 11.7023 6.24451Z" fill="#4179C5"/>
<path d="M9.63053 1.45136C9.63053 1.45136 9.47752 2.61589 9.51955 2.95342C9.56159 3.29014 9.37243 3.72924 9.59522 4.44348C9.81802 5.15771 12.0275 4.89537 12.0233 3.80842C12.0182 2.35915 11.1884 2.5623 11.0808 1.61052C11.0001 0.890687 10.5654 0.945876 10.1257 0.892288C9.72217 0.8419 9.61876 1.14183 9.63053 1.45136Z" fill="#0D3A78"/>
<path d="M11.7026 6.2433C11.695 6.07374 11.7068 5.87059 11.7185 5.65224C11.4798 5.00439 11.3974 3.90944 11.2519 3.55192C11.1788 3.48634 11.0955 3.42795 11.0005 3.37756C10.8131 3.27838 10.613 3.23039 10.4112 3.2168L10.3162 4.81083C10.3162 4.81083 10.0463 6.58722 10.143 6.97673C10.4658 8.27964 10.3675 9.07785 10.6516 10.216C11.4419 10.0632 11.8446 9.66972 12.0254 9.46896C12.3087 9.14904 11.7362 7.04072 11.7026 6.2433Z" fill="#0D3A78"/>
<path d="M11.0803 1.60976C11.0341 1.19945 10.8735 1.04109 10.6617 0.970703C10.6793 1.13946 10.723 1.4242 10.8281 1.76412C10.9996 2.3176 11.3242 2.86547 11.0165 3.21019C10.7087 3.55492 10.6028 3.94363 10.0471 3.73408C9.81252 3.6461 9.6326 3.51652 9.50229 3.39575C9.47707 3.66689 9.45773 4.00201 9.59561 4.44271C9.81841 5.15695 12.0279 4.89461 12.0237 3.80766C12.0178 2.35919 11.188 2.56234 11.0803 1.60976Z" fill="#082D61"/>
<path d="M9.81918 18.099C9.89821 17.1736 9.94613 16.3802 9.9806 15.7539C9.9806 15.7539 8.36219 16.968 8.19824 17.9014C8.71529 17.9894 9.27522 18.0654 9.81918 18.099Z" fill="#082D61"/>
</svg>
