<svg width="27" height="51" viewBox="0 0 27 51" fill="none" xmlns="http://www.w3.org/2000/svg">
<path d="M16.1289 11.8813C16.1289 11.8813 12.1891 7.82486 12.3644 6.56817C12.5397 5.31148 12.8561 3.1201 12.353 1.96697C11.8491 0.813846 10.6307 2.101 10.0225 3.73626C9.60438 4.86067 8.99434 6.98417 9.89274 9.28433C10.7911 11.5845 12.8912 13.5731 13.8808 14.8777C14.7125 15.9716 16.1289 11.8813 16.1289 11.8813Z" fill="#FFD556"/>
<path d="M13.44 8.74713C11.8921 8.58526 10.8281 9.64092 10.3486 10.2536C11.3724 12.1404 13.0342 13.7608 13.8826 14.8774C14.7135 15.9722 16.1299 11.881 16.1299 11.881C16.1299 11.881 14.554 10.258 13.44 8.74713Z" fill="#AED1FF"/>
<path d="M7.40019 50.9981C7.63246 50.9981 7.83668 50.8318 7.87525 50.5969L10.7212 33.3922L14.3516 28.0956C14.5015 27.8772 14.4445 27.5795 14.2245 27.4307C14.0045 27.2819 13.7048 27.3385 13.5549 27.5569L9.864 32.9405C9.82456 32.9979 9.79826 33.0632 9.78687 33.132L6.92339 50.4419C6.88044 50.703 7.05837 50.9493 7.32131 50.992C7.34761 50.9963 7.3739 50.9981 7.40019 50.9981Z" fill="#0C3670"/>
<path d="M15.5291 32.5234C15.7762 32.5234 15.9761 32.7219 15.9761 32.9673C15.9761 33.2127 15.7762 33.4111 15.5291 33.4111H8.89143L8.58203 32.5234H15.5291Z" fill="#0D3A78"/>
<path d="M3.75951 32.5234H8.58193L8.89133 33.4111H3.75951C3.51234 33.4111 3.3125 33.2127 3.3125 32.9673C3.3125 32.7227 3.51234 32.5234 3.75951 32.5234Z" fill="#0D3A78"/>
<path d="M21.3262 50.9175C21.3718 50.9175 21.4174 50.9105 21.4629 50.8957C21.6978 50.8209 21.8275 50.5711 21.7522 50.3379L13.3598 24.3729C13.2844 24.1397 13.0329 24.0109 12.798 24.0857C12.5631 24.1606 12.4334 24.4104 12.5087 24.6436L20.9011 50.6086C20.9616 50.7974 21.1369 50.9175 21.3262 50.9175Z" fill="#0C3670"/>
<path d="M10.5583 38.9951H17.3476C17.5948 38.9951 17.7946 38.7967 17.7946 38.5513C17.7946 38.3058 17.5948 38.1074 17.3476 38.1074H10.5583C10.3112 38.1074 10.1113 38.3058 10.1113 38.5513C10.1113 38.7967 10.312 38.9951 10.5583 38.9951Z" fill="#0D3A78"/>
<path d="M12.4744 44.5791H19.1015C19.3486 44.5791 19.5485 44.3807 19.5485 44.1353C19.5485 43.8898 19.3486 43.6914 19.1015 43.6914H12.4744C12.2272 43.6914 12.0273 43.8898 12.0273 44.1353C12.0273 44.3807 12.2272 44.5791 12.4744 44.5791Z" fill="#0D3A78"/>
<path d="M0.483202 50.9981C0.715471 50.9981 0.919692 50.8318 0.958258 50.5969L3.80421 33.3922L7.43461 28.0956C7.58449 27.8772 7.52752 27.5795 7.30752 27.4307C7.08752 27.2819 6.78777 27.3385 6.63789 27.5569L2.947 32.9405C2.90756 32.9979 2.88127 33.0632 2.86987 33.132L0.00639403 50.4419C-0.0365538 50.703 0.141373 50.9493 0.404319 50.992C0.430613 50.9963 0.456908 50.9981 0.483202 50.9981Z" fill="#0C3670"/>
<path d="M5.87369 21.8479C6.32771 21.1534 7.09902 20.7574 8.16658 20.6713C9.80912 20.5381 11.2404 21.19 12.3062 22.5554C13.0907 23.5598 13.3983 24.5954 13.4106 24.6389C13.4781 24.8695 13.344 25.1106 13.1117 25.1776C12.8794 25.2446 12.6367 25.1123 12.5683 24.8817C12.5245 24.7346 11.4692 21.277 8.2367 21.539C7.45575 21.6025 6.90795 21.8644 6.60994 22.3196C6.0078 23.2369 6.50652 24.6894 6.5109 24.7033C6.51703 24.7216 6.52054 24.7399 6.52405 24.7581L14.7954 50.3489C14.8708 50.5821 14.742 50.8319 14.5062 50.9067C14.4606 50.9215 14.4151 50.9285 14.3695 50.9285C14.1802 50.9285 14.0049 50.8084 13.9444 50.6204C13.9444 50.6204 5.538 24.8808 5.53888 24.4457C5.40828 23.7991 5.31187 22.7077 5.87369 21.8479Z" fill="#0C3670"/>
<path d="M13.6587 37.3383C13.4668 37.0415 13.4186 36.7178 13.401 36.4532L12.415 36.4297C12.415 36.4297 12.4737 36.7674 12.301 37.0258C12.2257 37.1381 12.0127 37.219 11.7173 37.333C11.2501 37.5576 10.6725 37.8465 10.6489 38.0032C10.6094 38.2634 13.3292 38.3208 13.7867 38.0797C14.0277 37.9518 13.8691 37.6638 13.6587 37.3383Z" fill="#0D3A78"/>
<path d="M19.773 42.8176C19.5486 42.4921 19.4838 42.1318 19.4557 41.8359L18.3522 41.8412C18.3522 41.8412 18.4294 42.2162 18.2453 42.5113C18.1647 42.6401 17.9289 42.7367 17.6028 42.8742C17.0875 43.1405 16.452 43.4825 16.431 43.6583C16.3959 43.9507 19.4382 43.9264 19.9422 43.64C20.206 43.4912 20.0193 43.1744 19.773 42.8176Z" fill="#0D3A78"/>
<path d="M13.7792 20.893C12.4522 22.4151 9.51252 23.9112 8.89196 26.6534C8.17675 29.8152 10.0875 35.4181 11.0692 36.4267C11.8711 37.2518 13.7863 37.0385 13.9545 36.4267C14.6671 33.8333 12.7836 28.9649 12.7073 28.3357C12.5855 27.3401 17.4097 25.3767 17.4097 25.3767L17.0222 21.2681C15.3867 20.5754 13.7792 20.893 13.7792 20.893Z" fill="#4179C5"/>
<path d="M19.8504 20.8203C19.8504 20.8203 20.4867 21.9908 20.6217 22.7663C20.9433 24.6226 22.0407 35.0086 21.6445 38.5193C21.2484 42.03 19.4551 42.2389 18.2148 42.265C16.9746 42.2911 16.3418 26.4162 16.3418 24.8445C16.3418 23.2728 16.617 21.1171 16.617 21.1171L19.8504 20.8203Z" fill="#4179C5"/>
<path d="M20.6217 22.7663C20.4876 21.9917 19.8504 20.8203 19.8504 20.8203L19.3797 20.8638C19.1974 21.0666 19.0668 21.3033 19.0353 21.5766C18.8976 22.7732 19.6427 27.3422 19.796 28.5606C19.9494 29.779 18.5909 33.0426 19.2921 34.2392C19.9933 35.4359 19.8837 36.8719 18.7443 37.6551C18.221 38.0145 17.6723 38.3261 17.2314 38.5576C17.4997 40.7307 17.8275 42.2728 18.2149 42.265C19.4551 42.2389 21.2493 42.0292 21.6446 38.5193C22.0407 35.0086 20.9434 24.6235 20.6217 22.7663Z" fill="#0D3A78"/>
<path d="M14.0729 12.5703C14.0729 12.5703 12.6021 13.3518 12.7108 13.478C13.1613 14.0019 13.575 14.4719 13.8809 14.8757C14.0843 15.1437 14.3236 15.1002 14.5681 14.8818L14.0729 12.5703Z" fill="#2C143D"/>
<path d="M15.1816 14.0419C14.3901 12.2518 12.5977 9.70182 12.028 8.93945C11.2339 9.25276 10.6642 9.84803 10.3486 10.2518C11.3724 12.1386 13.0342 13.7591 13.8826 14.8757C14.2578 15.37 14.7521 14.8078 15.1816 14.0419Z" fill="#87B3EE"/>
<path d="M20.01 21.1285C20.1424 21.0432 21.9497 17.3044 22.0935 16.2714C22.1925 15.556 21.969 14.4865 20.1161 13.5805C18.2632 12.6745 15.8222 11.3325 14.5171 11.6354C12.5073 12.1019 13.9658 20.3983 13.78 20.8926C13.7791 20.8926 16.9502 21.7873 20.01 21.1285Z" fill="#AED1FF"/>
<path d="M20.1152 13.581C19.7813 13.4174 19.4281 13.2398 19.0652 13.0605C19.0222 13.7942 18.8873 15.9864 18.7076 17.6174C18.5551 18.9994 18.3772 20.3187 18.6182 21.33C19.0766 21.2926 19.5438 21.229 20.0092 21.129C20.1415 21.0437 21.9488 17.3049 22.0926 16.2719C22.1907 15.5557 21.9672 14.4869 20.1152 13.581Z" fill="#87B3EE"/>
<path d="M18.0812 11.3505C18.0812 11.3505 17.827 11.0364 18.0268 10.542C18.2267 10.0477 19.1145 10.0912 19.282 10.395C19.4494 10.6987 19.5694 10.8353 19.6851 10.985C19.8008 11.1347 19.8859 11.6699 19.7088 11.9528C19.5309 12.2356 19.1627 12.703 18.799 12.7178C18.4361 12.7326 17.8629 11.7604 18.0812 11.3505Z" fill="#0D3A78"/>
<path d="M18.9636 12.1992L18.6726 13.5882C18.5753 13.7579 17.3868 13.6961 17.2439 13.3271C17.2018 13.2192 17.3193 13.0704 17.4955 12.9381L18.4955 12.2393L18.9636 12.1992Z" fill="#FFD556"/>
<path d="M18.2926 12.3809C18.4995 12.4566 18.7826 12.5567 18.7826 12.5567C18.7826 12.5567 18.5924 12.843 18.2006 12.9143C17.9929 12.9518 17.7983 12.9152 17.6396 12.8369L18.2926 12.3809Z" fill="#0D3A78"/>
<path d="M18.9559 11.619L18.835 12.4231C18.7736 12.6851 18.5151 12.8513 18.2495 12.7982C18.0374 12.7556 17.9164 12.6955 17.692 12.5484C17.5053 12.4257 17.4983 12.1855 17.6289 11.9262C17.7981 11.5903 18.0505 11.3292 18.1934 11.1969C18.5194 10.8958 18.9954 11.0898 18.9559 11.619Z" fill="#FFD556"/>
<path d="M18.2511 11.8963C18.2511 11.8963 18.0661 11.8545 17.8478 11.7109C17.8478 11.7109 17.7654 11.858 17.8311 11.9564C17.8969 12.0538 18.1056 12.0486 18.2511 11.8963Z" fill="white"/>
<path d="M17.7608 12.261C18.0053 12.3271 18.0062 12.7457 18.5619 12.6256C18.6653 12.603 18.7758 12.4803 18.8389 12.4054L18.8363 12.4228C18.7749 12.6848 18.5163 12.851 18.2508 12.7979C18.0387 12.7553 17.9177 12.6952 17.6933 12.5482C17.5794 12.4733 17.5329 12.355 17.5434 12.2148C17.5794 12.241 17.6863 12.241 17.7608 12.261Z" fill="#EAC34F"/>
<path d="M18.8673 11.2285C18.8673 11.2285 18.9085 11.5697 18.8226 11.7002C18.7366 11.8308 18.6884 11.8795 18.7156 11.9395C18.7428 11.9996 18.9304 11.9613 18.9997 11.816C19.069 11.6706 19.19 11.2833 18.8673 11.2285Z" fill="#0D3A78"/>
<path d="M18.7762 11.9571C18.8077 11.918 18.8332 11.8744 18.856 11.8292C18.8989 11.7439 18.984 11.6264 19.0796 11.7526C19.2198 11.9362 18.9638 12.3792 18.7332 12.3078C18.5622 12.2556 18.6964 12.0563 18.7762 11.9571Z" fill="#FFD556"/>
<path d="M20.308 13.6792C20.2458 13.6461 20.1818 13.6139 20.1161 13.5808C19.911 13.4807 19.6989 13.3746 19.4815 13.2666L18.0642 16.3039C18.0642 16.3039 15.5171 16.062 15.2866 15.6295C15.057 15.1978 17.0414 12.1405 17.0484 12.13C16.6951 11.9873 16.3507 11.8637 16.0255 11.7715C16.0255 11.7715 14.0517 14.1117 13.4521 15.8984C13.5196 18.2046 13.8772 20.6319 13.78 20.8929C13.78 20.8929 16.2376 22.3681 18.8364 21.6745C19.0213 20.6118 19.7374 14.6861 20.308 13.6792Z" fill="#4179C5"/>
<path d="M11.6781 1.21726C11.6781 1.21726 12.1079 0.362964 12.3265 0.3816C12.5443 0.40049 12.3479 0.657869 12.372 0.835696C12.3962 1.01352 13.4242 0.248069 13.6874 0.454748C13.9507 0.661427 12.8902 1.90094 12.27 2.01212C11.7995 2.0962 11.4445 2.00486 11.3938 1.78491C11.3582 1.62968 11.6781 1.21726 11.6781 1.21726Z" fill="#FFD556"/>
<path d="M18.1237 16.1758L18.0641 16.3038C18.0641 16.3038 15.517 16.0618 15.2865 15.6293C15.2839 15.6241 15.283 15.6162 15.2804 15.6101C14.6598 15.5179 14.0805 15.4448 13.6493 15.3926C13.573 15.564 13.5064 15.7337 13.4512 15.8982C13.4608 16.2211 13.4757 16.5466 13.495 16.8686C14.7212 17.1462 17.3217 17.6135 18.7083 16.9634C19.3035 16.685 18.9196 16.4143 18.1237 16.1758Z" fill="#0D3A78"/>
<path d="M19.649 16.0716C19.8119 17.2626 21.3203 20.1731 22.0436 21.3714C22.2274 21.6761 22.1599 22.0673 21.8858 22.2937C21.0377 22.9929 20.0742 24.3781 19.4924 25.6256C19.1892 26.2749 19.0886 27.1978 19.6979 27.5796C20.0226 27.7834 24.5379 25.8554 24.7631 21.6904C24.8451 20.1695 22.8501 16.036 22.0928 15.0871C21.0056 13.7242 19.5081 15.0398 19.649 16.0716Z" fill="#FFD556"/>
<path d="M23.7478 21.6861C23.9975 22.2295 23.7539 23.6565 23.1037 24.0615C22.4542 24.4661 22.3456 24.8408 21.8601 25.769C21.5343 26.3918 20.789 27.0677 20.3342 27.4455C21.6678 26.9181 24.5804 25.0185 24.7605 21.6943C24.8358 20.3005 23.1652 16.7104 22.3032 15.3907C22.3165 16.0263 22.311 17.0366 22.167 17.6727C21.9455 18.6566 23.4982 21.1427 23.7478 21.6861Z" fill="#EAC34F"/>
<path d="M16.6378 30.1169C16.6402 30.0845 16.624 30.0512 16.5942 30.0339C16.5518 30.0091 16.4978 30.0236 16.473 30.0656L15.9414 30.9725C15.9166 31.0145 15.9315 31.0681 15.9739 31.0929C16.0163 31.1177 16.0703 31.1032 16.0951 31.0612L16.6267 30.1543C16.633 30.1426 16.6366 30.129 16.6378 30.1169Z" fill="#0D3873"/>
<path d="M16.4868 29.3831C16.4868 29.3831 16.2563 29.5178 16.2585 29.9061C16.2607 30.2943 16.9258 30.3897 17.1136 30.0998C17.3017 29.809 16.8976 29.0682 16.4868 29.3831Z" fill="#A0C0EA"/>
<path d="M18.3403 27.2048C18.3403 27.2048 17.9795 27.0832 17.6457 27.3798C17.3115 27.6774 16.2279 28.8394 16.4043 29.3793C16.5806 29.9192 17.0829 30.0519 17.4155 29.9707C17.7481 29.8896 18.3053 28.6658 18.595 28.6599C18.8846 28.6539 19.1332 28.1548 19.6288 28.5387C19.6934 28.589 19.4784 28.8257 19.4784 28.8257C19.3846 28.9512 19.3682 29.1182 19.4354 29.2602L19.5558 29.5145C19.6289 29.6694 19.7868 29.7675 19.9581 29.7608C20.1177 29.7551 20.3075 29.7337 20.4223 29.6737C20.65 29.553 21.0978 28.7862 21.1326 28.5271C21.1686 28.2672 20.9379 27.6033 20.5855 27.5563C20.2308 27.5096 18.3403 27.2048 18.3403 27.2048Z" fill="#0D3A78"/>
<path d="M16.892 29.5974C16.7528 29.2926 17.9369 28.0298 18.3487 27.9245C18.7604 27.8192 20.4413 28.1794 20.6767 28.26C20.911 28.3405 20.9921 28.6017 20.9921 28.6017C21.0076 28.6916 21.0128 28.7776 21.008 28.8579C20.8511 29.1813 20.58 29.5896 20.4191 29.6745C20.3053 29.7348 20.1155 29.7561 19.956 29.7619C19.9172 29.7628 19.8798 29.759 19.8436 29.7503C19.8014 29.7059 19.7697 29.653 19.7511 29.5902C19.7088 29.4447 20.0131 29.0173 20.0131 29.0173C20.0131 29.0173 19.6886 28.5927 19.5293 28.5272C19.037 28.326 18.8837 28.6555 18.5951 28.6616C18.3055 28.6676 17.7484 29.8912 17.4159 29.9723C17.3949 29.977 17.3738 29.9817 17.3512 29.9849C17.1629 29.9148 16.9761 29.781 16.892 29.5974Z" fill="#5C90D7"/>
<path d="M19.6491 16.0718C19.7558 16.8516 20.4388 18.3676 21.1012 19.658C21.6724 19.5998 23.0912 19.3861 23.951 18.6666C23.3323 17.1533 22.5178 15.6175 22.0928 15.0853C21.0057 13.7244 19.5082 15.04 19.6491 16.0718Z" fill="#AED1FF"/>
<path d="M14.9545 25.6088C14.1219 25.8699 12.9202 26.9725 12.2795 27.1466C11.6388 27.3206 11.098 27.3493 11.2295 28.6113C11.3609 29.8732 12.6134 31.0628 12.2795 32.31C11.9929 33.3804 10.7308 34.2812 9.87793 34.061C10.289 35.1993 10.7334 36.0818 11.0682 36.4264C11.8702 37.2514 13.7853 37.0382 13.9536 36.4264C14.6662 33.833 12.7826 28.9646 12.7064 28.3354C12.6213 27.6391 14.9537 26.4703 16.3648 25.8298C16.3648 25.8298 15.7872 25.3477 14.9545 25.6088Z" fill="#0D3A78"/>
<path d="M19.8959 15.1698C20.2442 15.1288 20.6893 15.2669 21.1255 15.7184C21.7446 16.3586 21.7657 16.3968 21.743 17.2313C21.7207 18.0627 22.5571 19.3595 22.5633 19.3691C23.0525 19.2183 23.5586 18.9966 23.9484 18.6692C23.3298 17.1558 22.5152 15.6201 22.0903 15.0879C21.3235 14.1272 20.3511 14.5032 19.8959 15.1698Z" fill="#87B3EE"/>
<path d="M20.0148 28.8215C19.3456 29.1219 19.2059 29.0038 18.799 28.6374C18.7086 28.8594 18.4984 28.8187 18.4046 28.7706C18.5636 28.5958 18.9111 28.2264 19.03 28.1466C19.1785 28.0469 19.334 27.8458 19.2469 27.3466C19.012 27.2805 18.8009 27.2549 18.7246 27.2504C18.7246 27.2504 18.9731 26.7867 19.2402 26.5478C19.5072 26.309 20.2759 26.4953 20.392 26.836C20.5081 27.1768 20.4438 27.7186 20.4993 27.8815C20.5549 28.0445 20.6841 28.5212 20.0148 28.8215Z" fill="#FFD556"/>
</svg>
