<svg xmlns="http://www.w3.org/2000/svg" xmlns:xlink="http://www.w3.org/1999/xlink" width="84" height="171" fill="none"><style><![CDATA[.B{fill:#ffd556}.C{fill:#0d3a78}.D{fill:#aed1ff}.E{fill:#eac34f}.F{fill:#74acf6}]]></style><path d="M49.125 15.304c-2.328.608-4.896 6.15-2.54 7.652s2.015 4.58 3.507 4.865 4.978-2.148 5.762-3.702 1.32-10.907-6.728-8.815z" class="C"/><path d="M47.43 34.95c-1.95 7.943-12.17 16.343-23.76 17.167-25.76 1.83-12.588-35.177-9.683-34.11 4.153 1.527 4.5 21.022 6.006 22.422 2.828 2.625 16.907-4.53 21.04-7.294 2.464-1.646 6.9-.274 6.396 1.815z" class="B"/><path d="M24.38 48.342c-1.27-.06-7.007.365-9.406-.897s-1.873-5.03-1.867-8.387-1.6-2.36-3.057-5.35 3.383-9.676 3.252-12.148c-.045-.867-.493-1.465-1.05-1.882-4.142 7.1-10.638 34.004 11.425 32.442 7.432-.53 14.3-4.18 18.786-8.823-4.364-1.305-16.922 5.1-18.082 5.044z" class="E"/><path d="M47.43 34.953c.514-2.09-3.932-3.46-6.396-1.815-2.57 1.718-8.977 5.13-14.145 6.84.05 2.596.55 7.038 3 10.964 8.85-2.73 15.94-9.515 17.53-16z" class="D"/><path d="M28.064 46.99c.44 1.315 1.03 2.66 1.837 3.948 8.314-2.56 15.072-8.707 17.182-14.81-6.267.642-18.964 10.823-19.02 10.863z" fill="#87b3ee"/><path d="M15.494 19.555l-1.532-3.763s-.363-1.657-1.303-1.14c-.56.308-1.145.168-1.604 1.47s.736 3.536 2.098 3.874 2.34-.44 2.34-.44z" class="B"/><path d="M28.373 165.077c1.5-1.127 2.6-1.693 3.476-3.16.06-.097.093-.247.12-.412.096-.723.766-1.23 1.486-1.092 1.687.32 4.7.1 5.58 1.005 1.462 1.516 2.218 3.74 1.08 4.668-2.18 1.772-16.706 4.316-16.768 2.885-.04-.857 2.776-2.203 5.026-3.893zm47.413.323c-1.467-1.17-2.56-1.77-3.382-3.26-.056-.1-.086-.25-.107-.416-.075-.725-.73-1.25-1.453-1.135-1.695.27-4.7-.047-5.608.84-1.505 1.472-2.327 3.674-1.216 4.635 2.126 1.835 16.572 4.803 16.676 3.375.065-.856-2.7-2.284-4.9-4.04z" fill="#0c3670"/><path d="M68.55 119.32c-1.828-9.288-.997-18.25-.052-27.556.727-7.13 2.276-16.26-.962-23.003-2.533-5.86-7.772-10.117-10.67-15.755-1.3-2.548-1.858-5.33-1.45-8.177.3-2.096 1.793-4.766 1.963-6.888.405-4.96-2.977-9.223-8.647-8.654-4.295.434-10.75 3.898-11.132 8.59-.418 5.113 1.52 10.04.888 15.217-.383 3.138-2.067 5.794-3.242 8.676-1.453 3.568-2.44 7.36-3.333 11.102-1.77 7.426-2.93 14.99-3.812 22.57-1.758 15.043-2.44 30.212-2.628 45.35-.09 7.33.126 13.976 1.767 15.894 5.522 6.44 14.29 7.478 19.34.664 4.996-6.75-2.35-23.33-3.21-37.834-.444-7.46.23-14.613 1.967-21.883l2.49-10.416c.548-2.287 1.776-5.082 1.776-7.435l1.728 35.12c-.27 4.848-.287 9.717-.14 14.57.244 7.964.657 16.592 3.664 24.075 1.397 3.48 3.516 6.016 7.04 7.522 3.886 1.658 9.817 2.34 12.424-1.79 1.72-2.717 1.762-6.37 1.627-9.47-.183-4.18-.957-8.333-1.897-12.4a141.41 141.41 0 0 0-5.496-18.09z" fill="#4179c5"/><path d="M40.47 95.364c-1.897 5.356-1.762 16.44-.68 22.795s-1.763 4.865-2.44 11.758-2.032 20.407-5.962 20.407c-1.802 0-4.03-2.448-5.918-5.1.07 5.443.474 9.93 1.77 11.445 5.522 6.44 14.3 7.48 19.34.664 4.996-6.75-2.35-23.328-3.212-37.833-.444-7.46.23-14.614 1.967-21.884l2.15-9c-1.858.773-5.614 2.765-7.015 6.727zm35.48 54.45c-.183-4.18-.957-8.333-1.897-12.4-1.423-6.132-3.268-12.204-5.496-18.094-1.828-9.288-.996-18.25-.052-27.556.727-7.13 2.276-16.258-.962-23.003-2.533-5.86-7.772-10.117-10.67-15.755-1.3-2.548-1.858-5.33-1.45-8.177.3-2.096 1.793-4.766 1.963-6.888.183-2.218-.396-4.297-1.597-5.864-2.163 2.596-5.766 7.6-5.818 12.18-.078 6.562-1.55 8.893 3.608 12.34s4.774 9.5 6.44 14.18 4.513 15.22 3.7 21.606-3.782 27.166.144 32.54-.244 21.388-5.836 18.958c-2.633-1.146-4.678-1.888-6.088-2.7.5 4.267 1.362 8.477 2.93 12.374 1.397 3.48 3.516 6.016 7.04 7.522 3.886 1.658 9.817 2.34 12.424-1.788 1.7-2.717 1.754-6.376 1.62-9.47z" class="C"/><path d="M47.82 36.522c.675-.647 2.772-4.844 3.82-6.997-.857-.252-1.823-.347-2.907-.24-1.027.104-2.18.382-3.342.807-1.223 1.402-3.486 4.162-3.438 5.347.074 1.623 4.948 1.962 5.866 1.08z" class="D"/><path d="M54.373 31.3s20.753 5.295 27.63 20.1c8.934 19.227-29.866 23.82-29.522 15.304.183-4.496 19.095-8.702 19.617-9.865 2.393-5.325-11.04-11.45-14.77-14.436-6.075-4.865-2.955-11.094-2.955-11.094zm-3.608-6.497l-.374 5.634c-.065.93-2.54 3.13-3.912 1.84-.4-.378.26-1.606.74-2.535l1.484-4.748 2.063-.2z" class="B"/><path d="M47.824 27.824c1.24-.278 2.598-1.992 2.598-1.992l-1.928-.152-.67 2.144z" class="C"/><g class="B"><path d="M51.048 21.21l.17 2.188c.135 1.732-1.097 3.346-2.833 3.515-1.6.156-3.055-.868-3.133-2.877-.07-1.784 1.3-3.216 1.828-3.98 1.184-1.745 3.586-1.346 3.97 1.154z"/><path d="M51.06 23.56a2.69 2.69 0 0 0 .331-.469c.183-.317.53-.747.866-.243.492.733-.58 2.37-1.44 2.044-.635-.24-.083-.972.244-1.332z"/></g><path d="M47.706 23.877s-.788-.143-1.758-.764c0 0-.17.534.065.88.287.417 1.036.608 1.693-.117z" fill="#fff"/><path d="M48.246 26.194c-.653-.03-1.784-.378-2.228-.807-.392-.382-.7-1.254-.766-1.45 0 .035-.004.065 0 .1.078 2 1.532 3.034 3.133 2.878 1.07-.104 1.945-.76 2.428-1.65-.95.76-1.98.955-2.568.93z" class="E"/><path d="M60.352 80.06c-.21 0-.387-.16-.405-.373-.466-5.477-4.17-9.457-8.603-9.262-5.357.24-6.432 9.18-6.44 9.27-.026.22-.226.382-.448.356s-.383-.226-.357-.447c.044-.395 1.166-9.722 7.215-9.99l.352-.01c4.726 0 8.608 4.236 9.1 10.008.017.22-.148.42-.37.438-.017.01-.03.01-.044.01z" fill="#311e69"/><path d="M73.11 40.63c.513 2.543 3.05 5.868 4.826 7.726 2.71 2.838 2.167 7.973-.27 10.14s-7.29 2.5-11.166 5.677-5.213 1.758-9.117 2.435c-1.545.27-3.242.9-4.42 1.706 4.39 6.202 37.346.977 29.04-16.9-2.045-4.4-5.31-7.956-8.89-10.78z" class="E"/><path d="M53.055 65.763s-3.612.742-4.617 2.973 2.946 3.355 3.982 3.017c2.145-.7-.448-1.667-.448-1.667s4.543-.438 4.678-2.435-3.594-1.888-3.594-1.888z" class="B"/><path d="M43.838 79.88v15.035c0 2.18 3.87 3.94 8.638 3.94s8.638-1.766 8.638-3.94V79.88H43.838z" class="C"/><path d="M52.476 88.68c-4.77 0-8.638-1.766-8.638-3.94v4.63c0 2.18 3.87 3.94 8.638 3.94s8.638-1.766 8.638-3.94v-4.63c0 2.174-3.87 3.94-8.638 3.94z" class="F"/><use xlink:href="#B" fill="#1b4370"/><use xlink:href="#B" fill="#311e69"/><path d="M52.476 77.036c4.6 0 7.537 1.684 7.537 2.843s-2.937 2.843-7.537 2.843-7.537-1.684-7.537-2.843 2.937-2.843 7.537-2.843zm0-1.102c-4.77 0-8.638 1.767-8.638 3.94s3.87 3.94 8.638 3.94 8.638-1.766 8.638-3.94-3.87-3.94-8.638-3.94z" fill="#fff"/><g class="F"><path d="M45.557 80.885c1.088.938 3.56 1.832 6.92 1.832s5.83-.898 6.92-1.832c-1.575-.96-4.086-1.58-6.92-1.58s-5.344.62-6.92 1.58z"/><path d="M55.096 81.703l1.2 1.254a1.29 1.29 0 0 1 .361.894v2.63c0 .668.992.76 1.088.096 0-.01.004-.017.004-.026.104-.86-.483-1.558.21-1.8s.98.712 1.436-.425.205-2.205.205-2.205l-1.8-1.267-2.694.86z"/></g><path d="M15.195 4.293l.5.34.16.516-.916.163.266-1.02z" fill="#1b4370"/><path d="M20.178 5.55s.256.59.588.878c0 0-1.63 3.083-1.657 3.807s-1.728.176-1.005-.944 1.318-3.563 2.074-3.74z" class="D"/><path d="M19.24 10.217l-.427-.465-8.18-1.693s-1.1 2.254-.843 3.458 1.952 1.37 2.367 2.386-1.59 3.86-2.002 5.675c-.162.71-.23 1.07.054 1.466.57.8 1.873 1.25 2.764.815.44-.214.867-.606 1.072-1.307.525-1.785.15-5.23 1.006-5.922.86-.696 2.176-.038 2.997-.97s1.193-3.44 1.193-3.44zm-7.33 10.58c-.485-.12-.744-.747-.574-1.393s.698-1.074 1.183-.953.744.747.574 1.393-.698 1.074-1.183.953z" fill="#0a2851"/><path d="M18.806 9.75L10.2 7.592s-.898 2.375-.63 3.578 1.74 1.25 2.155 2.265-1.6 3.86-2.002 5.674c-.162.71.02 1.258.304 1.653.568.803 1.617 1.066 2.51.63.44-.214.867-.606 1.072-1.307.524-1.785.15-5.228 1.006-5.92.86-.696 2.176-.038 2.997-.97.826-.936 1.198-3.444 1.198-3.444zm-7.33 10.58c-.485-.12-.744-.747-.573-1.393s.698-1.074 1.183-.954.744.747.573 1.393-.698 1.074-1.183.953z" class="C"/><path d="M10.54 7.747l.795-4.446 2.148.537.123.264.238-.174 1.353.34.312.753.62-.52.546.14.17.238.252-.135 3.06.767s-1.52 3.448-1.526 4.26L10.54 7.747z" fill="#fff"/><path d="M12.42 5.672c.256.882-.302 1.535.142 1.79.44.26.547-1.818 1.09-1.587.546.237.545.875.545.875s.536-.757 1.283-.645.417 1.093 1.327 1.05.58-.548 1.413-.314c.342.095.793.262 1.208.43l.737-1.774-3.058-.76-.252.137-.168-.24-.546-.137-.623.526-.3-.758-1.352-.338-.24.176-.123-.266-2.147-.533c.014.134-.105.847-.256 1.667.497.018 1.175.16 1.33.7z" class="F"/><path d="M15.354 19.39s.625-2.133.03-2.75-.378-2.45-.94-2.138c-.568.314-.868.995-.69 1.526s-.614 2.83.025 3.412 1.575-.05 1.575-.05z" class="B"/><path d="M70.618 38.8c-7.872-5.35-16.245-7.49-16.245-7.49s-3.116 6.228 2.955 11.094c1.697 1.358 5.405 3.368 8.712 5.655 2.067-1.545 4.547-4.418 4.578-9.258z" class="D"/><path d="M57.384 37.94c-1.558-.616-2.846-1.693-3.808-2.713.026 2.135.805 4.813 3.75 7.174 1.697 1.358 5.405 3.368 8.712 5.655.988-.742 2.07-1.792 2.937-3.212-1.327-1.16-3.48-3-4.56-3.663-1.623-1.01-3.45-1.823-7.032-3.242z" fill="#87b3ee"/><path d="M46.65 19.9s.226-1.67 1.9-1.992 3.407.846 3.63 2.248-.083 2.348-.083 2.348.914-1.098.814-3.008-1.797-2.77-3.25-2.92-3.238 1.853-3.02 3.325z" class="B"/><path d="M56.253 21.88s-.814 11.436-1.728 14.175-2.054 13.38-2.054 13.38l-2.624-2.313-.074-2.33-.657 1.875s-.988-1.793-1.297-3.073 2.842-17.3 2.842-17.3l5.592-4.414z" class="C"/><defs ><path id="B" d="M52.476 83.82c4.77 0 8.638-1.764 8.638-3.94s-3.867-3.94-8.638-3.94-8.638 1.764-8.638 3.94 3.867 3.94 8.638 3.94z"/></defs></svg>