<svg xmlns="http://www.w3.org/2000/svg" width="135" height="255" fill="none"><style><![CDATA[.B{fill:#0d3a78}.C{fill:#ffd556}.D{fill:#aed1ff}.E{fill:#0c3670}.F{fill:#87b3ee}]]></style><path d="M80.08 59.255s-19.56-20.23-18.69-26.497 2.44-17.196-.057-22.947-8.55.668-11.57 8.824c-2.076 5.607-5.105 16.198-.644 27.67s14.887 21.39 19.8 27.895c4.13 5.456 11.162-14.943 11.162-14.943z" class="C"/><path d="M66.726 43.626c-7.685-.807-12.968 4.457-15.348 7.513 5.083 9.4 13.334 17.49 17.546 23.06C73.05 79.66 80.08 59.255 80.08 59.255s-7.824-8.095-13.355-15.63z" class="D"/><path d="M36.743 254.33c1.153 0 2.167-.83 2.36-2l14.13-85.802 18.025-26.415c.744-1.09.46-2.574-.63-3.316a2.4 2.4 0 0 0-3.325.629l-18.325 26.85a2.38 2.38 0 0 0-.383.955l-14.217 86.327a2.39 2.39 0 0 0 1.976 2.743 2.35 2.35 0 0 0 .392.03z" class="E"/><g class="B"><path d="M77.1 162.19c1.227 0 2.22 1 2.22 2.214s-.992 2.213-2.22 2.213H44.145l-1.536-4.427H77.1z"/><path d="M18.666 162.19H42.61l1.536 4.427h-25.48c-1.227 0-2.22-.99-2.22-2.213a2.22 2.22 0 0 1 2.219-2.214z"/></g><path d="M105.884 253.92c.227 0 .453-.035.68-.11a2.21 2.21 0 0 0 1.436-2.782l-41.667-129.49a2.22 2.22 0 0 0-2.789-1.432c-1.166.373-1.8 1.62-1.436 2.782l41.668 129.49c.3.942 1.17 1.54 2.1 1.54z" class="E"/><path d="M52.422 194.466H86.13c1.227 0 2.22-1 2.22-2.213s-.992-2.214-2.22-2.214H52.422c-1.227 0-2.22 1-2.22 2.214s.997 2.213 2.22 2.213zm9.512 27.848h32.903c1.227 0 2.22-1 2.22-2.214a2.22 2.22 0 0 0-2.22-2.213H61.934c-1.227 0-2.22 1-2.22 2.213s.992 2.214 2.22 2.214z" class="B"/><g class="E"><path d="M2.4 254.33c1.153 0 2.167-.83 2.36-2l14.13-85.802 18.025-26.415c.744-1.09.46-2.574-.63-3.316a2.4 2.4 0 0 0-3.325.629l-18.325 26.85a2.38 2.38 0 0 0-.383.955L.032 251.557a2.39 2.39 0 0 0 1.976 2.743 2.35 2.35 0 0 0 .392.03z"/><path d="M29.16 108.953c2.254-3.464 6.084-5.44 11.384-5.868 8.155-.664 15.26 2.586 20.553 9.396 3.895 5.01 5.422 10.174 5.483 10.39.335 1.15-.33 2.352-1.484 2.686a2.18 2.18 0 0 1-2.698-1.475c-.218-.734-5.457-17.978-21.506-16.67-3.877.317-6.597 1.623-8.077 3.893-3 4.575-.514 11.818-.492 11.888.03.09.048.182.065.273L73.457 251.09a2.21 2.21 0 0 1-1.436 2.782 2.17 2.17 0 0 1-.679.108c-.94 0-1.8-.6-2.11-1.536L27.5 121.908c-.648-3.225-1.127-8.667 1.662-12.955z"/></g><path d="M67.814 186.203c-.953-1.48-1.192-3.095-1.28-4.414l-4.896-.117s.292 1.684-.566 2.973c-.374.56-1.432.963-2.898 1.532-2.32 1.12-5.187 2.56-5.305 3.342-.196 1.298 13.307 1.584 15.58.382 1.197-.638.4-2.075-.635-3.698zm30.356 27.322c-1.114-1.624-1.436-3.42-1.575-4.896l-5.48.026s.383 1.87-.53 3.342c-.4.642-1.57 1.124-3.2 1.8-2.56 1.328-5.714 3.034-5.818 3.9-.174 1.46 14.93 1.337 17.433-.1 1.3-.742.383-2.322-.84-4.1z" class="B"/><g fill="#4179c5"><path d="M68.4 104.198c-6.59 7.592-21.184 15.052-24.265 28.728-3.55 15.768 5.936 43.71 10.8 48.74 3.982 4.115 13.5 3.05 14.326 0 3.538-12.934-5.814-37.213-6.193-40.35-.605-4.965 23.347-14.757 23.347-14.757l-1.923-20.5c-8.12-3.455-16.1-1.87-16.1-1.87z"/><path d="M98.56 103.836s3.16 5.838 3.83 9.705c1.597 9.257 7.045 61.054 5.078 78.562s-10.87 18.55-17.028 18.68-9.3-79.04-9.3-86.878 1.366-18.59 1.366-18.59l16.053-1.48z"/></g><path d="M102.384 113.537c-.666-3.863-3.83-9.705-3.83-9.705l-2.337.217c-.905 1.01-1.554 2.192-1.7 3.555-.683 5.967 3.016 28.754 3.777 34.83s-5.984 22.352-2.502 28.32 2.937 13.13-2.72 17.035c-2.598 1.793-5.322 3.347-7.51 4.5 1.332 10.838 2.96 18.53 4.883 18.49 6.158-.13 15.065-1.176 17.028-18.68s-3.48-69.3-5.078-78.562z" class="B"/><path d="M69.872 62.695s-7.302 3.897-6.763 4.527l5.8 6.97c1 1.337 2.198 1.12 3.412.03l-2.46-11.528z" fill="#2c143d"/><path d="M75.373 70.037c-3.93-8.928-12.83-21.645-15.657-25.447-3.943 1.563-6.77 4.53-8.338 6.545 5.083 9.4 13.334 17.49 17.546 23.06 1.863 2.465 4.317-.34 6.45-4.158z" class="F"/><path d="M99.346 105.373c.657-.425 9.63-19.07 10.344-24.223.49-3.568-.618-8.902-9.818-13.42s-21.32-11.21-27.8-9.7c-9.978 2.326-2.737 43.702-3.66 46.167-.004 0 15.74 4.462 30.932 1.176z" class="D"/><path d="M99.873 67.732l-5.213-2.596c-.213 3.66-.883 14.592-1.775 22.725-.757 6.892-1.64 13.472-.444 18.516 2.276-.187 4.595-.504 6.906-1.003.657-.425 9.63-19.07 10.344-24.223.487-3.572-.622-8.902-9.817-13.42z" class="F"/><path d="M89.772 56.613s-1.262-1.567-.27-4.032 5.4-2.248 6.232-.733 1.427 2.196 2.002 2.943.997 3.416.117 4.826-2.71 3.74-4.517 3.815-4.648-4.774-3.564-6.818z" class="B"/><path d="M94.15 60.844l-1.445 6.927c-.483.846-6.384.538-7.093-1.302-.21-.538.374-1.28 1.25-1.94l4.965-3.485 2.324-.2z" class="C"/><path d="M90.825 61.746l2.433.877s-.944 1.428-2.89 1.784a4.46 4.46 0 0 1-2.785-.386l3.242-2.274z" class="B"/><path d="M94.12 57.947l-.6 4a2.48 2.48 0 0 1-2.907 1.871c-1.053-.213-1.654-.512-2.768-1.246-.927-.612-.962-1.8-.313-3.103.84-1.675 2.093-2.977 2.802-3.637 1.62-1.502 3.982-.534 3.786 2.105z" class="C"/><path d="M90.612 59.33s-.918-.208-2.002-.925c0 0-.41.734-.083 1.224s1.362.46 2.085-.3z" fill="#fff"/><path d="M88.184 61.148c1.214.33 1.218 2.417 3.977 1.82.513-.113 1.062-.725 1.375-1.098l-.013.087a2.48 2.48 0 0 1-2.907 1.871c-1.053-.213-1.654-.512-2.768-1.246-.566-.373-.796-.964-.744-1.662.178.13.71.13 1.08.23z" fill="#eac34f"/><path d="M93.67 56.008s.205 1.7-.222 2.352-.666.894-.53 1.194 1.066.108 1.4-.616.944-2.656-.657-2.93z" class="B"/><path d="M93.22 59.64c.157-.195.283-.412.396-.638.213-.425.635-1.01 1.1-.382.696.916-.575 3.125-1.72 2.77-.85-.26-.183-1.254.213-1.75z" class="C"/><path d="M100.826 68.22l-.953-.5-3.15-1.567-7.037 15.147s-12.646-1.207-13.8-3.364 8.712-17.4 8.747-17.452l-5.078-1.788c0 0-9.8 11.67-12.777 20.58.335 11.502 2.11 23.607 1.628 24.91 0 0 12.202 7.357 25.105 3.897.918-5.3 4.474-34.852 7.307-39.873z" fill="#4179c5"/><path d="M57.98 6.076s2.134-4.26 3.22-4.168.106 1.378.226 2.265 5.224-2.93 6.53-1.9-3.958 7.212-7.037 7.767c-2.336.42-4.098-.036-4.35-1.133-.176-.774 1.412-2.83 1.412-2.83z" class="C"/><path d="M89.98 80.672l-.296.638s-12.646-1.206-13.8-3.364c-.013-.026-.017-.065-.03-.096l-8.1-1.085-.983 2.522.218 4.84c6.088 1.385 19 3.715 25.884.473 2.955-1.39 1.05-2.74-2.903-3.928z" class="B"/><path d="M97.553 80.158c.81 5.94 8.298 20.454 11.89 26.43.913 1.52.577 3.47-.784 4.6-4.2 3.487-8.994 10.396-11.883 16.617-1.505 3.238-2.005 7.84 1.02 9.745 1.612 1.016 24.03-8.6 25.15-29.37.407-7.584-9.498-28.2-13.258-32.93-5.398-6.797-12.833-.236-12.133 4.9z" class="C"/><path d="M117.91 108.132c1.24 2.7.03 9.827-3.198 11.846s-3.764 3.887-6.175 8.516c-1.617 3.106-5.317 6.477-7.575 8.36 6.62-2.63 21.082-12.104 21.976-28.682.374-6.95-7.92-24.856-12.2-31.437.066 3.17.038 8.21-.677 11.38-1.1 4.907 6.6 17.305 7.85 20.015z" fill="#eac34f"/><path d="M82.606 150.214a.45.45 0 0 0-.221-.415c-.214-.125-.484-.055-.606.154l-2.633 4.498a.44.44 0 0 0 .167.602c.214.125.484.055.606-.154l2.633-4.5c.03-.058.05-.125.054-.186z" fill="#0d3873"/><path d="M81.842 146.544s-1.145.664-1.124 2.594 3.335 2.423 4.263.987c.93-1.442-1.1-5.136-3.14-3.58z" fill="#a0c0ea"/><path d="M90.996 135.704s-1.8-.617-3.452.84-7.006 7.178-6.108 9.86 3.404 3.36 5.057 2.97 4.383-6.432 5.825-6.45 2.66-2.482 5.143-.56c.323.252-.738 1.416-.738 1.416a2.08 2.08 0 0 0-.198 2.152l.61 1.265a2.17 2.17 0 0 0 2.012 1.236c.794-.022 1.74-.12 2.308-.413 1.13-.59 3.33-4.372 3.495-5.655.17-1.286-1.003-4.585-2.76-4.832-1.768-.245-11.192-1.83-11.192-1.83z" class="B"/><path d="M83.86 147.51c-.704-1.515 5.144-7.723 7.19-8.228s10.425 1.344 11.6 1.753 1.583 1.704 1.583 1.704a5.56 5.56 0 0 1 .089 1.27c-.77 1.595-2.104 3.607-2.902 4.02-.564.294-1.508.392-2.302.414a2.16 2.16 0 0 1-.559-.061 1.97 1.97 0 0 1-.466-.797c-.216-.722 1.283-2.827 1.283-2.827s-1.63-2.116-2.426-2.446c-2.457-1.016-3.208.6-4.645.63s-4.17 6.056-5.82 6.445a3.79 3.79 0 0 1-.322.06c-.94-.355-1.874-1.024-2.3-1.937z" fill="#5c90d7"/><path d="M97.55 80.158c.53 3.89 3.92 11.45 7.2 17.885 2.836-.3 9.88-1.356 14.15-4.944-3.072-7.547-7.116-15.206-9.226-17.86-5.397-6.787-12.832-.226-12.133 4.92z" class="D"/><path d="M74.246 127.715c-4.134 1.302-10.1 6.8-13.28 7.67s-5.866 1.01-5.213 7.304 6.87 12.227 5.213 18.446c-1.423 5.34-7.69 9.83-11.924 8.733 2.04 5.677 4.247 10.078 5.9 11.797 3.982 4.114 13.5 3.05 14.326 0 3.538-12.934-5.814-37.213-6.192-40.35-.422-3.473 11.158-9.3 18.164-12.496 0 0-2.868-2.404-7.002-1.102z" class="B"/><path d="M98.784 75.645c1.73-.204 3.94.484 6.105 2.736 3.073 3.193 3.178 3.384 3.066 7.545-.112 4.146 4.04 10.614 4.072 10.66 2.43-.752 4.94-1.857 6.877-3.5-3.072-7.547-7.116-15.206-9.226-17.86-3.807-4.79-8.635-2.916-10.894.41z" class="F"/><path d="M99.37 143.74c-3.323 1.498-4.016.91-6.037-.92-.448 1.107-1.492.904-1.958.664l3.105-3.11c.737-.498 1.51-1.5 1.077-4-1.166-.33-2.214-.457-2.593-.48 0 0 1.234-2.313 2.56-3.504s5.142-.262 5.72 1.438.257 4.4.533 5.214.917 3.2-2.406 4.688z" class="C"/></svg>