<svg width="22" height="48" viewBox="0 0 22 48" fill="none" xmlns="http://www.w3.org/2000/svg">
<path d="M20.8287 47.9988C20.8767 47.9988 20.9257 47.9914 20.9746 47.9757C21.2277 47.8962 21.3828 47.6309 21.32 47.3832L12.45 11.9897C12.3881 11.742 12.1323 11.6052 11.8792 11.6847C11.6262 11.7642 11.471 12.0295 11.5338 12.2772L20.4038 47.6706C20.4528 47.8712 20.6292 47.9988 20.8287 47.9988Z" fill="#0C3670"/>
<path d="M13.5269 47.9988C13.575 47.9988 13.6239 47.9914 13.6729 47.9757C13.9259 47.8962 14.0811 47.6309 14.0183 47.3832L5.14822 11.9897C5.08634 11.742 4.83051 11.6052 4.57745 11.6847C4.32439 11.7642 4.16922 12.0295 4.23203 12.2772L13.1021 47.6706C13.151 47.8712 13.3274 47.9988 13.5269 47.9988Z" fill="#0C3670"/>
<path d="M7.58936 23.8979H14.7748C15.0353 23.8979 15.2606 23.6871 15.2791 23.4265C15.2975 23.1658 15.1008 22.9551 14.8413 22.9551H7.65586C7.39541 22.9551 7.17005 23.1658 7.15158 23.4265C7.13311 23.6871 7.32891 23.8979 7.58936 23.8979Z" fill="#0C3670"/>
<path d="M8.94781 29.8276H16.2191C16.4796 29.8276 16.7049 29.6168 16.7234 29.3562C16.7419 29.0955 16.5452 28.8848 16.2856 28.8848H9.01431C8.75386 28.8848 8.52851 29.0955 8.51004 29.3562C8.49157 29.6168 8.68829 29.8276 8.94781 29.8276Z" fill="#0C3670"/>
<path d="M6.14991 17.9955H13.3353C13.5958 17.9955 13.8211 17.7848 13.8396 17.5241C13.8581 17.2635 13.6614 17.0527 13.4018 17.0527H6.21641C5.95596 17.0527 5.7306 17.2635 5.71213 17.5241C5.69274 17.7848 5.88946 17.9955 6.14991 17.9955Z" fill="#0C3670"/>
<path d="M10.4753 35.7573H17.6293C17.8897 35.7573 18.1151 35.5465 18.1336 35.2859C18.152 35.0252 17.9553 34.8145 17.6958 34.8145H10.5418C10.2813 34.8145 10.056 35.0252 10.0375 35.2859C10.019 35.5465 10.2157 35.7573 10.4753 35.7573Z" fill="#0C3670"/>
<path d="M11.9878 41.6889H19.1557C19.4161 41.6889 19.6415 41.4782 19.6599 41.2175C19.6784 40.9568 19.4817 40.7461 19.2222 40.7461H12.0543C11.7938 40.7461 11.5685 40.9568 11.55 41.2175C11.5315 41.4782 11.7273 41.6889 11.9878 41.6889Z" fill="#0C3670"/>
<path d="M4.42656 4.91432L4.45703 4.79508C4.45703 4.79508 4.1264 4.40964 3.75697 4.49468C3.38754 4.57971 3.57964 5.01877 3.57964 5.01877L4.42656 4.91432Z" fill="#FFD556"/>
<path d="M3.50343 4.10435C3.5764 4.08217 3.61796 4.00452 3.59579 3.9315L3.26053 2.826C3.19681 2.61433 3.31595 2.39065 3.52745 2.32687L5.11046 1.84529C5.39861 1.75748 5.56208 1.45153 5.47434 1.16314L5.3358 0.70652C5.23606 0.37746 4.88695 0.190746 4.55816 0.290573L3.84331 0.50779C3.77035 0.529974 3.72879 0.607617 3.75095 0.680639C3.77312 0.753661 3.8507 0.795256 3.92366 0.773072L4.63851 0.555855C4.82137 0.500396 5.01532 0.60392 5.07074 0.786937L5.20927 1.24355C5.25268 1.3859 5.17233 1.53657 5.0301 1.58001L3.4471 2.06158C3.08967 2.16973 2.88741 2.54963 2.99547 2.90735L3.33073 4.01284C3.35289 4.08494 3.43047 4.12653 3.50343 4.10435Z" fill="#311E69"/>
<path d="M0.81681 0.860343L3.5506 0.0293732C3.90894 -0.0796973 4.29038 0.124579 4.39936 0.483218C4.50834 0.841857 4.30423 1.2236 3.94588 1.33267L1.2121 2.16364C0.853756 2.27271 0.472319 2.06844 0.363338 1.7098C0.254355 1.35116 0.458463 0.969413 0.81681 0.860343Z" fill="#A0C9FF"/>
<path d="M3.45365 3.97076C3.64483 3.91253 3.84803 4.0216 3.90621 4.21293L4.57027 6.42208C4.62845 6.61341 4.51947 6.81677 4.32829 6.875C4.13711 6.93323 3.93392 6.82416 3.87573 6.63282L3.21167 4.42368C3.15349 4.23234 3.26247 4.02899 3.45365 3.97076Z" fill="#A0C9FF"/>
<path d="M3.28366 4.08203C3.36863 4.34362 3.53765 4.83074 3.68819 5.09602C3.81657 5.32063 4.06686 5.35206 4.24789 5.34097L4.56929 6.4215C4.62748 6.61284 4.51849 6.81619 4.32731 6.87443C4.13613 6.93266 3.93294 6.82359 3.87475 6.63225L3.2107 4.42311C3.17468 4.30017 3.20608 4.17354 3.28366 4.08203Z" fill="#311E69"/>
<path d="M0.389688 1.24422C0.606729 1.33019 1.18581 1.73134 1.45919 1.64261C1.79538 1.53261 1.61158 0.9318 2.81039 1.26456C3.28603 1.39674 3.7977 0.859703 4.10802 0.741389C4.26041 0.683156 4.36108 0.712735 4.4248 0.757102C4.39433 1.01869 4.21331 1.25162 3.94732 1.33296L1.21352 2.16393C0.85517 2.273 0.473732 2.06872 0.364749 1.71008C0.314876 1.5511 0.327808 1.38749 0.389688 1.24422Z" fill="#1F5CAE"/>
<path d="M14.5464 5.60742C14.5464 5.60742 14.3636 5.8422 14.2924 6.14538C14.2223 6.44856 14.3654 6.80905 14.6554 6.90703C14.8586 6.97543 15.3906 6.712 15.3536 6.30159C15.3167 5.89119 14.5464 5.60742 14.5464 5.60742Z" fill="#FFD556"/>
<path d="M15.0762 6.79424C14.9266 6.89407 14.7529 6.93844 14.655 6.90516C14.4398 6.83214 14.3059 6.61585 14.2791 6.38477C14.4251 6.54375 14.6883 6.75542 15.0762 6.79424Z" fill="#EAC34F"/>
<path d="M15.7928 8.10262C15.3662 9.07317 15.7282 10.1676 16.407 12.6374C15.2258 12.6697 13.7988 11.4441 12.8753 11.5143C12.2445 11.5624 12.5723 12.3601 12.5723 12.3601C13.9983 14.8844 17.2503 15.1654 18.0427 14.389C19.6488 12.8158 17.9559 9.576 17.4775 8.82822C17.1533 8.32169 16.1678 7.24854 15.7928 8.10262Z" fill="#FFD556"/>
<path d="M17.7575 9.31445C17.7104 9.33479 17.667 9.35975 17.6282 9.39395C16.9143 10.016 17.7778 11.5846 17.7778 11.5846C17.7778 11.5846 17.8351 12.752 17.5451 13.2318C17.2551 13.7115 16.7323 13.8039 15.6961 13.8141C14.6598 13.8233 14.1842 13.1828 13.3677 12.6901C13.0417 12.4932 12.8053 12.4424 12.639 12.4516C14.1426 15.0527 17.304 15.1174 18.0447 14.3909C19.4125 13.0515 18.3874 10.5041 17.7575 9.31445Z" fill="#EAC34F"/>
<path d="M16.0714 11.4154C15.6244 9.77288 15.4462 8.89662 15.7943 8.10262C16.1693 7.24854 17.1548 8.32169 17.4789 8.82822C17.672 9.13048 18.0626 9.83758 18.3545 10.6778C17.9389 10.9338 17.1483 11.3202 16.0714 11.4154Z" fill="#87B3EE"/>
<path d="M11.3429 28.4574C11.1563 28.1912 11.1 27.8954 11.0741 27.6523C11.0741 27.6523 10.4073 27.9675 10.0914 28.2199C9.99445 28.2975 9.83467 28.4084 9.57052 28.5249C9.15214 28.7486 8.63586 29.037 8.62016 29.1821C8.5943 29.4234 11.0797 29.3734 11.4888 29.1331C11.7031 29.0083 11.5479 28.7486 11.3429 28.4574Z" fill="#0D3A78"/>
<path d="M17.3747 34.0079L17.2851 33.5078L16.4557 33.5633L16.3375 33.7981C16.3375 33.7981 15.2505 34.3619 15.5802 34.7917C15.5599 34.9026 17.4948 35.033 17.7275 34.7196C17.8919 34.4978 17.3747 34.0079 17.3747 34.0079Z" fill="#0D3A78"/>
<path d="M13.1967 14.9121C14.0417 15.0692 14.9699 15.1192 15.8141 15.1192C16.9335 15.1192 17.9069 15.0323 18.3502 14.9907C18.3992 15.1755 18.6873 16.6083 18.7511 16.8135C19.2295 18.3654 18.1849 22.5563 18.1055 24.5011C18.0796 25.1342 19.2858 31.073 18.3872 33.5068C18.3041 33.7314 17.9051 33.9209 17.0988 33.8553C16.7912 33.8303 16.1946 33.5031 16.166 33.1953C15.9896 31.3272 14.8794 24.1471 14.8794 20.2057C13.7924 19.9663 10.8443 20.0227 11.1297 20.8352C11.73 22.5452 11.8658 28.6994 10.6005 28.6596C8.1373 28.582 8.24351 21.0201 8.40514 20.0033C8.82906 17.3311 12.9556 15.4972 13.1967 14.9121Z" fill="#4179C5"/>
<path d="M16.4248 16.7503C15.4597 16.4535 16.6058 15.6281 17.5959 15.0541C17.9146 15.0319 18.175 15.0079 18.3505 14.9922C18.3819 15.1123 18.5149 15.7566 18.6211 16.2511C18.1584 16.619 17.3743 17.0423 16.4248 16.7503Z" fill="#0D3A78"/>
<path d="M15.6387 7.49583C15.6387 7.49583 15.5232 6.77671 15.4475 6.4837C15.3801 6.22766 15.2914 6.09825 15.164 6.03817C14.8915 5.90969 14.717 7.61138 14.8426 7.6807C14.9672 7.75095 15.6387 7.49583 15.6387 7.49583Z" fill="#FFD556"/>
<path d="M13.1983 14.9129L13.4034 13.2962C13.4828 12.6695 13.3849 12.0308 13.1069 11.4633C12.6756 10.5833 12.1787 8.97315 13.0219 8.2115C14.1441 7.19936 16.6996 6.86106 17.2076 8.81231C17.4902 9.89655 17.4893 12.395 18.3519 14.9924C18.5449 15.5728 17.9677 16.4112 16.8769 16.6691C14.1708 17.3096 13.1983 14.9129 13.1983 14.9129Z" fill="#AED1FF"/>
<path d="M13.0219 8.21198C13.4541 7.82192 14.0979 7.53353 14.7564 7.43555C14.5929 7.8478 14.399 8.47172 14.386 9.1437C14.3629 10.3222 14.531 13.3263 15.22 14.551C15.5479 15.1343 15.788 15.9893 15.9062 16.7759C13.9344 16.725 13.1983 14.9134 13.1983 14.9134L13.4033 13.2967C13.4828 12.67 13.3849 12.0313 13.1069 11.4638C12.6756 10.5838 12.1787 8.97363 13.0219 8.21198Z" fill="#87B3EE"/>
<path d="M15.5396 6.91836C16.2369 6.64384 16.5491 5.41633 15.9312 4.98929C14.6308 4.08899 14.4433 4.95694 14.5246 5.63817C14.5661 5.98664 14.7185 6.21957 14.7453 6.27873C14.8248 6.45065 15.2311 7.04037 15.5396 6.91836Z" fill="#0D3A78"/>
<path d="M14.6332 6.27285C14.6332 6.27285 14.6046 6.12034 14.7301 6.04547C14.8557 5.97152 14.9332 6.13328 14.8363 6.35974C14.7393 6.58805 14.635 6.5178 14.6332 6.27285Z" fill="#FFD556"/>
<path d="M13.5872 7.96092C13.1208 7.82689 10.2919 8.91206 9.62966 8.90836C8.47057 8.90189 5.28885 4.5178 4.38836 5.21105C3.48787 5.90429 6.58185 10.757 8.98315 11.3893C10.9282 11.9013 13.4191 10.9687 13.9049 10.318C14.8035 9.11633 14.1219 8.11529 13.5872 7.96092Z" fill="#FFD556"/>
<path d="M4.77832 5.23949C4.77832 5.23949 4.51141 4.68952 4.24172 4.70338C3.97204 4.71725 3.87414 4.95757 3.58044 4.89749C3.28675 4.83741 3.04662 5.02967 3.17962 5.20252C3.31446 5.37629 4.46431 6.23869 4.77832 5.23949Z" fill="#FFD556"/>
<path d="M8.67408 19.1448C9.33998 19.5894 10.2395 20.0839 10.3679 19.6106C10.5757 18.8481 13.5773 18.2704 15.3552 18.4783C17.1331 18.6863 17.9413 19.8648 17.5894 20.3039C17.2366 20.7429 16.6261 26.1965 16.857 27.1208C17.0879 28.0451 16.8339 29.2005 16.953 29.7089C17.0389 30.0777 18.1306 30.7275 18.7217 31.0557C18.7134 32.0059 18.6229 32.8747 18.3892 33.507C18.3061 33.7316 17.9071 33.9211 17.1008 33.8555C16.7932 33.8305 16.1966 33.5033 16.168 33.1955C15.9916 31.3274 14.8814 24.1472 14.8814 20.2059C13.7944 19.9665 10.8463 20.0229 11.1317 20.8354C11.732 22.5454 11.8678 28.6996 10.6025 28.6598C8.13932 28.5822 8.24553 21.0202 8.40716 20.0035C8.45242 19.7077 8.5457 19.4212 8.67408 19.1448Z" fill="#0D3A78"/>
<path d="M4.38865 5.21074C4.4884 5.13402 4.61493 5.12015 4.76455 5.15435C4.75439 5.48711 4.77656 6.08608 5.02038 6.51034C5.37411 7.12687 6.0982 7.7739 7.08273 8.18984C8.06819 8.60579 7.63688 8.92931 7.8373 9.57633C8.03771 10.2234 9.37967 10.3149 9.37967 10.3149L11.7422 11.3529C10.8703 11.5562 9.87101 11.6237 8.98438 11.3899C6.58215 10.7567 3.48816 5.90398 4.38865 5.21074Z" fill="#EAC34F"/>
<path d="M14.0322 9.94141C14.0322 9.94141 13.733 11.2808 13.2158 11.718C13.1825 11.632 13.1465 11.547 13.1059 11.4628C12.9498 11.144 12.7854 10.7299 12.6783 10.2954L14.0322 9.94141Z" fill="#0D3A78"/>
<path d="M9.5179 8.89518C9.55669 8.9035 9.59455 8.90812 9.62965 8.90812C10.2919 8.91182 13.1208 7.82666 13.5872 7.96069C14.1219 8.11505 14.8035 9.1161 13.9049 10.3177C13.4671 10.9037 11.4038 11.7181 9.57792 11.5009C9.2676 10.6043 9.37197 9.59397 9.5179 8.89518Z" fill="#AED1FF"/>
<path d="M11.3916 9.96053C12.0381 9.46786 11.7611 9.80617 12.4842 9.74239C13.0328 9.6934 13.9112 9.11015 14.3046 8.83008C14.3988 9.23771 14.324 9.75533 13.9038 10.3173C13.466 10.9033 11.4027 11.7177 9.57682 11.5005C9.4429 11.115 9.38656 10.7083 9.37733 10.3145C9.9915 10.3377 10.9594 10.2905 11.3916 9.96053Z" fill="#87B3EE"/>
<path d="M15.3245 5.82381C15.657 5.91347 16.0348 5.76373 16.2601 5.64634C16.286 6.15102 15.9951 6.73797 15.5388 6.91729C15.2313 7.03838 14.824 6.44866 14.7445 6.27673C14.7177 6.2185 14.5654 5.98557 14.5238 5.63618C14.509 5.51416 14.5035 5.38661 14.5109 5.26367C14.6549 5.4282 14.957 5.72491 15.3245 5.82381Z" fill="#0C3670"/>
<path d="M15.8242 5.15385C15.8242 5.15385 15.9239 4.19903 16.6166 4.29146C17.3093 4.38389 17.3093 5.41451 16.9629 5.6077C16.6166 5.80088 16.6628 6.10129 16.7856 6.17061C16.9084 6.23994 16.8743 6.55606 16.5067 6.49783C16.1391 6.43959 15.7087 5.87021 15.8242 5.15385Z" fill="#0D3A78"/>
<path d="M13.1384 11.5892C13.1384 11.5892 12.4918 11.3581 11.9091 11.4857C11.3263 11.6132 11.3983 12.092 11.5184 12.1382C11.6385 12.1845 12.0827 11.9423 12.1686 11.9996C12.2545 12.0569 11.5738 12.3462 11.8167 12.4849C12.0596 12.6235 12.4872 12.5422 12.925 12.4849C13.2732 12.4377 13.3637 11.7565 13.1384 11.5892Z" fill="#FFD556"/>
</svg>
