<svg xmlns="http://www.w3.org/2000/svg" width="88" height="161" fill="none"><style><![CDATA[.B{fill:#0d3a78}.C{fill:#ffd556}]]></style><path d="M49.094 3.318c-.14-.026-.26-.13-.3-.273-.056-.204.065-.412.27-.47l4.413-1.202c.204-.056.413.065.47.27s-.065.412-.27.47l-4.413 1.202a.45.45 0 0 1-.17.004z" fill="#0d3873"/><path d="M46.187 1.868s.827-.812 2.46-.37 1.284 3.325-.148 3.785-4.1-2.053-2.31-3.416z" fill="#a0c0ea"/><path d="M34.934 7.186s-.104-1.64 1.523-2.704 7.755-4.292 9.83-2.956 2.067 3.58 1.35 4.878-6.506 2.26-6.858 3.464-2.737 1.684-1.68 4.18c.14.326 1.38-.308 1.38-.308a1.86 1.86 0 0 1 1.88.304l.936.786c.57.477.805 1.246.583 1.953-.205.66-.51 1.428-.892 1.84-.766.816-4.504 1.832-5.635 1.688s-3.673-1.84-3.473-3.364l1.058-9.76z" class="B"/><path d="M46.653 3.81c-1.127-.92-7.8 2.617-8.7 4.22s-1.293 9.02-1.218 10.09 1.084 1.697 1.084 1.697a4.91 4.91 0 0 0 1.062.352c1.54-.295 3.568-.972 4.108-1.55.383-.408.688-1.176.892-1.836a1.86 1.86 0 0 0 .078-.482c-.14-.226-.326-.417-.57-.564-.566-.34-2.71.456-2.71.456s-1.423-1.827-1.52-2.565c-.29-2.28 1.27-2.552 1.623-3.75s6.14-2.166 6.858-3.463l.126-.256c-.083-.864-.435-1.793-1.114-2.348z" fill="#5c90d7"/><path d="M34.668 9.752s.683 3.194 1.245 3.38 2.95-.464 3.286-.73.68.12.265 1.502-1.432 3.173-2.733 3.88c-1.184.642-4.15-.985-4.408-2.183s.013-6.497 2.498-7.274l-.152 1.424z" class="C"/><path d="M36.343 15.068c-.553-.825-1.52-1.28-2.515-1.25-1.98.065-6.845.786-10.057 6.037-4.112 6.727 8.13 5.417 10.61 3.715 2.02-1.39 3.586-6.08 1.963-8.502z" fill="#70a1e3"/><path d="M77.724 21.715c.14-.647 1.297-2 2.14-2.578 1.614-1.107 1.04-1.628 1.197-2.43s1.4-.625 1.375 1.246c-.013 1.198-.757 1.337.3 1.428 1.532.13 4.722-.4 4.722.148 0 .57-2.015 4.93-6.37 5.98-1.223.295-4.138-.187-3.355-3.793zM23.158 6.668s.657 1.806 1.493 3.537 1.218 3.455-.405 4.436c-1.136.686-4.7-.2-5.035-2.708s3.947-5.265 3.947-5.265z" class="C"/><path d="M22.288 13.618c1.736-.304 2.66-1.22 2.998-1.645.218 1.068.017 2.023-1.04 2.665-.844.512-3.037.156-4.24-1.098.822.14 1.632.195 2.28.078z" fill="#eac34f"/><path d="M41.835 156.287c-.54-1.662-2.907-3.333-2.907-3.333l.574-1.793-6-.403-.648 3.607s.66 1.523 2.702 2.57c2.646 1.358 6.828 1.016 6.288-.647z" class="C"/><path d="M45.843 160.028c0-3.754-6.92-7.08-6.92-7.08s-1.245 2.422-3.834 2.422c-.727 0-2.25-1.01-2.25-1.01s-3.747 3.537-2.554 5.14c1.688 2.27 15.7 1.328 15.557.53z" class="B"/><path d="M19.372 156.287c-.54-1.662-2.907-3.333-2.907-3.333l.574-1.793-6-.403-.648 3.607s.662 1.523 2.702 2.57c2.64 1.358 6.824 1.016 6.288-.647z" class="C"/><path d="M23.38 160.028c0-3.754-6.92-7.08-6.92-7.08s-1.244 2.422-3.834 2.422c-.727 0-2.25-1.01-2.25-1.01s-3.747 3.537-2.554 5.14c1.688 2.27 15.7 1.328 15.557.53z" class="B"/><path d="M21.648 61.118c-6.184 0-11.562-.482-14.012-.707-.27 1.02-.574 2.088-.923 3.216-2.646 8.542-2.115 30.73-1.675 41.436.144 3.486-4.304 38.524 4.095 46.732 1.958 1.914 8.538.73 10.527-3.455 4.334-9.106 3.86-57.964 3.477-61.48.01 0-1.5-17.478-1.488-25.742z" fill="#4179c5"/><path d="M16.787 18.623s.117-2.765.622-4.813c.444-1.797 1.188-2.85 2.34-3.58 2.472-1.563 5.37 8.64 4.24 9.427s-7.202-1.033-7.202-1.033z" class="C"/><path d="M18.863 14.192L17.41 13.8s-3.577-6.727-1.018-8.58 2.93-1.124 3.03-3.61 5.144-1.862 5.823.213c1.253 3.845-2.084 5.09-1.784 6.42s.387 1.918-.126 1.875-1.22.143-1.466 1.29-3.003 2.778-3.003 2.778z" class="B"/><path d="M25.247 1.837c-.38-1.16-2.12-1.866-3.6-1.832.418.42 1.362 1.55 1.5 3.23.178 2.16-2.628 1.32-3.603 2.348s.31 3.455-1.893 4.17c-.748.243-1.314.317-1.767.252.57 1.996 1.527 3.806 1.527 3.806l1.453.382s2.76-1.623 3.007-2.77.953-1.337 1.467-1.29.426-.543.126-1.875 3.033-2.578 1.78-6.424z" fill="#0c3670"/><path d="M23.145 86.86s-1.52-17.478-1.497-25.742c-1.675 0-3.3-.035-4.804-.09-3.23 8.3-8.33 21.888-8.085 24.405.348 3.668 9.804 13.97 9.804 19.032s-6.828 11.176-5.6 20.43c.914 6.892-2.254 15.907-8.046 16.245.757 4.662 2.067 8.546 4.226 10.655 1.958 1.915 8.538.73 10.527-3.454 4.334-9.106 3.86-57.964 3.477-61.48z" class="B"/><path d="M46.374 98.9c-1.78-17.47-8.934-35.703-10.26-38.927-4.67.868-9.796 1.14-14.465 1.14-.013 5.473-.514 14.5-.85 19.974-.187 3.02.387 6.04 1.658 8.79 2.737 5.92 7.44 16.62 7.942 21.38 1.436 13.64-3.185 32.534-1.358 37.577 1.157 3.195 9.965 5.847 13.52.747 2.36-3.377 8.072-8.88 3.812-50.68z" fill="#4179c4"/><path d="M23.497 10.437s-.035-.96-.892-1.237-1.1.803-.218 2.04 1.432.673 1.1-.803z" class="C"/><path d="M46.374 98.9c-1.78-17.47-8.934-35.703-10.26-38.927-3.055.57-6.3.877-9.49 1.03 1.68 7.96 5.688 24.952 10.396 30.89 6.232 7.856 3.25 15.2 3.956 22 .592 5.75-6.145 20.838-11.9 24.236-.483 4.87-.718 8.79-.026 10.707 1.158 3.195 9.965 5.847 13.52.747 2.363-3.377 8.077-8.88 3.817-50.68z" class="B"/><path d="M41.966 77.12c2.742-5.816 5.004-41.02-3.95-53.87C30.67 12.706.338 15.084.068 27.593-.037 32.497-.15 37.675.8 46.143c.44 3.924.583 27.573 2.55 37.734a3.93 3.93 0 0 0 3.969 3.181c8.786-.226 31.08-6.463 34.648-9.94z" fill="#aed1ff"/><path d="M38.014 23.25c-2.332-3.342-6.976-5.386-12.237-6.22.97 3.07 4.513 14.518 5.57 21.428 1.227 8.034-.135 22 .896 31.432.44 4 1.175 7.895 1.876 11.033 3.8-1.358 6.736-2.717 7.85-3.802 2.737-5.82 5-41.02-3.956-53.87zm32.66 25.313c7.515-2.786 19.03-17.62 11.08-26.77-4.517-5.2-16.1 14.24-15.483 17.322s2.054 10.32 4.404 9.45z" fill="#87b3ee"/><path d="M44.386 53.384c-.057-3.772-.278-7.652-.718-11.397l-7.724-4.822c.004 0 1.993 12.014 8.442 16.22z" class="B"/><path d="M33.423 24.334c-.392-2.26 1.932-4.02 4.012-3.043C47.1 25.844 68.11 35.645 72.42 36.942c5.64 1.7 6.558 13.212-10.36 12.82s-22.603-3.49-24.787-8.203C36.082 39 34.43 30.163 33.423 24.334z" fill="#aed1ff"/><path d="M54.67 42.617C47.87 41.588 39.05 36.97 35.1 34.38c.026 2.943 1.558 5.846 2.18 7.183 2.185 4.718 7.868 7.812 24.787 8.203 13.12.304 15.51-6.55 13.294-10.434-5.28 1.918-13.92 4.3-20.684 3.286z" fill="#87b3ee"/></svg>