<svg width="17" height="25" viewBox="0 0 17 25" fill="none" xmlns="http://www.w3.org/2000/svg">
<path d="M3.24522 23.4247C3.07426 23.1513 3.03039 22.8547 3.01357 22.6112L2.14701 22.584C2.14701 22.584 2.20102 22.8938 2.05048 23.1302C1.98497 23.2329 1.79804 23.3056 1.53966 23.4093C1.1303 23.6122 0.62496 23.8751 0.604832 24.0183C0.571757 24.2567 2.962 24.324 3.3633 24.1041C3.57314 23.9894 3.4329 23.7247 3.24522 23.4247Z" fill="#0C3670"/>
<path d="M8.88727 15.4728C8.88727 15.4728 5.22982 13.5135 2.94864 13.741C0.427734 13.9933 -0.320114 22.3728 1.89716 22.9769C4.11443 23.5809 3.88787 22.5292 4.01245 21.9074C4.13704 21.2856 3.61073 16.8376 4.19149 16.8868C4.77225 16.9361 7.81556 19.2105 9.49413 18.1456C11.1727 17.0807 8.88727 15.4728 8.88727 15.4728Z" fill="#0D3A78"/>
<path d="M9.72494 10.9201C9.72494 10.9201 8.5527 6.19965 7.98491 5.49525C7.41663 4.79032 6.23619 4.99805 5.95259 5.7734C5.66899 6.54874 6.543 10.7411 6.73516 11.0191C6.92781 11.2976 9.72494 10.9201 9.72494 10.9201Z" fill="#FFD556"/>
<path d="M15.3337 21.5054C15.3337 21.5054 15.9125 21.7004 16.279 21.3511C16.6455 21.0017 17.0078 21.315 17.0003 22.185C16.9936 23.0551 16.8141 23.6274 16.5422 23.828C16.2702 24.0286 15.4351 24.2754 15.3391 24.0463C15.2431 23.8173 15.9441 23.1897 15.9441 23.1897L15.3979 22.5315L15.3337 21.5054Z" fill="#0C3670"/>
<path d="M9.72295 15.2807C9.72295 15.2807 7.19973 21.9043 8.2987 24.1212C9.39781 26.3374 14.5032 23.7113 15.268 23.3367C16.0328 22.9621 16.5164 21.0656 15.0203 20.5043C13.5241 19.943 11.6413 21.1353 11.6413 21.1353C11.6413 21.1353 13.6248 15.7717 12.4184 15.1171C11.212 14.4625 9.72295 15.2807 9.72295 15.2807Z" fill="#0D3A78"/>
<path d="M15.0253 20.5056C13.5201 19.9391 11.6324 21.1237 11.6324 21.1237C11.6324 21.1237 13.607 15.7711 12.3926 15.1125C11.8783 14.8341 11.3148 14.8192 10.8354 14.8941C11.1805 16.0031 11.6795 17.7445 11.5866 18.2733C11.4471 19.0699 10.9117 21.3053 10.8518 21.5145C10.803 21.686 10.6787 24.3809 9.47656 24.9275C11.3993 25.295 14.681 23.6285 15.2831 23.3369C16.0509 22.9662 16.5305 21.0721 15.0253 20.5056Z" fill="#0C3670"/>
<path d="M4.18841 16.8901C4.76901 16.9394 7.81147 19.2132 9.48957 18.1486C9.72573 17.9986 9.88333 17.838 9.97963 17.6722C8.18907 17.6837 4.3623 14.7739 3.33503 15.1089C2.1776 15.4859 2.89678 20.4081 2.26635 20.9004C1.88204 21.2004 1.22544 21.2962 0.771484 21.3251C0.974234 22.1949 1.34249 22.828 1.89472 22.9786C4.11137 23.5825 3.88488 22.531 4.00943 21.9094C4.13412 21.287 3.60711 16.8408 4.18841 16.8901Z" fill="#0C3670"/>
<path d="M5.95357 5.77349C5.66997 6.54884 6.54398 10.7412 6.73615 11.0192C6.9288 11.2977 9.72544 10.9197 9.72544 10.9197C9.72544 10.9197 9.68055 10.7385 9.60413 10.4429C8.95476 9.61425 7.56916 7.80289 7.58609 7.4581C7.60842 7.00819 8.36574 6.55703 7.98641 5.49486C7.41761 4.79041 6.23717 4.99815 5.95357 5.77349Z" fill="#EAC34F"/>
<path d="M12.8044 15.6058C13.5323 11.9875 12.3306 9.96659 11.6819 9.49364C9.96894 8.24382 6.93769 9.39748 6.52126 10.9996C6.23975 12.0822 8.09382 13.8475 8.16532 15.9193C8.17741 16.2692 8.39671 16.5813 8.72313 16.6995C10.2629 17.2607 12.706 16.097 12.8044 15.6058Z" fill="#4179C5"/>
<path d="M12.8181 15.6066C13.5379 11.9908 12.3222 9.96536 11.6681 9.48999C11.0172 9.01682 10.1785 8.88397 9.36426 8.98865C9.87153 9.35146 10.5579 10.0594 10.6298 11.2654C10.6971 12.3977 10.4532 14.9101 10.2392 16.798C11.5089 16.628 12.7495 15.9525 12.8181 15.6066Z" fill="#0D3A78"/>
<path d="M9.97826 6.95807C9.97826 6.95807 9.87166 6.39004 9.35576 6.43848C8.62508 6.50623 8.54161 7.35346 8.72115 7.62215C8.97275 7.99736 9.21773 7.83338 9.44016 7.64106C9.66306 7.4482 9.97826 6.95807 9.97826 6.95807Z" fill="#4179C4"/>
<path d="M9.02148 7.35385C9.02148 7.35385 9.4429 6.56464 9.78054 6.41372C10.2417 6.20793 10.4804 6.61625 10.4256 6.83599C10.3708 7.05573 9.94756 7.52296 9.81232 7.55357C9.67661 7.58472 9.02148 7.35385 9.02148 7.35385Z" fill="#0C3670"/>
<path d="M9.04884 7.84766L8.87793 9.23816C8.91289 9.42232 9.97829 9.74335 10.2146 9.45522C10.2838 9.37088 10.2254 9.19935 10.1093 9.02368L9.43854 8.07477L9.04884 7.84766Z" fill="#FFD556"/>
<path d="M10.0294 7.22216C10.0294 7.22216 10.1627 7.05512 9.93329 6.81204C9.70392 6.56896 8.87361 7.38908 8.8547 7.66418C8.82621 8.07476 9.00087 8.30209 9.00087 8.30209C9.00087 8.30209 10.0405 7.69603 10.0294 7.22216Z" fill="#0D3A78"/>
<path d="M9.22563 7.36045L9.09024 8.12702C9.06517 8.38302 9.24376 8.61669 9.49405 8.65242C9.69388 8.68103 9.81866 8.66552 10.0607 8.60336C10.2624 8.55111 10.3401 8.33628 10.3028 8.06034C10.2547 7.70269 10.1107 7.3859 10.0244 7.22076C9.82798 6.84261 9.3497 6.86726 9.22563 7.36045Z" fill="#FFD556"/>
<path d="M9.08925 8.12661L9.22455 7.36061C9.23938 7.30034 9.26023 7.2475 9.28503 7.20117C9.29404 7.35016 9.33604 7.66804 9.38206 7.71677C9.50107 7.84175 9.47587 7.71587 9.71573 7.67816C9.86812 7.65394 10.089 7.69895 10.2297 7.73588C10.2594 7.83772 10.285 7.9465 10.3004 8.0605C10.3377 8.33623 10.2596 8.55144 10.0584 8.60311C9.81662 8.66524 9.69193 8.68073 9.4928 8.65264C9.24264 8.61591 9.06426 8.38345 9.08925 8.12661Z" fill="#0D3A78"/>
<path d="M9.72754 7.84094C9.72754 7.84094 9.90311 7.86204 10.1386 7.80078C10.1386 7.80078 10.1664 7.96015 10.0799 8.02791C9.99182 8.09625 9.80999 8.0248 9.72754 7.84094Z" fill="white"/>
<path d="M10.0828 8.32355C9.847 8.30573 9.72078 8.68474 9.26803 8.39943C9.1834 8.3466 9.1231 8.20044 9.09028 8.11328L9.08731 8.12999C9.06224 8.38569 9.24066 8.61907 9.49074 8.65473C9.69041 8.68328 9.81509 8.66778 10.0569 8.60566C10.1801 8.57422 10.2564 8.48171 10.2895 8.35172C10.2479 8.36327 10.1548 8.32898 10.0828 8.32355Z" fill="#0C3670"/>
<path d="M9.28747 7.65943C9.27141 7.61371 9.26179 7.5661 9.2552 7.51832C9.24281 7.42739 9.20349 7.29442 9.08106 7.37809C8.9025 7.49995 8.95969 7.94352 9.18449 7.95218C9.35104 7.95826 9.32815 7.77421 9.28747 7.65943Z" fill="#FFD556"/>
<path d="M8.01451 6.70685C8.22833 6.50586 8.32666 6.2061 8.27997 5.91044C8.07578 4.61308 7.39344 0.66398 6.68935 0.833413C5.28018 1.17222 5.60972 6.06349 5.95578 6.69531C6.54331 7.76875 7.48233 7.20713 8.01451 6.70685Z" fill="#FFD556"/>
<path d="M10.7565 9.982C9.79149 10.242 8.33079 12.1901 7.64025 13.2741C7.41079 13.6344 3.97618 13.3082 1.65045 13.5248C1.25775 13.561 1.0396 13.7171 1.20547 14.0181C1.91541 15.3083 5.34701 16.3101 7.8796 15.7715C9.57311 15.4114 12.3864 12.6304 12.4541 11.249C12.499 10.3336 12.0335 9.63822 10.7565 9.982Z" fill="#FFD556"/>
<path d="M1.23154 13.7168C1.23154 13.7168 0.412584 14.2021 0.242191 14.3504C0.0717987 14.4987 -0.250239 15.3205 0.339821 15.4331C0.577857 15.4784 0.600467 14.9109 0.954528 14.9067C1.30859 14.9024 1.74068 14.5229 1.77763 14.2205C1.81452 13.9194 1.23154 13.7168 1.23154 13.7168Z" fill="#FFD556"/>
<path d="M12.4539 11.246C12.4726 10.8656 12.4029 10.5228 12.2236 10.2773C11.9702 10.7447 10.9424 11.383 10.4144 11.9863C9.78453 12.7057 9.68815 13.6594 9.52848 14.1259C9.36881 14.5924 7.79238 15.1547 7.24467 14.8263C6.69749 14.4974 6.29038 15.0307 5.3708 14.9234C4.45121 14.8162 3.42857 14.4805 2.62356 14.2872C2.09806 14.1615 1.72456 14.3108 1.52832 14.4303C2.65467 15.5096 5.62027 16.2519 7.8763 15.7718C9.5718 15.4105 12.3861 12.6283 12.4539 11.246Z" fill="#EAC34F"/>
<path d="M6.56548 0.876953C5.29903 1.46378 5.6192 6.08246 5.95492 6.69504C6.39754 7.50257 7.03887 7.38355 7.5559 7.06295C7.43859 6.89948 7.00974 6.28138 6.88942 5.85203C6.75079 5.35346 6.92226 3.06221 6.81557 2.18591C6.75954 1.72745 6.70515 1.2298 6.56548 0.876953Z" fill="#EAC34F"/>
<path d="M6.546 0.987386C6.546 0.987386 7.49325 1.03284 7.71593 1.00148C7.93862 0.97012 8.65187 0.458503 8.22019 0.0379188C8.04602 -0.13145 7.72007 0.332802 7.42136 0.140767C7.12266 -0.0512682 6.5565 0.028681 6.36235 0.262064C6.1676 0.495822 6.546 0.987386 6.546 0.987386Z" fill="#FFD556"/>
</svg>
