<svg width="122" height="62" viewBox="0 0 122 62" fill="none" xmlns="http://www.w3.org/2000/svg">
<g filter="url(#filter0_d)">
<path d="M47.707 4C49.6367 4 51.4629 4.61279 52.9688 5.74121C53.6094 4.70068 54.752 4.01611 56.043 4.01611H59.1934C60.3242 4.01611 61.2949 4.52881 61.9473 5.29834C62.6016 4.52002 63.5801 4.01611 64.7031 4.01611H71.002C73.0566 4.01611 74.623 5.7002 74.623 7.66602V8.21582C75.0352 8.08057 75.418 8.04053 75.7246 8.04053C76.1602 8.04053 76.5898 8.12012 76.9941 8.27197C77.3008 8.38721 77.5918 8.54395 77.8594 8.73877C78.4004 9.13525 78.8418 9.68994 79.1016 10.377L80.3926 13.6753L80.4492 13.6748H83.5977C85.6543 13.6748 87.2188 15.3594 87.2188 17.3247V54.3501C87.2188 56.3159 85.6543 58 83.5977 58H37.9355C36.7656 58 35.7754 57.4604 35.1289 56.6528C34.6133 56.0098 34.3145 55.1968 34.3145 54.3501V17.3247C34.3145 17.1895 34.3223 17.0557 34.3359 16.9233C34.3496 16.8022 34.3691 16.6826 34.3926 16.5649C34.4941 16.0859 34.6895 15.6372 34.9609 15.2427C35.6055 14.3042 36.6797 13.6748 37.9355 13.6748H39.0859L39.0684 13.5381L39.0566 13.4292L39.0508 13.3203C38.9883 12.0239 39.2266 10.7202 39.7129 9.53564C39.8086 9.28027 39.916 9.08789 39.9863 8.97363C40.1348 8.729 40.3105 8.50439 40.5098 8.30176C41.002 7.77344 41.9961 7.33203 42.3516 7.28711C42.5801 6.17432 43.3125 5.15625 44.5215 4.66113C45.5254 4.2417 46.5684 4.02637 47.6309 4.00098L47.707 4Z" fill="white"/>
<path d="M4 24.0708C4 24.1187 4 24.167 4 24.2148C4.01172 24.8057 4.16602 25.395 4.46484 25.9282L9.76562 35.4121L4.46484 44.8955C4.27539 45.2344 4.14258 45.5957 4.07031 45.9658C4.02734 46.1777 4.00391 46.3921 4 46.6064C4 46.6602 4 46.7139 4 46.7676C4.00391 46.9204 4.01758 47.0732 4.03906 47.2246C4.05273 47.3179 4.07031 47.4106 4.0918 47.5024C4.11914 47.6177 4.15234 47.7319 4.18945 47.8447C4.26953 48.0825 4.375 48.314 4.50391 48.5347C5.16016 49.6514 6.35156 50.3237 7.62305 50.3237H13.9219C14.3809 50.3237 14.8301 50.2363 15.2461 50.0718C15.6621 50.2363 16.1113 50.3237 16.5703 50.3237H22.8691C24.1699 50.3237 25.3828 49.6211 26.0273 48.4653L32.3262 37.1968C32.623 36.665 32.7773 36.0767 32.7891 35.4863C32.8027 34.8462 32.6484 34.2036 32.3262 33.627L26.0273 22.3584C25.3828 21.2026 24.1699 20.5 22.8691 20.5H16.5703C16.1113 20.5 15.6621 20.5874 15.2461 20.752C14.8301 20.5874 14.3809 20.5 13.9219 20.5H7.62305C6.35156 20.5 5.16016 21.1729 4.50391 22.2891C4.17969 22.8389 4.01172 23.4531 4 24.0708Z" fill="white"/>
<path d="M118 46.7529C118 46.7051 118 46.6572 118 46.6094C117.988 46.0186 117.834 45.4287 117.535 44.8955L112.234 35.4121L117.535 25.9282C117.834 25.395 117.988 24.8057 118 24.2148C118 24.167 118 24.1187 118 24.0708C117.988 23.4531 117.82 22.8389 117.496 22.2891C116.84 21.1729 115.648 20.5 114.377 20.5H108.078C107.619 20.5 107.168 20.5879 106.752 20.7524C106.336 20.5894 105.887 20.5 105.43 20.5H99.1309C97.8301 20.5 96.6172 21.2026 95.9727 22.3584L89.6738 33.627C89.0547 34.7354 89.0547 36.0884 89.6738 37.1968L95.9727 48.4653C96.6172 49.6211 97.8301 50.3237 99.1309 50.3237H105.43C105.887 50.3237 106.332 50.2324 106.748 50.0693C107.166 50.2354 107.617 50.3237 108.078 50.3237H114.377C115.648 50.3237 116.84 49.6514 117.496 48.5347C117.82 47.9849 117.988 47.3706 118 46.7529Z" fill="white"/>
</g>
<path fill-rule="evenodd" clip-rule="evenodd" d="M51.6073 8.6975C50.5075 7.60497 49.0512 7 47.4661 7L47.4603 7.00007C46.7501 7.01685 46.0633 7.15955 45.4015 7.43664C45.0629 7.57095 44.9183 7.95072 45.0418 8.27698L45.0434 8.2813L45.0452 8.28556C45.0771 8.36122 45.1162 8.43093 45.1839 8.49981L47.8088 11.1676L45.9212 13.0929L43.2737 10.4098C43.1507 10.2743 42.98 10.2115 42.8172 10.2115C42.6444 10.2115 42.4873 10.2812 42.3645 10.4059C42.2988 10.4727 42.2612 10.5392 42.2318 10.599L42.2288 10.605L42.2262 10.6112C41.8796 11.4248 41.7137 12.3153 41.7552 13.1754L41.7556 13.1838L41.7566 13.1921C41.8957 14.3902 42.337 15.5294 43.054 16.5345L43.1222 16.65L43.1247 16.6539C43.7105 17.5662 44.0463 18.6352 44.1074 19.7291L44.1166 19.8945H41.4482V17.3248C41.4482 16.9658 41.1666 16.6749 40.8056 16.6749H37.6378C37.2769 16.6749 36.9952 16.9658 36.9952 17.3248V54.3501C36.9952 54.6978 37.2737 55 37.6378 55H83.5717C83.9326 55 84.2143 54.7091 84.2143 54.3501V17.3248C84.2143 16.9658 83.9326 16.6749 83.5717 16.6749H80.4038C80.0429 16.6749 79.7613 16.9658 79.7613 17.3248V19.8945H77.8786V15.715C77.8786 15.6468 77.8684 15.5538 77.8266 15.4633L76.2481 11.453L76.2468 11.4493C76.1531 11.1957 75.9154 11.0406 75.6521 11.0406C75.5784 11.0406 75.4948 11.0529 75.4091 11.0941C75.2398 11.1641 75.1196 11.3053 75.0597 11.4515L75.0584 11.4547L73.4777 15.4711C73.4375 15.5573 73.4256 15.6411 73.4256 15.715V19.8945H71.5429V7.66597C71.5429 7.30697 71.2612 7.0161 70.9003 7.0161H64.5646C64.2036 7.0161 63.922 7.30697 63.922 7.66597V19.8945H59.6634V13.4046L60.427 11.0922C60.4671 10.9699 60.4652 10.8429 60.4418 10.7359L59.6483 7.51008L59.647 7.50506C59.5723 7.22661 59.3212 7.0161 59.0208 7.0161H55.853C55.5555 7.0161 55.2986 7.2247 55.2329 7.51222L55.2322 7.51522L54.4433 10.722C54.403 10.8544 54.4216 10.9832 54.44 11.0674L54.4427 11.0799L55.2104 13.4046V19.8945H50.9613L50.9675 19.7322C50.9978 18.8848 51.2175 18.0437 51.6045 17.2791C51.7682 16.9781 51.9317 16.6934 52.0949 16.4247L52.0958 16.4233L52.1455 16.344C52.8673 15.3327 53.2781 14.1455 53.3275 12.9077L53.3277 12.9034L53.3277 12.8991C53.336 11.3357 52.7079 9.80765 51.6086 8.69883L51.6073 8.6975ZM47.181 8.33028C47.2849 8.32272 47.3794 8.31584 47.5373 8.31584C49.981 8.31584 52.0037 10.3365 52.0346 12.8268V12.9154C51.9806 13.934 51.626 14.8986 51.0229 15.7031L51.0153 15.7132L51.0088 15.724C50.8345 16.0139 50.6492 16.3249 50.4714 16.6616L50.4703 16.6637C49.9373 17.6972 49.6586 18.8633 49.6666 20.0299V32.7729H48.1324H46.8472H45.408L45.4081 19.9568L45.408 19.9539C45.3917 18.5484 44.9907 17.1752 44.229 15.9845L44.1534 15.865L44.1484 15.8581C43.5733 15.0737 43.1928 14.1417 43.039 13.1296C43.0254 12.8864 43.0399 12.6324 43.0699 12.3888L43.0701 12.3874L43.1053 12.0859L44.9067 13.9168C45.174 14.1884 45.5378 14.3445 45.9217 14.3445C46.3057 14.3445 46.6695 14.1884 46.9367 13.9168L48.6157 12.2104L48.6171 12.2089C49.1685 11.6388 49.1706 10.7204 48.6157 10.1564L46.8499 8.36177L47.1699 8.33109L47.181 8.33028ZM55.7292 10.8598L56.355 8.31584H58.5188L59.1446 10.8598L58.4162 13.0885C58.3899 13.1587 58.3782 13.235 58.3782 13.3003V26.3337H56.4955V13.3003C56.4955 13.235 56.4839 13.1587 56.4576 13.0885L55.7292 10.8598ZM65.2071 10.2357V8.31584H70.2577V32.7729H65.2071V30.853H67.583V29.5533H65.2071V27.6334H67.583V26.3337H65.2071V24.4138H67.583V23.1141H65.2071V21.1942H67.583V19.8945H65.2071V17.9746H67.583V16.6749H65.2071V14.755H67.583V13.4553H65.2071V11.5354H67.583V10.2357H65.2071ZM74.7107 15.8425L75.1387 14.755H76.1654L76.5934 15.8425V32.7729H74.7107V15.8425ZM38.2804 53.7003V17.9746H40.1631V53.7003H38.2804ZM81.0464 53.7003V17.9746H82.9291V53.7003H81.0464ZM41.4482 23.1141V21.1942H44.1229V23.1141H41.4482ZM50.9518 23.1141V21.1942H55.2104V23.1141H50.9518ZM59.6634 23.1141V21.1942H63.922V23.1141H59.6634ZM71.5429 23.1141V21.1942H73.4256V23.1141H71.5429ZM77.8786 23.1141V21.1942H79.7613V23.1141H77.8786ZM41.4482 32.7729V24.4138H44.1229V32.7729H41.4482ZM50.9518 32.7729V24.4138H55.2104V26.3337H53.4771C53.1161 26.3337 52.8345 26.6245 52.8345 26.9836V30.2032C52.8345 30.5622 53.1161 30.853 53.4771 30.853H54.0228L53.0783 32.7729H50.9518ZM59.6634 26.3337V24.4138H63.922V32.7729H61.7955L60.851 30.853H61.3967C61.7576 30.853 62.0393 30.5621 62.0393 30.2032V26.9836C62.0393 26.6246 61.7576 26.3337 61.3967 26.3337H59.6634ZM71.5429 32.7729V24.4138H73.4256V32.7729H71.5429ZM77.8786 32.7729V24.4138H79.7613V32.7729H77.8786ZM54.1197 29.5533V27.6334H60.7541V29.5533H59.8128C59.4519 29.5533 59.1702 29.8441 59.1702 30.2032C59.1702 30.3111 59.1974 30.4011 59.2293 30.4766L59.2321 30.4833L60.3585 32.7729H54.5169L55.649 30.4926L55.6517 30.4864C55.7377 30.2865 55.7261 30.0581 55.6137 29.8678L55.6107 29.8627L55.6075 29.8579C55.4871 29.6743 55.2863 29.5533 55.061 29.5533H54.1197ZM41.4482 53.7003V34.0726H79.7613V53.7003H41.4482Z" fill="#2463B8"/>
<path fill-rule="evenodd" clip-rule="evenodd" d="M99.0152 23.5062C98.7825 23.5062 98.5667 23.6311 98.452 23.835L92.1163 35.1036C92.0065 35.299 92.0065 35.5372 92.1163 35.7325L98.452 47.0011C98.5667 47.205 98.7825 47.33 99.0152 47.33H105.351C105.579 47.33 105.79 47.2103 105.907 47.0134C106.024 46.8162 106.026 46.572 105.914 46.3722L99.7551 35.4181L105.914 24.4639C106.026 24.2642 106.024 24.0199 105.907 23.8227C105.79 23.6258 105.579 23.5062 105.351 23.5062H99.0152ZM93.7811 34.7748L99.3934 24.7928H104.249L98.6369 34.7748H93.7811ZM99.3934 46.0434L93.7811 36.0614H98.6369L104.249 46.0434H99.3934Z" fill="#2463B8"/>
<path fill-rule="evenodd" clip-rule="evenodd" d="M108.519 23.5062C108.286 23.5062 108.07 23.6311 107.956 23.835L101.62 35.1036C101.51 35.299 101.51 35.5372 101.62 35.7325L107.956 47.0011C108.07 47.205 108.286 47.33 108.519 47.33H114.854C115.082 47.33 115.294 47.2103 115.411 47.0134C115.527 46.8162 115.53 46.572 115.418 46.3722L109.259 35.4181L115.418 24.464C115.53 24.2642 115.527 24.02 115.411 23.8227C115.294 23.6258 115.082 23.5062 114.854 23.5062H108.519ZM103.285 34.7748L108.897 24.7928H113.753L108.141 34.7748H103.285ZM108.897 46.0434L103.285 36.0614H108.141L113.753 46.0434H108.897Z" fill="#2463B8"/>
<path fill-rule="evenodd" clip-rule="evenodd" d="M22.9848 23.5063C23.2175 23.5063 23.4333 23.6312 23.548 23.8351L29.8837 35.1037C29.9935 35.2991 29.9935 35.5373 29.8837 35.7326L23.548 47.0012C23.4333 47.2051 23.2175 47.3301 22.9848 47.3301H16.6491C16.4215 47.3301 16.2095 47.2104 16.093 47.0135C15.9764 46.8163 15.9736 46.5721 16.0859 46.3723L22.2449 35.4182L16.0859 24.464C15.9736 24.2642 15.9764 24.02 16.093 23.8228C16.2095 23.6259 16.4215 23.5063 16.6491 23.5063H22.9848ZM28.2189 34.7749L22.6066 24.7929H17.7507L23.3631 34.7749H28.2189ZM22.6066 46.0435L28.2189 36.0615H23.3631L17.7507 46.0435H22.6066Z" fill="#2463B8"/>
<path fill-rule="evenodd" clip-rule="evenodd" d="M13.4812 23.5063C13.7139 23.5063 13.9297 23.6312 14.0444 23.8351L20.3801 35.1037C20.4899 35.2991 20.4899 35.5373 20.3801 35.7326L14.0444 47.0012C13.9297 47.2051 13.7139 47.3301 13.4812 47.3301H7.14552C6.91789 47.3301 6.70598 47.2104 6.58947 47.0135C6.47278 46.8163 6.47004 46.5721 6.58238 46.3723L12.7413 35.4182L6.58239 24.464C6.47004 24.2643 6.47278 24.02 6.58947 23.8228C6.70598 23.6259 6.91789 23.5063 7.14552 23.5063H13.4812ZM18.7153 34.7749L13.103 24.7929H8.24716L13.8595 34.7749H18.7153ZM13.103 46.0435L18.7153 36.0615H13.8595L8.24716 46.0435H13.103Z" fill="#2463B8"/>
<defs>
<filter id="filter0_d" x="0" y="0" width="122" height="62" filterUnits="userSpaceOnUse" color-interpolation-filters="sRGB">
<feFlood flood-opacity="0" result="BackgroundImageFix"/>
<feColorMatrix in="SourceAlpha" type="matrix" values="0 0 0 0 0 0 0 0 0 0 0 0 0 0 0 0 0 0 127 0"/>
<feOffset/>
<feGaussianBlur stdDeviation="2"/>
<feColorMatrix type="matrix" values="0 0 0 0 0.141176 0 0 0 0 0.388235 0 0 0 0 0.721569 0 0 0 0.2 0"/>
<feBlend mode="normal" in2="BackgroundImageFix" result="effect1_dropShadow"/>
<feBlend mode="normal" in="SourceGraphic" in2="effect1_dropShadow" result="shape"/>
</filter>
</defs>
</svg>
