<svg width="99" height="60" viewBox="0 0 99 60" fill="none" xmlns="http://www.w3.org/2000/svg">
<g filter="url(#filter0_d)">
<path d="M49.2872 4.08654C49.4052 3.97115 49.5948 3.97115 49.7128 4.08654L62.9488 17.0339H80.9969C81.1642 17.0339 81.2998 17.1682 81.2998 17.3339V21.7722H90.6883C90.7803 21.7722 90.8673 21.8136 90.9248 21.8848C90.9822 21.9559 91.0039 22.0491 90.9837 22.138L88.5759 32.7372L90.9837 43.3363C91.0039 43.4252 90.9822 43.5184 90.9248 43.5896C90.8673 43.6607 90.7803 43.7022 90.6883 43.7022H68.8827C68.7155 43.7022 68.5799 43.5679 68.5799 43.4022C68.5799 43.279 68.6558 43.1677 68.7715 43.1224L79.3997 38.9639H62.9511L49.7128 51.9135C49.5948 52.0288 49.4052 52.0288 49.2872 51.9135L36.0489 38.9639H19.6003L30.2285 43.1224C30.3442 43.1677 30.4201 43.2783 30.4201 43.4014C30.4201 43.5671 30.2845 43.7022 30.1173 43.7022H8.31173C8.21973 43.7022 8.13271 43.6607 8.07524 43.5896C8.01776 43.5184 7.99607 43.4252 8.01626 43.3363L10.4241 32.7372L8.01626 22.138C7.99607 22.0491 8.01776 21.9559 8.07524 21.8848C8.13271 21.8136 8.21973 21.7722 8.31173 21.7722H17.7002V17.3339C17.7002 17.1682 17.8358 17.0339 18.0031 17.0339H36.0512L49.2872 4.08654Z" fill="white"/>
<path fill-rule="evenodd" clip-rule="evenodd" d="M46.4808 1.23016C48.1576 -0.410055 50.8424 -0.410055 52.5192 1.23016L49.7128 4.08654C49.5948 3.97115 49.4052 3.97115 49.2872 4.08654L36.0512 17.0339H18.0031C17.8358 17.0339 17.7002 17.1682 17.7002 17.3339V21.7722H8.31173C8.21973 21.7722 8.13271 21.8136 8.07524 21.8848C8.01776 21.9559 7.99607 22.0491 8.01626 22.138L10.4241 32.7372L8.01626 43.3363C7.99607 43.4252 8.01776 43.5184 8.07524 43.5896C8.13271 43.6607 8.21973 43.7022 8.31173 43.7022H30.1173C30.2845 43.7022 30.4201 43.5671 30.4201 43.4014C30.4201 43.2783 30.3442 43.1677 30.2285 43.1224L19.6003 38.9639H36.0489L49.2872 51.9135C49.4052 52.0288 49.5948 52.0288 49.7128 51.9135L62.9511 38.9639H79.3997L68.7715 43.1224C68.6558 43.1677 68.5799 43.279 68.5799 43.4022C68.5799 43.5679 68.7155 43.7022 68.8827 43.7022H90.6883C90.7803 43.7022 90.8673 43.6607 90.9248 43.5896C90.9822 43.5184 91.0039 43.4252 90.9837 43.3363L88.5759 32.7372L90.9837 22.138C91.0039 22.0491 90.9822 21.9559 90.9248 21.8848C90.8673 21.8136 90.7803 21.7722 90.6883 21.7722H81.2998V17.3339C81.2998 17.1682 81.1642 17.0339 80.9969 17.0339H62.9488L49.7128 4.08654L52.5192 1.23016L64.586 13.0339H80.9969C83.3506 13.0339 85.3086 14.9316 85.3086 17.3339V17.7722H90.6883C91.9866 17.7722 93.2238 18.3565 94.0463 19.3751C94.8701 20.3951 95.1852 21.7378 94.8934 23.0223C94.8934 23.0223 94.8934 23.0223 94.8934 23.0223L92.6864 32.7372L94.8933 42.4519C94.8933 42.452 94.8933 42.4519 94.8933 42.4519C95.1852 43.7365 94.87 45.0792 94.0463 46.0993C93.2239 47.1178 91.9867 47.7022 90.6883 47.7022H68.8827C66.5289 47.7022 64.571 45.8043 64.571 43.4022C64.571 43.2547 64.5786 43.1084 64.5934 42.9639H64.5884L52.5192 54.7698C50.8424 56.4101 48.1576 56.4101 46.4808 54.7698L34.4116 42.9639H34.4067C34.4214 43.1081 34.429 43.2541 34.429 43.4014C34.429 45.791 32.4838 47.7022 30.1173 47.7022H8.31173C7.01307 47.7022 5.7761 47.1177 4.95375 46.0994C4.1299 45.0792 3.81483 43.7365 4.10664 42.452L6.31363 32.7372L4.10664 23.0223C3.81483 21.7378 4.12989 20.3951 4.95375 19.375C5.77617 18.3566 7.01318 17.7722 8.31173 17.7722H13.6914V17.3339C13.6914 14.9316 15.6494 13.0339 18.0031 13.0339H34.414L46.4808 1.23016Z" fill="white"/>
</g>
<path d="M52.0606 22.0198C51.8792 22.2151 51.6346 22.3127 51.327 22.3127C51.0982 22.3127 50.8655 22.2542 50.6289 22.137C50.4001 22.0198 50.2108 21.8479 50.0609 21.6213C49.911 21.3948 49.8361 21.1331 49.8361 20.8362C49.8361 20.4768 49.9347 20.2034 50.1319 20.0159C50.337 19.8284 50.5973 19.7346 50.9128 19.7346C51.2678 19.7346 51.5794 19.8518 51.8476 20.0862C52.1237 20.3206 52.2854 20.6487 52.3328 21.0706C52.3328 21.5081 52.2421 21.8245 52.0606 22.0198Z" fill="#2463B8"/>
<path d="M50.6525 33.6916C50.9128 33.4573 51.1968 33.1096 51.5045 32.6487L52.179 31.6409L52.9481 32.1682L52.2263 33.2112C51.7845 33.844 51.3152 34.3557 50.8182 34.7463C50.3212 35.1291 49.7572 35.3205 49.1261 35.3205C48.7474 35.3205 48.4161 35.2268 48.1321 35.0393C47.856 34.844 47.6391 34.5823 47.4813 34.2541C47.3314 33.926 47.2565 33.5705 47.2565 33.1877C47.2565 32.8284 47.3038 32.4573 47.3985 32.0744C47.4932 31.6916 47.6312 31.2541 47.8126 30.7619L49.0078 27.4338C49.0235 27.3713 49.0669 27.2385 49.1379 27.0354C49.2089 26.8245 49.2444 26.6291 49.2444 26.4495C49.2444 26.2073 49.1853 26.0159 49.0669 25.8752C48.9565 25.7268 48.7948 25.6526 48.5818 25.6526C48.3688 25.6526 48.0966 25.8166 47.7653 26.1448C47.4419 26.4729 46.9449 27.094 46.2744 28.008L45.6591 27.551C46.1639 26.8791 46.586 26.3518 46.9252 25.969C47.2644 25.5784 47.6273 25.262 48.0138 25.0198C48.4003 24.7776 48.8145 24.6565 49.2562 24.6565C50.408 24.6565 50.9838 25.3127 50.9838 26.6252C50.9838 27.1799 50.8892 27.7502 50.6999 28.3362L49.4574 32.1213C49.4101 32.2385 49.3667 32.3987 49.3272 32.6018C49.2878 32.7971 49.2681 32.9924 49.2681 33.1877C49.2681 33.4143 49.3115 33.6135 49.3982 33.7854C49.4929 33.9494 49.6625 34.0315 49.9071 34.0315C50.1437 34.0315 50.3922 33.9182 50.6525 33.6916Z" fill="#2463B8"/>
<path fill-rule="evenodd" clip-rule="evenodd" d="M49.2872 4.08654C49.4051 3.97115 49.5949 3.97115 49.7129 4.08654L62.9517 17.0339H81.0037C81.171 17.0339 81.3066 17.1682 81.3066 17.3339V21.7722H90.6971C90.7891 21.7722 90.8761 21.8136 90.9336 21.8848C90.9911 21.9559 91.0128 22.0491 90.9926 22.138L88.5842 32.7372L90.9926 43.3363C91.0128 43.4252 90.9911 43.5184 90.9336 43.5896C90.8761 43.6608 90.7891 43.7022 90.6971 43.7022H68.8869C68.7196 43.7022 68.5839 43.5679 68.5839 43.4022V43.4014C68.5839 43.2783 68.6599 43.1677 68.7756 43.1224L79.4061 38.9639H62.954L49.7129 51.9135C49.5949 52.0288 49.4051 52.0288 49.2872 51.9135L36.046 38.9639H19.5939L30.2244 43.1224C30.3401 43.1677 30.4161 43.2783 30.4161 43.4014V43.4022C30.4161 43.5679 30.2804 43.7022 30.1131 43.7022H8.30292C8.2109 43.7022 8.12386 43.6608 8.06638 43.5896C8.00889 43.5184 7.98719 43.4252 8.00739 43.3363L10.4158 32.7372L8.00739 22.138C7.98719 22.0491 8.00889 21.9559 8.06638 21.8848C8.12386 21.8136 8.2109 21.7722 8.30292 21.7722H17.6934V17.3339C17.6934 17.1682 17.8291 17.0339 17.9964 17.0339H36.0483L49.2872 4.08654ZM18.2993 38.3639H80.7007V17.6339H18.2993V38.3639ZM17.6934 22.3722H8.68158L11.0218 32.6713C11.0317 32.7147 11.0317 32.7597 11.0218 32.803L8.68158 43.1022H28.5236L17.9208 38.9545C17.7901 38.9212 17.6934 38.8037 17.6934 38.6639V22.3722ZM81.3066 22.3722H90.3184L87.9782 32.6713C87.9683 32.7147 87.9683 32.7597 87.9782 32.803L90.3184 43.1022H70.4764L81.0792 38.9545C81.2099 38.9212 81.3066 38.8037 81.3066 38.6639V22.3722ZM49.5 4.72162L62.0894 17.0339H36.9106L49.5 4.72162ZM49.5 51.2784L36.9082 38.9639H62.0918L49.5 51.2784Z" fill="#2463B8"/>
<defs>
<filter id="filter0_d" x="0" y="-4" width="99" height="64" filterUnits="userSpaceOnUse" color-interpolation-filters="sRGB">
<feFlood flood-opacity="0" result="BackgroundImageFix"/>
<feColorMatrix in="SourceAlpha" type="matrix" values="0 0 0 0 0 0 0 0 0 0 0 0 0 0 0 0 0 0 127 0"/>
<feOffset/>
<feGaussianBlur stdDeviation="2"/>
<feColorMatrix type="matrix" values="0 0 0 0 0.141176 0 0 0 0 0.388235 0 0 0 0 0.721569 0 0 0 0.2 0"/>
<feBlend mode="normal" in2="BackgroundImageFix" result="effect1_dropShadow"/>
<feBlend mode="normal" in="SourceGraphic" in2="effect1_dropShadow" result="shape"/>
</filter>
</defs>
</svg>
