<svg width="80" height="62" viewBox="0 0 80 62" fill="none" xmlns="http://www.w3.org/2000/svg">
<g filter="url(#filter0_d)">
<path d="M71.9116 32.317L71.8442 32.4494V33.5611C71.8442 35.592 71.2423 37.5292 70.131 39.1734L70.8656 39.3821C73.8688 40.2355 75.9655 42.9841 75.9998 46.1035L76 46.12V54.0598C76 56.2512 74.2179 58 72.0546 58L7.94539 57.9902C5.78215 57.9902 4 56.2414 4 54.05V46.969C4 44.9339 4.87259 43.0587 6.32332 41.7544C5.87323 41.2266 5.61247 40.7997 5.49374 40.5871L5.46185 40.53L5.43248 40.4716C4.8774 39.3675 4.86626 38.0729 5.40275 36.9647L5.41622 36.9369L5.43027 36.9094C5.52534 36.7229 5.6801 36.1996 5.78946 35.2081C5.89147 34.2833 5.92601 33.2625 5.96135 32.2183L5.9619 32.202L5.9625 32.1881C5.96917 32.0333 5.97558 31.8732 5.98209 31.7108L5.98209 31.7108C6.00211 31.2108 6.02307 30.6877 6.05553 30.2195L6.05632 30.2085C6.49445 24.2107 11.1773 19.3862 17.2319 19.3862C20.6524 19.3862 23.6417 20.9273 25.6709 23.3529C25.0121 21.6983 24.6804 19.9584 24.6804 18.1847V16.1377C24.6804 9.41317 30.1836 4 36.8881 4H51.3644C53.5276 4 55.3098 5.74879 55.3098 7.94022V18.1847C55.3098 18.9894 55.24 19.7846 55.1039 20.5656C56.4383 19.8021 57.983 19.3667 59.6267 19.3667H68.9329C71.0961 19.3667 72.8783 21.1154 72.8783 23.3069V28.243C72.8783 29.6355 72.559 31.0444 71.9121 32.3161L71.9116 32.317Z" fill="white"/>
</g>
<path d="M58.5927 29.3693C58.6321 29.3693 62.5318 29.3791 64.3733 30.2997C64.5014 30.3683 64.6491 30.3977 64.7968 30.3977C65.1612 30.3977 65.4763 30.2018 65.6437 29.8786C65.752 29.6533 65.7717 29.3987 65.6929 29.1636C65.6142 28.9286 65.4467 28.7327 65.2202 28.625C63.4279 27.7337 60.2176 27.4987 58.5927 27.4987C58.0707 27.4987 57.6473 27.9198 57.6473 28.4389C57.6473 28.958 58.0707 29.3693 58.5927 29.3693Z" fill="#2463B8"/>
<path d="M67.8988 46.969C67.3769 46.969 66.9534 47.3901 66.9534 47.9092V54.0598C66.9534 54.5789 67.3769 55 67.8988 55C68.4208 55 68.8442 54.5789 68.8442 54.0598V47.9092C68.8442 47.3901 68.4208 46.969 67.8988 46.969Z" fill="#2463B8"/>
<path d="M12.0815 48.2324C11.5596 48.2324 11.1361 48.6535 11.1361 49.1726V54.05C11.1361 54.5691 11.5596 54.9902 12.0815 54.9902C12.6034 54.9902 13.0269 54.5691 13.0269 54.05V49.1726C13.0269 48.6535 12.6034 48.2324 12.0815 48.2324Z" fill="#2463B8"/>
<path d="M70.0457 42.2679L66.0475 41.1318C65.8702 41.0828 65.7422 40.9065 65.7422 40.7303V39.3983L65.752 39.3885C66.077 39.1632 66.3921 38.9086 66.6777 38.6442C68.0761 37.2926 68.8442 35.4905 68.8442 33.5611V31.7296L69.2381 30.9559C69.6616 30.1234 69.8782 29.1832 69.8782 28.243V23.3069C69.8782 22.7878 69.4548 22.3667 68.9329 22.3667H59.6267C56.2587 22.3667 53.5112 25.0894 53.5112 28.4879C53.5112 29.2714 53.6983 30.0451 54.043 30.7405L54.5354 31.7296V33.2967C54.5354 35.6864 55.6876 37.939 57.6276 39.3297L57.6374 40.7303C57.6374 40.9457 57.6374 41.0437 56.8201 41.2787L54.8603 41.8272L49.1978 39.79V39.7802C49.2175 39.5158 49.1289 39.2514 48.9418 39.0555L47.1397 37.1751V34.0116L47.1495 34.0018C47.3662 33.8255 47.5533 33.6688 47.7108 33.5219C49.9758 31.4162 51.2757 28.4389 51.2757 25.3636V22.8368C51.9552 21.3579 52.3098 19.7909 52.3098 18.1847V7.94022C52.3098 7.42114 51.8863 7 51.3644 7H36.8881C31.8165 7 27.6804 11.0939 27.6804 16.1377V18.1847C27.6804 19.7909 28.0251 21.3579 28.7144 22.8368V25.011C28.7144 28.4781 30.2211 31.7296 32.8406 33.9333L32.8505 37.1849L31.0483 39.0653C30.8612 39.2612 30.7726 39.5158 30.7923 39.7802V39.7998L24.8245 41.9545C24.4011 42.1112 23.9973 42.3169 23.6329 42.5715L23.6231 42.5813L22.6285 42.0916L22.6679 42.072C25.4548 40.8674 26.3214 39.1828 26.3608 39.1143C26.4888 38.8498 26.4888 38.5364 26.3608 38.272C25.6616 36.8812 25.573 34.3544 25.504 32.3173C25.4843 31.6415 25.4646 30.9951 25.4154 30.4271C25.0904 25.8435 21.5649 22.3862 17.2319 22.3862C12.8988 22.3862 9.38317 25.8435 9.04834 30.4271C9.00895 30.9951 8.98926 31.6317 8.95971 32.3173C8.89078 34.3544 8.812 36.8812 8.10295 38.272C7.97493 38.5364 7.97493 38.8498 8.1128 39.1241C8.21128 39.3003 9.15667 40.9261 11.8057 42.0622L11.8451 42.0818L9.20591 43.3844C7.85676 44.07 7 45.4411 7 46.969V54.05C7 54.5691 7.42346 54.9902 7.94539 54.9902C8.46732 54.9902 8.89078 54.5691 8.89078 54.05V46.969C8.89078 46.1561 9.34378 45.4215 10.0824 45.0592L13.3321 43.453L14.4646 44.5205C15.9714 45.9406 18.5219 45.9504 20.0385 44.5205L21.171 43.453L22.2641 43.9916L22.2543 44.0112C21.752 44.8143 21.4763 45.735 21.4763 46.6752V54.05C21.4763 54.5691 21.8997 54.9902 22.4217 54.9902C22.9436 54.9902 23.3671 54.5691 23.3671 54.05V46.6752C23.3671 45.353 24.214 44.1581 25.4646 43.6978L31.7574 41.4256L34.3769 45.3236C34.7019 45.8133 35.2337 46.1267 35.8147 46.1855C36.4154 46.254 36.9964 46.0386 37.4199 45.6272L39.0546 44.0112V54.05C39.0546 54.5691 39.4781 54.9902 40 54.9902C40.5219 54.9902 40.9454 54.5691 40.9454 54.05V44.0112L42.5801 45.6272C43.0036 46.0386 43.5748 46.254 44.1755 46.1953C44.7663 46.1365 45.2981 45.8231 45.6231 45.3334L48.2426 41.4354L54.5354 43.7076C55.7959 44.1581 56.6329 45.353 56.6329 46.685V54.0598C56.6329 54.5789 57.0564 55 57.5783 55C58.1003 55 58.5237 54.5789 58.5237 54.0598V46.685C58.5237 45.3824 58.0215 44.1385 57.0958 43.1885L57.0761 43.1689L57.3518 43.0906C57.5783 43.0318 57.9132 42.9339 58.248 42.7674L58.2677 42.7576L60.7592 45.2257V54.0598C60.7592 54.5789 61.1826 55 61.7046 55C62.2265 55 62.65 54.5789 62.65 54.0598V45.2257L65.1218 42.7772L65.1415 42.787C65.2793 42.8555 65.4172 42.9143 65.5452 42.9437L69.5434 44.0798C70.4691 44.3442 71.1092 45.1865 71.1092 46.1365V54.0598C71.1092 54.5789 71.5327 55 72.0546 55C72.5765 55 73 54.5789 73 54.0598V46.1365C72.9803 44.3442 71.769 42.7576 70.0457 42.2679ZM56.3375 31.093L55.7368 29.908C55.5201 29.477 55.402 28.9873 55.402 28.4389C55.402 26.1275 57.3026 24.2471 59.6267 24.2471H67.9875V28.2528C67.9875 28.8992 67.8299 29.5456 67.5443 30.1234L67.0519 31.093C66.9928 31.2204 66.9534 31.3673 66.9534 31.5044V33.5513C66.9534 34.9714 66.3823 36.3034 65.3581 37.2926C64.3733 38.2426 63.0734 38.7617 61.6947 38.7617H61.5273C58.7207 38.6833 56.4261 36.2251 56.4261 33.2967V31.5044C56.436 31.3673 56.3966 31.2204 56.3375 31.093ZM59.479 41.2983C59.5184 41.122 59.538 40.9261 59.538 40.7303V40.2993H59.5676C60.188 40.505 60.8281 40.6127 61.4781 40.6323H61.6947C62.4235 40.6323 63.1325 40.5246 63.8218 40.3091L63.8514 40.2993V40.7107C63.8514 40.8968 63.8711 41.0828 63.9203 41.2591V41.2689L61.6849 43.4823L59.4691 41.2787L59.479 41.2983ZM44.0278 44.7262L43.9194 44.305L41.4772 41.8859L46.0761 38.7715L47.0707 39.8096L44.0573 44.2854L43.9884 44.3246L44.0278 44.7262ZM36.051 44.3344L35.9526 44.2952L32.9293 39.8096L33.9239 38.7715L38.5228 41.8859L36.0904 44.2952L36.051 44.3344ZM30.5067 22.2198C29.8863 20.9367 29.5712 19.5852 29.5712 18.1847V16.1377C29.5712 12.132 32.8603 8.88043 36.8979 8.88043H50.4288V18.1945C50.4288 19.595 50.1137 20.9465 49.4933 22.2295C49.4342 22.3569 49.3948 22.494 49.3948 22.6409V25.3734C49.3948 27.9786 48.3411 30.3879 46.4208 32.1704C46.1844 32.3956 45.9284 32.6013 45.6625 32.807C43.8603 34.1585 41.6544 34.8147 39.3697 34.6678C34.4557 34.3544 30.5953 30.1136 30.5953 25.0306V22.6507C30.6052 22.4842 30.5757 22.3471 30.5067 22.2198ZM34.7413 35.2261L34.7807 35.2457C36.1791 35.99 37.6858 36.4209 39.2614 36.5287C41.3295 36.6658 43.3975 36.2446 45.239 35.2848L45.2784 35.2653V37.0673L40.0197 40.6323L34.761 37.0673V35.2261H34.7413ZM15.7645 43.1591L14.8487 42.2973L14.8586 42.2777C15.0063 41.9937 15.085 41.6803 15.0949 41.3571V40.3091L15.1244 40.3189C16.4933 40.7401 18 40.7401 19.3787 40.3189L19.4082 40.3091V41.3571C19.4082 41.6803 19.487 42.0035 19.6446 42.2875L19.6544 42.2973L18.7484 43.1591C17.9311 43.9231 16.5721 43.9231 15.7645 43.1591ZM23.5936 32.5425C22.53 30.9265 20.9248 29.7611 18.8272 29.0951C17.1432 28.5564 15.6661 28.5172 15.2525 28.5172H15.154C14.9078 28.527 14.6714 28.625 14.504 28.8013L12.761 30.5936C12.5837 30.7698 12.4951 31.0147 12.4951 31.2693C12.5049 31.5142 12.6034 31.7492 12.7807 31.9255C13.145 32.2683 13.7556 32.2683 14.1101 31.9059L15.5676 30.4075H15.5774C16.7887 30.4662 20.8657 30.9265 22.4315 34.3544V34.374C22.0278 36.9302 19.8514 38.7813 17.2319 38.7813C14.3268 38.7813 11.9731 36.4405 11.9731 33.5709C11.9731 33.0518 11.5497 32.6307 11.0278 32.6307L10.8406 32.6503L10.8505 32.2879C10.8702 31.6905 10.8899 31.0832 10.9293 30.5544C11.0474 28.8306 11.7466 27.2342 12.889 26.0688C14.0412 24.8935 15.5774 24.2471 17.222 24.2471C18.8666 24.2471 20.4029 24.8935 21.5551 26.0688C22.6974 27.2342 23.3966 28.8209 23.5148 30.5544C23.5542 31.093 23.5739 31.7394 23.5936 32.3663L23.6034 32.6209L23.5936 32.5425ZM10.0627 38.5854V38.5658C10.3089 37.939 10.4861 37.1849 10.6141 36.274L10.624 36.1957L10.6535 36.274C11.1853 37.5276 12.0618 38.605 13.1943 39.3885L13.2041 40.5833L13.1746 40.5736C11.3527 39.9272 10.4369 39.0555 10.0627 38.5854ZM21.299 39.3983C22.4512 38.6148 23.3277 37.5374 23.8496 36.274L23.889 36.1957L23.8988 36.2838C24.0269 37.1947 24.2041 37.9488 24.4503 38.5658V38.5756L24.4405 38.5854C24.0564 39.0457 23.1406 39.9272 21.3286 40.5736L21.299 40.5833V39.3983Z" fill="#2463B8"/>
<path d="M32.7619 21.1718C33.0179 21.1718 33.2543 21.0739 33.4315 20.8976C33.6088 20.7213 33.7073 20.4862 33.7073 20.2414V18.0377C33.7073 17.9986 33.7368 17.9594 33.7762 17.9496C34.8693 17.7831 36.5631 17.597 38.4441 17.597C38.9955 17.597 39.547 17.6166 40.0591 17.646C43.0824 17.8419 45.2686 18.596 46.5685 19.879C46.923 20.2316 47.5533 20.2316 47.898 19.879C48.0752 19.7027 48.1737 19.4677 48.1737 19.213C48.1737 18.9584 48.0752 18.7233 47.898 18.547C45.5345 16.1965 41.4476 15.7068 38.4441 15.7068C36.445 15.7068 34.6527 15.9125 33.4906 16.0888C32.5157 16.2357 31.8165 17.0486 31.8165 18.028V20.2316C31.8165 20.7507 32.2399 21.1718 32.7619 21.1718Z" fill="#2463B8"/>
<path d="M28.6258 49.0159C28.1039 49.0159 27.6804 49.4371 27.6804 49.9561V54.0598C27.6804 54.5789 28.1039 55 28.6258 55C29.1477 55 29.5712 54.5789 29.5712 54.0598V49.9561C29.5712 49.4371 29.1477 49.0159 28.6258 49.0159Z" fill="#2463B8"/>
<path d="M51.3742 49.0159C50.8523 49.0159 50.4288 49.4371 50.4288 49.9561V54.0598C50.4288 54.5789 50.8523 55 51.3742 55C51.8962 55 52.3196 54.5789 52.3196 54.0598V49.9561C52.3196 49.4371 51.8962 49.0159 51.3742 49.0159Z" fill="#2463B8"/>
<defs>
<filter id="filter0_d" x="0" y="0" width="80" height="62" filterUnits="userSpaceOnUse" color-interpolation-filters="sRGB">
<feFlood flood-opacity="0" result="BackgroundImageFix"/>
<feColorMatrix in="SourceAlpha" type="matrix" values="0 0 0 0 0 0 0 0 0 0 0 0 0 0 0 0 0 0 127 0"/>
<feOffset/>
<feGaussianBlur stdDeviation="2"/>
<feColorMatrix type="matrix" values="0 0 0 0 0.141176 0 0 0 0 0.388235 0 0 0 0 0.721569 0 0 0 0.2 0"/>
<feBlend mode="normal" in2="BackgroundImageFix" result="effect1_dropShadow"/>
<feBlend mode="normal" in="SourceGraphic" in2="effect1_dropShadow" result="shape"/>
</filter>
</defs>
</svg>
