<svg width="96" height="62" viewBox="0 0 96 62" fill="none" xmlns="http://www.w3.org/2000/svg">
<g filter="url(#filter0_d)">
<path d="M55.1289 6.99997C55.1289 6.07809 54.7051 5.20749 53.9805 4.63864C53.2539 4.07028 52.3086 3.86667 51.4121 4.08688L41.3848 6.55465C40.4629 6.78122 39.7285 7.41989 39.3613 8.24557H37.3809C35.7246 8.24557 34.3809 9.58835 34.3809 11.2456V12.2798L31.5254 9.45602C30.3574 8.30026 28.4766 8.30026 27.3066 9.45602L26.1719 10.5786L25.0371 9.45602C23.8691 8.30026 21.9863 8.30026 20.8184 9.45602L16.7363 13.4926C16.166 14.0561 15.8457 14.8242 15.8457 15.6259C15.8457 16.4277 16.166 17.1958 16.7363 17.7592L20.8184 21.7944C21.6396 22.6057 22.8102 22.8473 23.8397 22.5196L23.8915 22.5968C23.8408 22.6314 23.791 22.6677 23.7422 22.7055C23.0098 23.2739 22.582 24.1484 22.582 25.0747V25.6933L20.3164 23.4541C19.1484 22.2988 17.2676 22.2988 16.0996 23.4546L14.9629 24.5771L13.8281 23.4546C12.6602 22.2988 10.7793 22.2988 9.60938 23.4541L5.52734 27.4902C5.37891 27.6372 5.24805 27.7978 5.13477 27.9697C4.96289 28.229 4.83398 28.5131 4.75 28.812C4.73047 28.8813 4.71289 28.9516 4.69922 29.0224C4.6582 29.2187 4.63672 29.4199 4.63672 29.6235C4.63672 30.4248 4.95703 31.1933 5.52734 31.7568L9.60938 35.7929C10.7793 36.9487 12.6602 36.9487 13.8281 35.7929L14.9629 34.6704L16.0996 35.7929C17.2676 36.9487 19.1484 36.9487 20.3184 35.7929L22.582 33.5547V50.8247H7C5.34375 50.8247 4 52.1679 4 53.8247V55C4 56.6567 5.34375 58 7 58H89C90.6562 58 92 56.6567 92 55V53.8247C92 52.1679 90.6562 50.8247 89 50.8247H74.959L76.668 33.083C77.5469 32.56 78.1367 31.6001 78.1367 30.5029V25.8281C78.1367 25.6899 78.127 25.5537 78.1094 25.4199C78.0879 25.2666 78.0547 25.1167 78.0117 24.9716C78.8926 25.08 79.8125 24.7988 80.4902 24.1274L81.625 23.0048L82.7598 24.1274C83.9297 25.2832 85.8105 25.2832 86.9785 24.1279L91.0605 20.0918C91.6309 19.5283 91.9531 18.7602 91.9531 17.9585C91.9531 17.1572 91.6309 16.3886 91.0625 15.8252L86.9785 11.789C85.8105 10.6333 83.9297 10.6333 82.7598 11.789L81.625 12.9116L80.4902 11.789C79.3223 10.6333 77.4395 10.6333 76.2715 11.789L72.9648 15.0581C72.9258 14.8447 72.8652 14.6338 72.7793 14.4306C72.4668 13.6865 71.8691 13.0996 71.1172 12.8022L68.5488 11.7861C67.0391 11.1884 65.3262 11.9018 64.6875 13.3955L62.1484 19.3286H59.8496V11.2456C59.8496 9.58835 58.5059 8.24557 56.8496 8.24557H55.1289V6.99997Z" fill="white"/>
</g>
<path fill-rule="evenodd" clip-rule="evenodd" d="M52.1295 11.2454V7L42.1007 9.46759V11.2454H37.3813V28.0851L25.5827 25.0747V53.8247H7V55H89V53.8247H71.657L73.9027 30.5029H75.1367V25.8281H71.9117L69.552 22.3287H67.175L70.014 15.592L67.4457 14.5758L64.1274 22.3287H56.8489V11.2454H52.1295ZM43.2806 11.2454V10.3877L50.9496 8.50058V11.2454H43.2806ZM38.5611 15.912V12.4207H55.6691V53.8247H45.0504V49.75H51.8345V48.5752H45.0504V45.0839H51.8345V43.9091H45.0504V40.4178H51.8345V39.2425H45.0504V35.7512H51.8345V34.5764H45.0504V31.0851H51.8345V29.9109H44.4973L38.5611 28.3866V26.419H51.8345V25.2442H38.5611V21.7535H51.8345V20.5781H38.5611V17.0868H51.8345V15.912H38.5611ZM65.4098 22.3287L68.0794 16.0909L68.4608 16.2413L65.8949 22.3287H65.4098ZM56.8489 25.8281V23.5029H68.9229L70.491 25.8281H56.8489ZM26.7626 34.5764V26.5885L43.8705 30.9543V53.8241H26.7626V49.75H40.036V48.5752H26.7626V45.0839H40.036V43.9091H26.7626V40.4178H40.036V39.2425H26.7626V35.7512H40.036V34.5764H26.7626ZM56.8489 29.3275V27.0029H73.9568V29.3275H56.8489ZM56.8489 36.9103V30.5029H72.7171L72.1006 36.9103H56.8489ZM56.8489 46.2431V38.0851H71.9866L71.2019 46.2431H56.8489ZM56.8489 53.8247V47.4172H71.0878L70.4714 53.8247H56.8489Z" fill="#2463B8"/>
<path fill-rule="evenodd" clip-rule="evenodd" d="M26.1727 14.7975L22.9281 11.5891L18.8458 15.6256L22.9281 19.6609L26.1727 16.4531L29.4173 19.6609L33.4995 15.6256L29.4173 11.5891L26.1727 14.7975ZM22.9281 18.0052L20.5211 15.625L22.9281 13.2448L25.335 15.625L22.9281 18.0052ZM29.4173 18.0052L27.0103 15.625L29.4173 13.2448L31.8242 15.625L29.4173 18.0052Z" fill="#2463B8"/>
<path fill-rule="evenodd" clip-rule="evenodd" d="M81.6259 17.1302L78.3813 13.9219L74.299 17.9583L78.3813 21.9942L81.6259 18.7859L84.8705 21.9942L88.9528 17.9583L84.8705 13.9219L81.6259 17.1302ZM78.3813 20.3385L75.9743 17.9583L78.3813 15.5781L80.7882 17.9583L78.3813 20.3385ZM84.8705 20.3385L82.4635 17.9583L84.8705 15.5781L87.2775 17.9583L84.8705 20.3385Z" fill="#2463B8"/>
<path fill-rule="evenodd" clip-rule="evenodd" d="M14.964 28.7957L11.7194 25.5874L7.63717 29.6233L11.7194 33.6597L14.964 30.4514L18.2086 33.6597L22.2909 29.6233L18.2086 25.5874L14.964 28.7957ZM11.7194 32.0035L9.31247 29.6233L11.7194 27.2431L14.1264 29.6233L11.7194 32.0035ZM18.2086 32.0035L15.8017 29.6233L18.2086 27.2431L20.6156 29.6233L18.2086 32.0035Z" fill="#2463B8"/>
<defs>
<filter id="filter0_d" x="0" y="0" width="96" height="62" filterUnits="userSpaceOnUse" color-interpolation-filters="sRGB">
<feFlood flood-opacity="0" result="BackgroundImageFix"/>
<feColorMatrix in="SourceAlpha" type="matrix" values="0 0 0 0 0 0 0 0 0 0 0 0 0 0 0 0 0 0 127 0"/>
<feOffset/>
<feGaussianBlur stdDeviation="2"/>
<feColorMatrix type="matrix" values="0 0 0 0 0.141176 0 0 0 0 0.388235 0 0 0 0 0.721569 0 0 0 0.2 0"/>
<feBlend mode="normal" in2="BackgroundImageFix" result="effect1_dropShadow"/>
<feBlend mode="normal" in="SourceGraphic" in2="effect1_dropShadow" result="shape"/>
</filter>
</defs>
</svg>
