<svg width="97" height="62" viewBox="0 0 97 62" fill="none" xmlns="http://www.w3.org/2000/svg">
<g filter="url(#filter0_d)">
<path fill-rule="evenodd" clip-rule="evenodd" d="M92.1213 28.8787C93.2929 30.0503 93.2929 31.9497 92.1213 33.1213L80.1213 45.1213C78.9497 46.2929 77.0503 46.2929 75.8787 45.1213L74 43.2426L67.1213 50.1213C65.9497 51.2929 64.0503 51.2929 62.8787 50.1213L60 47.2426L50.1213 57.1213C48.9497 58.2929 47.0503 58.2929 45.8787 57.1213L36.5 47.7426L34.1213 50.1213C32.9497 51.2929 31.0503 51.2929 29.8787 50.1213L23 43.2426L21.1213 45.1213C19.9497 46.2929 18.0503 46.2929 16.8787 45.1213L4.87868 33.1213C3.70711 31.9497 3.70711 30.0503 4.87868 28.8787L16.8787 16.8787C18.0503 15.7071 19.9497 15.7071 21.1213 16.8787L23 18.7574L29.8787 11.8787C31.0503 10.7071 32.9497 10.7071 34.1213 11.8787L36.5 14.2574L45.8787 4.87868C47.0503 3.70711 48.9497 3.70711 50.1213 4.87868L60 14.7574L62.8787 11.8787C64.0503 10.7071 65.9497 10.7071 67.1213 11.8787L74 18.7574L75.8787 16.8787C77.0503 15.7071 78.9497 15.7071 80.1213 16.8787L92.1213 28.8787Z" fill="white"/>
</g>
<path fill-rule="evenodd" clip-rule="evenodd" d="M52 31.0005C52 33.2095 50.209 35.0005 48 35.0005C45.791 35.0005 44 33.2095 44 31.0005C44 28.7915 45.791 27.0005 48 27.0005C50.209 27.0005 52 28.7915 52 31.0005ZM51 31.0005C51 32.6572 49.6562 34.0005 48 34.0005C46.3438 34.0005 45 32.6572 45 31.0005C45 29.3438 46.3438 28.0005 48 28.0005C49.6562 28.0005 51 29.3438 51 31.0005Z" fill="#2463B8"/>
<path fill-rule="evenodd" clip-rule="evenodd" d="M40 23.6846C38.8945 23.6846 38 24.5801 38 25.6846V36.0005C38 37.105 38.8945 38.0005 40 38.0005H56C57.1055 38.0005 58 37.105 58 36.0005V25.6846C58 24.5801 57.1055 23.6846 56 23.6846H53.6055C52.9434 23.6846 52.3223 23.3555 51.9512 22.8062L51.3223 21.8789C50.9492 21.3296 50.3301 21.0005 49.666 21.0005H46.334C46.1465 21.0005 45.9629 21.0269 45.7871 21.0767C45.3398 21.2036 44.9453 21.4844 44.6777 21.8789L44.0488 22.8062C43.6777 23.3555 43.0566 23.6846 42.3945 23.6846H40ZM57 36.0005V25.6846C57 25.1323 56.5527 24.6846 56 24.6846H53.6055C52.6113 24.6846 51.6816 24.1909 51.123 23.3672L50.4941 22.4395C50.3086 22.165 49.998 22.0005 49.666 22.0005H46.334C46.002 22.0005 45.6914 22.165 45.5059 22.4395L44.877 23.3672C44.3184 24.1909 43.3887 24.6846 42.3945 24.6846H40C39.4473 24.6846 39 25.1323 39 25.6846V36.0005C39 36.2603 39.0996 36.4971 39.2617 36.6748C39.4434 36.875 39.707 37.0005 40 37.0005H56C56.5527 37.0005 57 36.5527 57 36.0005Z" fill="#2463B8"/>
<path fill-rule="evenodd" clip-rule="evenodd" d="M36.5 43.5L48 55L60 43L65 48L74 39L78 43L90 31L78 19L74 23L65 14L60 19L48 7L36.5 18.5L32 14L23 23L19 19L7 31L19 43L23 39L32 48L36.5 43.5ZM35.793 42.793L24 31L35.793 19.207L32 15.4141L16.4141 31L32 46.5859L35.793 42.793ZM60.707 19.707L72 31L60.707 42.293L65 46.5859L80.5859 31L65 15.4141L60.707 19.707ZM48 53.5859L70.5859 31L48 8.41406L25.4141 31L48 53.5859ZM74.707 38.293L78 41.5859L88.5859 31L78 20.4141L74.707 23.707L82 31L74.707 38.293ZM19 20.4141L22.293 23.707L15 31L22.293 38.293L19 41.5859L8.41406 31L19 20.4141Z" fill="#2463B8"/>
<defs>
<filter id="filter0_d" x="0" y="0" width="97" height="62" filterUnits="userSpaceOnUse" color-interpolation-filters="sRGB">
<feFlood flood-opacity="0" result="BackgroundImageFix"/>
<feColorMatrix in="SourceAlpha" type="matrix" values="0 0 0 0 0 0 0 0 0 0 0 0 0 0 0 0 0 0 127 0"/>
<feOffset/>
<feGaussianBlur stdDeviation="2"/>
<feColorMatrix type="matrix" values="0 0 0 0 0.141176 0 0 0 0 0.388235 0 0 0 0 0.721569 0 0 0 0.2 0"/>
<feBlend mode="normal" in2="BackgroundImageFix" result="effect1_dropShadow"/>
<feBlend mode="normal" in="SourceGraphic" in2="effect1_dropShadow" result="shape"/>
</filter>
</defs>
</svg>
