<svg width="99" height="64" viewBox="0 0 99 64" fill="none" xmlns="http://www.w3.org/2000/svg">
<g filter="url(#filter0_d)">
<path fill-rule="evenodd" clip-rule="evenodd" d="M83.8028 51.4H95V60H4V51.4H15.1972L17.1824 49.1273C15.956 45.6374 15.2904 41.892 15.2904 38C15.2904 19.1584 30.8076 4 49.8051 4C68.8027 4 84.3199 19.1584 84.3199 38C84.3199 42.0769 83.5896 45.9926 82.2496 49.6219L83.8028 51.4Z" fill="white"/>
</g>
<path fill-rule="evenodd" clip-rule="evenodd" d="M19.2228 37.9381C19.2228 21.3998 32.9182 8 49.8033 8C66.6885 8 80.3838 21.3998 80.3838 37.9381C80.3838 42.2884 79.4357 46.4232 77.7304 50.1541L81.9041 54.9113H91V56H8V54.9113H17.0959L21.6716 49.696C20.0952 46.0858 19.2228 42.111 19.2228 37.9381ZM49.8033 9.08866C33.5197 9.08866 20.3265 22.009 20.3265 37.9381C20.3265 41.7727 21.0906 45.4314 22.4775 48.7773L27.5935 42.9462C28.7818 41.5917 30.9214 41.5917 32.1098 42.9461L34.9175 46.1465L34.0775 46.8526L31.2752 43.6586C30.527 42.8057 29.1762 42.8057 28.428 43.6586L18.5555 54.9113H28.6203L47.232 33.4782C48.4212 32.1086 50.5788 32.1086 51.768 33.4782L70.3797 54.9113H80.4445L70.572 43.6586C69.8238 42.8057 68.473 42.8057 67.7248 43.6586L64.9225 46.8526L64.0825 46.1465L66.8902 42.9462C68.0786 41.5917 70.2182 41.5917 71.4065 42.9461L76.9311 49.2431C78.4432 45.7721 79.2802 41.9514 79.2802 37.9381C79.2802 22.009 66.0869 9.08866 49.8033 9.08866ZM48.9482 18.0948H59.8956C60.1165 18.0948 60.3187 18.2253 60.4051 18.43C60.4917 18.6355 60.4427 18.8712 60.2834 19.0264L58.0406 21.2124H67.0926C67.3201 21.2124 67.527 21.3507 67.6088 21.5645C67.6909 21.779 67.6277 22.0199 67.4535 22.1685L64.7377 24.4845L67.4535 26.8006C67.6277 26.9492 67.6909 27.19 67.6088 27.4046C67.527 27.6184 67.3201 27.7567 67.0926 27.7567H56.697C56.3962 27.7567 56.1451 27.5169 56.1451 27.2124V24.6392H50.0518V31.3567H48.9482V18.0948ZM50.0518 19.1835V23.5505H56.1451V21.7567C56.1451 21.6106 56.2046 21.4713 56.3091 21.3695L58.552 19.1835H50.0518ZM57.2488 22.301V26.668H65.6105L63.533 24.8963C63.4124 24.7935 63.3421 24.6434 63.3421 24.4845C63.3421 24.3256 63.4124 24.1756 63.533 24.0728L65.6105 22.301H57.2488ZM50.9298 34.1864C50.181 33.3241 48.819 33.3241 48.0702 34.1864L30.0735 54.9113H68.9265L50.9298 34.1864Z" fill="#2463B8"/>
<defs>
<filter id="filter0_d" x="0" y="0" width="99" height="64" filterUnits="userSpaceOnUse" color-interpolation-filters="sRGB">
<feFlood flood-opacity="0" result="BackgroundImageFix"/>
<feColorMatrix in="SourceAlpha" type="matrix" values="0 0 0 0 0 0 0 0 0 0 0 0 0 0 0 0 0 0 127 0"/>
<feOffset/>
<feGaussianBlur stdDeviation="2"/>
<feColorMatrix type="matrix" values="0 0 0 0 0.141176 0 0 0 0 0.388235 0 0 0 0 0.721569 0 0 0 0.2 0"/>
<feBlend mode="normal" in2="BackgroundImageFix" result="effect1_dropShadow"/>
<feBlend mode="normal" in="SourceGraphic" in2="effect1_dropShadow" result="shape"/>
</filter>
</defs>
</svg>
