<svg width="98" height="62" viewBox="0 0 98 62" fill="none" xmlns="http://www.w3.org/2000/svg">
<g filter="url(#filter0_d)">
<path d="M77.7339 36.1627V50.0205C77.7339 50.5728 78.1816 51.0205 78.7339 51.0205H87.5412C88.0935 51.0205 88.5412 51.4682 88.5412 52.0205V57C88.5412 57.5523 88.0935 58 87.5412 58H13.369C12.8167 58 12.369 57.5523 12.369 57V52.0205C12.369 51.4682 12.8167 51.0205 13.369 51.0205H22.1763C22.7286 51.0205 23.1763 50.5728 23.1763 50.0205V48.6194C23.1763 48.0591 22.716 47.6089 22.1557 47.6114C17.2299 47.6336 12.2862 47.0855 7.4295 45.9565L6.22442 45.6764C5.85303 45.59 5.56306 45.3 5.47678 44.9286L4.46646 40.5799C4.4177 40.37 4.43804 40.15 4.52445 39.9526L8.99791 29.7334C9.1098 29.4778 9.10981 29.1871 8.99793 28.9314L4.21137 17.9954C4.07908 17.6932 4.10439 17.3451 4.279 17.0652L5.22657 15.5461C5.28378 15.4543 5.32574 15.3539 5.35082 15.2488L5.88609 13.0043C6.01369 12.4692 6.54948 12.1377 7.08525 12.2623L9.00285 12.7081C21.346 15.5776 34.3097 14.2353 45.7808 8.90213L48.6323 7.57693C50.5085 6.70448 52.4212 5.92694 54.3602 5.24574L56.2119 4.5952C56.7301 4.41316 57.2981 4.68309 57.4842 5.19981L57.6207 5.5788C57.7991 6.07395 58.3305 6.34529 58.8385 6.20797C64.2466 4.74629 69.822 4.00543 75.416 4H75.5364C80.3457 4.00461 85.1699 4.55322 89.9123 5.65541L92.8279 6.33356C93.4373 6.47529 93.7683 7.13545 93.5174 7.70857L88.3435 19.5278C88.2317 19.7834 88.2316 20.0742 88.3435 20.3298L93.0634 31.1136C93.1769 31.3728 93.1752 31.668 93.0588 31.9259L91.0587 36.3574C90.8623 36.7925 90.3857 37.0281 89.9207 36.92L88.3386 36.5522C85.1796 35.8178 81.9794 35.3593 78.7732 35.173C78.2063 35.1401 77.7339 35.5949 77.7339 36.1627Z" fill="white"/>
</g>
<path fill-rule="evenodd" clip-rule="evenodd" d="M88.4547 9.40061C75.5776 6.55518 62.0967 8.0074 50.1444 13.5376L47.2798 14.8631C44.9983 15.9187 42.6621 16.8282 40.2854 17.59L39.9766 16.6587C42.314 15.9094 44.6117 15.0149 46.8556 13.9767L49.7202 12.6513C62.0558 6.94371 75.9927 5.50821 89.2635 8.57836L89.8429 8.7124L84.9099 19.9286L90 31.502L89.0353 31.2789C85.0247 30.351 80.9523 29.8416 76.8827 29.7439L76.907 28.7646C80.7203 28.8561 84.5361 29.3032 88.3028 30.1112L83.8244 19.9286L88.4547 9.40061ZM55.5414 9.00054C53.7136 9.63936 51.9123 10.3681 50.1444 11.1861L47.2798 12.5115C34.9442 18.2191 21.0073 19.6546 7.73649 16.5844L7.96468 15.6309C21.0165 18.6504 34.7235 17.2386 46.8556 11.6252L49.7202 10.2997C51.5177 9.46805 53.3492 8.72707 55.2077 8.07753L55.5414 9.00054ZM7 17.7593L7.96468 17.9824C14.3173 19.4521 20.8252 19.872 27.2311 19.2686L27.3261 20.2437C21.1353 20.8269 14.8508 20.47 8.6972 19.1501L13.1756 29.3327L8.54526 39.8607C13.6366 40.9857 18.8223 41.4389 23.9706 41.2338L24.011 42.2126C18.5772 42.4291 13.1024 41.9243 7.73649 40.6829L7.15711 40.5489L12.0901 29.3327L7 17.7593ZM29.4705 19.8327C29.4705 18.9129 30.2288 18.1673 31.1642 18.1673H69.4225C70.3579 18.1673 71.1162 18.9129 71.1162 19.8327V22.7714C71.1162 23.6912 70.3579 24.4367 69.4225 24.4367H62.1494V25.8082H73.0092C73.9446 25.8082 74.7029 26.5537 74.7029 27.4735V54.0204H85.5627V55H15.024V54.0204H25.8838V27.4735C25.8838 26.5537 26.6421 25.8082 27.5775 25.8082H38.4373V24.4367H31.1642C30.2288 24.4367 29.4705 23.6912 29.4705 22.7714V19.8327ZM69.4225 23.4571C69.8077 23.4571 70.1199 23.1501 70.1199 22.7714V19.8327C70.1199 19.4539 69.8077 19.1469 69.4225 19.1469H31.1642C30.779 19.1469 30.4668 19.4539 30.4668 19.8327V22.7714C30.4668 23.1501 30.779 23.4571 31.1642 23.4571H69.4225ZM58.762 24.4367H41.8247V25.8082H58.762V24.4367ZM59.7583 25.8082H61.1531V24.4367H59.7583V25.8082ZM27.5775 26.7878C27.1923 26.7878 26.8801 27.0948 26.8801 27.4735V44.0286H28.2749V31.5878C28.2749 30.9926 28.7656 30.5102 29.3709 30.5102H37.7399C38.3451 30.5102 38.8358 30.9926 38.8358 31.5878V44.0286H42.6218V31.5878C42.6218 30.9926 43.1124 30.5102 43.7177 30.5102H56.869C57.4743 30.5102 57.9649 30.9926 57.9649 31.5878V44.0286H61.7509V31.5878C61.7509 30.9926 62.2416 30.5102 62.8469 30.5102H71.2159C71.8211 30.5102 72.3118 30.9926 72.3118 31.5878V44.0286H73.7066V27.4735C73.7066 27.0948 73.3944 26.7878 73.0092 26.7878H27.5775ZM73.7066 45.0082H72.3118V49.2204C72.3118 49.8155 71.8211 50.298 71.2159 50.298H62.8469C62.2416 50.298 61.7509 49.8155 61.7509 49.2204V45.0082H57.9649V53.9225C57.9649 53.9555 57.9634 53.9881 57.9605 54.0204H73.7066V45.0082ZM42.6218 45.0082H38.8358V49.2204C38.8358 49.8155 38.3451 50.298 37.7399 50.298H29.3709C28.7656 50.298 28.2749 49.8155 28.2749 49.2204V45.0082H26.8801V54.0204H42.6262C42.6233 53.9881 42.6218 53.9555 42.6218 53.9225V45.0082ZM40.8284 25.8082V24.4367H39.4336V25.8082H40.8284ZM29.3709 31.4898C29.3158 31.4898 29.2712 31.5337 29.2712 31.5878V49.2204C29.2712 49.2745 29.3158 49.3184 29.3709 49.3184H37.7399C37.7949 49.3184 37.8395 49.2745 37.8395 49.2204V31.5878C37.8395 31.5337 37.7949 31.4898 37.7399 31.4898H29.3709ZM43.7177 31.4898C43.6627 31.4898 43.6181 31.5337 43.6181 31.5878V53.9225C43.6181 53.9766 43.6627 54.0204 43.7177 54.0204H49.7952V31.4898H43.7177ZM50.7915 31.4898V54.0204H56.869C56.924 54.0204 56.9686 53.9766 56.9686 53.9225V31.5878C56.9686 31.5337 56.924 31.4898 56.869 31.4898H50.7915ZM62.8469 31.4898C62.7918 31.4898 62.7472 31.5337 62.7472 31.5878V49.2204C62.7472 49.2745 62.7918 49.3184 62.8469 49.3184H71.2159C71.2709 49.3184 71.3155 49.2745 71.3155 49.2204V31.5878C71.3155 31.5337 71.2709 31.4898 71.2159 31.4898H62.8469ZM89.0353 33.6296C85.0247 32.7017 80.9523 32.1923 76.8827 32.0946L76.907 31.1153C81.0449 31.2146 85.1857 31.7326 89.2635 32.676L89.0353 33.6296ZM24.011 44.5633C18.5772 44.7798 13.1024 44.275 7.73649 43.0336L7.96468 42.0801C13.242 43.301 18.6265 43.7974 23.9706 43.5846L24.011 44.5633ZM48.0018 46.8694V42.1673H48.9982V46.8694H48.0018ZM51.5886 46.8694V42.1673H52.5849V46.8694H51.5886Z" fill="#2463B8"/>
<defs>
<filter id="filter0_d" x="0.126953" y="0" width="97.4744" height="62" filterUnits="userSpaceOnUse" color-interpolation-filters="sRGB">
<feFlood flood-opacity="0" result="BackgroundImageFix"/>
<feColorMatrix in="SourceAlpha" type="matrix" values="0 0 0 0 0 0 0 0 0 0 0 0 0 0 0 0 0 0 127 0"/>
<feOffset/>
<feGaussianBlur stdDeviation="2"/>
<feColorMatrix type="matrix" values="0 0 0 0 0.141176 0 0 0 0 0.388235 0 0 0 0 0.721569 0 0 0 0.2 0"/>
<feBlend mode="normal" in2="BackgroundImageFix" result="effect1_dropShadow"/>
<feBlend mode="normal" in="SourceGraphic" in2="effect1_dropShadow" result="shape"/>
</filter>
</defs>
</svg>
