<svg width="98" height="62" viewBox="0 0 98 62" fill="none" xmlns="http://www.w3.org/2000/svg">
<g filter="url(#filter0_d)">
<path d="M56.0588 10.8869C57.0793 10.8869 58.0332 11.2927 58.7262 11.9738L58.7328 11.9803C58.7462 11.9935 58.7595 12.0067 58.7726 12.0201C59.1695 12.4253 59.4716 12.9176 59.6494 13.4643C59.7743 13.8462 59.8302 14.2304 59.8302 14.5996V17.0603H70.9928C71.9911 17.0603 72.9829 17.4527 73.7117 18.2L73.7158 18.2042C74.3877 18.8947 74.7642 19.8145 74.7642 20.7735V24.3015C74.7642 24.5572 74.7375 24.8087 74.6862 25.0528H86.8655C88.8093 25.0528 90.3655 26.6025 90.3655 28.4901V28.6912H90.5C92.4439 28.6912 94 30.2407 94 32.1284V50.9245C94 52.8121 92.4439 54.3617 90.5 54.3617H90.3655V54.5628C90.3655 56.4504 88.8093 58 86.8655 58H11.1345C9.19068 58 7.63454 56.4504 7.63454 54.5628V54.3617H7.5C5.55613 54.3617 4 52.8121 4 50.9245V32.1284C4 30.2408 5.55613 28.6912 7.5 28.6912H7.63454V28.4901C7.63454 26.6024 9.19067 25.0528 11.1345 25.0528H24.3176C24.4044 24.752 24.5292 24.4639 24.6883 24.1955C25.0199 23.6343 25.5227 23.1251 26.1859 22.7815C26.2344 22.7564 26.2845 22.7319 26.3348 22.7087L26.3712 22.692C26.5338 22.6172 26.7021 22.5548 26.8744 22.5054L26.9025 22.4974C26.9586 22.4813 27.0154 22.4665 27.0718 22.4533C27.2781 22.405 27.4845 22.3748 27.6879 22.3611V14.5996C27.6879 14.5004 27.6923 14.4011 27.7011 14.302L27.7057 14.2494C27.708 14.224 27.7106 14.1987 27.7135 14.1734C27.7692 13.6899 27.9148 13.2832 28.0724 12.9663C28.2576 12.5939 28.4958 12.2737 28.7592 12.0075L28.764 12.0027L28.793 11.9738C29.139 11.6337 29.5682 11.344 30.0688 11.1486L56.0588 10.8869Z" fill="white"/>
<path d="M27.229 4.10537C28.3927 3.85822 30.508 3.90528 31.6255 5.83567C34.5116 6.11427 35.9925 8.36765 36.4645 9.18611C36.9365 10.0046 37.2669 11.5025 37.0467 12.2901C36.8705 12.9202 32.2742 13.1189 29.9981 13.1395C28.7501 13.088 25.9677 12.2252 24.8223 9.18611C23.3905 5.3872 26.5373 4.27531 27.229 4.10537Z" fill="white"/>
<path d="M37.4654 4.10537C38.6291 3.85822 40.7443 3.90528 41.8618 5.83567C44.7479 6.11427 46.2289 8.36765 46.7009 9.18611C47.1729 10.0046 47.5033 11.5025 47.283 12.2901C47.1068 12.9202 42.5105 13.1189 40.2344 13.1395C38.9864 13.088 36.204 12.2252 35.0586 9.18611C33.6269 5.3872 36.7737 4.27531 37.4654 4.10537Z" fill="white"/>
<path d="M47.6997 4.10537C48.8634 3.85822 50.9787 3.90528 52.0962 5.83567C54.9823 6.11427 56.4632 8.36765 56.9352 9.18611C57.4072 10.0046 57.7376 11.5025 57.5174 12.2901C57.3412 12.9202 52.7449 13.1189 50.4688 13.1395C49.2208 13.088 46.4384 12.2252 45.293 9.18611C43.8612 5.3872 47.008 4.27531 47.6997 4.10537Z" fill="white"/>
</g>
<path fill-rule="evenodd" clip-rule="evenodd" d="M58.5311 33.9639H28.7195V42.9584H54.3014C54.4211 42.9584 54.5317 42.9856 54.6292 43.0302L54.641 43.0356C54.7138 43.0711 54.7839 43.1194 54.846 43.1801C54.8508 43.1847 54.8554 43.1894 54.8599 43.1942C54.8908 43.2269 54.9253 43.2684 54.9568 43.319C54.9869 43.3669 55.0076 43.412 55.0225 43.4495C55.025 43.4559 55.0274 43.4624 55.0297 43.4689C55.0568 43.5469 55.0728 43.6322 55.0728 43.7226V43.7288L54.9981 49.5166L55.2804 48.5921L56.0451 46.1705C56.6032 44.4116 57.0764 42.628 57.4656 40.8271C57.7324 39.5905 57.9597 38.3452 58.1473 37.0931C58.2975 36.0954 58.4211 35.0932 58.519 34.0882L58.5311 33.9639ZM44.7445 29.4267V22.5646H42.776V28.1166L44.7445 29.4267ZM41.2297 27.0889V14.7864C41.2297 14.7487 41.2322 14.6951 41.2456 14.6342C41.2478 14.6239 41.2504 14.6138 41.2533 14.6037L41.2674 14.5549C41.2719 14.5395 41.2771 14.5243 41.2831 14.5094L41.2936 14.483C41.2992 14.4692 41.3053 14.4556 41.3121 14.4424C41.3308 14.4059 41.3582 14.3586 41.3984 14.3095C41.4035 14.3033 41.4088 14.2972 41.4142 14.2912L41.4365 14.2665C41.4421 14.2603 41.4478 14.2544 41.4536 14.2485C41.5992 14.1029 41.7977 14.0228 42.0023 14.0228H45.517C45.7249 14.0228 45.9189 14.1051 46.0616 14.2445C46.0747 14.2573 46.087 14.2707 46.0985 14.2848L46.1338 14.3279C46.1519 14.35 46.168 14.3736 46.182 14.3985L46.2055 14.4404C46.221 14.4682 46.2338 14.4974 46.2437 14.5277L46.2554 14.5638C46.2574 14.5701 46.2593 14.5764 46.2611 14.5827C46.2626 14.588 46.264 14.5933 46.2653 14.5987C46.2786 14.6531 46.2884 14.7163 46.2884 14.7864V30.455L48.258 31.7653V26.1851C48.258 26.0464 48.297 25.914 48.3622 25.8017L48.3672 25.7931C48.4343 25.6828 48.534 25.5812 48.6636 25.5126C48.6768 25.5056 48.6903 25.4992 48.704 25.4934L48.7463 25.4756C48.7689 25.4661 48.7922 25.4583 48.816 25.4521L48.8559 25.4418C48.8775 25.4362 48.8995 25.432 48.9217 25.4293L48.9499 25.4259C48.9704 25.4234 48.9911 25.4221 49.0117 25.4221H49.0435C49.0514 25.4221 49.0593 25.4223 49.0672 25.4227C49.2096 25.4293 49.3443 25.4743 49.4592 25.5497L49.4619 25.5515L51.7716 27.0889V14.7864C51.7716 14.6758 51.7949 14.5564 51.8542 14.4419C51.8931 14.3654 51.9427 14.3015 51.9947 14.2493L51.9954 14.2485C52.141 14.1029 52.3395 14.0228 52.5441 14.0228H56.0588C56.2644 14.0228 56.4599 14.1043 56.6034 14.2445L56.6101 14.251C56.6928 14.335 56.7553 14.4365 56.792 14.5495C56.8181 14.6278 56.8302 14.708 56.8302 14.7864V30.455L58.7021 31.7007L58.7124 31.5104C58.7695 30.4556 58.7998 29.3994 58.7998 28.341V25.1946H58.6937C58.4877 25.1946 58.2915 25.1144 58.147 24.9709C57.9977 24.8239 57.9211 24.629 57.9211 24.4322V20.9246C57.9211 20.7295 57.9957 20.5341 58.1461 20.3861C58.2915 20.2401 58.4884 20.1604 58.6937 20.1604H70.9928C71.1957 20.1604 71.3979 20.2403 71.5454 20.3912C71.6849 20.5333 71.7642 20.724 71.7642 20.9246V24.4322C71.7642 24.6341 71.6831 24.8242 71.5454 24.965L71.5416 24.9689C71.4685 25.042 71.3843 25.0957 71.2979 25.1322C71.2007 25.1739 71.0963 25.1946 70.9928 25.1946H70.8867V28.341C70.8855 34.3893 71.8142 40.4028 73.6389 46.1702L76.1223 54.0199C76.1386 54.0731 76.1523 54.1364 76.1558 54.2071C76.1562 54.2151 76.1564 54.223 76.1564 54.231V54.2517C76.1564 54.267 76.1557 54.2823 76.1542 54.2975L76.1507 54.3343C76.1498 54.3439 76.1486 54.3535 76.147 54.3631C76.138 54.4206 76.1224 54.4781 76.0994 54.5344L76.0975 54.539C76.0732 54.5967 76.0423 54.649 76.0065 54.6962C75.9374 54.7893 75.8468 54.8679 75.7385 54.923C75.624 54.9818 75.5029 55.0078 75.3851 55.0078H24.4322C24.3319 55.0078 24.2335 54.988 24.1428 54.9512C24.049 54.914 23.9576 54.8566 23.8798 54.7772C23.7402 54.6351 23.6608 54.4443 23.6608 54.2437V43.7226C23.6608 43.6532 23.6703 43.5896 23.6839 43.5337C23.6892 43.5121 23.6959 43.4909 23.7041 43.4702L23.715 43.4427L23.7316 43.4037C23.7381 43.3883 23.7453 43.3732 23.7534 43.3585C23.7851 43.3008 23.8267 43.2414 23.8822 43.1854L23.8876 43.18C24.0311 43.0398 24.2266 42.9584 24.4322 42.9584H27.1744V26.1851C27.1744 26.0476 27.2127 25.9134 27.2823 25.7973C27.3511 25.6807 27.4543 25.5779 27.5862 25.5099C27.5932 25.5063 27.6003 25.5029 27.6075 25.4996L27.6439 25.483C27.6671 25.4724 27.691 25.4635 27.7156 25.4565L27.7438 25.4485C27.7518 25.4462 27.7598 25.4441 27.7679 25.4423C27.8395 25.4256 27.9119 25.4195 27.9825 25.4226L27.9836 25.4227C28.1215 25.4291 28.2597 25.472 28.3791 25.5521L28.3811 25.5534L30.6879 27.0889V14.7864C30.6879 14.7722 30.6886 14.758 30.6898 14.7439L30.6945 14.6916C30.7054 14.5969 30.7344 14.5148 30.7683 14.4469C30.806 14.3716 30.8552 14.3054 30.9111 14.2493L30.9158 14.2445C30.9885 14.1735 31.0771 14.1146 31.1779 14.0755C31.2703 14.0395 31.3672 14.0228 31.4616 14.0228H34.974C35.1828 14.0228 35.3748 14.1048 35.517 14.2406C35.5226 14.246 35.5281 14.2516 35.5335 14.2572C35.5877 14.3141 35.6444 14.3896 35.685 14.4849C35.7261 14.5793 35.7477 14.6818 35.7477 14.7864V30.4551L37.715 31.7649V26.1851C37.715 26.0405 37.7584 25.907 37.8241 25.7974C37.8928 25.6808 37.9961 25.5779 38.128 25.5099C38.1345 25.5066 38.141 25.5034 38.1476 25.5004L38.1657 25.492C38.2253 25.4638 38.2799 25.4495 38.3131 25.4421C38.319 25.4407 38.3249 25.4395 38.3308 25.4384C38.3362 25.4374 38.3417 25.4364 38.3472 25.4356L38.3954 25.4281C38.4212 25.4241 38.4473 25.4221 38.4735 25.4221H38.5017C38.521 25.4221 38.5403 25.4232 38.5595 25.4254L38.5947 25.4294C38.6171 25.432 38.6393 25.436 38.6611 25.4415L38.7022 25.4518C38.7291 25.4586 38.7553 25.4675 38.7807 25.4785L38.8124 25.4923C38.8287 25.4994 38.8447 25.5073 38.8601 25.5161L38.8895 25.5327C38.8999 25.5386 38.9101 25.5449 38.9201 25.5515L41.2297 27.0889ZM28.7195 27.6197V32.4362H35.9572L28.7195 27.6197ZM32.233 28.1166L34.2027 29.4269V22.5646H32.233V28.1166ZM59.6538 37.4704L59.6392 37.5655C59.2745 39.9259 58.7712 42.2643 58.1306 44.5671L58.0904 44.7113H71.5947L71.5547 44.5671C71.1498 43.1111 70.0315 37.4704 70.0315 37.4704M59.6538 37.4704H70.0315H59.6538ZM53.5289 53.4806V44.4856H25.2059V53.4806H27.1744V48.9831C27.1744 48.9256 27.1817 48.8754 27.1894 48.837C27.2026 48.7696 27.2242 48.7079 27.25 48.6535L27.2547 48.6435C27.2916 48.5697 27.3409 48.5024 27.3995 48.4445C27.5458 48.2978 27.7441 48.2189 27.9469 48.2189H33.2178C33.3236 48.2189 33.4243 48.2405 33.5156 48.2782C33.6123 48.3176 33.6969 48.375 33.7676 48.4457C33.7787 48.4569 33.7894 48.4685 33.7994 48.4807L33.8311 48.5192C33.8482 48.5399 33.8635 48.5619 33.877 48.5851L33.8969 48.6195C33.9038 48.6313 33.9101 48.6434 33.916 48.6558C33.9607 48.7504 33.9904 48.8622 33.9904 48.9831V53.4806H35.96V48.9831C35.96 48.8956 35.9749 48.8042 36.0088 48.7152C36.0241 48.6746 36.046 48.6253 36.0789 48.5734L36.0878 48.56C36.1093 48.5284 36.1418 48.4851 36.1875 48.4411C36.2394 48.3899 36.3009 48.3435 36.3724 48.3066C36.4123 48.2857 36.4576 48.2664 36.509 48.2514C36.5793 48.2304 36.6539 48.2189 36.7314 48.2189H42.0023C42.2085 48.2189 42.4065 48.3002 42.552 48.4457L42.5541 48.4477C42.6918 48.587 42.776 48.7786 42.776 48.9831V53.4806H44.7445V48.9831C44.7445 48.7887 44.8194 48.5918 44.9692 48.4437C45.1138 48.3003 45.3093 48.2189 45.517 48.2189H50.7867C50.993 48.2189 51.1909 48.3002 51.3365 48.4457C51.3455 48.4547 51.3542 48.4641 51.3625 48.4739L51.3896 48.5054C51.3964 48.5134 51.403 48.5216 51.4093 48.53C51.4456 48.5784 51.4752 48.6299 51.4982 48.6829L51.5023 48.6923C51.5366 48.7762 51.5604 48.8742 51.5604 48.9831V53.4806H53.5289ZM74.3331 53.4806L72.1629 46.6208L72.1197 46.4785L72.1183 46.4739L72.068 46.3144L72.0442 46.2397H57.6394L57.6164 46.3137L57.6156 46.3164L57.5718 46.4607L57.522 46.6239L55.3523 53.4806H74.3331ZM69.8208 35.9432L69.8047 35.8166L69.8046 35.8154C69.4967 33.3364 69.3416 30.8393 69.3416 28.341V25.1946H60.3449V28.341C60.3437 30.8403 60.1886 33.3364 59.8795 35.8156L59.8638 35.9432H69.8208ZM57.0408 32.4362L49.8031 27.6197V32.4362H57.0408ZM53.3178 28.1167L55.2851 29.4265V22.5646H53.3178V28.1167ZM39.2613 27.6197V32.4362H46.499L39.2613 27.6197ZM87.3655 54.518C87.3655 54.7885 87.1416 55.0078 86.8655 55.0078H78.0798C77.8037 55.0078 77.5798 54.7885 77.5798 54.518V53.9153C77.5798 53.6448 77.8037 53.4255 78.0798 53.4255H85.8309C86.1583 51.6308 87.5802 50.2094 89.3939 49.8803V33.2341C87.5802 32.905 86.1583 31.4836 85.8309 29.6889H72.9311C72.655 29.6889 72.4311 29.4696 72.4311 29.1991V28.5964C72.4311 28.3259 72.655 28.1066 72.9311 28.1066H86.8655C87.1416 28.1066 87.3655 28.3259 87.3655 28.5964V28.8978C87.3655 30.4656 88.641 31.7239 90.1969 31.7239H90.5C90.7761 31.7239 91 31.9431 91 32.2137V50.9008C91 51.1713 90.7761 51.3906 90.5 51.3906H90.1969C88.641 51.3906 87.3655 52.6488 87.3655 54.2167V54.518ZM21.4344 53.4255C21.7105 53.4255 21.9344 53.6448 21.9344 53.9153V54.518C21.9344 54.7885 21.7105 55.0078 21.4344 55.0078H11.1345C10.8584 55.0078 10.6345 54.7885 10.6345 54.518V54.2167C10.6345 52.6488 9.35904 51.3906 7.80307 51.3906H7.5C7.22386 51.3906 7 51.1713 7 50.9008V32.2137C7 31.9431 7.22386 31.7239 7.5 31.7239H7.80307C9.35904 31.7239 10.6345 30.4656 10.6345 28.8978V28.5964C10.6345 28.3259 10.8584 28.1066 11.1345 28.1066H25.0689C25.345 28.1066 25.5689 28.3259 25.5689 28.5964V29.1991C25.5689 29.4696 25.345 29.6889 25.0689 29.6889H12.1691C11.8417 31.4836 10.4198 32.905 8.60615 33.2341V49.8803C10.4198 50.2094 11.8417 51.6308 12.1691 53.4255H21.4344ZM37.4752 40.4197C37.4944 40.3527 37.5039 40.2841 37.5039 40.215V38.462C37.5039 37.796 37.24 37.1567 36.7648 36.6842C36.2914 36.2117 35.648 35.9446 34.9751 35.9432L34.9729 35.9432C34.6337 35.9439 34.3018 36.0121 33.9952 36.1404C33.6944 36.2666 33.4189 36.4507 33.1854 36.6843C32.7103 37.1568 32.4467 37.7958 32.4453 38.461V40.215C32.4453 40.2288 32.4459 40.2426 32.4471 40.2563L32.4506 40.2971C32.4527 40.3217 32.4568 40.3462 32.4627 40.3703L32.4733 40.4133C32.4781 40.4332 32.4843 40.4527 32.4916 40.4718L32.5069 40.5114C32.5125 40.5259 32.5187 40.5401 32.5257 40.5539C32.5629 40.6282 32.6107 40.6926 32.6621 40.7457L32.6701 40.7538C32.815 40.897 33.0119 40.978 33.2178 40.978H36.7314C36.9396 40.978 37.135 40.8962 37.2791 40.7538L37.2843 40.7486C37.3211 40.7112 37.3559 40.6682 37.3862 40.6207L37.3872 40.619C37.4279 40.5544 37.4565 40.4867 37.4752 40.4197ZM13.4906 31.9723C13.5793 31.8188 13.7455 31.7239 13.9256 31.7239H25.0689C25.345 31.7239 25.5689 31.9431 25.5689 32.2137V32.8163C25.5689 33.0868 25.345 33.3061 25.0689 33.3061H14.5494C13.9452 34.2185 13.1589 35.0008 12.2407 35.6026V47.5119C13.1589 48.1136 13.9452 48.8959 14.5494 49.8083H21.4344C21.7105 49.8083 21.9344 50.0276 21.9344 50.2981V50.9008C21.9344 51.1713 21.7105 51.3906 21.4344 51.3906H13.9256C13.7455 51.3906 13.5793 51.2957 13.4906 51.1421L13.4042 50.9928C12.8353 50.0143 12.0153 49.1988 11.0332 48.6337L10.8824 48.5474C10.7289 48.4596 10.6345 48.2986 10.6345 48.1244V34.99C10.6345 34.8159 10.7289 34.6548 10.8824 34.567L11.0328 34.481C12.0148 33.9159 12.835 33.1 13.4041 32.1219L13.4906 31.9723ZM83.4507 49.8083C83.6068 49.5724 83.7749 49.3453 83.9544 49.1276C84.1005 48.9508 84.2545 48.7793 84.4164 48.6149C84.8218 48.2019 85.272 47.8313 85.7593 47.5119V35.6026C84.8411 35.0008 84.0548 34.2185 83.4506 33.3061H73.8391C73.563 33.3061 73.3391 33.0868 73.3391 32.8163V32.2137C73.3391 31.9431 73.563 31.7239 73.8391 31.7239H84.0744C84.2545 31.7239 84.4207 31.8188 84.5094 31.9723L84.5959 32.1218C84.896 32.6385 85.2672 33.1101 85.6953 33.5237C86.0774 33.8929 86.5039 34.2147 86.967 34.4809L87.1176 34.567C87.2711 34.6548 87.3655 34.8159 87.3655 34.99V48.1244C87.3655 48.2986 87.2711 48.4596 87.1176 48.5474L86.9672 48.6334C85.985 49.1985 85.1651 50.0143 84.596 50.9924L84.5094 51.1421C84.4207 51.2957 84.2545 51.3906 84.0744 51.3906H77.1718C76.8956 51.3906 76.6718 51.1713 76.6718 50.9008V50.2981C76.6718 50.0276 76.8956 49.8083 77.1718 49.8083H83.4507ZM28.7195 49.7473V53.4806H32.4453V49.7473H28.7195ZM41.2297 49.7473H37.5039V53.4806H41.2297V49.7473ZM50.0142 49.7473H46.2884V53.4806H50.0142V49.7473ZM59.465 23.668H70.2191V21.6876H59.465V23.668ZM53.3178 17.5299H55.2851V15.5494H53.3178V17.5299ZM53.3178 21.0375H55.2851V19.057H53.3178V21.0375ZM42.776 17.5299H44.7445V15.5494H42.776V17.5299ZM42.776 21.0375H44.7445V19.057H42.776V21.0375ZM32.233 17.5299H34.2027V15.5494H32.233V17.5299ZM32.233 21.0375H34.2027V19.057H32.233V21.0375ZM35.96 39.4508V38.4609C35.96 38.1961 35.8545 37.9437 35.6686 37.7582C35.4831 37.5731 35.233 37.4704 34.974 37.4704C34.7169 37.4704 34.4677 37.5727 34.2818 37.7582C34.0959 37.9437 33.9904 38.1961 33.9904 38.4609V39.4508H35.96Z" fill="#2463B8"/>
<path fill-rule="evenodd" clip-rule="evenodd" d="M45.8541 40.4197C45.8733 40.3527 45.8828 40.2841 45.8828 40.215V38.462C45.8828 37.796 45.6189 37.1567 45.1437 36.6842C44.6703 36.2117 44.027 35.9446 43.354 35.9432L43.3519 35.9432C43.0126 35.9439 42.6807 36.0121 42.3742 36.1404C42.0733 36.2666 41.7979 36.4507 41.5644 36.6843C41.0892 37.1568 40.8257 37.7958 40.8242 38.461V40.215C40.8242 40.2288 40.8248 40.2426 40.826 40.2563L40.8295 40.2971C40.8317 40.3217 40.8357 40.3462 40.8416 40.3703L40.8522 40.4133C40.8571 40.4332 40.8632 40.4527 40.8706 40.4718L40.8858 40.5114C40.8914 40.5259 40.8977 40.5401 40.9046 40.5539C40.9418 40.6282 40.9897 40.6926 41.041 40.7457L41.049 40.7538C41.1939 40.897 41.3908 40.978 41.5967 40.978H45.1103C45.3186 40.978 45.5139 40.8962 45.6581 40.7538L45.6632 40.7486C45.7 40.7112 45.7349 40.6682 45.7651 40.6207L45.7661 40.6191C45.8068 40.5544 45.8355 40.4867 45.8541 40.4197ZM44.3388 38.4605V39.4504H42.3691V38.4605C42.3691 38.1958 42.4747 37.9433 42.6606 37.7578C42.8465 37.5723 43.0957 37.47 43.3528 37.47C43.6117 37.47 43.8619 37.5727 44.0474 37.7578C44.2332 37.9433 44.3388 38.1958 44.3388 38.4605Z" fill="#2463B8"/>
<path fill-rule="evenodd" clip-rule="evenodd" d="M54.0299 40.4197C54.0491 40.3527 54.0586 40.2841 54.0586 40.215V38.462C54.0586 37.796 53.7947 37.1567 53.3195 36.6842C52.8461 36.2117 52.2027 35.9446 51.5298 35.9432L51.5276 35.9432C51.1884 35.9439 50.8565 36.0121 50.5499 36.1404C50.2491 36.2666 49.9736 36.4507 49.7401 36.6843C49.265 37.1568 49.0014 37.7958 49 38.461V40.215C49 40.2288 49.0006 40.2426 49.0018 40.2563L49.0053 40.2971C49.0074 40.3217 49.0115 40.3462 49.0174 40.3703L49.028 40.4133C49.0328 40.4332 49.039 40.4527 49.0464 40.4718L49.0616 40.5114C49.0672 40.5259 49.0734 40.5401 49.0804 40.5539C49.1176 40.6282 49.1654 40.6926 49.2168 40.7457L49.2248 40.7538C49.3697 40.897 49.5666 40.978 49.7725 40.978H53.2861C53.4943 40.978 53.6897 40.8962 53.8338 40.7538L53.839 40.7486C53.8758 40.7112 53.9106 40.6682 53.9409 40.6207L53.9419 40.6191C53.9826 40.5544 54.0112 40.4867 54.0299 40.4197ZM52.5146 38.4605V39.4504H50.5449V38.4605C50.5449 38.1958 50.6505 37.9433 50.8364 37.7578C51.0223 37.5723 51.2714 37.47 51.5286 37.47C51.7875 37.47 52.0377 37.5727 52.2231 37.7578C52.409 37.9433 52.5146 38.1958 52.5146 38.4605Z" fill="#2463B8"/>
<path d="M37.8932 7.18871C37.9882 7.07426 38.1307 7.00781 38.2813 7.00781H38.8404C39.0675 7.00781 39.2661 7.15776 39.3239 7.37291C39.4093 7.69061 39.5758 7.9821 39.8105 8.21646C40.0798 8.48548 40.4223 8.66322 40.7888 8.73073C40.8968 8.75068 41.0093 8.76075 41.1229 8.76075C41.551 8.76075 41.9694 8.84109 42.3584 8.99207C42.7956 9.16188 43.1974 9.42166 43.5353 9.75851C44.0055 10.2275 44.322 10.8175 44.4574 11.4526C44.4882 11.597 44.451 11.7472 44.356 11.8617C44.2611 11.9761 44.1185 12.0426 43.968 12.0426H43.4088C43.1817 12.0426 42.9831 11.8926 42.9253 11.6775C42.8768 11.4971 42.8028 11.3262 42.7048 11.1696L42.6413 11.0728C42.581 10.9874 42.5143 10.9082 42.4404 10.835L42.439 10.8337C42.0892 10.485 41.6155 10.29 41.1243 10.2891C40.6645 10.2877 40.213 10.1956 39.796 10.0195C39.3958 9.8501 39.0264 9.60455 38.7136 9.29092C38.2434 8.82249 37.9272 8.23258 37.7918 7.59778C37.761 7.45342 37.7983 7.30316 37.8932 7.18871Z" fill="#2463B8"/>
<path d="M48.2214 7.18871C48.3163 7.07426 48.4588 7.00781 48.6094 7.00781H49.1685C49.3957 7.00781 49.5942 7.15776 49.6521 7.37291C49.7374 7.69061 49.9039 7.9821 50.1386 8.21646C50.4079 8.48548 50.7504 8.66322 51.1169 8.73073C51.2249 8.75068 51.3375 8.76075 51.451 8.76075C51.8792 8.76075 52.2975 8.84109 52.6865 8.99207C53.1237 9.16188 53.5256 9.42166 53.8634 9.75851C54.3336 10.2275 54.6501 10.8175 54.7856 11.4526C54.8163 11.597 54.7791 11.7472 54.6842 11.8617C54.5892 11.9761 54.4467 12.0426 54.2961 12.0426H53.737C53.5098 12.0426 53.3113 11.8926 53.2534 11.6775C53.205 11.4971 53.131 11.3262 53.0329 11.1696L52.9694 11.0728C52.9091 10.9874 52.8425 10.9082 52.7685 10.835L52.7672 10.8337C52.4173 10.485 51.9436 10.29 51.4524 10.2891C50.9927 10.2877 50.5411 10.1956 50.1242 10.0195C49.7239 9.8501 49.3545 9.60455 49.0417 9.29092C48.5716 8.82249 48.2553 8.23258 48.1199 7.59778C48.0892 7.45342 48.1264 7.30316 48.2214 7.18871Z" fill="#2463B8"/>
<path d="M27.5651 7.18871C27.66 7.07426 27.8026 7.00781 27.9531 7.00781H28.5123C28.7394 7.00781 28.938 7.15776 28.9958 7.37291C29.0812 7.69061 29.2477 7.9821 29.4824 8.21646C29.7517 8.48548 30.0941 8.66322 30.4607 8.73073C30.5687 8.75068 30.6812 8.76075 30.7947 8.76075C31.2229 8.76075 31.6413 8.84109 32.0303 8.99207C32.4675 9.16188 32.8693 9.42166 33.2071 9.75851C33.6774 10.2275 33.9939 10.8175 34.1293 11.4526C34.1601 11.597 34.1229 11.7472 34.0279 11.8617C33.933 11.9761 33.7904 12.0426 33.6399 12.0426H33.0807C32.8536 12.0426 32.655 11.8926 32.5972 11.6775C32.5487 11.4971 32.4747 11.3262 32.3767 11.1696L32.3132 11.0728C32.2529 10.9874 32.1862 10.9082 32.1123 10.835L32.1109 10.8337C31.7611 10.485 31.2874 10.29 30.7962 10.2891C30.3364 10.2877 29.8849 10.1956 29.4679 10.0195C29.0677 9.8501 28.6983 9.60455 28.3855 9.29092C27.9153 8.82249 27.5991 8.23258 27.4637 7.59778C27.4329 7.45342 27.4702 7.30316 27.5651 7.18871Z" fill="#2463B8"/>
<defs>
<filter id="filter0_d" x="0" y="0" width="98" height="62" filterUnits="userSpaceOnUse" color-interpolation-filters="sRGB">
<feFlood flood-opacity="0" result="BackgroundImageFix"/>
<feColorMatrix in="SourceAlpha" type="matrix" values="0 0 0 0 0 0 0 0 0 0 0 0 0 0 0 0 0 0 127 0"/>
<feOffset/>
<feGaussianBlur stdDeviation="2"/>
<feColorMatrix type="matrix" values="0 0 0 0 0.141176 0 0 0 0 0.388235 0 0 0 0 0.721569 0 0 0 0.2 0"/>
<feBlend mode="normal" in2="BackgroundImageFix" result="effect1_dropShadow"/>
<feBlend mode="normal" in="SourceGraphic" in2="effect1_dropShadow" result="shape"/>
</filter>
</defs>
</svg>
